<?xml version="1.0" encoding="utf-8"?>
<svg xmlns="http://www.w3.org/2000/svg" xmlns:xlink="http://www.w3.org/1999/xlink" width="600" height="400" viewBox="0 0 2400 1600">
<defs>
  <clipPath id="clip720">
    <rect x="0" y="0" width="2400" height="1600"/>
  </clipPath>
</defs>
<path clip-path="url(#clip720)" d="M0 1600 L2400 1600 L2400 0 L0 0  Z" fill="#ffffff" fill-rule="evenodd" fill-opacity="1"/>
<defs>
  <clipPath id="clip721">
    <rect x="480" y="0" width="1681" height="1600"/>
  </clipPath>
</defs>
<defs>
  <clipPath id="clip722">
    <rect x="313" y="47" width="2040" height="1377"/>
  </clipPath>
</defs>
<path clip-path="url(#clip720)" d="M219.288 1423.18 L2352.76 1423.18 L2352.76 47.2441 L219.288 47.2441  Z" fill="#ffffff" fill-rule="evenodd" fill-opacity="1"/>
<defs>
  <clipPath id="clip723">
    <rect x="219" y="47" width="2134" height="1377"/>
  </clipPath>
</defs>
<polyline clip-path="url(#clip723)" style="stroke:#000000; stroke-linecap:round; stroke-linejoin:round; stroke-width:2; stroke-opacity:0.1; fill:none" points="219.288,1423.18 219.288,47.2441 "/>
<polyline clip-path="url(#clip723)" style="stroke:#000000; stroke-linecap:round; stroke-linejoin:round; stroke-width:2; stroke-opacity:0.1; fill:none" points="645.981,1423.18 645.981,47.2441 "/>
<polyline clip-path="url(#clip723)" style="stroke:#000000; stroke-linecap:round; stroke-linejoin:round; stroke-width:2; stroke-opacity:0.1; fill:none" points="1072.67,1423.18 1072.67,47.2441 "/>
<polyline clip-path="url(#clip723)" style="stroke:#000000; stroke-linecap:round; stroke-linejoin:round; stroke-width:2; stroke-opacity:0.1; fill:none" points="1499.37,1423.18 1499.37,47.2441 "/>
<polyline clip-path="url(#clip723)" style="stroke:#000000; stroke-linecap:round; stroke-linejoin:round; stroke-width:2; stroke-opacity:0.1; fill:none" points="1926.06,1423.18 1926.06,47.2441 "/>
<polyline clip-path="url(#clip723)" style="stroke:#000000; stroke-linecap:round; stroke-linejoin:round; stroke-width:2; stroke-opacity:0.1; fill:none" points="2352.76,1423.18 2352.76,47.2441 "/>
<polyline clip-path="url(#clip720)" style="stroke:#000000; stroke-linecap:round; stroke-linejoin:round; stroke-width:4; stroke-opacity:1; fill:none" points="219.288,1423.18 2352.76,1423.18 "/>
<polyline clip-path="url(#clip720)" style="stroke:#000000; stroke-linecap:round; stroke-linejoin:round; stroke-width:4; stroke-opacity:1; fill:none" points="219.288,1423.18 219.288,1404.28 "/>
<polyline clip-path="url(#clip720)" style="stroke:#000000; stroke-linecap:round; stroke-linejoin:round; stroke-width:4; stroke-opacity:1; fill:none" points="645.981,1423.18 645.981,1404.28 "/>
<polyline clip-path="url(#clip720)" style="stroke:#000000; stroke-linecap:round; stroke-linejoin:round; stroke-width:4; stroke-opacity:1; fill:none" points="1072.67,1423.18 1072.67,1404.28 "/>
<polyline clip-path="url(#clip720)" style="stroke:#000000; stroke-linecap:round; stroke-linejoin:round; stroke-width:4; stroke-opacity:1; fill:none" points="1499.37,1423.18 1499.37,1404.28 "/>
<polyline clip-path="url(#clip720)" style="stroke:#000000; stroke-linecap:round; stroke-linejoin:round; stroke-width:4; stroke-opacity:1; fill:none" points="1926.06,1423.18 1926.06,1404.28 "/>
<polyline clip-path="url(#clip720)" style="stroke:#000000; stroke-linecap:round; stroke-linejoin:round; stroke-width:4; stroke-opacity:1; fill:none" points="2352.76,1423.18 2352.76,1404.28 "/>
<path clip-path="url(#clip720)" d="M209.67 1481.64 L217.308 1481.64 L217.308 1455.28 L208.998 1456.95 L208.998 1452.69 L217.262 1451.02 L221.938 1451.02 L221.938 1481.64 L229.577 1481.64 L229.577 1485.58 L209.67 1485.58 L209.67 1481.64 Z" fill="#000000" fill-rule="evenodd" fill-opacity="1" /><path clip-path="url(#clip720)" d="M640.634 1481.64 L656.953 1481.64 L656.953 1485.58 L635.009 1485.58 L635.009 1481.64 Q637.671 1478.89 642.254 1474.26 Q646.861 1469.61 648.041 1468.27 Q650.287 1465.74 651.166 1464.01 Q652.069 1462.25 652.069 1460.56 Q652.069 1457.8 650.125 1456.07 Q648.203 1454.33 645.102 1454.33 Q642.903 1454.33 640.449 1455.09 Q638.018 1455.86 635.241 1457.41 L635.241 1452.69 Q638.065 1451.55 640.518 1450.97 Q642.972 1450.39 645.009 1450.39 Q650.379 1450.39 653.574 1453.08 Q656.768 1455.77 656.768 1460.26 Q656.768 1462.39 655.958 1464.31 Q655.171 1466.2 653.065 1468.8 Q652.486 1469.47 649.384 1472.69 Q646.282 1475.88 640.634 1481.64 Z" fill="#000000" fill-rule="evenodd" fill-opacity="1" /><path clip-path="url(#clip720)" d="M1076.92 1466.95 Q1080.28 1467.66 1082.15 1469.93 Q1084.05 1472.2 1084.05 1475.53 Q1084.05 1480.65 1080.53 1483.45 Q1077.02 1486.25 1070.53 1486.25 Q1068.36 1486.25 1066.04 1485.81 Q1063.75 1485.39 1061.3 1484.54 L1061.3 1480.02 Q1063.24 1481.16 1065.56 1481.74 Q1067.87 1482.32 1070.39 1482.32 Q1074.79 1482.32 1077.08 1480.58 Q1079.4 1478.84 1079.4 1475.53 Q1079.4 1472.48 1077.25 1470.77 Q1075.12 1469.03 1071.3 1469.03 L1067.27 1469.03 L1067.27 1465.19 L1071.48 1465.19 Q1074.93 1465.19 1076.76 1463.82 Q1078.59 1462.43 1078.59 1459.84 Q1078.59 1457.18 1076.69 1455.77 Q1074.82 1454.33 1071.3 1454.33 Q1069.38 1454.33 1067.18 1454.75 Q1064.98 1455.16 1062.34 1456.04 L1062.34 1451.88 Q1065 1451.14 1067.32 1450.77 Q1069.65 1450.39 1071.71 1450.39 Q1077.04 1450.39 1080.14 1452.83 Q1083.24 1455.23 1083.24 1459.35 Q1083.24 1462.22 1081.6 1464.21 Q1079.95 1466.18 1076.92 1466.95 Z" fill="#000000" fill-rule="evenodd" fill-opacity="1" /><path clip-path="url(#clip720)" d="M1502.38 1455.09 L1490.57 1473.54 L1502.38 1473.54 L1502.38 1455.09 M1501.15 1451.02 L1507.03 1451.02 L1507.03 1473.54 L1511.96 1473.54 L1511.96 1477.43 L1507.03 1477.43 L1507.03 1485.58 L1502.38 1485.58 L1502.38 1477.43 L1486.78 1477.43 L1486.78 1472.92 L1501.15 1451.02 Z" fill="#000000" fill-rule="evenodd" fill-opacity="1" /><path clip-path="url(#clip720)" d="M1916.34 1451.02 L1934.7 1451.02 L1934.7 1454.96 L1920.62 1454.96 L1920.62 1463.43 Q1921.64 1463.08 1922.66 1462.92 Q1923.68 1462.73 1924.7 1462.73 Q1930.48 1462.73 1933.86 1465.9 Q1937.24 1469.08 1937.24 1474.49 Q1937.24 1480.07 1933.77 1483.17 Q1930.3 1486.25 1923.98 1486.25 Q1921.8 1486.25 1919.53 1485.88 Q1917.29 1485.51 1914.88 1484.77 L1914.88 1480.07 Q1916.97 1481.2 1919.19 1481.76 Q1921.41 1482.32 1923.89 1482.32 Q1927.89 1482.32 1930.23 1480.21 Q1932.57 1478.1 1932.57 1474.49 Q1932.57 1470.88 1930.23 1468.77 Q1927.89 1466.67 1923.89 1466.67 Q1922.01 1466.67 1920.14 1467.08 Q1918.28 1467.5 1916.34 1468.38 L1916.34 1451.02 Z" fill="#000000" fill-rule="evenodd" fill-opacity="1" /><path clip-path="url(#clip720)" d="M2353.16 1466.44 Q2350.01 1466.44 2348.16 1468.59 Q2346.33 1470.74 2346.33 1474.49 Q2346.33 1478.22 2348.16 1480.39 Q2350.01 1482.55 2353.16 1482.55 Q2356.31 1482.55 2358.14 1480.39 Q2359.99 1478.22 2359.99 1474.49 Q2359.99 1470.74 2358.14 1468.59 Q2356.31 1466.44 2353.16 1466.44 M2362.44 1451.78 L2362.44 1456.04 Q2360.68 1455.21 2358.88 1454.77 Q2357.1 1454.33 2355.34 1454.33 Q2350.71 1454.33 2348.25 1457.45 Q2345.82 1460.58 2345.48 1466.9 Q2346.84 1464.89 2348.9 1463.82 Q2350.96 1462.73 2353.44 1462.73 Q2358.65 1462.73 2361.66 1465.9 Q2364.69 1469.05 2364.69 1474.49 Q2364.69 1479.82 2361.54 1483.03 Q2358.39 1486.25 2353.16 1486.25 Q2347.17 1486.25 2343.99 1481.67 Q2340.82 1477.06 2340.82 1468.33 Q2340.82 1460.14 2344.71 1455.28 Q2348.6 1450.39 2355.15 1450.39 Q2356.91 1450.39 2358.69 1450.74 Q2360.5 1451.09 2362.44 1451.78 Z" fill="#000000" fill-rule="evenodd" fill-opacity="1" /><path clip-path="url(#clip720)" d="M987.772 1550.12 Q980.675 1550.12 977.937 1551.75 Q975.2 1553.37 975.2 1557.29 Q975.2 1560.4 977.237 1562.25 Q979.306 1564.07 982.839 1564.07 Q987.709 1564.07 990.637 1560.63 Q993.597 1557.16 993.597 1551.43 L993.597 1550.12 L987.772 1550.12 M999.454 1547.71 L999.454 1568.04 L993.597 1568.04 L993.597 1562.63 Q991.592 1565.88 988.6 1567.44 Q985.608 1568.97 981.279 1568.97 Q975.805 1568.97 972.558 1565.91 Q969.344 1562.82 969.344 1557.67 Q969.344 1551.65 973.354 1548.6 Q977.396 1545.54 985.385 1545.54 L993.597 1545.54 L993.597 1544.97 Q993.597 1540.93 990.923 1538.73 Q988.282 1536.5 983.476 1536.5 Q980.42 1536.5 977.524 1537.23 Q974.627 1537.97 971.954 1539.43 L971.954 1534.02 Q975.168 1532.78 978.192 1532.17 Q981.216 1531.54 984.08 1531.54 Q991.815 1531.54 995.634 1535.55 Q999.454 1539.56 999.454 1547.71 Z" fill="#000000" fill-rule="evenodd" fill-opacity="1" /><path clip-path="url(#clip720)" d="M1017.18 1562.7 L1017.18 1581.6 L1011.29 1581.6 L1011.29 1532.4 L1017.18 1532.4 L1017.18 1537.81 Q1019.03 1534.62 1021.83 1533.1 Q1024.66 1531.54 1028.58 1531.54 Q1035.07 1531.54 1039.11 1536.69 Q1043.19 1541.85 1043.19 1550.25 Q1043.19 1558.65 1039.11 1563.81 Q1035.07 1568.97 1028.58 1568.97 Q1024.66 1568.97 1021.83 1567.44 Q1019.03 1565.88 1017.18 1562.7 M1037.11 1550.25 Q1037.11 1543.79 1034.43 1540.13 Q1031.79 1536.44 1027.14 1536.44 Q1022.5 1536.44 1019.82 1540.13 Q1017.18 1543.79 1017.18 1550.25 Q1017.18 1556.71 1019.82 1560.4 Q1022.5 1564.07 1027.14 1564.07 Q1031.79 1564.07 1034.43 1560.4 Q1037.11 1556.71 1037.11 1550.25 Z" fill="#000000" fill-rule="evenodd" fill-opacity="1" /><path clip-path="url(#clip720)" d="M1058.56 1562.7 L1058.56 1581.6 L1052.67 1581.6 L1052.67 1532.4 L1058.56 1532.4 L1058.56 1537.81 Q1060.41 1534.62 1063.21 1533.1 Q1066.04 1531.54 1069.95 1531.54 Q1076.45 1531.54 1080.49 1536.69 Q1084.56 1541.85 1084.56 1550.25 Q1084.56 1558.65 1080.49 1563.81 Q1076.45 1568.97 1069.95 1568.97 Q1066.04 1568.97 1063.21 1567.44 Q1060.41 1565.88 1058.56 1562.7 M1078.48 1550.25 Q1078.48 1543.79 1075.81 1540.13 Q1073.17 1536.44 1068.52 1536.44 Q1063.87 1536.44 1061.2 1540.13 Q1058.56 1543.79 1058.56 1550.25 Q1058.56 1556.71 1061.2 1560.4 Q1063.87 1564.07 1068.52 1564.07 Q1073.17 1564.07 1075.81 1560.4 Q1078.48 1556.71 1078.48 1550.25 Z" fill="#000000" fill-rule="evenodd" fill-opacity="1" /><path clip-path="url(#clip720)" d="M1114.93 1537.87 Q1113.94 1537.3 1112.76 1537.04 Q1111.62 1536.76 1110.22 1536.76 Q1105.25 1536.76 1102.58 1540 Q1099.94 1543.22 1099.94 1549.27 L1099.94 1568.04 L1094.05 1568.04 L1094.05 1532.4 L1099.94 1532.4 L1099.94 1537.93 Q1101.78 1534.69 1104.74 1533.13 Q1107.7 1531.54 1111.94 1531.54 Q1112.54 1531.54 1113.27 1531.63 Q1114 1531.7 1114.9 1531.85 L1114.93 1537.87 Z" fill="#000000" fill-rule="evenodd" fill-opacity="1" /><path clip-path="url(#clip720)" d="M1133.45 1536.5 Q1128.74 1536.5 1126 1540.19 Q1123.27 1543.85 1123.27 1550.25 Q1123.27 1556.65 1125.97 1560.34 Q1128.71 1564 1133.45 1564 Q1138.13 1564 1140.87 1560.31 Q1143.6 1556.62 1143.6 1550.25 Q1143.6 1543.92 1140.87 1540.23 Q1138.13 1536.5 1133.45 1536.5 M1133.45 1531.54 Q1141.09 1531.54 1145.45 1536.5 Q1149.81 1541.47 1149.81 1550.25 Q1149.81 1559 1145.45 1564 Q1141.09 1568.97 1133.45 1568.97 Q1125.78 1568.97 1121.42 1564 Q1117.09 1559 1117.09 1550.25 Q1117.09 1541.47 1121.42 1536.5 Q1125.78 1531.54 1133.45 1531.54 Z" fill="#000000" fill-rule="evenodd" fill-opacity="1" /><path clip-path="url(#clip720)" d="M1187.15 1532.4 L1174.26 1549.74 L1187.81 1568.04 L1180.91 1568.04 L1170.53 1554.04 L1160.16 1568.04 L1153.25 1568.04 L1167.09 1549.39 L1154.43 1532.4 L1161.33 1532.4 L1170.79 1545.1 L1180.24 1532.4 L1187.15 1532.4 Z" fill="#000000" fill-rule="evenodd" fill-opacity="1" /><path clip-path="url(#clip720)" d="M1196.09 1532.4 L1201.95 1532.4 L1201.95 1568.04 L1196.09 1568.04 L1196.09 1532.4 M1196.09 1518.52 L1201.95 1518.52 L1201.95 1525.93 L1196.09 1525.93 L1196.09 1518.52 Z" fill="#000000" fill-rule="evenodd" fill-opacity="1" /><path clip-path="url(#clip720)" d="M1241.96 1539.24 Q1244.15 1535.29 1247.21 1533.41 Q1250.26 1531.54 1254.4 1531.54 Q1259.97 1531.54 1262.99 1535.45 Q1266.02 1539.33 1266.02 1546.53 L1266.02 1568.04 L1260.13 1568.04 L1260.13 1546.72 Q1260.13 1541.59 1258.31 1539.11 Q1256.5 1536.63 1252.78 1536.63 Q1248.23 1536.63 1245.58 1539.65 Q1242.94 1542.68 1242.94 1547.9 L1242.94 1568.04 L1237.05 1568.04 L1237.05 1546.72 Q1237.05 1541.56 1235.24 1539.11 Q1233.43 1536.63 1229.64 1536.63 Q1225.15 1536.63 1222.51 1539.68 Q1219.87 1542.71 1219.87 1547.9 L1219.87 1568.04 L1213.98 1568.04 L1213.98 1532.4 L1219.87 1532.4 L1219.87 1537.93 Q1221.87 1534.66 1224.67 1533.1 Q1227.47 1531.54 1231.32 1531.54 Q1235.21 1531.54 1237.91 1533.51 Q1240.65 1535.48 1241.96 1539.24 Z" fill="#000000" fill-rule="evenodd" fill-opacity="1" /><path clip-path="url(#clip720)" d="M1293.9 1550.12 Q1286.8 1550.12 1284.06 1551.75 Q1281.33 1553.37 1281.33 1557.29 Q1281.33 1560.4 1283.36 1562.25 Q1285.43 1564.07 1288.97 1564.07 Q1293.84 1564.07 1296.76 1560.63 Q1299.72 1557.16 1299.72 1551.43 L1299.72 1550.12 L1293.9 1550.12 M1305.58 1547.71 L1305.58 1568.04 L1299.72 1568.04 L1299.72 1562.63 Q1297.72 1565.88 1294.73 1567.44 Q1291.73 1568.97 1287.41 1568.97 Q1281.93 1568.97 1278.69 1565.91 Q1275.47 1562.82 1275.47 1557.67 Q1275.47 1551.65 1279.48 1548.6 Q1283.52 1545.54 1291.51 1545.54 L1299.72 1545.54 L1299.72 1544.97 Q1299.72 1540.93 1297.05 1538.73 Q1294.41 1536.5 1289.6 1536.5 Q1286.55 1536.5 1283.65 1537.23 Q1280.75 1537.97 1278.08 1539.43 L1278.08 1534.02 Q1281.3 1532.78 1284.32 1532.17 Q1287.34 1531.54 1290.21 1531.54 Q1297.94 1531.54 1301.76 1535.55 Q1305.58 1539.56 1305.58 1547.71 Z" fill="#000000" fill-rule="evenodd" fill-opacity="1" /><path clip-path="url(#clip720)" d="M1323.44 1522.27 L1323.44 1532.4 L1335.5 1532.4 L1335.5 1536.95 L1323.44 1536.95 L1323.44 1556.3 Q1323.44 1560.66 1324.61 1561.9 Q1325.82 1563.14 1329.48 1563.14 L1335.5 1563.14 L1335.5 1568.04 L1329.48 1568.04 Q1322.7 1568.04 1320.13 1565.53 Q1317.55 1562.98 1317.55 1556.3 L1317.55 1536.95 L1313.25 1536.95 L1313.25 1532.4 L1317.55 1532.4 L1317.55 1522.27 L1323.44 1522.27 Z" fill="#000000" fill-rule="evenodd" fill-opacity="1" /><path clip-path="url(#clip720)" d="M1343.2 1532.4 L1349.06 1532.4 L1349.06 1568.04 L1343.2 1568.04 L1343.2 1532.4 M1343.2 1518.52 L1349.06 1518.52 L1349.06 1525.93 L1343.2 1525.93 L1343.2 1518.52 Z" fill="#000000" fill-rule="evenodd" fill-opacity="1" /><path clip-path="url(#clip720)" d="M1375.13 1536.5 Q1370.42 1536.5 1367.68 1540.19 Q1364.94 1543.85 1364.94 1550.25 Q1364.94 1556.65 1367.65 1560.34 Q1370.38 1564 1375.13 1564 Q1379.8 1564 1382.54 1560.31 Q1385.28 1556.62 1385.28 1550.25 Q1385.28 1543.92 1382.54 1540.23 Q1379.8 1536.5 1375.13 1536.5 M1375.13 1531.54 Q1382.76 1531.54 1387.13 1536.5 Q1391.49 1541.47 1391.49 1550.25 Q1391.49 1559 1387.13 1564 Q1382.76 1568.97 1375.13 1568.97 Q1367.46 1568.97 1363.09 1564 Q1358.77 1559 1358.77 1550.25 Q1358.77 1541.47 1363.09 1536.5 Q1367.46 1531.54 1375.13 1531.54 Z" fill="#000000" fill-rule="evenodd" fill-opacity="1" /><path clip-path="url(#clip720)" d="M1430.83 1546.53 L1430.83 1568.04 L1424.97 1568.04 L1424.97 1546.72 Q1424.97 1541.66 1423 1539.14 Q1421.02 1536.63 1417.08 1536.63 Q1412.33 1536.63 1409.6 1539.65 Q1406.86 1542.68 1406.86 1547.9 L1406.86 1568.04 L1400.97 1568.04 L1400.97 1532.4 L1406.86 1532.4 L1406.86 1537.93 Q1408.96 1534.72 1411.79 1533.13 Q1414.66 1531.54 1418.38 1531.54 Q1424.52 1531.54 1427.67 1535.36 Q1430.83 1539.14 1430.83 1546.53 Z" fill="#000000" fill-rule="evenodd" fill-opacity="1" /><path clip-path="url(#clip720)" d="M1483.88 1537.87 Q1482.9 1537.3 1481.72 1537.04 Q1480.57 1536.76 1479.17 1536.76 Q1474.21 1536.76 1471.53 1540 Q1468.89 1543.22 1468.89 1549.27 L1468.89 1568.04 L1463 1568.04 L1463 1532.4 L1468.89 1532.4 L1468.89 1537.93 Q1470.74 1534.69 1473.7 1533.13 Q1476.66 1531.54 1480.89 1531.54 Q1481.5 1531.54 1482.23 1531.63 Q1482.96 1531.7 1483.85 1531.85 L1483.88 1537.87 Z" fill="#000000" fill-rule="evenodd" fill-opacity="1" /><path clip-path="url(#clip720)" d="M1506.23 1550.12 Q1499.13 1550.12 1496.39 1551.75 Q1493.66 1553.37 1493.66 1557.29 Q1493.66 1560.4 1495.69 1562.25 Q1497.76 1564.07 1501.29 1564.07 Q1506.16 1564.07 1509.09 1560.63 Q1512.05 1557.16 1512.05 1551.43 L1512.05 1550.12 L1506.23 1550.12 M1517.91 1547.71 L1517.91 1568.04 L1512.05 1568.04 L1512.05 1562.63 Q1510.05 1565.88 1507.05 1567.44 Q1504.06 1568.97 1499.73 1568.97 Q1494.26 1568.97 1491.01 1565.91 Q1487.8 1562.82 1487.8 1557.67 Q1487.8 1551.65 1491.81 1548.6 Q1495.85 1545.54 1503.84 1545.54 L1512.05 1545.54 L1512.05 1544.97 Q1512.05 1540.93 1509.38 1538.73 Q1506.74 1536.5 1501.93 1536.5 Q1498.88 1536.5 1495.98 1537.23 Q1493.08 1537.97 1490.41 1539.43 L1490.41 1534.02 Q1493.62 1532.78 1496.65 1532.17 Q1499.67 1531.54 1502.54 1531.54 Q1510.27 1531.54 1514.09 1535.55 Q1517.91 1539.56 1517.91 1547.71 Z" fill="#000000" fill-rule="evenodd" fill-opacity="1" /><path clip-path="url(#clip720)" d="M1559.6 1546.53 L1559.6 1568.04 L1553.75 1568.04 L1553.75 1546.72 Q1553.75 1541.66 1551.77 1539.14 Q1549.8 1536.63 1545.85 1536.63 Q1541.11 1536.63 1538.37 1539.65 Q1535.64 1542.68 1535.64 1547.9 L1535.64 1568.04 L1529.75 1568.04 L1529.75 1532.4 L1535.64 1532.4 L1535.64 1537.93 Q1537.74 1534.72 1540.57 1533.13 Q1543.43 1531.54 1547.16 1531.54 Q1553.3 1531.54 1556.45 1535.36 Q1559.6 1539.14 1559.6 1546.53 Z" fill="#000000" fill-rule="evenodd" fill-opacity="1" /><path clip-path="url(#clip720)" d="M1571.06 1518.52 L1576.95 1518.52 L1576.95 1547.77 L1594.42 1532.4 L1601.9 1532.4 L1583 1549.07 L1602.7 1568.04 L1595.06 1568.04 L1576.95 1550.63 L1576.95 1568.04 L1571.06 1568.04 L1571.06 1518.52 Z" fill="#000000" fill-rule="evenodd" fill-opacity="1" /><polyline clip-path="url(#clip723)" style="stroke:#000000; stroke-linecap:round; stroke-linejoin:round; stroke-width:2; stroke-opacity:0.1; fill:none" points="219.288,1268.23 2352.76,1268.23 "/>
<polyline clip-path="url(#clip723)" style="stroke:#000000; stroke-linecap:round; stroke-linejoin:round; stroke-width:2; stroke-opacity:0.1; fill:none" points="219.288,1081.61 2352.76,1081.61 "/>
<polyline clip-path="url(#clip723)" style="stroke:#000000; stroke-linecap:round; stroke-linejoin:round; stroke-width:2; stroke-opacity:0.1; fill:none" points="219.288,894.994 2352.76,894.994 "/>
<polyline clip-path="url(#clip723)" style="stroke:#000000; stroke-linecap:round; stroke-linejoin:round; stroke-width:2; stroke-opacity:0.1; fill:none" points="219.288,708.374 2352.76,708.374 "/>
<polyline clip-path="url(#clip723)" style="stroke:#000000; stroke-linecap:round; stroke-linejoin:round; stroke-width:2; stroke-opacity:0.1; fill:none" points="219.288,521.755 2352.76,521.755 "/>
<polyline clip-path="url(#clip723)" style="stroke:#000000; stroke-linecap:round; stroke-linejoin:round; stroke-width:2; stroke-opacity:0.1; fill:none" points="219.288,335.135 2352.76,335.135 "/>
<polyline clip-path="url(#clip723)" style="stroke:#000000; stroke-linecap:round; stroke-linejoin:round; stroke-width:2; stroke-opacity:0.1; fill:none" points="219.288,148.515 2352.76,148.515 "/>
<polyline clip-path="url(#clip720)" style="stroke:#000000; stroke-linecap:round; stroke-linejoin:round; stroke-width:4; stroke-opacity:1; fill:none" points="219.288,1423.18 219.288,47.2441 "/>
<polyline clip-path="url(#clip720)" style="stroke:#000000; stroke-linecap:round; stroke-linejoin:round; stroke-width:4; stroke-opacity:1; fill:none" points="219.288,1268.23 238.185,1268.23 "/>
<polyline clip-path="url(#clip720)" style="stroke:#000000; stroke-linecap:round; stroke-linejoin:round; stroke-width:4; stroke-opacity:1; fill:none" points="219.288,1081.61 238.185,1081.61 "/>
<polyline clip-path="url(#clip720)" style="stroke:#000000; stroke-linecap:round; stroke-linejoin:round; stroke-width:4; stroke-opacity:1; fill:none" points="219.288,894.994 238.185,894.994 "/>
<polyline clip-path="url(#clip720)" style="stroke:#000000; stroke-linecap:round; stroke-linejoin:round; stroke-width:4; stroke-opacity:1; fill:none" points="219.288,708.374 238.185,708.374 "/>
<polyline clip-path="url(#clip720)" style="stroke:#000000; stroke-linecap:round; stroke-linejoin:round; stroke-width:4; stroke-opacity:1; fill:none" points="219.288,521.755 238.185,521.755 "/>
<polyline clip-path="url(#clip720)" style="stroke:#000000; stroke-linecap:round; stroke-linejoin:round; stroke-width:4; stroke-opacity:1; fill:none" points="219.288,335.135 238.185,335.135 "/>
<polyline clip-path="url(#clip720)" style="stroke:#000000; stroke-linecap:round; stroke-linejoin:round; stroke-width:4; stroke-opacity:1; fill:none" points="219.288,148.515 238.185,148.515 "/>
<path clip-path="url(#clip720)" d="M126.205 1254.03 Q122.593 1254.03 120.765 1257.6 Q118.959 1261.14 118.959 1268.27 Q118.959 1275.37 120.765 1278.94 Q122.593 1282.48 126.205 1282.48 Q129.839 1282.48 131.644 1278.94 Q133.473 1275.37 133.473 1268.27 Q133.473 1261.14 131.644 1257.6 Q129.839 1254.03 126.205 1254.03 M126.205 1250.33 Q132.015 1250.33 135.07 1254.93 Q138.149 1259.52 138.149 1268.27 Q138.149 1276.99 135.07 1281.6 Q132.015 1286.18 126.205 1286.18 Q120.394 1286.18 117.316 1281.6 Q114.26 1276.99 114.26 1268.27 Q114.26 1259.52 117.316 1254.93 Q120.394 1250.33 126.205 1250.33 Z" fill="#000000" fill-rule="evenodd" fill-opacity="1" /><path clip-path="url(#clip720)" d="M146.366 1279.63 L151.251 1279.63 L151.251 1285.51 L146.366 1285.51 L146.366 1279.63 Z" fill="#000000" fill-rule="evenodd" fill-opacity="1" /><path clip-path="url(#clip720)" d="M171.436 1269.1 Q168.102 1269.1 166.181 1270.88 Q164.283 1272.67 164.283 1275.79 Q164.283 1278.92 166.181 1280.7 Q168.102 1282.48 171.436 1282.48 Q174.769 1282.48 176.69 1280.7 Q178.612 1278.89 178.612 1275.79 Q178.612 1272.67 176.69 1270.88 Q174.792 1269.1 171.436 1269.1 M166.76 1267.11 Q163.751 1266.37 162.061 1264.31 Q160.394 1262.25 160.394 1259.29 Q160.394 1255.14 163.334 1252.74 Q166.297 1250.33 171.436 1250.33 Q176.598 1250.33 179.538 1252.74 Q182.477 1255.14 182.477 1259.29 Q182.477 1262.25 180.788 1264.31 Q179.121 1266.37 176.135 1267.11 Q179.514 1267.9 181.389 1270.19 Q183.288 1272.48 183.288 1275.79 Q183.288 1280.81 180.209 1283.5 Q177.153 1286.18 171.436 1286.18 Q165.718 1286.18 162.64 1283.5 Q159.584 1280.81 159.584 1275.79 Q159.584 1272.48 161.482 1270.19 Q163.38 1267.9 166.76 1267.11 M165.047 1259.73 Q165.047 1262.41 166.714 1263.92 Q168.403 1265.42 171.436 1265.42 Q174.445 1265.42 176.135 1263.92 Q177.848 1262.41 177.848 1259.73 Q177.848 1257.04 176.135 1255.54 Q174.445 1254.03 171.436 1254.03 Q168.403 1254.03 166.714 1255.54 Q165.047 1257.04 165.047 1259.73 Z" fill="#000000" fill-rule="evenodd" fill-opacity="1" /><path clip-path="url(#clip720)" d="M116.922 1094.96 L124.561 1094.96 L124.561 1068.59 L116.251 1070.26 L116.251 1066 L124.515 1064.33 L129.191 1064.33 L129.191 1094.96 L136.829 1094.96 L136.829 1098.89 L116.922 1098.89 L116.922 1094.96 Z" fill="#000000" fill-rule="evenodd" fill-opacity="1" /><path clip-path="url(#clip720)" d="M146.274 1093.01 L151.158 1093.01 L151.158 1098.89 L146.274 1098.89 L146.274 1093.01 Z" fill="#000000" fill-rule="evenodd" fill-opacity="1" /><path clip-path="url(#clip720)" d="M171.343 1067.41 Q167.732 1067.41 165.903 1070.98 Q164.098 1074.52 164.098 1081.65 Q164.098 1088.75 165.903 1092.32 Q167.732 1095.86 171.343 1095.86 Q174.977 1095.86 176.783 1092.32 Q178.612 1088.75 178.612 1081.65 Q178.612 1074.52 176.783 1070.98 Q174.977 1067.41 171.343 1067.41 M171.343 1063.71 Q177.153 1063.71 180.209 1068.32 Q183.288 1072.9 183.288 1081.65 Q183.288 1090.38 180.209 1094.98 Q177.153 1099.56 171.343 1099.56 Q165.533 1099.56 162.454 1094.98 Q159.399 1090.38 159.399 1081.65 Q159.399 1072.9 162.454 1068.32 Q165.533 1063.71 171.343 1063.71 Z" fill="#000000" fill-rule="evenodd" fill-opacity="1" /><path clip-path="url(#clip720)" d="M118.519 908.339 L126.158 908.339 L126.158 881.973 L117.848 883.64 L117.848 879.381 L126.112 877.714 L130.788 877.714 L130.788 908.339 L138.427 908.339 L138.427 912.274 L118.519 912.274 L118.519 908.339 Z" fill="#000000" fill-rule="evenodd" fill-opacity="1" /><path clip-path="url(#clip720)" d="M147.871 906.394 L152.755 906.394 L152.755 912.274 L147.871 912.274 L147.871 906.394 Z" fill="#000000" fill-rule="evenodd" fill-opacity="1" /><path clip-path="url(#clip720)" d="M166.968 908.339 L183.288 908.339 L183.288 912.274 L161.343 912.274 L161.343 908.339 Q164.005 905.584 168.589 900.955 Q173.195 896.302 174.376 894.959 Q176.621 892.436 177.501 890.7 Q178.403 888.941 178.403 887.251 Q178.403 884.496 176.459 882.76 Q174.538 881.024 171.436 881.024 Q169.237 881.024 166.783 881.788 Q164.352 882.552 161.575 884.103 L161.575 879.381 Q164.399 878.246 166.852 877.668 Q169.306 877.089 171.343 877.089 Q176.714 877.089 179.908 879.774 Q183.102 882.459 183.102 886.95 Q183.102 889.08 182.292 891.001 Q181.505 892.899 179.399 895.492 Q178.82 896.163 175.718 899.381 Q172.616 902.575 166.968 908.339 Z" fill="#000000" fill-rule="evenodd" fill-opacity="1" /><path clip-path="url(#clip720)" d="M116.436 721.719 L124.075 721.719 L124.075 695.354 L115.765 697.02 L115.765 692.761 L124.029 691.094 L128.705 691.094 L128.705 721.719 L136.343 721.719 L136.343 725.654 L116.436 725.654 L116.436 721.719 Z" fill="#000000" fill-rule="evenodd" fill-opacity="1" /><path clip-path="url(#clip720)" d="M145.788 719.775 L150.672 719.775 L150.672 725.654 L145.788 725.654 L145.788 719.775 Z" fill="#000000" fill-rule="evenodd" fill-opacity="1" /><path clip-path="url(#clip720)" d="M173.704 695.168 L161.899 713.617 L173.704 713.617 L173.704 695.168 M172.477 691.094 L178.357 691.094 L178.357 713.617 L183.288 713.617 L183.288 717.506 L178.357 717.506 L178.357 725.654 L173.704 725.654 L173.704 717.506 L158.103 717.506 L158.103 712.992 L172.477 691.094 Z" fill="#000000" fill-rule="evenodd" fill-opacity="1" /><path clip-path="url(#clip720)" d="M116.76 535.1 L124.399 535.1 L124.399 508.734 L116.089 510.401 L116.089 506.141 L124.353 504.475 L129.029 504.475 L129.029 535.1 L136.667 535.1 L136.667 539.035 L116.76 539.035 L116.76 535.1 Z" fill="#000000" fill-rule="evenodd" fill-opacity="1" /><path clip-path="url(#clip720)" d="M146.112 533.155 L150.996 533.155 L150.996 539.035 L146.112 539.035 L146.112 533.155 Z" fill="#000000" fill-rule="evenodd" fill-opacity="1" /><path clip-path="url(#clip720)" d="M171.76 519.891 Q168.612 519.891 166.76 522.044 Q164.931 524.197 164.931 527.947 Q164.931 531.674 166.76 533.85 Q168.612 536.002 171.76 536.002 Q174.908 536.002 176.737 533.85 Q178.589 531.674 178.589 527.947 Q178.589 524.197 176.737 522.044 Q174.908 519.891 171.76 519.891 M181.042 505.239 L181.042 509.498 Q179.283 508.664 177.477 508.225 Q175.695 507.785 173.936 507.785 Q169.306 507.785 166.852 510.91 Q164.422 514.035 164.075 520.354 Q165.44 518.34 167.501 517.276 Q169.561 516.188 172.038 516.188 Q177.246 516.188 180.255 519.359 Q183.288 522.507 183.288 527.947 Q183.288 533.271 180.139 536.488 Q176.991 539.706 171.76 539.706 Q165.765 539.706 162.593 535.123 Q159.422 530.516 159.422 521.789 Q159.422 513.595 163.311 508.734 Q167.2 503.85 173.751 503.85 Q175.51 503.85 177.292 504.197 Q179.098 504.544 181.042 505.239 Z" fill="#000000" fill-rule="evenodd" fill-opacity="1" /><path clip-path="url(#clip720)" d="M117.015 348.48 L124.654 348.48 L124.654 322.114 L116.343 323.781 L116.343 319.522 L124.607 317.855 L129.283 317.855 L129.283 348.48 L136.922 348.48 L136.922 352.415 L117.015 352.415 L117.015 348.48 Z" fill="#000000" fill-rule="evenodd" fill-opacity="1" /><path clip-path="url(#clip720)" d="M146.366 346.535 L151.251 346.535 L151.251 352.415 L146.366 352.415 L146.366 346.535 Z" fill="#000000" fill-rule="evenodd" fill-opacity="1" /><path clip-path="url(#clip720)" d="M171.436 336.003 Q168.102 336.003 166.181 337.785 Q164.283 339.568 164.283 342.693 Q164.283 345.818 166.181 347.6 Q168.102 349.383 171.436 349.383 Q174.769 349.383 176.69 347.6 Q178.612 345.795 178.612 342.693 Q178.612 339.568 176.69 337.785 Q174.792 336.003 171.436 336.003 M166.76 334.012 Q163.751 333.272 162.061 331.211 Q160.394 329.151 160.394 326.188 Q160.394 322.045 163.334 319.637 Q166.297 317.23 171.436 317.23 Q176.598 317.23 179.538 319.637 Q182.477 322.045 182.477 326.188 Q182.477 329.151 180.788 331.211 Q179.121 333.272 176.135 334.012 Q179.514 334.799 181.389 337.091 Q183.288 339.383 183.288 342.693 Q183.288 347.716 180.209 350.401 Q177.153 353.086 171.436 353.086 Q165.718 353.086 162.64 350.401 Q159.584 347.716 159.584 342.693 Q159.584 339.383 161.482 337.091 Q163.38 334.799 166.76 334.012 M165.047 326.628 Q165.047 329.313 166.714 330.818 Q168.403 332.323 171.436 332.323 Q174.445 332.323 176.135 330.818 Q177.848 329.313 177.848 326.628 Q177.848 323.943 176.135 322.438 Q174.445 320.934 171.436 320.934 Q168.403 320.934 166.714 322.438 Q165.047 323.943 165.047 326.628 Z" fill="#000000" fill-rule="evenodd" fill-opacity="1" /><path clip-path="url(#clip720)" d="M120.14 161.86 L136.459 161.86 L136.459 165.795 L114.515 165.795 L114.515 161.86 Q117.177 159.106 121.76 154.476 Q126.367 149.823 127.547 148.481 Q129.792 145.957 130.672 144.221 Q131.575 142.462 131.575 140.772 Q131.575 138.018 129.63 136.282 Q127.709 134.545 124.607 134.545 Q122.408 134.545 119.955 135.309 Q117.524 136.073 114.746 137.624 L114.746 132.902 Q117.57 131.768 120.024 131.189 Q122.478 130.61 124.515 130.61 Q129.885 130.61 133.08 133.296 Q136.274 135.981 136.274 140.471 Q136.274 142.601 135.464 144.522 Q134.677 146.42 132.57 149.013 Q131.992 149.684 128.89 152.902 Q125.788 156.096 120.14 161.86 Z" fill="#000000" fill-rule="evenodd" fill-opacity="1" /><path clip-path="url(#clip720)" d="M146.274 159.916 L151.158 159.916 L151.158 165.795 L146.274 165.795 L146.274 159.916 Z" fill="#000000" fill-rule="evenodd" fill-opacity="1" /><path clip-path="url(#clip720)" d="M171.343 134.314 Q167.732 134.314 165.903 137.879 Q164.098 141.42 164.098 148.55 Q164.098 155.656 165.903 159.221 Q167.732 162.763 171.343 162.763 Q174.977 162.763 176.783 159.221 Q178.612 155.656 178.612 148.55 Q178.612 141.42 176.783 137.879 Q174.977 134.314 171.343 134.314 M171.343 130.61 Q177.153 130.61 180.209 135.217 Q183.288 139.8 183.288 148.55 Q183.288 157.277 180.209 161.883 Q177.153 166.467 171.343 166.467 Q165.533 166.467 162.454 161.883 Q159.399 157.277 159.399 148.55 Q159.399 139.8 162.454 135.217 Q165.533 130.61 171.343 130.61 Z" fill="#000000" fill-rule="evenodd" fill-opacity="1" /><path clip-path="url(#clip720)" d="M18.8696 756.909 Q19.3527 756.909 20.0613 757.264 Q20.7054 757.586 21.124 758.262 Q21.5105 758.906 21.5105 759.615 Q21.5105 759.84 21.3817 760.355 Q20.9952 761.225 20.1257 762.578 Q19.2561 763.93 18.7086 765.154 Q18.1289 766.346 18.0645 767.666 Q18.0645 768.825 18.4832 769.792 Q18.9663 770.661 19.9968 771.241 Q20.4155 771.499 21.124 771.499 Q22.1224 771.499 23.4429 770.951 Q24.7633 770.404 26.4702 769.276 Q28.1771 768.117 29.3365 767.28 Q30.4637 766.442 32.3317 764.993 Q32.4927 764.864 32.5893 764.8 Q32.6537 764.735 32.8148 764.639 Q32.9436 764.542 33.0402 764.445 Q36.8727 761.386 41.0917 760.613 Q42.5732 760.42 44.119 760.42 Q47.2108 760.42 50.8501 761.354 Q54.1673 762.159 57.0336 763.866 Q59.8677 765.573 61.7356 768.149 Q63.6036 770.693 63.6036 773.463 Q63.6036 776.201 62.412 778.455 Q61.1881 780.709 59.0948 782.062 Q56.3251 783.898 52.4926 783.898 Q50.3348 783.898 48.499 783.383 Q45.5683 782.674 42.863 780.999 Q40.1577 779.325 38.0643 776.909 Q34.9726 773.238 34.103 769.244 Q30.5604 771.112 27.8229 772.207 Q25.0532 773.27 22.7021 773.27 Q20.641 773.27 19.3205 772.497 Q17.9035 771.821 17.0983 770.436 Q16.3898 769.276 16.0355 767.602 Q15.9067 766.571 15.9067 765.895 Q15.9067 763.608 17.1627 758.294 Q17.4848 756.909 18.8696 756.909 M46.7599 764.961 Q44.7954 764.961 43.4749 765.283 Q40.2543 765.895 35.8099 768.342 L35.4879 768.536 Q36.3896 771.66 39.1271 774.204 Q42.4765 777.392 48.8211 779.003 Q52.3637 779.872 54.3605 779.872 Q56.5183 779.872 58.3862 779.067 Q60.1253 778.294 61.1237 776.845 Q62.1221 775.363 62.1221 773.399 Q62.1221 771.917 61.2848 770.629 Q60.4152 769.341 58.9015 768.407 Q57.3878 767.473 55.7453 766.829 Q54.0706 766.152 52.1061 765.637 Q49.4652 764.961 46.7599 764.961 Z" fill="#000000" fill-rule="evenodd" fill-opacity="1" /><path clip-path="url(#clip720)" d="M65.231 731.337 Q66.4258 731.337 67.1923 732.126 Q67.9588 732.893 67.9588 733.885 Q67.9588 734.741 67.4629 735.192 Q66.9669 735.643 66.3356 735.643 Q65.4339 735.643 64.6899 734.944 Q63.946 734.245 63.7882 733.231 Q63.2471 733.975 63.2471 735.17 Q63.2471 737.131 64.7576 738.867 Q65.4564 739.634 66.7414 740.468 Q68.0039 741.302 68.545 741.46 L74.5642 742.925 Q75.2406 743.06 78.4869 743.894 Q81.7107 744.706 81.846 744.774 Q82.4772 744.999 82.8154 745.495 Q83.1535 745.991 83.1535 746.487 Q83.1535 747.051 82.8154 747.434 Q82.4772 747.817 81.8911 747.817 Q81.8009 747.817 81.4627 747.749 Q81.1246 747.682 80.6512 747.569 Q80.1777 747.456 79.9072 747.411 L69.2438 744.729 Q67.305 744.233 66.6964 744.12 Q66.0651 743.985 65.3662 743.985 Q64.1489 743.985 63.698 744.368 Q63.2471 744.751 63.2471 745.427 Q63.2471 746.6 64.6448 747.366 Q66.0426 748.133 68.7479 748.786 Q69.4918 748.989 69.6496 749.125 Q69.8074 749.237 69.8074 749.575 Q69.7849 750.139 69.334 750.139 Q69.2213 750.139 68.4999 749.959 Q67.7559 749.778 66.6738 749.44 Q65.5691 749.08 64.8703 748.696 Q64.3969 748.471 64.0812 748.268 Q63.7656 748.065 63.2696 747.659 Q62.7737 747.253 62.5031 746.645 Q62.2326 746.036 62.2326 745.292 Q62.2326 743.669 63.2246 742.519 Q64.2165 741.347 65.772 741.076 Q64.9605 740.513 64.2616 739.814 Q63.5402 739.115 62.8864 737.83 Q62.2326 736.545 62.2326 735.17 Q62.2326 733.456 63.1118 732.397 Q63.9685 731.337 65.231 731.337 Z" fill="#000000" fill-rule="evenodd" fill-opacity="1" /><path clip-path="url(#clip720)" d="M77.2921 710.927 Q77.495 710.746 77.6979 710.746 Q77.9008 710.746 78.4869 711.197 Q79.0731 711.626 79.8621 712.55 Q80.6512 713.474 81.3951 714.669 Q82.1391 715.864 82.635 717.622 Q83.1535 719.381 83.1535 721.229 Q83.1535 724.543 80.7864 726.527 Q78.4193 728.489 74.7897 728.489 Q72.4676 728.489 70.4161 727.722 Q68.3421 726.956 66.8767 725.716 Q65.4113 724.453 64.3518 722.875 Q63.2696 721.274 62.7511 719.606 Q62.2326 717.938 62.2326 716.382 Q62.2326 714.105 63.3824 712.775 Q64.5321 711.445 66.1553 711.445 Q66.5385 711.445 67.012 711.558 Q67.4854 711.648 68.2294 711.964 Q68.9733 712.257 69.7173 713.023 Q70.4387 713.79 70.9121 714.917 Q71.9717 717.419 71.9717 721.973 L71.9717 724.431 Q74.8799 725.152 76.7736 725.152 Q77.5175 725.152 78.284 725.017 Q79.028 724.882 79.9748 724.521 Q80.9217 724.138 81.5304 723.281 Q82.1165 722.402 82.1165 721.139 Q82.1165 720.733 82.094 720.305 Q82.0714 719.854 81.8234 718.727 Q81.5755 717.577 81.1471 716.563 Q80.7188 715.548 79.7945 714.263 Q78.8476 712.956 77.5626 711.919 Q77.0892 711.558 77.0892 711.31 Q77.0892 711.107 77.2921 710.927 M66.1553 712.978 Q64.9154 712.978 64.0812 713.903 Q63.2471 714.804 63.2471 716.382 Q63.2471 716.878 63.3598 717.487 Q63.4725 718.096 63.946 719.11 Q64.4194 720.102 65.2084 720.981 Q65.9749 721.861 67.4854 722.74 Q68.9733 723.619 70.9572 724.138 L70.9572 722.244 Q70.9572 721.59 70.9572 721.117 Q70.9346 720.643 70.8445 719.606 Q70.7543 718.547 70.5965 717.78 Q70.4161 717.014 70.0554 716.044 Q69.6947 715.075 69.2213 714.466 Q68.7253 713.835 67.9363 713.407 Q67.1472 712.978 66.1553 712.978 Z" fill="#000000" fill-rule="evenodd" fill-opacity="1" /><path clip-path="url(#clip720)" d="M51.0958 697.312 L77.7881 703.963 Q78.8476 704.233 79.9974 704.233 Q82.1165 704.233 82.1165 702.836 Q82.1165 702.182 81.6882 701.641 Q81.2373 701.1 80.3581 700.694 Q79.4563 700.266 78.5996 699.995 Q77.743 699.702 76.4129 699.341 Q75.8943 699.229 75.7365 699.116 Q75.5787 699.003 75.5787 698.688 Q75.5787 698.124 76.0296 698.124 Q78.8025 698.688 80.561 699.522 Q83.1535 700.739 83.1535 702.994 Q83.1535 704.684 81.9813 705.947 Q80.7864 707.187 78.8927 707.187 Q78.1713 707.187 77.3146 706.961 L54.2295 701.145 L53.3277 700.987 Q53.0797 700.987 52.9444 701.077 Q52.8092 701.167 52.6739 701.709 Q52.5387 702.227 52.5387 703.264 Q52.5387 703.692 52.5161 703.895 Q52.4936 704.076 52.3808 704.256 Q52.2681 704.414 52.0201 704.414 Q51.6143 704.414 51.3889 704.256 Q51.1635 704.076 51.1184 703.94 Q51.0733 703.805 51.0507 703.535 Q51.0282 703.151 50.9155 701.866 Q50.7802 700.581 50.69 699.477 Q50.5999 698.372 50.5999 697.899 Q50.5999 697.628 50.7351 697.493 Q50.8478 697.335 50.9831 697.312 L51.0958 697.312 Z" fill="#000000" fill-rule="evenodd" fill-opacity="1" /><polyline clip-path="url(#clip723)" style="stroke:#009af9; stroke-linecap:round; stroke-linejoin:round; stroke-width:4; stroke-opacity:1; fill:none" points="219.288,328.194 645.981,86.1857 1072.67,286.732 1499.37,602.524 1926.06,734.551 2352.76,1366.21 "/>
<polyline clip-path="url(#clip723)" style="stroke:#e26f46; stroke-linecap:round; stroke-linejoin:round; stroke-width:4; stroke-opacity:1; fill:none" points="219.288,380.716 645.981,1214.37 1072.67,1203.24 1499.37,1158.37 1926.06,1115.57 2352.76,1384.24 "/>
<path clip-path="url(#clip720)" d="M1428.53 248.629 L2281.64 248.629 L2281.64 93.1086 L1428.53 93.1086  Z" fill="#ffffff" fill-rule="evenodd" fill-opacity="1"/>
<polyline clip-path="url(#clip720)" style="stroke:#000000; stroke-linecap:round; stroke-linejoin:round; stroke-width:4; stroke-opacity:1; fill:none" points="1428.53,248.629 2281.64,248.629 2281.64,93.1086 1428.53,93.1086 1428.53,248.629 "/>
<polyline clip-path="url(#clip720)" style="stroke:#009af9; stroke-linecap:round; stroke-linejoin:round; stroke-width:4; stroke-opacity:1; fill:none" points="1452.23,144.949 1594.46,144.949 "/>
<path clip-path="url(#clip720)" d="M1637.08 140.238 L1637.08 126.21 L1641.34 126.21 L1641.34 162.229 L1637.08 162.229 L1637.08 158.34 Q1635.74 160.655 1633.68 161.789 Q1631.64 162.9 1628.77 162.9 Q1624.07 162.9 1621.11 159.15 Q1618.17 155.4 1618.17 149.289 Q1618.17 143.178 1621.11 139.428 Q1624.07 135.678 1628.77 135.678 Q1631.64 135.678 1633.68 136.812 Q1635.74 137.923 1637.08 140.238 M1622.57 149.289 Q1622.57 153.988 1624.49 156.673 Q1626.43 159.335 1629.81 159.335 Q1633.19 159.335 1635.14 156.673 Q1637.08 153.988 1637.08 149.289 Q1637.08 144.59 1635.14 141.928 Q1633.19 139.243 1629.81 139.243 Q1626.43 139.243 1624.49 141.928 Q1622.57 144.59 1622.57 149.289 Z" fill="#000000" fill-rule="evenodd" fill-opacity="1" /><path clip-path="url(#clip720)" d="M1650.11 136.303 L1654.37 136.303 L1654.37 162.229 L1650.11 162.229 L1650.11 136.303 M1650.11 126.21 L1654.37 126.21 L1654.37 131.604 L1650.11 131.604 L1650.11 126.21 Z" fill="#000000" fill-rule="evenodd" fill-opacity="1" /><path clip-path="url(#clip720)" d="M1679.81 137.067 L1679.81 141.094 Q1678.01 140.169 1676.06 139.706 Q1674.12 139.243 1672.04 139.243 Q1668.86 139.243 1667.27 140.215 Q1665.69 141.187 1665.69 143.131 Q1665.69 144.613 1666.83 145.469 Q1667.96 146.303 1671.39 147.067 L1672.85 147.391 Q1677.38 148.363 1679.28 150.145 Q1681.2 151.905 1681.2 155.076 Q1681.2 158.687 1678.33 160.793 Q1675.48 162.9 1670.48 162.9 Q1668.4 162.9 1666.13 162.483 Q1663.89 162.09 1661.39 161.28 L1661.39 156.881 Q1663.75 158.108 1666.04 158.733 Q1668.33 159.335 1670.58 159.335 Q1673.59 159.335 1675.21 158.317 Q1676.83 157.275 1676.83 155.4 Q1676.83 153.664 1675.65 152.738 Q1674.49 151.812 1670.53 150.956 L1669.05 150.608 Q1665.09 149.775 1663.33 148.062 Q1661.57 146.326 1661.57 143.317 Q1661.57 139.659 1664.17 137.669 Q1666.76 135.678 1671.53 135.678 Q1673.89 135.678 1675.97 136.025 Q1678.05 136.372 1679.81 137.067 Z" fill="#000000" fill-rule="evenodd" fill-opacity="1" /><path clip-path="url(#clip720)" d="M1706.64 137.298 L1706.64 141.28 Q1704.84 140.284 1703.01 139.798 Q1701.2 139.289 1699.35 139.289 Q1695.21 139.289 1692.91 141.928 Q1690.62 144.544 1690.62 149.289 Q1690.62 154.034 1692.91 156.673 Q1695.21 159.289 1699.35 159.289 Q1701.2 159.289 1703.01 158.803 Q1704.84 158.293 1706.64 157.298 L1706.64 161.233 Q1704.86 162.067 1702.94 162.483 Q1701.04 162.9 1698.89 162.9 Q1693.03 162.9 1689.58 159.219 Q1686.13 155.539 1686.13 149.289 Q1686.13 142.946 1689.6 139.312 Q1693.1 135.678 1699.16 135.678 Q1701.13 135.678 1703.01 136.095 Q1704.88 136.488 1706.64 137.298 Z" fill="#000000" fill-rule="evenodd" fill-opacity="1" /><path clip-path="url(#clip720)" d="M1729.07 140.284 Q1728.35 139.868 1727.5 139.682 Q1726.66 139.474 1725.65 139.474 Q1722.04 139.474 1720.09 141.835 Q1718.17 144.173 1718.17 148.571 L1718.17 162.229 L1713.89 162.229 L1713.89 136.303 L1718.17 136.303 L1718.17 140.331 Q1719.51 137.969 1721.66 136.835 Q1723.82 135.678 1726.9 135.678 Q1727.34 135.678 1727.87 135.747 Q1728.4 135.794 1729.05 135.909 L1729.07 140.284 Z" fill="#000000" fill-rule="evenodd" fill-opacity="1" /><path clip-path="url(#clip720)" d="M1754.67 148.201 L1754.67 150.284 L1735.09 150.284 Q1735.37 154.682 1737.73 156.997 Q1740.11 159.289 1744.35 159.289 Q1746.8 159.289 1749.1 158.687 Q1751.41 158.085 1753.68 156.881 L1753.68 160.909 Q1751.39 161.881 1748.98 162.391 Q1746.57 162.9 1744.1 162.9 Q1737.89 162.9 1734.26 159.289 Q1730.65 155.678 1730.65 149.52 Q1730.65 143.155 1734.07 139.428 Q1737.52 135.678 1743.35 135.678 Q1748.59 135.678 1751.62 139.057 Q1754.67 142.414 1754.67 148.201 M1750.41 146.951 Q1750.37 143.456 1748.45 141.372 Q1746.55 139.289 1743.4 139.289 Q1739.84 139.289 1737.68 141.303 Q1735.55 143.317 1735.23 146.974 L1750.41 146.951 Z" fill="#000000" fill-rule="evenodd" fill-opacity="1" /><path clip-path="url(#clip720)" d="M1765.78 158.34 L1765.78 172.09 L1761.5 172.09 L1761.5 136.303 L1765.78 136.303 L1765.78 140.238 Q1767.13 137.923 1769.16 136.812 Q1771.22 135.678 1774.07 135.678 Q1778.79 135.678 1781.73 139.428 Q1784.7 143.178 1784.7 149.289 Q1784.7 155.4 1781.73 159.15 Q1778.79 162.9 1774.07 162.9 Q1771.22 162.9 1769.16 161.789 Q1767.13 160.655 1765.78 158.34 M1780.28 149.289 Q1780.28 144.59 1778.33 141.928 Q1776.41 139.243 1773.03 139.243 Q1769.65 139.243 1767.71 141.928 Q1765.78 144.59 1765.78 149.289 Q1765.78 153.988 1767.71 156.673 Q1769.65 159.335 1773.03 159.335 Q1776.41 159.335 1778.33 156.673 Q1780.28 153.988 1780.28 149.289 Z" fill="#000000" fill-rule="evenodd" fill-opacity="1" /><path clip-path="url(#clip720)" d="M1803.54 149.196 Q1798.38 149.196 1796.39 150.377 Q1794.4 151.557 1794.4 154.405 Q1794.4 156.673 1795.88 158.016 Q1797.38 159.335 1799.95 159.335 Q1803.49 159.335 1805.62 156.835 Q1807.78 154.312 1807.78 150.145 L1807.78 149.196 L1803.54 149.196 M1812.03 147.437 L1812.03 162.229 L1807.78 162.229 L1807.78 158.293 Q1806.32 160.655 1804.14 161.789 Q1801.97 162.9 1798.82 162.9 Q1794.84 162.9 1792.47 160.678 Q1790.14 158.432 1790.14 154.682 Q1790.14 150.307 1793.05 148.085 Q1795.99 145.863 1801.8 145.863 L1807.78 145.863 L1807.78 145.446 Q1807.78 142.507 1805.83 140.909 Q1803.91 139.289 1800.41 139.289 Q1798.19 139.289 1796.09 139.821 Q1793.98 140.354 1792.03 141.419 L1792.03 137.483 Q1794.37 136.581 1796.57 136.141 Q1798.77 135.678 1800.85 135.678 Q1806.48 135.678 1809.26 138.594 Q1812.03 141.511 1812.03 147.437 Z" fill="#000000" fill-rule="evenodd" fill-opacity="1" /><path clip-path="url(#clip720)" d="M1842.36 146.581 L1842.36 162.229 L1838.1 162.229 L1838.1 146.719 Q1838.1 143.039 1836.66 141.21 Q1835.23 139.382 1832.36 139.382 Q1828.91 139.382 1826.92 141.581 Q1824.93 143.78 1824.93 147.576 L1824.93 162.229 L1820.65 162.229 L1820.65 136.303 L1824.93 136.303 L1824.93 140.331 Q1826.46 137.993 1828.52 136.835 Q1830.6 135.678 1833.31 135.678 Q1837.78 135.678 1840.07 138.456 Q1842.36 141.21 1842.36 146.581 Z" fill="#000000" fill-rule="evenodd" fill-opacity="1" /><path clip-path="url(#clip720)" d="M1869.51 137.298 L1869.51 141.28 Q1867.71 140.284 1865.88 139.798 Q1864.07 139.289 1862.22 139.289 Q1858.08 139.289 1855.78 141.928 Q1853.49 144.544 1853.49 149.289 Q1853.49 154.034 1855.78 156.673 Q1858.08 159.289 1862.22 159.289 Q1864.07 159.289 1865.88 158.803 Q1867.71 158.293 1869.51 157.298 L1869.51 161.233 Q1867.73 162.067 1865.81 162.483 Q1863.91 162.9 1861.76 162.9 Q1855.9 162.9 1852.45 159.219 Q1849 155.539 1849 149.289 Q1849 142.946 1852.47 139.312 Q1855.97 135.678 1862.03 135.678 Q1864 135.678 1865.88 136.095 Q1867.75 136.488 1869.51 137.298 Z" fill="#000000" fill-rule="evenodd" fill-opacity="1" /><path clip-path="url(#clip720)" d="M1887.71 164.636 Q1885.9 169.266 1884.19 170.678 Q1882.47 172.09 1879.6 172.09 L1876.2 172.09 L1876.2 168.525 L1878.7 168.525 Q1880.46 168.525 1881.43 167.692 Q1882.4 166.858 1883.59 163.756 L1884.35 161.812 L1873.86 136.303 L1878.38 136.303 L1886.48 156.581 L1894.58 136.303 L1899.09 136.303 L1887.71 164.636 Z" fill="#000000" fill-rule="evenodd" fill-opacity="1" /><path clip-path="url(#clip720)" d="M1920.04 136.303 L1924.3 136.303 L1924.3 162.229 L1920.04 162.229 L1920.04 136.303 M1920.04 126.21 L1924.3 126.21 L1924.3 131.604 L1920.04 131.604 L1920.04 126.21 Z" fill="#000000" fill-rule="evenodd" fill-opacity="1" /><path clip-path="url(#clip720)" d="M1954.77 146.581 L1954.77 162.229 L1950.51 162.229 L1950.51 146.719 Q1950.51 143.039 1949.07 141.21 Q1947.64 139.382 1944.77 139.382 Q1941.32 139.382 1939.33 141.581 Q1937.33 143.78 1937.33 147.576 L1937.33 162.229 L1933.05 162.229 L1933.05 136.303 L1937.33 136.303 L1937.33 140.331 Q1938.86 137.993 1940.92 136.835 Q1943.01 135.678 1945.71 135.678 Q1950.18 135.678 1952.47 138.456 Q1954.77 141.21 1954.77 146.581 Z" fill="#000000" fill-rule="evenodd" fill-opacity="1" /><path clip-path="url(#clip720)" d="M1978.33 136.303 L1982.59 136.303 L1982.59 162.229 L1978.33 162.229 L1978.33 136.303 M1978.33 126.21 L1982.59 126.21 L1982.59 131.604 L1978.33 131.604 L1978.33 126.21 Z" fill="#000000" fill-rule="evenodd" fill-opacity="1" /><path clip-path="url(#clip720)" d="M2013.05 146.581 L2013.05 162.229 L2008.79 162.229 L2008.79 146.719 Q2008.79 143.039 2007.36 141.21 Q2005.92 139.382 2003.05 139.382 Q1999.6 139.382 1997.61 141.581 Q1995.62 143.78 1995.62 147.576 L1995.62 162.229 L1991.34 162.229 L1991.34 136.303 L1995.62 136.303 L1995.62 140.331 Q1997.15 137.993 1999.21 136.835 Q2001.29 135.678 2004 135.678 Q2008.47 135.678 2010.76 138.456 Q2013.05 141.21 2013.05 146.581 Z" fill="#000000" fill-rule="evenodd" fill-opacity="1" /><path clip-path="url(#clip720)" d="M2021.55 136.303 L2025.81 136.303 L2025.81 162.229 L2021.55 162.229 L2021.55 136.303 M2021.55 126.21 L2025.81 126.21 L2025.81 131.604 L2021.55 131.604 L2021.55 126.21 Z" fill="#000000" fill-rule="evenodd" fill-opacity="1" /><path clip-path="url(#clip720)" d="M2038.93 128.942 L2038.93 136.303 L2047.7 136.303 L2047.7 139.613 L2038.93 139.613 L2038.93 153.687 Q2038.93 156.858 2039.79 157.761 Q2040.67 158.664 2043.33 158.664 L2047.7 158.664 L2047.7 162.229 L2043.33 162.229 Q2038.4 162.229 2036.52 160.4 Q2034.65 158.548 2034.65 153.687 L2034.65 139.613 L2031.52 139.613 L2031.52 136.303 L2034.65 136.303 L2034.65 128.942 L2038.93 128.942 Z" fill="#000000" fill-rule="evenodd" fill-opacity="1" /><path clip-path="url(#clip720)" d="M2053.31 136.303 L2057.57 136.303 L2057.57 162.229 L2053.31 162.229 L2053.31 136.303 M2053.31 126.21 L2057.57 126.21 L2057.57 131.604 L2053.31 131.604 L2053.31 126.21 Z" fill="#000000" fill-rule="evenodd" fill-opacity="1" /><path clip-path="url(#clip720)" d="M2078.26 149.196 Q2073.1 149.196 2071.11 150.377 Q2069.12 151.557 2069.12 154.405 Q2069.12 156.673 2070.6 158.016 Q2072.1 159.335 2074.67 159.335 Q2078.21 159.335 2080.34 156.835 Q2082.5 154.312 2082.5 150.145 L2082.5 149.196 L2078.26 149.196 M2086.76 147.437 L2086.76 162.229 L2082.5 162.229 L2082.5 158.293 Q2081.04 160.655 2078.86 161.789 Q2076.69 162.9 2073.54 162.9 Q2069.56 162.9 2067.2 160.678 Q2064.86 158.432 2064.86 154.682 Q2064.86 150.307 2067.77 148.085 Q2070.71 145.863 2076.52 145.863 L2082.5 145.863 L2082.5 145.446 Q2082.5 142.507 2080.55 140.909 Q2078.63 139.289 2075.14 139.289 Q2072.91 139.289 2070.81 139.821 Q2068.7 140.354 2066.76 141.419 L2066.76 137.483 Q2069.09 136.581 2071.29 136.141 Q2073.49 135.678 2075.57 135.678 Q2081.2 135.678 2083.98 138.594 Q2086.76 141.511 2086.76 147.437 Z" fill="#000000" fill-rule="evenodd" fill-opacity="1" /><path clip-path="url(#clip720)" d="M2095.53 126.21 L2099.79 126.21 L2099.79 162.229 L2095.53 162.229 L2095.53 126.21 Z" fill="#000000" fill-rule="evenodd" fill-opacity="1" /><path clip-path="url(#clip720)" d="M2108.7 136.303 L2112.96 136.303 L2112.96 162.229 L2108.7 162.229 L2108.7 136.303 M2108.7 126.21 L2112.96 126.21 L2112.96 131.604 L2108.7 131.604 L2108.7 126.21 Z" fill="#000000" fill-rule="evenodd" fill-opacity="1" /><path clip-path="url(#clip720)" d="M2138.4 137.067 L2138.4 141.094 Q2136.59 140.169 2134.65 139.706 Q2132.7 139.243 2130.62 139.243 Q2127.45 139.243 2125.85 140.215 Q2124.28 141.187 2124.28 143.131 Q2124.28 144.613 2125.41 145.469 Q2126.55 146.303 2129.97 147.067 L2131.43 147.391 Q2135.97 148.363 2137.87 150.145 Q2139.79 151.905 2139.79 155.076 Q2139.79 158.687 2136.92 160.793 Q2134.07 162.9 2129.07 162.9 Q2126.99 162.9 2124.72 162.483 Q2122.47 162.09 2119.97 161.28 L2119.97 156.881 Q2122.33 158.108 2124.63 158.733 Q2126.92 159.335 2129.16 159.335 Q2132.17 159.335 2133.79 158.317 Q2135.41 157.275 2135.41 155.4 Q2135.41 153.664 2134.23 152.738 Q2133.07 151.812 2129.12 150.956 L2127.63 150.608 Q2123.68 149.775 2121.92 148.062 Q2120.16 146.326 2120.16 143.317 Q2120.16 139.659 2122.75 137.669 Q2125.34 135.678 2130.11 135.678 Q2132.47 135.678 2134.56 136.025 Q2136.64 136.372 2138.4 137.067 Z" fill="#000000" fill-rule="evenodd" fill-opacity="1" /><path clip-path="url(#clip720)" d="M2158.35 149.196 Q2153.19 149.196 2151.2 150.377 Q2149.21 151.557 2149.21 154.405 Q2149.21 156.673 2150.69 158.016 Q2152.19 159.335 2154.76 159.335 Q2158.31 159.335 2160.44 156.835 Q2162.59 154.312 2162.59 150.145 L2162.59 149.196 L2158.35 149.196 M2166.85 147.437 L2166.85 162.229 L2162.59 162.229 L2162.59 158.293 Q2161.13 160.655 2158.95 161.789 Q2156.78 162.9 2153.63 162.9 Q2149.65 162.9 2147.29 160.678 Q2144.95 158.432 2144.95 154.682 Q2144.95 150.307 2147.87 148.085 Q2150.81 145.863 2156.62 145.863 L2162.59 145.863 L2162.59 145.446 Q2162.59 142.507 2160.64 140.909 Q2158.72 139.289 2155.23 139.289 Q2153.01 139.289 2150.9 139.821 Q2148.79 140.354 2146.85 141.419 L2146.85 137.483 Q2149.19 136.581 2151.38 136.141 Q2153.58 135.678 2155.67 135.678 Q2161.29 135.678 2164.07 138.594 Q2166.85 141.511 2166.85 147.437 Z" fill="#000000" fill-rule="evenodd" fill-opacity="1" /><path clip-path="url(#clip720)" d="M2179.83 128.942 L2179.83 136.303 L2188.61 136.303 L2188.61 139.613 L2179.83 139.613 L2179.83 153.687 Q2179.83 156.858 2180.69 157.761 Q2181.57 158.664 2184.23 158.664 L2188.61 158.664 L2188.61 162.229 L2184.23 162.229 Q2179.3 162.229 2177.43 160.4 Q2175.55 158.548 2175.55 153.687 L2175.55 139.613 L2172.43 139.613 L2172.43 136.303 L2175.55 136.303 L2175.55 128.942 L2179.83 128.942 Z" fill="#000000" fill-rule="evenodd" fill-opacity="1" /><path clip-path="url(#clip720)" d="M2194.21 136.303 L2198.47 136.303 L2198.47 162.229 L2194.21 162.229 L2194.21 136.303 M2194.21 126.21 L2198.47 126.21 L2198.47 131.604 L2194.21 131.604 L2194.21 126.21 Z" fill="#000000" fill-rule="evenodd" fill-opacity="1" /><path clip-path="url(#clip720)" d="M2217.43 139.289 Q2214 139.289 2212.01 141.974 Q2210.02 144.636 2210.02 149.289 Q2210.02 153.942 2211.99 156.627 Q2213.98 159.289 2217.43 159.289 Q2220.83 159.289 2222.82 156.604 Q2224.81 153.918 2224.81 149.289 Q2224.81 144.682 2222.82 141.997 Q2220.83 139.289 2217.43 139.289 M2217.43 135.678 Q2222.98 135.678 2226.15 139.289 Q2229.32 142.9 2229.32 149.289 Q2229.32 155.655 2226.15 159.289 Q2222.98 162.9 2217.43 162.9 Q2211.85 162.9 2208.68 159.289 Q2205.53 155.655 2205.53 149.289 Q2205.53 142.9 2208.68 139.289 Q2211.85 135.678 2217.43 135.678 Z" fill="#000000" fill-rule="evenodd" fill-opacity="1" /><path clip-path="url(#clip720)" d="M2257.94 146.581 L2257.94 162.229 L2253.68 162.229 L2253.68 146.719 Q2253.68 143.039 2252.24 141.21 Q2250.81 139.382 2247.94 139.382 Q2244.49 139.382 2242.5 141.581 Q2240.5 143.78 2240.5 147.576 L2240.5 162.229 L2236.22 162.229 L2236.22 136.303 L2240.5 136.303 L2240.5 140.331 Q2242.03 137.993 2244.09 136.835 Q2246.18 135.678 2248.88 135.678 Q2253.35 135.678 2255.64 138.456 Q2257.94 141.21 2257.94 146.581 Z" fill="#000000" fill-rule="evenodd" fill-opacity="1" /><polyline clip-path="url(#clip720)" style="stroke:#e26f46; stroke-linecap:round; stroke-linejoin:round; stroke-width:4; stroke-opacity:1; fill:none" points="1452.23,196.789 1594.46,196.789 "/>
<path clip-path="url(#clip720)" d="M1637.08 192.078 L1637.08 178.05 L1641.34 178.05 L1641.34 214.069 L1637.08 214.069 L1637.08 210.18 Q1635.74 212.495 1633.68 213.629 Q1631.64 214.74 1628.77 214.74 Q1624.07 214.74 1621.11 210.99 Q1618.17 207.24 1618.17 201.129 Q1618.17 195.018 1621.11 191.268 Q1624.07 187.518 1628.77 187.518 Q1631.64 187.518 1633.68 188.652 Q1635.74 189.763 1637.08 192.078 M1622.57 201.129 Q1622.57 205.828 1624.49 208.513 Q1626.43 211.175 1629.81 211.175 Q1633.19 211.175 1635.14 208.513 Q1637.08 205.828 1637.08 201.129 Q1637.08 196.43 1635.14 193.768 Q1633.19 191.083 1629.81 191.083 Q1626.43 191.083 1624.49 193.768 Q1622.57 196.43 1622.57 201.129 Z" fill="#000000" fill-rule="evenodd" fill-opacity="1" /><path clip-path="url(#clip720)" d="M1650.11 188.143 L1654.37 188.143 L1654.37 214.069 L1650.11 214.069 L1650.11 188.143 M1650.11 178.05 L1654.37 178.05 L1654.37 183.444 L1650.11 183.444 L1650.11 178.05 Z" fill="#000000" fill-rule="evenodd" fill-opacity="1" /><path clip-path="url(#clip720)" d="M1679.81 188.907 L1679.81 192.934 Q1678.01 192.009 1676.06 191.546 Q1674.12 191.083 1672.04 191.083 Q1668.86 191.083 1667.27 192.055 Q1665.69 193.027 1665.69 194.971 Q1665.69 196.453 1666.83 197.309 Q1667.96 198.143 1671.39 198.907 L1672.85 199.231 Q1677.38 200.203 1679.28 201.985 Q1681.2 203.745 1681.2 206.916 Q1681.2 210.527 1678.33 212.633 Q1675.48 214.74 1670.48 214.74 Q1668.4 214.74 1666.13 214.323 Q1663.89 213.93 1661.39 213.12 L1661.39 208.721 Q1663.75 209.948 1666.04 210.573 Q1668.33 211.175 1670.58 211.175 Q1673.59 211.175 1675.21 210.157 Q1676.83 209.115 1676.83 207.24 Q1676.83 205.504 1675.65 204.578 Q1674.49 203.652 1670.53 202.796 L1669.05 202.448 Q1665.09 201.615 1663.33 199.902 Q1661.57 198.166 1661.57 195.157 Q1661.57 191.499 1664.17 189.509 Q1666.76 187.518 1671.53 187.518 Q1673.89 187.518 1675.97 187.865 Q1678.05 188.212 1679.81 188.907 Z" fill="#000000" fill-rule="evenodd" fill-opacity="1" /><path clip-path="url(#clip720)" d="M1706.64 189.138 L1706.64 193.12 Q1704.84 192.124 1703.01 191.638 Q1701.2 191.129 1699.35 191.129 Q1695.21 191.129 1692.91 193.768 Q1690.62 196.384 1690.62 201.129 Q1690.62 205.874 1692.91 208.513 Q1695.21 211.129 1699.35 211.129 Q1701.2 211.129 1703.01 210.643 Q1704.84 210.133 1706.64 209.138 L1706.64 213.073 Q1704.86 213.907 1702.94 214.323 Q1701.04 214.74 1698.89 214.74 Q1693.03 214.74 1689.58 211.059 Q1686.13 207.379 1686.13 201.129 Q1686.13 194.786 1689.6 191.152 Q1693.1 187.518 1699.16 187.518 Q1701.13 187.518 1703.01 187.935 Q1704.88 188.328 1706.64 189.138 Z" fill="#000000" fill-rule="evenodd" fill-opacity="1" /><path clip-path="url(#clip720)" d="M1729.07 192.124 Q1728.35 191.708 1727.5 191.522 Q1726.66 191.314 1725.65 191.314 Q1722.04 191.314 1720.09 193.675 Q1718.17 196.013 1718.17 200.411 L1718.17 214.069 L1713.89 214.069 L1713.89 188.143 L1718.17 188.143 L1718.17 192.171 Q1719.51 189.809 1721.66 188.675 Q1723.82 187.518 1726.9 187.518 Q1727.34 187.518 1727.87 187.587 Q1728.4 187.634 1729.05 187.749 L1729.07 192.124 Z" fill="#000000" fill-rule="evenodd" fill-opacity="1" /><path clip-path="url(#clip720)" d="M1754.67 200.041 L1754.67 202.124 L1735.09 202.124 Q1735.37 206.522 1737.73 208.837 Q1740.11 211.129 1744.35 211.129 Q1746.8 211.129 1749.1 210.527 Q1751.41 209.925 1753.68 208.721 L1753.68 212.749 Q1751.39 213.721 1748.98 214.231 Q1746.57 214.74 1744.1 214.74 Q1737.89 214.74 1734.26 211.129 Q1730.65 207.518 1730.65 201.36 Q1730.65 194.995 1734.07 191.268 Q1737.52 187.518 1743.35 187.518 Q1748.59 187.518 1751.62 190.897 Q1754.67 194.254 1754.67 200.041 M1750.41 198.791 Q1750.37 195.296 1748.45 193.212 Q1746.55 191.129 1743.4 191.129 Q1739.84 191.129 1737.68 193.143 Q1735.55 195.157 1735.23 198.814 L1750.41 198.791 Z" fill="#000000" fill-rule="evenodd" fill-opacity="1" /><path clip-path="url(#clip720)" d="M1765.78 210.18 L1765.78 223.93 L1761.5 223.93 L1761.5 188.143 L1765.78 188.143 L1765.78 192.078 Q1767.13 189.763 1769.16 188.652 Q1771.22 187.518 1774.07 187.518 Q1778.79 187.518 1781.73 191.268 Q1784.7 195.018 1784.7 201.129 Q1784.7 207.24 1781.73 210.99 Q1778.79 214.74 1774.07 214.74 Q1771.22 214.74 1769.16 213.629 Q1767.13 212.495 1765.78 210.18 M1780.28 201.129 Q1780.28 196.43 1778.33 193.768 Q1776.41 191.083 1773.03 191.083 Q1769.65 191.083 1767.71 193.768 Q1765.78 196.43 1765.78 201.129 Q1765.78 205.828 1767.71 208.513 Q1769.65 211.175 1773.03 211.175 Q1776.41 211.175 1778.33 208.513 Q1780.28 205.828 1780.28 201.129 Z" fill="#000000" fill-rule="evenodd" fill-opacity="1" /><path clip-path="url(#clip720)" d="M1803.54 201.036 Q1798.38 201.036 1796.39 202.217 Q1794.4 203.397 1794.4 206.245 Q1794.4 208.513 1795.88 209.856 Q1797.38 211.175 1799.95 211.175 Q1803.49 211.175 1805.62 208.675 Q1807.78 206.152 1807.78 201.985 L1807.78 201.036 L1803.54 201.036 M1812.03 199.277 L1812.03 214.069 L1807.78 214.069 L1807.78 210.133 Q1806.32 212.495 1804.14 213.629 Q1801.97 214.74 1798.82 214.74 Q1794.84 214.74 1792.47 212.518 Q1790.14 210.272 1790.14 206.522 Q1790.14 202.147 1793.05 199.925 Q1795.99 197.703 1801.8 197.703 L1807.78 197.703 L1807.78 197.286 Q1807.78 194.347 1805.83 192.749 Q1803.91 191.129 1800.41 191.129 Q1798.19 191.129 1796.09 191.661 Q1793.98 192.194 1792.03 193.259 L1792.03 189.323 Q1794.37 188.421 1796.57 187.981 Q1798.77 187.518 1800.85 187.518 Q1806.48 187.518 1809.26 190.434 Q1812.03 193.351 1812.03 199.277 Z" fill="#000000" fill-rule="evenodd" fill-opacity="1" /><path clip-path="url(#clip720)" d="M1842.36 198.421 L1842.36 214.069 L1838.1 214.069 L1838.1 198.559 Q1838.1 194.879 1836.66 193.05 Q1835.23 191.222 1832.36 191.222 Q1828.91 191.222 1826.92 193.421 Q1824.93 195.62 1824.93 199.416 L1824.93 214.069 L1820.65 214.069 L1820.65 188.143 L1824.93 188.143 L1824.93 192.171 Q1826.46 189.833 1828.52 188.675 Q1830.6 187.518 1833.31 187.518 Q1837.78 187.518 1840.07 190.296 Q1842.36 193.05 1842.36 198.421 Z" fill="#000000" fill-rule="evenodd" fill-opacity="1" /><path clip-path="url(#clip720)" d="M1869.51 189.138 L1869.51 193.12 Q1867.71 192.124 1865.88 191.638 Q1864.07 191.129 1862.22 191.129 Q1858.08 191.129 1855.78 193.768 Q1853.49 196.384 1853.49 201.129 Q1853.49 205.874 1855.78 208.513 Q1858.08 211.129 1862.22 211.129 Q1864.07 211.129 1865.88 210.643 Q1867.71 210.133 1869.51 209.138 L1869.51 213.073 Q1867.73 213.907 1865.81 214.323 Q1863.91 214.74 1861.76 214.74 Q1855.9 214.74 1852.45 211.059 Q1849 207.379 1849 201.129 Q1849 194.786 1852.47 191.152 Q1855.97 187.518 1862.03 187.518 Q1864 187.518 1865.88 187.935 Q1867.75 188.328 1869.51 189.138 Z" fill="#000000" fill-rule="evenodd" fill-opacity="1" /><path clip-path="url(#clip720)" d="M1887.71 216.476 Q1885.9 221.106 1884.19 222.518 Q1882.47 223.93 1879.6 223.93 L1876.2 223.93 L1876.2 220.365 L1878.7 220.365 Q1880.46 220.365 1881.43 219.532 Q1882.4 218.698 1883.59 215.596 L1884.35 213.652 L1873.86 188.143 L1878.38 188.143 L1886.48 208.421 L1894.58 188.143 L1899.09 188.143 L1887.71 216.476 Z" fill="#000000" fill-rule="evenodd" fill-opacity="1" /><path clip-path="url(#clip720)" d="M1920.04 188.143 L1924.3 188.143 L1924.3 214.069 L1920.04 214.069 L1920.04 188.143 M1920.04 178.05 L1924.3 178.05 L1924.3 183.444 L1920.04 183.444 L1920.04 178.05 Z" fill="#000000" fill-rule="evenodd" fill-opacity="1" /><path clip-path="url(#clip720)" d="M1954.77 198.421 L1954.77 214.069 L1950.51 214.069 L1950.51 198.559 Q1950.51 194.879 1949.07 193.05 Q1947.64 191.222 1944.77 191.222 Q1941.32 191.222 1939.33 193.421 Q1937.33 195.62 1937.33 199.416 L1937.33 214.069 L1933.05 214.069 L1933.05 188.143 L1937.33 188.143 L1937.33 192.171 Q1938.86 189.833 1940.92 188.675 Q1943.01 187.518 1945.71 187.518 Q1950.18 187.518 1952.47 190.296 Q1954.77 193.05 1954.77 198.421 Z" fill="#000000" fill-rule="evenodd" fill-opacity="1" /><path clip-path="url(#clip720)" d="M1994.86 188.907 L1994.86 192.934 Q1993.05 192.009 1991.11 191.546 Q1989.16 191.083 1987.08 191.083 Q1983.91 191.083 1982.31 192.055 Q1980.74 193.027 1980.74 194.971 Q1980.74 196.453 1981.87 197.309 Q1983.01 198.143 1986.43 198.907 L1987.89 199.231 Q1992.43 200.203 1994.33 201.985 Q1996.25 203.745 1996.25 206.916 Q1996.25 210.527 1993.38 212.633 Q1990.53 214.74 1985.53 214.74 Q1983.45 214.74 1981.18 214.323 Q1978.93 213.93 1976.43 213.12 L1976.43 208.721 Q1978.79 209.948 1981.08 210.573 Q1983.38 211.175 1985.62 211.175 Q1988.63 211.175 1990.25 210.157 Q1991.87 209.115 1991.87 207.24 Q1991.87 205.504 1990.69 204.578 Q1989.53 203.652 1985.58 202.796 L1984.09 202.448 Q1980.14 201.615 1978.38 199.902 Q1976.62 198.166 1976.62 195.157 Q1976.62 191.499 1979.21 189.509 Q1981.8 187.518 1986.57 187.518 Q1988.93 187.518 1991.02 187.865 Q1993.1 188.212 1994.86 188.907 Z" fill="#000000" fill-rule="evenodd" fill-opacity="1" /><path clip-path="url(#clip720)" d="M2013.08 191.129 Q2009.65 191.129 2007.66 193.814 Q2005.67 196.476 2005.67 201.129 Q2005.67 205.782 2007.64 208.467 Q2009.63 211.129 2013.08 211.129 Q2016.48 211.129 2018.47 208.444 Q2020.46 205.758 2020.46 201.129 Q2020.46 196.522 2018.47 193.837 Q2016.48 191.129 2013.08 191.129 M2013.08 187.518 Q2018.63 187.518 2021.8 191.129 Q2024.97 194.74 2024.97 201.129 Q2024.97 207.495 2021.8 211.129 Q2018.63 214.74 2013.08 214.74 Q2007.5 214.74 2004.33 211.129 Q2001.18 207.495 2001.18 201.129 Q2001.18 194.74 2004.33 191.129 Q2007.5 187.518 2013.08 187.518 Z" fill="#000000" fill-rule="evenodd" fill-opacity="1" /><path clip-path="url(#clip720)" d="M2032.03 178.05 L2036.29 178.05 L2036.29 214.069 L2032.03 214.069 L2032.03 178.05 Z" fill="#000000" fill-rule="evenodd" fill-opacity="1" /><path clip-path="url(#clip720)" d="M2044.76 203.837 L2044.76 188.143 L2049.02 188.143 L2049.02 203.675 Q2049.02 207.356 2050.46 209.208 Q2051.89 211.036 2054.76 211.036 Q2058.21 211.036 2060.2 208.837 Q2062.22 206.638 2062.22 202.842 L2062.22 188.143 L2066.48 188.143 L2066.48 214.069 L2062.22 214.069 L2062.22 210.087 Q2060.67 212.448 2058.61 213.606 Q2056.57 214.74 2053.86 214.74 Q2049.39 214.74 2047.08 211.962 Q2044.76 209.184 2044.76 203.837 M2055.48 187.518 L2055.48 187.518 Z" fill="#000000" fill-rule="evenodd" fill-opacity="1" /><path clip-path="url(#clip720)" d="M2079.46 180.782 L2079.46 188.143 L2088.24 188.143 L2088.24 191.453 L2079.46 191.453 L2079.46 205.527 Q2079.46 208.698 2080.32 209.601 Q2081.2 210.504 2083.86 210.504 L2088.24 210.504 L2088.24 214.069 L2083.86 214.069 Q2078.93 214.069 2077.06 212.24 Q2075.18 210.388 2075.18 205.527 L2075.18 191.453 L2072.06 191.453 L2072.06 188.143 L2075.18 188.143 L2075.18 180.782 L2079.46 180.782 Z" fill="#000000" fill-rule="evenodd" fill-opacity="1" /><path clip-path="url(#clip720)" d="M2093.84 188.143 L2098.1 188.143 L2098.1 214.069 L2093.84 214.069 L2093.84 188.143 M2093.84 178.05 L2098.1 178.05 L2098.1 183.444 L2093.84 183.444 L2093.84 178.05 Z" fill="#000000" fill-rule="evenodd" fill-opacity="1" /><path clip-path="url(#clip720)" d="M2117.06 191.129 Q2113.63 191.129 2111.64 193.814 Q2109.65 196.476 2109.65 201.129 Q2109.65 205.782 2111.62 208.467 Q2113.61 211.129 2117.06 211.129 Q2120.46 211.129 2122.45 208.444 Q2124.44 205.758 2124.44 201.129 Q2124.44 196.522 2122.45 193.837 Q2120.46 191.129 2117.06 191.129 M2117.06 187.518 Q2122.61 187.518 2125.78 191.129 Q2128.95 194.74 2128.95 201.129 Q2128.95 207.495 2125.78 211.129 Q2122.61 214.74 2117.06 214.74 Q2111.48 214.74 2108.31 211.129 Q2105.16 207.495 2105.16 201.129 Q2105.16 194.74 2108.31 191.129 Q2111.48 187.518 2117.06 187.518 Z" fill="#000000" fill-rule="evenodd" fill-opacity="1" /><path clip-path="url(#clip720)" d="M2157.57 198.421 L2157.57 214.069 L2153.31 214.069 L2153.31 198.559 Q2153.31 194.879 2151.87 193.05 Q2150.44 191.222 2147.57 191.222 Q2144.12 191.222 2142.13 193.421 Q2140.13 195.62 2140.13 199.416 L2140.13 214.069 L2135.85 214.069 L2135.85 188.143 L2140.13 188.143 L2140.13 192.171 Q2141.66 189.833 2143.72 188.675 Q2145.81 187.518 2148.51 187.518 Q2152.98 187.518 2155.27 190.296 Q2157.57 193.05 2157.57 198.421 Z" fill="#000000" fill-rule="evenodd" fill-opacity="1" /><path clip-path="url(#clip720)" d="M2182.59 188.907 L2182.59 192.934 Q2180.78 192.009 2178.84 191.546 Q2176.89 191.083 2174.81 191.083 Q2171.64 191.083 2170.04 192.055 Q2168.47 193.027 2168.47 194.971 Q2168.47 196.453 2169.6 197.309 Q2170.74 198.143 2174.16 198.907 L2175.62 199.231 Q2180.16 200.203 2182.06 201.985 Q2183.98 203.745 2183.98 206.916 Q2183.98 210.527 2181.11 212.633 Q2178.26 214.74 2173.26 214.74 Q2171.18 214.74 2168.91 214.323 Q2166.66 213.93 2164.16 213.12 L2164.16 208.721 Q2166.52 209.948 2168.82 210.573 Q2171.11 211.175 2173.35 211.175 Q2176.36 211.175 2177.98 210.157 Q2179.6 209.115 2179.6 207.24 Q2179.6 205.504 2178.42 204.578 Q2177.26 203.652 2173.31 202.796 L2171.82 202.448 Q2167.87 201.615 2166.11 199.902 Q2164.35 198.166 2164.35 195.157 Q2164.35 191.499 2166.94 189.509 Q2169.53 187.518 2174.3 187.518 Q2176.66 187.518 2178.75 187.865 Q2180.83 188.212 2182.59 188.907 Z" fill="#000000" fill-rule="evenodd" fill-opacity="1" /></svg>
