<?xml version="1.0" encoding="utf-8"?>
<svg xmlns="http://www.w3.org/2000/svg" xmlns:xlink="http://www.w3.org/1999/xlink" width="600" height="400" viewBox="0 0 2400 1600">
<defs>
  <clipPath id="clip890">
    <rect x="0" y="0" width="2400" height="1600"/>
  </clipPath>
</defs>
<path clip-path="url(#clip890)" d="M0 1600 L2400 1600 L2400 0 L0 0  Z" fill="#ffffff" fill-rule="evenodd" fill-opacity="1"/>
<defs>
  <clipPath id="clip891">
    <rect x="480" y="0" width="1681" height="1600"/>
  </clipPath>
</defs>
<defs>
  <clipPath id="clip892">
    <rect x="252" y="47" width="2101" height="1377"/>
  </clipPath>
</defs>
<path clip-path="url(#clip890)" d="M252.764 1486.45 L2352.76 1486.45 L2352.76 47.2441 L252.764 47.2441  Z" fill="#ffffff" fill-rule="evenodd" fill-opacity="1"/>
<defs>
  <clipPath id="clip893">
    <rect x="252" y="47" width="2101" height="1440"/>
  </clipPath>
</defs>
<polyline clip-path="url(#clip893)" style="stroke:#000000; stroke-linecap:round; stroke-linejoin:round; stroke-width:2; stroke-opacity:0.1; fill:none" points="301.716,1486.45 301.716,47.2441 "/>
<polyline clip-path="url(#clip893)" style="stroke:#000000; stroke-linecap:round; stroke-linejoin:round; stroke-width:2; stroke-opacity:0.1; fill:none" points="825.823,1486.45 825.823,47.2441 "/>
<polyline clip-path="url(#clip893)" style="stroke:#000000; stroke-linecap:round; stroke-linejoin:round; stroke-width:2; stroke-opacity:0.1; fill:none" points="1349.93,1486.45 1349.93,47.2441 "/>
<polyline clip-path="url(#clip893)" style="stroke:#000000; stroke-linecap:round; stroke-linejoin:round; stroke-width:2; stroke-opacity:0.1; fill:none" points="1874.04,1486.45 1874.04,47.2441 "/>
<polyline clip-path="url(#clip890)" style="stroke:#000000; stroke-linecap:round; stroke-linejoin:round; stroke-width:4; stroke-opacity:1; fill:none" points="252.764,1486.45 2352.76,1486.45 "/>
<polyline clip-path="url(#clip890)" style="stroke:#000000; stroke-linecap:round; stroke-linejoin:round; stroke-width:4; stroke-opacity:1; fill:none" points="301.716,1486.45 301.716,1467.55 "/>
<polyline clip-path="url(#clip890)" style="stroke:#000000; stroke-linecap:round; stroke-linejoin:round; stroke-width:4; stroke-opacity:1; fill:none" points="825.823,1486.45 825.823,1467.55 "/>
<polyline clip-path="url(#clip890)" style="stroke:#000000; stroke-linecap:round; stroke-linejoin:round; stroke-width:4; stroke-opacity:1; fill:none" points="1349.93,1486.45 1349.93,1467.55 "/>
<polyline clip-path="url(#clip890)" style="stroke:#000000; stroke-linecap:round; stroke-linejoin:round; stroke-width:4; stroke-opacity:1; fill:none" points="1874.04,1486.45 1874.04,1467.55 "/>
<path clip-path="url(#clip890)" d="M301.716 1517.37 Q298.104 1517.37 296.276 1520.93 Q294.47 1524.47 294.47 1531.6 Q294.47 1538.71 296.276 1542.27 Q298.104 1545.82 301.716 1545.82 Q305.35 1545.82 307.155 1542.27 Q308.984 1538.71 308.984 1531.6 Q308.984 1524.47 307.155 1520.93 Q305.35 1517.37 301.716 1517.37 M301.716 1513.66 Q307.526 1513.66 310.581 1518.27 Q313.66 1522.85 313.66 1531.6 Q313.66 1540.33 310.581 1544.94 Q307.526 1549.52 301.716 1549.52 Q295.905 1549.52 292.827 1544.94 Q289.771 1540.33 289.771 1531.6 Q289.771 1522.85 292.827 1518.27 Q295.905 1513.66 301.716 1513.66 Z" fill="#000000" fill-rule="evenodd" fill-opacity="1" /><path clip-path="url(#clip890)" d="M800.522 1514.29 L818.878 1514.29 L818.878 1518.22 L804.804 1518.22 L804.804 1526.7 Q805.823 1526.35 806.841 1526.19 Q807.86 1526 808.878 1526 Q814.665 1526 818.045 1529.17 Q821.424 1532.34 821.424 1537.76 Q821.424 1543.34 817.952 1546.44 Q814.48 1549.52 808.161 1549.52 Q805.985 1549.52 803.716 1549.15 Q801.471 1548.78 799.063 1548.04 L799.063 1543.34 Q801.147 1544.47 803.369 1545.03 Q805.591 1545.58 808.068 1545.58 Q812.073 1545.58 814.411 1543.48 Q816.749 1541.37 816.749 1537.76 Q816.749 1534.15 814.411 1532.04 Q812.073 1529.94 808.068 1529.94 Q806.193 1529.94 804.318 1530.35 Q802.466 1530.77 800.522 1531.65 L800.522 1514.29 Z" fill="#000000" fill-rule="evenodd" fill-opacity="1" /><path clip-path="url(#clip890)" d="M840.637 1517.37 Q837.026 1517.37 835.198 1520.93 Q833.392 1524.47 833.392 1531.6 Q833.392 1538.71 835.198 1542.27 Q837.026 1545.82 840.637 1545.82 Q844.272 1545.82 846.077 1542.27 Q847.906 1538.71 847.906 1531.6 Q847.906 1524.47 846.077 1520.93 Q844.272 1517.37 840.637 1517.37 M840.637 1513.66 Q846.447 1513.66 849.503 1518.27 Q852.582 1522.85 852.582 1531.6 Q852.582 1540.33 849.503 1544.94 Q846.447 1549.52 840.637 1549.52 Q834.827 1549.52 831.748 1544.94 Q828.693 1540.33 828.693 1531.6 Q828.693 1522.85 831.748 1518.27 Q834.827 1513.66 840.637 1513.66 Z" fill="#000000" fill-rule="evenodd" fill-opacity="1" /><path clip-path="url(#clip890)" d="M1309.54 1544.91 L1317.18 1544.91 L1317.18 1518.55 L1308.86 1520.21 L1308.86 1515.95 L1317.13 1514.29 L1321.8 1514.29 L1321.8 1544.91 L1329.44 1544.91 L1329.44 1548.85 L1309.54 1548.85 L1309.54 1544.91 Z" fill="#000000" fill-rule="evenodd" fill-opacity="1" /><path clip-path="url(#clip890)" d="M1348.89 1517.37 Q1345.28 1517.37 1343.45 1520.93 Q1341.64 1524.47 1341.64 1531.6 Q1341.64 1538.71 1343.45 1542.27 Q1345.28 1545.82 1348.89 1545.82 Q1352.52 1545.82 1354.33 1542.27 Q1356.16 1538.71 1356.16 1531.6 Q1356.16 1524.47 1354.33 1520.93 Q1352.52 1517.37 1348.89 1517.37 M1348.89 1513.66 Q1354.7 1513.66 1357.75 1518.27 Q1360.83 1522.85 1360.83 1531.6 Q1360.83 1540.33 1357.75 1544.94 Q1354.7 1549.52 1348.89 1549.52 Q1343.08 1549.52 1340 1544.94 Q1336.94 1540.33 1336.94 1531.6 Q1336.94 1522.85 1340 1518.27 Q1343.08 1513.66 1348.89 1513.66 Z" fill="#000000" fill-rule="evenodd" fill-opacity="1" /><path clip-path="url(#clip890)" d="M1379.05 1517.37 Q1375.44 1517.37 1373.61 1520.93 Q1371.8 1524.47 1371.8 1531.6 Q1371.8 1538.71 1373.61 1542.27 Q1375.44 1545.82 1379.05 1545.82 Q1382.68 1545.82 1384.49 1542.27 Q1386.32 1538.71 1386.32 1531.6 Q1386.32 1524.47 1384.49 1520.93 Q1382.68 1517.37 1379.05 1517.37 M1379.05 1513.66 Q1384.86 1513.66 1387.92 1518.27 Q1390.99 1522.85 1390.99 1531.6 Q1390.99 1540.33 1387.92 1544.94 Q1384.86 1549.52 1379.05 1549.52 Q1373.24 1549.52 1370.16 1544.94 Q1367.11 1540.33 1367.11 1531.6 Q1367.11 1522.85 1370.16 1518.27 Q1373.24 1513.66 1379.05 1513.66 Z" fill="#000000" fill-rule="evenodd" fill-opacity="1" /><path clip-path="url(#clip890)" d="M1833.64 1544.91 L1841.28 1544.91 L1841.28 1518.55 L1832.97 1520.21 L1832.97 1515.95 L1841.24 1514.29 L1845.91 1514.29 L1845.91 1544.91 L1853.55 1544.91 L1853.55 1548.85 L1833.64 1548.85 L1833.64 1544.91 Z" fill="#000000" fill-rule="evenodd" fill-opacity="1" /><path clip-path="url(#clip890)" d="M1863.04 1514.29 L1881.4 1514.29 L1881.4 1518.22 L1867.32 1518.22 L1867.32 1526.7 Q1868.34 1526.35 1869.36 1526.19 Q1870.38 1526 1871.4 1526 Q1877.18 1526 1880.56 1529.17 Q1883.94 1532.34 1883.94 1537.76 Q1883.94 1543.34 1880.47 1546.44 Q1877 1549.52 1870.68 1549.52 Q1868.5 1549.52 1866.24 1549.15 Q1863.99 1548.78 1861.58 1548.04 L1861.58 1543.34 Q1863.67 1544.47 1865.89 1545.03 Q1868.11 1545.58 1870.59 1545.58 Q1874.59 1545.58 1876.93 1543.48 Q1879.27 1541.37 1879.27 1537.76 Q1879.27 1534.15 1876.93 1532.04 Q1874.59 1529.94 1870.59 1529.94 Q1868.71 1529.94 1866.84 1530.35 Q1864.99 1530.77 1863.04 1531.65 L1863.04 1514.29 Z" fill="#000000" fill-rule="evenodd" fill-opacity="1" /><path clip-path="url(#clip890)" d="M1903.16 1517.37 Q1899.55 1517.37 1897.72 1520.93 Q1895.91 1524.47 1895.91 1531.6 Q1895.91 1538.71 1897.72 1542.27 Q1899.55 1545.82 1903.16 1545.82 Q1906.79 1545.82 1908.6 1542.27 Q1910.43 1538.71 1910.43 1531.6 Q1910.43 1524.47 1908.6 1520.93 Q1906.79 1517.37 1903.16 1517.37 M1903.16 1513.66 Q1908.97 1513.66 1912.02 1518.27 Q1915.1 1522.85 1915.1 1531.6 Q1915.1 1540.33 1912.02 1544.94 Q1908.97 1549.52 1903.16 1549.52 Q1897.35 1549.52 1894.27 1544.94 Q1891.21 1540.33 1891.21 1531.6 Q1891.21 1522.85 1894.27 1518.27 Q1897.35 1513.66 1903.16 1513.66 Z" fill="#000000" fill-rule="evenodd" fill-opacity="1" /><polyline clip-path="url(#clip893)" style="stroke:#000000; stroke-linecap:round; stroke-linejoin:round; stroke-width:2; stroke-opacity:0.1; fill:none" points="252.764,1486.45 2352.76,1486.45 "/>
<polyline clip-path="url(#clip893)" style="stroke:#000000; stroke-linecap:round; stroke-linejoin:round; stroke-width:2; stroke-opacity:0.1; fill:none" points="252.764,1126.65 2352.76,1126.65 "/>
<polyline clip-path="url(#clip893)" style="stroke:#000000; stroke-linecap:round; stroke-linejoin:round; stroke-width:2; stroke-opacity:0.1; fill:none" points="252.764,766.846 2352.76,766.846 "/>
<polyline clip-path="url(#clip893)" style="stroke:#000000; stroke-linecap:round; stroke-linejoin:round; stroke-width:2; stroke-opacity:0.1; fill:none" points="252.764,407.045 2352.76,407.045 "/>
<polyline clip-path="url(#clip893)" style="stroke:#000000; stroke-linecap:round; stroke-linejoin:round; stroke-width:2; stroke-opacity:0.1; fill:none" points="252.764,47.2441 2352.76,47.2441 "/>
<polyline clip-path="url(#clip890)" style="stroke:#000000; stroke-linecap:round; stroke-linejoin:round; stroke-width:4; stroke-opacity:1; fill:none" points="252.764,1486.45 252.764,47.2441 "/>
<polyline clip-path="url(#clip890)" style="stroke:#000000; stroke-linecap:round; stroke-linejoin:round; stroke-width:4; stroke-opacity:1; fill:none" points="252.764,1486.45 271.662,1486.45 "/>
<polyline clip-path="url(#clip890)" style="stroke:#000000; stroke-linecap:round; stroke-linejoin:round; stroke-width:4; stroke-opacity:1; fill:none" points="252.764,1126.65 271.662,1126.65 "/>
<polyline clip-path="url(#clip890)" style="stroke:#000000; stroke-linecap:round; stroke-linejoin:round; stroke-width:4; stroke-opacity:1; fill:none" points="252.764,766.846 271.662,766.846 "/>
<polyline clip-path="url(#clip890)" style="stroke:#000000; stroke-linecap:round; stroke-linejoin:round; stroke-width:4; stroke-opacity:1; fill:none" points="252.764,407.045 271.662,407.045 "/>
<polyline clip-path="url(#clip890)" style="stroke:#000000; stroke-linecap:round; stroke-linejoin:round; stroke-width:4; stroke-opacity:1; fill:none" points="252.764,47.2441 271.662,47.2441 "/>
<path clip-path="url(#clip890)" d="M114.931 1506.24 L122.57 1506.24 L122.57 1479.87 L114.26 1481.54 L114.26 1477.28 L122.524 1475.62 L127.2 1475.62 L127.2 1506.24 L134.839 1506.24 L134.839 1510.18 L114.931 1510.18 L114.931 1506.24 Z" fill="#000000" fill-rule="evenodd" fill-opacity="1" /><path clip-path="url(#clip890)" d="M154.283 1478.69 Q150.672 1478.69 148.843 1482.26 Q147.038 1485.8 147.038 1492.93 Q147.038 1500.04 148.843 1503.6 Q150.672 1507.14 154.283 1507.14 Q157.917 1507.14 159.723 1503.6 Q161.552 1500.04 161.552 1492.93 Q161.552 1485.8 159.723 1482.26 Q157.917 1478.69 154.283 1478.69 M154.283 1474.99 Q160.093 1474.99 163.149 1479.6 Q166.227 1484.18 166.227 1492.93 Q166.227 1501.66 163.149 1506.26 Q160.093 1510.85 154.283 1510.85 Q148.473 1510.85 145.394 1506.26 Q142.339 1501.66 142.339 1492.93 Q142.339 1484.18 145.394 1479.6 Q148.473 1474.99 154.283 1474.99 Z" fill="#000000" fill-rule="evenodd" fill-opacity="1" /><path clip-path="url(#clip890)" d="M166.227 1469.09 L190.339 1469.09 L190.339 1472.29 L166.227 1472.29 L166.227 1469.09 Z" fill="#000000" fill-rule="evenodd" fill-opacity="1" /><path clip-path="url(#clip890)" d="M208.978 1458 L199.386 1472.99 L208.978 1472.99 L208.978 1458 M207.981 1454.69 L212.758 1454.69 L212.758 1472.99 L216.764 1472.99 L216.764 1476.14 L212.758 1476.14 L212.758 1482.77 L208.978 1482.77 L208.978 1476.14 L196.301 1476.14 L196.301 1472.48 L207.981 1454.69 Z" fill="#000000" fill-rule="evenodd" fill-opacity="1" /><path clip-path="url(#clip890)" d="M115.853 1146.44 L123.492 1146.44 L123.492 1120.07 L115.182 1121.74 L115.182 1117.48 L123.446 1115.81 L128.121 1115.81 L128.121 1146.44 L135.76 1146.44 L135.76 1150.37 L115.853 1150.37 L115.853 1146.44 Z" fill="#000000" fill-rule="evenodd" fill-opacity="1" /><path clip-path="url(#clip890)" d="M155.205 1118.89 Q151.594 1118.89 149.765 1122.46 Q147.959 1126 147.959 1133.13 Q147.959 1140.24 149.765 1143.8 Q151.594 1147.34 155.205 1147.34 Q158.839 1147.34 160.644 1143.8 Q162.473 1140.24 162.473 1133.13 Q162.473 1126 160.644 1122.46 Q158.839 1118.89 155.205 1118.89 M155.205 1115.19 Q161.015 1115.19 164.07 1119.8 Q167.149 1124.38 167.149 1133.13 Q167.149 1141.86 164.07 1146.46 Q161.015 1151.05 155.205 1151.05 Q149.395 1151.05 146.316 1146.46 Q143.26 1141.86 143.26 1133.13 Q143.26 1124.38 146.316 1119.8 Q149.395 1115.19 155.205 1115.19 Z" fill="#000000" fill-rule="evenodd" fill-opacity="1" /><path clip-path="url(#clip890)" d="M167.149 1109.29 L191.261 1109.29 L191.261 1112.49 L167.149 1112.49 L167.149 1109.29 Z" fill="#000000" fill-rule="evenodd" fill-opacity="1" /><path clip-path="url(#clip890)" d="M210.971 1107.82 Q213.698 1108.41 215.222 1110.25 Q216.764 1112.09 216.764 1114.8 Q216.764 1118.96 213.905 1121.23 Q211.046 1123.51 205.78 1123.51 Q204.012 1123.51 202.132 1123.15 Q200.27 1122.81 198.276 1122.12 L198.276 1118.45 Q199.856 1119.37 201.737 1119.84 Q203.617 1120.31 205.667 1120.31 Q209.241 1120.31 211.103 1118.9 Q212.984 1117.49 212.984 1114.8 Q212.984 1112.32 211.234 1110.93 Q209.504 1109.52 206.401 1109.52 L203.128 1109.52 L203.128 1106.39 L206.551 1106.39 Q209.354 1106.39 210.84 1105.28 Q212.325 1104.16 212.325 1102.05 Q212.325 1099.89 210.783 1098.74 Q209.26 1097.57 206.401 1097.57 Q204.84 1097.57 203.053 1097.91 Q201.266 1098.25 199.122 1098.97 L199.122 1095.58 Q201.285 1094.98 203.166 1094.68 Q205.066 1094.38 206.739 1094.38 Q211.065 1094.38 213.585 1096.35 Q216.106 1098.31 216.106 1101.65 Q216.106 1103.99 214.77 1105.6 Q213.435 1107.2 210.971 1107.82 Z" fill="#000000" fill-rule="evenodd" fill-opacity="1" /><path clip-path="url(#clip890)" d="M116.624 786.638 L124.263 786.638 L124.263 760.273 L115.953 761.939 L115.953 757.68 L124.217 756.014 L128.893 756.014 L128.893 786.638 L136.531 786.638 L136.531 790.574 L116.624 790.574 L116.624 786.638 Z" fill="#000000" fill-rule="evenodd" fill-opacity="1" /><path clip-path="url(#clip890)" d="M155.976 759.092 Q152.365 759.092 150.536 762.657 Q148.73 766.199 148.73 773.328 Q148.73 780.435 150.536 784 Q152.365 787.541 155.976 787.541 Q159.61 787.541 161.416 784 Q163.244 780.435 163.244 773.328 Q163.244 766.199 161.416 762.657 Q159.61 759.092 155.976 759.092 M155.976 755.389 Q161.786 755.389 164.841 759.995 Q167.92 764.578 167.92 773.328 Q167.92 782.055 164.841 786.662 Q161.786 791.245 155.976 791.245 Q150.166 791.245 147.087 786.662 Q144.031 782.055 144.031 773.328 Q144.031 764.578 147.087 759.995 Q150.166 755.389 155.976 755.389 Z" fill="#000000" fill-rule="evenodd" fill-opacity="1" /><path clip-path="url(#clip890)" d="M167.92 749.49 L192.032 749.49 L192.032 752.687 L167.92 752.687 L167.92 749.49 Z" fill="#000000" fill-rule="evenodd" fill-opacity="1" /><path clip-path="url(#clip890)" d="M203.504 759.966 L216.764 759.966 L216.764 763.163 L198.934 763.163 L198.934 759.966 Q201.097 757.728 204.821 753.966 Q208.564 750.186 209.523 749.095 Q211.347 747.045 212.062 745.634 Q212.796 744.205 212.796 742.832 Q212.796 740.594 211.216 739.183 Q209.655 737.773 207.134 737.773 Q205.348 737.773 203.354 738.393 Q201.379 739.014 199.122 740.274 L199.122 736.437 Q201.417 735.516 203.41 735.046 Q205.404 734.575 207.059 734.575 Q211.423 734.575 214.018 736.757 Q216.613 738.939 216.613 742.587 Q216.613 744.318 215.955 745.879 Q215.316 747.421 213.604 749.528 Q213.134 750.073 210.614 752.687 Q208.094 755.283 203.504 759.966 Z" fill="#000000" fill-rule="evenodd" fill-opacity="1" /><path clip-path="url(#clip890)" d="M116.323 426.837 L123.962 426.837 L123.962 400.472 L115.652 402.139 L115.652 397.879 L123.916 396.213 L128.592 396.213 L128.592 426.837 L136.231 426.837 L136.231 430.773 L116.323 430.773 L116.323 426.837 Z" fill="#000000" fill-rule="evenodd" fill-opacity="1" /><path clip-path="url(#clip890)" d="M155.675 399.291 Q152.064 399.291 150.235 402.856 Q148.43 406.398 148.43 413.527 Q148.43 420.634 150.235 424.199 Q152.064 427.74 155.675 427.74 Q159.309 427.74 161.115 424.199 Q162.943 420.634 162.943 413.527 Q162.943 406.398 161.115 402.856 Q159.309 399.291 155.675 399.291 M155.675 395.588 Q161.485 395.588 164.541 400.194 Q167.619 404.777 167.619 413.527 Q167.619 422.254 164.541 426.861 Q161.485 431.444 155.675 431.444 Q149.865 431.444 146.786 426.861 Q143.73 422.254 143.73 413.527 Q143.73 404.777 146.786 400.194 Q149.865 395.588 155.675 395.588 Z" fill="#000000" fill-rule="evenodd" fill-opacity="1" /><path clip-path="url(#clip890)" d="M167.619 389.689 L191.731 389.689 L191.731 392.886 L167.619 392.886 L167.619 389.689 Z" fill="#000000" fill-rule="evenodd" fill-opacity="1" /><path clip-path="url(#clip890)" d="M200.589 400.165 L206.796 400.165 L206.796 378.743 L200.044 380.097 L200.044 376.636 L206.758 375.282 L210.557 375.282 L210.557 400.165 L216.764 400.165 L216.764 403.362 L200.589 403.362 L200.589 400.165 Z" fill="#000000" fill-rule="evenodd" fill-opacity="1" /><path clip-path="url(#clip890)" d="M146.058 67.0365 L153.697 67.0365 L153.697 40.6709 L145.387 42.3376 L145.387 38.0784 L153.651 36.4117 L158.327 36.4117 L158.327 67.0365 L165.966 67.0365 L165.966 70.9717 L146.058 70.9717 L146.058 67.0365 Z" fill="#000000" fill-rule="evenodd" fill-opacity="1" /><path clip-path="url(#clip890)" d="M185.41 39.4904 Q181.799 39.4904 179.97 43.0552 Q178.165 46.5968 178.165 53.7264 Q178.165 60.8329 179.97 64.3977 Q181.799 67.9393 185.41 67.9393 Q189.044 67.9393 190.85 64.3977 Q192.678 60.8329 192.678 53.7264 Q192.678 46.5968 190.85 43.0552 Q189.044 39.4904 185.41 39.4904 M185.41 35.7867 Q191.22 35.7867 194.276 40.3932 Q197.354 44.9765 197.354 53.7264 Q197.354 62.4532 194.276 67.0597 Q191.22 71.643 185.41 71.643 Q179.6 71.643 176.521 67.0597 Q173.466 62.4532 173.466 53.7264 Q173.466 44.9765 176.521 40.3932 Q179.6 35.7867 185.41 35.7867 Z" fill="#000000" fill-rule="evenodd" fill-opacity="1" /><path clip-path="url(#clip890)" d="M207.059 17.9827 Q204.125 17.9827 202.639 20.8791 Q201.172 23.7567 201.172 29.5495 Q201.172 35.3235 202.639 38.2199 Q204.125 41.0975 207.059 41.0975 Q210.012 41.0975 211.479 38.2199 Q212.965 35.3235 212.965 29.5495 Q212.965 23.7567 211.479 20.8791 Q210.012 17.9827 207.059 17.9827 M207.059 14.9735 Q211.78 14.9735 214.263 18.7162 Q216.764 22.4402 216.764 29.5495 Q216.764 36.64 214.263 40.3828 Q211.78 44.1067 207.059 44.1067 Q202.338 44.1067 199.837 40.3828 Q197.354 36.64 197.354 29.5495 Q197.354 22.4402 199.837 18.7162 Q202.338 14.9735 207.059 14.9735 Z" fill="#000000" fill-rule="evenodd" fill-opacity="1" /><path clip-path="url(#clip890)" d="M27.9392 788.742 Q28.6155 788.742 29.163 789.322 Q29.7105 789.87 29.7105 790.546 Q29.7105 790.932 29.0664 791.866 Q27.1985 794.539 27.1985 797.921 Q27.1985 800.948 27.9392 803.75 Q28.6799 806.552 30.1936 808.452 Q31.6751 810.32 33.6074 810.32 Q36.0229 810.32 37.4399 807.679 Q36.1839 804.942 36.1839 801.56 Q36.1839 800.465 36.2483 799.725 Q36.3127 798.952 36.4738 798.211 Q36.6348 797.47 37.0213 797.116 Q37.3755 796.729 37.9552 796.729 Q40.0164 796.729 40.0164 802.076 Q40.0164 805.554 39.0824 807.744 Q40.4673 810.546 42.6895 812.092 Q44.9117 813.637 46.8118 813.637 Q48.4543 813.637 49.646 812.736 Q50.8376 811.802 51.4173 810.288 Q51.997 808.742 52.2546 807.228 Q52.4801 805.683 52.4801 803.976 Q52.4801 801.174 52.1258 799.209 Q51.7393 797.212 51.0308 796.117 Q50.3223 794.99 49.8392 794.539 Q49.3239 794.056 48.5187 793.573 Q48.0679 793.283 48.0679 792.897 Q48.0679 792.607 48.2611 792.414 Q48.4221 792.188 48.712 792.188 Q49.0662 792.188 49.807 792.639 Q50.5477 793.058 51.5461 794.088 Q52.5123 795.087 53.414 796.472 Q54.2836 797.824 54.8955 799.982 Q55.5074 802.14 55.5074 804.588 Q55.5074 809.58 53.0598 812.478 Q50.6121 815.344 47.1983 815.344 Q44.8151 815.344 42.3674 813.766 Q39.8876 812.156 38.3095 809.322 Q36.3449 811.963 33.6074 811.963 Q31.1598 811.963 28.9698 809.902 Q26.7798 807.808 25.4916 804.427 Q24.1711 801.013 24.1711 797.277 Q24.1711 795.183 24.8796 793.122 Q25.556 791.061 26.4255 789.902 Q27.2951 788.742 27.9392 788.742 M38.0196 798.436 Q37.6332 799.853 37.6332 801.56 Q37.6332 803.879 38.2129 805.586 Q38.5671 804.201 38.5671 802.076 Q38.5671 800.304 38.4705 799.789 Q38.3739 799.241 38.0196 798.436 Z" fill="#000000" fill-rule="evenodd" fill-opacity="1" /><path clip-path="url(#clip890)" d="M57.1294 763.159 Q58.3243 763.159 59.0908 763.948 Q59.8573 764.714 59.8573 765.706 Q59.8573 766.563 59.3613 767.014 Q58.8653 767.465 58.2341 767.465 Q57.3323 767.465 56.5884 766.766 Q55.8444 766.067 55.6866 765.053 Q55.1455 765.796 55.1455 766.991 Q55.1455 768.953 56.656 770.689 Q57.3549 771.455 58.6399 772.289 Q59.9023 773.123 60.4434 773.281 L66.4627 774.746 Q67.139 774.882 70.3854 775.716 Q73.6092 776.527 73.7444 776.595 Q74.3757 776.821 74.7138 777.317 Q75.052 777.812 75.052 778.308 Q75.052 778.872 74.7138 779.255 Q74.3757 779.639 73.7895 779.639 Q73.6993 779.639 73.3612 779.571 Q73.023 779.503 72.5496 779.391 Q72.0762 779.278 71.8056 779.233 L61.1423 776.55 Q59.2035 776.054 58.5948 775.941 Q57.9636 775.806 57.2647 775.806 Q56.0473 775.806 55.5964 776.189 Q55.1455 776.573 55.1455 777.249 Q55.1455 778.421 56.5433 779.188 Q57.941 779.954 60.6463 780.608 Q61.3903 780.811 61.5481 780.946 Q61.7059 781.059 61.7059 781.397 Q61.6833 781.961 61.2324 781.961 Q61.1197 781.961 60.3983 781.78 Q59.6544 781.6 58.5722 781.262 Q57.4676 780.901 56.7687 780.518 Q56.2953 780.292 55.9797 780.089 Q55.6641 779.887 55.1681 779.481 Q54.6721 779.075 54.4016 778.466 Q54.1311 777.858 54.1311 777.114 Q54.1311 775.49 55.123 774.341 Q56.1149 773.168 57.6705 772.898 Q56.8589 772.334 56.16 771.635 Q55.4386 770.937 54.7848 769.652 Q54.1311 768.367 54.1311 766.991 Q54.1311 765.278 55.0103 764.218 Q55.867 763.159 57.1294 763.159 Z" fill="#000000" fill-rule="evenodd" fill-opacity="1" /><path clip-path="url(#clip890)" d="M69.1905 742.748 Q69.3934 742.568 69.5963 742.568 Q69.7992 742.568 70.3854 743.019 Q70.9715 743.447 71.7605 744.371 Q72.5496 745.296 73.2935 746.491 Q74.0375 747.685 74.5335 749.444 Q75.052 751.202 75.052 753.051 Q75.052 756.365 72.6849 758.349 Q70.3177 760.31 66.6881 760.31 Q64.3661 760.31 62.3146 759.544 Q60.2405 758.777 58.7751 757.537 Q57.3098 756.275 56.2502 754.697 Q55.1681 753.096 54.6496 751.428 Q54.1311 749.759 54.1311 748.204 Q54.1311 745.927 55.2808 744.597 Q56.4306 743.267 58.0537 743.267 Q58.437 743.267 58.9104 743.379 Q59.3838 743.47 60.1278 743.785 Q60.8717 744.078 61.6157 744.845 Q62.3371 745.611 62.8105 746.739 Q63.8701 749.241 63.8701 753.795 L63.8701 756.252 Q66.7783 756.974 68.672 756.974 Q69.416 756.974 70.1825 756.838 Q70.9264 756.703 71.8733 756.342 Q72.8201 755.959 73.4288 755.102 Q74.015 754.223 74.015 752.961 Q74.015 752.555 73.9924 752.127 Q73.9699 751.676 73.7219 750.548 Q73.4739 749.399 73.0456 748.384 Q72.6172 747.37 71.6929 746.085 Q70.7461 744.777 69.461 743.74 Q68.9876 743.379 68.9876 743.131 Q68.9876 742.929 69.1905 742.748 M58.0537 744.8 Q56.8138 744.8 55.9797 745.724 Q55.1455 746.626 55.1455 748.204 Q55.1455 748.7 55.2583 749.309 Q55.371 749.917 55.8444 750.932 Q56.3178 751.924 57.1069 752.803 Q57.8734 753.682 59.3838 754.561 Q60.8717 755.441 62.8556 755.959 L62.8556 754.065 Q62.8556 753.412 62.8556 752.938 Q62.8331 752.465 62.7429 751.428 Q62.6527 750.368 62.4949 749.602 Q62.3146 748.835 61.9539 747.866 Q61.5932 746.896 61.1197 746.288 Q60.6238 745.656 59.8347 745.228 Q59.0457 744.8 58.0537 744.8 Z" fill="#000000" fill-rule="evenodd" fill-opacity="1" /><path clip-path="url(#clip890)" d="M42.9943 729.134 L69.6865 735.784 Q70.7461 736.055 71.8958 736.055 Q74.015 736.055 74.015 734.657 Q74.015 734.003 73.5866 733.462 Q73.1357 732.921 72.2565 732.516 Q71.3548 732.087 70.4981 731.817 Q69.6414 731.524 68.3113 731.163 Q67.7928 731.05 67.635 730.937 Q67.4772 730.825 67.4772 730.509 Q67.4772 729.946 67.928 729.946 Q70.701 730.509 72.4594 731.343 Q75.052 732.561 75.052 734.815 Q75.052 736.506 73.8797 737.768 Q72.6849 739.008 70.7911 739.008 Q70.0697 739.008 69.2131 738.783 L46.1279 732.966 L45.2261 732.809 Q44.9782 732.809 44.8429 732.899 Q44.7076 732.989 44.5724 733.53 Q44.4371 734.049 44.4371 735.086 Q44.4371 735.514 44.4145 735.717 Q44.392 735.897 44.2793 736.078 Q44.1666 736.235 43.9186 736.235 Q43.5128 736.235 43.2873 736.078 Q43.0619 735.897 43.0168 735.762 Q42.9717 735.627 42.9492 735.356 Q42.9266 734.973 42.8139 733.688 Q42.6787 732.403 42.5885 731.298 Q42.4983 730.194 42.4983 729.72 Q42.4983 729.45 42.6336 729.314 Q42.7463 729.156 42.8815 729.134 L42.9943 729.134 Z" fill="#000000" fill-rule="evenodd" fill-opacity="1" /><polyline clip-path="url(#clip893)" style="stroke:#009af9; stroke-linecap:round; stroke-linejoin:round; stroke-width:4; stroke-opacity:1; fill:none" points="312.198,187.942 322.68,188.321 333.162,188.679 343.644,189.016 354.126,189.335 364.608,189.635 375.091,189.918 385.573,190.185 396.055,190.435 406.537,190.671 417.019,190.893 427.501,191.102 437.983,191.298 448.466,191.482 458.948,191.654 469.43,191.816 479.912,191.968 490.394,192.11 500.876,192.243 511.358,192.367 521.84,192.483 532.323,192.592 542.805,192.693 553.287,192.788 563.769,192.876 574.251,192.957 584.733,193.033 595.215,193.104 605.698,193.169 616.18,193.23 626.662,193.286 637.144,193.337 647.626,193.385 658.108,193.429 668.59,193.469 679.073,193.506 689.555,193.54 700.037,193.571 710.519,193.598 721.001,193.624 731.483,193.647 741.965,193.667 752.448,193.686 762.93,193.702 773.412,193.716 783.894,193.729 794.376,193.74 804.858,193.749 815.34,193.757 825.823,193.764 836.305,193.769 846.787,193.774 857.269,193.777 867.751,193.779 878.233,193.78 888.715,193.78 899.198,193.78 909.68,193.779 920.162,193.777 930.644,193.774 941.126,193.771 951.608,193.767 962.09,193.763 972.573,193.758 983.055,193.753 993.537,193.748 1004.02,193.742 1014.5,193.736 1024.98,193.73 1035.47,193.723 1045.95,193.716 1056.43,193.709 1066.91,193.702 1077.39,193.695 1087.88,193.687 1098.36,193.68 1108.84,193.672 1119.32,193.664 1129.8,193.656 1140.29,193.649 1150.77,193.641 1161.25,193.633 1171.73,193.625 1182.22,193.617 1192.7,193.609 1203.18,193.601 1213.66,193.593 1224.14,193.585 1234.63,193.578 1245.11,193.57 1255.59,193.562 1266.07,193.555 1276.55,193.547 1287.04,193.54 1297.52,193.532 1308,193.525 1318.48,193.518 1328.97,193.511 1339.45,193.504 1349.93,193.497 1360.41,193.49 1370.89,193.483 1381.38,193.476 1391.86,193.47 1402.34,193.463 1412.82,193.457 1423.3,193.451 1433.79,193.445 1444.27,193.439 1454.75,193.433 1465.23,193.427 1475.72,193.421 1486.2,193.415 1496.68,193.41 1507.16,193.404 1517.64,193.399 1528.13,193.394 1538.61,193.389 1549.09,193.384 1559.57,193.379 1570.05,193.374 1580.54,193.369 1591.02,193.364 1601.5,193.36 1611.98,193.355 1622.47,193.351 1632.95,193.347 1643.43,193.342 1653.91,193.338 1664.39,193.334 1674.88,193.33 1685.36,193.326 1695.84,193.323 1706.32,193.319 1716.8,193.315 1727.29,193.312 1737.77,193.308 1748.25,193.305 1758.73,193.301 1769.22,193.298 1779.7,193.295 1790.18,193.292 1800.66,193.289 1811.14,193.286 1821.63,193.283 1832.11,193.28 1842.59,193.277 1853.07,193.275 1863.55,193.272 1874.04,193.269 1884.52,193.267 1895,193.264 1905.48,193.262 1915.97,193.26 1926.45,193.257 1936.93,193.255 1947.41,193.253 1957.89,193.251 1968.38,193.249 1978.86,193.247 1989.34,193.245 1999.82,193.243 2010.3,193.241 2020.79,193.239 2031.27,193.237 2041.75,193.235 2052.23,193.234 2062.72,193.232 2073.2,193.23 2083.68,193.229 2094.16,193.227 2104.64,193.226 2115.13,193.224 2125.61,193.223 2136.09,193.221 2146.57,193.22 2157.05,193.219 2167.54,193.217 2178.02,193.216 2188.5,193.215 2198.98,193.213 "/>
<polyline clip-path="url(#clip893)" style="stroke:#e26f46; stroke-linecap:round; stroke-linejoin:round; stroke-width:4; stroke-opacity:1; fill:none" points="312.198,896.794 322.68,896.872 333.162,896.945 343.644,897.012 354.126,897.073 364.608,897.13 375.091,897.183 385.573,897.231 396.055,897.275 406.537,897.316 417.019,897.354 427.501,897.388 437.983,897.419 448.466,897.448 458.948,897.474 469.43,897.498 479.912,897.519 490.394,897.539 500.876,897.556 511.358,897.572 521.84,897.587 532.323,897.599 542.805,897.611 553.287,897.621 563.769,897.63 574.251,897.637 584.733,897.644 595.215,897.65 605.698,897.655 616.18,897.659 626.662,897.663 637.144,897.665 647.626,897.668 658.108,897.669 668.59,897.67 679.073,897.671 689.555,897.671 700.037,897.671 710.519,897.67 721.001,897.669 731.483,897.668 741.965,897.667 752.448,897.665 762.93,897.663 773.412,897.661 783.894,897.659 794.376,897.656 804.858,897.654 815.34,897.651 825.823,897.649 836.305,897.646 846.787,897.643 857.269,897.64 867.751,897.637 878.233,897.634 888.715,897.631 899.198,897.628 909.68,897.624 920.162,897.621 930.644,897.618 941.126,897.615 951.608,897.612 962.09,897.609 972.573,897.606 983.055,897.603 993.537,897.6 1004.02,897.597 1014.5,897.594 1024.98,897.591 1035.47,897.588 1045.95,897.585 1056.43,897.582 1066.91,897.58 1077.39,897.577 1087.88,897.574 1098.36,897.572 1108.84,897.569 1119.32,897.567 1129.8,897.564 1140.29,897.562 1150.77,897.559 1161.25,897.557 1171.73,897.555 1182.22,897.553 1192.7,897.55 1203.18,897.548 1213.66,897.546 1224.14,897.544 1234.63,897.542 1245.11,897.54 1255.59,897.538 1266.07,897.537 1276.55,897.535 1287.04,897.533 1297.52,897.531 1308,897.53 1318.48,897.528 1328.97,897.527 1339.45,897.525 1349.93,897.524 1360.41,897.522 1370.89,897.521 1381.38,897.519 1391.86,897.518 1402.34,897.517 1412.82,897.515 1423.3,897.514 1433.79,897.513 1444.27,897.512 1454.75,897.511 1465.23,897.509 1475.72,897.508 1486.2,897.507 1496.68,897.506 1507.16,897.505 1517.64,897.504 1528.13,897.503 1538.61,897.503 1549.09,897.502 1559.57,897.501 1570.05,897.5 1580.54,897.499 1591.02,897.498 1601.5,897.498 1611.98,897.497 1622.47,897.496 1632.95,897.495 1643.43,897.495 1653.91,897.494 1664.39,897.494 1674.88,897.493 1685.36,897.492 1695.84,897.492 1706.32,897.491 1716.8,897.491 1727.29,897.49 1737.77,897.49 1748.25,897.489 1758.73,897.489 1769.22,897.488 1779.7,897.488 1790.18,897.487 1800.66,897.487 1811.14,897.486 1821.63,897.486 1832.11,897.486 1842.59,897.485 1853.07,897.485 1863.55,897.484 1874.04,897.484 1884.52,897.484 1895,897.483 1905.48,897.483 1915.97,897.483 1926.45,897.483 1936.93,897.482 1947.41,897.482 1957.89,897.482 "/>
<polyline clip-path="url(#clip893)" style="stroke:#3da44d; stroke-linecap:round; stroke-linejoin:round; stroke-width:4; stroke-opacity:1; fill:none" points="312.198,954.875 322.68,954.93 333.162,954.981 343.644,955.028 354.126,955.071 364.608,955.112 375.091,955.149 385.573,955.183 396.055,955.214 406.537,955.243 417.019,955.269 427.501,955.293 437.983,955.316 448.466,955.336 458.948,955.354 469.43,955.371 479.912,955.386 490.394,955.4 500.876,955.413 511.358,955.424 521.84,955.434 532.323,955.443 542.805,955.451 553.287,955.458 563.769,955.465 574.251,955.47 584.733,955.475 595.215,955.479 605.698,955.483 616.18,955.486 626.662,955.489 637.144,955.491 647.626,955.492 658.108,955.493 668.59,955.494 679.073,955.495 689.555,955.495 700.037,955.495 710.519,955.495 721.001,955.494 731.483,955.493 741.965,955.492 752.448,955.491 762.93,955.49 773.412,955.488 783.894,955.487 794.376,955.485 804.858,955.483 815.34,955.482 825.823,955.48 836.305,955.478 846.787,955.476 857.269,955.474 867.751,955.472 878.233,955.469 888.715,955.467 899.198,955.465 909.68,955.463 920.162,955.461 930.644,955.459 941.126,955.456 951.608,955.454 962.09,955.452 972.573,955.45 983.055,955.448 993.537,955.446 1004.02,955.444 1014.5,955.442 1024.98,955.44 1035.47,955.438 1045.95,955.436 1056.43,955.434 1066.91,955.432 1077.39,955.43 1087.88,955.428 1098.36,955.426 1108.84,955.424 1119.32,955.423 1129.8,955.421 1140.29,955.419 1150.77,955.417 1161.25,955.416 1171.73,955.414 1182.22,955.413 1192.7,955.411 1203.18,955.41 1213.66,955.408 1224.14,955.407 1234.63,955.405 1245.11,955.404 1255.59,955.403 1266.07,955.401 1276.55,955.4 1287.04,955.399 1297.52,955.398 1308,955.396 1318.48,955.395 1328.97,955.394 1339.45,955.393 1349.93,955.392 1360.41,955.391 1370.89,955.39 1381.38,955.389 1391.86,955.388 1402.34,955.387 1412.82,955.386 1423.3,955.385 1433.79,955.384 1444.27,955.384 1454.75,955.383 1465.23,955.382 1475.72,955.381 1486.2,955.38 1496.68,955.38 1507.16,955.379 1517.64,955.378 1528.13,955.378 1538.61,955.377 1549.09,955.376 1559.57,955.376 1570.05,955.375 1580.54,955.375 1591.02,955.374 1601.5,955.374 1611.98,955.373 1622.47,955.372 1632.95,955.372 1643.43,955.371 1653.91,955.371 1664.39,955.371 1674.88,955.37 1685.36,955.37 1695.84,955.369 1706.32,955.369 1716.8,955.368 1727.29,955.368 1737.77,955.368 1748.25,955.367 1758.73,955.367 1769.22,955.367 1779.7,955.366 1790.18,955.366 1800.66,955.366 1811.14,955.365 1821.63,955.365 1832.11,955.365 1842.59,955.364 1853.07,955.364 1863.55,955.364 1874.04,955.364 1884.52,955.363 1895,955.363 1905.48,955.363 1915.97,955.363 1926.45,955.363 1936.93,955.362 1947.41,955.362 1957.89,955.362 1968.38,955.362 1978.86,955.362 1989.34,955.361 1999.82,955.361 2010.3,955.361 "/>
<polyline clip-path="url(#clip893)" style="stroke:#c271d2; stroke-linecap:round; stroke-linejoin:round; stroke-width:4; stroke-opacity:1; fill:none" points="312.198,1034.48 322.68,1034.51 333.162,1034.54 343.644,1034.57 354.126,1034.6 364.608,1034.62 375.091,1034.65 385.573,1034.67 396.055,1034.69 406.537,1034.71 417.019,1034.72 427.501,1034.74 437.983,1034.75 448.466,1034.77 458.948,1034.78 469.43,1034.79 479.912,1034.8 490.394,1034.81 500.876,1034.81 511.358,1034.82 521.84,1034.83 532.323,1034.83 542.805,1034.84 553.287,1034.84 563.769,1034.85 574.251,1034.85 584.733,1034.85 595.215,1034.86 605.698,1034.86 616.18,1034.86 626.662,1034.86 637.144,1034.86 647.626,1034.87 658.108,1034.87 668.59,1034.87 679.073,1034.87 689.555,1034.87 700.037,1034.87 710.519,1034.87 721.001,1034.87 731.483,1034.87 741.965,1034.87 752.448,1034.87 762.93,1034.87 773.412,1034.86 783.894,1034.86 794.376,1034.86 804.858,1034.86 815.34,1034.86 825.823,1034.86 836.305,1034.86 846.787,1034.86 857.269,1034.86 867.751,1034.85 878.233,1034.85 888.715,1034.85 899.198,1034.85 909.68,1034.85 920.162,1034.85 930.644,1034.85 941.126,1034.85 951.608,1034.84 962.09,1034.84 972.573,1034.84 983.055,1034.84 993.537,1034.84 1004.02,1034.84 1014.5,1034.84 1024.98,1034.84 1035.47,1034.83 1045.95,1034.83 1056.43,1034.83 1066.91,1034.83 1077.39,1034.83 1087.88,1034.83 1098.36,1034.83 1108.84,1034.83 1119.32,1034.83 1129.8,1034.82 1140.29,1034.82 1150.77,1034.82 1161.25,1034.82 1171.73,1034.82 1182.22,1034.82 1192.7,1034.82 1203.18,1034.82 1213.66,1034.82 1224.14,1034.82 1234.63,1034.81 1245.11,1034.81 1255.59,1034.81 1266.07,1034.81 1276.55,1034.81 1287.04,1034.81 1297.52,1034.81 1308,1034.81 1318.48,1034.81 1328.97,1034.81 1339.45,1034.81 1349.93,1034.81 1360.41,1034.81 1370.89,1034.81 1381.38,1034.8 1391.86,1034.8 1402.34,1034.8 1412.82,1034.8 1423.3,1034.8 1433.79,1034.8 1444.27,1034.8 1454.75,1034.8 1465.23,1034.8 1475.72,1034.8 1486.2,1034.8 1496.68,1034.8 1507.16,1034.8 1517.64,1034.8 1528.13,1034.8 1538.61,1034.8 1549.09,1034.8 1559.57,1034.8 1570.05,1034.8 1580.54,1034.8 1591.02,1034.8 1601.5,1034.8 1611.98,1034.79 1622.47,1034.79 1632.95,1034.79 1643.43,1034.79 1653.91,1034.79 1664.39,1034.79 1674.88,1034.79 1685.36,1034.79 1695.84,1034.79 1706.32,1034.79 1716.8,1034.79 1727.29,1034.79 1737.77,1034.79 1748.25,1034.79 1758.73,1034.79 1769.22,1034.79 1779.7,1034.79 1790.18,1034.79 1800.66,1034.79 1811.14,1034.79 1821.63,1034.79 1832.11,1034.79 1842.59,1034.79 1853.07,1034.79 1863.55,1034.79 1874.04,1034.79 1884.52,1034.79 1895,1034.79 1905.48,1034.79 1915.97,1034.79 1926.45,1034.79 1936.93,1034.79 1947.41,1034.79 1957.89,1034.79 1968.38,1034.79 1978.86,1034.79 1989.34,1034.79 1999.82,1034.79 2010.3,1034.79 2020.79,1034.79 2031.27,1034.79 2041.75,1034.79 2052.23,1034.79 2062.72,1034.79 2073.2,1034.79 2083.68,1034.79 2094.16,1034.79 2104.64,1034.79 2115.13,1034.79 2125.61,1034.79 2136.09,1034.79 2146.57,1034.79 "/>
<polyline clip-path="url(#clip893)" style="stroke:#ac8d18; stroke-linecap:round; stroke-linejoin:round; stroke-width:4; stroke-opacity:1; fill:none" points="312.198,1151.39 322.68,1151.41 333.162,1151.43 343.644,1151.44 354.126,1151.46 364.608,1151.47 375.091,1151.48 385.573,1151.49 396.055,1151.5 406.537,1151.51 417.019,1151.52 427.501,1151.53 437.983,1151.53 448.466,1151.54 458.948,1151.55 469.43,1151.55 479.912,1151.56 490.394,1151.56 500.876,1151.57 511.358,1151.57 521.84,1151.57 532.323,1151.58 542.805,1151.58 553.287,1151.58 563.769,1151.59 574.251,1151.59 584.733,1151.59 595.215,1151.59 605.698,1151.59 616.18,1151.59 626.662,1151.59 637.144,1151.59 647.626,1151.6 658.108,1151.6 668.59,1151.6 679.073,1151.6 689.555,1151.6 700.037,1151.6 710.519,1151.6 721.001,1151.6 731.483,1151.6 741.965,1151.6 752.448,1151.6 762.93,1151.6 773.412,1151.6 783.894,1151.6 794.376,1151.6 804.858,1151.6 815.34,1151.59 825.823,1151.59 836.305,1151.59 846.787,1151.59 857.269,1151.59 867.751,1151.59 878.233,1151.59 888.715,1151.59 899.198,1151.59 909.68,1151.59 920.162,1151.59 930.644,1151.59 941.126,1151.59 951.608,1151.59 962.09,1151.59 972.573,1151.59 983.055,1151.59 993.537,1151.58 1004.02,1151.58 1014.5,1151.58 1024.98,1151.58 1035.47,1151.58 1045.95,1151.58 1056.43,1151.58 1066.91,1151.58 1077.39,1151.58 1087.88,1151.58 1098.36,1151.58 1108.84,1151.58 1119.32,1151.58 1129.8,1151.58 1140.29,1151.58 1150.77,1151.58 1161.25,1151.58 1171.73,1151.58 1182.22,1151.57 1192.7,1151.57 1203.18,1151.57 1213.66,1151.57 1224.14,1151.57 1234.63,1151.57 1245.11,1151.57 1255.59,1151.57 1266.07,1151.57 1276.55,1151.57 1287.04,1151.57 1297.52,1151.57 1308,1151.57 1318.48,1151.57 1328.97,1151.57 1339.45,1151.57 1349.93,1151.57 1360.41,1151.57 1370.89,1151.57 1381.38,1151.57 1391.86,1151.57 1402.34,1151.57 1412.82,1151.57 1423.3,1151.57 1433.79,1151.57 1444.27,1151.57 1454.75,1151.57 1465.23,1151.57 1475.72,1151.56 1486.2,1151.56 1496.68,1151.56 1507.16,1151.56 1517.64,1151.56 1528.13,1151.56 1538.61,1151.56 1549.09,1151.56 1559.57,1151.56 1570.05,1151.56 1580.54,1151.56 1591.02,1151.56 1601.5,1151.56 1611.98,1151.56 1622.47,1151.56 1632.95,1151.56 1643.43,1151.56 1653.91,1151.56 1664.39,1151.56 1674.88,1151.56 1685.36,1151.56 1695.84,1151.56 1706.32,1151.56 1716.8,1151.56 1727.29,1151.56 1737.77,1151.56 1748.25,1151.56 1758.73,1151.56 1769.22,1151.56 1779.7,1151.56 1790.18,1151.56 1800.66,1151.56 1811.14,1151.56 1821.63,1151.56 1832.11,1151.56 1842.59,1151.56 1853.07,1151.56 1863.55,1151.56 1874.04,1151.56 1884.52,1151.56 1895,1151.56 1905.48,1151.56 1915.97,1151.56 1926.45,1151.56 1936.93,1151.56 1947.41,1151.56 1957.89,1151.56 1968.38,1151.56 1978.86,1151.56 1989.34,1151.56 1999.82,1151.56 2010.3,1151.56 2020.79,1151.56 2031.27,1151.56 2041.75,1151.56 2052.23,1151.56 2062.72,1151.56 2073.2,1151.56 2083.68,1151.56 2094.16,1151.56 2104.64,1151.56 2115.13,1151.56 2125.61,1151.56 2136.09,1151.56 2146.57,1151.56 2157.05,1151.56 2167.54,1151.56 2178.02,1151.56 2188.5,1151.56 2198.98,1151.56 2209.47,1151.56 2219.95,1151.56 2230.43,1151.56 2240.91,1151.56 2251.39,1151.56 2261.88,1151.56 2272.36,1151.56 2282.84,1151.56 2293.32,1151.56 "/>
<path clip-path="url(#clip890)" d="M1928.45 406.258 L2282.76 406.258 L2282.76 95.2176 L1928.45 95.2176  Z" fill="#ffffff" fill-rule="evenodd" fill-opacity="1"/>
<polyline clip-path="url(#clip890)" style="stroke:#000000; stroke-linecap:round; stroke-linejoin:round; stroke-width:4; stroke-opacity:1; fill:none" points="1928.45,406.258 2282.76,406.258 2282.76,95.2176 1928.45,95.2176 1928.45,406.258 "/>
<polyline clip-path="url(#clip890)" style="stroke:#009af9; stroke-linecap:round; stroke-linejoin:round; stroke-width:4; stroke-opacity:1; fill:none" points="1951.79,147.058 2091.78,147.058 "/>
<path clip-path="url(#clip890)" d="M2130.3 142.393 Q2129.59 141.977 2128.73 141.791 Q2127.9 141.583 2126.88 141.583 Q2123.27 141.583 2121.32 143.944 Q2119.4 146.282 2119.4 150.68 L2119.4 164.338 L2115.12 164.338 L2115.12 138.412 L2119.4 138.412 L2119.4 142.44 Q2120.74 140.078 2122.9 138.944 Q2125.05 137.787 2128.13 137.787 Q2128.57 137.787 2129.1 137.856 Q2129.63 137.903 2130.28 138.018 L2130.3 142.393 Z" fill="#000000" fill-rule="evenodd" fill-opacity="1" /><path clip-path="url(#clip890)" d="M2146.55 151.305 Q2141.39 151.305 2139.4 152.486 Q2137.41 153.666 2137.41 156.514 Q2137.41 158.782 2138.89 160.125 Q2140.4 161.444 2142.97 161.444 Q2146.51 161.444 2148.64 158.944 Q2150.79 156.421 2150.79 152.254 L2150.79 151.305 L2146.55 151.305 M2155.05 149.546 L2155.05 164.338 L2150.79 164.338 L2150.79 160.402 Q2149.33 162.763 2147.16 163.898 Q2144.98 165.009 2141.83 165.009 Q2137.85 165.009 2135.49 162.787 Q2133.15 160.541 2133.15 156.791 Q2133.15 152.416 2136.07 150.194 Q2139.01 147.972 2144.82 147.972 L2150.79 147.972 L2150.79 147.555 Q2150.79 144.615 2148.84 143.018 Q2146.92 141.398 2143.43 141.398 Q2141.21 141.398 2139.1 141.93 Q2136.99 142.463 2135.05 143.527 L2135.05 139.592 Q2137.39 138.69 2139.59 138.25 Q2141.78 137.787 2143.87 137.787 Q2149.49 137.787 2152.27 140.703 Q2155.05 143.62 2155.05 149.546 Z" fill="#000000" fill-rule="evenodd" fill-opacity="1" /><path clip-path="url(#clip890)" d="M2185.37 148.689 L2185.37 164.338 L2181.11 164.338 L2181.11 148.828 Q2181.11 145.148 2179.68 143.319 Q2178.24 141.49 2175.37 141.49 Q2171.92 141.49 2169.93 143.69 Q2167.94 145.889 2167.94 149.685 L2167.94 164.338 L2163.66 164.338 L2163.66 138.412 L2167.94 138.412 L2167.94 142.44 Q2169.47 140.102 2171.53 138.944 Q2173.61 137.787 2176.32 137.787 Q2180.79 137.787 2183.08 140.565 Q2185.37 143.319 2185.37 148.689 Z" fill="#000000" fill-rule="evenodd" fill-opacity="1" /><path clip-path="url(#clip890)" d="M2193.71 128.319 L2197.99 128.319 L2197.99 149.592 L2210.7 138.412 L2216.14 138.412 L2202.39 150.541 L2216.71 164.338 L2211.16 164.338 L2197.99 151.676 L2197.99 164.338 L2193.71 164.338 L2193.71 128.319 Z" fill="#000000" fill-rule="evenodd" fill-opacity="1" /><path clip-path="url(#clip890)" d="M2237.8 160.402 L2245.44 160.402 L2245.44 134.037 L2237.13 135.703 L2237.13 131.444 L2245.4 129.778 L2250.07 129.778 L2250.07 160.402 L2257.71 160.402 L2257.71 164.338 L2237.8 164.338 L2237.8 160.402 Z" fill="#000000" fill-rule="evenodd" fill-opacity="1" /><polyline clip-path="url(#clip890)" style="stroke:#e26f46; stroke-linecap:round; stroke-linejoin:round; stroke-width:4; stroke-opacity:1; fill:none" points="1951.79,198.898 2091.78,198.898 "/>
<path clip-path="url(#clip890)" d="M2130.3 194.233 Q2129.59 193.817 2128.73 193.631 Q2127.9 193.423 2126.88 193.423 Q2123.27 193.423 2121.32 195.784 Q2119.4 198.122 2119.4 202.52 L2119.4 216.178 L2115.12 216.178 L2115.12 190.252 L2119.4 190.252 L2119.4 194.28 Q2120.74 191.918 2122.9 190.784 Q2125.05 189.627 2128.13 189.627 Q2128.57 189.627 2129.1 189.696 Q2129.63 189.743 2130.28 189.858 L2130.3 194.233 Z" fill="#000000" fill-rule="evenodd" fill-opacity="1" /><path clip-path="url(#clip890)" d="M2146.55 203.145 Q2141.39 203.145 2139.4 204.326 Q2137.41 205.506 2137.41 208.354 Q2137.41 210.622 2138.89 211.965 Q2140.4 213.284 2142.97 213.284 Q2146.51 213.284 2148.64 210.784 Q2150.79 208.261 2150.79 204.094 L2150.79 203.145 L2146.55 203.145 M2155.05 201.386 L2155.05 216.178 L2150.79 216.178 L2150.79 212.242 Q2149.33 214.603 2147.16 215.738 Q2144.98 216.849 2141.83 216.849 Q2137.85 216.849 2135.49 214.627 Q2133.15 212.381 2133.15 208.631 Q2133.15 204.256 2136.07 202.034 Q2139.01 199.812 2144.82 199.812 L2150.79 199.812 L2150.79 199.395 Q2150.79 196.455 2148.84 194.858 Q2146.92 193.238 2143.43 193.238 Q2141.21 193.238 2139.1 193.77 Q2136.99 194.303 2135.05 195.367 L2135.05 191.432 Q2137.39 190.53 2139.59 190.09 Q2141.78 189.627 2143.87 189.627 Q2149.49 189.627 2152.27 192.543 Q2155.05 195.46 2155.05 201.386 Z" fill="#000000" fill-rule="evenodd" fill-opacity="1" /><path clip-path="url(#clip890)" d="M2185.37 200.529 L2185.37 216.178 L2181.11 216.178 L2181.11 200.668 Q2181.11 196.988 2179.68 195.159 Q2178.24 193.33 2175.37 193.33 Q2171.92 193.33 2169.93 195.53 Q2167.94 197.729 2167.94 201.525 L2167.94 216.178 L2163.66 216.178 L2163.66 190.252 L2167.94 190.252 L2167.94 194.28 Q2169.47 191.942 2171.53 190.784 Q2173.61 189.627 2176.32 189.627 Q2180.79 189.627 2183.08 192.405 Q2185.37 195.159 2185.37 200.529 Z" fill="#000000" fill-rule="evenodd" fill-opacity="1" /><path clip-path="url(#clip890)" d="M2193.71 180.159 L2197.99 180.159 L2197.99 201.432 L2210.7 190.252 L2216.14 190.252 L2202.39 202.381 L2216.71 216.178 L2211.16 216.178 L2197.99 203.516 L2197.99 216.178 L2193.71 216.178 L2193.71 180.159 Z" fill="#000000" fill-rule="evenodd" fill-opacity="1" /><path clip-path="url(#clip890)" d="M2241.02 212.242 L2257.34 212.242 L2257.34 216.178 L2235.4 216.178 L2235.4 212.242 Q2238.06 209.488 2242.64 204.858 Q2247.25 200.205 2248.43 198.863 Q2250.67 196.34 2251.55 194.604 Q2252.46 192.844 2252.46 191.155 Q2252.46 188.4 2250.51 186.664 Q2248.59 184.928 2245.49 184.928 Q2243.29 184.928 2240.84 185.692 Q2238.4 186.455 2235.63 188.006 L2235.63 183.284 Q2238.45 182.15 2240.9 181.571 Q2243.36 180.993 2245.4 180.993 Q2250.77 180.993 2253.96 183.678 Q2257.15 186.363 2257.15 190.854 Q2257.15 192.983 2256.34 194.905 Q2255.56 196.803 2253.45 199.395 Q2252.87 200.067 2249.77 203.284 Q2246.67 206.479 2241.02 212.242 Z" fill="#000000" fill-rule="evenodd" fill-opacity="1" /><polyline clip-path="url(#clip890)" style="stroke:#3da44d; stroke-linecap:round; stroke-linejoin:round; stroke-width:4; stroke-opacity:1; fill:none" points="1951.79,250.738 2091.78,250.738 "/>
<path clip-path="url(#clip890)" d="M2130.3 246.073 Q2129.59 245.657 2128.73 245.471 Q2127.9 245.263 2126.88 245.263 Q2123.27 245.263 2121.32 247.624 Q2119.4 249.962 2119.4 254.36 L2119.4 268.018 L2115.12 268.018 L2115.12 242.092 L2119.4 242.092 L2119.4 246.12 Q2120.74 243.758 2122.9 242.624 Q2125.05 241.467 2128.13 241.467 Q2128.57 241.467 2129.1 241.536 Q2129.63 241.583 2130.28 241.698 L2130.3 246.073 Z" fill="#000000" fill-rule="evenodd" fill-opacity="1" /><path clip-path="url(#clip890)" d="M2146.55 254.985 Q2141.39 254.985 2139.4 256.166 Q2137.41 257.346 2137.41 260.194 Q2137.41 262.462 2138.89 263.805 Q2140.4 265.124 2142.97 265.124 Q2146.51 265.124 2148.64 262.624 Q2150.79 260.101 2150.79 255.934 L2150.79 254.985 L2146.55 254.985 M2155.05 253.226 L2155.05 268.018 L2150.79 268.018 L2150.79 264.082 Q2149.33 266.443 2147.16 267.578 Q2144.98 268.689 2141.83 268.689 Q2137.85 268.689 2135.49 266.467 Q2133.15 264.221 2133.15 260.471 Q2133.15 256.096 2136.07 253.874 Q2139.01 251.652 2144.82 251.652 L2150.79 251.652 L2150.79 251.235 Q2150.79 248.295 2148.84 246.698 Q2146.92 245.078 2143.43 245.078 Q2141.21 245.078 2139.1 245.61 Q2136.99 246.143 2135.05 247.207 L2135.05 243.272 Q2137.39 242.37 2139.59 241.93 Q2141.78 241.467 2143.87 241.467 Q2149.49 241.467 2152.27 244.383 Q2155.05 247.3 2155.05 253.226 Z" fill="#000000" fill-rule="evenodd" fill-opacity="1" /><path clip-path="url(#clip890)" d="M2185.37 252.369 L2185.37 268.018 L2181.11 268.018 L2181.11 252.508 Q2181.11 248.828 2179.68 246.999 Q2178.24 245.17 2175.37 245.17 Q2171.92 245.17 2169.93 247.37 Q2167.94 249.569 2167.94 253.365 L2167.94 268.018 L2163.66 268.018 L2163.66 242.092 L2167.94 242.092 L2167.94 246.12 Q2169.47 243.782 2171.53 242.624 Q2173.61 241.467 2176.32 241.467 Q2180.79 241.467 2183.08 244.245 Q2185.37 246.999 2185.37 252.369 Z" fill="#000000" fill-rule="evenodd" fill-opacity="1" /><path clip-path="url(#clip890)" d="M2193.71 231.999 L2197.99 231.999 L2197.99 253.272 L2210.7 242.092 L2216.14 242.092 L2202.39 254.221 L2216.71 268.018 L2211.16 268.018 L2197.99 255.356 L2197.99 268.018 L2193.71 268.018 L2193.71 231.999 Z" fill="#000000" fill-rule="evenodd" fill-opacity="1" /><path clip-path="url(#clip890)" d="M2251.16 249.383 Q2254.52 250.101 2256.39 252.369 Q2258.29 254.638 2258.29 257.971 Q2258.29 263.087 2254.77 265.888 Q2251.25 268.689 2244.77 268.689 Q2242.59 268.689 2240.28 268.249 Q2237.99 267.832 2235.53 266.976 L2235.53 262.462 Q2237.48 263.596 2239.79 264.175 Q2242.11 264.754 2244.63 264.754 Q2249.03 264.754 2251.32 263.018 Q2253.64 261.281 2253.64 257.971 Q2253.64 254.916 2251.48 253.203 Q2249.35 251.467 2245.53 251.467 L2241.51 251.467 L2241.51 247.624 L2245.72 247.624 Q2249.17 247.624 2251 246.258 Q2252.83 244.87 2252.83 242.277 Q2252.83 239.615 2250.93 238.203 Q2249.05 236.768 2245.53 236.768 Q2243.61 236.768 2241.41 237.184 Q2239.21 237.601 2236.58 238.481 L2236.58 234.314 Q2239.24 233.573 2241.55 233.203 Q2243.89 232.833 2245.95 232.833 Q2251.27 232.833 2254.38 235.263 Q2257.48 237.67 2257.48 241.791 Q2257.48 244.661 2255.83 246.652 Q2254.19 248.62 2251.16 249.383 Z" fill="#000000" fill-rule="evenodd" fill-opacity="1" /><polyline clip-path="url(#clip890)" style="stroke:#c271d2; stroke-linecap:round; stroke-linejoin:round; stroke-width:4; stroke-opacity:1; fill:none" points="1951.79,302.578 2091.78,302.578 "/>
<path clip-path="url(#clip890)" d="M2130.3 297.913 Q2129.59 297.497 2128.73 297.311 Q2127.9 297.103 2126.88 297.103 Q2123.27 297.103 2121.32 299.464 Q2119.4 301.802 2119.4 306.2 L2119.4 319.858 L2115.12 319.858 L2115.12 293.932 L2119.4 293.932 L2119.4 297.96 Q2120.74 295.598 2122.9 294.464 Q2125.05 293.307 2128.13 293.307 Q2128.57 293.307 2129.1 293.376 Q2129.63 293.423 2130.28 293.538 L2130.3 297.913 Z" fill="#000000" fill-rule="evenodd" fill-opacity="1" /><path clip-path="url(#clip890)" d="M2146.55 306.825 Q2141.39 306.825 2139.4 308.006 Q2137.41 309.186 2137.41 312.034 Q2137.41 314.302 2138.89 315.645 Q2140.4 316.964 2142.97 316.964 Q2146.51 316.964 2148.64 314.464 Q2150.79 311.941 2150.79 307.774 L2150.79 306.825 L2146.55 306.825 M2155.05 305.066 L2155.05 319.858 L2150.79 319.858 L2150.79 315.922 Q2149.33 318.283 2147.16 319.418 Q2144.98 320.529 2141.83 320.529 Q2137.85 320.529 2135.49 318.307 Q2133.15 316.061 2133.15 312.311 Q2133.15 307.936 2136.07 305.714 Q2139.01 303.492 2144.82 303.492 L2150.79 303.492 L2150.79 303.075 Q2150.79 300.135 2148.84 298.538 Q2146.92 296.918 2143.43 296.918 Q2141.21 296.918 2139.1 297.45 Q2136.99 297.983 2135.05 299.047 L2135.05 295.112 Q2137.39 294.21 2139.59 293.77 Q2141.78 293.307 2143.87 293.307 Q2149.49 293.307 2152.27 296.223 Q2155.05 299.14 2155.05 305.066 Z" fill="#000000" fill-rule="evenodd" fill-opacity="1" /><path clip-path="url(#clip890)" d="M2185.37 304.209 L2185.37 319.858 L2181.11 319.858 L2181.11 304.348 Q2181.11 300.668 2179.68 298.839 Q2178.24 297.01 2175.37 297.01 Q2171.92 297.01 2169.93 299.21 Q2167.94 301.409 2167.94 305.205 L2167.94 319.858 L2163.66 319.858 L2163.66 293.932 L2167.94 293.932 L2167.94 297.96 Q2169.47 295.622 2171.53 294.464 Q2173.61 293.307 2176.32 293.307 Q2180.79 293.307 2183.08 296.085 Q2185.37 298.839 2185.37 304.209 Z" fill="#000000" fill-rule="evenodd" fill-opacity="1" /><path clip-path="url(#clip890)" d="M2193.71 283.839 L2197.99 283.839 L2197.99 305.112 L2210.7 293.932 L2216.14 293.932 L2202.39 306.061 L2216.71 319.858 L2211.16 319.858 L2197.99 307.196 L2197.99 319.858 L2193.71 319.858 L2193.71 283.839 Z" fill="#000000" fill-rule="evenodd" fill-opacity="1" /><path clip-path="url(#clip890)" d="M2249.84 289.372 L2238.03 307.821 L2249.84 307.821 L2249.84 289.372 M2248.61 285.298 L2254.49 285.298 L2254.49 307.821 L2259.42 307.821 L2259.42 311.709 L2254.49 311.709 L2254.49 319.858 L2249.84 319.858 L2249.84 311.709 L2234.24 311.709 L2234.24 307.196 L2248.61 285.298 Z" fill="#000000" fill-rule="evenodd" fill-opacity="1" /><polyline clip-path="url(#clip890)" style="stroke:#ac8d18; stroke-linecap:round; stroke-linejoin:round; stroke-width:4; stroke-opacity:1; fill:none" points="1951.79,354.418 2091.78,354.418 "/>
<path clip-path="url(#clip890)" d="M2130.3 349.753 Q2129.59 349.337 2128.73 349.151 Q2127.9 348.943 2126.88 348.943 Q2123.27 348.943 2121.32 351.304 Q2119.4 353.642 2119.4 358.04 L2119.4 371.698 L2115.12 371.698 L2115.12 345.772 L2119.4 345.772 L2119.4 349.8 Q2120.74 347.438 2122.9 346.304 Q2125.05 345.147 2128.13 345.147 Q2128.57 345.147 2129.1 345.216 Q2129.63 345.263 2130.28 345.378 L2130.3 349.753 Z" fill="#000000" fill-rule="evenodd" fill-opacity="1" /><path clip-path="url(#clip890)" d="M2146.55 358.665 Q2141.39 358.665 2139.4 359.846 Q2137.41 361.026 2137.41 363.874 Q2137.41 366.142 2138.89 367.485 Q2140.4 368.804 2142.97 368.804 Q2146.51 368.804 2148.64 366.304 Q2150.79 363.781 2150.79 359.614 L2150.79 358.665 L2146.55 358.665 M2155.05 356.906 L2155.05 371.698 L2150.79 371.698 L2150.79 367.762 Q2149.33 370.123 2147.16 371.258 Q2144.98 372.369 2141.83 372.369 Q2137.85 372.369 2135.49 370.147 Q2133.15 367.901 2133.15 364.151 Q2133.15 359.776 2136.07 357.554 Q2139.01 355.332 2144.82 355.332 L2150.79 355.332 L2150.79 354.915 Q2150.79 351.975 2148.84 350.378 Q2146.92 348.758 2143.43 348.758 Q2141.21 348.758 2139.1 349.29 Q2136.99 349.823 2135.05 350.887 L2135.05 346.952 Q2137.39 346.05 2139.59 345.61 Q2141.78 345.147 2143.87 345.147 Q2149.49 345.147 2152.27 348.063 Q2155.05 350.98 2155.05 356.906 Z" fill="#000000" fill-rule="evenodd" fill-opacity="1" /><path clip-path="url(#clip890)" d="M2185.37 356.049 L2185.37 371.698 L2181.11 371.698 L2181.11 356.188 Q2181.11 352.508 2179.68 350.679 Q2178.24 348.85 2175.37 348.85 Q2171.92 348.85 2169.93 351.05 Q2167.94 353.249 2167.94 357.045 L2167.94 371.698 L2163.66 371.698 L2163.66 345.772 L2167.94 345.772 L2167.94 349.8 Q2169.47 347.462 2171.53 346.304 Q2173.61 345.147 2176.32 345.147 Q2180.79 345.147 2183.08 347.925 Q2185.37 350.679 2185.37 356.049 Z" fill="#000000" fill-rule="evenodd" fill-opacity="1" /><path clip-path="url(#clip890)" d="M2193.71 335.679 L2197.99 335.679 L2197.99 356.952 L2210.7 345.772 L2216.14 345.772 L2202.39 357.901 L2216.71 371.698 L2211.16 371.698 L2197.99 359.036 L2197.99 371.698 L2193.71 371.698 L2193.71 335.679 Z" fill="#000000" fill-rule="evenodd" fill-opacity="1" /><path clip-path="url(#clip890)" d="M2237.04 337.138 L2255.4 337.138 L2255.4 341.073 L2241.32 341.073 L2241.32 349.545 Q2242.34 349.198 2243.36 349.036 Q2244.38 348.85 2245.4 348.85 Q2251.18 348.85 2254.56 352.022 Q2257.94 355.193 2257.94 360.61 Q2257.94 366.188 2254.47 369.29 Q2251 372.369 2244.68 372.369 Q2242.5 372.369 2240.23 371.998 Q2237.99 371.628 2235.58 370.887 L2235.58 366.188 Q2237.66 367.323 2239.89 367.878 Q2242.11 368.434 2244.59 368.434 Q2248.59 368.434 2250.93 366.327 Q2253.27 364.221 2253.27 360.61 Q2253.27 356.999 2250.93 354.892 Q2248.59 352.786 2244.59 352.786 Q2242.71 352.786 2240.84 353.202 Q2238.98 353.619 2237.04 354.499 L2237.04 337.138 Z" fill="#000000" fill-rule="evenodd" fill-opacity="1" /></svg>
