<?xml version="1.0" encoding="utf-8"?>
<svg xmlns="http://www.w3.org/2000/svg" xmlns:xlink="http://www.w3.org/1999/xlink" width="600" height="400" viewBox="0 0 2400 1600">
<defs>
  <clipPath id="clip010">
    <rect x="0" y="0" width="2400" height="1600"/>
  </clipPath>
</defs>
<path clip-path="url(#clip010)" d="M0 1600 L2400 1600 L2400 0 L0 0  Z" fill="#ffffff" fill-rule="evenodd" fill-opacity="1"/>
<defs>
  <clipPath id="clip011">
    <rect x="480" y="0" width="1681" height="1600"/>
  </clipPath>
</defs>
<defs>
  <clipPath id="clip012">
    <rect x="252" y="47" width="2101" height="1377"/>
  </clipPath>
</defs>
<path clip-path="url(#clip010)" d="M252.764 1486.45 L2352.76 1486.45 L2352.76 47.2441 L252.764 47.2441  Z" fill="#ffffff" fill-rule="evenodd" fill-opacity="1"/>
<defs>
  <clipPath id="clip013">
    <rect x="252" y="47" width="2101" height="1440"/>
  </clipPath>
</defs>
<polyline clip-path="url(#clip013)" style="stroke:#000000; stroke-linecap:round; stroke-linejoin:round; stroke-width:2; stroke-opacity:0.1; fill:none" points="309.671,1486.45 309.671,47.2441 "/>
<polyline clip-path="url(#clip013)" style="stroke:#000000; stroke-linecap:round; stroke-linejoin:round; stroke-width:2; stroke-opacity:0.1; fill:none" points="815.06,1486.45 815.06,47.2441 "/>
<polyline clip-path="url(#clip013)" style="stroke:#000000; stroke-linecap:round; stroke-linejoin:round; stroke-width:2; stroke-opacity:0.1; fill:none" points="1320.45,1486.45 1320.45,47.2441 "/>
<polyline clip-path="url(#clip013)" style="stroke:#000000; stroke-linecap:round; stroke-linejoin:round; stroke-width:2; stroke-opacity:0.1; fill:none" points="1825.84,1486.45 1825.84,47.2441 "/>
<polyline clip-path="url(#clip013)" style="stroke:#000000; stroke-linecap:round; stroke-linejoin:round; stroke-width:2; stroke-opacity:0.1; fill:none" points="2331.23,1486.45 2331.23,47.2441 "/>
<polyline clip-path="url(#clip010)" style="stroke:#000000; stroke-linecap:round; stroke-linejoin:round; stroke-width:4; stroke-opacity:1; fill:none" points="252.764,1486.45 2352.76,1486.45 "/>
<polyline clip-path="url(#clip010)" style="stroke:#000000; stroke-linecap:round; stroke-linejoin:round; stroke-width:4; stroke-opacity:1; fill:none" points="309.671,1486.45 309.671,1467.55 "/>
<polyline clip-path="url(#clip010)" style="stroke:#000000; stroke-linecap:round; stroke-linejoin:round; stroke-width:4; stroke-opacity:1; fill:none" points="815.06,1486.45 815.06,1467.55 "/>
<polyline clip-path="url(#clip010)" style="stroke:#000000; stroke-linecap:round; stroke-linejoin:round; stroke-width:4; stroke-opacity:1; fill:none" points="1320.45,1486.45 1320.45,1467.55 "/>
<polyline clip-path="url(#clip010)" style="stroke:#000000; stroke-linecap:round; stroke-linejoin:round; stroke-width:4; stroke-opacity:1; fill:none" points="1825.84,1486.45 1825.84,1467.55 "/>
<polyline clip-path="url(#clip010)" style="stroke:#000000; stroke-linecap:round; stroke-linejoin:round; stroke-width:4; stroke-opacity:1; fill:none" points="2331.23,1486.45 2331.23,1467.55 "/>
<path clip-path="url(#clip010)" d="M309.671 1517.37 Q306.06 1517.37 304.231 1520.93 Q302.425 1524.47 302.425 1531.6 Q302.425 1538.71 304.231 1542.27 Q306.06 1545.82 309.671 1545.82 Q313.305 1545.82 315.111 1542.27 Q316.939 1538.71 316.939 1531.6 Q316.939 1524.47 315.111 1520.93 Q313.305 1517.37 309.671 1517.37 M309.671 1513.66 Q315.481 1513.66 318.536 1518.27 Q321.615 1522.85 321.615 1531.6 Q321.615 1540.33 318.536 1544.94 Q315.481 1549.52 309.671 1549.52 Q303.861 1549.52 300.782 1544.94 Q297.726 1540.33 297.726 1531.6 Q297.726 1522.85 300.782 1518.27 Q303.861 1513.66 309.671 1513.66 Z" fill="#000000" fill-rule="evenodd" fill-opacity="1" /><path clip-path="url(#clip010)" d="M778.752 1544.91 L795.071 1544.91 L795.071 1548.85 L773.127 1548.85 L773.127 1544.91 Q775.789 1542.16 780.372 1537.53 Q784.979 1532.88 786.159 1531.53 Q788.405 1529.01 789.284 1527.27 Q790.187 1525.51 790.187 1523.82 Q790.187 1521.07 788.243 1519.33 Q786.321 1517.6 783.22 1517.6 Q781.02 1517.6 778.567 1518.36 Q776.136 1519.13 773.358 1520.68 L773.358 1515.95 Q776.183 1514.82 778.636 1514.24 Q781.09 1513.66 783.127 1513.66 Q788.497 1513.66 791.692 1516.35 Q794.886 1519.03 794.886 1523.52 Q794.886 1525.65 794.076 1527.57 Q793.289 1529.47 791.182 1532.07 Q790.604 1532.74 787.502 1535.95 Q784.4 1539.15 778.752 1544.91 Z" fill="#000000" fill-rule="evenodd" fill-opacity="1" /><path clip-path="url(#clip010)" d="M814.886 1517.37 Q811.275 1517.37 809.446 1520.93 Q807.641 1524.47 807.641 1531.6 Q807.641 1538.71 809.446 1542.27 Q811.275 1545.82 814.886 1545.82 Q818.52 1545.82 820.326 1542.27 Q822.155 1538.71 822.155 1531.6 Q822.155 1524.47 820.326 1520.93 Q818.52 1517.37 814.886 1517.37 M814.886 1513.66 Q820.696 1513.66 823.752 1518.27 Q826.83 1522.85 826.83 1531.6 Q826.83 1540.33 823.752 1544.94 Q820.696 1549.52 814.886 1549.52 Q809.076 1549.52 805.997 1544.94 Q802.942 1540.33 802.942 1531.6 Q802.942 1522.85 805.997 1518.27 Q809.076 1513.66 814.886 1513.66 Z" fill="#000000" fill-rule="evenodd" fill-opacity="1" /><path clip-path="url(#clip010)" d="M845.048 1517.37 Q841.437 1517.37 839.608 1520.93 Q837.803 1524.47 837.803 1531.6 Q837.803 1538.71 839.608 1542.27 Q841.437 1545.82 845.048 1545.82 Q848.682 1545.82 850.488 1542.27 Q852.316 1538.71 852.316 1531.6 Q852.316 1524.47 850.488 1520.93 Q848.682 1517.37 845.048 1517.37 M845.048 1513.66 Q850.858 1513.66 853.914 1518.27 Q856.992 1522.85 856.992 1531.6 Q856.992 1540.33 853.914 1544.94 Q850.858 1549.52 845.048 1549.52 Q839.238 1549.52 836.159 1544.94 Q833.104 1540.33 833.104 1531.6 Q833.104 1522.85 836.159 1518.27 Q839.238 1513.66 845.048 1513.66 Z" fill="#000000" fill-rule="evenodd" fill-opacity="1" /><path clip-path="url(#clip010)" d="M1293.54 1518.36 L1281.73 1536.81 L1293.54 1536.81 L1293.54 1518.36 M1292.31 1514.29 L1298.19 1514.29 L1298.19 1536.81 L1303.12 1536.81 L1303.12 1540.7 L1298.19 1540.7 L1298.19 1548.85 L1293.54 1548.85 L1293.54 1540.7 L1277.94 1540.7 L1277.94 1536.19 L1292.31 1514.29 Z" fill="#000000" fill-rule="evenodd" fill-opacity="1" /><path clip-path="url(#clip010)" d="M1320.85 1517.37 Q1317.24 1517.37 1315.41 1520.93 Q1313.61 1524.47 1313.61 1531.6 Q1313.61 1538.71 1315.41 1542.27 Q1317.24 1545.82 1320.85 1545.82 Q1324.49 1545.82 1326.29 1542.27 Q1328.12 1538.71 1328.12 1531.6 Q1328.12 1524.47 1326.29 1520.93 Q1324.49 1517.37 1320.85 1517.37 M1320.85 1513.66 Q1326.66 1513.66 1329.72 1518.27 Q1332.8 1522.85 1332.8 1531.6 Q1332.8 1540.33 1329.72 1544.94 Q1326.66 1549.52 1320.85 1549.52 Q1315.04 1549.52 1311.96 1544.94 Q1308.91 1540.33 1308.91 1531.6 Q1308.91 1522.85 1311.96 1518.27 Q1315.04 1513.66 1320.85 1513.66 Z" fill="#000000" fill-rule="evenodd" fill-opacity="1" /><path clip-path="url(#clip010)" d="M1351.02 1517.37 Q1347.4 1517.37 1345.58 1520.93 Q1343.77 1524.47 1343.77 1531.6 Q1343.77 1538.71 1345.58 1542.27 Q1347.4 1545.82 1351.02 1545.82 Q1354.65 1545.82 1356.46 1542.27 Q1358.28 1538.71 1358.28 1531.6 Q1358.28 1524.47 1356.46 1520.93 Q1354.65 1517.37 1351.02 1517.37 M1351.02 1513.66 Q1356.83 1513.66 1359.88 1518.27 Q1362.96 1522.85 1362.96 1531.6 Q1362.96 1540.33 1359.88 1544.94 Q1356.83 1549.52 1351.02 1549.52 Q1345.21 1549.52 1342.13 1544.94 Q1339.07 1540.33 1339.07 1531.6 Q1339.07 1522.85 1342.13 1518.27 Q1345.21 1513.66 1351.02 1513.66 Z" fill="#000000" fill-rule="evenodd" fill-opacity="1" /><path clip-path="url(#clip010)" d="M1796.16 1529.7 Q1793.01 1529.7 1791.16 1531.86 Q1789.33 1534.01 1789.33 1537.76 Q1789.33 1541.49 1791.16 1543.66 Q1793.01 1545.82 1796.16 1545.82 Q1799.31 1545.82 1801.14 1543.66 Q1802.99 1541.49 1802.99 1537.76 Q1802.99 1534.01 1801.14 1531.86 Q1799.31 1529.7 1796.16 1529.7 M1805.44 1515.05 L1805.44 1519.31 Q1803.68 1518.48 1801.88 1518.04 Q1800.1 1517.6 1798.34 1517.6 Q1793.71 1517.6 1791.25 1520.72 Q1788.82 1523.85 1788.48 1530.17 Q1789.84 1528.15 1791.9 1527.09 Q1793.96 1526 1796.44 1526 Q1801.65 1526 1804.66 1529.17 Q1807.69 1532.32 1807.69 1537.76 Q1807.69 1543.08 1804.54 1546.3 Q1801.39 1549.52 1796.16 1549.52 Q1790.17 1549.52 1787 1544.94 Q1783.82 1540.33 1783.82 1531.6 Q1783.82 1523.41 1787.71 1518.55 Q1791.6 1513.66 1798.15 1513.66 Q1799.91 1513.66 1801.69 1514.01 Q1803.5 1514.36 1805.44 1515.05 Z" fill="#000000" fill-rule="evenodd" fill-opacity="1" /><path clip-path="url(#clip010)" d="M1825.74 1517.37 Q1822.13 1517.37 1820.31 1520.93 Q1818.5 1524.47 1818.5 1531.6 Q1818.5 1538.71 1820.31 1542.27 Q1822.13 1545.82 1825.74 1545.82 Q1829.38 1545.82 1831.18 1542.27 Q1833.01 1538.71 1833.01 1531.6 Q1833.01 1524.47 1831.18 1520.93 Q1829.38 1517.37 1825.74 1517.37 M1825.74 1513.66 Q1831.56 1513.66 1834.61 1518.27 Q1837.69 1522.85 1837.69 1531.6 Q1837.69 1540.33 1834.61 1544.94 Q1831.56 1549.52 1825.74 1549.52 Q1819.93 1549.52 1816.86 1544.94 Q1813.8 1540.33 1813.8 1531.6 Q1813.8 1522.85 1816.86 1518.27 Q1819.93 1513.66 1825.74 1513.66 Z" fill="#000000" fill-rule="evenodd" fill-opacity="1" /><path clip-path="url(#clip010)" d="M1855.91 1517.37 Q1852.3 1517.37 1850.47 1520.93 Q1848.66 1524.47 1848.66 1531.6 Q1848.66 1538.71 1850.47 1542.27 Q1852.3 1545.82 1855.91 1545.82 Q1859.54 1545.82 1861.35 1542.27 Q1863.18 1538.71 1863.18 1531.6 Q1863.18 1524.47 1861.35 1520.93 Q1859.54 1517.37 1855.91 1517.37 M1855.91 1513.66 Q1861.72 1513.66 1864.77 1518.27 Q1867.85 1522.85 1867.85 1531.6 Q1867.85 1540.33 1864.77 1544.94 Q1861.72 1549.52 1855.91 1549.52 Q1850.1 1549.52 1847.02 1544.94 Q1843.96 1540.33 1843.96 1531.6 Q1843.96 1522.85 1847.02 1518.27 Q1850.1 1513.66 1855.91 1513.66 Z" fill="#000000" fill-rule="evenodd" fill-opacity="1" /><path clip-path="url(#clip010)" d="M2301.02 1532.44 Q2297.68 1532.44 2295.76 1534.22 Q2293.87 1536 2293.87 1539.13 Q2293.87 1542.25 2295.76 1544.03 Q2297.68 1545.82 2301.02 1545.82 Q2304.35 1545.82 2306.27 1544.03 Q2308.19 1542.23 2308.19 1539.13 Q2308.19 1536 2306.27 1534.22 Q2304.37 1532.44 2301.02 1532.44 M2296.34 1530.45 Q2293.33 1529.7 2291.64 1527.64 Q2289.98 1525.58 2289.98 1522.62 Q2289.98 1518.48 2292.92 1516.07 Q2295.88 1513.66 2301.02 1513.66 Q2306.18 1513.66 2309.12 1516.07 Q2312.06 1518.48 2312.06 1522.62 Q2312.06 1525.58 2310.37 1527.64 Q2308.7 1529.7 2305.72 1530.45 Q2309.1 1531.23 2310.97 1533.52 Q2312.87 1535.82 2312.87 1539.13 Q2312.87 1544.15 2309.79 1546.83 Q2306.74 1549.52 2301.02 1549.52 Q2295.3 1549.52 2292.22 1546.83 Q2289.17 1544.15 2289.17 1539.13 Q2289.17 1535.82 2291.06 1533.52 Q2292.96 1531.23 2296.34 1530.45 M2294.63 1523.06 Q2294.63 1525.75 2296.3 1527.25 Q2297.99 1528.76 2301.02 1528.76 Q2304.03 1528.76 2305.72 1527.25 Q2307.43 1525.75 2307.43 1523.06 Q2307.43 1520.38 2305.72 1518.87 Q2304.03 1517.37 2301.02 1517.37 Q2297.99 1517.37 2296.3 1518.87 Q2294.63 1520.38 2294.63 1523.06 Z" fill="#000000" fill-rule="evenodd" fill-opacity="1" /><path clip-path="url(#clip010)" d="M2331.18 1517.37 Q2327.57 1517.37 2325.74 1520.93 Q2323.93 1524.47 2323.93 1531.6 Q2323.93 1538.71 2325.74 1542.27 Q2327.57 1545.82 2331.18 1545.82 Q2334.81 1545.82 2336.62 1542.27 Q2338.45 1538.71 2338.45 1531.6 Q2338.45 1524.47 2336.62 1520.93 Q2334.81 1517.37 2331.18 1517.37 M2331.18 1513.66 Q2336.99 1513.66 2340.05 1518.27 Q2343.12 1522.85 2343.12 1531.6 Q2343.12 1540.33 2340.05 1544.94 Q2336.99 1549.52 2331.18 1549.52 Q2325.37 1549.52 2322.29 1544.94 Q2319.24 1540.33 2319.24 1531.6 Q2319.24 1522.85 2322.29 1518.27 Q2325.37 1513.66 2331.18 1513.66 Z" fill="#000000" fill-rule="evenodd" fill-opacity="1" /><path clip-path="url(#clip010)" d="M2361.34 1517.37 Q2357.73 1517.37 2355.9 1520.93 Q2354.1 1524.47 2354.1 1531.6 Q2354.1 1538.71 2355.9 1542.27 Q2357.73 1545.82 2361.34 1545.82 Q2364.98 1545.82 2366.78 1542.27 Q2368.61 1538.71 2368.61 1531.6 Q2368.61 1524.47 2366.78 1520.93 Q2364.98 1517.37 2361.34 1517.37 M2361.34 1513.66 Q2367.15 1513.66 2370.21 1518.27 Q2373.29 1522.85 2373.29 1531.6 Q2373.29 1540.33 2370.21 1544.94 Q2367.15 1549.52 2361.34 1549.52 Q2355.53 1549.52 2352.45 1544.94 Q2349.4 1540.33 2349.4 1531.6 Q2349.4 1522.85 2352.45 1518.27 Q2355.53 1513.66 2361.34 1513.66 Z" fill="#000000" fill-rule="evenodd" fill-opacity="1" /><polyline clip-path="url(#clip013)" style="stroke:#000000; stroke-linecap:round; stroke-linejoin:round; stroke-width:2; stroke-opacity:0.1; fill:none" points="252.764,1486.45 2352.76,1486.45 "/>
<polyline clip-path="url(#clip013)" style="stroke:#000000; stroke-linecap:round; stroke-linejoin:round; stroke-width:2; stroke-opacity:0.1; fill:none" points="252.764,1126.65 2352.76,1126.65 "/>
<polyline clip-path="url(#clip013)" style="stroke:#000000; stroke-linecap:round; stroke-linejoin:round; stroke-width:2; stroke-opacity:0.1; fill:none" points="252.764,766.846 2352.76,766.846 "/>
<polyline clip-path="url(#clip013)" style="stroke:#000000; stroke-linecap:round; stroke-linejoin:round; stroke-width:2; stroke-opacity:0.1; fill:none" points="252.764,407.045 2352.76,407.045 "/>
<polyline clip-path="url(#clip013)" style="stroke:#000000; stroke-linecap:round; stroke-linejoin:round; stroke-width:2; stroke-opacity:0.1; fill:none" points="252.764,47.2441 2352.76,47.2441 "/>
<polyline clip-path="url(#clip010)" style="stroke:#000000; stroke-linecap:round; stroke-linejoin:round; stroke-width:4; stroke-opacity:1; fill:none" points="252.764,1486.45 252.764,47.2441 "/>
<polyline clip-path="url(#clip010)" style="stroke:#000000; stroke-linecap:round; stroke-linejoin:round; stroke-width:4; stroke-opacity:1; fill:none" points="252.764,1486.45 271.662,1486.45 "/>
<polyline clip-path="url(#clip010)" style="stroke:#000000; stroke-linecap:round; stroke-linejoin:round; stroke-width:4; stroke-opacity:1; fill:none" points="252.764,1126.65 271.662,1126.65 "/>
<polyline clip-path="url(#clip010)" style="stroke:#000000; stroke-linecap:round; stroke-linejoin:round; stroke-width:4; stroke-opacity:1; fill:none" points="252.764,766.846 271.662,766.846 "/>
<polyline clip-path="url(#clip010)" style="stroke:#000000; stroke-linecap:round; stroke-linejoin:round; stroke-width:4; stroke-opacity:1; fill:none" points="252.764,407.045 271.662,407.045 "/>
<polyline clip-path="url(#clip010)" style="stroke:#000000; stroke-linecap:round; stroke-linejoin:round; stroke-width:4; stroke-opacity:1; fill:none" points="252.764,47.2441 271.662,47.2441 "/>
<path clip-path="url(#clip010)" d="M114.931 1506.24 L122.57 1506.24 L122.57 1479.87 L114.26 1481.54 L114.26 1477.28 L122.524 1475.62 L127.2 1475.62 L127.2 1506.24 L134.839 1506.24 L134.839 1510.18 L114.931 1510.18 L114.931 1506.24 Z" fill="#000000" fill-rule="evenodd" fill-opacity="1" /><path clip-path="url(#clip010)" d="M154.283 1478.69 Q150.672 1478.69 148.843 1482.26 Q147.038 1485.8 147.038 1492.93 Q147.038 1500.04 148.843 1503.6 Q150.672 1507.14 154.283 1507.14 Q157.917 1507.14 159.723 1503.6 Q161.552 1500.04 161.552 1492.93 Q161.552 1485.8 159.723 1482.26 Q157.917 1478.69 154.283 1478.69 M154.283 1474.99 Q160.093 1474.99 163.149 1479.6 Q166.227 1484.18 166.227 1492.93 Q166.227 1501.66 163.149 1506.26 Q160.093 1510.85 154.283 1510.85 Q148.473 1510.85 145.394 1506.26 Q142.339 1501.66 142.339 1492.93 Q142.339 1484.18 145.394 1479.6 Q148.473 1474.99 154.283 1474.99 Z" fill="#000000" fill-rule="evenodd" fill-opacity="1" /><path clip-path="url(#clip010)" d="M166.227 1469.09 L190.339 1469.09 L190.339 1472.29 L166.227 1472.29 L166.227 1469.09 Z" fill="#000000" fill-rule="evenodd" fill-opacity="1" /><path clip-path="url(#clip010)" d="M208.978 1458 L199.386 1472.99 L208.978 1472.99 L208.978 1458 M207.981 1454.69 L212.758 1454.69 L212.758 1472.99 L216.764 1472.99 L216.764 1476.14 L212.758 1476.14 L212.758 1482.77 L208.978 1482.77 L208.978 1476.14 L196.301 1476.14 L196.301 1472.48 L207.981 1454.69 Z" fill="#000000" fill-rule="evenodd" fill-opacity="1" /><path clip-path="url(#clip010)" d="M115.853 1146.44 L123.492 1146.44 L123.492 1120.07 L115.182 1121.74 L115.182 1117.48 L123.446 1115.81 L128.121 1115.81 L128.121 1146.44 L135.76 1146.44 L135.76 1150.37 L115.853 1150.37 L115.853 1146.44 Z" fill="#000000" fill-rule="evenodd" fill-opacity="1" /><path clip-path="url(#clip010)" d="M155.205 1118.89 Q151.594 1118.89 149.765 1122.46 Q147.959 1126 147.959 1133.13 Q147.959 1140.24 149.765 1143.8 Q151.594 1147.34 155.205 1147.34 Q158.839 1147.34 160.644 1143.8 Q162.473 1140.24 162.473 1133.13 Q162.473 1126 160.644 1122.46 Q158.839 1118.89 155.205 1118.89 M155.205 1115.19 Q161.015 1115.19 164.07 1119.8 Q167.149 1124.38 167.149 1133.13 Q167.149 1141.86 164.07 1146.46 Q161.015 1151.05 155.205 1151.05 Q149.395 1151.05 146.316 1146.46 Q143.26 1141.86 143.26 1133.13 Q143.26 1124.38 146.316 1119.8 Q149.395 1115.19 155.205 1115.19 Z" fill="#000000" fill-rule="evenodd" fill-opacity="1" /><path clip-path="url(#clip010)" d="M167.149 1109.29 L191.261 1109.29 L191.261 1112.49 L167.149 1112.49 L167.149 1109.29 Z" fill="#000000" fill-rule="evenodd" fill-opacity="1" /><path clip-path="url(#clip010)" d="M210.971 1107.82 Q213.698 1108.41 215.222 1110.25 Q216.764 1112.09 216.764 1114.8 Q216.764 1118.96 213.905 1121.23 Q211.046 1123.51 205.78 1123.51 Q204.012 1123.51 202.132 1123.15 Q200.27 1122.81 198.276 1122.12 L198.276 1118.45 Q199.856 1119.37 201.737 1119.84 Q203.617 1120.31 205.667 1120.31 Q209.241 1120.31 211.103 1118.9 Q212.984 1117.49 212.984 1114.8 Q212.984 1112.32 211.234 1110.93 Q209.504 1109.52 206.401 1109.52 L203.128 1109.52 L203.128 1106.39 L206.551 1106.39 Q209.354 1106.39 210.84 1105.28 Q212.325 1104.16 212.325 1102.05 Q212.325 1099.89 210.783 1098.74 Q209.26 1097.57 206.401 1097.57 Q204.84 1097.57 203.053 1097.91 Q201.266 1098.25 199.122 1098.97 L199.122 1095.58 Q201.285 1094.98 203.166 1094.68 Q205.066 1094.38 206.739 1094.38 Q211.065 1094.38 213.585 1096.35 Q216.106 1098.31 216.106 1101.65 Q216.106 1103.99 214.77 1105.6 Q213.435 1107.2 210.971 1107.82 Z" fill="#000000" fill-rule="evenodd" fill-opacity="1" /><path clip-path="url(#clip010)" d="M116.624 786.638 L124.263 786.638 L124.263 760.273 L115.953 761.939 L115.953 757.68 L124.217 756.014 L128.893 756.014 L128.893 786.638 L136.531 786.638 L136.531 790.574 L116.624 790.574 L116.624 786.638 Z" fill="#000000" fill-rule="evenodd" fill-opacity="1" /><path clip-path="url(#clip010)" d="M155.976 759.092 Q152.365 759.092 150.536 762.657 Q148.73 766.199 148.73 773.328 Q148.73 780.435 150.536 784 Q152.365 787.541 155.976 787.541 Q159.61 787.541 161.416 784 Q163.244 780.435 163.244 773.328 Q163.244 766.199 161.416 762.657 Q159.61 759.092 155.976 759.092 M155.976 755.389 Q161.786 755.389 164.841 759.995 Q167.92 764.578 167.92 773.328 Q167.92 782.055 164.841 786.662 Q161.786 791.245 155.976 791.245 Q150.166 791.245 147.087 786.662 Q144.031 782.055 144.031 773.328 Q144.031 764.578 147.087 759.995 Q150.166 755.389 155.976 755.389 Z" fill="#000000" fill-rule="evenodd" fill-opacity="1" /><path clip-path="url(#clip010)" d="M167.92 749.49 L192.032 749.49 L192.032 752.687 L167.92 752.687 L167.92 749.49 Z" fill="#000000" fill-rule="evenodd" fill-opacity="1" /><path clip-path="url(#clip010)" d="M203.504 759.966 L216.764 759.966 L216.764 763.163 L198.934 763.163 L198.934 759.966 Q201.097 757.728 204.821 753.966 Q208.564 750.186 209.523 749.095 Q211.347 747.045 212.062 745.634 Q212.796 744.205 212.796 742.832 Q212.796 740.594 211.216 739.183 Q209.655 737.773 207.134 737.773 Q205.348 737.773 203.354 738.393 Q201.379 739.014 199.122 740.274 L199.122 736.437 Q201.417 735.516 203.41 735.046 Q205.404 734.575 207.059 734.575 Q211.423 734.575 214.018 736.757 Q216.613 738.939 216.613 742.587 Q216.613 744.318 215.955 745.879 Q215.316 747.421 213.604 749.528 Q213.134 750.073 210.614 752.687 Q208.094 755.283 203.504 759.966 Z" fill="#000000" fill-rule="evenodd" fill-opacity="1" /><path clip-path="url(#clip010)" d="M116.323 426.837 L123.962 426.837 L123.962 400.472 L115.652 402.139 L115.652 397.879 L123.916 396.213 L128.592 396.213 L128.592 426.837 L136.231 426.837 L136.231 430.773 L116.323 430.773 L116.323 426.837 Z" fill="#000000" fill-rule="evenodd" fill-opacity="1" /><path clip-path="url(#clip010)" d="M155.675 399.291 Q152.064 399.291 150.235 402.856 Q148.43 406.398 148.43 413.527 Q148.43 420.634 150.235 424.199 Q152.064 427.74 155.675 427.74 Q159.309 427.74 161.115 424.199 Q162.943 420.634 162.943 413.527 Q162.943 406.398 161.115 402.856 Q159.309 399.291 155.675 399.291 M155.675 395.588 Q161.485 395.588 164.541 400.194 Q167.619 404.777 167.619 413.527 Q167.619 422.254 164.541 426.861 Q161.485 431.444 155.675 431.444 Q149.865 431.444 146.786 426.861 Q143.73 422.254 143.73 413.527 Q143.73 404.777 146.786 400.194 Q149.865 395.588 155.675 395.588 Z" fill="#000000" fill-rule="evenodd" fill-opacity="1" /><path clip-path="url(#clip010)" d="M167.619 389.689 L191.731 389.689 L191.731 392.886 L167.619 392.886 L167.619 389.689 Z" fill="#000000" fill-rule="evenodd" fill-opacity="1" /><path clip-path="url(#clip010)" d="M200.589 400.165 L206.796 400.165 L206.796 378.743 L200.044 380.097 L200.044 376.636 L206.758 375.282 L210.557 375.282 L210.557 400.165 L216.764 400.165 L216.764 403.362 L200.589 403.362 L200.589 400.165 Z" fill="#000000" fill-rule="evenodd" fill-opacity="1" /><path clip-path="url(#clip010)" d="M146.058 67.0365 L153.697 67.0365 L153.697 40.6709 L145.387 42.3376 L145.387 38.0784 L153.651 36.4117 L158.327 36.4117 L158.327 67.0365 L165.966 67.0365 L165.966 70.9717 L146.058 70.9717 L146.058 67.0365 Z" fill="#000000" fill-rule="evenodd" fill-opacity="1" /><path clip-path="url(#clip010)" d="M185.41 39.4904 Q181.799 39.4904 179.97 43.0552 Q178.165 46.5968 178.165 53.7264 Q178.165 60.8329 179.97 64.3977 Q181.799 67.9393 185.41 67.9393 Q189.044 67.9393 190.85 64.3977 Q192.678 60.8329 192.678 53.7264 Q192.678 46.5968 190.85 43.0552 Q189.044 39.4904 185.41 39.4904 M185.41 35.7867 Q191.22 35.7867 194.276 40.3932 Q197.354 44.9765 197.354 53.7264 Q197.354 62.4532 194.276 67.0597 Q191.22 71.643 185.41 71.643 Q179.6 71.643 176.521 67.0597 Q173.466 62.4532 173.466 53.7264 Q173.466 44.9765 176.521 40.3932 Q179.6 35.7867 185.41 35.7867 Z" fill="#000000" fill-rule="evenodd" fill-opacity="1" /><path clip-path="url(#clip010)" d="M207.059 17.9827 Q204.125 17.9827 202.639 20.8791 Q201.172 23.7567 201.172 29.5495 Q201.172 35.3235 202.639 38.2199 Q204.125 41.0975 207.059 41.0975 Q210.012 41.0975 211.479 38.2199 Q212.965 35.3235 212.965 29.5495 Q212.965 23.7567 211.479 20.8791 Q210.012 17.9827 207.059 17.9827 M207.059 14.9735 Q211.78 14.9735 214.263 18.7162 Q216.764 22.4402 216.764 29.5495 Q216.764 36.64 214.263 40.3828 Q211.78 44.1067 207.059 44.1067 Q202.338 44.1067 199.837 40.3828 Q197.354 36.64 197.354 29.5495 Q197.354 22.4402 199.837 18.7162 Q202.338 14.9735 207.059 14.9735 Z" fill="#000000" fill-rule="evenodd" fill-opacity="1" /><path clip-path="url(#clip010)" d="M27.9392 788.742 Q28.6155 788.742 29.163 789.322 Q29.7105 789.87 29.7105 790.546 Q29.7105 790.932 29.0664 791.866 Q27.1985 794.539 27.1985 797.921 Q27.1985 800.948 27.9392 803.75 Q28.6799 806.552 30.1936 808.452 Q31.6751 810.32 33.6074 810.32 Q36.0229 810.32 37.4399 807.679 Q36.1839 804.942 36.1839 801.56 Q36.1839 800.465 36.2483 799.725 Q36.3127 798.952 36.4738 798.211 Q36.6348 797.47 37.0213 797.116 Q37.3755 796.729 37.9552 796.729 Q40.0164 796.729 40.0164 802.076 Q40.0164 805.554 39.0824 807.744 Q40.4673 810.546 42.6895 812.092 Q44.9117 813.637 46.8118 813.637 Q48.4543 813.637 49.646 812.736 Q50.8376 811.802 51.4173 810.288 Q51.997 808.742 52.2546 807.228 Q52.4801 805.683 52.4801 803.976 Q52.4801 801.174 52.1258 799.209 Q51.7393 797.212 51.0308 796.117 Q50.3223 794.99 49.8392 794.539 Q49.3239 794.056 48.5187 793.573 Q48.0679 793.283 48.0679 792.897 Q48.0679 792.607 48.2611 792.414 Q48.4221 792.188 48.712 792.188 Q49.0662 792.188 49.807 792.639 Q50.5477 793.058 51.5461 794.088 Q52.5123 795.087 53.414 796.472 Q54.2836 797.824 54.8955 799.982 Q55.5074 802.14 55.5074 804.588 Q55.5074 809.58 53.0598 812.478 Q50.6121 815.344 47.1983 815.344 Q44.8151 815.344 42.3674 813.766 Q39.8876 812.156 38.3095 809.322 Q36.3449 811.963 33.6074 811.963 Q31.1598 811.963 28.9698 809.902 Q26.7798 807.808 25.4916 804.427 Q24.1711 801.013 24.1711 797.277 Q24.1711 795.183 24.8796 793.122 Q25.556 791.061 26.4255 789.902 Q27.2951 788.742 27.9392 788.742 M38.0196 798.436 Q37.6332 799.853 37.6332 801.56 Q37.6332 803.879 38.2129 805.586 Q38.5671 804.201 38.5671 802.076 Q38.5671 800.304 38.4705 799.789 Q38.3739 799.241 38.0196 798.436 Z" fill="#000000" fill-rule="evenodd" fill-opacity="1" /><path clip-path="url(#clip010)" d="M57.1294 763.159 Q58.3243 763.159 59.0908 763.948 Q59.8573 764.714 59.8573 765.706 Q59.8573 766.563 59.3613 767.014 Q58.8653 767.465 58.2341 767.465 Q57.3323 767.465 56.5884 766.766 Q55.8444 766.067 55.6866 765.053 Q55.1455 765.796 55.1455 766.991 Q55.1455 768.953 56.656 770.689 Q57.3549 771.455 58.6399 772.289 Q59.9023 773.123 60.4434 773.281 L66.4627 774.746 Q67.139 774.882 70.3854 775.716 Q73.6092 776.527 73.7444 776.595 Q74.3757 776.821 74.7138 777.317 Q75.052 777.812 75.052 778.308 Q75.052 778.872 74.7138 779.255 Q74.3757 779.639 73.7895 779.639 Q73.6993 779.639 73.3612 779.571 Q73.023 779.503 72.5496 779.391 Q72.0762 779.278 71.8056 779.233 L61.1423 776.55 Q59.2035 776.054 58.5948 775.941 Q57.9636 775.806 57.2647 775.806 Q56.0473 775.806 55.5964 776.189 Q55.1455 776.573 55.1455 777.249 Q55.1455 778.421 56.5433 779.188 Q57.941 779.954 60.6463 780.608 Q61.3903 780.811 61.5481 780.946 Q61.7059 781.059 61.7059 781.397 Q61.6833 781.961 61.2324 781.961 Q61.1197 781.961 60.3983 781.78 Q59.6544 781.6 58.5722 781.262 Q57.4676 780.901 56.7687 780.518 Q56.2953 780.292 55.9797 780.089 Q55.6641 779.887 55.1681 779.481 Q54.6721 779.075 54.4016 778.466 Q54.1311 777.858 54.1311 777.114 Q54.1311 775.49 55.123 774.341 Q56.1149 773.168 57.6705 772.898 Q56.8589 772.334 56.16 771.635 Q55.4386 770.937 54.7848 769.652 Q54.1311 768.367 54.1311 766.991 Q54.1311 765.278 55.0103 764.218 Q55.867 763.159 57.1294 763.159 Z" fill="#000000" fill-rule="evenodd" fill-opacity="1" /><path clip-path="url(#clip010)" d="M69.1905 742.748 Q69.3934 742.568 69.5963 742.568 Q69.7992 742.568 70.3854 743.019 Q70.9715 743.447 71.7605 744.371 Q72.5496 745.296 73.2935 746.491 Q74.0375 747.685 74.5335 749.444 Q75.052 751.202 75.052 753.051 Q75.052 756.365 72.6849 758.349 Q70.3177 760.31 66.6881 760.31 Q64.3661 760.31 62.3146 759.544 Q60.2405 758.777 58.7751 757.537 Q57.3098 756.275 56.2502 754.697 Q55.1681 753.096 54.6496 751.428 Q54.1311 749.759 54.1311 748.204 Q54.1311 745.927 55.2808 744.597 Q56.4306 743.267 58.0537 743.267 Q58.437 743.267 58.9104 743.379 Q59.3838 743.47 60.1278 743.785 Q60.8717 744.078 61.6157 744.845 Q62.3371 745.611 62.8105 746.739 Q63.8701 749.241 63.8701 753.795 L63.8701 756.252 Q66.7783 756.974 68.672 756.974 Q69.416 756.974 70.1825 756.838 Q70.9264 756.703 71.8733 756.342 Q72.8201 755.959 73.4288 755.102 Q74.015 754.223 74.015 752.961 Q74.015 752.555 73.9924 752.127 Q73.9699 751.676 73.7219 750.548 Q73.4739 749.399 73.0456 748.384 Q72.6172 747.37 71.6929 746.085 Q70.7461 744.777 69.461 743.74 Q68.9876 743.379 68.9876 743.131 Q68.9876 742.929 69.1905 742.748 M58.0537 744.8 Q56.8138 744.8 55.9797 745.724 Q55.1455 746.626 55.1455 748.204 Q55.1455 748.7 55.2583 749.309 Q55.371 749.917 55.8444 750.932 Q56.3178 751.924 57.1069 752.803 Q57.8734 753.682 59.3838 754.561 Q60.8717 755.441 62.8556 755.959 L62.8556 754.065 Q62.8556 753.412 62.8556 752.938 Q62.8331 752.465 62.7429 751.428 Q62.6527 750.368 62.4949 749.602 Q62.3146 748.835 61.9539 747.866 Q61.5932 746.896 61.1197 746.288 Q60.6238 745.656 59.8347 745.228 Q59.0457 744.8 58.0537 744.8 Z" fill="#000000" fill-rule="evenodd" fill-opacity="1" /><path clip-path="url(#clip010)" d="M42.9943 729.134 L69.6865 735.784 Q70.7461 736.055 71.8958 736.055 Q74.015 736.055 74.015 734.657 Q74.015 734.003 73.5866 733.462 Q73.1357 732.921 72.2565 732.516 Q71.3548 732.087 70.4981 731.817 Q69.6414 731.524 68.3113 731.163 Q67.7928 731.05 67.635 730.937 Q67.4772 730.825 67.4772 730.509 Q67.4772 729.946 67.928 729.946 Q70.701 730.509 72.4594 731.343 Q75.052 732.561 75.052 734.815 Q75.052 736.506 73.8797 737.768 Q72.6849 739.008 70.7911 739.008 Q70.0697 739.008 69.2131 738.783 L46.1279 732.966 L45.2261 732.809 Q44.9782 732.809 44.8429 732.899 Q44.7076 732.989 44.5724 733.53 Q44.4371 734.049 44.4371 735.086 Q44.4371 735.514 44.4145 735.717 Q44.392 735.897 44.2793 736.078 Q44.1666 736.235 43.9186 736.235 Q43.5128 736.235 43.2873 736.078 Q43.0619 735.897 43.0168 735.762 Q42.9717 735.627 42.9492 735.356 Q42.9266 734.973 42.8139 733.688 Q42.6787 732.403 42.5885 731.298 Q42.4983 730.194 42.4983 729.72 Q42.4983 729.45 42.6336 729.314 Q42.7463 729.156 42.8815 729.134 L42.9943 729.134 Z" fill="#000000" fill-rule="evenodd" fill-opacity="1" /><polyline clip-path="url(#clip013)" style="stroke:#009af9; stroke-linecap:round; stroke-linejoin:round; stroke-width:4; stroke-opacity:1; fill:none" points="312.198,540.786 314.725,543.468 317.252,545.656 319.779,547.441 322.305,548.896 324.832,550.085 327.359,551.056 329.886,551.851 332.413,552.503 334.94,553.04 337.467,553.482 339.994,553.847 342.521,554.15 345.048,554.402 347.575,554.612 350.102,554.788 352.629,554.935 355.156,555.059 357.683,555.163 360.21,555.251 362.737,555.325 365.264,555.389 367.79,555.442 370.317,555.488 372.844,555.526 375.371,555.559 377.898,555.587 380.425,555.611 382.952,555.631 385.479,555.648 388.006,555.663 390.533,555.675 393.06,555.685 395.587,555.693 398.114,555.7 400.641,555.705 403.168,555.71 405.695,555.713 408.222,555.716 410.749,555.718 413.275,555.719 415.802,555.72 418.329,555.72 420.856,555.719 423.383,555.719 425.91,555.718 428.437,555.717 430.964,555.715 433.491,555.714 436.018,555.712 438.545,555.71 441.072,555.708 443.599,555.705 446.126,555.703 448.653,555.701 451.18,555.698 453.707,555.696 456.234,555.693 458.76,555.691 461.287,555.688 463.814,555.685 466.341,555.683 468.868,555.68 471.395,555.678 473.922,555.675 476.449,555.673 478.976,555.67 481.503,555.667 484.03,555.665 486.557,555.662 489.084,555.66 491.611,555.658 494.138,555.655 496.665,555.653 499.192,555.651 501.719,555.648 504.245,555.646 506.772,555.644 509.299,555.642 511.826,555.639 514.353,555.637 516.88,555.635 519.407,555.633 521.934,555.631 524.461,555.629 526.988,555.627 529.515,555.625 532.042,555.623 534.569,555.622 537.096,555.62 539.623,555.618 542.15,555.616 544.677,555.615 547.204,555.613 "/>
<polyline clip-path="url(#clip013)" style="stroke:#e26f46; stroke-linecap:round; stroke-linejoin:round; stroke-width:4; stroke-opacity:1; fill:none" points="312.198,837.626 314.725,844.986 317.252,851.215 319.779,856.479 322.305,860.926 324.832,864.687 327.359,867.875 329.886,870.585 332.413,872.898 334.94,874.879 337.467,876.585 339.994,878.061 342.521,879.344 345.048,880.465 347.575,881.449 350.102,882.316 352.629,883.085 355.156,883.768 357.683,884.377 360.21,884.923 362.737,885.412 365.264,885.854 367.79,886.252 370.317,886.612 372.844,886.939 375.371,887.235 377.898,887.505 380.425,887.751 382.952,887.975 385.479,888.179 388.006,888.366 390.533,888.537 393.06,888.693 395.587,888.837 398.114,888.968 400.641,889.089 403.168,889.2 405.695,889.302 408.222,889.396 410.749,889.482 413.275,889.562 415.802,889.635 418.329,889.703 420.856,889.765 423.383,889.823 425.91,889.877 428.437,889.927 430.964,889.973 433.491,890.015 436.018,890.055 438.545,890.092 441.072,890.127 443.599,890.159 446.126,890.189 448.653,890.217 451.18,890.243 453.707,890.268 456.234,890.291 458.76,890.312 461.287,890.333 463.814,890.352 466.341,890.37 468.868,890.387 471.395,890.403 473.922,890.419 476.449,890.433 478.976,890.447 481.503,890.46 484.03,890.472 486.557,890.484 489.084,890.496 491.611,890.506 494.138,890.517 496.665,890.526 499.192,890.536 501.719,890.545 504.245,890.553 506.772,890.562 509.299,890.57 511.826,890.577 514.353,890.584 516.88,890.591 519.407,890.598 521.934,890.605 524.461,890.611 526.988,890.617 529.515,890.623 532.042,890.628 534.569,890.633 537.096,890.639 539.623,890.644 542.15,890.648 544.677,890.653 547.204,890.657 549.73,890.662 552.257,890.666 554.784,890.67 557.311,890.673 559.838,890.677 562.365,890.68 564.892,890.684 567.419,890.687 569.946,890.69 572.473,890.693 575,890.696 577.527,890.698 580.054,890.701 582.581,890.703 585.108,890.706 587.635,890.708 590.162,890.71 592.689,890.712 595.215,890.714 597.742,890.716 600.269,890.717 602.796,890.719 605.323,890.72 607.85,890.722 610.377,890.723 612.904,890.724 615.431,890.725 617.958,890.726 620.485,890.727 623.012,890.728 625.539,890.728 628.066,890.729 630.593,890.729 633.12,890.73 635.647,890.73 638.174,890.73 640.7,890.731 643.227,890.731 645.754,890.731 648.281,890.731 650.808,890.731 653.335,890.73 655.862,890.73 658.389,890.73 660.916,890.729 663.443,890.729 665.97,890.728 668.497,890.728 671.024,890.727 673.551,890.726 676.078,890.725 678.605,890.725 681.132,890.724 683.659,890.723 686.185,890.721 688.712,890.72 691.239,890.719 693.766,890.718 696.293,890.717 698.82,890.715 701.347,890.714 703.874,890.712 706.401,890.711 708.928,890.709 711.455,890.707 713.982,890.706 716.509,890.704 719.036,890.702 721.563,890.7 724.09,890.698 726.617,890.696 729.144,890.694 731.67,890.692 734.197,890.69 736.724,890.688 739.251,890.686 741.778,890.683 744.305,890.681 746.832,890.679 749.359,890.676 751.886,890.674 754.413,890.671 756.94,890.669 759.467,890.666 761.994,890.663 764.521,890.661 767.048,890.658 769.575,890.655 772.102,890.653 774.629,890.65 777.155,890.647 779.682,890.644 782.209,890.641 784.736,890.638 787.263,890.635 789.79,890.632 792.317,890.629 794.844,890.626 797.371,890.623 799.898,890.619 802.425,890.616 804.952,890.613 807.479,890.61 810.006,890.606 812.533,890.603 815.06,890.599 817.587,890.596 820.114,890.593 822.64,890.589 825.167,890.586 827.694,890.582 830.221,890.579 832.748,890.575 835.275,890.571 837.802,890.568 840.329,890.564 842.856,890.56 845.383,890.556 847.91,890.553 850.437,890.549 852.964,890.545 855.491,890.541 858.018,890.537 860.545,890.533 863.072,890.53 865.599,890.526 868.125,890.522 870.652,890.518 873.179,890.514 875.706,890.51 878.233,890.506 880.76,890.501 883.287,890.497 885.814,890.493 888.341,890.489 890.868,890.485 893.395,890.481 895.922,890.477 898.449,890.472 900.976,890.468 903.503,890.464 906.03,890.46 908.557,890.455 911.084,890.451 913.61,890.447 916.137,890.442 918.664,890.438 921.191,890.433 923.718,890.429 926.245,890.425 928.772,890.42 931.299,890.416 933.826,890.411 936.353,890.407 938.88,890.402 941.407,890.398 943.934,890.393 946.461,890.389 948.988,890.384 951.515,890.379 954.042,890.375 956.569,890.37 959.095,890.366 961.622,890.361 964.149,890.356 966.676,890.352 969.203,890.347 971.73,890.342 974.257,890.337 976.784,890.333 979.311,890.328 981.838,890.323 984.365,890.318 986.892,890.314 989.419,890.309 991.946,890.304 994.473,890.299 997,890.294 999.527,890.29 1002.05,890.285 1004.58,890.28 1007.11,890.275 1009.63,890.27 1012.16,890.265 1014.69,890.26 1017.22,890.256 1019.74,890.251 1022.27,890.246 1024.8,890.241 1027.32,890.236 1029.85,890.231 1032.38,890.226 1034.9,890.221 1037.43,890.216 1039.96,890.211 1042.48,890.206 1045.01,890.201 1047.54,890.196 1050.07,890.191 1052.59,890.186 1055.12,890.181 1057.65,890.176 1060.17,890.171 1062.7,890.166 1065.23,890.161 1067.75,890.156 1070.28,890.151 1072.81,890.146 1075.33,890.141 1077.86,890.136 1080.39,890.131 1082.92,890.125 1085.44,890.12 1087.97,890.115 1090.5,890.11 1093.02,890.105 1095.55,890.1 1098.08,890.095 1100.6,890.09 1103.13,890.085 1105.66,890.079 1108.19,890.074 1110.71,890.069 1113.24,890.064 1115.77,890.059 1118.29,890.054 1120.82,890.049 1123.35,890.043 1125.87,890.038 1128.4,890.033 1130.93,890.028 1133.45,890.023 1135.98,890.018 1138.51,890.012 1141.04,890.007 1143.56,890.002 1146.09,889.997 1148.62,889.992 1151.14,889.986 1153.67,889.981 1156.2,889.976 1158.72,889.971 1161.25,889.966 1163.78,889.961 1166.3,889.955 1168.83,889.95 1171.36,889.945 1173.89,889.94 1176.41,889.935 1178.94,889.929 1181.47,889.924 1183.99,889.919 1186.52,889.914 1189.05,889.909 1191.57,889.903 1194.1,889.898 1196.63,889.893 1199.16,889.888 1201.68,889.882 1204.21,889.877 1206.74,889.872 1209.26,889.867 1211.79,889.862 1214.32,889.856 1216.84,889.851 1219.37,889.846 1221.9,889.841 1224.42,889.836 1226.95,889.83 1229.48,889.825 1232.01,889.82 1234.53,889.815 1237.06,889.81 1239.59,889.804 1242.11,889.799 1244.64,889.794 1247.17,889.789 1249.69,889.784 1252.22,889.778 1254.75,889.773 1257.27,889.768 1259.8,889.763 1262.33,889.758 1264.86,889.753 1267.38,889.747 1269.91,889.742 1272.44,889.737 1274.96,889.732 1277.49,889.727 1280.02,889.721 1282.54,889.716 1285.07,889.711 1287.6,889.706 1290.13,889.701 1292.65,889.696 1295.18,889.691 1297.71,889.685 1300.23,889.68 1302.76,889.675 1305.29,889.67 1307.81,889.665 1310.34,889.66 1312.87,889.655 1315.39,889.649 1317.92,889.644 1320.45,889.639 1322.98,889.634 1325.5,889.629 1328.03,889.624 1330.56,889.619 1333.08,889.614 1335.61,889.608 1338.14,889.603 1340.66,889.598 1343.19,889.593 1345.72,889.588 1348.24,889.583 1350.77,889.578 1353.3,889.573 1355.83,889.568 1358.35,889.563 1360.88,889.558 1363.41,889.553 1365.93,889.548 1368.46,889.543 1370.99,889.537 1373.51,889.532 1376.04,889.527 1378.57,889.522 1381.1,889.517 1383.62,889.512 1386.15,889.507 1388.68,889.502 1391.2,889.497 1393.73,889.492 1396.26,889.487 1398.78,889.482 1401.31,889.477 1403.84,889.472 1406.36,889.467 1408.89,889.462 1411.42,889.457 1413.95,889.452 1416.47,889.447 1419,889.442 1421.53,889.438 1424.05,889.433 1426.58,889.428 1429.11,889.423 1431.63,889.418 1434.16,889.413 1436.69,889.408 1439.21,889.403 1441.74,889.398 1444.27,889.393 1446.8,889.388 1449.32,889.383 1451.85,889.379 1454.38,889.374 1456.9,889.369 1459.43,889.364 1461.96,889.359 1464.48,889.354 1467.01,889.349 1469.54,889.345 1472.07,889.34 1474.59,889.335 1477.12,889.33 1479.65,889.325 1482.17,889.32 1484.7,889.316 1487.23,889.311 1489.75,889.306 1492.28,889.301 1494.81,889.296 1497.33,889.292 1499.86,889.287 1502.39,889.282 1504.92,889.277 1507.44,889.273 1509.97,889.268 1512.5,889.263 1515.02,889.258 1517.55,889.254 1520.08,889.249 1522.6,889.244 1525.13,889.24 1527.66,889.235 1530.18,889.23 1532.71,889.225 1535.24,889.221 1537.77,889.216 1540.29,889.211 1542.82,889.207 1545.35,889.202 1547.87,889.197 1550.4,889.193 1552.93,889.188 1555.45,889.184 1557.98,889.179 1560.51,889.174 1563.04,889.17 1565.56,889.165 1568.09,889.161 1570.62,889.156 1573.14,889.151 1575.67,889.147 1578.2,889.142 1580.72,889.138 1583.25,889.133 1585.78,889.129 1588.3,889.124 1590.83,889.12 1593.36,889.115 1595.89,889.11 1598.41,889.106 1600.94,889.101 1603.47,889.097 1605.99,889.092 1608.52,889.088 1611.05,889.084 1613.57,889.079 1616.1,889.075 1618.63,889.07 1621.15,889.066 1623.68,889.061 1626.21,889.057 1628.74,889.052 1631.26,889.048 1633.79,889.044 1636.32,889.039 1638.84,889.035 1641.37,889.03 1643.9,889.026 1646.42,889.022 1648.95,889.017 1651.48,889.013 1654.01,889.009 1656.53,889.004 1659.06,889 1661.59,888.996 1664.11,888.991 1666.64,888.987 1669.17,888.983 1671.69,888.978 1674.22,888.974 1676.75,888.97 1679.27,888.965 1681.8,888.961 1684.33,888.957 1686.86,888.953 1689.38,888.948 1691.91,888.944 1694.44,888.94 1696.96,888.936 1699.49,888.931 1702.02,888.927 1704.54,888.923 1707.07,888.919 1709.6,888.915 1712.12,888.91 1714.65,888.906 1717.18,888.902 1719.71,888.898 1722.23,888.894 1724.76,888.89 1727.29,888.886 1729.81,888.881 1732.34,888.877 1734.87,888.873 1737.39,888.869 1739.92,888.865 1742.45,888.861 1744.98,888.857 1747.5,888.853 1750.03,888.849 1752.56,888.845 1755.08,888.841 1757.61,888.836 1760.14,888.832 1762.66,888.828 1765.19,888.824 1767.72,888.82 1770.24,888.816 1772.77,888.812 1775.3,888.808 1777.83,888.804 1780.35,888.8 1782.88,888.796 1785.41,888.792 1787.93,888.789 1790.46,888.785 1792.99,888.781 1795.51,888.777 1798.04,888.773 1800.57,888.769 1803.09,888.765 1805.62,888.761 1808.15,888.757 1810.68,888.753 1813.2,888.749 1815.73,888.745 1818.26,888.742 1820.78,888.738 1823.31,888.734 1825.84,888.73 1828.36,888.726 1830.89,888.722 1833.42,888.719 1835.95,888.715 1838.47,888.711 1841,888.707 1843.53,888.703 1846.05,888.7 1848.58,888.696 1851.11,888.692 1853.63,888.688 1856.16,888.685 1858.69,888.681 1861.21,888.677 1863.74,888.673 1866.27,888.67 1868.8,888.666 1871.32,888.662 1873.85,888.659 1876.38,888.655 1878.9,888.651 1881.43,888.647 1883.96,888.644 1886.48,888.64 1889.01,888.637 1891.54,888.633 1894.06,888.629 1896.59,888.626 1899.12,888.622 1901.65,888.618 1904.17,888.615 1906.7,888.611 1909.23,888.608 1911.75,888.604 1914.28,888.6 1916.81,888.597 1919.33,888.593 1921.86,888.59 1924.39,888.586 1926.92,888.583 1929.44,888.579 1931.97,888.576 1934.5,888.572 1937.02,888.569 "/>
<polyline clip-path="url(#clip013)" style="stroke:#3da44d; stroke-linecap:round; stroke-linejoin:round; stroke-width:4; stroke-opacity:1; fill:none" points="312.198,923.619 314.725,929.534 317.252,934.427 319.779,938.459 322.305,941.771 324.832,944.489 327.359,946.716 329.886,948.541 332.413,950.038 334.94,951.267 337.467,952.279 339.994,953.113 342.521,953.803 345.048,954.375 347.575,954.853 350.102,955.253 352.629,955.589 355.156,955.874 357.683,956.117 360.21,956.325 362.737,956.504 365.264,956.66 367.79,956.797 370.317,956.918 372.844,957.026 375.371,957.123 377.898,957.21 380.425,957.29 382.952,957.363 385.479,957.431 388.006,957.495 390.533,957.554 393.06,957.61 395.587,957.662 398.114,957.713 400.641,957.761 403.168,957.807 405.695,957.851 408.222,957.893 410.749,957.934 413.275,957.974 415.802,958.013 418.329,958.05 420.856,958.086 423.383,958.121 425.91,958.155 428.437,958.189 430.964,958.221 433.491,958.253 436.018,958.283 438.545,958.313 441.072,958.342 443.599,958.371 446.126,958.398 448.653,958.425 451.18,958.451 453.707,958.477 456.234,958.502 458.76,958.526 461.287,958.549 463.814,958.572 466.341,958.595 468.868,958.616 471.395,958.637 473.922,958.658 476.449,958.678 478.976,958.697 481.503,958.715 484.03,958.734 486.557,958.751 489.084,958.768 491.611,958.785 494.138,958.801 496.665,958.816 499.192,958.831 501.719,958.846 504.245,958.86 506.772,958.873 509.299,958.886 511.826,958.899 514.353,958.911 516.88,958.923 519.407,958.934 521.934,958.945 524.461,958.955 526.988,958.965 529.515,958.974 532.042,958.983 534.569,958.992 537.096,959 539.623,959.008 542.15,959.016 544.677,959.023 547.204,959.03 549.73,959.036 552.257,959.042 554.784,959.048 557.311,959.053 559.838,959.058 562.365,959.063 564.892,959.067 567.419,959.071 569.946,959.075 572.473,959.078 575,959.082 577.527,959.084 580.054,959.087 582.581,959.089 585.108,959.091 587.635,959.093 590.162,959.094 592.689,959.095 595.215,959.096 597.742,959.096 600.269,959.096 602.796,959.096 605.323,959.096 607.85,959.096 610.377,959.095 612.904,959.094 615.431,959.093 617.958,959.091 620.485,959.089 623.012,959.087 625.539,959.085 628.066,959.083 630.593,959.08 633.12,959.077 635.647,959.074 638.174,959.071 640.7,959.068 643.227,959.064 645.754,959.06 648.281,959.056 650.808,959.052 653.335,959.048 655.862,959.043 658.389,959.038 660.916,959.033 663.443,959.028 665.97,959.023 668.497,959.017 671.024,959.012 673.551,959.006 676.078,959 678.605,958.994 681.132,958.987 683.659,958.981 686.185,958.974 688.712,958.968 691.239,958.961 693.766,958.954 696.293,958.946 698.82,958.939 701.347,958.932 703.874,958.924 706.401,958.916 708.928,958.908 711.455,958.9 713.982,958.892 716.509,958.884 719.036,958.876 721.563,958.867 724.09,958.858 726.617,958.85 729.144,958.841 731.67,958.832 734.197,958.823 736.724,958.814 739.251,958.804 741.778,958.795 744.305,958.786 746.832,958.776 749.359,958.766 751.886,958.756 754.413,958.747 756.94,958.737 759.467,958.726 761.994,958.716 764.521,958.706 767.048,958.696 769.575,958.685 772.102,958.675 774.629,958.664 777.155,958.654 779.682,958.643 782.209,958.632 784.736,958.621 787.263,958.61 789.79,958.599 792.317,958.588 794.844,958.577 797.371,958.565 799.898,958.554 802.425,958.543 804.952,958.531 807.479,958.52 810.006,958.508 812.533,958.496 815.06,958.485 817.587,958.473 820.114,958.461 822.64,958.449 825.167,958.437 827.694,958.425 830.221,958.413 832.748,958.401 835.275,958.389 837.802,958.377 840.329,958.364 842.856,958.352 845.383,958.34 847.91,958.327 850.437,958.315 852.964,958.302 855.491,958.29 858.018,958.277 860.545,958.265 863.072,958.252 865.599,958.239 868.125,958.227 870.652,958.214 873.179,958.201 875.706,958.188 878.233,958.175 880.76,958.163 883.287,958.15 885.814,958.137 888.341,958.124 890.868,958.111 893.395,958.098 895.922,958.085 898.449,958.072 900.976,958.058 903.503,958.045 906.03,958.032 908.557,958.019 911.084,958.006 913.61,957.992 916.137,957.979 918.664,957.966 921.191,957.953 923.718,957.939 926.245,957.926 928.772,957.913 931.299,957.899 933.826,957.886 936.353,957.873 938.88,957.859 941.407,957.846 943.934,957.832 946.461,957.819 948.988,957.805 951.515,957.792 954.042,957.778 956.569,957.765 959.095,957.751 961.622,957.738 964.149,957.724 966.676,957.711 969.203,957.697 971.73,957.684 974.257,957.67 976.784,957.657 979.311,957.643 981.838,957.63 984.365,957.616 986.892,957.603 989.419,957.589 991.946,957.575 994.473,957.562 997,957.548 999.527,957.535 1002.05,957.521 1004.58,957.508 1007.11,957.494 1009.63,957.48 1012.16,957.467 1014.69,957.453 1017.22,957.44 1019.74,957.426 1022.27,957.413 1024.8,957.399 1027.32,957.386 1029.85,957.372 1032.38,957.358 1034.9,957.345 1037.43,957.331 1039.96,957.318 1042.48,957.304 1045.01,957.291 1047.54,957.277 1050.07,957.264 1052.59,957.25 1055.12,957.237 1057.65,957.223 1060.17,957.21 1062.7,957.196 1065.23,957.183 1067.75,957.17 1070.28,957.156 1072.81,957.143 1075.33,957.129 1077.86,957.116 1080.39,957.103 1082.92,957.089 1085.44,957.076 1087.97,957.063 1090.5,957.049 1093.02,957.036 1095.55,957.023 1098.08,957.009 1100.6,956.996 1103.13,956.983 1105.66,956.969 1108.19,956.956 1110.71,956.943 1113.24,956.93 1115.77,956.917 1118.29,956.903 1120.82,956.89 1123.35,956.877 1125.87,956.864 1128.4,956.851 1130.93,956.838 1133.45,956.825 1135.98,956.812 1138.51,956.799 1141.04,956.786 1143.56,956.773 1146.09,956.76 1148.62,956.747 1151.14,956.734 1153.67,956.721 1156.2,956.708 1158.72,956.695 1161.25,956.682 1163.78,956.669 1166.3,956.656 1168.83,956.644 1171.36,956.631 1173.89,956.618 1176.41,956.605 1178.94,956.592 1181.47,956.58 1183.99,956.567 1186.52,956.554 1189.05,956.542 1191.57,956.529 1194.1,956.516 1196.63,956.504 1199.16,956.491 1201.68,956.479 1204.21,956.466 1206.74,956.454 1209.26,956.441 1211.79,956.429 1214.32,956.416 1216.84,956.404 1219.37,956.391 1221.9,956.379 1224.42,956.367 1226.95,956.354 1229.48,956.342 1232.01,956.33 1234.53,956.317 1237.06,956.305 1239.59,956.293 1242.11,956.281 1244.64,956.268 1247.17,956.256 1249.69,956.244 1252.22,956.232 1254.75,956.22 1257.27,956.208 1259.8,956.196 1262.33,956.184 1264.86,956.172 1267.38,956.16 1269.91,956.148 1272.44,956.136 1274.96,956.124 1277.49,956.112 1280.02,956.1 1282.54,956.089 1285.07,956.077 1287.6,956.065 1290.13,956.053 1292.65,956.041 1295.18,956.03 1297.71,956.018 1300.23,956.006 1302.76,955.995 1305.29,955.983 1307.81,955.972 1310.34,955.96 1312.87,955.949 1315.39,955.937 1317.92,955.926 1320.45,955.914 1322.98,955.903 1325.5,955.891 1328.03,955.88 1330.56,955.868 1333.08,955.857 1335.61,955.846 1338.14,955.835 1340.66,955.823 1343.19,955.812 1345.72,955.801 1348.24,955.79 1350.77,955.778 1353.3,955.767 1355.83,955.756 1358.35,955.745 1360.88,955.734 1363.41,955.723 1365.93,955.712 1368.46,955.701 1370.99,955.69 1373.51,955.679 1376.04,955.668 1378.57,955.657 1381.1,955.647 1383.62,955.636 1386.15,955.625 1388.68,955.614 1391.2,955.603 1393.73,955.593 1396.26,955.582 1398.78,955.571 1401.31,955.561 1403.84,955.55 1406.36,955.539 1408.89,955.529 1411.42,955.518 1413.95,955.508 1416.47,955.497 1419,955.487 1421.53,955.476 1424.05,955.466 1426.58,955.456 1429.11,955.445 1431.63,955.435 1434.16,955.424 1436.69,955.414 1439.21,955.404 1441.74,955.394 1444.27,955.383 1446.8,955.373 1449.32,955.363 1451.85,955.353 1454.38,955.343 1456.9,955.333 1459.43,955.323 1461.96,955.313 1464.48,955.303 1467.01,955.293 1469.54,955.283 1472.07,955.273 1474.59,955.263 1477.12,955.253 1479.65,955.243 1482.17,955.233 1484.7,955.223 1487.23,955.214 1489.75,955.204 1492.28,955.194 1494.81,955.184 1497.33,955.175 1499.86,955.165 1502.39,955.155 1504.92,955.146 1507.44,955.136 1509.97,955.127 1512.5,955.117 1515.02,955.107 1517.55,955.098 1520.08,955.089 1522.6,955.079 1525.13,955.07 1527.66,955.06 1530.18,955.051 1532.71,955.042 1535.24,955.032 1537.77,955.023 1540.29,955.014 1542.82,955.004 1545.35,954.995 1547.87,954.986 1550.4,954.977 1552.93,954.968 1555.45,954.959 1557.98,954.949 1560.51,954.94 1563.04,954.931 1565.56,954.922 1568.09,954.913 1570.62,954.904 1573.14,954.895 1575.67,954.886 1578.2,954.877 1580.72,954.869 1583.25,954.86 1585.78,954.851 1588.3,954.842 1590.83,954.833 1593.36,954.824 1595.89,954.816 1598.41,954.807 1600.94,954.798 1603.47,954.79 1605.99,954.781 1608.52,954.772 1611.05,954.764 1613.57,954.755 1616.1,954.747 1618.63,954.738 1621.15,954.73 1623.68,954.721 1626.21,954.713 1628.74,954.704 1631.26,954.696 1633.79,954.687 1636.32,954.679 1638.84,954.671 1641.37,954.662 1643.9,954.654 1646.42,954.646 1648.95,954.637 1651.48,954.629 1654.01,954.621 1656.53,954.613 1659.06,954.605 1661.59,954.597 1664.11,954.588 1666.64,954.58 1669.17,954.572 1671.69,954.564 1674.22,954.556 1676.75,954.548 1679.27,954.54 1681.8,954.532 1684.33,954.524 1686.86,954.516 1689.38,954.508 1691.91,954.5 1694.44,954.493 1696.96,954.485 1699.49,954.477 1702.02,954.469 1704.54,954.461 1707.07,954.454 1709.6,954.446 1712.12,954.438 1714.65,954.431 1717.18,954.423 1719.71,954.415 1722.23,954.408 1724.76,954.4 1727.29,954.392 1729.81,954.385 1732.34,954.377 1734.87,954.37 1737.39,954.362 1739.92,954.355 1742.45,954.347 1744.98,954.34 1747.5,954.333 1750.03,954.325 1752.56,954.318 1755.08,954.311 1757.61,954.303 1760.14,954.296 1762.66,954.289 1765.19,954.281 1767.72,954.274 1770.24,954.267 1772.77,954.26 1775.3,954.252 1777.83,954.245 1780.35,954.238 1782.88,954.231 1785.41,954.224 1787.93,954.217 1790.46,954.21 1792.99,954.203 1795.51,954.196 1798.04,954.189 1800.57,954.182 1803.09,954.175 1805.62,954.168 1808.15,954.161 1810.68,954.154 1813.2,954.147 1815.73,954.14 1818.26,954.133 1820.78,954.127 1823.31,954.12 1825.84,954.113 1828.36,954.106 1830.89,954.1 1833.42,954.093 1835.95,954.086 1838.47,954.079 1841,954.073 1843.53,954.066 1846.05,954.06 1848.58,954.053 1851.11,954.046 1853.63,954.04 1856.16,954.033 1858.69,954.027 1861.21,954.02 1863.74,954.014 1866.27,954.007 1868.8,954.001 1871.32,953.994 1873.85,953.988 1876.38,953.981 1878.9,953.975 1881.43,953.969 1883.96,953.962 1886.48,953.956 1889.01,953.95 1891.54,953.943 1894.06,953.937 1896.59,953.931 1899.12,953.925 1901.65,953.918 1904.17,953.912 1906.7,953.906 1909.23,953.9 1911.75,953.894 1914.28,953.888 1916.81,953.881 1919.33,953.875 1921.86,953.869 1924.39,953.863 1926.92,953.857 1929.44,953.851 1931.97,953.845 1934.5,953.839 1937.02,953.833 1939.55,953.827 1942.08,953.821 1944.6,953.815 1947.13,953.809 1949.66,953.804 1952.18,953.798 1954.71,953.792 1957.24,953.786 1959.77,953.78 1962.29,953.774 1964.82,953.769 1967.35,953.763 1969.87,953.757 1972.4,953.751 1974.93,953.746 1977.45,953.74 1979.98,953.734 1982.51,953.729 1985.03,953.723 1987.56,953.717 1990.09,953.712 1992.62,953.706 1995.14,953.7 1997.67,953.695 2000.2,953.689 2002.72,953.684 2005.25,953.678 2007.78,953.673 2010.3,953.667 2012.83,953.662 2015.36,953.656 2017.89,953.651 2020.41,953.645 2022.94,953.64 2025.47,953.635 2027.99,953.629 2030.52,953.624 2033.05,953.619 2035.57,953.613 2038.1,953.608 2040.63,953.603 2043.15,953.597 2045.68,953.592 2048.21,953.587 2050.74,953.582 2053.26,953.576 2055.79,953.571 2058.32,953.566 2060.84,953.561 2063.37,953.556 2065.9,953.55 2068.42,953.545 2070.95,953.54 2073.48,953.535 2076,953.53 2078.53,953.525 2081.06,953.52 2083.59,953.515 2086.11,953.51 2088.64,953.505 2091.17,953.5 2093.69,953.495 2096.22,953.49 2098.75,953.485 2101.27,953.48 2103.8,953.475 2106.33,953.47 2108.86,953.465 2111.38,953.46 2113.91,953.455 "/>
<polyline clip-path="url(#clip013)" style="stroke:#c271d2; stroke-linecap:round; stroke-linejoin:round; stroke-width:4; stroke-opacity:1; fill:none" points="312.198,1016.9 314.725,1020.25 317.252,1022.97 319.779,1025.19 322.305,1026.99 324.832,1028.46 327.359,1029.67 329.886,1030.67 332.413,1031.49 334.94,1032.19 337.467,1032.77 339.994,1033.27 342.521,1033.7 345.048,1034.08 347.575,1034.41 350.102,1034.7 352.629,1034.96 355.156,1035.2 357.683,1035.42 360.21,1035.62 362.737,1035.81 365.264,1035.98 367.79,1036.15 370.317,1036.31 372.844,1036.45 375.371,1036.6 377.898,1036.73 380.425,1036.86 382.952,1036.98 385.479,1037.1 388.006,1037.22 390.533,1037.33 393.06,1037.43 395.587,1037.54 398.114,1037.63 400.641,1037.73 403.168,1037.82 405.695,1037.91 408.222,1038 410.749,1038.08 413.275,1038.16 415.802,1038.23 418.329,1038.31 420.856,1038.38 423.383,1038.45 425.91,1038.52 428.437,1038.58 430.964,1038.64 433.491,1038.7 436.018,1038.76 438.545,1038.82 441.072,1038.87 443.599,1038.93 446.126,1038.98 448.653,1039.02 451.18,1039.07 453.707,1039.12 456.234,1039.16 458.76,1039.2 461.287,1039.24 463.814,1039.28 466.341,1039.32 468.868,1039.36 471.395,1039.39 473.922,1039.43 476.449,1039.46 478.976,1039.49 481.503,1039.52 484.03,1039.55 486.557,1039.58 489.084,1039.61 491.611,1039.63 494.138,1039.66 496.665,1039.68 499.192,1039.71 501.719,1039.73 504.245,1039.75 506.772,1039.77 509.299,1039.8 511.826,1039.81 514.353,1039.83 516.88,1039.85 519.407,1039.87 521.934,1039.89 524.461,1039.9 526.988,1039.92 529.515,1039.93 532.042,1039.95 534.569,1039.96 537.096,1039.98 539.623,1039.99 542.15,1040 544.677,1040.01 547.204,1040.03 549.73,1040.04 552.257,1040.05 554.784,1040.06 557.311,1040.07 559.838,1040.08 562.365,1040.09 564.892,1040.09 567.419,1040.1 569.946,1040.11 572.473,1040.12 575,1040.13 577.527,1040.13 580.054,1040.14 582.581,1040.15 585.108,1040.15 587.635,1040.16 590.162,1040.16 592.689,1040.17 595.215,1040.17 597.742,1040.18 600.269,1040.18 602.796,1040.19 605.323,1040.19 607.85,1040.19 610.377,1040.2 612.904,1040.2 615.431,1040.2 617.958,1040.21 620.485,1040.21 623.012,1040.21 625.539,1040.22 628.066,1040.22 630.593,1040.22 633.12,1040.22 635.647,1040.22 638.174,1040.22 640.7,1040.23 643.227,1040.23 645.754,1040.23 648.281,1040.23 650.808,1040.23 653.335,1040.23 655.862,1040.23 658.389,1040.23 660.916,1040.23 663.443,1040.23 665.97,1040.23 668.497,1040.23 671.024,1040.23 673.551,1040.23 676.078,1040.23 678.605,1040.23 681.132,1040.23 683.659,1040.23 686.185,1040.23 688.712,1040.23 691.239,1040.23 693.766,1040.23 696.293,1040.23 698.82,1040.23 701.347,1040.23 703.874,1040.22 706.401,1040.22 708.928,1040.22 711.455,1040.22 713.982,1040.22 716.509,1040.22 719.036,1040.21 721.563,1040.21 724.09,1040.21 726.617,1040.21 729.144,1040.21 731.67,1040.21 734.197,1040.2 736.724,1040.2 739.251,1040.2 741.778,1040.2 744.305,1040.19 746.832,1040.19 749.359,1040.19 751.886,1040.19 754.413,1040.19 756.94,1040.18 759.467,1040.18 761.994,1040.18 764.521,1040.18 767.048,1040.17 769.575,1040.17 772.102,1040.17 774.629,1040.16 777.155,1040.16 779.682,1040.16 782.209,1040.16 784.736,1040.15 787.263,1040.15 789.79,1040.15 792.317,1040.14 794.844,1040.14 797.371,1040.14 799.898,1040.13 802.425,1040.13 804.952,1040.13 807.479,1040.12 810.006,1040.12 812.533,1040.12 815.06,1040.12 817.587,1040.11 820.114,1040.11 822.64,1040.1 825.167,1040.1 827.694,1040.1 830.221,1040.09 832.748,1040.09 835.275,1040.09 837.802,1040.08 840.329,1040.08 842.856,1040.08 845.383,1040.07 847.91,1040.07 850.437,1040.07 852.964,1040.06 855.491,1040.06 858.018,1040.06 860.545,1040.05 863.072,1040.05 865.599,1040.04 868.125,1040.04 870.652,1040.04 873.179,1040.03 875.706,1040.03 878.233,1040.02 880.76,1040.02 883.287,1040.02 885.814,1040.01 888.341,1040.01 890.868,1040.01 893.395,1040 895.922,1040 898.449,1039.99 900.976,1039.99 903.503,1039.99 906.03,1039.98 908.557,1039.98 911.084,1039.97 913.61,1039.97 916.137,1039.97 918.664,1039.96 921.191,1039.96 923.718,1039.95 926.245,1039.95 928.772,1039.94 931.299,1039.94 933.826,1039.94 936.353,1039.93 938.88,1039.93 941.407,1039.92 943.934,1039.92 946.461,1039.92 948.988,1039.91 951.515,1039.91 954.042,1039.9 956.569,1039.9 959.095,1039.89 961.622,1039.89 964.149,1039.89 966.676,1039.88 969.203,1039.88 971.73,1039.87 974.257,1039.87 976.784,1039.86 979.311,1039.86 981.838,1039.86 984.365,1039.85 986.892,1039.85 989.419,1039.84 991.946,1039.84 994.473,1039.83 997,1039.83 999.527,1039.83 1002.05,1039.82 1004.58,1039.82 1007.11,1039.81 1009.63,1039.81 1012.16,1039.8 1014.69,1039.8 1017.22,1039.8 1019.74,1039.79 1022.27,1039.79 1024.8,1039.78 1027.32,1039.78 1029.85,1039.77 1032.38,1039.77 1034.9,1039.76 1037.43,1039.76 1039.96,1039.76 1042.48,1039.75 1045.01,1039.75 1047.54,1039.74 1050.07,1039.74 1052.59,1039.73 1055.12,1039.73 1057.65,1039.72 1060.17,1039.72 1062.7,1039.72 1065.23,1039.71 1067.75,1039.71 1070.28,1039.7 1072.81,1039.7 1075.33,1039.69 1077.86,1039.69 1080.39,1039.68 1082.92,1039.68 1085.44,1039.68 1087.97,1039.67 1090.5,1039.67 1093.02,1039.66 1095.55,1039.66 1098.08,1039.65 1100.6,1039.65 1103.13,1039.64 1105.66,1039.64 1108.19,1039.63 1110.71,1039.63 1113.24,1039.63 1115.77,1039.62 1118.29,1039.62 1120.82,1039.61 1123.35,1039.61 1125.87,1039.6 1128.4,1039.6 1130.93,1039.59 1133.45,1039.59 1135.98,1039.59 1138.51,1039.58 1141.04,1039.58 1143.56,1039.57 1146.09,1039.57 1148.62,1039.56 1151.14,1039.56 1153.67,1039.55 1156.2,1039.55 1158.72,1039.54 1161.25,1039.54 1163.78,1039.54 1166.3,1039.53 1168.83,1039.53 1171.36,1039.52 1173.89,1039.52 1176.41,1039.51 1178.94,1039.51 1181.47,1039.5 1183.99,1039.5 1186.52,1039.5 1189.05,1039.49 1191.57,1039.49 1194.1,1039.48 1196.63,1039.48 1199.16,1039.47 1201.68,1039.47 1204.21,1039.46 1206.74,1039.46 1209.26,1039.45 1211.79,1039.45 1214.32,1039.45 1216.84,1039.44 1219.37,1039.44 1221.9,1039.43 1224.42,1039.43 1226.95,1039.42 1229.48,1039.42 1232.01,1039.41 1234.53,1039.41 1237.06,1039.41 1239.59,1039.4 1242.11,1039.4 1244.64,1039.39 1247.17,1039.39 1249.69,1039.38 1252.22,1039.38 1254.75,1039.37 1257.27,1039.37 1259.8,1039.37 1262.33,1039.36 1264.86,1039.36 1267.38,1039.35 1269.91,1039.35 1272.44,1039.34 1274.96,1039.34 1277.49,1039.33 1280.02,1039.33 1282.54,1039.33 1285.07,1039.32 1287.6,1039.32 1290.13,1039.31 1292.65,1039.31 1295.18,1039.3 1297.71,1039.3 1300.23,1039.29 1302.76,1039.29 1305.29,1039.29 1307.81,1039.28 1310.34,1039.28 1312.87,1039.27 1315.39,1039.27 1317.92,1039.26 1320.45,1039.26 1322.98,1039.25 1325.5,1039.25 1328.03,1039.25 1330.56,1039.24 1333.08,1039.24 1335.61,1039.23 1338.14,1039.23 1340.66,1039.22 1343.19,1039.22 1345.72,1039.22 1348.24,1039.21 1350.77,1039.21 1353.3,1039.2 1355.83,1039.2 1358.35,1039.19 1360.88,1039.19 1363.41,1039.18 1365.93,1039.18 1368.46,1039.18 1370.99,1039.17 1373.51,1039.17 1376.04,1039.16 1378.57,1039.16 1381.1,1039.15 1383.62,1039.15 1386.15,1039.15 1388.68,1039.14 1391.2,1039.14 1393.73,1039.13 1396.26,1039.13 1398.78,1039.12 1401.31,1039.12 1403.84,1039.12 1406.36,1039.11 1408.89,1039.11 1411.42,1039.1 1413.95,1039.1 1416.47,1039.09 1419,1039.09 1421.53,1039.09 1424.05,1039.08 1426.58,1039.08 1429.11,1039.07 1431.63,1039.07 1434.16,1039.07 1436.69,1039.06 1439.21,1039.06 1441.74,1039.05 1444.27,1039.05 1446.8,1039.04 1449.32,1039.04 1451.85,1039.04 1454.38,1039.03 1456.9,1039.03 1459.43,1039.02 1461.96,1039.02 1464.48,1039.02 1467.01,1039.01 1469.54,1039.01 1472.07,1039 1474.59,1039 1477.12,1038.99 1479.65,1038.99 1482.17,1038.99 1484.7,1038.98 1487.23,1038.98 1489.75,1038.97 1492.28,1038.97 1494.81,1038.97 1497.33,1038.96 1499.86,1038.96 1502.39,1038.95 1504.92,1038.95 1507.44,1038.95 1509.97,1038.94 1512.5,1038.94 1515.02,1038.93 1517.55,1038.93 1520.08,1038.92 1522.6,1038.92 1525.13,1038.92 1527.66,1038.91 1530.18,1038.91 1532.71,1038.9 1535.24,1038.9 1537.77,1038.9 1540.29,1038.89 1542.82,1038.89 1545.35,1038.88 1547.87,1038.88 1550.4,1038.88 1552.93,1038.87 1555.45,1038.87 1557.98,1038.86 1560.51,1038.86 1563.04,1038.86 1565.56,1038.85 1568.09,1038.85 1570.62,1038.85 1573.14,1038.84 1575.67,1038.84 1578.2,1038.83 1580.72,1038.83 1583.25,1038.83 1585.78,1038.82 1588.3,1038.82 1590.83,1038.81 1593.36,1038.81 1595.89,1038.81 1598.41,1038.8 1600.94,1038.8 1603.47,1038.79 1605.99,1038.79 1608.52,1038.79 1611.05,1038.78 1613.57,1038.78 1616.1,1038.78 1618.63,1038.77 1621.15,1038.77 1623.68,1038.76 1626.21,1038.76 1628.74,1038.76 1631.26,1038.75 1633.79,1038.75 1636.32,1038.74 1638.84,1038.74 1641.37,1038.74 1643.9,1038.73 1646.42,1038.73 1648.95,1038.73 1651.48,1038.72 1654.01,1038.72 1656.53,1038.71 1659.06,1038.71 1661.59,1038.71 1664.11,1038.7 1666.64,1038.7 1669.17,1038.7 1671.69,1038.69 1674.22,1038.69 1676.75,1038.69 1679.27,1038.68 1681.8,1038.68 1684.33,1038.67 1686.86,1038.67 1689.38,1038.67 1691.91,1038.66 1694.44,1038.66 1696.96,1038.66 1699.49,1038.65 1702.02,1038.65 1704.54,1038.64 1707.07,1038.64 1709.6,1038.64 1712.12,1038.63 1714.65,1038.63 1717.18,1038.63 1719.71,1038.62 1722.23,1038.62 1724.76,1038.62 1727.29,1038.61 1729.81,1038.61 1732.34,1038.61 1734.87,1038.6 1737.39,1038.6 1739.92,1038.59 1742.45,1038.59 1744.98,1038.59 1747.5,1038.58 1750.03,1038.58 1752.56,1038.58 1755.08,1038.57 1757.61,1038.57 1760.14,1038.57 1762.66,1038.56 1765.19,1038.56 1767.72,1038.56 1770.24,1038.55 1772.77,1038.55 1775.3,1038.55 1777.83,1038.54 1780.35,1038.54 1782.88,1038.54 1785.41,1038.53 1787.93,1038.53 1790.46,1038.53 1792.99,1038.52 1795.51,1038.52 1798.04,1038.51 1800.57,1038.51 1803.09,1038.51 1805.62,1038.5 1808.15,1038.5 1810.68,1038.5 1813.2,1038.49 1815.73,1038.49 1818.26,1038.49 1820.78,1038.48 1823.31,1038.48 1825.84,1038.48 1828.36,1038.47 1830.89,1038.47 1833.42,1038.47 1835.95,1038.46 1838.47,1038.46 1841,1038.46 1843.53,1038.45 1846.05,1038.45 1848.58,1038.45 1851.11,1038.44 1853.63,1038.44 1856.16,1038.44 1858.69,1038.44 1861.21,1038.43 1863.74,1038.43 1866.27,1038.43 1868.8,1038.42 1871.32,1038.42 1873.85,1038.42 1876.38,1038.41 1878.9,1038.41 1881.43,1038.41 1883.96,1038.4 1886.48,1038.4 1889.01,1038.4 1891.54,1038.39 1894.06,1038.39 1896.59,1038.39 1899.12,1038.38 1901.65,1038.38 1904.17,1038.38 1906.7,1038.37 1909.23,1038.37 1911.75,1038.37 1914.28,1038.36 1916.81,1038.36 1919.33,1038.36 1921.86,1038.36 1924.39,1038.35 1926.92,1038.35 1929.44,1038.35 1931.97,1038.34 1934.5,1038.34 1937.02,1038.34 1939.55,1038.33 1942.08,1038.33 1944.6,1038.33 1947.13,1038.32 1949.66,1038.32 1952.18,1038.32 1954.71,1038.32 1957.24,1038.31 1959.77,1038.31 1962.29,1038.31 1964.82,1038.3 1967.35,1038.3 1969.87,1038.3 1972.4,1038.29 1974.93,1038.29 1977.45,1038.29 1979.98,1038.29 1982.51,1038.28 1985.03,1038.28 1987.56,1038.28 1990.09,1038.27 1992.62,1038.27 1995.14,1038.27 1997.67,1038.27 2000.2,1038.26 2002.72,1038.26 2005.25,1038.26 2007.78,1038.25 2010.3,1038.25 2012.83,1038.25 2015.36,1038.24 2017.89,1038.24 2020.41,1038.24 2022.94,1038.24 2025.47,1038.23 2027.99,1038.23 2030.52,1038.23 2033.05,1038.22 2035.57,1038.22 2038.1,1038.22 2040.63,1038.22 2043.15,1038.21 2045.68,1038.21 2048.21,1038.21 2050.74,1038.2 2053.26,1038.2 2055.79,1038.2 2058.32,1038.2 2060.84,1038.19 2063.37,1038.19 2065.9,1038.19 2068.42,1038.19 2070.95,1038.18 2073.48,1038.18 2076,1038.18 2078.53,1038.17 2081.06,1038.17 2083.59,1038.17 2086.11,1038.17 2088.64,1038.16 2091.17,1038.16 2093.69,1038.16 2096.22,1038.16 2098.75,1038.15 2101.27,1038.15 2103.8,1038.15 2106.33,1038.14 2108.86,1038.14 2111.38,1038.14 2113.91,1038.14 2116.44,1038.13 2118.96,1038.13 2121.49,1038.13 2124.02,1038.13 2126.54,1038.12 2129.07,1038.12 2131.6,1038.12 2134.12,1038.12 2136.65,1038.11 2139.18,1038.11 2141.71,1038.11 2144.23,1038.1 2146.76,1038.1 2149.29,1038.1 2151.81,1038.1 2154.34,1038.09 2156.87,1038.09 2159.39,1038.09 2161.92,1038.09 2164.45,1038.08 2166.97,1038.08 2169.5,1038.08 2172.03,1038.08 2174.56,1038.07 2177.08,1038.07 2179.61,1038.07 2182.14,1038.07 2184.66,1038.06 2187.19,1038.06 2189.72,1038.06 2192.24,1038.06 2194.77,1038.05 2197.3,1038.05 2199.83,1038.05 2202.35,1038.05 2204.88,1038.04 2207.41,1038.04 2209.93,1038.04 2212.46,1038.04 2214.99,1038.03 2217.51,1038.03 2220.04,1038.03 2222.57,1038.03 2225.09,1038.02 2227.62,1038.02 2230.15,1038.02 2232.68,1038.02 2235.2,1038.02 2237.73,1038.01 2240.26,1038.01 2242.78,1038.01 2245.31,1038.01 2247.84,1038 2250.36,1038 2252.89,1038 2255.42,1038 2257.94,1037.99 2260.47,1037.99 2263,1037.99 2265.53,1037.99 2268.05,1037.98 2270.58,1037.98 2273.11,1037.98 2275.63,1037.98 2278.16,1037.97 2280.69,1037.97 2283.21,1037.97 2285.74,1037.97 2288.27,1037.97 2290.8,1037.96 2293.32,1037.96 "/>
<polyline clip-path="url(#clip013)" style="stroke:#ac8d18; stroke-linecap:round; stroke-linejoin:round; stroke-width:4; stroke-opacity:1; fill:none" points="312.198,1143.16 314.725,1146.15 317.252,1148.59 319.779,1150.58 322.305,1152.2 324.832,1153.52 327.359,1154.6 329.886,1155.49 332.413,1156.23 334.94,1156.84 337.467,1157.35 339.994,1157.79 342.521,1158.15 345.048,1158.47 347.575,1158.75 350.102,1158.99 352.629,1159.21 355.156,1159.4 357.683,1159.58 360.21,1159.74 362.737,1159.89 365.264,1160.03 367.79,1160.16 370.317,1160.29 372.844,1160.41 375.371,1160.52 377.898,1160.63 380.425,1160.74 382.952,1160.84 385.479,1160.94 388.006,1161.03 390.533,1161.13 393.06,1161.22 395.587,1161.31 398.114,1161.4 400.641,1161.48 403.168,1161.56 405.695,1161.64 408.222,1161.72 410.749,1161.8 413.275,1161.88 415.802,1161.95 418.329,1162.02 420.856,1162.09 423.383,1162.16 425.91,1162.23 428.437,1162.3 430.964,1162.36 433.491,1162.42 436.018,1162.49 438.545,1162.55 441.072,1162.61 443.599,1162.67 446.126,1162.72 448.653,1162.78 451.18,1162.83 453.707,1162.89 456.234,1162.94 458.76,1162.99 461.287,1163.05 463.814,1163.1 466.341,1163.14 468.868,1163.19 471.395,1163.24 473.922,1163.29 476.449,1163.33 478.976,1163.38 481.503,1163.42 484.03,1163.47 486.557,1163.51 489.084,1163.55 491.611,1163.59 494.138,1163.63 496.665,1163.67 499.192,1163.71 501.719,1163.75 504.245,1163.79 506.772,1163.83 509.299,1163.86 511.826,1163.9 514.353,1163.93 516.88,1163.97 519.407,1164 521.934,1164.04 524.461,1164.07 526.988,1164.11 529.515,1164.14 532.042,1164.17 534.569,1164.2 537.096,1164.23 539.623,1164.27 542.15,1164.3 544.677,1164.33 547.204,1164.36 549.73,1164.39 552.257,1164.41 554.784,1164.44 557.311,1164.47 559.838,1164.5 562.365,1164.53 564.892,1164.55 567.419,1164.58 569.946,1164.61 572.473,1164.63 575,1164.66 577.527,1164.69 580.054,1164.71 582.581,1164.74 585.108,1164.76 587.635,1164.78 590.162,1164.81 592.689,1164.83 595.215,1164.86 597.742,1164.88 600.269,1164.9 602.796,1164.92 605.323,1164.95 607.85,1164.97 610.377,1164.99 612.904,1165.01 615.431,1165.03 617.958,1165.06 620.485,1165.08 623.012,1165.1 625.539,1165.12 628.066,1165.14 630.593,1165.16 633.12,1165.18 635.647,1165.2 638.174,1165.22 640.7,1165.24 643.227,1165.26 645.754,1165.27 648.281,1165.29 650.808,1165.31 653.335,1165.33 655.862,1165.35 658.389,1165.36 660.916,1165.38 663.443,1165.4 665.97,1165.42 668.497,1165.43 671.024,1165.45 673.551,1165.47 676.078,1165.48 678.605,1165.5 681.132,1165.52 683.659,1165.53 686.185,1165.55 688.712,1165.56 691.239,1165.58 693.766,1165.59 696.293,1165.61 698.82,1165.63 701.347,1165.64 703.874,1165.65 706.401,1165.67 708.928,1165.68 711.455,1165.7 713.982,1165.71 716.509,1165.73 719.036,1165.74 721.563,1165.75 724.09,1165.77 726.617,1165.78 729.144,1165.79 731.67,1165.81 734.197,1165.82 736.724,1165.83 739.251,1165.85 741.778,1165.86 744.305,1165.87 746.832,1165.88 749.359,1165.9 751.886,1165.91 754.413,1165.92 756.94,1165.93 759.467,1165.94 761.994,1165.96 764.521,1165.97 767.048,1165.98 769.575,1165.99 772.102,1166 774.629,1166.01 777.155,1166.02 779.682,1166.03 782.209,1166.04 784.736,1166.06 787.263,1166.07 789.79,1166.08 792.317,1166.09 794.844,1166.1 797.371,1166.11 799.898,1166.12 802.425,1166.13 804.952,1166.14 807.479,1166.15 810.006,1166.16 812.533,1166.17 815.06,1166.18 817.587,1166.19 820.114,1166.19 822.64,1166.2 825.167,1166.21 827.694,1166.22 830.221,1166.23 832.748,1166.24 835.275,1166.25 837.802,1166.26 840.329,1166.27 842.856,1166.27 845.383,1166.28 847.91,1166.29 850.437,1166.3 852.964,1166.31 855.491,1166.32 858.018,1166.32 860.545,1166.33 863.072,1166.34 865.599,1166.35 868.125,1166.36 870.652,1166.36 873.179,1166.37 875.706,1166.38 878.233,1166.39 880.76,1166.39 883.287,1166.4 885.814,1166.41 888.341,1166.42 890.868,1166.42 893.395,1166.43 895.922,1166.44 898.449,1166.44 900.976,1166.45 903.503,1166.46 906.03,1166.46 908.557,1166.47 911.084,1166.48 913.61,1166.48 916.137,1166.49 918.664,1166.5 921.191,1166.5 923.718,1166.51 926.245,1166.52 928.772,1166.52 931.299,1166.53 933.826,1166.53 936.353,1166.54 938.88,1166.55 941.407,1166.55 943.934,1166.56 946.461,1166.56 948.988,1166.57 951.515,1166.57 954.042,1166.58 956.569,1166.59 959.095,1166.59 961.622,1166.6 964.149,1166.6 966.676,1166.61 969.203,1166.61 971.73,1166.62 974.257,1166.62 976.784,1166.63 979.311,1166.63 981.838,1166.64 984.365,1166.64 986.892,1166.65 989.419,1166.65 991.946,1166.66 994.473,1166.66 997,1166.67 999.527,1166.67 1002.05,1166.68 1004.58,1166.68 1007.11,1166.69 1009.63,1166.69 1012.16,1166.69 1014.69,1166.7 1017.22,1166.7 1019.74,1166.71 1022.27,1166.71 1024.8,1166.72 1027.32,1166.72 1029.85,1166.72 1032.38,1166.73 1034.9,1166.73 1037.43,1166.74 1039.96,1166.74 1042.48,1166.75 1045.01,1166.75 1047.54,1166.75 1050.07,1166.76 1052.59,1166.76 1055.12,1166.76 1057.65,1166.77 1060.17,1166.77 1062.7,1166.78 1065.23,1166.78 1067.75,1166.78 1070.28,1166.79 1072.81,1166.79 1075.33,1166.79 1077.86,1166.8 1080.39,1166.8 1082.92,1166.8 1085.44,1166.81 1087.97,1166.81 1090.5,1166.81 1093.02,1166.82 1095.55,1166.82 1098.08,1166.82 1100.6,1166.83 1103.13,1166.83 1105.66,1166.83 1108.19,1166.84 1110.71,1166.84 1113.24,1166.84 1115.77,1166.85 1118.29,1166.85 1120.82,1166.85 1123.35,1166.85 1125.87,1166.86 1128.4,1166.86 1130.93,1166.86 1133.45,1166.87 1135.98,1166.87 1138.51,1166.87 1141.04,1166.87 1143.56,1166.88 1146.09,1166.88 1148.62,1166.88 1151.14,1166.89 1153.67,1166.89 1156.2,1166.89 1158.72,1166.89 1161.25,1166.9 1163.78,1166.9 1166.3,1166.9 1168.83,1166.9 1171.36,1166.91 1173.89,1166.91 1176.41,1166.91 1178.94,1166.91 1181.47,1166.91 1183.99,1166.92 1186.52,1166.92 1189.05,1166.92 1191.57,1166.92 1194.1,1166.93 1196.63,1166.93 1199.16,1166.93 1201.68,1166.93 1204.21,1166.93 1206.74,1166.94 1209.26,1166.94 1211.79,1166.94 1214.32,1166.94 1216.84,1166.94 1219.37,1166.95 1221.9,1166.95 1224.42,1166.95 1226.95,1166.95 1229.48,1166.95 1232.01,1166.96 1234.53,1166.96 1237.06,1166.96 1239.59,1166.96 1242.11,1166.96 1244.64,1166.97 1247.17,1166.97 1249.69,1166.97 1252.22,1166.97 1254.75,1166.97 1257.27,1166.97 1259.8,1166.98 1262.33,1166.98 1264.86,1166.98 1267.38,1166.98 1269.91,1166.98 1272.44,1166.98 1274.96,1166.99 1277.49,1166.99 1280.02,1166.99 1282.54,1166.99 1285.07,1166.99 1287.6,1166.99 1290.13,1167 1292.65,1167 1295.18,1167 1297.71,1167 1300.23,1167 1302.76,1167 1305.29,1167 1307.81,1167.01 1310.34,1167.01 1312.87,1167.01 1315.39,1167.01 1317.92,1167.01 1320.45,1167.01 1322.98,1167.01 1325.5,1167.01 1328.03,1167.02 1330.56,1167.02 1333.08,1167.02 1335.61,1167.02 1338.14,1167.02 1340.66,1167.02 1343.19,1167.02 1345.72,1167.02 1348.24,1167.03 1350.77,1167.03 1353.3,1167.03 1355.83,1167.03 1358.35,1167.03 1360.88,1167.03 1363.41,1167.03 1365.93,1167.03 1368.46,1167.03 1370.99,1167.03 1373.51,1167.04 1376.04,1167.04 1378.57,1167.04 1381.1,1167.04 1383.62,1167.04 1386.15,1167.04 1388.68,1167.04 1391.2,1167.04 1393.73,1167.04 1396.26,1167.04 1398.78,1167.05 1401.31,1167.05 1403.84,1167.05 1406.36,1167.05 1408.89,1167.05 1411.42,1167.05 1413.95,1167.05 1416.47,1167.05 1419,1167.05 1421.53,1167.05 1424.05,1167.05 1426.58,1167.05 1429.11,1167.06 1431.63,1167.06 1434.16,1167.06 1436.69,1167.06 1439.21,1167.06 1441.74,1167.06 1444.27,1167.06 1446.8,1167.06 1449.32,1167.06 1451.85,1167.06 1454.38,1167.06 1456.9,1167.06 1459.43,1167.06 1461.96,1167.06 1464.48,1167.06 1467.01,1167.07 1469.54,1167.07 1472.07,1167.07 1474.59,1167.07 1477.12,1167.07 1479.65,1167.07 1482.17,1167.07 1484.7,1167.07 1487.23,1167.07 1489.75,1167.07 1492.28,1167.07 1494.81,1167.07 1497.33,1167.07 1499.86,1167.07 1502.39,1167.07 1504.92,1167.07 1507.44,1167.07 1509.97,1167.07 1512.5,1167.08 1515.02,1167.08 1517.55,1167.08 1520.08,1167.08 1522.6,1167.08 1525.13,1167.08 1527.66,1167.08 1530.18,1167.08 1532.71,1167.08 1535.24,1167.08 1537.77,1167.08 1540.29,1167.08 1542.82,1167.08 1545.35,1167.08 1547.87,1167.08 1550.4,1167.08 1552.93,1167.08 1555.45,1167.08 1557.98,1167.08 1560.51,1167.08 1563.04,1167.08 1565.56,1167.08 1568.09,1167.08 1570.62,1167.08 1573.14,1167.08 1575.67,1167.08 1578.2,1167.09 1580.72,1167.09 1583.25,1167.09 1585.78,1167.09 1588.3,1167.09 1590.83,1167.09 1593.36,1167.09 1595.89,1167.09 1598.41,1167.09 1600.94,1167.09 1603.47,1167.09 1605.99,1167.09 1608.52,1167.09 1611.05,1167.09 1613.57,1167.09 1616.1,1167.09 1618.63,1167.09 1621.15,1167.09 1623.68,1167.09 1626.21,1167.09 1628.74,1167.09 1631.26,1167.09 1633.79,1167.09 1636.32,1167.09 1638.84,1167.09 1641.37,1167.09 1643.9,1167.09 1646.42,1167.09 1648.95,1167.09 1651.48,1167.09 1654.01,1167.09 1656.53,1167.09 1659.06,1167.09 1661.59,1167.09 1664.11,1167.09 1666.64,1167.09 1669.17,1167.09 1671.69,1167.09 1674.22,1167.09 1676.75,1167.09 1679.27,1167.09 1681.8,1167.09 1684.33,1167.09 1686.86,1167.09 1689.38,1167.09 1691.91,1167.09 1694.44,1167.09 1696.96,1167.09 1699.49,1167.09 1702.02,1167.09 1704.54,1167.09 1707.07,1167.09 1709.6,1167.09 1712.12,1167.09 1714.65,1167.09 1717.18,1167.09 1719.71,1167.09 1722.23,1167.09 1724.76,1167.09 1727.29,1167.09 1729.81,1167.09 1732.34,1167.09 1734.87,1167.09 1737.39,1167.09 1739.92,1167.09 1742.45,1167.09 1744.98,1167.09 1747.5,1167.09 1750.03,1167.09 1752.56,1167.09 1755.08,1167.09 1757.61,1167.09 1760.14,1167.09 1762.66,1167.09 1765.19,1167.09 1767.72,1167.09 1770.24,1167.09 1772.77,1167.09 1775.3,1167.09 1777.83,1167.09 1780.35,1167.09 1782.88,1167.09 1785.41,1167.09 1787.93,1167.09 1790.46,1167.09 1792.99,1167.09 1795.51,1167.09 1798.04,1167.09 1800.57,1167.09 1803.09,1167.09 1805.62,1167.09 1808.15,1167.09 1810.68,1167.09 1813.2,1167.09 1815.73,1167.09 1818.26,1167.09 1820.78,1167.09 1823.31,1167.09 1825.84,1167.09 1828.36,1167.09 1830.89,1167.09 1833.42,1167.09 1835.95,1167.09 1838.47,1167.09 1841,1167.09 1843.53,1167.09 1846.05,1167.09 1848.58,1167.09 1851.11,1167.09 1853.63,1167.09 1856.16,1167.09 1858.69,1167.09 1861.21,1167.09 1863.74,1167.09 1866.27,1167.09 1868.8,1167.09 1871.32,1167.09 1873.85,1167.09 1876.38,1167.09 1878.9,1167.09 1881.43,1167.09 1883.96,1167.09 1886.48,1167.09 1889.01,1167.09 1891.54,1167.09 1894.06,1167.09 1896.59,1167.09 1899.12,1167.09 1901.65,1167.09 1904.17,1167.09 1906.7,1167.09 1909.23,1167.09 1911.75,1167.09 1914.28,1167.09 1916.81,1167.09 1919.33,1167.09 1921.86,1167.09 1924.39,1167.09 1926.92,1167.09 1929.44,1167.09 1931.97,1167.09 1934.5,1167.09 1937.02,1167.08 1939.55,1167.08 1942.08,1167.08 1944.6,1167.08 1947.13,1167.08 1949.66,1167.08 1952.18,1167.08 1954.71,1167.08 1957.24,1167.08 1959.77,1167.08 1962.29,1167.08 1964.82,1167.08 1967.35,1167.08 1969.87,1167.08 1972.4,1167.08 1974.93,1167.08 1977.45,1167.08 1979.98,1167.08 1982.51,1167.08 1985.03,1167.08 1987.56,1167.08 1990.09,1167.08 "/>
<path clip-path="url(#clip010)" d="M1928.45 406.258 L2282.76 406.258 L2282.76 95.2176 L1928.45 95.2176  Z" fill="#ffffff" fill-rule="evenodd" fill-opacity="1"/>
<polyline clip-path="url(#clip010)" style="stroke:#000000; stroke-linecap:round; stroke-linejoin:round; stroke-width:4; stroke-opacity:1; fill:none" points="1928.45,406.258 2282.76,406.258 2282.76,95.2176 1928.45,95.2176 1928.45,406.258 "/>
<polyline clip-path="url(#clip010)" style="stroke:#009af9; stroke-linecap:round; stroke-linejoin:round; stroke-width:4; stroke-opacity:1; fill:none" points="1951.79,147.058 2091.78,147.058 "/>
<path clip-path="url(#clip010)" d="M2130.3 142.393 Q2129.59 141.977 2128.73 141.791 Q2127.9 141.583 2126.88 141.583 Q2123.27 141.583 2121.32 143.944 Q2119.4 146.282 2119.4 150.68 L2119.4 164.338 L2115.12 164.338 L2115.12 138.412 L2119.4 138.412 L2119.4 142.44 Q2120.74 140.078 2122.9 138.944 Q2125.05 137.787 2128.13 137.787 Q2128.57 137.787 2129.1 137.856 Q2129.63 137.903 2130.28 138.018 L2130.3 142.393 Z" fill="#000000" fill-rule="evenodd" fill-opacity="1" /><path clip-path="url(#clip010)" d="M2146.55 151.305 Q2141.39 151.305 2139.4 152.486 Q2137.41 153.666 2137.41 156.514 Q2137.41 158.782 2138.89 160.125 Q2140.4 161.444 2142.97 161.444 Q2146.51 161.444 2148.64 158.944 Q2150.79 156.421 2150.79 152.254 L2150.79 151.305 L2146.55 151.305 M2155.05 149.546 L2155.05 164.338 L2150.79 164.338 L2150.79 160.402 Q2149.33 162.763 2147.16 163.898 Q2144.98 165.009 2141.83 165.009 Q2137.85 165.009 2135.49 162.787 Q2133.15 160.541 2133.15 156.791 Q2133.15 152.416 2136.07 150.194 Q2139.01 147.972 2144.82 147.972 L2150.79 147.972 L2150.79 147.555 Q2150.79 144.615 2148.84 143.018 Q2146.92 141.398 2143.43 141.398 Q2141.21 141.398 2139.1 141.93 Q2136.99 142.463 2135.05 143.527 L2135.05 139.592 Q2137.39 138.69 2139.59 138.25 Q2141.78 137.787 2143.87 137.787 Q2149.49 137.787 2152.27 140.703 Q2155.05 143.62 2155.05 149.546 Z" fill="#000000" fill-rule="evenodd" fill-opacity="1" /><path clip-path="url(#clip010)" d="M2185.37 148.689 L2185.37 164.338 L2181.11 164.338 L2181.11 148.828 Q2181.11 145.148 2179.68 143.319 Q2178.24 141.49 2175.37 141.49 Q2171.92 141.49 2169.93 143.69 Q2167.94 145.889 2167.94 149.685 L2167.94 164.338 L2163.66 164.338 L2163.66 138.412 L2167.94 138.412 L2167.94 142.44 Q2169.47 140.102 2171.53 138.944 Q2173.61 137.787 2176.32 137.787 Q2180.79 137.787 2183.08 140.565 Q2185.37 143.319 2185.37 148.689 Z" fill="#000000" fill-rule="evenodd" fill-opacity="1" /><path clip-path="url(#clip010)" d="M2193.71 128.319 L2197.99 128.319 L2197.99 149.592 L2210.7 138.412 L2216.14 138.412 L2202.39 150.541 L2216.71 164.338 L2211.16 164.338 L2197.99 151.676 L2197.99 164.338 L2193.71 164.338 L2193.71 128.319 Z" fill="#000000" fill-rule="evenodd" fill-opacity="1" /><path clip-path="url(#clip010)" d="M2237.8 160.402 L2245.44 160.402 L2245.44 134.037 L2237.13 135.703 L2237.13 131.444 L2245.4 129.778 L2250.07 129.778 L2250.07 160.402 L2257.71 160.402 L2257.71 164.338 L2237.8 164.338 L2237.8 160.402 Z" fill="#000000" fill-rule="evenodd" fill-opacity="1" /><polyline clip-path="url(#clip010)" style="stroke:#e26f46; stroke-linecap:round; stroke-linejoin:round; stroke-width:4; stroke-opacity:1; fill:none" points="1951.79,198.898 2091.78,198.898 "/>
<path clip-path="url(#clip010)" d="M2130.3 194.233 Q2129.59 193.817 2128.73 193.631 Q2127.9 193.423 2126.88 193.423 Q2123.27 193.423 2121.32 195.784 Q2119.4 198.122 2119.4 202.52 L2119.4 216.178 L2115.12 216.178 L2115.12 190.252 L2119.4 190.252 L2119.4 194.28 Q2120.74 191.918 2122.9 190.784 Q2125.05 189.627 2128.13 189.627 Q2128.57 189.627 2129.1 189.696 Q2129.63 189.743 2130.28 189.858 L2130.3 194.233 Z" fill="#000000" fill-rule="evenodd" fill-opacity="1" /><path clip-path="url(#clip010)" d="M2146.55 203.145 Q2141.39 203.145 2139.4 204.326 Q2137.41 205.506 2137.41 208.354 Q2137.41 210.622 2138.89 211.965 Q2140.4 213.284 2142.97 213.284 Q2146.51 213.284 2148.64 210.784 Q2150.79 208.261 2150.79 204.094 L2150.79 203.145 L2146.55 203.145 M2155.05 201.386 L2155.05 216.178 L2150.79 216.178 L2150.79 212.242 Q2149.33 214.603 2147.16 215.738 Q2144.98 216.849 2141.83 216.849 Q2137.85 216.849 2135.49 214.627 Q2133.15 212.381 2133.15 208.631 Q2133.15 204.256 2136.07 202.034 Q2139.01 199.812 2144.82 199.812 L2150.79 199.812 L2150.79 199.395 Q2150.79 196.455 2148.84 194.858 Q2146.92 193.238 2143.43 193.238 Q2141.21 193.238 2139.1 193.77 Q2136.99 194.303 2135.05 195.367 L2135.05 191.432 Q2137.39 190.53 2139.59 190.09 Q2141.78 189.627 2143.87 189.627 Q2149.49 189.627 2152.27 192.543 Q2155.05 195.46 2155.05 201.386 Z" fill="#000000" fill-rule="evenodd" fill-opacity="1" /><path clip-path="url(#clip010)" d="M2185.37 200.529 L2185.37 216.178 L2181.11 216.178 L2181.11 200.668 Q2181.11 196.988 2179.68 195.159 Q2178.24 193.33 2175.37 193.33 Q2171.92 193.33 2169.93 195.53 Q2167.94 197.729 2167.94 201.525 L2167.94 216.178 L2163.66 216.178 L2163.66 190.252 L2167.94 190.252 L2167.94 194.28 Q2169.47 191.942 2171.53 190.784 Q2173.61 189.627 2176.32 189.627 Q2180.79 189.627 2183.08 192.405 Q2185.37 195.159 2185.37 200.529 Z" fill="#000000" fill-rule="evenodd" fill-opacity="1" /><path clip-path="url(#clip010)" d="M2193.71 180.159 L2197.99 180.159 L2197.99 201.432 L2210.7 190.252 L2216.14 190.252 L2202.39 202.381 L2216.71 216.178 L2211.16 216.178 L2197.99 203.516 L2197.99 216.178 L2193.71 216.178 L2193.71 180.159 Z" fill="#000000" fill-rule="evenodd" fill-opacity="1" /><path clip-path="url(#clip010)" d="M2241.02 212.242 L2257.34 212.242 L2257.34 216.178 L2235.4 216.178 L2235.4 212.242 Q2238.06 209.488 2242.64 204.858 Q2247.25 200.205 2248.43 198.863 Q2250.67 196.34 2251.55 194.604 Q2252.46 192.844 2252.46 191.155 Q2252.46 188.4 2250.51 186.664 Q2248.59 184.928 2245.49 184.928 Q2243.29 184.928 2240.84 185.692 Q2238.4 186.455 2235.63 188.006 L2235.63 183.284 Q2238.45 182.15 2240.9 181.571 Q2243.36 180.993 2245.4 180.993 Q2250.77 180.993 2253.96 183.678 Q2257.15 186.363 2257.15 190.854 Q2257.15 192.983 2256.34 194.905 Q2255.56 196.803 2253.45 199.395 Q2252.87 200.067 2249.77 203.284 Q2246.67 206.479 2241.02 212.242 Z" fill="#000000" fill-rule="evenodd" fill-opacity="1" /><polyline clip-path="url(#clip010)" style="stroke:#3da44d; stroke-linecap:round; stroke-linejoin:round; stroke-width:4; stroke-opacity:1; fill:none" points="1951.79,250.738 2091.78,250.738 "/>
<path clip-path="url(#clip010)" d="M2130.3 246.073 Q2129.59 245.657 2128.73 245.471 Q2127.9 245.263 2126.88 245.263 Q2123.27 245.263 2121.32 247.624 Q2119.4 249.962 2119.4 254.36 L2119.4 268.018 L2115.12 268.018 L2115.12 242.092 L2119.4 242.092 L2119.4 246.12 Q2120.74 243.758 2122.9 242.624 Q2125.05 241.467 2128.13 241.467 Q2128.57 241.467 2129.1 241.536 Q2129.63 241.583 2130.28 241.698 L2130.3 246.073 Z" fill="#000000" fill-rule="evenodd" fill-opacity="1" /><path clip-path="url(#clip010)" d="M2146.55 254.985 Q2141.39 254.985 2139.4 256.166 Q2137.41 257.346 2137.41 260.194 Q2137.41 262.462 2138.89 263.805 Q2140.4 265.124 2142.97 265.124 Q2146.51 265.124 2148.64 262.624 Q2150.79 260.101 2150.79 255.934 L2150.79 254.985 L2146.55 254.985 M2155.05 253.226 L2155.05 268.018 L2150.79 268.018 L2150.79 264.082 Q2149.33 266.443 2147.16 267.578 Q2144.98 268.689 2141.83 268.689 Q2137.85 268.689 2135.49 266.467 Q2133.15 264.221 2133.15 260.471 Q2133.15 256.096 2136.07 253.874 Q2139.01 251.652 2144.82 251.652 L2150.79 251.652 L2150.79 251.235 Q2150.79 248.295 2148.84 246.698 Q2146.92 245.078 2143.43 245.078 Q2141.21 245.078 2139.1 245.61 Q2136.99 246.143 2135.05 247.207 L2135.05 243.272 Q2137.39 242.37 2139.59 241.93 Q2141.78 241.467 2143.87 241.467 Q2149.49 241.467 2152.27 244.383 Q2155.05 247.3 2155.05 253.226 Z" fill="#000000" fill-rule="evenodd" fill-opacity="1" /><path clip-path="url(#clip010)" d="M2185.37 252.369 L2185.37 268.018 L2181.11 268.018 L2181.11 252.508 Q2181.11 248.828 2179.68 246.999 Q2178.24 245.17 2175.37 245.17 Q2171.92 245.17 2169.93 247.37 Q2167.94 249.569 2167.94 253.365 L2167.94 268.018 L2163.66 268.018 L2163.66 242.092 L2167.94 242.092 L2167.94 246.12 Q2169.47 243.782 2171.53 242.624 Q2173.61 241.467 2176.32 241.467 Q2180.79 241.467 2183.08 244.245 Q2185.37 246.999 2185.37 252.369 Z" fill="#000000" fill-rule="evenodd" fill-opacity="1" /><path clip-path="url(#clip010)" d="M2193.71 231.999 L2197.99 231.999 L2197.99 253.272 L2210.7 242.092 L2216.14 242.092 L2202.39 254.221 L2216.71 268.018 L2211.16 268.018 L2197.99 255.356 L2197.99 268.018 L2193.71 268.018 L2193.71 231.999 Z" fill="#000000" fill-rule="evenodd" fill-opacity="1" /><path clip-path="url(#clip010)" d="M2251.16 249.383 Q2254.52 250.101 2256.39 252.369 Q2258.29 254.638 2258.29 257.971 Q2258.29 263.087 2254.77 265.888 Q2251.25 268.689 2244.77 268.689 Q2242.59 268.689 2240.28 268.249 Q2237.99 267.832 2235.53 266.976 L2235.53 262.462 Q2237.48 263.596 2239.79 264.175 Q2242.11 264.754 2244.63 264.754 Q2249.03 264.754 2251.32 263.018 Q2253.64 261.281 2253.64 257.971 Q2253.64 254.916 2251.48 253.203 Q2249.35 251.467 2245.53 251.467 L2241.51 251.467 L2241.51 247.624 L2245.72 247.624 Q2249.17 247.624 2251 246.258 Q2252.83 244.87 2252.83 242.277 Q2252.83 239.615 2250.93 238.203 Q2249.05 236.768 2245.53 236.768 Q2243.61 236.768 2241.41 237.184 Q2239.21 237.601 2236.58 238.481 L2236.58 234.314 Q2239.24 233.573 2241.55 233.203 Q2243.89 232.833 2245.95 232.833 Q2251.27 232.833 2254.38 235.263 Q2257.48 237.67 2257.48 241.791 Q2257.48 244.661 2255.83 246.652 Q2254.19 248.62 2251.16 249.383 Z" fill="#000000" fill-rule="evenodd" fill-opacity="1" /><polyline clip-path="url(#clip010)" style="stroke:#c271d2; stroke-linecap:round; stroke-linejoin:round; stroke-width:4; stroke-opacity:1; fill:none" points="1951.79,302.578 2091.78,302.578 "/>
<path clip-path="url(#clip010)" d="M2130.3 297.913 Q2129.59 297.497 2128.73 297.311 Q2127.9 297.103 2126.88 297.103 Q2123.27 297.103 2121.32 299.464 Q2119.4 301.802 2119.4 306.2 L2119.4 319.858 L2115.12 319.858 L2115.12 293.932 L2119.4 293.932 L2119.4 297.96 Q2120.74 295.598 2122.9 294.464 Q2125.05 293.307 2128.13 293.307 Q2128.57 293.307 2129.1 293.376 Q2129.63 293.423 2130.28 293.538 L2130.3 297.913 Z" fill="#000000" fill-rule="evenodd" fill-opacity="1" /><path clip-path="url(#clip010)" d="M2146.55 306.825 Q2141.39 306.825 2139.4 308.006 Q2137.41 309.186 2137.41 312.034 Q2137.41 314.302 2138.89 315.645 Q2140.4 316.964 2142.97 316.964 Q2146.51 316.964 2148.64 314.464 Q2150.79 311.941 2150.79 307.774 L2150.79 306.825 L2146.55 306.825 M2155.05 305.066 L2155.05 319.858 L2150.79 319.858 L2150.79 315.922 Q2149.33 318.283 2147.16 319.418 Q2144.98 320.529 2141.83 320.529 Q2137.85 320.529 2135.49 318.307 Q2133.15 316.061 2133.15 312.311 Q2133.15 307.936 2136.07 305.714 Q2139.01 303.492 2144.82 303.492 L2150.79 303.492 L2150.79 303.075 Q2150.79 300.135 2148.84 298.538 Q2146.92 296.918 2143.43 296.918 Q2141.21 296.918 2139.1 297.45 Q2136.99 297.983 2135.05 299.047 L2135.05 295.112 Q2137.39 294.21 2139.59 293.77 Q2141.78 293.307 2143.87 293.307 Q2149.49 293.307 2152.27 296.223 Q2155.05 299.14 2155.05 305.066 Z" fill="#000000" fill-rule="evenodd" fill-opacity="1" /><path clip-path="url(#clip010)" d="M2185.37 304.209 L2185.37 319.858 L2181.11 319.858 L2181.11 304.348 Q2181.11 300.668 2179.68 298.839 Q2178.24 297.01 2175.37 297.01 Q2171.92 297.01 2169.93 299.21 Q2167.94 301.409 2167.94 305.205 L2167.94 319.858 L2163.66 319.858 L2163.66 293.932 L2167.94 293.932 L2167.94 297.96 Q2169.47 295.622 2171.53 294.464 Q2173.61 293.307 2176.32 293.307 Q2180.79 293.307 2183.08 296.085 Q2185.37 298.839 2185.37 304.209 Z" fill="#000000" fill-rule="evenodd" fill-opacity="1" /><path clip-path="url(#clip010)" d="M2193.71 283.839 L2197.99 283.839 L2197.99 305.112 L2210.7 293.932 L2216.14 293.932 L2202.39 306.061 L2216.71 319.858 L2211.16 319.858 L2197.99 307.196 L2197.99 319.858 L2193.71 319.858 L2193.71 283.839 Z" fill="#000000" fill-rule="evenodd" fill-opacity="1" /><path clip-path="url(#clip010)" d="M2249.84 289.372 L2238.03 307.821 L2249.84 307.821 L2249.84 289.372 M2248.61 285.298 L2254.49 285.298 L2254.49 307.821 L2259.42 307.821 L2259.42 311.709 L2254.49 311.709 L2254.49 319.858 L2249.84 319.858 L2249.84 311.709 L2234.24 311.709 L2234.24 307.196 L2248.61 285.298 Z" fill="#000000" fill-rule="evenodd" fill-opacity="1" /><polyline clip-path="url(#clip010)" style="stroke:#ac8d18; stroke-linecap:round; stroke-linejoin:round; stroke-width:4; stroke-opacity:1; fill:none" points="1951.79,354.418 2091.78,354.418 "/>
<path clip-path="url(#clip010)" d="M2130.3 349.753 Q2129.59 349.337 2128.73 349.151 Q2127.9 348.943 2126.88 348.943 Q2123.27 348.943 2121.32 351.304 Q2119.4 353.642 2119.4 358.04 L2119.4 371.698 L2115.12 371.698 L2115.12 345.772 L2119.4 345.772 L2119.4 349.8 Q2120.74 347.438 2122.9 346.304 Q2125.05 345.147 2128.13 345.147 Q2128.57 345.147 2129.1 345.216 Q2129.63 345.263 2130.28 345.378 L2130.3 349.753 Z" fill="#000000" fill-rule="evenodd" fill-opacity="1" /><path clip-path="url(#clip010)" d="M2146.55 358.665 Q2141.39 358.665 2139.4 359.846 Q2137.41 361.026 2137.41 363.874 Q2137.41 366.142 2138.89 367.485 Q2140.4 368.804 2142.97 368.804 Q2146.51 368.804 2148.64 366.304 Q2150.79 363.781 2150.79 359.614 L2150.79 358.665 L2146.55 358.665 M2155.05 356.906 L2155.05 371.698 L2150.79 371.698 L2150.79 367.762 Q2149.33 370.123 2147.16 371.258 Q2144.98 372.369 2141.83 372.369 Q2137.85 372.369 2135.49 370.147 Q2133.15 367.901 2133.15 364.151 Q2133.15 359.776 2136.07 357.554 Q2139.01 355.332 2144.82 355.332 L2150.79 355.332 L2150.79 354.915 Q2150.79 351.975 2148.84 350.378 Q2146.92 348.758 2143.43 348.758 Q2141.21 348.758 2139.1 349.29 Q2136.99 349.823 2135.05 350.887 L2135.05 346.952 Q2137.39 346.05 2139.59 345.61 Q2141.78 345.147 2143.87 345.147 Q2149.49 345.147 2152.27 348.063 Q2155.05 350.98 2155.05 356.906 Z" fill="#000000" fill-rule="evenodd" fill-opacity="1" /><path clip-path="url(#clip010)" d="M2185.37 356.049 L2185.37 371.698 L2181.11 371.698 L2181.11 356.188 Q2181.11 352.508 2179.68 350.679 Q2178.24 348.85 2175.37 348.85 Q2171.92 348.85 2169.93 351.05 Q2167.94 353.249 2167.94 357.045 L2167.94 371.698 L2163.66 371.698 L2163.66 345.772 L2167.94 345.772 L2167.94 349.8 Q2169.47 347.462 2171.53 346.304 Q2173.61 345.147 2176.32 345.147 Q2180.79 345.147 2183.08 347.925 Q2185.37 350.679 2185.37 356.049 Z" fill="#000000" fill-rule="evenodd" fill-opacity="1" /><path clip-path="url(#clip010)" d="M2193.71 335.679 L2197.99 335.679 L2197.99 356.952 L2210.7 345.772 L2216.14 345.772 L2202.39 357.901 L2216.71 371.698 L2211.16 371.698 L2197.99 359.036 L2197.99 371.698 L2193.71 371.698 L2193.71 335.679 Z" fill="#000000" fill-rule="evenodd" fill-opacity="1" /><path clip-path="url(#clip010)" d="M2237.04 337.138 L2255.4 337.138 L2255.4 341.073 L2241.32 341.073 L2241.32 349.545 Q2242.34 349.198 2243.36 349.036 Q2244.38 348.85 2245.4 348.85 Q2251.18 348.85 2254.56 352.022 Q2257.94 355.193 2257.94 360.61 Q2257.94 366.188 2254.47 369.29 Q2251 372.369 2244.68 372.369 Q2242.5 372.369 2240.23 371.998 Q2237.99 371.628 2235.58 370.887 L2235.58 366.188 Q2237.66 367.323 2239.89 367.878 Q2242.11 368.434 2244.59 368.434 Q2248.59 368.434 2250.93 366.327 Q2253.27 364.221 2253.27 360.61 Q2253.27 356.999 2250.93 354.892 Q2248.59 352.786 2244.59 352.786 Q2242.71 352.786 2240.84 353.202 Q2238.98 353.619 2237.04 354.499 L2237.04 337.138 Z" fill="#000000" fill-rule="evenodd" fill-opacity="1" /></svg>
