<?xml version="1.0" encoding="utf-8"?>
<svg xmlns="http://www.w3.org/2000/svg" xmlns:xlink="http://www.w3.org/1999/xlink" width="600" height="400" viewBox="0 0 2400 1600">
<defs>
  <clipPath id="clip970">
    <rect x="0" y="0" width="2400" height="1600"/>
  </clipPath>
</defs>
<path clip-path="url(#clip970)" d="M0 1600 L2400 1600 L2400 0 L0 0  Z" fill="#ffffff" fill-rule="evenodd" fill-opacity="1"/>
<defs>
  <clipPath id="clip971">
    <rect x="480" y="0" width="1681" height="1600"/>
  </clipPath>
</defs>
<defs>
  <clipPath id="clip972">
    <rect x="219" y="47" width="2134" height="1377"/>
  </clipPath>
</defs>
<path clip-path="url(#clip970)" d="M252.764 1423.18 L2352.76 1423.18 L2352.76 47.2441 L252.764 47.2441  Z" fill="#ffffff" fill-rule="evenodd" fill-opacity="1"/>
<defs>
  <clipPath id="clip973">
    <rect x="252" y="47" width="2101" height="1377"/>
  </clipPath>
</defs>
<polyline clip-path="url(#clip973)" style="stroke:#000000; stroke-linecap:round; stroke-linejoin:round; stroke-width:2; stroke-opacity:0.1; fill:none" points="252.764,1423.18 252.764,47.2441 "/>
<polyline clip-path="url(#clip973)" style="stroke:#000000; stroke-linecap:round; stroke-linejoin:round; stroke-width:2; stroke-opacity:0.1; fill:none" points="672.762,1423.18 672.762,47.2441 "/>
<polyline clip-path="url(#clip973)" style="stroke:#000000; stroke-linecap:round; stroke-linejoin:round; stroke-width:2; stroke-opacity:0.1; fill:none" points="1092.76,1423.18 1092.76,47.2441 "/>
<polyline clip-path="url(#clip973)" style="stroke:#000000; stroke-linecap:round; stroke-linejoin:round; stroke-width:2; stroke-opacity:0.1; fill:none" points="1512.76,1423.18 1512.76,47.2441 "/>
<polyline clip-path="url(#clip973)" style="stroke:#000000; stroke-linecap:round; stroke-linejoin:round; stroke-width:2; stroke-opacity:0.1; fill:none" points="1932.76,1423.18 1932.76,47.2441 "/>
<polyline clip-path="url(#clip973)" style="stroke:#000000; stroke-linecap:round; stroke-linejoin:round; stroke-width:2; stroke-opacity:0.1; fill:none" points="2352.76,1423.18 2352.76,47.2441 "/>
<polyline clip-path="url(#clip970)" style="stroke:#000000; stroke-linecap:round; stroke-linejoin:round; stroke-width:4; stroke-opacity:1; fill:none" points="252.764,1423.18 2352.76,1423.18 "/>
<polyline clip-path="url(#clip970)" style="stroke:#000000; stroke-linecap:round; stroke-linejoin:round; stroke-width:4; stroke-opacity:1; fill:none" points="252.764,1423.18 252.764,1404.28 "/>
<polyline clip-path="url(#clip970)" style="stroke:#000000; stroke-linecap:round; stroke-linejoin:round; stroke-width:4; stroke-opacity:1; fill:none" points="672.762,1423.18 672.762,1404.28 "/>
<polyline clip-path="url(#clip970)" style="stroke:#000000; stroke-linecap:round; stroke-linejoin:round; stroke-width:4; stroke-opacity:1; fill:none" points="1092.76,1423.18 1092.76,1404.28 "/>
<polyline clip-path="url(#clip970)" style="stroke:#000000; stroke-linecap:round; stroke-linejoin:round; stroke-width:4; stroke-opacity:1; fill:none" points="1512.76,1423.18 1512.76,1404.28 "/>
<polyline clip-path="url(#clip970)" style="stroke:#000000; stroke-linecap:round; stroke-linejoin:round; stroke-width:4; stroke-opacity:1; fill:none" points="1932.76,1423.18 1932.76,1404.28 "/>
<polyline clip-path="url(#clip970)" style="stroke:#000000; stroke-linecap:round; stroke-linejoin:round; stroke-width:4; stroke-opacity:1; fill:none" points="2352.76,1423.18 2352.76,1404.28 "/>
<path clip-path="url(#clip970)" d="M243.146 1481.64 L250.785 1481.64 L250.785 1455.28 L242.475 1456.95 L242.475 1452.69 L250.738 1451.02 L255.414 1451.02 L255.414 1481.64 L263.053 1481.64 L263.053 1485.58 L243.146 1485.58 L243.146 1481.64 Z" fill="#000000" fill-rule="evenodd" fill-opacity="1" /><path clip-path="url(#clip970)" d="M667.415 1481.64 L683.735 1481.64 L683.735 1485.58 L661.79 1485.58 L661.79 1481.64 Q664.452 1478.89 669.036 1474.26 Q673.642 1469.61 674.823 1468.27 Q677.068 1465.74 677.947 1464.01 Q678.85 1462.25 678.85 1460.56 Q678.85 1457.8 676.906 1456.07 Q674.985 1454.33 671.883 1454.33 Q669.684 1454.33 667.23 1455.09 Q664.799 1455.86 662.022 1457.41 L662.022 1452.69 Q664.846 1451.55 667.299 1450.97 Q669.753 1450.39 671.79 1450.39 Q677.16 1450.39 680.355 1453.08 Q683.549 1455.77 683.549 1460.26 Q683.549 1462.39 682.739 1464.31 Q681.952 1466.2 679.846 1468.8 Q679.267 1469.47 676.165 1472.69 Q673.063 1475.88 667.415 1481.64 Z" fill="#000000" fill-rule="evenodd" fill-opacity="1" /><path clip-path="url(#clip970)" d="M1097.01 1466.95 Q1100.36 1467.66 1102.24 1469.93 Q1104.14 1472.2 1104.14 1475.53 Q1104.14 1480.65 1100.62 1483.45 Q1097.1 1486.25 1090.62 1486.25 Q1088.44 1486.25 1086.13 1485.81 Q1083.84 1485.39 1081.38 1484.54 L1081.38 1480.02 Q1083.33 1481.16 1085.64 1481.74 Q1087.96 1482.32 1090.48 1482.32 Q1094.88 1482.32 1097.17 1480.58 Q1099.49 1478.84 1099.49 1475.53 Q1099.49 1472.48 1097.33 1470.77 Q1095.2 1469.03 1091.38 1469.03 L1087.36 1469.03 L1087.36 1465.19 L1091.57 1465.19 Q1095.02 1465.19 1096.85 1463.82 Q1098.68 1462.43 1098.68 1459.84 Q1098.68 1457.18 1096.78 1455.77 Q1094.9 1454.33 1091.38 1454.33 Q1089.46 1454.33 1087.26 1454.75 Q1085.06 1455.16 1082.43 1456.04 L1082.43 1451.88 Q1085.09 1451.14 1087.4 1450.77 Q1089.74 1450.39 1091.8 1450.39 Q1097.12 1450.39 1100.23 1452.83 Q1103.33 1455.23 1103.33 1459.35 Q1103.33 1462.22 1101.68 1464.21 Q1100.04 1466.18 1097.01 1466.95 Z" fill="#000000" fill-rule="evenodd" fill-opacity="1" /><path clip-path="url(#clip970)" d="M1515.77 1455.09 L1503.96 1473.54 L1515.77 1473.54 L1515.77 1455.09 M1514.54 1451.02 L1520.42 1451.02 L1520.42 1473.54 L1525.35 1473.54 L1525.35 1477.43 L1520.42 1477.43 L1520.42 1485.58 L1515.77 1485.58 L1515.77 1477.43 L1500.17 1477.43 L1500.17 1472.92 L1514.54 1451.02 Z" fill="#000000" fill-rule="evenodd" fill-opacity="1" /><path clip-path="url(#clip970)" d="M1923.04 1451.02 L1941.39 1451.02 L1941.39 1454.96 L1927.32 1454.96 L1927.32 1463.43 Q1928.34 1463.08 1929.35 1462.92 Q1930.37 1462.73 1931.39 1462.73 Q1937.18 1462.73 1940.56 1465.9 Q1943.94 1469.08 1943.94 1474.49 Q1943.94 1480.07 1940.47 1483.17 Q1936.99 1486.25 1930.67 1486.25 Q1928.5 1486.25 1926.23 1485.88 Q1923.98 1485.51 1921.58 1484.77 L1921.58 1480.07 Q1923.66 1481.2 1925.88 1481.76 Q1928.1 1482.32 1930.58 1482.32 Q1934.59 1482.32 1936.92 1480.21 Q1939.26 1478.1 1939.26 1474.49 Q1939.26 1470.88 1936.92 1468.77 Q1934.59 1466.67 1930.58 1466.67 Q1928.71 1466.67 1926.83 1467.08 Q1924.98 1467.5 1923.04 1468.38 L1923.04 1451.02 Z" fill="#000000" fill-rule="evenodd" fill-opacity="1" /><path clip-path="url(#clip970)" d="M2353.16 1466.44 Q2350.01 1466.44 2348.16 1468.59 Q2346.33 1470.74 2346.33 1474.49 Q2346.33 1478.22 2348.16 1480.39 Q2350.01 1482.55 2353.16 1482.55 Q2356.31 1482.55 2358.14 1480.39 Q2359.99 1478.22 2359.99 1474.49 Q2359.99 1470.74 2358.14 1468.59 Q2356.31 1466.44 2353.16 1466.44 M2362.44 1451.78 L2362.44 1456.04 Q2360.68 1455.21 2358.88 1454.77 Q2357.1 1454.33 2355.34 1454.33 Q2350.71 1454.33 2348.25 1457.45 Q2345.82 1460.58 2345.48 1466.9 Q2346.84 1464.89 2348.9 1463.82 Q2350.96 1462.73 2353.44 1462.73 Q2358.65 1462.73 2361.66 1465.9 Q2364.69 1469.05 2364.69 1474.49 Q2364.69 1479.82 2361.54 1483.03 Q2358.39 1486.25 2353.16 1486.25 Q2347.17 1486.25 2343.99 1481.67 Q2340.82 1477.06 2340.82 1468.33 Q2340.82 1460.14 2344.71 1455.28 Q2348.6 1450.39 2355.15 1450.39 Q2356.91 1450.39 2358.69 1450.74 Q2360.5 1451.09 2362.44 1451.78 Z" fill="#000000" fill-rule="evenodd" fill-opacity="1" /><path clip-path="url(#clip970)" d="M1004.51 1550.12 Q997.413 1550.12 994.676 1551.75 Q991.938 1553.37 991.938 1557.29 Q991.938 1560.4 993.975 1562.25 Q996.044 1564.07 999.577 1564.07 Q1004.45 1564.07 1007.38 1560.63 Q1010.34 1557.16 1010.34 1551.43 L1010.34 1550.12 L1004.51 1550.12 M1016.19 1547.71 L1016.19 1568.04 L1010.34 1568.04 L1010.34 1562.63 Q1008.33 1565.88 1005.34 1567.44 Q1002.35 1568.97 998.018 1568.97 Q992.543 1568.97 989.297 1565.91 Q986.082 1562.82 986.082 1557.67 Q986.082 1551.65 990.092 1548.6 Q994.135 1545.54 1002.12 1545.54 L1010.34 1545.54 L1010.34 1544.97 Q1010.34 1540.93 1007.66 1538.73 Q1005.02 1536.5 1000.21 1536.5 Q997.158 1536.5 994.262 1537.23 Q991.365 1537.97 988.692 1539.43 L988.692 1534.02 Q991.907 1532.78 994.93 1532.17 Q997.954 1531.54 1000.82 1531.54 Q1008.55 1531.54 1012.37 1535.55 Q1016.19 1539.56 1016.19 1547.71 Z" fill="#000000" fill-rule="evenodd" fill-opacity="1" /><path clip-path="url(#clip970)" d="M1033.92 1562.7 L1033.92 1581.6 L1028.03 1581.6 L1028.03 1532.4 L1033.92 1532.4 L1033.92 1537.81 Q1035.77 1534.62 1038.57 1533.1 Q1041.4 1531.54 1045.31 1531.54 Q1051.81 1531.54 1055.85 1536.69 Q1059.92 1541.85 1059.92 1550.25 Q1059.92 1558.65 1055.85 1563.81 Q1051.81 1568.97 1045.31 1568.97 Q1041.4 1568.97 1038.57 1567.44 Q1035.77 1565.88 1033.92 1562.7 M1053.84 1550.25 Q1053.84 1543.79 1051.17 1540.13 Q1048.53 1536.44 1043.88 1536.44 Q1039.24 1536.44 1036.56 1540.13 Q1033.92 1543.79 1033.92 1550.25 Q1033.92 1556.71 1036.56 1560.4 Q1039.24 1564.07 1043.88 1564.07 Q1048.53 1564.07 1051.17 1560.4 Q1053.84 1556.71 1053.84 1550.25 Z" fill="#000000" fill-rule="evenodd" fill-opacity="1" /><path clip-path="url(#clip970)" d="M1075.3 1562.7 L1075.3 1581.6 L1069.41 1581.6 L1069.41 1532.4 L1075.3 1532.4 L1075.3 1537.81 Q1077.14 1534.62 1079.94 1533.1 Q1082.78 1531.54 1086.69 1531.54 Q1093.18 1531.54 1097.23 1536.69 Q1101.3 1541.85 1101.3 1550.25 Q1101.3 1558.65 1097.23 1563.81 Q1093.18 1568.97 1086.69 1568.97 Q1082.78 1568.97 1079.94 1567.44 Q1077.14 1565.88 1075.3 1562.7 M1095.22 1550.25 Q1095.22 1543.79 1092.55 1540.13 Q1089.91 1536.44 1085.26 1536.44 Q1080.61 1536.44 1077.94 1540.13 Q1075.3 1543.79 1075.3 1550.25 Q1075.3 1556.71 1077.94 1560.4 Q1080.61 1564.07 1085.26 1564.07 Q1089.91 1564.07 1092.55 1560.4 Q1095.22 1556.71 1095.22 1550.25 Z" fill="#000000" fill-rule="evenodd" fill-opacity="1" /><path clip-path="url(#clip970)" d="M1131.67 1537.87 Q1130.68 1537.3 1129.5 1537.04 Q1128.36 1536.76 1126.96 1536.76 Q1121.99 1536.76 1119.32 1540 Q1116.67 1543.22 1116.67 1549.27 L1116.67 1568.04 L1110.79 1568.04 L1110.79 1532.4 L1116.67 1532.4 L1116.67 1537.93 Q1118.52 1534.69 1121.48 1533.13 Q1124.44 1531.54 1128.67 1531.54 Q1129.28 1531.54 1130.01 1531.63 Q1130.74 1531.7 1131.63 1531.85 L1131.67 1537.87 Z" fill="#000000" fill-rule="evenodd" fill-opacity="1" /><path clip-path="url(#clip970)" d="M1150.19 1536.5 Q1145.48 1536.5 1142.74 1540.19 Q1140 1543.85 1140 1550.25 Q1140 1556.65 1142.71 1560.34 Q1145.45 1564 1150.19 1564 Q1154.87 1564 1157.61 1560.31 Q1160.34 1556.62 1160.34 1550.25 Q1160.34 1543.92 1157.61 1540.23 Q1154.87 1536.5 1150.19 1536.5 M1150.19 1531.54 Q1157.83 1531.54 1162.19 1536.5 Q1166.55 1541.47 1166.55 1550.25 Q1166.55 1559 1162.19 1564 Q1157.83 1568.97 1150.19 1568.97 Q1142.52 1568.97 1138.16 1564 Q1133.83 1559 1133.83 1550.25 Q1133.83 1541.47 1138.16 1536.5 Q1142.52 1531.54 1150.19 1531.54 Z" fill="#000000" fill-rule="evenodd" fill-opacity="1" /><path clip-path="url(#clip970)" d="M1203.88 1532.4 L1190.99 1549.74 L1204.55 1568.04 L1197.65 1568.04 L1187.27 1554.04 L1176.89 1568.04 L1169.99 1568.04 L1183.83 1549.39 L1171.16 1532.4 L1178.07 1532.4 L1187.52 1545.1 L1196.98 1532.4 L1203.88 1532.4 Z" fill="#000000" fill-rule="evenodd" fill-opacity="1" /><path clip-path="url(#clip970)" d="M1212.83 1532.4 L1218.68 1532.4 L1218.68 1568.04 L1212.83 1568.04 L1212.83 1532.4 M1212.83 1518.52 L1218.68 1518.52 L1218.68 1525.93 L1212.83 1525.93 L1212.83 1518.52 Z" fill="#000000" fill-rule="evenodd" fill-opacity="1" /><path clip-path="url(#clip970)" d="M1258.69 1539.24 Q1260.89 1535.29 1263.95 1533.41 Q1267 1531.54 1271.14 1531.54 Q1276.71 1531.54 1279.73 1535.45 Q1282.76 1539.33 1282.76 1546.53 L1282.76 1568.04 L1276.87 1568.04 L1276.87 1546.72 Q1276.87 1541.59 1275.05 1539.11 Q1273.24 1536.63 1269.52 1536.63 Q1264.96 1536.63 1262.32 1539.65 Q1259.68 1542.68 1259.68 1547.9 L1259.68 1568.04 L1253.79 1568.04 L1253.79 1546.72 Q1253.79 1541.56 1251.98 1539.11 Q1250.16 1536.63 1246.38 1536.63 Q1241.89 1536.63 1239.25 1539.68 Q1236.6 1542.71 1236.6 1547.9 L1236.6 1568.04 L1230.72 1568.04 L1230.72 1532.4 L1236.6 1532.4 L1236.6 1537.93 Q1238.61 1534.66 1241.41 1533.1 Q1244.21 1531.54 1248.06 1531.54 Q1251.95 1531.54 1254.65 1533.51 Q1257.39 1535.48 1258.69 1539.24 Z" fill="#000000" fill-rule="evenodd" fill-opacity="1" /><path clip-path="url(#clip970)" d="M1310.64 1550.12 Q1303.54 1550.12 1300.8 1551.75 Q1298.07 1553.37 1298.07 1557.29 Q1298.07 1560.4 1300.1 1562.25 Q1302.17 1564.07 1305.7 1564.07 Q1310.57 1564.07 1313.5 1560.63 Q1316.46 1557.16 1316.46 1551.43 L1316.46 1550.12 L1310.64 1550.12 M1322.32 1547.71 L1322.32 1568.04 L1316.46 1568.04 L1316.46 1562.63 Q1314.46 1565.88 1311.47 1567.44 Q1308.47 1568.97 1304.14 1568.97 Q1298.67 1568.97 1295.42 1565.91 Q1292.21 1562.82 1292.21 1557.67 Q1292.21 1551.65 1296.22 1548.6 Q1300.26 1545.54 1308.25 1545.54 L1316.46 1545.54 L1316.46 1544.97 Q1316.46 1540.93 1313.79 1538.73 Q1311.15 1536.5 1306.34 1536.5 Q1303.29 1536.5 1300.39 1537.23 Q1297.49 1537.97 1294.82 1539.43 L1294.82 1534.02 Q1298.03 1532.78 1301.06 1532.17 Q1304.08 1531.54 1306.95 1531.54 Q1314.68 1531.54 1318.5 1535.55 Q1322.32 1539.56 1322.32 1547.71 Z" fill="#000000" fill-rule="evenodd" fill-opacity="1" /><path clip-path="url(#clip970)" d="M1340.17 1522.27 L1340.17 1532.4 L1352.24 1532.4 L1352.24 1536.95 L1340.17 1536.95 L1340.17 1556.3 Q1340.17 1560.66 1341.35 1561.9 Q1342.56 1563.14 1346.22 1563.14 L1352.24 1563.14 L1352.24 1568.04 L1346.22 1568.04 Q1339.44 1568.04 1336.86 1565.53 Q1334.29 1562.98 1334.29 1556.3 L1334.29 1536.95 L1329.99 1536.95 L1329.99 1532.4 L1334.29 1532.4 L1334.29 1522.27 L1340.17 1522.27 Z" fill="#000000" fill-rule="evenodd" fill-opacity="1" /><path clip-path="url(#clip970)" d="M1359.94 1532.4 L1365.8 1532.4 L1365.8 1568.04 L1359.94 1568.04 L1359.94 1532.4 M1359.94 1518.52 L1365.8 1518.52 L1365.8 1525.93 L1359.94 1525.93 L1359.94 1518.52 Z" fill="#000000" fill-rule="evenodd" fill-opacity="1" /><path clip-path="url(#clip970)" d="M1391.86 1536.5 Q1387.15 1536.5 1384.42 1540.19 Q1381.68 1543.85 1381.68 1550.25 Q1381.68 1556.65 1384.38 1560.34 Q1387.12 1564 1391.86 1564 Q1396.54 1564 1399.28 1560.31 Q1402.02 1556.62 1402.02 1550.25 Q1402.02 1543.92 1399.28 1540.23 Q1396.54 1536.5 1391.86 1536.5 M1391.86 1531.54 Q1399.5 1531.54 1403.86 1536.5 Q1408.22 1541.47 1408.22 1550.25 Q1408.22 1559 1403.86 1564 Q1399.5 1568.97 1391.86 1568.97 Q1384.19 1568.97 1379.83 1564 Q1375.5 1559 1375.5 1550.25 Q1375.5 1541.47 1379.83 1536.5 Q1384.19 1531.54 1391.86 1531.54 Z" fill="#000000" fill-rule="evenodd" fill-opacity="1" /><path clip-path="url(#clip970)" d="M1447.56 1546.53 L1447.56 1568.04 L1441.71 1568.04 L1441.71 1546.72 Q1441.71 1541.66 1439.73 1539.14 Q1437.76 1536.63 1433.81 1536.63 Q1429.07 1536.63 1426.33 1539.65 Q1423.6 1542.68 1423.6 1547.9 L1423.6 1568.04 L1417.71 1568.04 L1417.71 1532.4 L1423.6 1532.4 L1423.6 1537.93 Q1425.7 1534.72 1428.53 1533.13 Q1431.39 1531.54 1435.12 1531.54 Q1441.26 1531.54 1444.41 1535.36 Q1447.56 1539.14 1447.56 1546.53 Z" fill="#000000" fill-rule="evenodd" fill-opacity="1" /><path clip-path="url(#clip970)" d="M1500.62 1537.87 Q1499.64 1537.3 1498.46 1537.04 Q1497.31 1536.76 1495.91 1536.76 Q1490.95 1536.76 1488.27 1540 Q1485.63 1543.22 1485.63 1549.27 L1485.63 1568.04 L1479.74 1568.04 L1479.74 1532.4 L1485.63 1532.4 L1485.63 1537.93 Q1487.48 1534.69 1490.44 1533.13 Q1493.4 1531.54 1497.63 1531.54 Q1498.23 1531.54 1498.97 1531.63 Q1499.7 1531.7 1500.59 1531.85 L1500.62 1537.87 Z" fill="#000000" fill-rule="evenodd" fill-opacity="1" /><path clip-path="url(#clip970)" d="M1522.97 1550.12 Q1515.87 1550.12 1513.13 1551.75 Q1510.39 1553.37 1510.39 1557.29 Q1510.39 1560.4 1512.43 1562.25 Q1514.5 1564.07 1518.03 1564.07 Q1522.9 1564.07 1525.83 1560.63 Q1528.79 1557.16 1528.79 1551.43 L1528.79 1550.12 L1522.97 1550.12 M1534.65 1547.71 L1534.65 1568.04 L1528.79 1568.04 L1528.79 1562.63 Q1526.79 1565.88 1523.79 1567.44 Q1520.8 1568.97 1516.47 1568.97 Q1511 1568.97 1507.75 1565.91 Q1504.54 1562.82 1504.54 1557.67 Q1504.54 1551.65 1508.55 1548.6 Q1512.59 1545.54 1520.58 1545.54 L1528.79 1545.54 L1528.79 1544.97 Q1528.79 1540.93 1526.12 1538.73 Q1523.47 1536.5 1518.67 1536.5 Q1515.61 1536.5 1512.72 1537.23 Q1509.82 1537.97 1507.15 1539.43 L1507.15 1534.02 Q1510.36 1532.78 1513.39 1532.17 Q1516.41 1531.54 1519.27 1531.54 Q1527.01 1531.54 1530.83 1535.55 Q1534.65 1539.56 1534.65 1547.71 Z" fill="#000000" fill-rule="evenodd" fill-opacity="1" /><path clip-path="url(#clip970)" d="M1576.34 1546.53 L1576.34 1568.04 L1570.49 1568.04 L1570.49 1546.72 Q1570.49 1541.66 1568.51 1539.14 Q1566.54 1536.63 1562.59 1536.63 Q1557.85 1536.63 1555.11 1539.65 Q1552.38 1542.68 1552.38 1547.9 L1552.38 1568.04 L1546.49 1568.04 L1546.49 1532.4 L1552.38 1532.4 L1552.38 1537.93 Q1554.48 1534.72 1557.31 1533.13 Q1560.17 1531.54 1563.9 1531.54 Q1570.04 1531.54 1573.19 1535.36 Q1576.34 1539.14 1576.34 1546.53 Z" fill="#000000" fill-rule="evenodd" fill-opacity="1" /><path clip-path="url(#clip970)" d="M1587.8 1518.52 L1593.69 1518.52 L1593.69 1547.77 L1611.16 1532.4 L1618.64 1532.4 L1599.74 1549.07 L1619.44 1568.04 L1611.8 1568.04 L1593.69 1550.63 L1593.69 1568.04 L1587.8 1568.04 L1587.8 1518.52 Z" fill="#000000" fill-rule="evenodd" fill-opacity="1" /><polyline clip-path="url(#clip973)" style="stroke:#000000; stroke-linecap:round; stroke-linejoin:round; stroke-width:2; stroke-opacity:0.1; fill:none" points="252.764,1423.18 2352.76,1423.18 "/>
<polyline clip-path="url(#clip973)" style="stroke:#000000; stroke-linecap:round; stroke-linejoin:round; stroke-width:2; stroke-opacity:0.1; fill:none" points="252.764,1079.2 2352.76,1079.2 "/>
<polyline clip-path="url(#clip973)" style="stroke:#000000; stroke-linecap:round; stroke-linejoin:round; stroke-width:2; stroke-opacity:0.1; fill:none" points="252.764,735.212 2352.76,735.212 "/>
<polyline clip-path="url(#clip973)" style="stroke:#000000; stroke-linecap:round; stroke-linejoin:round; stroke-width:2; stroke-opacity:0.1; fill:none" points="252.764,391.228 2352.76,391.228 "/>
<polyline clip-path="url(#clip973)" style="stroke:#000000; stroke-linecap:round; stroke-linejoin:round; stroke-width:2; stroke-opacity:0.1; fill:none" points="252.764,47.2441 2352.76,47.2441 "/>
<polyline clip-path="url(#clip970)" style="stroke:#000000; stroke-linecap:round; stroke-linejoin:round; stroke-width:4; stroke-opacity:1; fill:none" points="252.764,1423.18 252.764,47.2441 "/>
<polyline clip-path="url(#clip970)" style="stroke:#000000; stroke-linecap:round; stroke-linejoin:round; stroke-width:4; stroke-opacity:1; fill:none" points="252.764,1423.18 271.662,1423.18 "/>
<polyline clip-path="url(#clip970)" style="stroke:#000000; stroke-linecap:round; stroke-linejoin:round; stroke-width:4; stroke-opacity:1; fill:none" points="252.764,1079.2 271.662,1079.2 "/>
<polyline clip-path="url(#clip970)" style="stroke:#000000; stroke-linecap:round; stroke-linejoin:round; stroke-width:4; stroke-opacity:1; fill:none" points="252.764,735.212 271.662,735.212 "/>
<polyline clip-path="url(#clip970)" style="stroke:#000000; stroke-linecap:round; stroke-linejoin:round; stroke-width:4; stroke-opacity:1; fill:none" points="252.764,391.228 271.662,391.228 "/>
<polyline clip-path="url(#clip970)" style="stroke:#000000; stroke-linecap:round; stroke-linejoin:round; stroke-width:4; stroke-opacity:1; fill:none" points="252.764,47.2441 271.662,47.2441 "/>
<path clip-path="url(#clip970)" d="M114.931 1442.97 L122.57 1442.97 L122.57 1416.61 L114.26 1418.27 L114.26 1414.01 L122.524 1412.35 L127.2 1412.35 L127.2 1442.97 L134.839 1442.97 L134.839 1446.91 L114.931 1446.91 L114.931 1442.97 Z" fill="#000000" fill-rule="evenodd" fill-opacity="1" /><path clip-path="url(#clip970)" d="M154.283 1415.43 Q150.672 1415.43 148.843 1418.99 Q147.038 1422.53 147.038 1429.66 Q147.038 1436.77 148.843 1440.33 Q150.672 1443.88 154.283 1443.88 Q157.917 1443.88 159.723 1440.33 Q161.552 1436.77 161.552 1429.66 Q161.552 1422.53 159.723 1418.99 Q157.917 1415.43 154.283 1415.43 M154.283 1411.72 Q160.093 1411.72 163.149 1416.33 Q166.227 1420.91 166.227 1429.66 Q166.227 1438.39 163.149 1443 Q160.093 1447.58 154.283 1447.58 Q148.473 1447.58 145.394 1443 Q142.339 1438.39 142.339 1429.66 Q142.339 1420.91 145.394 1416.33 Q148.473 1411.72 154.283 1411.72 Z" fill="#000000" fill-rule="evenodd" fill-opacity="1" /><path clip-path="url(#clip970)" d="M166.227 1405.82 L190.339 1405.82 L190.339 1409.02 L166.227 1409.02 L166.227 1405.82 Z" fill="#000000" fill-rule="evenodd" fill-opacity="1" /><path clip-path="url(#clip970)" d="M208.978 1394.73 L199.386 1409.72 L208.978 1409.72 L208.978 1394.73 M207.981 1391.42 L212.758 1391.42 L212.758 1409.72 L216.764 1409.72 L216.764 1412.88 L212.758 1412.88 L212.758 1419.5 L208.978 1419.5 L208.978 1412.88 L196.301 1412.88 L196.301 1409.21 L207.981 1391.42 Z" fill="#000000" fill-rule="evenodd" fill-opacity="1" /><path clip-path="url(#clip970)" d="M115.853 1098.99 L123.492 1098.99 L123.492 1072.62 L115.182 1074.29 L115.182 1070.03 L123.446 1068.36 L128.121 1068.36 L128.121 1098.99 L135.76 1098.99 L135.76 1102.92 L115.853 1102.92 L115.853 1098.99 Z" fill="#000000" fill-rule="evenodd" fill-opacity="1" /><path clip-path="url(#clip970)" d="M155.205 1071.44 Q151.594 1071.44 149.765 1075.01 Q147.959 1078.55 147.959 1085.68 Q147.959 1092.78 149.765 1096.35 Q151.594 1099.89 155.205 1099.89 Q158.839 1099.89 160.644 1096.35 Q162.473 1092.78 162.473 1085.68 Q162.473 1078.55 160.644 1075.01 Q158.839 1071.44 155.205 1071.44 M155.205 1067.74 Q161.015 1067.74 164.07 1072.34 Q167.149 1076.93 167.149 1085.68 Q167.149 1094.41 164.07 1099.01 Q161.015 1103.59 155.205 1103.59 Q149.395 1103.59 146.316 1099.01 Q143.26 1094.41 143.26 1085.68 Q143.26 1076.93 146.316 1072.34 Q149.395 1067.74 155.205 1067.74 Z" fill="#000000" fill-rule="evenodd" fill-opacity="1" /><path clip-path="url(#clip970)" d="M167.149 1061.84 L191.261 1061.84 L191.261 1065.04 L167.149 1065.04 L167.149 1061.84 Z" fill="#000000" fill-rule="evenodd" fill-opacity="1" /><path clip-path="url(#clip970)" d="M210.971 1060.37 Q213.698 1060.96 215.222 1062.8 Q216.764 1064.64 216.764 1067.35 Q216.764 1071.51 213.905 1073.78 Q211.046 1076.06 205.78 1076.06 Q204.012 1076.06 202.132 1075.7 Q200.27 1075.36 198.276 1074.67 L198.276 1071 Q199.856 1071.92 201.737 1072.39 Q203.617 1072.86 205.667 1072.86 Q209.241 1072.86 211.103 1071.45 Q212.984 1070.04 212.984 1067.35 Q212.984 1064.87 211.234 1063.48 Q209.504 1062.07 206.401 1062.07 L203.128 1062.07 L203.128 1058.94 L206.551 1058.94 Q209.354 1058.94 210.84 1057.83 Q212.325 1056.71 212.325 1054.6 Q212.325 1052.44 210.783 1051.29 Q209.26 1050.12 206.401 1050.12 Q204.84 1050.12 203.053 1050.46 Q201.266 1050.8 199.122 1051.51 L199.122 1048.13 Q201.285 1047.53 203.166 1047.23 Q205.066 1046.93 206.739 1046.93 Q211.065 1046.93 213.585 1048.9 Q216.106 1050.86 216.106 1054.2 Q216.106 1056.54 214.77 1058.15 Q213.435 1059.75 210.971 1060.37 Z" fill="#000000" fill-rule="evenodd" fill-opacity="1" /><path clip-path="url(#clip970)" d="M116.624 755.004 L124.263 755.004 L124.263 728.639 L115.953 730.305 L115.953 726.046 L124.217 724.38 L128.893 724.38 L128.893 755.004 L136.531 755.004 L136.531 758.94 L116.624 758.94 L116.624 755.004 Z" fill="#000000" fill-rule="evenodd" fill-opacity="1" /><path clip-path="url(#clip970)" d="M155.976 727.458 Q152.365 727.458 150.536 731.023 Q148.73 734.565 148.73 741.694 Q148.73 748.801 150.536 752.366 Q152.365 755.907 155.976 755.907 Q159.61 755.907 161.416 752.366 Q163.244 748.801 163.244 741.694 Q163.244 734.565 161.416 731.023 Q159.61 727.458 155.976 727.458 M155.976 723.755 Q161.786 723.755 164.841 728.361 Q167.92 732.944 167.92 741.694 Q167.92 750.421 164.841 755.028 Q161.786 759.611 155.976 759.611 Q150.166 759.611 147.087 755.028 Q144.031 750.421 144.031 741.694 Q144.031 732.944 147.087 728.361 Q150.166 723.755 155.976 723.755 Z" fill="#000000" fill-rule="evenodd" fill-opacity="1" /><path clip-path="url(#clip970)" d="M167.92 717.856 L192.032 717.856 L192.032 721.053 L167.92 721.053 L167.92 717.856 Z" fill="#000000" fill-rule="evenodd" fill-opacity="1" /><path clip-path="url(#clip970)" d="M203.504 728.332 L216.764 728.332 L216.764 731.529 L198.934 731.529 L198.934 728.332 Q201.097 726.094 204.821 722.332 Q208.564 718.552 209.523 717.461 Q211.347 715.411 212.062 714 Q212.796 712.571 212.796 711.198 Q212.796 708.96 211.216 707.549 Q209.655 706.139 207.134 706.139 Q205.348 706.139 203.354 706.759 Q201.379 707.38 199.122 708.64 L199.122 704.803 Q201.417 703.882 203.41 703.412 Q205.404 702.941 207.059 702.941 Q211.423 702.941 214.018 705.123 Q216.613 707.305 216.613 710.953 Q216.613 712.684 215.955 714.245 Q215.316 715.787 213.604 717.894 Q213.134 718.439 210.614 721.053 Q208.094 723.649 203.504 728.332 Z" fill="#000000" fill-rule="evenodd" fill-opacity="1" /><path clip-path="url(#clip970)" d="M116.323 411.02 L123.962 411.02 L123.962 384.655 L115.652 386.322 L115.652 382.062 L123.916 380.396 L128.592 380.396 L128.592 411.02 L136.231 411.02 L136.231 414.956 L116.323 414.956 L116.323 411.02 Z" fill="#000000" fill-rule="evenodd" fill-opacity="1" /><path clip-path="url(#clip970)" d="M155.675 383.474 Q152.064 383.474 150.235 387.039 Q148.43 390.581 148.43 397.71 Q148.43 404.817 150.235 408.382 Q152.064 411.923 155.675 411.923 Q159.309 411.923 161.115 408.382 Q162.943 404.817 162.943 397.71 Q162.943 390.581 161.115 387.039 Q159.309 383.474 155.675 383.474 M155.675 379.771 Q161.485 379.771 164.541 384.377 Q167.619 388.96 167.619 397.71 Q167.619 406.437 164.541 411.044 Q161.485 415.627 155.675 415.627 Q149.865 415.627 146.786 411.044 Q143.73 406.437 143.73 397.71 Q143.73 388.96 146.786 384.377 Q149.865 379.771 155.675 379.771 Z" fill="#000000" fill-rule="evenodd" fill-opacity="1" /><path clip-path="url(#clip970)" d="M167.619 373.872 L191.731 373.872 L191.731 377.069 L167.619 377.069 L167.619 373.872 Z" fill="#000000" fill-rule="evenodd" fill-opacity="1" /><path clip-path="url(#clip970)" d="M200.589 384.348 L206.796 384.348 L206.796 362.926 L200.044 364.28 L200.044 360.819 L206.758 359.465 L210.557 359.465 L210.557 384.348 L216.764 384.348 L216.764 387.545 L200.589 387.545 L200.589 384.348 Z" fill="#000000" fill-rule="evenodd" fill-opacity="1" /><path clip-path="url(#clip970)" d="M146.058 67.0365 L153.697 67.0365 L153.697 40.6709 L145.387 42.3376 L145.387 38.0784 L153.651 36.4117 L158.327 36.4117 L158.327 67.0365 L165.966 67.0365 L165.966 70.9717 L146.058 70.9717 L146.058 67.0365 Z" fill="#000000" fill-rule="evenodd" fill-opacity="1" /><path clip-path="url(#clip970)" d="M185.41 39.4904 Q181.799 39.4904 179.97 43.0552 Q178.165 46.5968 178.165 53.7264 Q178.165 60.8329 179.97 64.3977 Q181.799 67.9393 185.41 67.9393 Q189.044 67.9393 190.85 64.3977 Q192.678 60.8329 192.678 53.7264 Q192.678 46.5968 190.85 43.0552 Q189.044 39.4904 185.41 39.4904 M185.41 35.7867 Q191.22 35.7867 194.276 40.3932 Q197.354 44.9765 197.354 53.7264 Q197.354 62.4532 194.276 67.0597 Q191.22 71.643 185.41 71.643 Q179.6 71.643 176.521 67.0597 Q173.466 62.4532 173.466 53.7264 Q173.466 44.9765 176.521 40.3932 Q179.6 35.7867 185.41 35.7867 Z" fill="#000000" fill-rule="evenodd" fill-opacity="1" /><path clip-path="url(#clip970)" d="M207.059 17.9827 Q204.125 17.9827 202.639 20.8791 Q201.172 23.7567 201.172 29.5495 Q201.172 35.3235 202.639 38.2199 Q204.125 41.0975 207.059 41.0975 Q210.012 41.0975 211.479 38.2199 Q212.965 35.3235 212.965 29.5495 Q212.965 23.7567 211.479 20.8791 Q210.012 17.9827 207.059 17.9827 M207.059 14.9735 Q211.78 14.9735 214.263 18.7162 Q216.764 22.4402 216.764 29.5495 Q216.764 36.64 214.263 40.3828 Q211.78 44.1067 207.059 44.1067 Q202.338 44.1067 199.837 40.3828 Q197.354 36.64 197.354 29.5495 Q197.354 22.4402 199.837 18.7162 Q202.338 14.9735 207.059 14.9735 Z" fill="#000000" fill-rule="evenodd" fill-opacity="1" /><path clip-path="url(#clip970)" d="M27.9392 757.108 Q28.6155 757.108 29.163 757.688 Q29.7105 758.236 29.7105 758.912 Q29.7105 759.298 29.0664 760.232 Q27.1985 762.905 27.1985 766.287 Q27.1985 769.314 27.9392 772.116 Q28.6799 774.918 30.1936 776.818 Q31.6751 778.686 33.6074 778.686 Q36.0229 778.686 37.4399 776.045 Q36.1839 773.308 36.1839 769.926 Q36.1839 768.831 36.2483 768.09 Q36.3127 767.318 36.4738 766.577 Q36.6348 765.836 37.0213 765.482 Q37.3755 765.095 37.9552 765.095 Q40.0164 765.095 40.0164 770.442 Q40.0164 773.92 39.0824 776.11 Q40.4673 778.912 42.6895 780.458 Q44.9117 782.003 46.8118 782.003 Q48.4543 782.003 49.646 781.102 Q50.8376 780.168 51.4173 778.654 Q51.997 777.108 52.2546 775.594 Q52.4801 774.049 52.4801 772.342 Q52.4801 769.54 52.1258 767.575 Q51.7393 765.578 51.0308 764.483 Q50.3223 763.356 49.8392 762.905 Q49.3239 762.422 48.5187 761.939 Q48.0679 761.649 48.0679 761.263 Q48.0679 760.973 48.2611 760.78 Q48.4221 760.554 48.712 760.554 Q49.0662 760.554 49.807 761.005 Q50.5477 761.424 51.5461 762.454 Q52.5123 763.453 53.414 764.838 Q54.2836 766.19 54.8955 768.348 Q55.5074 770.506 55.5074 772.954 Q55.5074 777.945 53.0598 780.844 Q50.6121 783.71 47.1983 783.71 Q44.8151 783.71 42.3674 782.132 Q39.8876 780.522 38.3095 777.688 Q36.3449 780.329 33.6074 780.329 Q31.1598 780.329 28.9698 778.268 Q26.7798 776.174 25.4916 772.793 Q24.1711 769.379 24.1711 765.643 Q24.1711 763.549 24.8796 761.488 Q25.556 759.427 26.4255 758.268 Q27.2951 757.108 27.9392 757.108 M38.0196 766.802 Q37.6332 768.219 37.6332 769.926 Q37.6332 772.245 38.2129 773.952 Q38.5671 772.567 38.5671 770.442 Q38.5671 768.67 38.4705 768.155 Q38.3739 767.607 38.0196 766.802 Z" fill="#000000" fill-rule="evenodd" fill-opacity="1" /><path clip-path="url(#clip970)" d="M57.1294 731.525 Q58.3243 731.525 59.0908 732.314 Q59.8573 733.08 59.8573 734.072 Q59.8573 734.929 59.3613 735.38 Q58.8653 735.831 58.2341 735.831 Q57.3323 735.831 56.5884 735.132 Q55.8444 734.433 55.6866 733.419 Q55.1455 734.162 55.1455 735.357 Q55.1455 737.319 56.656 739.055 Q57.3549 739.821 58.6399 740.655 Q59.9023 741.489 60.4434 741.647 L66.4627 743.112 Q67.139 743.248 70.3854 744.082 Q73.6092 744.893 73.7444 744.961 Q74.3757 745.187 74.7138 745.683 Q75.052 746.178 75.052 746.674 Q75.052 747.238 74.7138 747.621 Q74.3757 748.005 73.7895 748.005 Q73.6993 748.005 73.3612 747.937 Q73.023 747.869 72.5496 747.757 Q72.0762 747.644 71.8056 747.599 L61.1423 744.916 Q59.2035 744.42 58.5948 744.307 Q57.9636 744.172 57.2647 744.172 Q56.0473 744.172 55.5964 744.555 Q55.1455 744.939 55.1455 745.615 Q55.1455 746.787 56.5433 747.554 Q57.941 748.32 60.6463 748.974 Q61.3903 749.177 61.5481 749.312 Q61.7059 749.425 61.7059 749.763 Q61.6833 750.327 61.2324 750.327 Q61.1197 750.327 60.3983 750.146 Q59.6544 749.966 58.5722 749.628 Q57.4676 749.267 56.7687 748.884 Q56.2953 748.658 55.9797 748.455 Q55.6641 748.253 55.1681 747.847 Q54.6721 747.441 54.4016 746.832 Q54.1311 746.224 54.1311 745.48 Q54.1311 743.856 55.123 742.707 Q56.1149 741.534 57.6705 741.264 Q56.8589 740.7 56.16 740.001 Q55.4386 739.303 54.7848 738.018 Q54.1311 736.732 54.1311 735.357 Q54.1311 733.644 55.0103 732.584 Q55.867 731.525 57.1294 731.525 Z" fill="#000000" fill-rule="evenodd" fill-opacity="1" /><path clip-path="url(#clip970)" d="M69.1905 711.114 Q69.3934 710.934 69.5963 710.934 Q69.7992 710.934 70.3854 711.385 Q70.9715 711.813 71.7605 712.737 Q72.5496 713.662 73.2935 714.857 Q74.0375 716.051 74.5335 717.81 Q75.052 719.568 75.052 721.417 Q75.052 724.731 72.6849 726.715 Q70.3177 728.676 66.6881 728.676 Q64.3661 728.676 62.3146 727.91 Q60.2405 727.143 58.7751 725.903 Q57.3098 724.641 56.2502 723.063 Q55.1681 721.462 54.6496 719.794 Q54.1311 718.125 54.1311 716.57 Q54.1311 714.293 55.2808 712.963 Q56.4306 711.633 58.0537 711.633 Q58.437 711.633 58.9104 711.745 Q59.3838 711.836 60.1278 712.151 Q60.8717 712.444 61.6157 713.211 Q62.3371 713.977 62.8105 715.105 Q63.8701 717.607 63.8701 722.161 L63.8701 724.618 Q66.7783 725.34 68.672 725.34 Q69.416 725.34 70.1825 725.204 Q70.9264 725.069 71.8733 724.708 Q72.8201 724.325 73.4288 723.468 Q74.015 722.589 74.015 721.327 Q74.015 720.921 73.9924 720.493 Q73.9699 720.042 73.7219 718.914 Q73.4739 717.765 73.0456 716.75 Q72.6172 715.736 71.6929 714.451 Q70.7461 713.143 69.461 712.106 Q68.9876 711.745 68.9876 711.497 Q68.9876 711.295 69.1905 711.114 M58.0537 713.166 Q56.8138 713.166 55.9797 714.09 Q55.1455 714.992 55.1455 716.57 Q55.1455 717.066 55.2583 717.675 Q55.371 718.283 55.8444 719.298 Q56.3178 720.29 57.1069 721.169 Q57.8734 722.048 59.3838 722.927 Q60.8717 723.807 62.8556 724.325 L62.8556 722.431 Q62.8556 721.778 62.8556 721.304 Q62.8331 720.831 62.7429 719.794 Q62.6527 718.734 62.4949 717.968 Q62.3146 717.201 61.9539 716.232 Q61.5932 715.262 61.1197 714.654 Q60.6238 714.022 59.8347 713.594 Q59.0457 713.166 58.0537 713.166 Z" fill="#000000" fill-rule="evenodd" fill-opacity="1" /><path clip-path="url(#clip970)" d="M42.9943 697.5 L69.6865 704.15 Q70.7461 704.421 71.8958 704.421 Q74.015 704.421 74.015 703.023 Q74.015 702.369 73.5866 701.828 Q73.1357 701.287 72.2565 700.882 Q71.3548 700.453 70.4981 700.183 Q69.6414 699.89 68.3113 699.529 Q67.7928 699.416 67.635 699.303 Q67.4772 699.191 67.4772 698.875 Q67.4772 698.312 67.928 698.312 Q70.701 698.875 72.4594 699.709 Q75.052 700.927 75.052 703.181 Q75.052 704.872 73.8797 706.134 Q72.6849 707.374 70.7911 707.374 Q70.0697 707.374 69.2131 707.149 L46.1279 701.332 L45.2261 701.175 Q44.9782 701.175 44.8429 701.265 Q44.7076 701.355 44.5724 701.896 Q44.4371 702.415 44.4371 703.452 Q44.4371 703.88 44.4145 704.083 Q44.392 704.263 44.2793 704.444 Q44.1666 704.601 43.9186 704.601 Q43.5128 704.601 43.2873 704.444 Q43.0619 704.263 43.0168 704.128 Q42.9717 703.993 42.9492 703.722 Q42.9266 703.339 42.8139 702.054 Q42.6787 700.769 42.5885 699.664 Q42.4983 698.56 42.4983 698.086 Q42.4983 697.816 42.6336 697.68 Q42.7463 697.522 42.8815 697.5 L42.9943 697.5 Z" fill="#000000" fill-rule="evenodd" fill-opacity="1" /><polyline clip-path="url(#clip973)" style="stroke:#009af9; stroke-linecap:round; stroke-linejoin:round; stroke-width:4; stroke-opacity:1; fill:none" points="252.764,310.364 672.762,884.901 1092.76,938.37 1512.76,1009.72 1932.76,1111.49 2352.76,1423.18 "/>
<polyline clip-path="url(#clip973)" style="stroke:#e26f46; stroke-linecap:round; stroke-linejoin:round; stroke-width:4; stroke-opacity:1; fill:none" points="252.764,181.336 672.762,855.976 1092.76,910.024 1512.76,982.983 1932.76,1086.29 2352.76,1423.18 "/>
<polyline clip-path="url(#clip973)" style="stroke:#3da44d; stroke-linecap:round; stroke-linejoin:round; stroke-width:4; stroke-opacity:1; fill:none" points="252.764,187.27 672.762,856.85 1092.76,910.637 1512.76,983.363 1932.76,1086.48 2352.76,1423.18 "/>
<polyline clip-path="url(#clip973)" style="stroke:#c271d2; stroke-linecap:round; stroke-linejoin:round; stroke-width:4; stroke-opacity:1; fill:none" points="252.764,187.285 672.762,856.853 1092.76,910.639 1512.76,983.363 1932.76,1086.48 2352.76,1423.18 "/>
<path clip-path="url(#clip970)" d="M322.764 1377.32 L1090.68 1377.32 L1090.68 1118.12 L322.764 1118.12  Z" fill="#ffffff" fill-rule="evenodd" fill-opacity="1"/>
<polyline clip-path="url(#clip970)" style="stroke:#000000; stroke-linecap:round; stroke-linejoin:round; stroke-width:4; stroke-opacity:1; fill:none" points="322.764,1377.32 1090.68,1377.32 1090.68,1118.12 322.764,1118.12 322.764,1377.32 "/>
<polyline clip-path="url(#clip970)" style="stroke:#009af9; stroke-linecap:round; stroke-linejoin:round; stroke-width:4; stroke-opacity:1; fill:none" points="346.097,1169.96 486.096,1169.96 "/>
<path clip-path="url(#clip970)" d="M516.837 1153.95 L516.837 1161.31 L525.61 1161.31 L525.61 1164.62 L516.837 1164.62 L516.837 1178.69 Q516.837 1181.86 517.693 1182.77 Q518.573 1183.67 521.235 1183.67 L525.61 1183.67 L525.61 1187.24 L521.235 1187.24 Q516.305 1187.24 514.43 1185.41 Q512.555 1183.55 512.555 1178.69 L512.555 1164.62 L509.43 1164.62 L509.43 1161.31 L512.555 1161.31 L512.555 1153.95 L516.837 1153.95 Z" fill="#000000" fill-rule="evenodd" fill-opacity="1" /><path clip-path="url(#clip970)" d="M552.763 1171.59 L552.763 1187.24 L548.503 1187.24 L548.503 1171.73 Q548.503 1168.05 547.068 1166.22 Q545.633 1164.39 542.763 1164.39 Q539.314 1164.39 537.323 1166.59 Q535.332 1168.79 535.332 1172.58 L535.332 1187.24 L531.05 1187.24 L531.05 1151.22 L535.332 1151.22 L535.332 1165.34 Q536.86 1163 538.92 1161.84 Q541.004 1160.68 543.712 1160.68 Q548.179 1160.68 550.471 1163.46 Q552.763 1166.22 552.763 1171.59 Z" fill="#000000" fill-rule="evenodd" fill-opacity="1" /><path clip-path="url(#clip970)" d="M583.434 1173.21 L583.434 1175.29 L563.851 1175.29 Q564.128 1179.69 566.49 1182 Q568.874 1184.3 573.11 1184.3 Q575.564 1184.3 577.855 1183.69 Q580.17 1183.09 582.439 1181.89 L582.439 1185.92 Q580.147 1186.89 577.739 1187.4 Q575.332 1187.91 572.855 1187.91 Q566.652 1187.91 563.017 1184.3 Q559.406 1180.68 559.406 1174.53 Q559.406 1168.16 562.832 1164.43 Q566.281 1160.68 572.114 1160.68 Q577.346 1160.68 580.378 1164.06 Q583.434 1167.42 583.434 1173.21 M579.175 1171.96 Q579.128 1168.46 577.207 1166.38 Q575.309 1164.3 572.161 1164.3 Q568.596 1164.3 566.443 1166.31 Q564.314 1168.32 563.99 1171.98 L579.175 1171.96 Z" fill="#000000" fill-rule="evenodd" fill-opacity="1" /><path clip-path="url(#clip970)" d="M600.471 1164.3 Q597.045 1164.3 595.054 1166.98 Q593.063 1169.64 593.063 1174.3 Q593.063 1178.95 595.031 1181.63 Q597.022 1184.3 600.471 1184.3 Q603.874 1184.3 605.864 1181.61 Q607.855 1178.93 607.855 1174.3 Q607.855 1169.69 605.864 1167 Q603.874 1164.3 600.471 1164.3 M600.471 1160.68 Q606.026 1160.68 609.198 1164.3 Q612.369 1167.91 612.369 1174.3 Q612.369 1180.66 609.198 1184.3 Q606.026 1187.91 600.471 1187.91 Q594.892 1187.91 591.721 1184.3 Q588.573 1180.66 588.573 1174.3 Q588.573 1167.91 591.721 1164.3 Q594.892 1160.68 600.471 1160.68 Z" fill="#000000" fill-rule="evenodd" fill-opacity="1" /><path clip-path="url(#clip970)" d="M634.452 1165.29 Q633.735 1164.87 632.878 1164.69 Q632.045 1164.48 631.026 1164.48 Q627.415 1164.48 625.471 1166.84 Q623.549 1169.18 623.549 1173.58 L623.549 1187.24 L619.267 1187.24 L619.267 1161.31 L623.549 1161.31 L623.549 1165.34 Q624.892 1162.98 627.045 1161.84 Q629.198 1160.68 632.276 1160.68 Q632.716 1160.68 633.248 1160.75 Q633.781 1160.8 634.429 1160.92 L634.452 1165.29 Z" fill="#000000" fill-rule="evenodd" fill-opacity="1" /><path clip-path="url(#clip970)" d="M660.054 1173.21 L660.054 1175.29 L640.471 1175.29 Q640.748 1179.69 643.109 1182 Q645.494 1184.3 649.73 1184.3 Q652.183 1184.3 654.475 1183.69 Q656.79 1183.09 659.058 1181.89 L659.058 1185.92 Q656.767 1186.89 654.359 1187.4 Q651.952 1187.91 649.475 1187.91 Q643.272 1187.91 639.637 1184.3 Q636.026 1180.68 636.026 1174.53 Q636.026 1168.16 639.452 1164.43 Q642.901 1160.68 648.734 1160.68 Q653.966 1160.68 656.998 1164.06 Q660.054 1167.42 660.054 1173.21 M655.795 1171.96 Q655.748 1168.46 653.827 1166.38 Q651.929 1164.3 648.781 1164.3 Q645.216 1164.3 643.063 1166.31 Q640.934 1168.32 640.609 1171.98 L655.795 1171.96 Z" fill="#000000" fill-rule="evenodd" fill-opacity="1" /><path clip-path="url(#clip970)" d="M671.257 1153.95 L671.257 1161.31 L680.031 1161.31 L680.031 1164.62 L671.257 1164.62 L671.257 1178.69 Q671.257 1181.86 672.114 1182.77 Q672.994 1183.67 675.656 1183.67 L680.031 1183.67 L680.031 1187.24 L675.656 1187.24 Q670.725 1187.24 668.85 1185.41 Q666.975 1183.55 666.975 1178.69 L666.975 1164.62 L663.85 1164.62 L663.85 1161.31 L666.975 1161.31 L666.975 1153.95 L671.257 1153.95 Z" fill="#000000" fill-rule="evenodd" fill-opacity="1" /><path clip-path="url(#clip970)" d="M685.632 1161.31 L689.892 1161.31 L689.892 1187.24 L685.632 1187.24 L685.632 1161.31 M685.632 1151.22 L689.892 1151.22 L689.892 1156.61 L685.632 1156.61 L685.632 1151.22 Z" fill="#000000" fill-rule="evenodd" fill-opacity="1" /><path clip-path="url(#clip970)" d="M717.461 1162.3 L717.461 1166.29 Q715.655 1165.29 713.827 1164.8 Q712.021 1164.3 710.169 1164.3 Q706.026 1164.3 703.734 1166.93 Q701.442 1169.55 701.442 1174.3 Q701.442 1179.04 703.734 1181.68 Q706.026 1184.3 710.169 1184.3 Q712.021 1184.3 713.827 1183.81 Q715.655 1183.3 717.461 1182.3 L717.461 1186.24 Q715.679 1187.07 713.757 1187.49 Q711.859 1187.91 709.706 1187.91 Q703.85 1187.91 700.401 1184.23 Q696.952 1180.55 696.952 1174.3 Q696.952 1167.95 700.424 1164.32 Q703.919 1160.68 709.984 1160.68 Q711.952 1160.68 713.827 1161.1 Q715.702 1161.49 717.461 1162.3 Z" fill="#000000" fill-rule="evenodd" fill-opacity="1" /><path clip-path="url(#clip970)" d="M736.651 1174.2 Q731.489 1174.2 729.498 1175.38 Q727.507 1176.56 727.507 1179.41 Q727.507 1181.68 728.989 1183.02 Q730.493 1184.34 733.063 1184.34 Q736.604 1184.34 738.734 1181.84 Q740.887 1179.32 740.887 1175.15 L740.887 1174.2 L736.651 1174.2 M745.146 1172.44 L745.146 1187.24 L740.887 1187.24 L740.887 1183.3 Q739.428 1185.66 737.252 1186.8 Q735.077 1187.91 731.928 1187.91 Q727.947 1187.91 725.586 1185.68 Q723.248 1183.44 723.248 1179.69 Q723.248 1175.31 726.165 1173.09 Q729.104 1170.87 734.915 1170.87 L740.887 1170.87 L740.887 1170.45 Q740.887 1167.51 738.942 1165.92 Q737.021 1164.3 733.526 1164.3 Q731.303 1164.3 729.197 1164.83 Q727.091 1165.36 725.146 1166.43 L725.146 1162.49 Q727.484 1161.59 729.683 1161.15 Q731.882 1160.68 733.965 1160.68 Q739.59 1160.68 742.368 1163.6 Q745.146 1166.52 745.146 1172.44 Z" fill="#000000" fill-rule="evenodd" fill-opacity="1" /><path clip-path="url(#clip970)" d="M753.919 1151.22 L758.178 1151.22 L758.178 1187.24 L753.919 1187.24 L753.919 1151.22 Z" fill="#000000" fill-rule="evenodd" fill-opacity="1" /><path clip-path="url(#clip970)" d="M782.16 1151.22 L786.419 1151.22 L786.419 1187.24 L782.16 1187.24 L782.16 1151.22 Z" fill="#000000" fill-rule="evenodd" fill-opacity="1" /><path clip-path="url(#clip970)" d="M805.377 1164.3 Q801.951 1164.3 799.96 1166.98 Q797.97 1169.64 797.97 1174.3 Q797.97 1178.95 799.937 1181.63 Q801.928 1184.3 805.377 1184.3 Q808.78 1184.3 810.771 1181.61 Q812.761 1178.93 812.761 1174.3 Q812.761 1169.69 810.771 1167 Q808.78 1164.3 805.377 1164.3 M805.377 1160.68 Q810.933 1160.68 814.104 1164.3 Q817.275 1167.91 817.275 1174.3 Q817.275 1180.66 814.104 1184.3 Q810.933 1187.91 805.377 1187.91 Q799.798 1187.91 796.627 1184.3 Q793.479 1180.66 793.479 1174.3 Q793.479 1167.91 796.627 1164.3 Q799.798 1160.68 805.377 1160.68 Z" fill="#000000" fill-rule="evenodd" fill-opacity="1" /><path clip-path="url(#clip970)" d="M821.859 1161.31 L826.118 1161.31 L831.442 1181.54 L836.743 1161.31 L841.766 1161.31 L847.09 1181.54 L852.391 1161.31 L856.65 1161.31 L849.868 1187.24 L844.845 1187.24 L839.266 1165.99 L833.664 1187.24 L828.641 1187.24 L821.859 1161.31 Z" fill="#000000" fill-rule="evenodd" fill-opacity="1" /><path clip-path="url(#clip970)" d="M885.284 1173.21 L885.284 1175.29 L865.701 1175.29 Q865.979 1179.69 868.34 1182 Q870.724 1184.3 874.96 1184.3 Q877.414 1184.3 879.705 1183.69 Q882.02 1183.09 884.289 1181.89 L884.289 1185.92 Q881.997 1186.89 879.59 1187.4 Q877.182 1187.91 874.705 1187.91 Q868.502 1187.91 864.868 1184.3 Q861.256 1180.68 861.256 1174.53 Q861.256 1168.16 864.682 1164.43 Q868.131 1160.68 873.965 1160.68 Q879.196 1160.68 882.229 1164.06 Q885.284 1167.42 885.284 1173.21 M881.025 1171.96 Q880.979 1168.46 879.057 1166.38 Q877.159 1164.3 874.011 1164.3 Q870.446 1164.3 868.293 1166.31 Q866.164 1168.32 865.84 1171.98 L881.025 1171.96 Z" fill="#000000" fill-rule="evenodd" fill-opacity="1" /><path clip-path="url(#clip970)" d="M907.298 1165.29 Q906.58 1164.87 905.724 1164.69 Q904.89 1164.48 903.872 1164.48 Q900.261 1164.48 898.316 1166.84 Q896.395 1169.18 896.395 1173.58 L896.395 1187.24 L892.113 1187.24 L892.113 1161.31 L896.395 1161.31 L896.395 1165.34 Q897.738 1162.98 899.891 1161.84 Q902.043 1160.68 905.122 1160.68 Q905.562 1160.68 906.094 1160.75 Q906.627 1160.8 907.275 1160.92 L907.298 1165.29 Z" fill="#000000" fill-rule="evenodd" fill-opacity="1" /><path clip-path="url(#clip970)" d="M945.446 1174.3 Q945.446 1169.6 943.501 1166.93 Q941.58 1164.25 938.2 1164.25 Q934.821 1164.25 932.876 1166.93 Q930.955 1169.6 930.955 1174.3 Q930.955 1178.99 932.876 1181.68 Q934.821 1184.34 938.2 1184.34 Q941.58 1184.34 943.501 1181.68 Q945.446 1178.99 945.446 1174.3 M930.955 1165.24 Q932.298 1162.93 934.335 1161.82 Q936.395 1160.68 939.242 1160.68 Q943.964 1160.68 946.904 1164.43 Q949.867 1168.18 949.867 1174.3 Q949.867 1180.41 946.904 1184.16 Q943.964 1187.91 939.242 1187.91 Q936.395 1187.91 934.335 1186.8 Q932.298 1185.66 930.955 1183.35 L930.955 1187.24 L926.673 1187.24 L926.673 1151.22 L930.955 1151.22 L930.955 1165.24 Z" fill="#000000" fill-rule="evenodd" fill-opacity="1" /><path clip-path="url(#clip970)" d="M966.973 1164.3 Q963.548 1164.3 961.557 1166.98 Q959.566 1169.64 959.566 1174.3 Q959.566 1178.95 961.534 1181.63 Q963.524 1184.3 966.973 1184.3 Q970.376 1184.3 972.367 1181.61 Q974.358 1178.93 974.358 1174.3 Q974.358 1169.69 972.367 1167 Q970.376 1164.3 966.973 1164.3 M966.973 1160.68 Q972.529 1160.68 975.7 1164.3 Q978.872 1167.91 978.872 1174.3 Q978.872 1180.66 975.7 1184.3 Q972.529 1187.91 966.973 1187.91 Q961.395 1187.91 958.224 1184.3 Q955.075 1180.66 955.075 1174.3 Q955.075 1167.91 958.224 1164.3 Q961.395 1160.68 966.973 1160.68 Z" fill="#000000" fill-rule="evenodd" fill-opacity="1" /><path clip-path="url(#clip970)" d="M985.492 1177 L985.492 1161.31 L989.751 1161.31 L989.751 1176.84 Q989.751 1180.52 991.186 1182.37 Q992.621 1184.2 995.492 1184.2 Q998.941 1184.2 1000.93 1182 Q1002.95 1179.8 1002.95 1176.01 L1002.95 1161.31 L1007.2 1161.31 L1007.2 1187.24 L1002.95 1187.24 L1002.95 1183.25 Q1001.39 1185.61 999.334 1186.77 Q997.297 1187.91 994.589 1187.91 Q990.122 1187.91 987.807 1185.13 Q985.492 1182.35 985.492 1177 M996.209 1160.68 L996.209 1160.68 Z" fill="#000000" fill-rule="evenodd" fill-opacity="1" /><path clip-path="url(#clip970)" d="M1037.53 1171.59 L1037.53 1187.24 L1033.27 1187.24 L1033.27 1171.73 Q1033.27 1168.05 1031.83 1166.22 Q1030.4 1164.39 1027.53 1164.39 Q1024.08 1164.39 1022.09 1166.59 Q1020.1 1168.79 1020.1 1172.58 L1020.1 1187.24 L1015.82 1187.24 L1015.82 1161.31 L1020.1 1161.31 L1020.1 1165.34 Q1021.63 1163 1023.69 1161.84 Q1025.77 1160.68 1028.48 1160.68 Q1032.95 1160.68 1035.24 1163.46 Q1037.53 1166.22 1037.53 1171.59 Z" fill="#000000" fill-rule="evenodd" fill-opacity="1" /><path clip-path="url(#clip970)" d="M1063.08 1165.24 L1063.08 1151.22 L1067.34 1151.22 L1067.34 1187.24 L1063.08 1187.24 L1063.08 1183.35 Q1061.74 1185.66 1059.68 1186.8 Q1057.64 1187.91 1054.77 1187.91 Q1050.07 1187.91 1047.11 1184.16 Q1044.17 1180.41 1044.17 1174.3 Q1044.17 1168.18 1047.11 1164.43 Q1050.07 1160.68 1054.77 1160.68 Q1057.64 1160.68 1059.68 1161.82 Q1061.74 1162.93 1063.08 1165.24 M1048.57 1174.3 Q1048.57 1178.99 1050.49 1181.68 Q1052.44 1184.34 1055.82 1184.34 Q1059.2 1184.34 1061.14 1181.68 Q1063.08 1178.99 1063.08 1174.3 Q1063.08 1169.6 1061.14 1166.93 Q1059.2 1164.25 1055.82 1164.25 Q1052.44 1164.25 1050.49 1166.93 Q1048.57 1169.6 1048.57 1174.3 Z" fill="#000000" fill-rule="evenodd" fill-opacity="1" /><polyline clip-path="url(#clip970)" style="stroke:#e26f46; stroke-linecap:round; stroke-linejoin:round; stroke-width:4; stroke-opacity:1; fill:none" points="346.097,1221.8 486.096,1221.8 "/>
<path clip-path="url(#clip970)" d="M531.142 1223.43 L531.142 1239.08 L526.883 1239.08 L526.883 1223.57 Q526.883 1219.89 525.448 1218.06 Q524.013 1216.23 521.143 1216.23 Q517.693 1216.23 515.703 1218.43 Q513.712 1220.63 513.712 1224.42 L513.712 1239.08 L509.43 1239.08 L509.43 1213.15 L513.712 1213.15 L513.712 1217.18 Q515.24 1214.84 517.3 1213.68 Q519.383 1212.52 522.092 1212.52 Q526.559 1212.52 528.851 1215.3 Q531.142 1218.06 531.142 1223.43 Z" fill="#000000" fill-rule="evenodd" fill-opacity="1" /><path clip-path="url(#clip970)" d="M551.42 1226.04 Q546.258 1226.04 544.267 1227.22 Q542.277 1228.4 542.277 1231.25 Q542.277 1233.52 543.758 1234.86 Q545.263 1236.18 547.832 1236.18 Q551.374 1236.18 553.503 1233.68 Q555.656 1231.16 555.656 1226.99 L555.656 1226.04 L551.42 1226.04 M559.915 1224.28 L559.915 1239.08 L555.656 1239.08 L555.656 1235.14 Q554.198 1237.5 552.022 1238.64 Q549.846 1239.75 546.698 1239.75 Q542.716 1239.75 540.355 1237.52 Q538.017 1235.28 538.017 1231.53 Q538.017 1227.15 540.934 1224.93 Q543.874 1222.71 549.684 1222.71 L555.656 1222.71 L555.656 1222.29 Q555.656 1219.35 553.712 1217.76 Q551.791 1216.14 548.295 1216.14 Q546.073 1216.14 543.966 1216.67 Q541.86 1217.2 539.916 1218.27 L539.916 1214.33 Q542.254 1213.43 544.453 1212.99 Q546.652 1212.52 548.735 1212.52 Q554.36 1212.52 557.138 1215.44 Q559.915 1218.36 559.915 1224.28 Z" fill="#000000" fill-rule="evenodd" fill-opacity="1" /><path clip-path="url(#clip970)" d="M568.689 1213.15 L572.948 1213.15 L572.948 1239.08 L568.689 1239.08 L568.689 1213.15 M568.689 1203.06 L572.948 1203.06 L572.948 1208.45 L568.689 1208.45 L568.689 1203.06 Z" fill="#000000" fill-rule="evenodd" fill-opacity="1" /><path clip-path="url(#clip970)" d="M578.804 1213.15 L583.318 1213.15 L591.42 1234.91 L599.522 1213.15 L604.036 1213.15 L594.313 1239.08 L588.526 1239.08 L578.804 1213.15 Z" fill="#000000" fill-rule="evenodd" fill-opacity="1" /><path clip-path="url(#clip970)" d="M632.091 1225.05 L632.091 1227.13 L612.508 1227.13 Q612.786 1231.53 615.147 1233.84 Q617.531 1236.14 621.767 1236.14 Q624.221 1236.14 626.512 1235.53 Q628.827 1234.93 631.096 1233.73 L631.096 1237.76 Q628.804 1238.73 626.397 1239.24 Q623.989 1239.75 621.512 1239.75 Q615.309 1239.75 611.674 1236.14 Q608.063 1232.52 608.063 1226.37 Q608.063 1220 611.489 1216.27 Q614.938 1212.52 620.772 1212.52 Q626.003 1212.52 629.035 1215.9 Q632.091 1219.26 632.091 1225.05 M627.832 1223.8 Q627.785 1220.3 625.864 1218.22 Q623.966 1216.14 620.818 1216.14 Q617.253 1216.14 615.1 1218.15 Q612.971 1220.16 612.647 1223.82 L627.832 1223.8 Z" fill="#000000" fill-rule="evenodd" fill-opacity="1" /><polyline clip-path="url(#clip970)" style="stroke:#3da44d; stroke-linecap:round; stroke-linejoin:round; stroke-width:4; stroke-opacity:1; fill:none" points="346.097,1273.64 486.096,1273.64 "/>
<path clip-path="url(#clip970)" d="M529.939 1265.98 L529.939 1269.97 Q528.133 1268.97 526.305 1268.48 Q524.499 1267.98 522.647 1267.98 Q518.504 1267.98 516.212 1270.61 Q513.92 1273.23 513.92 1277.98 Q513.92 1282.72 516.212 1285.36 Q518.504 1287.98 522.647 1287.98 Q524.499 1287.98 526.305 1287.49 Q528.133 1286.98 529.939 1285.98 L529.939 1289.92 Q528.156 1290.75 526.235 1291.17 Q524.337 1291.59 522.184 1291.59 Q516.328 1291.59 512.879 1287.91 Q509.43 1284.23 509.43 1277.98 Q509.43 1271.63 512.902 1268 Q516.397 1264.36 522.462 1264.36 Q524.43 1264.36 526.305 1264.78 Q528.18 1265.17 529.939 1265.98 Z" fill="#000000" fill-rule="evenodd" fill-opacity="1" /><path clip-path="url(#clip970)" d="M536.906 1280.68 L536.906 1264.99 L541.166 1264.99 L541.166 1280.52 Q541.166 1284.2 542.601 1286.05 Q544.036 1287.88 546.906 1287.88 Q550.355 1287.88 552.346 1285.68 Q554.36 1283.48 554.36 1279.69 L554.36 1264.99 L558.619 1264.99 L558.619 1290.92 L554.36 1290.92 L554.36 1286.93 Q552.809 1289.29 550.749 1290.45 Q548.712 1291.59 546.004 1291.59 Q541.536 1291.59 539.221 1288.81 Q536.906 1286.03 536.906 1280.68 M547.624 1264.36 L547.624 1264.36 Z" fill="#000000" fill-rule="evenodd" fill-opacity="1" /><path clip-path="url(#clip970)" d="M582.415 1268.97 Q581.698 1268.55 580.841 1268.37 Q580.008 1268.16 578.989 1268.16 Q575.378 1268.16 573.434 1270.52 Q571.513 1272.86 571.513 1277.26 L571.513 1290.92 L567.23 1290.92 L567.23 1264.99 L571.513 1264.99 L571.513 1269.02 Q572.855 1266.66 575.008 1265.52 Q577.161 1264.36 580.239 1264.36 Q580.679 1264.36 581.212 1264.43 Q581.744 1264.48 582.392 1264.6 L582.415 1268.97 Z" fill="#000000" fill-rule="evenodd" fill-opacity="1" /><path clip-path="url(#clip970)" d="M583.827 1264.99 L588.341 1264.99 L596.443 1286.75 L604.545 1264.99 L609.059 1264.99 L599.337 1290.92 L593.55 1290.92 L583.827 1264.99 Z" fill="#000000" fill-rule="evenodd" fill-opacity="1" /><path clip-path="url(#clip970)" d="M626.721 1277.88 Q621.559 1277.88 619.568 1279.06 Q617.577 1280.24 617.577 1283.09 Q617.577 1285.36 619.059 1286.7 Q620.563 1288.02 623.133 1288.02 Q626.674 1288.02 628.804 1285.52 Q630.957 1283 630.957 1278.83 L630.957 1277.88 L626.721 1277.88 M635.216 1276.12 L635.216 1290.92 L630.957 1290.92 L630.957 1286.98 Q629.498 1289.34 627.323 1290.48 Q625.147 1291.59 621.998 1291.59 Q618.017 1291.59 615.656 1289.36 Q613.318 1287.12 613.318 1283.37 Q613.318 1278.99 616.235 1276.77 Q619.174 1274.55 624.985 1274.55 L630.957 1274.55 L630.957 1274.13 Q630.957 1271.19 629.012 1269.6 Q627.091 1267.98 623.596 1267.98 Q621.373 1267.98 619.267 1268.51 Q617.161 1269.04 615.216 1270.11 L615.216 1266.17 Q617.554 1265.27 619.753 1264.83 Q621.952 1264.36 624.035 1264.36 Q629.66 1264.36 632.438 1267.28 Q635.216 1270.2 635.216 1276.12 Z" fill="#000000" fill-rule="evenodd" fill-opacity="1" /><path clip-path="url(#clip970)" d="M648.202 1257.63 L648.202 1264.99 L656.975 1264.99 L656.975 1268.3 L648.202 1268.3 L648.202 1282.37 Q648.202 1285.54 649.059 1286.45 Q649.938 1287.35 652.6 1287.35 L656.975 1287.35 L656.975 1290.92 L652.6 1290.92 Q647.67 1290.92 645.795 1289.09 Q643.92 1287.23 643.92 1282.37 L643.92 1268.3 L640.795 1268.3 L640.795 1264.99 L643.92 1264.99 L643.92 1257.63 L648.202 1257.63 Z" fill="#000000" fill-rule="evenodd" fill-opacity="1" /><path clip-path="url(#clip970)" d="M662.137 1280.68 L662.137 1264.99 L666.396 1264.99 L666.396 1280.52 Q666.396 1284.2 667.832 1286.05 Q669.267 1287.88 672.137 1287.88 Q675.586 1287.88 677.577 1285.68 Q679.591 1283.48 679.591 1279.69 L679.591 1264.99 L683.85 1264.99 L683.85 1290.92 L679.591 1290.92 L679.591 1286.93 Q678.04 1289.29 675.98 1290.45 Q673.943 1291.59 671.234 1291.59 Q666.767 1291.59 664.452 1288.81 Q662.137 1286.03 662.137 1280.68 M672.855 1264.36 L672.855 1264.36 Z" fill="#000000" fill-rule="evenodd" fill-opacity="1" /><path clip-path="url(#clip970)" d="M707.646 1268.97 Q706.929 1268.55 706.072 1268.37 Q705.239 1268.16 704.22 1268.16 Q700.609 1268.16 698.665 1270.52 Q696.743 1272.86 696.743 1277.26 L696.743 1290.92 L692.461 1290.92 L692.461 1264.99 L696.743 1264.99 L696.743 1269.02 Q698.086 1266.66 700.239 1265.52 Q702.392 1264.36 705.47 1264.36 Q705.91 1264.36 706.442 1264.43 Q706.975 1264.48 707.623 1264.6 L707.646 1268.97 Z" fill="#000000" fill-rule="evenodd" fill-opacity="1" /><path clip-path="url(#clip970)" d="M733.248 1276.89 L733.248 1278.97 L713.665 1278.97 Q713.942 1283.37 716.304 1285.68 Q718.688 1287.98 722.924 1287.98 Q725.378 1287.98 727.669 1287.37 Q729.984 1286.77 732.253 1285.57 L732.253 1289.6 Q729.961 1290.57 727.553 1291.08 Q725.146 1291.59 722.669 1291.59 Q716.466 1291.59 712.831 1287.98 Q709.22 1284.36 709.22 1278.21 Q709.22 1271.84 712.646 1268.11 Q716.095 1264.36 721.928 1264.36 Q727.16 1264.36 730.192 1267.74 Q733.248 1271.1 733.248 1276.89 M728.989 1275.64 Q728.942 1272.14 727.021 1270.06 Q725.123 1267.98 721.975 1267.98 Q718.41 1267.98 716.257 1269.99 Q714.128 1272 713.804 1275.66 L728.989 1275.64 Z" fill="#000000" fill-rule="evenodd" fill-opacity="1" /><path clip-path="url(#clip970)" d="M773.965 1265.98 L773.965 1269.97 Q772.16 1268.97 770.331 1268.48 Q768.525 1267.98 766.674 1267.98 Q762.53 1267.98 760.238 1270.61 Q757.947 1273.23 757.947 1277.98 Q757.947 1282.72 760.238 1285.36 Q762.53 1287.98 766.674 1287.98 Q768.525 1287.98 770.331 1287.49 Q772.16 1286.98 773.965 1285.98 L773.965 1289.92 Q772.183 1290.75 770.262 1291.17 Q768.363 1291.59 766.211 1291.59 Q760.354 1291.59 756.905 1287.91 Q753.456 1284.23 753.456 1277.98 Q753.456 1271.63 756.928 1268 Q760.424 1264.36 766.488 1264.36 Q768.456 1264.36 770.331 1264.78 Q772.206 1265.17 773.965 1265.98 Z" fill="#000000" fill-rule="evenodd" fill-opacity="1" /><path clip-path="url(#clip970)" d="M791.419 1267.98 Q787.993 1267.98 786.002 1270.66 Q784.011 1273.32 784.011 1277.98 Q784.011 1282.63 785.979 1285.31 Q787.97 1287.98 791.419 1287.98 Q794.822 1287.98 796.812 1285.29 Q798.803 1282.61 798.803 1277.98 Q798.803 1273.37 796.812 1270.68 Q794.822 1267.98 791.419 1267.98 M791.419 1264.36 Q796.974 1264.36 800.146 1267.98 Q803.317 1271.59 803.317 1277.98 Q803.317 1284.34 800.146 1287.98 Q796.974 1291.59 791.419 1291.59 Q785.84 1291.59 782.669 1287.98 Q779.521 1284.34 779.521 1277.98 Q779.521 1271.59 782.669 1267.98 Q785.84 1264.36 791.419 1264.36 Z" fill="#000000" fill-rule="evenodd" fill-opacity="1" /><path clip-path="url(#clip970)" d="M825.4 1268.97 Q824.683 1268.55 823.826 1268.37 Q822.993 1268.16 821.974 1268.16 Q818.363 1268.16 816.419 1270.52 Q814.497 1272.86 814.497 1277.26 L814.497 1290.92 L810.215 1290.92 L810.215 1264.99 L814.497 1264.99 L814.497 1269.02 Q815.84 1266.66 817.993 1265.52 Q820.146 1264.36 823.224 1264.36 Q823.664 1264.36 824.196 1264.43 Q824.729 1264.48 825.377 1264.6 L825.4 1268.97 Z" fill="#000000" fill-rule="evenodd" fill-opacity="1" /><path clip-path="url(#clip970)" d="M844.057 1268.97 Q843.34 1268.55 842.483 1268.37 Q841.65 1268.16 840.632 1268.16 Q837.02 1268.16 835.076 1270.52 Q833.155 1272.86 833.155 1277.26 L833.155 1290.92 L828.872 1290.92 L828.872 1264.99 L833.155 1264.99 L833.155 1269.02 Q834.497 1266.66 836.65 1265.52 Q838.803 1264.36 841.882 1264.36 Q842.321 1264.36 842.854 1264.43 Q843.386 1264.48 844.034 1264.6 L844.057 1268.97 Z" fill="#000000" fill-rule="evenodd" fill-opacity="1" /><path clip-path="url(#clip970)" d="M869.659 1276.89 L869.659 1278.97 L850.076 1278.97 Q850.354 1283.37 852.715 1285.68 Q855.099 1287.98 859.335 1287.98 Q861.789 1287.98 864.081 1287.37 Q866.395 1286.77 868.664 1285.57 L868.664 1289.6 Q866.372 1290.57 863.965 1291.08 Q861.557 1291.59 859.081 1291.59 Q852.877 1291.59 849.243 1287.98 Q845.632 1284.36 845.632 1278.21 Q845.632 1271.84 849.057 1268.11 Q852.506 1264.36 858.34 1264.36 Q863.571 1264.36 866.604 1267.74 Q869.659 1271.1 869.659 1276.89 M865.4 1275.64 Q865.354 1272.14 863.432 1270.06 Q861.534 1267.98 858.386 1267.98 Q854.821 1267.98 852.669 1269.99 Q850.539 1272 850.215 1275.66 L865.4 1275.64 Z" fill="#000000" fill-rule="evenodd" fill-opacity="1" /><path clip-path="url(#clip970)" d="M895.307 1265.98 L895.307 1269.97 Q893.502 1268.97 891.673 1268.48 Q889.867 1267.98 888.016 1267.98 Q883.872 1267.98 881.58 1270.61 Q879.289 1273.23 879.289 1277.98 Q879.289 1282.72 881.58 1285.36 Q883.872 1287.98 888.016 1287.98 Q889.867 1287.98 891.673 1287.49 Q893.502 1286.98 895.307 1285.98 L895.307 1289.92 Q893.525 1290.75 891.604 1291.17 Q889.705 1291.59 887.553 1291.59 Q881.696 1291.59 878.247 1287.91 Q874.798 1284.23 874.798 1277.98 Q874.798 1271.63 878.27 1268 Q881.766 1264.36 887.83 1264.36 Q889.798 1264.36 891.673 1264.78 Q893.548 1265.17 895.307 1265.98 Z" fill="#000000" fill-rule="evenodd" fill-opacity="1" /><path clip-path="url(#clip970)" d="M906.928 1257.63 L906.928 1264.99 L915.701 1264.99 L915.701 1268.3 L906.928 1268.3 L906.928 1282.37 Q906.928 1285.54 907.784 1286.45 Q908.664 1287.35 911.326 1287.35 L915.701 1287.35 L915.701 1290.92 L911.326 1290.92 Q906.395 1290.92 904.52 1289.09 Q902.645 1287.23 902.645 1282.37 L902.645 1268.3 L899.52 1268.3 L899.52 1264.99 L902.645 1264.99 L902.645 1257.63 L906.928 1257.63 Z" fill="#000000" fill-rule="evenodd" fill-opacity="1" /><path clip-path="url(#clip970)" d="M943.478 1276.89 L943.478 1278.97 L923.895 1278.97 Q924.173 1283.37 926.534 1285.68 Q928.918 1287.98 933.154 1287.98 Q935.608 1287.98 937.9 1287.37 Q940.214 1286.77 942.483 1285.57 L942.483 1289.6 Q940.191 1290.57 937.784 1291.08 Q935.376 1291.59 932.9 1291.59 Q926.696 1291.59 923.062 1287.98 Q919.451 1284.36 919.451 1278.21 Q919.451 1271.84 922.876 1268.11 Q926.326 1264.36 932.159 1264.36 Q937.39 1264.36 940.423 1267.74 Q943.478 1271.1 943.478 1276.89 M939.219 1275.64 Q939.173 1272.14 937.251 1270.06 Q935.353 1267.98 932.205 1267.98 Q928.64 1267.98 926.488 1269.99 Q924.358 1272 924.034 1275.66 L939.219 1275.64 Z" fill="#000000" fill-rule="evenodd" fill-opacity="1" /><path clip-path="url(#clip970)" d="M967.529 1268.92 L967.529 1254.9 L971.788 1254.9 L971.788 1290.92 L967.529 1290.92 L967.529 1287.03 Q966.186 1289.34 964.126 1290.48 Q962.089 1291.59 959.219 1291.59 Q954.52 1291.59 951.557 1287.84 Q948.617 1284.09 948.617 1277.98 Q948.617 1271.86 951.557 1268.11 Q954.52 1264.36 959.219 1264.36 Q962.089 1264.36 964.126 1265.5 Q966.186 1266.61 967.529 1268.92 M953.015 1277.98 Q953.015 1282.67 954.937 1285.36 Q956.881 1288.02 960.261 1288.02 Q963.64 1288.02 965.585 1285.36 Q967.529 1282.67 967.529 1277.98 Q967.529 1273.28 965.585 1270.61 Q963.64 1267.93 960.261 1267.93 Q956.881 1267.93 954.937 1270.61 Q953.015 1273.28 953.015 1277.98 Z" fill="#000000" fill-rule="evenodd" fill-opacity="1" /><polyline clip-path="url(#clip970)" style="stroke:#c271d2; stroke-linecap:round; stroke-linejoin:round; stroke-width:4; stroke-opacity:1; fill:none" points="346.097,1325.48 486.096,1325.48 "/>
<path clip-path="url(#clip970)" d="M533.457 1328.73 L533.457 1330.81 L513.874 1330.81 Q514.152 1335.21 516.513 1337.52 Q518.897 1339.82 523.133 1339.82 Q525.587 1339.82 527.879 1339.21 Q530.193 1338.61 532.462 1337.41 L532.462 1341.44 Q530.17 1342.41 527.763 1342.92 Q525.355 1343.43 522.879 1343.43 Q516.675 1343.43 513.041 1339.82 Q509.43 1336.2 509.43 1330.05 Q509.43 1323.68 512.856 1319.95 Q516.305 1316.2 522.138 1316.2 Q527.369 1316.2 530.402 1319.58 Q533.457 1322.94 533.457 1328.73 M529.198 1327.48 Q529.152 1323.98 527.23 1321.9 Q525.332 1319.82 522.184 1319.82 Q518.619 1319.82 516.467 1321.83 Q514.337 1323.84 514.013 1327.5 L529.198 1327.48 Z" fill="#000000" fill-rule="evenodd" fill-opacity="1" /><path clip-path="url(#clip970)" d="M561.165 1316.83 L551.791 1329.45 L561.652 1342.76 L556.628 1342.76 L549.082 1332.57 L541.536 1342.76 L536.513 1342.76 L546.582 1329.19 L537.369 1316.83 L542.392 1316.83 L549.267 1326.07 L556.142 1316.83 L561.165 1316.83 Z" fill="#000000" fill-rule="evenodd" fill-opacity="1" /><path clip-path="url(#clip970)" d="M579.452 1329.72 Q574.29 1329.72 572.3 1330.9 Q570.309 1332.08 570.309 1334.93 Q570.309 1337.2 571.79 1338.54 Q573.295 1339.86 575.864 1339.86 Q579.406 1339.86 581.536 1337.36 Q583.688 1334.84 583.688 1330.67 L583.688 1329.72 L579.452 1329.72 M587.948 1327.96 L587.948 1342.76 L583.688 1342.76 L583.688 1338.82 Q582.23 1341.18 580.054 1342.32 Q577.878 1343.43 574.73 1343.43 Q570.749 1343.43 568.388 1341.2 Q566.05 1338.96 566.05 1335.21 Q566.05 1330.83 568.966 1328.61 Q571.906 1326.39 577.716 1326.39 L583.688 1326.39 L583.688 1325.97 Q583.688 1323.03 581.744 1321.44 Q579.823 1319.82 576.327 1319.82 Q574.105 1319.82 571.999 1320.35 Q569.892 1320.88 567.948 1321.95 L567.948 1318.01 Q570.286 1317.11 572.485 1316.67 Q574.684 1316.2 576.767 1316.2 Q582.392 1316.2 585.17 1319.12 Q587.948 1322.04 587.948 1327.96 Z" fill="#000000" fill-rule="evenodd" fill-opacity="1" /><path clip-path="url(#clip970)" d="M615.378 1317.82 L615.378 1321.81 Q613.573 1320.81 611.744 1320.32 Q609.938 1319.82 608.087 1319.82 Q603.943 1319.82 601.651 1322.45 Q599.36 1325.07 599.36 1329.82 Q599.36 1334.56 601.651 1337.2 Q603.943 1339.82 608.087 1339.82 Q609.938 1339.82 611.744 1339.33 Q613.573 1338.82 615.378 1337.82 L615.378 1341.76 Q613.596 1342.59 611.674 1343.01 Q609.776 1343.43 607.624 1343.43 Q601.767 1343.43 598.318 1339.75 Q594.869 1336.07 594.869 1329.82 Q594.869 1323.47 598.341 1319.84 Q601.837 1316.2 607.901 1316.2 Q609.869 1316.2 611.744 1316.62 Q613.619 1317.01 615.378 1317.82 Z" fill="#000000" fill-rule="evenodd" fill-opacity="1" /><path clip-path="url(#clip970)" d="M626.998 1309.47 L626.998 1316.83 L635.772 1316.83 L635.772 1320.14 L626.998 1320.14 L626.998 1334.21 Q626.998 1337.38 627.855 1338.29 Q628.735 1339.19 631.397 1339.19 L635.772 1339.19 L635.772 1342.76 L631.397 1342.76 Q626.466 1342.76 624.591 1340.93 Q622.716 1339.07 622.716 1334.21 L622.716 1320.14 L619.591 1320.14 L619.591 1316.83 L622.716 1316.83 L622.716 1309.47 L626.998 1309.47 Z" fill="#000000" fill-rule="evenodd" fill-opacity="1" /></svg>
