<?xml version="1.0" encoding="utf-8"?>
<svg xmlns="http://www.w3.org/2000/svg" xmlns:xlink="http://www.w3.org/1999/xlink" width="600" height="400" viewBox="0 0 2400 1600">
<defs>
  <clipPath id="clip620">
    <rect x="0" y="0" width="2400" height="1600"/>
  </clipPath>
</defs>
<path clip-path="url(#clip620)" d="M0 1600 L2400 1600 L2400 0 L0 0  Z" fill="#ffffff" fill-rule="evenodd" fill-opacity="1"/>
<defs>
  <clipPath id="clip621">
    <rect x="480" y="0" width="1681" height="1600"/>
  </clipPath>
</defs>
<defs>
  <clipPath id="clip622">
    <rect x="252" y="47" width="2101" height="1440"/>
  </clipPath>
</defs>
<path clip-path="url(#clip620)" d="M219.866 1423.18 L2352.76 1423.18 L2352.76 47.2441 L219.866 47.2441  Z" fill="#ffffff" fill-rule="evenodd" fill-opacity="1"/>
<defs>
  <clipPath id="clip623">
    <rect x="219" y="47" width="2134" height="1377"/>
  </clipPath>
</defs>
<polyline clip-path="url(#clip623)" style="stroke:#000000; stroke-linecap:round; stroke-linejoin:round; stroke-width:2; stroke-opacity:0.1; fill:none" points="219.866,1423.18 219.866,47.2441 "/>
<polyline clip-path="url(#clip623)" style="stroke:#000000; stroke-linecap:round; stroke-linejoin:round; stroke-width:2; stroke-opacity:0.1; fill:none" points="753.089,1423.18 753.089,47.2441 "/>
<polyline clip-path="url(#clip623)" style="stroke:#000000; stroke-linecap:round; stroke-linejoin:round; stroke-width:2; stroke-opacity:0.1; fill:none" points="1286.31,1423.18 1286.31,47.2441 "/>
<polyline clip-path="url(#clip623)" style="stroke:#000000; stroke-linecap:round; stroke-linejoin:round; stroke-width:2; stroke-opacity:0.1; fill:none" points="1819.53,1423.18 1819.53,47.2441 "/>
<polyline clip-path="url(#clip623)" style="stroke:#000000; stroke-linecap:round; stroke-linejoin:round; stroke-width:2; stroke-opacity:0.1; fill:none" points="2352.76,1423.18 2352.76,47.2441 "/>
<polyline clip-path="url(#clip620)" style="stroke:#000000; stroke-linecap:round; stroke-linejoin:round; stroke-width:4; stroke-opacity:1; fill:none" points="219.866,1423.18 2352.76,1423.18 "/>
<polyline clip-path="url(#clip620)" style="stroke:#000000; stroke-linecap:round; stroke-linejoin:round; stroke-width:4; stroke-opacity:1; fill:none" points="219.866,1423.18 219.866,1404.28 "/>
<polyline clip-path="url(#clip620)" style="stroke:#000000; stroke-linecap:round; stroke-linejoin:round; stroke-width:4; stroke-opacity:1; fill:none" points="753.089,1423.18 753.089,1404.28 "/>
<polyline clip-path="url(#clip620)" style="stroke:#000000; stroke-linecap:round; stroke-linejoin:round; stroke-width:4; stroke-opacity:1; fill:none" points="1286.31,1423.18 1286.31,1404.28 "/>
<polyline clip-path="url(#clip620)" style="stroke:#000000; stroke-linecap:round; stroke-linejoin:round; stroke-width:4; stroke-opacity:1; fill:none" points="1819.53,1423.18 1819.53,1404.28 "/>
<polyline clip-path="url(#clip620)" style="stroke:#000000; stroke-linecap:round; stroke-linejoin:round; stroke-width:4; stroke-opacity:1; fill:none" points="2352.76,1423.18 2352.76,1404.28 "/>
<path clip-path="url(#clip620)" d="M210.248 1481.64 L217.887 1481.64 L217.887 1455.28 L209.577 1456.95 L209.577 1452.69 L217.841 1451.02 L222.517 1451.02 L222.517 1481.64 L230.156 1481.64 L230.156 1485.58 L210.248 1485.58 L210.248 1481.64 Z" fill="#000000" fill-rule="evenodd" fill-opacity="1" /><path clip-path="url(#clip620)" d="M747.741 1481.64 L764.061 1481.64 L764.061 1485.58 L742.117 1485.58 L742.117 1481.64 Q744.779 1478.89 749.362 1474.26 Q753.968 1469.61 755.149 1468.27 Q757.394 1465.74 758.274 1464.01 Q759.177 1462.25 759.177 1460.56 Q759.177 1457.8 757.232 1456.07 Q755.311 1454.33 752.209 1454.33 Q750.01 1454.33 747.556 1455.09 Q745.126 1455.86 742.348 1457.41 L742.348 1452.69 Q745.172 1451.55 747.626 1450.97 Q750.079 1450.39 752.116 1450.39 Q757.487 1450.39 760.681 1453.08 Q763.876 1455.77 763.876 1460.26 Q763.876 1462.39 763.065 1464.31 Q762.278 1466.2 760.172 1468.8 Q759.593 1469.47 756.491 1472.69 Q753.39 1475.88 747.741 1481.64 Z" fill="#000000" fill-rule="evenodd" fill-opacity="1" /><path clip-path="url(#clip620)" d="M1290.56 1466.95 Q1293.92 1467.66 1295.79 1469.93 Q1297.69 1472.2 1297.69 1475.53 Q1297.69 1480.65 1294.17 1483.45 Q1290.65 1486.25 1284.17 1486.25 Q1281.99 1486.25 1279.68 1485.81 Q1277.39 1485.39 1274.93 1484.54 L1274.93 1480.02 Q1276.88 1481.16 1279.19 1481.74 Q1281.51 1482.32 1284.03 1482.32 Q1288.43 1482.32 1290.72 1480.58 Q1293.04 1478.84 1293.04 1475.53 Q1293.04 1472.48 1290.88 1470.77 Q1288.75 1469.03 1284.93 1469.03 L1280.91 1469.03 L1280.91 1465.19 L1285.12 1465.19 Q1288.57 1465.19 1290.4 1463.82 Q1292.23 1462.43 1292.23 1459.84 Q1292.23 1457.18 1290.33 1455.77 Q1288.45 1454.33 1284.93 1454.33 Q1283.01 1454.33 1280.81 1454.75 Q1278.61 1455.16 1275.98 1456.04 L1275.98 1451.88 Q1278.64 1451.14 1280.95 1450.77 Q1283.29 1450.39 1285.35 1450.39 Q1290.67 1450.39 1293.78 1452.83 Q1296.88 1455.23 1296.88 1459.35 Q1296.88 1462.22 1295.23 1464.21 Q1293.59 1466.18 1290.56 1466.95 Z" fill="#000000" fill-rule="evenodd" fill-opacity="1" /><path clip-path="url(#clip620)" d="M1822.54 1455.09 L1810.74 1473.54 L1822.54 1473.54 L1822.54 1455.09 M1821.32 1451.02 L1827.2 1451.02 L1827.2 1473.54 L1832.13 1473.54 L1832.13 1477.43 L1827.2 1477.43 L1827.2 1485.58 L1822.54 1485.58 L1822.54 1477.43 L1806.94 1477.43 L1806.94 1472.92 L1821.32 1451.02 Z" fill="#000000" fill-rule="evenodd" fill-opacity="1" /><path clip-path="url(#clip620)" d="M2343.03 1451.02 L2361.39 1451.02 L2361.39 1454.96 L2347.32 1454.96 L2347.32 1463.43 Q2348.33 1463.08 2349.35 1462.92 Q2350.37 1462.73 2351.39 1462.73 Q2357.18 1462.73 2360.56 1465.9 Q2363.94 1469.08 2363.94 1474.49 Q2363.94 1480.07 2360.46 1483.17 Q2356.99 1486.25 2350.67 1486.25 Q2348.5 1486.25 2346.23 1485.88 Q2343.98 1485.51 2341.58 1484.77 L2341.58 1480.07 Q2343.66 1481.2 2345.88 1481.76 Q2348.1 1482.32 2350.58 1482.32 Q2354.58 1482.32 2356.92 1480.21 Q2359.26 1478.1 2359.26 1474.49 Q2359.26 1470.88 2356.92 1468.77 Q2354.58 1466.67 2350.58 1466.67 Q2348.71 1466.67 2346.83 1467.08 Q2344.98 1467.5 2343.03 1468.38 L2343.03 1451.02 Z" fill="#000000" fill-rule="evenodd" fill-opacity="1" /><path clip-path="url(#clip620)" d="M988.062 1550.12 Q980.964 1550.12 978.227 1551.75 Q975.49 1553.37 975.49 1557.29 Q975.49 1560.4 977.527 1562.25 Q979.595 1564.07 983.128 1564.07 Q987.998 1564.07 990.926 1560.63 Q993.886 1557.16 993.886 1551.43 L993.886 1550.12 L988.062 1550.12 M999.743 1547.71 L999.743 1568.04 L993.886 1568.04 L993.886 1562.63 Q991.881 1565.88 988.889 1567.44 Q985.897 1568.97 981.569 1568.97 Q976.094 1568.97 972.848 1565.91 Q969.633 1562.82 969.633 1557.67 Q969.633 1551.65 973.643 1548.6 Q977.686 1545.54 985.675 1545.54 L993.886 1545.54 L993.886 1544.97 Q993.886 1540.93 991.213 1538.73 Q988.571 1536.5 983.765 1536.5 Q980.709 1536.5 977.813 1537.23 Q974.917 1537.97 972.243 1539.43 L972.243 1534.02 Q975.458 1532.78 978.481 1532.17 Q981.505 1531.54 984.37 1531.54 Q992.104 1531.54 995.923 1535.55 Q999.743 1539.56 999.743 1547.71 Z" fill="#000000" fill-rule="evenodd" fill-opacity="1" /><path clip-path="url(#clip620)" d="M1017.47 1562.7 L1017.47 1581.6 L1011.58 1581.6 L1011.58 1532.4 L1017.47 1532.4 L1017.47 1537.81 Q1019.32 1534.62 1022.12 1533.1 Q1024.95 1531.54 1028.87 1531.54 Q1035.36 1531.54 1039.4 1536.69 Q1043.48 1541.85 1043.48 1550.25 Q1043.48 1558.65 1039.4 1563.81 Q1035.36 1568.97 1028.87 1568.97 Q1024.95 1568.97 1022.12 1567.44 Q1019.32 1565.88 1017.47 1562.7 M1037.4 1550.25 Q1037.4 1543.79 1034.72 1540.13 Q1032.08 1536.44 1027.43 1536.44 Q1022.79 1536.44 1020.11 1540.13 Q1017.47 1543.79 1017.47 1550.25 Q1017.47 1556.71 1020.11 1560.4 Q1022.79 1564.07 1027.43 1564.07 Q1032.08 1564.07 1034.72 1560.4 Q1037.4 1556.71 1037.4 1550.25 Z" fill="#000000" fill-rule="evenodd" fill-opacity="1" /><path clip-path="url(#clip620)" d="M1058.85 1562.7 L1058.85 1581.6 L1052.96 1581.6 L1052.96 1532.4 L1058.85 1532.4 L1058.85 1537.81 Q1060.69 1534.62 1063.5 1533.1 Q1066.33 1531.54 1070.24 1531.54 Q1076.74 1531.54 1080.78 1536.69 Q1084.85 1541.85 1084.85 1550.25 Q1084.85 1558.65 1080.78 1563.81 Q1076.74 1568.97 1070.24 1568.97 Q1066.33 1568.97 1063.5 1567.44 Q1060.69 1565.88 1058.85 1562.7 M1078.77 1550.25 Q1078.77 1543.79 1076.1 1540.13 Q1073.46 1536.44 1068.81 1536.44 Q1064.16 1536.44 1061.49 1540.13 Q1058.85 1543.79 1058.85 1550.25 Q1058.85 1556.71 1061.49 1560.4 Q1064.16 1564.07 1068.81 1564.07 Q1073.46 1564.07 1076.1 1560.4 Q1078.77 1556.71 1078.77 1550.25 Z" fill="#000000" fill-rule="evenodd" fill-opacity="1" /><path clip-path="url(#clip620)" d="M1115.22 1537.87 Q1114.23 1537.3 1113.05 1537.04 Q1111.91 1536.76 1110.51 1536.76 Q1105.54 1536.76 1102.87 1540 Q1100.23 1543.22 1100.23 1549.27 L1100.23 1568.04 L1094.34 1568.04 L1094.34 1532.4 L1100.23 1532.4 L1100.23 1537.93 Q1102.07 1534.69 1105.03 1533.13 Q1107.99 1531.54 1112.22 1531.54 Q1112.83 1531.54 1113.56 1531.63 Q1114.29 1531.7 1115.18 1531.85 L1115.22 1537.87 Z" fill="#000000" fill-rule="evenodd" fill-opacity="1" /><path clip-path="url(#clip620)" d="M1133.74 1536.5 Q1129.03 1536.5 1126.29 1540.19 Q1123.56 1543.85 1123.56 1550.25 Q1123.56 1556.65 1126.26 1560.34 Q1129 1564 1133.74 1564 Q1138.42 1564 1141.16 1560.31 Q1143.89 1556.62 1143.89 1550.25 Q1143.89 1543.92 1141.16 1540.23 Q1138.42 1536.5 1133.74 1536.5 M1133.74 1531.54 Q1141.38 1531.54 1145.74 1536.5 Q1150.1 1541.47 1150.1 1550.25 Q1150.1 1559 1145.74 1564 Q1141.38 1568.97 1133.74 1568.97 Q1126.07 1568.97 1121.71 1564 Q1117.38 1559 1117.38 1550.25 Q1117.38 1541.47 1121.71 1536.5 Q1126.07 1531.54 1133.74 1531.54 Z" fill="#000000" fill-rule="evenodd" fill-opacity="1" /><path clip-path="url(#clip620)" d="M1187.44 1532.4 L1174.55 1549.74 L1188.1 1568.04 L1181.2 1568.04 L1170.82 1554.04 L1160.45 1568.04 L1153.54 1568.04 L1167.38 1549.39 L1154.72 1532.4 L1161.62 1532.4 L1171.08 1545.1 L1180.53 1532.4 L1187.44 1532.4 Z" fill="#000000" fill-rule="evenodd" fill-opacity="1" /><path clip-path="url(#clip620)" d="M1196.38 1532.4 L1202.24 1532.4 L1202.24 1568.04 L1196.38 1568.04 L1196.38 1532.4 M1196.38 1518.52 L1202.24 1518.52 L1202.24 1525.93 L1196.38 1525.93 L1196.38 1518.52 Z" fill="#000000" fill-rule="evenodd" fill-opacity="1" /><path clip-path="url(#clip620)" d="M1242.24 1539.24 Q1244.44 1535.29 1247.5 1533.41 Q1250.55 1531.54 1254.69 1531.54 Q1260.26 1531.54 1263.28 1535.45 Q1266.31 1539.33 1266.31 1546.53 L1266.31 1568.04 L1260.42 1568.04 L1260.42 1546.72 Q1260.42 1541.59 1258.6 1539.11 Q1256.79 1536.63 1253.07 1536.63 Q1248.51 1536.63 1245.87 1539.65 Q1243.23 1542.68 1243.23 1547.9 L1243.23 1568.04 L1237.34 1568.04 L1237.34 1546.72 Q1237.34 1541.56 1235.53 1539.11 Q1233.71 1536.63 1229.93 1536.63 Q1225.44 1536.63 1222.8 1539.68 Q1220.16 1542.71 1220.16 1547.9 L1220.16 1568.04 L1214.27 1568.04 L1214.27 1532.4 L1220.16 1532.4 L1220.16 1537.93 Q1222.16 1534.66 1224.96 1533.1 Q1227.76 1531.54 1231.61 1531.54 Q1235.5 1531.54 1238.2 1533.51 Q1240.94 1535.48 1242.24 1539.24 Z" fill="#000000" fill-rule="evenodd" fill-opacity="1" /><path clip-path="url(#clip620)" d="M1294.19 1550.12 Q1287.09 1550.12 1284.35 1551.75 Q1281.62 1553.37 1281.62 1557.29 Q1281.62 1560.4 1283.65 1562.25 Q1285.72 1564.07 1289.26 1564.07 Q1294.12 1564.07 1297.05 1560.63 Q1300.01 1557.16 1300.01 1551.43 L1300.01 1550.12 L1294.19 1550.12 M1305.87 1547.71 L1305.87 1568.04 L1300.01 1568.04 L1300.01 1562.63 Q1298.01 1565.88 1295.02 1567.44 Q1292.02 1568.97 1287.7 1568.97 Q1282.22 1568.97 1278.97 1565.91 Q1275.76 1562.82 1275.76 1557.67 Q1275.76 1551.65 1279.77 1548.6 Q1283.81 1545.54 1291.8 1545.54 L1300.01 1545.54 L1300.01 1544.97 Q1300.01 1540.93 1297.34 1538.73 Q1294.7 1536.5 1289.89 1536.5 Q1286.84 1536.5 1283.94 1537.23 Q1281.04 1537.97 1278.37 1539.43 L1278.37 1534.02 Q1281.58 1532.78 1284.61 1532.17 Q1287.63 1531.54 1290.5 1531.54 Q1298.23 1531.54 1302.05 1535.55 Q1305.87 1539.56 1305.87 1547.71 Z" fill="#000000" fill-rule="evenodd" fill-opacity="1" /><path clip-path="url(#clip620)" d="M1323.73 1522.27 L1323.73 1532.4 L1335.79 1532.4 L1335.79 1536.95 L1323.73 1536.95 L1323.73 1556.3 Q1323.73 1560.66 1324.9 1561.9 Q1326.11 1563.14 1329.77 1563.14 L1335.79 1563.14 L1335.79 1568.04 L1329.77 1568.04 Q1322.99 1568.04 1320.42 1565.53 Q1317.84 1562.98 1317.84 1556.3 L1317.84 1536.95 L1313.54 1536.95 L1313.54 1532.4 L1317.84 1532.4 L1317.84 1522.27 L1323.73 1522.27 Z" fill="#000000" fill-rule="evenodd" fill-opacity="1" /><path clip-path="url(#clip620)" d="M1343.49 1532.4 L1349.35 1532.4 L1349.35 1568.04 L1343.49 1568.04 L1343.49 1532.4 M1343.49 1518.52 L1349.35 1518.52 L1349.35 1525.93 L1343.49 1525.93 L1343.49 1518.52 Z" fill="#000000" fill-rule="evenodd" fill-opacity="1" /><path clip-path="url(#clip620)" d="M1375.42 1536.5 Q1370.7 1536.5 1367.97 1540.19 Q1365.23 1543.85 1365.23 1550.25 Q1365.23 1556.65 1367.94 1560.34 Q1370.67 1564 1375.42 1564 Q1380.09 1564 1382.83 1560.31 Q1385.57 1556.62 1385.57 1550.25 Q1385.57 1543.92 1382.83 1540.23 Q1380.09 1536.5 1375.42 1536.5 M1375.42 1531.54 Q1383.05 1531.54 1387.41 1536.5 Q1391.77 1541.47 1391.77 1550.25 Q1391.77 1559 1387.41 1564 Q1383.05 1568.97 1375.42 1568.97 Q1367.74 1568.97 1363.38 1564 Q1359.06 1559 1359.06 1550.25 Q1359.06 1541.47 1363.38 1536.5 Q1367.74 1531.54 1375.42 1531.54 Z" fill="#000000" fill-rule="evenodd" fill-opacity="1" /><path clip-path="url(#clip620)" d="M1431.11 1546.53 L1431.11 1568.04 L1425.26 1568.04 L1425.26 1546.72 Q1425.26 1541.66 1423.29 1539.14 Q1421.31 1536.63 1417.37 1536.63 Q1412.62 1536.63 1409.89 1539.65 Q1407.15 1542.68 1407.15 1547.9 L1407.15 1568.04 L1401.26 1568.04 L1401.26 1532.4 L1407.15 1532.4 L1407.15 1537.93 Q1409.25 1534.72 1412.08 1533.13 Q1414.95 1531.54 1418.67 1531.54 Q1424.81 1531.54 1427.96 1535.36 Q1431.11 1539.14 1431.11 1546.53 Z" fill="#000000" fill-rule="evenodd" fill-opacity="1" /><path clip-path="url(#clip620)" d="M1484.17 1537.87 Q1483.19 1537.3 1482.01 1537.04 Q1480.86 1536.76 1479.46 1536.76 Q1474.5 1536.76 1471.82 1540 Q1469.18 1543.22 1469.18 1549.27 L1469.18 1568.04 L1463.29 1568.04 L1463.29 1532.4 L1469.18 1532.4 L1469.18 1537.93 Q1471.03 1534.69 1473.99 1533.13 Q1476.95 1531.54 1481.18 1531.54 Q1481.79 1531.54 1482.52 1531.63 Q1483.25 1531.7 1484.14 1531.85 L1484.17 1537.87 Z" fill="#000000" fill-rule="evenodd" fill-opacity="1" /><path clip-path="url(#clip620)" d="M1506.52 1550.12 Q1499.42 1550.12 1496.68 1551.75 Q1493.94 1553.37 1493.94 1557.29 Q1493.94 1560.4 1495.98 1562.25 Q1498.05 1564.07 1501.58 1564.07 Q1506.45 1564.07 1509.38 1560.63 Q1512.34 1557.16 1512.34 1551.43 L1512.34 1550.12 L1506.52 1550.12 M1518.2 1547.71 L1518.2 1568.04 L1512.34 1568.04 L1512.34 1562.63 Q1510.34 1565.88 1507.34 1567.44 Q1504.35 1568.97 1500.02 1568.97 Q1494.55 1568.97 1491.3 1565.91 Q1488.09 1562.82 1488.09 1557.67 Q1488.09 1551.65 1492.1 1548.6 Q1496.14 1545.54 1504.13 1545.54 L1512.34 1545.54 L1512.34 1544.97 Q1512.34 1540.93 1509.67 1538.73 Q1507.03 1536.5 1502.22 1536.5 Q1499.16 1536.5 1496.27 1537.23 Q1493.37 1537.97 1490.7 1539.43 L1490.7 1534.02 Q1493.91 1532.78 1496.94 1532.17 Q1499.96 1531.54 1502.82 1531.54 Q1510.56 1531.54 1514.38 1535.55 Q1518.2 1539.56 1518.2 1547.71 Z" fill="#000000" fill-rule="evenodd" fill-opacity="1" /><path clip-path="url(#clip620)" d="M1559.89 1546.53 L1559.89 1568.04 L1554.04 1568.04 L1554.04 1546.72 Q1554.04 1541.66 1552.06 1539.14 Q1550.09 1536.63 1546.14 1536.63 Q1541.4 1536.63 1538.66 1539.65 Q1535.93 1542.68 1535.93 1547.9 L1535.93 1568.04 L1530.04 1568.04 L1530.04 1532.4 L1535.93 1532.4 L1535.93 1537.93 Q1538.03 1534.72 1540.86 1533.13 Q1543.72 1531.54 1547.45 1531.54 Q1553.59 1531.54 1556.74 1535.36 Q1559.89 1539.14 1559.89 1546.53 Z" fill="#000000" fill-rule="evenodd" fill-opacity="1" /><path clip-path="url(#clip620)" d="M1571.35 1518.52 L1577.24 1518.52 L1577.24 1547.77 L1594.71 1532.4 L1602.19 1532.4 L1583.29 1549.07 L1602.99 1568.04 L1595.35 1568.04 L1577.24 1550.63 L1577.24 1568.04 L1571.35 1568.04 L1571.35 1518.52 Z" fill="#000000" fill-rule="evenodd" fill-opacity="1" /><polyline clip-path="url(#clip623)" style="stroke:#000000; stroke-linecap:round; stroke-linejoin:round; stroke-width:2; stroke-opacity:0.1; fill:none" points="219.866,1386.49 2352.76,1386.49 "/>
<polyline clip-path="url(#clip623)" style="stroke:#000000; stroke-linecap:round; stroke-linejoin:round; stroke-width:2; stroke-opacity:0.1; fill:none" points="219.866,1067.36 2352.76,1067.36 "/>
<polyline clip-path="url(#clip623)" style="stroke:#000000; stroke-linecap:round; stroke-linejoin:round; stroke-width:2; stroke-opacity:0.1; fill:none" points="219.866,748.224 2352.76,748.224 "/>
<polyline clip-path="url(#clip623)" style="stroke:#000000; stroke-linecap:round; stroke-linejoin:round; stroke-width:2; stroke-opacity:0.1; fill:none" points="219.866,429.091 2352.76,429.091 "/>
<polyline clip-path="url(#clip623)" style="stroke:#000000; stroke-linecap:round; stroke-linejoin:round; stroke-width:2; stroke-opacity:0.1; fill:none" points="219.866,109.959 2352.76,109.959 "/>
<polyline clip-path="url(#clip620)" style="stroke:#000000; stroke-linecap:round; stroke-linejoin:round; stroke-width:4; stroke-opacity:1; fill:none" points="219.866,1423.18 219.866,47.2441 "/>
<polyline clip-path="url(#clip620)" style="stroke:#000000; stroke-linecap:round; stroke-linejoin:round; stroke-width:4; stroke-opacity:1; fill:none" points="219.866,1386.49 238.764,1386.49 "/>
<polyline clip-path="url(#clip620)" style="stroke:#000000; stroke-linecap:round; stroke-linejoin:round; stroke-width:4; stroke-opacity:1; fill:none" points="219.866,1067.36 238.764,1067.36 "/>
<polyline clip-path="url(#clip620)" style="stroke:#000000; stroke-linecap:round; stroke-linejoin:round; stroke-width:4; stroke-opacity:1; fill:none" points="219.866,748.224 238.764,748.224 "/>
<polyline clip-path="url(#clip620)" style="stroke:#000000; stroke-linecap:round; stroke-linejoin:round; stroke-width:4; stroke-opacity:1; fill:none" points="219.866,429.091 238.764,429.091 "/>
<polyline clip-path="url(#clip620)" style="stroke:#000000; stroke-linecap:round; stroke-linejoin:round; stroke-width:4; stroke-opacity:1; fill:none" points="219.866,109.959 238.764,109.959 "/>
<path clip-path="url(#clip620)" d="M126.691 1372.29 Q123.08 1372.29 121.251 1375.85 Q119.445 1379.4 119.445 1386.52 Q119.445 1393.63 121.251 1397.2 Q123.08 1400.74 126.691 1400.74 Q130.325 1400.74 132.13 1397.2 Q133.959 1393.63 133.959 1386.52 Q133.959 1379.4 132.13 1375.85 Q130.325 1372.29 126.691 1372.29 M126.691 1368.59 Q132.501 1368.59 135.556 1373.19 Q138.635 1377.77 138.635 1386.52 Q138.635 1395.25 135.556 1399.86 Q132.501 1404.44 126.691 1404.44 Q120.88 1404.44 117.802 1399.86 Q114.746 1395.25 114.746 1386.52 Q114.746 1377.77 117.802 1373.19 Q120.88 1368.59 126.691 1368.59 Z" fill="#000000" fill-rule="evenodd" fill-opacity="1" /><path clip-path="url(#clip620)" d="M146.853 1397.89 L151.737 1397.89 L151.737 1403.77 L146.853 1403.77 L146.853 1397.89 Z" fill="#000000" fill-rule="evenodd" fill-opacity="1" /><path clip-path="url(#clip620)" d="M171.922 1372.29 Q168.311 1372.29 166.482 1375.85 Q164.677 1379.4 164.677 1386.52 Q164.677 1393.63 166.482 1397.2 Q168.311 1400.74 171.922 1400.74 Q175.556 1400.74 177.362 1397.2 Q179.19 1393.63 179.19 1386.52 Q179.19 1379.4 177.362 1375.85 Q175.556 1372.29 171.922 1372.29 M171.922 1368.59 Q177.732 1368.59 180.788 1373.19 Q183.866 1377.77 183.866 1386.52 Q183.866 1395.25 180.788 1399.86 Q177.732 1404.44 171.922 1404.44 Q166.112 1404.44 163.033 1399.86 Q159.978 1395.25 159.978 1386.52 Q159.978 1377.77 163.033 1373.19 Q166.112 1368.59 171.922 1368.59 Z" fill="#000000" fill-rule="evenodd" fill-opacity="1" /><path clip-path="url(#clip620)" d="M127.917 1053.16 Q124.306 1053.16 122.478 1056.72 Q120.672 1060.26 120.672 1067.39 Q120.672 1074.5 122.478 1078.06 Q124.306 1081.6 127.917 1081.6 Q131.552 1081.6 133.357 1078.06 Q135.186 1074.5 135.186 1067.39 Q135.186 1060.26 133.357 1056.72 Q131.552 1053.16 127.917 1053.16 M127.917 1049.45 Q133.728 1049.45 136.783 1054.06 Q139.862 1058.64 139.862 1067.39 Q139.862 1076.12 136.783 1080.73 Q133.728 1085.31 127.917 1085.31 Q122.107 1085.31 119.029 1080.73 Q115.973 1076.12 115.973 1067.39 Q115.973 1058.64 119.029 1054.06 Q122.107 1049.45 127.917 1049.45 Z" fill="#000000" fill-rule="evenodd" fill-opacity="1" /><path clip-path="url(#clip620)" d="M148.079 1078.76 L152.964 1078.76 L152.964 1084.64 L148.079 1084.64 L148.079 1078.76 Z" fill="#000000" fill-rule="evenodd" fill-opacity="1" /><path clip-path="url(#clip620)" d="M163.959 1080.7 L171.598 1080.7 L171.598 1054.34 L163.288 1056 L163.288 1051.74 L171.552 1050.08 L176.227 1050.08 L176.227 1080.7 L183.866 1080.7 L183.866 1084.64 L163.959 1084.64 L163.959 1080.7 Z" fill="#000000" fill-rule="evenodd" fill-opacity="1" /><path clip-path="url(#clip620)" d="M128.288 734.023 Q124.677 734.023 122.848 737.588 Q121.043 741.129 121.043 748.259 Q121.043 755.365 122.848 758.93 Q124.677 762.472 128.288 762.472 Q131.922 762.472 133.728 758.93 Q135.556 755.365 135.556 748.259 Q135.556 741.129 133.728 737.588 Q131.922 734.023 128.288 734.023 M128.288 730.319 Q134.098 730.319 137.154 734.926 Q140.232 739.509 140.232 748.259 Q140.232 756.986 137.154 761.592 Q134.098 766.176 128.288 766.176 Q122.478 766.176 119.399 761.592 Q116.343 756.986 116.343 748.259 Q116.343 739.509 119.399 734.926 Q122.478 730.319 128.288 730.319 Z" fill="#000000" fill-rule="evenodd" fill-opacity="1" /><path clip-path="url(#clip620)" d="M148.45 759.625 L153.334 759.625 L153.334 765.504 L148.45 765.504 L148.45 759.625 Z" fill="#000000" fill-rule="evenodd" fill-opacity="1" /><path clip-path="url(#clip620)" d="M167.547 761.569 L183.866 761.569 L183.866 765.504 L161.922 765.504 L161.922 761.569 Q164.584 758.815 169.167 754.185 Q173.774 749.532 174.954 748.19 Q177.2 745.666 178.079 743.93 Q178.982 742.171 178.982 740.481 Q178.982 737.727 177.038 735.991 Q175.116 734.255 172.014 734.255 Q169.815 734.255 167.362 735.018 Q164.931 735.782 162.153 737.333 L162.153 732.611 Q164.977 731.477 167.431 730.898 Q169.885 730.319 171.922 730.319 Q177.292 730.319 180.487 733.005 Q183.681 735.69 183.681 740.18 Q183.681 742.31 182.871 744.231 Q182.084 746.129 179.977 748.722 Q179.399 749.393 176.297 752.611 Q173.195 755.805 167.547 761.569 Z" fill="#000000" fill-rule="evenodd" fill-opacity="1" /><path clip-path="url(#clip620)" d="M127.339 414.89 Q123.728 414.89 121.899 418.455 Q120.093 421.997 120.093 429.126 Q120.093 436.233 121.899 439.797 Q123.728 443.339 127.339 443.339 Q130.973 443.339 132.779 439.797 Q134.607 436.233 134.607 429.126 Q134.607 421.997 132.779 418.455 Q130.973 414.89 127.339 414.89 M127.339 411.186 Q133.149 411.186 136.204 415.793 Q139.283 420.376 139.283 429.126 Q139.283 437.853 136.204 442.459 Q133.149 447.043 127.339 447.043 Q121.529 447.043 118.45 442.459 Q115.394 437.853 115.394 429.126 Q115.394 420.376 118.45 415.793 Q121.529 411.186 127.339 411.186 Z" fill="#000000" fill-rule="evenodd" fill-opacity="1" /><path clip-path="url(#clip620)" d="M147.501 440.492 L152.385 440.492 L152.385 446.371 L147.501 446.371 L147.501 440.492 Z" fill="#000000" fill-rule="evenodd" fill-opacity="1" /><path clip-path="url(#clip620)" d="M176.737 427.737 Q180.093 428.455 181.968 430.723 Q183.866 432.992 183.866 436.325 Q183.866 441.441 180.348 444.242 Q176.829 447.043 170.348 447.043 Q168.172 447.043 165.857 446.603 Q163.565 446.186 161.112 445.33 L161.112 440.816 Q163.056 441.95 165.371 442.529 Q167.686 443.108 170.209 443.108 Q174.607 443.108 176.899 441.371 Q179.214 439.635 179.214 436.325 Q179.214 433.27 177.061 431.557 Q174.931 429.821 171.112 429.821 L167.084 429.821 L167.084 425.978 L171.297 425.978 Q174.746 425.978 176.575 424.612 Q178.403 423.223 178.403 420.631 Q178.403 417.969 176.505 416.557 Q174.63 415.122 171.112 415.122 Q169.19 415.122 166.991 415.538 Q164.792 415.955 162.153 416.835 L162.153 412.668 Q164.815 411.927 167.13 411.557 Q169.468 411.186 171.528 411.186 Q176.852 411.186 179.954 413.617 Q183.056 416.024 183.056 420.145 Q183.056 423.015 181.413 425.006 Q179.769 426.973 176.737 427.737 Z" fill="#000000" fill-rule="evenodd" fill-opacity="1" /><path clip-path="url(#clip620)" d="M126.205 95.7572 Q122.593 95.7572 120.765 99.322 Q118.959 102.864 118.959 109.993 Q118.959 117.1 120.765 120.664 Q122.593 124.206 126.205 124.206 Q129.839 124.206 131.644 120.664 Q133.473 117.1 133.473 109.993 Q133.473 102.864 131.644 99.322 Q129.839 95.7572 126.205 95.7572 M126.205 92.0535 Q132.015 92.0535 135.07 96.66 Q138.149 101.243 138.149 109.993 Q138.149 118.72 135.07 123.327 Q132.015 127.91 126.205 127.91 Q120.394 127.91 117.316 123.327 Q114.26 118.72 114.26 109.993 Q114.26 101.243 117.316 96.66 Q120.394 92.0535 126.205 92.0535 Z" fill="#000000" fill-rule="evenodd" fill-opacity="1" /><path clip-path="url(#clip620)" d="M146.366 121.359 L151.251 121.359 L151.251 127.239 L146.366 127.239 L146.366 121.359 Z" fill="#000000" fill-rule="evenodd" fill-opacity="1" /><path clip-path="url(#clip620)" d="M174.283 96.7526 L162.477 115.202 L174.283 115.202 L174.283 96.7526 M173.056 92.6785 L178.936 92.6785 L178.936 115.202 L183.866 115.202 L183.866 119.09 L178.936 119.09 L178.936 127.239 L174.283 127.239 L174.283 119.09 L158.681 119.09 L158.681 114.577 L173.056 92.6785 Z" fill="#000000" fill-rule="evenodd" fill-opacity="1" /><path clip-path="url(#clip620)" d="M27.9392 757.108 Q28.6155 757.108 29.163 757.688 Q29.7105 758.236 29.7105 758.912 Q29.7105 759.298 29.0664 760.232 Q27.1985 762.905 27.1985 766.287 Q27.1985 769.314 27.9392 772.116 Q28.6799 774.918 30.1936 776.818 Q31.6751 778.686 33.6074 778.686 Q36.0229 778.686 37.4399 776.045 Q36.1839 773.308 36.1839 769.926 Q36.1839 768.831 36.2483 768.09 Q36.3127 767.318 36.4738 766.577 Q36.6348 765.836 37.0213 765.482 Q37.3755 765.095 37.9552 765.095 Q40.0164 765.095 40.0164 770.442 Q40.0164 773.92 39.0824 776.11 Q40.4673 778.912 42.6895 780.458 Q44.9117 782.003 46.8118 782.003 Q48.4543 782.003 49.646 781.102 Q50.8376 780.168 51.4173 778.654 Q51.997 777.108 52.2546 775.594 Q52.4801 774.049 52.4801 772.342 Q52.4801 769.54 52.1258 767.575 Q51.7393 765.578 51.0308 764.483 Q50.3223 763.356 49.8392 762.905 Q49.3239 762.422 48.5187 761.939 Q48.0679 761.649 48.0679 761.263 Q48.0679 760.973 48.2611 760.78 Q48.4221 760.554 48.712 760.554 Q49.0662 760.554 49.807 761.005 Q50.5477 761.424 51.5461 762.454 Q52.5123 763.453 53.414 764.838 Q54.2836 766.19 54.8955 768.348 Q55.5074 770.506 55.5074 772.954 Q55.5074 777.945 53.0598 780.844 Q50.6121 783.71 47.1983 783.71 Q44.8151 783.71 42.3674 782.132 Q39.8876 780.522 38.3095 777.688 Q36.3449 780.329 33.6074 780.329 Q31.1598 780.329 28.9698 778.268 Q26.7798 776.174 25.4916 772.793 Q24.1711 769.379 24.1711 765.643 Q24.1711 763.549 24.8796 761.488 Q25.556 759.427 26.4255 758.268 Q27.2951 757.108 27.9392 757.108 M38.0196 766.802 Q37.6332 768.219 37.6332 769.926 Q37.6332 772.245 38.2129 773.952 Q38.5671 772.567 38.5671 770.442 Q38.5671 768.67 38.4705 768.155 Q38.3739 767.607 38.0196 766.802 Z" fill="#000000" fill-rule="evenodd" fill-opacity="1" /><path clip-path="url(#clip620)" d="M57.1294 731.525 Q58.3243 731.525 59.0908 732.314 Q59.8573 733.08 59.8573 734.072 Q59.8573 734.929 59.3613 735.38 Q58.8653 735.831 58.2341 735.831 Q57.3323 735.831 56.5884 735.132 Q55.8444 734.433 55.6866 733.419 Q55.1455 734.162 55.1455 735.357 Q55.1455 737.319 56.656 739.055 Q57.3549 739.821 58.6399 740.655 Q59.9023 741.489 60.4434 741.647 L66.4627 743.112 Q67.139 743.248 70.3854 744.082 Q73.6092 744.893 73.7444 744.961 Q74.3757 745.187 74.7138 745.683 Q75.052 746.178 75.052 746.674 Q75.052 747.238 74.7138 747.621 Q74.3757 748.005 73.7895 748.005 Q73.6993 748.005 73.3612 747.937 Q73.023 747.869 72.5496 747.757 Q72.0762 747.644 71.8056 747.599 L61.1423 744.916 Q59.2035 744.42 58.5948 744.307 Q57.9636 744.172 57.2647 744.172 Q56.0473 744.172 55.5964 744.555 Q55.1455 744.939 55.1455 745.615 Q55.1455 746.787 56.5433 747.554 Q57.941 748.32 60.6463 748.974 Q61.3903 749.177 61.5481 749.312 Q61.7059 749.425 61.7059 749.763 Q61.6833 750.327 61.2324 750.327 Q61.1197 750.327 60.3983 750.146 Q59.6544 749.966 58.5722 749.628 Q57.4676 749.267 56.7687 748.884 Q56.2953 748.658 55.9797 748.455 Q55.6641 748.253 55.1681 747.847 Q54.6721 747.441 54.4016 746.832 Q54.1311 746.224 54.1311 745.48 Q54.1311 743.856 55.123 742.707 Q56.1149 741.534 57.6705 741.264 Q56.8589 740.7 56.16 740.001 Q55.4386 739.303 54.7848 738.018 Q54.1311 736.732 54.1311 735.357 Q54.1311 733.644 55.0103 732.584 Q55.867 731.525 57.1294 731.525 Z" fill="#000000" fill-rule="evenodd" fill-opacity="1" /><path clip-path="url(#clip620)" d="M69.1905 711.114 Q69.3934 710.934 69.5963 710.934 Q69.7992 710.934 70.3854 711.385 Q70.9715 711.813 71.7605 712.737 Q72.5496 713.662 73.2935 714.857 Q74.0375 716.051 74.5335 717.81 Q75.052 719.568 75.052 721.417 Q75.052 724.731 72.6849 726.715 Q70.3177 728.676 66.6881 728.676 Q64.3661 728.676 62.3146 727.91 Q60.2405 727.143 58.7751 725.903 Q57.3098 724.641 56.2502 723.063 Q55.1681 721.462 54.6496 719.794 Q54.1311 718.125 54.1311 716.57 Q54.1311 714.293 55.2808 712.963 Q56.4306 711.633 58.0537 711.633 Q58.437 711.633 58.9104 711.745 Q59.3838 711.836 60.1278 712.151 Q60.8717 712.444 61.6157 713.211 Q62.3371 713.977 62.8105 715.105 Q63.8701 717.607 63.8701 722.161 L63.8701 724.618 Q66.7783 725.34 68.672 725.34 Q69.416 725.34 70.1825 725.204 Q70.9264 725.069 71.8733 724.708 Q72.8201 724.325 73.4288 723.468 Q74.015 722.589 74.015 721.327 Q74.015 720.921 73.9924 720.493 Q73.9699 720.042 73.7219 718.914 Q73.4739 717.765 73.0456 716.75 Q72.6172 715.736 71.6929 714.451 Q70.7461 713.143 69.461 712.106 Q68.9876 711.745 68.9876 711.497 Q68.9876 711.295 69.1905 711.114 M58.0537 713.166 Q56.8138 713.166 55.9797 714.09 Q55.1455 714.992 55.1455 716.57 Q55.1455 717.066 55.2583 717.675 Q55.371 718.283 55.8444 719.298 Q56.3178 720.29 57.1069 721.169 Q57.8734 722.048 59.3838 722.927 Q60.8717 723.807 62.8556 724.325 L62.8556 722.431 Q62.8556 721.778 62.8556 721.304 Q62.8331 720.831 62.7429 719.794 Q62.6527 718.734 62.4949 717.968 Q62.3146 717.201 61.9539 716.232 Q61.5932 715.262 61.1197 714.654 Q60.6238 714.022 59.8347 713.594 Q59.0457 713.166 58.0537 713.166 Z" fill="#000000" fill-rule="evenodd" fill-opacity="1" /><path clip-path="url(#clip620)" d="M42.9943 697.5 L69.6865 704.15 Q70.7461 704.421 71.8958 704.421 Q74.015 704.421 74.015 703.023 Q74.015 702.369 73.5866 701.828 Q73.1357 701.287 72.2565 700.882 Q71.3548 700.453 70.4981 700.183 Q69.6414 699.89 68.3113 699.529 Q67.7928 699.416 67.635 699.303 Q67.4772 699.191 67.4772 698.875 Q67.4772 698.312 67.928 698.312 Q70.701 698.875 72.4594 699.709 Q75.052 700.927 75.052 703.181 Q75.052 704.872 73.8797 706.134 Q72.6849 707.374 70.7911 707.374 Q70.0697 707.374 69.2131 707.149 L46.1279 701.332 L45.2261 701.175 Q44.9782 701.175 44.8429 701.265 Q44.7076 701.355 44.5724 701.896 Q44.4371 702.415 44.4371 703.452 Q44.4371 703.88 44.4145 704.083 Q44.392 704.263 44.2793 704.444 Q44.1666 704.601 43.9186 704.601 Q43.5128 704.601 43.2873 704.444 Q43.0619 704.263 43.0168 704.128 Q42.9717 703.993 42.9492 703.722 Q42.9266 703.339 42.8139 702.054 Q42.6787 700.769 42.5885 699.664 Q42.4983 698.56 42.4983 698.086 Q42.4983 697.816 42.6336 697.68 Q42.7463 697.522 42.8815 697.5 L42.9943 697.5 Z" fill="#000000" fill-rule="evenodd" fill-opacity="1" /><polyline clip-path="url(#clip623)" style="stroke:#009af9; stroke-linecap:round; stroke-linejoin:round; stroke-width:4; stroke-opacity:1; fill:none" points="219.866,838.466 753.089,1375.09 1286.31,1378.62 1819.53,1381.73 2352.76,1384.24 "/>
<polyline clip-path="url(#clip623)" style="stroke:#e26f46; stroke-linecap:round; stroke-linejoin:round; stroke-width:4; stroke-opacity:1; fill:none" points="219.866,86.1857 753.089,1372.59 1286.31,1376.91 1819.53,1380.73 2352.76,1383.77 "/>
<polyline clip-path="url(#clip623)" style="stroke:#3da44d; stroke-linecap:round; stroke-linejoin:round; stroke-width:4; stroke-opacity:1; fill:none" points="219.866,136.84 753.089,1372.67 1286.31,1376.95 1819.53,1380.75 2352.76,1383.77 "/>
<polyline clip-path="url(#clip623)" style="stroke:#c271d2; stroke-linecap:round; stroke-linejoin:round; stroke-width:4; stroke-opacity:1; fill:none" stroke-dasharray="16, 10" points="219.866,132.55 753.089,1372.66 1286.31,1376.94 1819.53,1380.75 2352.76,1383.77 "/>
<path clip-path="url(#clip620)" d="M1601.52 352.309 L2281.66 352.309 L2281.66 93.1086 L1601.52 93.1086  Z" fill="#ffffff" fill-rule="evenodd" fill-opacity="1"/>
<polyline clip-path="url(#clip620)" style="stroke:#000000; stroke-linecap:round; stroke-linejoin:round; stroke-width:4; stroke-opacity:1; fill:none" points="1601.52,352.309 2281.66,352.309 2281.66,93.1086 1601.52,93.1086 1601.52,352.309 "/>
<polyline clip-path="url(#clip620)" style="stroke:#009af9; stroke-linecap:round; stroke-linejoin:round; stroke-width:4; stroke-opacity:1; fill:none" points="1625.22,144.949 1767.41,144.949 "/>
<path clip-path="url(#clip620)" d="M1791.69 136.303 L1811.92 136.303 L1811.92 140.192 L1795.9 158.826 L1811.92 158.826 L1811.92 162.229 L1791.11 162.229 L1791.11 158.34 L1807.13 139.706 L1791.69 139.706 L1791.69 136.303 Z" fill="#000000" fill-rule="evenodd" fill-opacity="1" /><path clip-path="url(#clip620)" d="M1840.6 148.201 L1840.6 150.284 L1821.02 150.284 Q1821.3 154.682 1823.66 156.997 Q1826.04 159.289 1830.28 159.289 Q1832.73 159.289 1835.02 158.687 Q1837.34 158.085 1839.61 156.881 L1839.61 160.909 Q1837.31 161.881 1834.91 162.391 Q1832.5 162.9 1830.02 162.9 Q1823.82 162.9 1820.19 159.289 Q1816.57 155.678 1816.57 149.52 Q1816.57 143.155 1820 139.428 Q1823.45 135.678 1829.28 135.678 Q1834.51 135.678 1837.55 139.057 Q1840.6 142.414 1840.6 148.201 M1836.34 146.951 Q1836.3 143.456 1834.38 141.372 Q1832.48 139.289 1829.33 139.289 Q1825.76 139.289 1823.61 141.303 Q1821.48 143.317 1821.16 146.974 L1836.34 146.951 Z" fill="#000000" fill-rule="evenodd" fill-opacity="1" /><path clip-path="url(#clip620)" d="M1862.62 140.284 Q1861.9 139.868 1861.04 139.682 Q1860.21 139.474 1859.19 139.474 Q1855.58 139.474 1853.63 141.835 Q1851.71 144.173 1851.71 148.571 L1851.71 162.229 L1847.43 162.229 L1847.43 136.303 L1851.71 136.303 L1851.71 140.331 Q1853.06 137.969 1855.21 136.835 Q1857.36 135.678 1860.44 135.678 Q1860.88 135.678 1861.41 135.747 Q1861.94 135.794 1862.59 135.909 L1862.62 140.284 Z" fill="#000000" fill-rule="evenodd" fill-opacity="1" /><path clip-path="url(#clip620)" d="M1876.09 139.289 Q1872.66 139.289 1870.67 141.974 Q1868.68 144.636 1868.68 149.289 Q1868.68 153.942 1870.65 156.627 Q1872.64 159.289 1876.09 159.289 Q1879.49 159.289 1881.48 156.604 Q1883.47 153.918 1883.47 149.289 Q1883.47 144.682 1881.48 141.997 Q1879.49 139.289 1876.09 139.289 M1876.09 135.678 Q1881.64 135.678 1884.81 139.289 Q1887.99 142.9 1887.99 149.289 Q1887.99 155.655 1884.81 159.289 Q1881.64 162.9 1876.09 162.9 Q1870.51 162.9 1867.34 159.289 Q1864.19 155.655 1864.19 149.289 Q1864.19 142.9 1867.34 139.289 Q1870.51 135.678 1876.09 135.678 Z" fill="#000000" fill-rule="evenodd" fill-opacity="1" /><path clip-path="url(#clip620)" d="M1893.77 147.344 L1906.25 147.344 L1906.25 151.141 L1893.77 151.141 L1893.77 147.344 Z" fill="#000000" fill-rule="evenodd" fill-opacity="1" /><path clip-path="url(#clip620)" d="M1931.81 132.206 Q1929.44 130.585 1923.91 130.585 Q1918.06 130.585 1918.06 133.294 Q1918.06 135.423 1924.17 136.534 Q1928.98 137.391 1931.69 139.983 Q1934.98 143.108 1934.98 149.52 Q1934.98 155.655 1931.81 159.266 Q1928.63 162.9 1923.08 162.9 Q1917.55 162.9 1914.35 159.266 Q1911.18 155.655 1911.18 149.289 Q1911.18 144.567 1914.35 140.747 Q1915.58 139.266 1917.31 138.432 Q1913.7 136.604 1913.7 133.34 Q1913.7 127.044 1923.91 127.044 Q1929.03 127.044 1931.81 128.664 L1931.81 132.206 M1920.51 139.59 Q1918.93 140.261 1917.66 141.951 Q1915.67 144.567 1915.67 149.289 Q1915.67 153.988 1917.64 156.627 Q1919.63 159.289 1923.08 159.289 Q1926.48 159.289 1928.47 156.604 Q1930.46 153.918 1930.46 149.52 Q1930.46 144.914 1928.36 142.692 Q1926.11 140.307 1923.19 140.053 Q1921.71 139.914 1920.51 139.59 Z" fill="#000000" fill-rule="evenodd" fill-opacity="1" /><path clip-path="url(#clip620)" d="M1957.11 126.21 L1961.37 126.21 L1961.37 162.229 L1957.11 162.229 L1957.11 126.21 Z" fill="#000000" fill-rule="evenodd" fill-opacity="1" /><path clip-path="url(#clip620)" d="M1980.32 139.289 Q1976.9 139.289 1974.91 141.974 Q1972.92 144.636 1972.92 149.289 Q1972.92 153.942 1974.88 156.627 Q1976.87 159.289 1980.32 159.289 Q1983.73 159.289 1985.72 156.604 Q1987.71 153.918 1987.71 149.289 Q1987.71 144.682 1985.72 141.997 Q1983.73 139.289 1980.32 139.289 M1980.32 135.678 Q1985.88 135.678 1989.05 139.289 Q1992.22 142.9 1992.22 149.289 Q1992.22 155.655 1989.05 159.289 Q1985.88 162.9 1980.32 162.9 Q1974.74 162.9 1971.57 159.289 Q1968.43 155.655 1968.43 149.289 Q1968.43 142.9 1971.57 139.289 Q1974.74 135.678 1980.32 135.678 Z" fill="#000000" fill-rule="evenodd" fill-opacity="1" /><path clip-path="url(#clip620)" d="M1996.8 136.303 L2001.06 136.303 L2006.39 156.534 L2011.69 136.303 L2016.71 136.303 L2022.04 156.534 L2027.34 136.303 L2031.6 136.303 L2024.81 162.229 L2019.79 162.229 L2014.21 140.979 L2008.61 162.229 L2003.59 162.229 L1996.8 136.303 Z" fill="#000000" fill-rule="evenodd" fill-opacity="1" /><path clip-path="url(#clip620)" d="M2060.23 148.201 L2060.23 150.284 L2040.65 150.284 Q2040.92 154.682 2043.29 156.997 Q2045.67 159.289 2049.91 159.289 Q2052.36 159.289 2054.65 158.687 Q2056.97 158.085 2059.24 156.881 L2059.24 160.909 Q2056.94 161.881 2054.54 162.391 Q2052.13 162.9 2049.65 162.9 Q2043.45 162.9 2039.81 159.289 Q2036.2 155.678 2036.2 149.52 Q2036.2 143.155 2039.63 139.428 Q2043.08 135.678 2048.91 135.678 Q2054.14 135.678 2057.17 139.057 Q2060.23 142.414 2060.23 148.201 M2055.97 146.951 Q2055.92 143.456 2054 141.372 Q2052.11 139.289 2048.96 139.289 Q2045.39 139.289 2043.24 141.303 Q2041.11 143.317 2040.79 146.974 L2055.97 146.951 Z" fill="#000000" fill-rule="evenodd" fill-opacity="1" /><path clip-path="url(#clip620)" d="M2082.24 140.284 Q2081.53 139.868 2080.67 139.682 Q2079.84 139.474 2078.82 139.474 Q2075.21 139.474 2073.26 141.835 Q2071.34 144.173 2071.34 148.571 L2071.34 162.229 L2067.06 162.229 L2067.06 136.303 L2071.34 136.303 L2071.34 140.331 Q2072.68 137.969 2074.84 136.835 Q2076.99 135.678 2080.07 135.678 Q2080.51 135.678 2081.04 135.747 Q2081.57 135.794 2082.22 135.909 L2082.24 140.284 Z" fill="#000000" fill-rule="evenodd" fill-opacity="1" /><path clip-path="url(#clip620)" d="M2120.39 149.289 Q2120.39 144.59 2118.45 141.928 Q2116.53 139.243 2113.15 139.243 Q2109.77 139.243 2107.82 141.928 Q2105.9 144.59 2105.9 149.289 Q2105.9 153.988 2107.82 156.673 Q2109.77 159.335 2113.15 159.335 Q2116.53 159.335 2118.45 156.673 Q2120.39 153.988 2120.39 149.289 M2105.9 140.238 Q2107.24 137.923 2109.28 136.812 Q2111.34 135.678 2114.19 135.678 Q2118.91 135.678 2121.85 139.428 Q2124.81 143.178 2124.81 149.289 Q2124.81 155.4 2121.85 159.15 Q2118.91 162.9 2114.19 162.9 Q2111.34 162.9 2109.28 161.789 Q2107.24 160.655 2105.9 158.34 L2105.9 162.229 L2101.62 162.229 L2101.62 126.21 L2105.9 126.21 L2105.9 140.238 Z" fill="#000000" fill-rule="evenodd" fill-opacity="1" /><path clip-path="url(#clip620)" d="M2141.92 139.289 Q2138.49 139.289 2136.5 141.974 Q2134.51 144.636 2134.51 149.289 Q2134.51 153.942 2136.48 156.627 Q2138.47 159.289 2141.92 159.289 Q2145.32 159.289 2147.31 156.604 Q2149.3 153.918 2149.3 149.289 Q2149.3 144.682 2147.31 141.997 Q2145.32 139.289 2141.92 139.289 M2141.92 135.678 Q2147.48 135.678 2150.65 139.289 Q2153.82 142.9 2153.82 149.289 Q2153.82 155.655 2150.65 159.289 Q2147.48 162.9 2141.92 162.9 Q2136.34 162.9 2133.17 159.289 Q2130.02 155.655 2130.02 149.289 Q2130.02 142.9 2133.17 139.289 Q2136.34 135.678 2141.92 135.678 Z" fill="#000000" fill-rule="evenodd" fill-opacity="1" /><path clip-path="url(#clip620)" d="M2160.44 151.997 L2160.44 136.303 L2164.7 136.303 L2164.7 151.835 Q2164.7 155.516 2166.13 157.368 Q2167.57 159.196 2170.44 159.196 Q2173.89 159.196 2175.88 156.997 Q2177.89 154.798 2177.89 151.002 L2177.89 136.303 L2182.15 136.303 L2182.15 162.229 L2177.89 162.229 L2177.89 158.247 Q2176.34 160.608 2174.28 161.766 Q2172.24 162.9 2169.54 162.9 Q2165.07 162.9 2162.75 160.122 Q2160.44 157.344 2160.44 151.997 M2171.16 135.678 L2171.16 135.678 Z" fill="#000000" fill-rule="evenodd" fill-opacity="1" /><path clip-path="url(#clip620)" d="M2212.47 146.581 L2212.47 162.229 L2208.22 162.229 L2208.22 146.719 Q2208.22 143.039 2206.78 141.21 Q2205.35 139.382 2202.47 139.382 Q2199.03 139.382 2197.04 141.581 Q2195.04 143.78 2195.04 147.576 L2195.04 162.229 L2190.76 162.229 L2190.76 136.303 L2195.04 136.303 L2195.04 140.331 Q2196.57 137.993 2198.63 136.835 Q2200.72 135.678 2203.42 135.678 Q2207.89 135.678 2210.18 138.456 Q2212.47 141.21 2212.47 146.581 Z" fill="#000000" fill-rule="evenodd" fill-opacity="1" /><path clip-path="url(#clip620)" d="M2238.03 140.238 L2238.03 126.21 L2242.29 126.21 L2242.29 162.229 L2238.03 162.229 L2238.03 158.34 Q2236.69 160.655 2234.63 161.789 Q2232.59 162.9 2229.72 162.9 Q2225.02 162.9 2222.06 159.15 Q2219.12 155.4 2219.12 149.289 Q2219.12 143.178 2222.06 139.428 Q2225.02 135.678 2229.72 135.678 Q2232.59 135.678 2234.63 136.812 Q2236.69 137.923 2238.03 140.238 M2223.52 149.289 Q2223.52 153.988 2225.44 156.673 Q2227.38 159.335 2230.76 159.335 Q2234.14 159.335 2236.09 156.673 Q2238.03 153.988 2238.03 149.289 Q2238.03 144.59 2236.09 141.928 Q2234.14 139.243 2230.76 139.243 Q2227.38 139.243 2225.44 141.928 Q2223.52 144.59 2223.52 149.289 Z" fill="#000000" fill-rule="evenodd" fill-opacity="1" /><polyline clip-path="url(#clip620)" style="stroke:#e26f46; stroke-linecap:round; stroke-linejoin:round; stroke-width:4; stroke-opacity:1; fill:none" points="1625.22,196.789 1767.41,196.789 "/>
<path clip-path="url(#clip620)" d="M1798.52 180.782 L1798.52 188.143 L1807.29 188.143 L1807.29 191.453 L1798.52 191.453 L1798.52 205.527 Q1798.52 208.698 1799.38 209.601 Q1800.25 210.504 1802.92 210.504 L1807.29 210.504 L1807.29 214.069 L1802.92 214.069 Q1797.99 214.069 1796.11 212.24 Q1794.24 210.388 1794.24 205.527 L1794.24 191.453 L1791.11 191.453 L1791.11 188.143 L1794.24 188.143 L1794.24 180.782 L1798.52 180.782 Z" fill="#000000" fill-rule="evenodd" fill-opacity="1" /><path clip-path="url(#clip620)" d="M1833.8 180.643 L1833.8 185.203 Q1831.13 183.93 1828.77 183.305 Q1826.41 182.68 1824.21 182.68 Q1820.39 182.68 1818.31 184.161 Q1816.25 185.643 1816.25 188.374 Q1816.25 190.666 1817.62 191.847 Q1819 193.004 1822.85 193.722 L1825.67 194.3 Q1830.9 195.296 1833.38 197.819 Q1835.88 200.319 1835.88 204.532 Q1835.88 209.555 1832.5 212.147 Q1829.14 214.74 1822.64 214.74 Q1820.19 214.74 1817.41 214.184 Q1814.65 213.629 1811.69 212.541 L1811.69 207.726 Q1814.54 209.323 1817.27 210.133 Q1820 210.944 1822.64 210.944 Q1826.64 210.944 1828.82 209.37 Q1831 207.796 1831 204.879 Q1831 202.333 1829.42 200.897 Q1827.87 199.462 1824.31 198.745 L1821.46 198.189 Q1816.23 197.147 1813.89 194.925 Q1811.55 192.703 1811.55 188.745 Q1811.55 184.161 1814.77 181.522 Q1818.01 178.884 1823.68 178.884 Q1826.11 178.884 1828.63 179.323 Q1831.16 179.763 1833.8 180.643 Z" fill="#000000" fill-rule="evenodd" fill-opacity="1" /><path clip-path="url(#clip620)" d="M1852.08 214.069 L1838.89 179.509 L1843.77 179.509 L1854.72 208.606 L1865.69 179.509 L1870.56 179.509 L1857.38 214.069 L1852.08 214.069 Z" fill="#000000" fill-rule="evenodd" fill-opacity="1" /><path clip-path="url(#clip620)" d="M1880.28 183.351 L1880.28 210.226 L1885.93 210.226 Q1893.08 210.226 1896.39 206.985 Q1899.72 203.745 1899.72 196.754 Q1899.72 189.809 1896.39 186.592 Q1893.08 183.351 1885.93 183.351 L1880.28 183.351 M1875.6 179.509 L1885.21 179.509 Q1895.25 179.509 1899.95 183.698 Q1904.65 187.865 1904.65 196.754 Q1904.65 205.689 1899.93 209.879 Q1895.21 214.069 1885.21 214.069 L1875.6 214.069 L1875.6 179.509 Z" fill="#000000" fill-rule="evenodd" fill-opacity="1" /><polyline clip-path="url(#clip620)" style="stroke:#3da44d; stroke-linecap:round; stroke-linejoin:round; stroke-width:4; stroke-opacity:1; fill:none" points="1625.22,248.629 1767.41,248.629 "/>
<path clip-path="url(#clip620)" d="M1818.98 234.011 L1818.98 238.941 Q1816.62 236.742 1813.94 235.654 Q1811.27 234.566 1808.26 234.566 Q1802.34 234.566 1799.19 238.2 Q1796.04 241.812 1796.04 248.663 Q1796.04 255.492 1799.19 259.126 Q1802.34 262.737 1808.26 262.737 Q1811.27 262.737 1813.94 261.649 Q1816.62 260.561 1818.98 258.362 L1818.98 263.247 Q1816.53 264.913 1813.77 265.747 Q1811.04 266.58 1807.99 266.58 Q1800.14 266.58 1795.63 261.788 Q1791.11 256.973 1791.11 248.663 Q1791.11 240.33 1795.63 235.538 Q1800.14 230.724 1807.99 230.724 Q1811.09 230.724 1813.82 231.557 Q1816.57 232.367 1818.98 234.011 Z" fill="#000000" fill-rule="evenodd" fill-opacity="1" /><path clip-path="url(#clip620)" d="M1852.08 234.011 L1852.08 238.941 Q1849.72 236.742 1847.04 235.654 Q1844.38 234.566 1841.37 234.566 Q1835.44 234.566 1832.29 238.2 Q1829.14 241.812 1829.14 248.663 Q1829.14 255.492 1832.29 259.126 Q1835.44 262.737 1841.37 262.737 Q1844.38 262.737 1847.04 261.649 Q1849.72 260.561 1852.08 258.362 L1852.08 263.247 Q1849.63 264.913 1846.88 265.747 Q1844.14 266.58 1841.09 266.58 Q1833.24 266.58 1828.73 261.788 Q1824.21 256.973 1824.21 248.663 Q1824.21 240.33 1828.73 235.538 Q1833.24 230.724 1841.09 230.724 Q1844.19 230.724 1846.92 231.557 Q1849.68 232.367 1852.08 234.011 Z" fill="#000000" fill-rule="evenodd" fill-opacity="1" /><path clip-path="url(#clip620)" d="M1856.97 251.024 L1869.44 251.024 L1869.44 254.821 L1856.97 254.821 L1856.97 251.024 Z" fill="#000000" fill-rule="evenodd" fill-opacity="1" /><path clip-path="url(#clip620)" d="M1880.44 232.622 L1880.44 239.983 L1889.21 239.983 L1889.21 243.293 L1880.44 243.293 L1880.44 257.367 Q1880.44 260.538 1881.3 261.441 Q1882.18 262.344 1884.84 262.344 L1889.21 262.344 L1889.21 265.909 L1884.84 265.909 Q1879.91 265.909 1878.03 264.08 Q1876.16 262.228 1876.16 257.367 L1876.16 243.293 L1873.03 243.293 L1873.03 239.983 L1876.16 239.983 L1876.16 232.622 L1880.44 232.622 Z" fill="#000000" fill-rule="evenodd" fill-opacity="1" /><path clip-path="url(#clip620)" d="M1915.72 232.483 L1915.72 237.043 Q1913.06 235.77 1910.69 235.145 Q1908.33 234.52 1906.13 234.52 Q1902.31 234.52 1900.23 236.001 Q1898.17 237.483 1898.17 240.214 Q1898.17 242.506 1899.54 243.687 Q1900.93 244.844 1904.77 245.562 L1907.59 246.14 Q1912.82 247.136 1915.3 249.659 Q1917.8 252.159 1917.8 256.372 Q1917.8 261.395 1914.42 263.987 Q1911.06 266.58 1904.56 266.58 Q1902.11 266.58 1899.33 266.024 Q1896.57 265.469 1893.61 264.381 L1893.61 259.566 Q1896.46 261.163 1899.19 261.973 Q1901.92 262.784 1904.56 262.784 Q1908.56 262.784 1910.74 261.21 Q1912.92 259.636 1912.92 256.719 Q1912.92 254.173 1911.34 252.737 Q1909.79 251.302 1906.23 250.585 L1903.38 250.029 Q1898.15 248.987 1895.81 246.765 Q1893.47 244.543 1893.47 240.585 Q1893.47 236.001 1896.69 233.362 Q1899.93 230.724 1905.6 230.724 Q1908.03 230.724 1910.56 231.163 Q1913.08 231.603 1915.72 232.483 Z" fill="#000000" fill-rule="evenodd" fill-opacity="1" /><path clip-path="url(#clip620)" d="M1934 265.909 L1920.81 231.349 L1925.69 231.349 L1936.64 260.446 L1947.62 231.349 L1952.48 231.349 L1939.31 265.909 L1934 265.909 Z" fill="#000000" fill-rule="evenodd" fill-opacity="1" /><path clip-path="url(#clip620)" d="M1962.2 235.191 L1962.2 262.066 L1967.85 262.066 Q1975 262.066 1978.31 258.825 Q1981.64 255.585 1981.64 248.594 Q1981.64 241.649 1978.31 238.432 Q1975 235.191 1967.85 235.191 L1962.2 235.191 M1957.52 231.349 L1967.13 231.349 Q1977.18 231.349 1981.87 235.538 Q1986.57 239.705 1986.57 248.594 Q1986.57 257.529 1981.85 261.719 Q1977.13 265.909 1967.13 265.909 L1957.52 265.909 L1957.52 231.349 Z" fill="#000000" fill-rule="evenodd" fill-opacity="1" /><path clip-path="url(#clip620)" d="M2019.14 229.937 Q2016.04 235.261 2014.54 240.469 Q2013.03 245.677 2013.03 251.024 Q2013.03 256.372 2014.54 261.626 Q2016.06 266.858 2019.14 272.159 L2015.44 272.159 Q2011.97 266.719 2010.23 261.464 Q2008.52 256.21 2008.52 251.024 Q2008.52 245.862 2010.23 240.631 Q2011.94 235.4 2015.44 229.937 L2019.14 229.937 Z" fill="#000000" fill-rule="evenodd" fill-opacity="1" /><path clip-path="url(#clip620)" d="M2031.53 262.02 L2031.53 275.77 L2027.24 275.77 L2027.24 239.983 L2031.53 239.983 L2031.53 243.918 Q2032.87 241.603 2034.91 240.492 Q2036.97 239.358 2039.81 239.358 Q2044.54 239.358 2047.48 243.108 Q2050.44 246.858 2050.44 252.969 Q2050.44 259.08 2047.48 262.83 Q2044.54 266.58 2039.81 266.58 Q2036.97 266.58 2034.91 265.469 Q2032.87 264.335 2031.53 262.02 M2046.02 252.969 Q2046.02 248.27 2044.07 245.608 Q2042.15 242.923 2038.77 242.923 Q2035.39 242.923 2033.45 245.608 Q2031.53 248.27 2031.53 252.969 Q2031.53 257.668 2033.45 260.353 Q2035.39 263.015 2038.77 263.015 Q2042.15 263.015 2044.07 260.353 Q2046.02 257.668 2046.02 252.969 Z" fill="#000000" fill-rule="evenodd" fill-opacity="1" /><path clip-path="url(#clip620)" d="M2072.52 243.964 Q2071.8 243.548 2070.95 243.362 Q2070.11 243.154 2069.1 243.154 Q2065.48 243.154 2063.54 245.515 Q2061.62 247.853 2061.62 252.251 L2061.62 265.909 L2057.34 265.909 L2057.34 239.983 L2061.62 239.983 L2061.62 244.011 Q2062.96 241.649 2065.11 240.515 Q2067.27 239.358 2070.35 239.358 Q2070.79 239.358 2071.32 239.427 Q2071.85 239.474 2072.5 239.589 L2072.52 243.964 Z" fill="#000000" fill-rule="evenodd" fill-opacity="1" /><path clip-path="url(#clip620)" d="M2085.99 242.969 Q2082.57 242.969 2080.58 245.654 Q2078.59 248.316 2078.59 252.969 Q2078.59 257.622 2080.55 260.307 Q2082.55 262.969 2085.99 262.969 Q2089.4 262.969 2091.39 260.284 Q2093.38 257.598 2093.38 252.969 Q2093.38 248.362 2091.39 245.677 Q2089.4 242.969 2085.99 242.969 M2085.99 239.358 Q2091.55 239.358 2094.72 242.969 Q2097.89 246.58 2097.89 252.969 Q2097.89 259.335 2094.72 262.969 Q2091.55 266.58 2085.99 266.58 Q2080.42 266.58 2077.24 262.969 Q2074.1 259.335 2074.1 252.969 Q2074.1 246.58 2077.24 242.969 Q2080.42 239.358 2085.99 239.358 Z" fill="#000000" fill-rule="evenodd" fill-opacity="1" /><path clip-path="url(#clip620)" d="M2109.07 262.02 L2109.07 275.77 L2104.79 275.77 L2104.79 239.983 L2109.07 239.983 L2109.07 243.918 Q2110.42 241.603 2112.45 240.492 Q2114.51 239.358 2117.36 239.358 Q2122.08 239.358 2125.02 243.108 Q2127.98 246.858 2127.98 252.969 Q2127.98 259.08 2125.02 262.83 Q2122.08 266.58 2117.36 266.58 Q2114.51 266.58 2112.45 265.469 Q2110.42 264.335 2109.07 262.02 M2123.56 252.969 Q2123.56 248.27 2121.62 245.608 Q2119.7 242.923 2116.32 242.923 Q2112.94 242.923 2110.99 245.608 Q2109.07 248.27 2109.07 252.969 Q2109.07 257.668 2110.99 260.353 Q2112.94 263.015 2116.32 263.015 Q2119.7 263.015 2121.62 260.353 Q2123.56 257.668 2123.56 252.969 Z" fill="#000000" fill-rule="evenodd" fill-opacity="1" /><path clip-path="url(#clip620)" d="M2145.09 242.969 Q2141.67 242.969 2139.67 245.654 Q2137.68 248.316 2137.68 252.969 Q2137.68 257.622 2139.65 260.307 Q2141.64 262.969 2145.09 262.969 Q2148.49 262.969 2150.48 260.284 Q2152.48 257.598 2152.48 252.969 Q2152.48 248.362 2150.48 245.677 Q2148.49 242.969 2145.09 242.969 M2145.09 239.358 Q2150.65 239.358 2153.82 242.969 Q2156.99 246.58 2156.99 252.969 Q2156.99 259.335 2153.82 262.969 Q2150.65 266.58 2145.09 266.58 Q2139.51 266.58 2136.34 262.969 Q2133.19 259.335 2133.19 252.969 Q2133.19 246.58 2136.34 242.969 Q2139.51 239.358 2145.09 239.358 Z" fill="#000000" fill-rule="evenodd" fill-opacity="1" /><path clip-path="url(#clip620)" d="M2180.58 240.747 L2180.58 244.774 Q2178.77 243.849 2176.83 243.386 Q2174.88 242.923 2172.8 242.923 Q2169.63 242.923 2168.03 243.895 Q2166.46 244.867 2166.46 246.811 Q2166.46 248.293 2167.59 249.149 Q2168.73 249.983 2172.15 250.747 L2173.61 251.071 Q2178.15 252.043 2180.04 253.825 Q2181.97 255.585 2181.97 258.756 Q2181.97 262.367 2179.1 264.473 Q2176.25 266.58 2171.25 266.58 Q2169.16 266.58 2166.9 266.163 Q2164.65 265.77 2162.15 264.96 L2162.15 260.561 Q2164.51 261.788 2166.8 262.413 Q2169.1 263.015 2171.34 263.015 Q2174.35 263.015 2175.97 261.997 Q2177.59 260.955 2177.59 259.08 Q2177.59 257.344 2176.41 256.418 Q2175.25 255.492 2171.29 254.636 L2169.81 254.288 Q2165.85 253.455 2164.1 251.742 Q2162.34 250.006 2162.34 246.997 Q2162.34 243.339 2164.93 241.349 Q2167.52 239.358 2172.29 239.358 Q2174.65 239.358 2176.73 239.705 Q2178.82 240.052 2180.58 240.747 Z" fill="#000000" fill-rule="evenodd" fill-opacity="1" /><path clip-path="url(#clip620)" d="M2210.92 251.881 L2210.92 253.964 L2191.34 253.964 Q2191.62 258.362 2193.98 260.677 Q2196.36 262.969 2200.6 262.969 Q2203.05 262.969 2205.35 262.367 Q2207.66 261.765 2209.93 260.561 L2209.93 264.589 Q2207.64 265.561 2205.23 266.071 Q2202.82 266.58 2200.35 266.58 Q2194.14 266.58 2190.51 262.969 Q2186.9 259.358 2186.9 253.2 Q2186.9 246.835 2190.32 243.108 Q2193.77 239.358 2199.6 239.358 Q2204.84 239.358 2207.87 242.737 Q2210.92 246.094 2210.92 251.881 M2206.66 250.631 Q2206.62 247.136 2204.7 245.052 Q2202.8 242.969 2199.65 242.969 Q2196.09 242.969 2193.93 244.983 Q2191.8 246.997 2191.48 250.654 L2206.66 250.631 Z" fill="#000000" fill-rule="evenodd" fill-opacity="1" /><path clip-path="url(#clip620)" d="M2234.97 243.918 L2234.97 229.89 L2239.23 229.89 L2239.23 265.909 L2234.97 265.909 L2234.97 262.02 Q2233.63 264.335 2231.57 265.469 Q2229.54 266.58 2226.66 266.58 Q2221.97 266.58 2219 262.83 Q2216.06 259.08 2216.06 252.969 Q2216.06 246.858 2219 243.108 Q2221.97 239.358 2226.66 239.358 Q2229.54 239.358 2231.57 240.492 Q2233.63 241.603 2234.97 243.918 M2220.46 252.969 Q2220.46 257.668 2222.38 260.353 Q2224.33 263.015 2227.71 263.015 Q2231.09 263.015 2233.03 260.353 Q2234.97 257.668 2234.97 252.969 Q2234.97 248.27 2233.03 245.608 Q2231.09 242.923 2227.71 242.923 Q2224.33 242.923 2222.38 245.608 Q2220.46 248.27 2220.46 252.969 Z" fill="#000000" fill-rule="evenodd" fill-opacity="1" /><path clip-path="url(#clip620)" d="M2247.34 229.937 L2251.04 229.937 Q2254.51 235.4 2256.22 240.631 Q2257.96 245.862 2257.96 251.024 Q2257.96 256.21 2256.22 261.464 Q2254.51 266.719 2251.04 272.159 L2247.34 272.159 Q2250.41 266.858 2251.92 261.626 Q2253.45 256.372 2253.45 251.024 Q2253.45 245.677 2251.92 240.469 Q2250.41 235.261 2247.34 229.937 Z" fill="#000000" fill-rule="evenodd" fill-opacity="1" /><polyline clip-path="url(#clip620)" style="stroke:#c271d2; stroke-linecap:round; stroke-linejoin:round; stroke-width:4; stroke-opacity:1; fill:none" stroke-dasharray="16, 10" points="1625.22,300.469 1767.41,300.469 "/>
<path clip-path="url(#clip620)" d="M1791.11 283.189 L1798.08 283.189 L1806.9 306.707 L1815.76 283.189 L1822.73 283.189 L1822.73 317.749 L1818.17 317.749 L1818.17 287.402 L1809.26 311.105 L1804.56 311.105 L1795.65 287.402 L1795.65 317.749 L1791.11 317.749 L1791.11 283.189 Z" fill="#000000" fill-rule="evenodd" fill-opacity="1" /><path clip-path="url(#clip620)" d="M1857.89 285.851 L1857.89 290.781 Q1855.53 288.582 1852.85 287.494 Q1850.19 286.406 1847.18 286.406 Q1841.25 286.406 1838.1 290.04 Q1834.95 293.652 1834.95 300.503 Q1834.95 307.332 1838.1 310.966 Q1841.25 314.577 1847.18 314.577 Q1850.19 314.577 1852.85 313.489 Q1855.53 312.401 1857.89 310.202 L1857.89 315.087 Q1855.44 316.753 1852.69 317.587 Q1849.95 318.42 1846.9 318.42 Q1839.05 318.42 1834.54 313.628 Q1830.02 308.813 1830.02 300.503 Q1830.02 292.17 1834.54 287.378 Q1839.05 282.564 1846.9 282.564 Q1850 282.564 1852.73 283.397 Q1855.49 284.207 1857.89 285.851 Z" fill="#000000" fill-rule="evenodd" fill-opacity="1" /><path clip-path="url(#clip620)" d="M1862.78 302.864 L1875.25 302.864 L1875.25 306.661 L1862.78 306.661 L1862.78 302.864 Z" fill="#000000" fill-rule="evenodd" fill-opacity="1" /><path clip-path="url(#clip620)" d="M1886.25 284.462 L1886.25 291.823 L1895.02 291.823 L1895.02 295.133 L1886.25 295.133 L1886.25 309.207 Q1886.25 312.378 1887.11 313.281 Q1887.99 314.184 1890.65 314.184 L1895.02 314.184 L1895.02 317.749 L1890.65 317.749 Q1885.72 317.749 1883.84 315.92 Q1881.97 314.068 1881.97 309.207 L1881.97 295.133 L1878.84 295.133 L1878.84 291.823 L1881.97 291.823 L1881.97 284.462 L1886.25 284.462 Z" fill="#000000" fill-rule="evenodd" fill-opacity="1" /><path clip-path="url(#clip620)" d="M1921.53 284.323 L1921.53 288.883 Q1918.87 287.61 1916.5 286.985 Q1914.14 286.36 1911.94 286.36 Q1908.12 286.36 1906.04 287.841 Q1903.98 289.323 1903.98 292.054 Q1903.98 294.346 1905.35 295.527 Q1906.74 296.684 1910.58 297.402 L1913.4 297.98 Q1918.63 298.976 1921.11 301.499 Q1923.61 303.999 1923.61 308.212 Q1923.61 313.235 1920.23 315.827 Q1916.87 318.42 1910.37 318.42 Q1907.92 318.42 1905.14 317.864 Q1902.38 317.309 1899.42 316.221 L1899.42 311.406 Q1902.27 313.003 1905 313.813 Q1907.73 314.624 1910.37 314.624 Q1914.37 314.624 1916.55 313.05 Q1918.73 311.476 1918.73 308.559 Q1918.73 306.013 1917.15 304.577 Q1915.6 303.142 1912.04 302.425 L1909.19 301.869 Q1903.96 300.827 1901.62 298.605 Q1899.28 296.383 1899.28 292.425 Q1899.28 287.841 1902.5 285.202 Q1905.74 282.564 1911.41 282.564 Q1913.84 282.564 1916.37 283.003 Q1918.89 283.443 1921.53 284.323 Z" fill="#000000" fill-rule="evenodd" fill-opacity="1" /><path clip-path="url(#clip620)" d="M1939.81 317.749 L1926.62 283.189 L1931.5 283.189 L1942.45 312.286 L1953.43 283.189 L1958.29 283.189 L1945.12 317.749 L1939.81 317.749 Z" fill="#000000" fill-rule="evenodd" fill-opacity="1" /><path clip-path="url(#clip620)" d="M1968.01 287.031 L1968.01 313.906 L1973.66 313.906 Q1980.81 313.906 1984.12 310.665 Q1987.45 307.425 1987.45 300.434 Q1987.45 293.489 1984.12 290.272 Q1980.81 287.031 1973.66 287.031 L1968.01 287.031 M1963.33 283.189 L1972.94 283.189 Q1982.99 283.189 1987.68 287.378 Q1992.38 291.545 1992.38 300.434 Q1992.38 309.369 1987.66 313.559 Q1982.94 317.749 1972.94 317.749 L1963.33 317.749 L1963.33 283.189 Z" fill="#000000" fill-rule="evenodd" fill-opacity="1" /></svg>
