<?xml version="1.0" encoding="utf-8"?>
<svg xmlns="http://www.w3.org/2000/svg" xmlns:xlink="http://www.w3.org/1999/xlink" width="600" height="400" viewBox="0 0 2400 1600">
<defs>
  <clipPath id="clip090">
    <rect x="0" y="0" width="2400" height="1600"/>
  </clipPath>
</defs>
<path clip-path="url(#clip090)" d="M0 1600 L2400 1600 L2400 0 L0 0  Z" fill="#ffffff" fill-rule="evenodd" fill-opacity="1"/>
<defs>
  <clipPath id="clip091">
    <rect x="480" y="0" width="1681" height="1600"/>
  </clipPath>
</defs>
<defs>
  <clipPath id="clip092">
    <rect x="309" y="47" width="2044" height="1377"/>
  </clipPath>
</defs>
<path clip-path="url(#clip090)" d="M279.704 1423.18 L2352.76 1423.18 L2352.76 47.2441 L279.704 47.2441  Z" fill="#ffffff" fill-rule="evenodd" fill-opacity="1"/>
<defs>
  <clipPath id="clip093">
    <rect x="279" y="47" width="2074" height="1377"/>
  </clipPath>
</defs>
<polyline clip-path="url(#clip093)" style="stroke:#000000; stroke-linecap:round; stroke-linejoin:round; stroke-width:2; stroke-opacity:0.1; fill:none" points="279.704,1423.18 279.704,47.2441 "/>
<polyline clip-path="url(#clip093)" style="stroke:#000000; stroke-linecap:round; stroke-linejoin:round; stroke-width:2; stroke-opacity:0.1; fill:none" points="797.967,1423.18 797.967,47.2441 "/>
<polyline clip-path="url(#clip093)" style="stroke:#000000; stroke-linecap:round; stroke-linejoin:round; stroke-width:2; stroke-opacity:0.1; fill:none" points="1316.23,1423.18 1316.23,47.2441 "/>
<polyline clip-path="url(#clip093)" style="stroke:#000000; stroke-linecap:round; stroke-linejoin:round; stroke-width:2; stroke-opacity:0.1; fill:none" points="1834.49,1423.18 1834.49,47.2441 "/>
<polyline clip-path="url(#clip093)" style="stroke:#000000; stroke-linecap:round; stroke-linejoin:round; stroke-width:2; stroke-opacity:0.1; fill:none" points="2352.76,1423.18 2352.76,47.2441 "/>
<polyline clip-path="url(#clip090)" style="stroke:#000000; stroke-linecap:round; stroke-linejoin:round; stroke-width:4; stroke-opacity:1; fill:none" points="279.704,1423.18 2352.76,1423.18 "/>
<polyline clip-path="url(#clip090)" style="stroke:#000000; stroke-linecap:round; stroke-linejoin:round; stroke-width:4; stroke-opacity:1; fill:none" points="279.704,1423.18 279.704,1404.28 "/>
<polyline clip-path="url(#clip090)" style="stroke:#000000; stroke-linecap:round; stroke-linejoin:round; stroke-width:4; stroke-opacity:1; fill:none" points="797.967,1423.18 797.967,1404.28 "/>
<polyline clip-path="url(#clip090)" style="stroke:#000000; stroke-linecap:round; stroke-linejoin:round; stroke-width:4; stroke-opacity:1; fill:none" points="1316.23,1423.18 1316.23,1404.28 "/>
<polyline clip-path="url(#clip090)" style="stroke:#000000; stroke-linecap:round; stroke-linejoin:round; stroke-width:4; stroke-opacity:1; fill:none" points="1834.49,1423.18 1834.49,1404.28 "/>
<polyline clip-path="url(#clip090)" style="stroke:#000000; stroke-linecap:round; stroke-linejoin:round; stroke-width:4; stroke-opacity:1; fill:none" points="2352.76,1423.18 2352.76,1404.28 "/>
<path clip-path="url(#clip090)" d="M270.086 1481.64 L277.725 1481.64 L277.725 1455.28 L269.415 1456.95 L269.415 1452.69 L277.678 1451.02 L282.354 1451.02 L282.354 1481.64 L289.993 1481.64 L289.993 1485.58 L270.086 1485.58 L270.086 1481.64 Z" fill="#000000" fill-rule="evenodd" fill-opacity="1" /><path clip-path="url(#clip090)" d="M792.62 1481.64 L808.939 1481.64 L808.939 1485.58 L786.995 1485.58 L786.995 1481.64 Q789.657 1478.89 794.24 1474.26 Q798.847 1469.61 800.027 1468.27 Q802.272 1465.74 803.152 1464.01 Q804.055 1462.25 804.055 1460.56 Q804.055 1457.8 802.11 1456.07 Q800.189 1454.33 797.087 1454.33 Q794.888 1454.33 792.435 1455.09 Q790.004 1455.86 787.226 1457.41 L787.226 1452.69 Q790.05 1451.55 792.504 1450.97 Q794.958 1450.39 796.995 1450.39 Q802.365 1450.39 805.559 1453.08 Q808.754 1455.77 808.754 1460.26 Q808.754 1462.39 807.944 1464.31 Q807.157 1466.2 805.05 1468.8 Q804.472 1469.47 801.37 1472.69 Q798.268 1475.88 792.62 1481.64 Z" fill="#000000" fill-rule="evenodd" fill-opacity="1" /><path clip-path="url(#clip090)" d="M1320.48 1466.95 Q1323.83 1467.66 1325.71 1469.93 Q1327.61 1472.2 1327.61 1475.53 Q1327.61 1480.65 1324.09 1483.45 Q1320.57 1486.25 1314.09 1486.25 Q1311.91 1486.25 1309.6 1485.81 Q1307.31 1485.39 1304.85 1484.54 L1304.85 1480.02 Q1306.8 1481.16 1309.11 1481.74 Q1311.43 1482.32 1313.95 1482.32 Q1318.35 1482.32 1320.64 1480.58 Q1322.95 1478.84 1322.95 1475.53 Q1322.95 1472.48 1320.8 1470.77 Q1318.67 1469.03 1314.85 1469.03 L1310.82 1469.03 L1310.82 1465.19 L1315.04 1465.19 Q1318.49 1465.19 1320.32 1463.82 Q1322.14 1462.43 1322.14 1459.84 Q1322.14 1457.18 1320.25 1455.77 Q1318.37 1454.33 1314.85 1454.33 Q1312.93 1454.33 1310.73 1454.75 Q1308.53 1455.16 1305.89 1456.04 L1305.89 1451.88 Q1308.56 1451.14 1310.87 1450.77 Q1313.21 1450.39 1315.27 1450.39 Q1320.59 1450.39 1323.7 1452.83 Q1326.8 1455.23 1326.8 1459.35 Q1326.8 1462.22 1325.15 1464.21 Q1323.51 1466.18 1320.48 1466.95 Z" fill="#000000" fill-rule="evenodd" fill-opacity="1" /><path clip-path="url(#clip090)" d="M1837.5 1455.09 L1825.7 1473.54 L1837.5 1473.54 L1837.5 1455.09 M1836.28 1451.02 L1842.15 1451.02 L1842.15 1473.54 L1847.09 1473.54 L1847.09 1477.43 L1842.15 1477.43 L1842.15 1485.58 L1837.5 1485.58 L1837.5 1477.43 L1821.9 1477.43 L1821.9 1472.92 L1836.28 1451.02 Z" fill="#000000" fill-rule="evenodd" fill-opacity="1" /><path clip-path="url(#clip090)" d="M2343.03 1451.02 L2361.39 1451.02 L2361.39 1454.96 L2347.32 1454.96 L2347.32 1463.43 Q2348.33 1463.08 2349.35 1462.92 Q2350.37 1462.73 2351.39 1462.73 Q2357.18 1462.73 2360.56 1465.9 Q2363.94 1469.08 2363.94 1474.49 Q2363.94 1480.07 2360.46 1483.17 Q2356.99 1486.25 2350.67 1486.25 Q2348.5 1486.25 2346.23 1485.88 Q2343.98 1485.51 2341.58 1484.77 L2341.58 1480.07 Q2343.66 1481.2 2345.88 1481.76 Q2348.1 1482.32 2350.58 1482.32 Q2354.58 1482.32 2356.92 1480.21 Q2359.26 1478.1 2359.26 1474.49 Q2359.26 1470.88 2356.92 1468.77 Q2354.58 1466.67 2350.58 1466.67 Q2348.71 1466.67 2346.83 1467.08 Q2344.98 1467.5 2343.03 1468.38 L2343.03 1451.02 Z" fill="#000000" fill-rule="evenodd" fill-opacity="1" /><path clip-path="url(#clip090)" d="M1017.98 1550.12 Q1010.88 1550.12 1008.15 1551.75 Q1005.41 1553.37 1005.41 1557.29 Q1005.41 1560.4 1007.45 1562.25 Q1009.51 1564.07 1013.05 1564.07 Q1017.92 1564.07 1020.85 1560.63 Q1023.81 1557.16 1023.81 1551.43 L1023.81 1550.12 L1017.98 1550.12 M1029.66 1547.71 L1029.66 1568.04 L1023.81 1568.04 L1023.81 1562.63 Q1021.8 1565.88 1018.81 1567.44 Q1015.82 1568.97 1011.49 1568.97 Q1006.01 1568.97 1002.77 1565.91 Q999.552 1562.82 999.552 1557.67 Q999.552 1551.65 1003.56 1548.6 Q1007.6 1545.54 1015.59 1545.54 L1023.81 1545.54 L1023.81 1544.97 Q1023.81 1540.93 1021.13 1538.73 Q1018.49 1536.5 1013.68 1536.5 Q1010.63 1536.5 1007.73 1537.23 Q1004.84 1537.97 1002.16 1539.43 L1002.16 1534.02 Q1005.38 1532.78 1008.4 1532.17 Q1011.42 1531.54 1014.29 1531.54 Q1022.02 1531.54 1025.84 1535.55 Q1029.66 1539.56 1029.66 1547.71 Z" fill="#000000" fill-rule="evenodd" fill-opacity="1" /><path clip-path="url(#clip090)" d="M1047.39 1562.7 L1047.39 1581.6 L1041.5 1581.6 L1041.5 1532.4 L1047.39 1532.4 L1047.39 1537.81 Q1049.24 1534.62 1052.04 1533.1 Q1054.87 1531.54 1058.78 1531.54 Q1065.28 1531.54 1069.32 1536.69 Q1073.39 1541.85 1073.39 1550.25 Q1073.39 1558.65 1069.32 1563.81 Q1065.28 1568.97 1058.78 1568.97 Q1054.87 1568.97 1052.04 1567.44 Q1049.24 1565.88 1047.39 1562.7 M1067.31 1550.25 Q1067.31 1543.79 1064.64 1540.13 Q1062 1536.44 1057.35 1536.44 Q1052.71 1536.44 1050.03 1540.13 Q1047.39 1543.79 1047.39 1550.25 Q1047.39 1556.71 1050.03 1560.4 Q1052.71 1564.07 1057.35 1564.07 Q1062 1564.07 1064.64 1560.4 Q1067.31 1556.71 1067.31 1550.25 Z" fill="#000000" fill-rule="evenodd" fill-opacity="1" /><path clip-path="url(#clip090)" d="M1088.77 1562.7 L1088.77 1581.6 L1082.88 1581.6 L1082.88 1532.4 L1088.77 1532.4 L1088.77 1537.81 Q1090.61 1534.62 1093.41 1533.1 Q1096.25 1531.54 1100.16 1531.54 Q1106.65 1531.54 1110.7 1536.69 Q1114.77 1541.85 1114.77 1550.25 Q1114.77 1558.65 1110.7 1563.81 Q1106.65 1568.97 1100.16 1568.97 Q1096.25 1568.97 1093.41 1567.44 Q1090.61 1565.88 1088.77 1562.7 M1108.69 1550.25 Q1108.69 1543.79 1106.02 1540.13 Q1103.38 1536.44 1098.73 1536.44 Q1094.08 1536.44 1091.41 1540.13 Q1088.77 1543.79 1088.77 1550.25 Q1088.77 1556.71 1091.41 1560.4 Q1094.08 1564.07 1098.73 1564.07 Q1103.38 1564.07 1106.02 1560.4 Q1108.69 1556.71 1108.69 1550.25 Z" fill="#000000" fill-rule="evenodd" fill-opacity="1" /><path clip-path="url(#clip090)" d="M1145.14 1537.87 Q1144.15 1537.3 1142.97 1537.04 Q1141.83 1536.76 1140.43 1536.76 Q1135.46 1536.76 1132.79 1540 Q1130.14 1543.22 1130.14 1549.27 L1130.14 1568.04 L1124.26 1568.04 L1124.26 1532.4 L1130.14 1532.4 L1130.14 1537.93 Q1131.99 1534.69 1134.95 1533.13 Q1137.91 1531.54 1142.14 1531.54 Q1142.75 1531.54 1143.48 1531.63 Q1144.21 1531.7 1145.1 1531.85 L1145.14 1537.87 Z" fill="#000000" fill-rule="evenodd" fill-opacity="1" /><path clip-path="url(#clip090)" d="M1163.66 1536.5 Q1158.95 1536.5 1156.21 1540.19 Q1153.47 1543.85 1153.47 1550.25 Q1153.47 1556.65 1156.18 1560.34 Q1158.92 1564 1163.66 1564 Q1168.34 1564 1171.08 1560.31 Q1173.81 1556.62 1173.81 1550.25 Q1173.81 1543.92 1171.08 1540.23 Q1168.34 1536.5 1163.66 1536.5 M1163.66 1531.54 Q1171.3 1531.54 1175.66 1536.5 Q1180.02 1541.47 1180.02 1550.25 Q1180.02 1559 1175.66 1564 Q1171.3 1568.97 1163.66 1568.97 Q1155.99 1568.97 1151.63 1564 Q1147.3 1559 1147.3 1550.25 Q1147.3 1541.47 1151.63 1536.5 Q1155.99 1531.54 1163.66 1531.54 Z" fill="#000000" fill-rule="evenodd" fill-opacity="1" /><path clip-path="url(#clip090)" d="M1217.35 1532.4 L1204.46 1549.74 L1218.02 1568.04 L1211.12 1568.04 L1200.74 1554.04 L1190.36 1568.04 L1183.46 1568.04 L1197.3 1549.39 L1184.63 1532.4 L1191.54 1532.4 L1200.99 1545.1 L1210.45 1532.4 L1217.35 1532.4 Z" fill="#000000" fill-rule="evenodd" fill-opacity="1" /><path clip-path="url(#clip090)" d="M1226.3 1532.4 L1232.15 1532.4 L1232.15 1568.04 L1226.3 1568.04 L1226.3 1532.4 M1226.3 1518.52 L1232.15 1518.52 L1232.15 1525.93 L1226.3 1525.93 L1226.3 1518.52 Z" fill="#000000" fill-rule="evenodd" fill-opacity="1" /><path clip-path="url(#clip090)" d="M1272.16 1539.24 Q1274.36 1535.29 1277.42 1533.41 Q1280.47 1531.54 1284.61 1531.54 Q1290.18 1531.54 1293.2 1535.45 Q1296.23 1539.33 1296.23 1546.53 L1296.23 1568.04 L1290.34 1568.04 L1290.34 1546.72 Q1290.34 1541.59 1288.52 1539.11 Q1286.71 1536.63 1282.99 1536.63 Q1278.43 1536.63 1275.79 1539.65 Q1273.15 1542.68 1273.15 1547.9 L1273.15 1568.04 L1267.26 1568.04 L1267.26 1546.72 Q1267.26 1541.56 1265.45 1539.11 Q1263.63 1536.63 1259.85 1536.63 Q1255.36 1536.63 1252.72 1539.68 Q1250.07 1542.71 1250.07 1547.9 L1250.07 1568.04 L1244.19 1568.04 L1244.19 1532.4 L1250.07 1532.4 L1250.07 1537.93 Q1252.08 1534.66 1254.88 1533.1 Q1257.68 1531.54 1261.53 1531.54 Q1265.42 1531.54 1268.12 1533.51 Q1270.86 1535.48 1272.16 1539.24 Z" fill="#000000" fill-rule="evenodd" fill-opacity="1" /><path clip-path="url(#clip090)" d="M1324.11 1550.12 Q1317.01 1550.12 1314.27 1551.75 Q1311.54 1553.37 1311.54 1557.29 Q1311.54 1560.4 1313.57 1562.25 Q1315.64 1564.07 1319.17 1564.07 Q1324.04 1564.07 1326.97 1560.63 Q1329.93 1557.16 1329.93 1551.43 L1329.93 1550.12 L1324.11 1550.12 M1335.79 1547.71 L1335.79 1568.04 L1329.93 1568.04 L1329.93 1562.63 Q1327.93 1565.88 1324.94 1567.44 Q1321.94 1568.97 1317.61 1568.97 Q1312.14 1568.97 1308.89 1565.91 Q1305.68 1562.82 1305.68 1557.67 Q1305.68 1551.65 1309.69 1548.6 Q1313.73 1545.54 1321.72 1545.54 L1329.93 1545.54 L1329.93 1544.97 Q1329.93 1540.93 1327.26 1538.73 Q1324.62 1536.5 1319.81 1536.5 Q1316.76 1536.5 1313.86 1537.23 Q1310.96 1537.97 1308.29 1539.43 L1308.29 1534.02 Q1311.5 1532.78 1314.53 1532.17 Q1317.55 1531.54 1320.42 1531.54 Q1328.15 1531.54 1331.97 1535.55 Q1335.79 1539.56 1335.79 1547.71 Z" fill="#000000" fill-rule="evenodd" fill-opacity="1" /><path clip-path="url(#clip090)" d="M1353.64 1522.27 L1353.64 1532.4 L1365.71 1532.4 L1365.71 1536.95 L1353.64 1536.95 L1353.64 1556.3 Q1353.64 1560.66 1354.82 1561.9 Q1356.03 1563.14 1359.69 1563.14 L1365.71 1563.14 L1365.71 1568.04 L1359.69 1568.04 Q1352.91 1568.04 1350.33 1565.53 Q1347.76 1562.98 1347.76 1556.3 L1347.76 1536.95 L1343.46 1536.95 L1343.46 1532.4 L1347.76 1532.4 L1347.76 1522.27 L1353.64 1522.27 Z" fill="#000000" fill-rule="evenodd" fill-opacity="1" /><path clip-path="url(#clip090)" d="M1373.41 1532.4 L1379.27 1532.4 L1379.27 1568.04 L1373.41 1568.04 L1373.41 1532.4 M1373.41 1518.52 L1379.27 1518.52 L1379.27 1525.93 L1373.41 1525.93 L1373.41 1518.52 Z" fill="#000000" fill-rule="evenodd" fill-opacity="1" /><path clip-path="url(#clip090)" d="M1405.33 1536.5 Q1400.62 1536.5 1397.89 1540.19 Q1395.15 1543.85 1395.15 1550.25 Q1395.15 1556.65 1397.85 1560.34 Q1400.59 1564 1405.33 1564 Q1410.01 1564 1412.75 1560.31 Q1415.49 1556.62 1415.49 1550.25 Q1415.49 1543.92 1412.75 1540.23 Q1410.01 1536.5 1405.33 1536.5 M1405.33 1531.54 Q1412.97 1531.54 1417.33 1536.5 Q1421.69 1541.47 1421.69 1550.25 Q1421.69 1559 1417.33 1564 Q1412.97 1568.97 1405.33 1568.97 Q1397.66 1568.97 1393.3 1564 Q1388.97 1559 1388.97 1550.25 Q1388.97 1541.47 1393.3 1536.5 Q1397.66 1531.54 1405.33 1531.54 Z" fill="#000000" fill-rule="evenodd" fill-opacity="1" /><path clip-path="url(#clip090)" d="M1461.03 1546.53 L1461.03 1568.04 L1455.18 1568.04 L1455.18 1546.72 Q1455.18 1541.66 1453.2 1539.14 Q1451.23 1536.63 1447.28 1536.63 Q1442.54 1536.63 1439.8 1539.65 Q1437.07 1542.68 1437.07 1547.9 L1437.07 1568.04 L1431.18 1568.04 L1431.18 1532.4 L1437.07 1532.4 L1437.07 1537.93 Q1439.17 1534.72 1442 1533.13 Q1444.86 1531.54 1448.59 1531.54 Q1454.73 1531.54 1457.88 1535.36 Q1461.03 1539.14 1461.03 1546.53 Z" fill="#000000" fill-rule="evenodd" fill-opacity="1" /><path clip-path="url(#clip090)" d="M1514.09 1537.87 Q1513.11 1537.3 1511.93 1537.04 Q1510.78 1536.76 1509.38 1536.76 Q1504.42 1536.76 1501.74 1540 Q1499.1 1543.22 1499.1 1549.27 L1499.1 1568.04 L1493.21 1568.04 L1493.21 1532.4 L1499.1 1532.4 L1499.1 1537.93 Q1500.95 1534.69 1503.91 1533.13 Q1506.87 1531.54 1511.1 1531.54 Q1511.7 1531.54 1512.44 1531.63 Q1513.17 1531.7 1514.06 1531.85 L1514.09 1537.87 Z" fill="#000000" fill-rule="evenodd" fill-opacity="1" /><path clip-path="url(#clip090)" d="M1536.44 1550.12 Q1529.34 1550.12 1526.6 1551.75 Q1523.86 1553.37 1523.86 1557.29 Q1523.86 1560.4 1525.9 1562.25 Q1527.97 1564.07 1531.5 1564.07 Q1536.37 1564.07 1539.3 1560.63 Q1542.26 1557.16 1542.26 1551.43 L1542.26 1550.12 L1536.44 1550.12 M1548.12 1547.71 L1548.12 1568.04 L1542.26 1568.04 L1542.26 1562.63 Q1540.26 1565.88 1537.26 1567.44 Q1534.27 1568.97 1529.94 1568.97 Q1524.47 1568.97 1521.22 1565.91 Q1518.01 1562.82 1518.01 1557.67 Q1518.01 1551.65 1522.02 1548.6 Q1526.06 1545.54 1534.05 1545.54 L1542.26 1545.54 L1542.26 1544.97 Q1542.26 1540.93 1539.59 1538.73 Q1536.94 1536.5 1532.14 1536.5 Q1529.08 1536.5 1526.19 1537.23 Q1523.29 1537.97 1520.62 1539.43 L1520.62 1534.02 Q1523.83 1532.78 1526.86 1532.17 Q1529.88 1531.54 1532.74 1531.54 Q1540.48 1531.54 1544.3 1535.55 Q1548.12 1539.56 1548.12 1547.71 Z" fill="#000000" fill-rule="evenodd" fill-opacity="1" /><path clip-path="url(#clip090)" d="M1589.81 1546.53 L1589.81 1568.04 L1583.96 1568.04 L1583.96 1546.72 Q1583.96 1541.66 1581.98 1539.14 Q1580.01 1536.63 1576.06 1536.63 Q1571.32 1536.63 1568.58 1539.65 Q1565.85 1542.68 1565.85 1547.9 L1565.85 1568.04 L1559.96 1568.04 L1559.96 1532.4 L1565.85 1532.4 L1565.85 1537.93 Q1567.95 1534.72 1570.78 1533.13 Q1573.64 1531.54 1577.37 1531.54 Q1583.51 1531.54 1586.66 1535.36 Q1589.81 1539.14 1589.81 1546.53 Z" fill="#000000" fill-rule="evenodd" fill-opacity="1" /><path clip-path="url(#clip090)" d="M1601.27 1518.52 L1607.16 1518.52 L1607.16 1547.77 L1624.63 1532.4 L1632.11 1532.4 L1613.21 1549.07 L1632.91 1568.04 L1625.27 1568.04 L1607.16 1550.63 L1607.16 1568.04 L1601.27 1568.04 L1601.27 1518.52 Z" fill="#000000" fill-rule="evenodd" fill-opacity="1" /><polyline clip-path="url(#clip093)" style="stroke:#000000; stroke-linecap:round; stroke-linejoin:round; stroke-width:2; stroke-opacity:0.1; fill:none" points="279.704,1267.44 2352.76,1267.44 "/>
<polyline clip-path="url(#clip093)" style="stroke:#000000; stroke-linecap:round; stroke-linejoin:round; stroke-width:2; stroke-opacity:0.1; fill:none" points="279.704,1020.83 2352.76,1020.83 "/>
<polyline clip-path="url(#clip093)" style="stroke:#000000; stroke-linecap:round; stroke-linejoin:round; stroke-width:2; stroke-opacity:0.1; fill:none" points="279.704,774.22 2352.76,774.22 "/>
<polyline clip-path="url(#clip093)" style="stroke:#000000; stroke-linecap:round; stroke-linejoin:round; stroke-width:2; stroke-opacity:0.1; fill:none" points="279.704,527.61 2352.76,527.61 "/>
<polyline clip-path="url(#clip093)" style="stroke:#000000; stroke-linecap:round; stroke-linejoin:round; stroke-width:2; stroke-opacity:0.1; fill:none" points="279.704,281 2352.76,281 "/>
<polyline clip-path="url(#clip090)" style="stroke:#000000; stroke-linecap:round; stroke-linejoin:round; stroke-width:4; stroke-opacity:1; fill:none" points="279.704,1423.18 279.704,47.2441 "/>
<polyline clip-path="url(#clip090)" style="stroke:#000000; stroke-linecap:round; stroke-linejoin:round; stroke-width:4; stroke-opacity:1; fill:none" points="279.704,1267.44 298.602,1267.44 "/>
<polyline clip-path="url(#clip090)" style="stroke:#000000; stroke-linecap:round; stroke-linejoin:round; stroke-width:4; stroke-opacity:1; fill:none" points="279.704,1020.83 298.602,1020.83 "/>
<polyline clip-path="url(#clip090)" style="stroke:#000000; stroke-linecap:round; stroke-linejoin:round; stroke-width:4; stroke-opacity:1; fill:none" points="279.704,774.22 298.602,774.22 "/>
<polyline clip-path="url(#clip090)" style="stroke:#000000; stroke-linecap:round; stroke-linejoin:round; stroke-width:4; stroke-opacity:1; fill:none" points="279.704,527.61 298.602,527.61 "/>
<polyline clip-path="url(#clip090)" style="stroke:#000000; stroke-linecap:round; stroke-linejoin:round; stroke-width:4; stroke-opacity:1; fill:none" points="279.704,281 298.602,281 "/>
<path clip-path="url(#clip090)" d="M126.205 1253.24 Q122.593 1253.24 120.765 1256.8 Q118.959 1260.35 118.959 1267.48 Q118.959 1274.58 120.765 1278.15 Q122.593 1281.69 126.205 1281.69 Q129.839 1281.69 131.644 1278.15 Q133.473 1274.58 133.473 1267.48 Q133.473 1260.35 131.644 1256.8 Q129.839 1253.24 126.205 1253.24 M126.205 1249.54 Q132.015 1249.54 135.07 1254.14 Q138.149 1258.73 138.149 1267.48 Q138.149 1276.2 135.07 1280.81 Q132.015 1285.39 126.205 1285.39 Q120.394 1285.39 117.316 1280.81 Q114.26 1276.2 114.26 1267.48 Q114.26 1258.73 117.316 1254.14 Q120.394 1249.54 126.205 1249.54 Z" fill="#000000" fill-rule="evenodd" fill-opacity="1" /><path clip-path="url(#clip090)" d="M146.366 1278.84 L151.251 1278.84 L151.251 1284.72 L146.366 1284.72 L146.366 1278.84 Z" fill="#000000" fill-rule="evenodd" fill-opacity="1" /><path clip-path="url(#clip090)" d="M171.436 1253.24 Q167.825 1253.24 165.996 1256.8 Q164.19 1260.35 164.19 1267.48 Q164.19 1274.58 165.996 1278.15 Q167.825 1281.69 171.436 1281.69 Q175.07 1281.69 176.876 1278.15 Q178.704 1274.58 178.704 1267.48 Q178.704 1260.35 176.876 1256.8 Q175.07 1253.24 171.436 1253.24 M171.436 1249.54 Q177.246 1249.54 180.301 1254.14 Q183.38 1258.73 183.38 1267.48 Q183.38 1276.2 180.301 1280.81 Q177.246 1285.39 171.436 1285.39 Q165.626 1285.39 162.547 1280.81 Q159.491 1276.2 159.491 1267.48 Q159.491 1258.73 162.547 1254.14 Q165.626 1249.54 171.436 1249.54 Z" fill="#000000" fill-rule="evenodd" fill-opacity="1" /><path clip-path="url(#clip090)" d="M201.598 1253.24 Q197.987 1253.24 196.158 1256.8 Q194.352 1260.35 194.352 1267.48 Q194.352 1274.58 196.158 1278.15 Q197.987 1281.69 201.598 1281.69 Q205.232 1281.69 207.037 1278.15 Q208.866 1274.58 208.866 1267.48 Q208.866 1260.35 207.037 1256.8 Q205.232 1253.24 201.598 1253.24 M201.598 1249.54 Q207.408 1249.54 210.463 1254.14 Q213.542 1258.73 213.542 1267.48 Q213.542 1276.2 210.463 1280.81 Q207.408 1285.39 201.598 1285.39 Q195.787 1285.39 192.709 1280.81 Q189.653 1276.2 189.653 1267.48 Q189.653 1258.73 192.709 1254.14 Q195.787 1249.54 201.598 1249.54 Z" fill="#000000" fill-rule="evenodd" fill-opacity="1" /><path clip-path="url(#clip090)" d="M231.76 1253.24 Q228.148 1253.24 226.32 1256.8 Q224.514 1260.35 224.514 1267.48 Q224.514 1274.58 226.32 1278.15 Q228.148 1281.69 231.76 1281.69 Q235.394 1281.69 237.199 1278.15 Q239.028 1274.58 239.028 1267.48 Q239.028 1260.35 237.199 1256.8 Q235.394 1253.24 231.76 1253.24 M231.76 1249.54 Q237.57 1249.54 240.625 1254.14 Q243.704 1258.73 243.704 1267.48 Q243.704 1276.2 240.625 1280.81 Q237.57 1285.39 231.76 1285.39 Q225.949 1285.39 222.871 1280.81 Q219.815 1276.2 219.815 1267.48 Q219.815 1258.73 222.871 1254.14 Q225.949 1249.54 231.76 1249.54 Z" fill="#000000" fill-rule="evenodd" fill-opacity="1" /><path clip-path="url(#clip090)" d="M127.2 1006.63 Q123.589 1006.63 121.76 1010.19 Q119.955 1013.74 119.955 1020.86 Q119.955 1027.97 121.76 1031.54 Q123.589 1035.08 127.2 1035.08 Q130.834 1035.08 132.64 1031.54 Q134.468 1027.97 134.468 1020.86 Q134.468 1013.74 132.64 1010.19 Q130.834 1006.63 127.2 1006.63 M127.2 1002.93 Q133.01 1002.93 136.066 1007.53 Q139.144 1012.12 139.144 1020.86 Q139.144 1029.59 136.066 1034.2 Q133.01 1038.78 127.2 1038.78 Q121.39 1038.78 118.311 1034.2 Q115.256 1029.59 115.256 1020.86 Q115.256 1012.12 118.311 1007.53 Q121.39 1002.93 127.2 1002.93 Z" fill="#000000" fill-rule="evenodd" fill-opacity="1" /><path clip-path="url(#clip090)" d="M147.362 1032.23 L152.246 1032.23 L152.246 1038.11 L147.362 1038.11 L147.362 1032.23 Z" fill="#000000" fill-rule="evenodd" fill-opacity="1" /><path clip-path="url(#clip090)" d="M172.431 1006.63 Q168.82 1006.63 166.991 1010.19 Q165.186 1013.74 165.186 1020.86 Q165.186 1027.97 166.991 1031.54 Q168.82 1035.08 172.431 1035.08 Q176.065 1035.08 177.871 1031.54 Q179.7 1027.97 179.7 1020.86 Q179.7 1013.74 177.871 1010.19 Q176.065 1006.63 172.431 1006.63 M172.431 1002.93 Q178.241 1002.93 181.297 1007.53 Q184.376 1012.12 184.376 1020.86 Q184.376 1029.59 181.297 1034.2 Q178.241 1038.78 172.431 1038.78 Q166.621 1038.78 163.542 1034.2 Q160.487 1029.59 160.487 1020.86 Q160.487 1012.12 163.542 1007.53 Q166.621 1002.93 172.431 1002.93 Z" fill="#000000" fill-rule="evenodd" fill-opacity="1" /><path clip-path="url(#clip090)" d="M202.593 1006.63 Q198.982 1006.63 197.153 1010.19 Q195.348 1013.74 195.348 1020.86 Q195.348 1027.97 197.153 1031.54 Q198.982 1035.08 202.593 1035.08 Q206.227 1035.08 208.033 1031.54 Q209.861 1027.97 209.861 1020.86 Q209.861 1013.74 208.033 1010.19 Q206.227 1006.63 202.593 1006.63 M202.593 1002.93 Q208.403 1002.93 211.459 1007.53 Q214.537 1012.12 214.537 1020.86 Q214.537 1029.59 211.459 1034.2 Q208.403 1038.78 202.593 1038.78 Q196.783 1038.78 193.704 1034.2 Q190.649 1029.59 190.649 1020.86 Q190.649 1012.12 193.704 1007.53 Q196.783 1002.93 202.593 1002.93 Z" fill="#000000" fill-rule="evenodd" fill-opacity="1" /><path clip-path="url(#clip090)" d="M222.801 1003.55 L241.158 1003.55 L241.158 1007.49 L227.084 1007.49 L227.084 1015.96 Q228.102 1015.61 229.121 1015.45 Q230.139 1015.26 231.158 1015.26 Q236.945 1015.26 240.324 1018.43 Q243.704 1021.61 243.704 1027.02 Q243.704 1032.6 240.232 1035.7 Q236.76 1038.78 230.44 1038.78 Q228.264 1038.78 225.996 1038.41 Q223.75 1038.04 221.343 1037.3 L221.343 1032.6 Q223.426 1033.74 225.648 1034.29 Q227.871 1034.85 230.347 1034.85 Q234.352 1034.85 236.69 1032.74 Q239.028 1030.63 239.028 1027.02 Q239.028 1023.41 236.69 1021.3 Q234.352 1019.2 230.347 1019.2 Q228.473 1019.2 226.598 1019.61 Q224.746 1020.03 222.801 1020.91 L222.801 1003.55 Z" fill="#000000" fill-rule="evenodd" fill-opacity="1" /><path clip-path="url(#clip090)" d="M126.205 760.019 Q122.593 760.019 120.765 763.584 Q118.959 767.125 118.959 774.255 Q118.959 781.361 120.765 784.926 Q122.593 788.468 126.205 788.468 Q129.839 788.468 131.644 784.926 Q133.473 781.361 133.473 774.255 Q133.473 767.125 131.644 763.584 Q129.839 760.019 126.205 760.019 M126.205 756.315 Q132.015 756.315 135.07 760.922 Q138.149 765.505 138.149 774.255 Q138.149 782.982 135.07 787.588 Q132.015 792.171 126.205 792.171 Q120.394 792.171 117.316 787.588 Q114.26 782.982 114.26 774.255 Q114.26 765.505 117.316 760.922 Q120.394 756.315 126.205 756.315 Z" fill="#000000" fill-rule="evenodd" fill-opacity="1" /><path clip-path="url(#clip090)" d="M146.366 785.621 L151.251 785.621 L151.251 791.5 L146.366 791.5 L146.366 785.621 Z" fill="#000000" fill-rule="evenodd" fill-opacity="1" /><path clip-path="url(#clip090)" d="M171.436 760.019 Q167.825 760.019 165.996 763.584 Q164.19 767.125 164.19 774.255 Q164.19 781.361 165.996 784.926 Q167.825 788.468 171.436 788.468 Q175.07 788.468 176.876 784.926 Q178.704 781.361 178.704 774.255 Q178.704 767.125 176.876 763.584 Q175.07 760.019 171.436 760.019 M171.436 756.315 Q177.246 756.315 180.301 760.922 Q183.38 765.505 183.38 774.255 Q183.38 782.982 180.301 787.588 Q177.246 792.171 171.436 792.171 Q165.626 792.171 162.547 787.588 Q159.491 782.982 159.491 774.255 Q159.491 765.505 162.547 760.922 Q165.626 756.315 171.436 756.315 Z" fill="#000000" fill-rule="evenodd" fill-opacity="1" /><path clip-path="url(#clip090)" d="M192.408 787.565 L200.047 787.565 L200.047 761.199 L191.737 762.866 L191.737 758.607 L200 756.94 L204.676 756.94 L204.676 787.565 L212.315 787.565 L212.315 791.5 L192.408 791.5 L192.408 787.565 Z" fill="#000000" fill-rule="evenodd" fill-opacity="1" /><path clip-path="url(#clip090)" d="M231.76 760.019 Q228.148 760.019 226.32 763.584 Q224.514 767.125 224.514 774.255 Q224.514 781.361 226.32 784.926 Q228.148 788.468 231.76 788.468 Q235.394 788.468 237.199 784.926 Q239.028 781.361 239.028 774.255 Q239.028 767.125 237.199 763.584 Q235.394 760.019 231.76 760.019 M231.76 756.315 Q237.57 756.315 240.625 760.922 Q243.704 765.505 243.704 774.255 Q243.704 782.982 240.625 787.588 Q237.57 792.171 231.76 792.171 Q225.949 792.171 222.871 787.588 Q219.815 782.982 219.815 774.255 Q219.815 765.505 222.871 760.922 Q225.949 756.315 231.76 756.315 Z" fill="#000000" fill-rule="evenodd" fill-opacity="1" /><path clip-path="url(#clip090)" d="M127.2 513.409 Q123.589 513.409 121.76 516.974 Q119.955 520.515 119.955 527.645 Q119.955 534.751 121.76 538.316 Q123.589 541.858 127.2 541.858 Q130.834 541.858 132.64 538.316 Q134.468 534.751 134.468 527.645 Q134.468 520.515 132.64 516.974 Q130.834 513.409 127.2 513.409 M127.2 509.705 Q133.01 509.705 136.066 514.312 Q139.144 518.895 139.144 527.645 Q139.144 536.372 136.066 540.978 Q133.01 545.561 127.2 545.561 Q121.39 545.561 118.311 540.978 Q115.256 536.372 115.256 527.645 Q115.256 518.895 118.311 514.312 Q121.39 509.705 127.2 509.705 Z" fill="#000000" fill-rule="evenodd" fill-opacity="1" /><path clip-path="url(#clip090)" d="M147.362 539.011 L152.246 539.011 L152.246 544.89 L147.362 544.89 L147.362 539.011 Z" fill="#000000" fill-rule="evenodd" fill-opacity="1" /><path clip-path="url(#clip090)" d="M172.431 513.409 Q168.82 513.409 166.991 516.974 Q165.186 520.515 165.186 527.645 Q165.186 534.751 166.991 538.316 Q168.82 541.858 172.431 541.858 Q176.065 541.858 177.871 538.316 Q179.7 534.751 179.7 527.645 Q179.7 520.515 177.871 516.974 Q176.065 513.409 172.431 513.409 M172.431 509.705 Q178.241 509.705 181.297 514.312 Q184.376 518.895 184.376 527.645 Q184.376 536.372 181.297 540.978 Q178.241 545.561 172.431 545.561 Q166.621 545.561 163.542 540.978 Q160.487 536.372 160.487 527.645 Q160.487 518.895 163.542 514.312 Q166.621 509.705 172.431 509.705 Z" fill="#000000" fill-rule="evenodd" fill-opacity="1" /><path clip-path="url(#clip090)" d="M193.403 540.955 L201.042 540.955 L201.042 514.589 L192.732 516.256 L192.732 511.997 L200.996 510.33 L205.672 510.33 L205.672 540.955 L213.311 540.955 L213.311 544.89 L193.403 544.89 L193.403 540.955 Z" fill="#000000" fill-rule="evenodd" fill-opacity="1" /><path clip-path="url(#clip090)" d="M222.801 510.33 L241.158 510.33 L241.158 514.265 L227.084 514.265 L227.084 522.737 Q228.102 522.39 229.121 522.228 Q230.139 522.043 231.158 522.043 Q236.945 522.043 240.324 525.214 Q243.704 528.386 243.704 533.802 Q243.704 539.381 240.232 542.483 Q236.76 545.561 230.44 545.561 Q228.264 545.561 225.996 545.191 Q223.75 544.821 221.343 544.08 L221.343 539.381 Q223.426 540.515 225.648 541.071 Q227.871 541.626 230.347 541.626 Q234.352 541.626 236.69 539.52 Q239.028 537.413 239.028 533.802 Q239.028 530.191 236.69 528.085 Q234.352 525.978 230.347 525.978 Q228.473 525.978 226.598 526.395 Q224.746 526.812 222.801 527.691 L222.801 510.33 Z" fill="#000000" fill-rule="evenodd" fill-opacity="1" /><path clip-path="url(#clip090)" d="M126.205 266.799 Q122.593 266.799 120.765 270.364 Q118.959 273.905 118.959 281.035 Q118.959 288.141 120.765 291.706 Q122.593 295.248 126.205 295.248 Q129.839 295.248 131.644 291.706 Q133.473 288.141 133.473 281.035 Q133.473 273.905 131.644 270.364 Q129.839 266.799 126.205 266.799 M126.205 263.095 Q132.015 263.095 135.07 267.702 Q138.149 272.285 138.149 281.035 Q138.149 289.762 135.07 294.368 Q132.015 298.951 126.205 298.951 Q120.394 298.951 117.316 294.368 Q114.26 289.762 114.26 281.035 Q114.26 272.285 117.316 267.702 Q120.394 263.095 126.205 263.095 Z" fill="#000000" fill-rule="evenodd" fill-opacity="1" /><path clip-path="url(#clip090)" d="M146.366 292.4 L151.251 292.4 L151.251 298.28 L146.366 298.28 L146.366 292.4 Z" fill="#000000" fill-rule="evenodd" fill-opacity="1" /><path clip-path="url(#clip090)" d="M171.436 266.799 Q167.825 266.799 165.996 270.364 Q164.19 273.905 164.19 281.035 Q164.19 288.141 165.996 291.706 Q167.825 295.248 171.436 295.248 Q175.07 295.248 176.876 291.706 Q178.704 288.141 178.704 281.035 Q178.704 273.905 176.876 270.364 Q175.07 266.799 171.436 266.799 M171.436 263.095 Q177.246 263.095 180.301 267.702 Q183.38 272.285 183.38 281.035 Q183.38 289.762 180.301 294.368 Q177.246 298.951 171.436 298.951 Q165.626 298.951 162.547 294.368 Q159.491 289.762 159.491 281.035 Q159.491 272.285 162.547 267.702 Q165.626 263.095 171.436 263.095 Z" fill="#000000" fill-rule="evenodd" fill-opacity="1" /><path clip-path="url(#clip090)" d="M195.625 294.345 L211.945 294.345 L211.945 298.28 L190 298.28 L190 294.345 Q192.663 291.59 197.246 286.961 Q201.852 282.308 203.033 280.965 Q205.278 278.442 206.158 276.706 Q207.061 274.947 207.061 273.257 Q207.061 270.502 205.116 268.766 Q203.195 267.03 200.093 267.03 Q197.894 267.03 195.44 267.794 Q193.01 268.558 190.232 270.109 L190.232 265.387 Q193.056 264.252 195.51 263.674 Q197.963 263.095 200 263.095 Q205.371 263.095 208.565 265.78 Q211.76 268.465 211.76 272.956 Q211.76 275.086 210.949 277.007 Q210.162 278.905 208.056 281.498 Q207.477 282.169 204.375 285.387 Q201.274 288.581 195.625 294.345 Z" fill="#000000" fill-rule="evenodd" fill-opacity="1" /><path clip-path="url(#clip090)" d="M231.76 266.799 Q228.148 266.799 226.32 270.364 Q224.514 273.905 224.514 281.035 Q224.514 288.141 226.32 291.706 Q228.148 295.248 231.76 295.248 Q235.394 295.248 237.199 291.706 Q239.028 288.141 239.028 281.035 Q239.028 273.905 237.199 270.364 Q235.394 266.799 231.76 266.799 M231.76 263.095 Q237.57 263.095 240.625 267.702 Q243.704 272.285 243.704 281.035 Q243.704 289.762 240.625 294.368 Q237.57 298.951 231.76 298.951 Q225.949 298.951 222.871 294.368 Q219.815 289.762 219.815 281.035 Q219.815 272.285 222.871 267.702 Q225.949 263.095 231.76 263.095 Z" fill="#000000" fill-rule="evenodd" fill-opacity="1" /><path clip-path="url(#clip090)" d="M18.8696 756.909 Q19.3527 756.909 20.0613 757.264 Q20.7054 757.586 21.124 758.262 Q21.5105 758.906 21.5105 759.615 Q21.5105 759.84 21.3817 760.355 Q20.9952 761.225 20.1257 762.578 Q19.2561 763.93 18.7086 765.154 Q18.1289 766.346 18.0645 767.666 Q18.0645 768.825 18.4832 769.792 Q18.9663 770.661 19.9968 771.241 Q20.4155 771.499 21.124 771.499 Q22.1224 771.499 23.4429 770.951 Q24.7633 770.404 26.4702 769.276 Q28.1771 768.117 29.3365 767.28 Q30.4637 766.442 32.3317 764.993 Q32.4927 764.864 32.5893 764.8 Q32.6537 764.735 32.8148 764.639 Q32.9436 764.542 33.0402 764.445 Q36.8727 761.386 41.0917 760.613 Q42.5732 760.42 44.119 760.42 Q47.2108 760.42 50.8501 761.354 Q54.1673 762.159 57.0336 763.866 Q59.8677 765.573 61.7356 768.149 Q63.6036 770.693 63.6036 773.463 Q63.6036 776.201 62.412 778.455 Q61.1881 780.709 59.0948 782.062 Q56.3251 783.898 52.4926 783.898 Q50.3348 783.898 48.499 783.383 Q45.5683 782.674 42.863 780.999 Q40.1577 779.325 38.0643 776.909 Q34.9726 773.238 34.103 769.244 Q30.5604 771.112 27.8229 772.207 Q25.0532 773.27 22.7021 773.27 Q20.641 773.27 19.3205 772.497 Q17.9035 771.821 17.0983 770.436 Q16.3898 769.276 16.0355 767.602 Q15.9067 766.571 15.9067 765.895 Q15.9067 763.608 17.1627 758.294 Q17.4848 756.909 18.8696 756.909 M46.7599 764.961 Q44.7954 764.961 43.4749 765.283 Q40.2543 765.895 35.8099 768.342 L35.4879 768.536 Q36.3896 771.66 39.1271 774.204 Q42.4765 777.392 48.8211 779.003 Q52.3637 779.872 54.3605 779.872 Q56.5183 779.872 58.3862 779.067 Q60.1253 778.294 61.1237 776.845 Q62.1221 775.363 62.1221 773.399 Q62.1221 771.917 61.2848 770.629 Q60.4152 769.341 58.9015 768.407 Q57.3878 767.473 55.7453 766.829 Q54.0706 766.152 52.1061 765.637 Q49.4652 764.961 46.7599 764.961 Z" fill="#000000" fill-rule="evenodd" fill-opacity="1" /><path clip-path="url(#clip090)" d="M65.231 731.337 Q66.4258 731.337 67.1923 732.126 Q67.9588 732.893 67.9588 733.885 Q67.9588 734.741 67.4629 735.192 Q66.9669 735.643 66.3356 735.643 Q65.4339 735.643 64.6899 734.944 Q63.946 734.245 63.7882 733.231 Q63.2471 733.975 63.2471 735.17 Q63.2471 737.131 64.7576 738.867 Q65.4564 739.634 66.7414 740.468 Q68.0039 741.302 68.545 741.46 L74.5642 742.925 Q75.2406 743.06 78.4869 743.894 Q81.7107 744.706 81.846 744.774 Q82.4772 744.999 82.8154 745.495 Q83.1535 745.991 83.1535 746.487 Q83.1535 747.051 82.8154 747.434 Q82.4772 747.817 81.8911 747.817 Q81.8009 747.817 81.4627 747.749 Q81.1246 747.682 80.6512 747.569 Q80.1777 747.456 79.9072 747.411 L69.2438 744.729 Q67.305 744.233 66.6964 744.12 Q66.0651 743.985 65.3662 743.985 Q64.1489 743.985 63.698 744.368 Q63.2471 744.751 63.2471 745.427 Q63.2471 746.6 64.6448 747.366 Q66.0426 748.133 68.7479 748.786 Q69.4918 748.989 69.6496 749.125 Q69.8074 749.237 69.8074 749.575 Q69.7849 750.139 69.334 750.139 Q69.2213 750.139 68.4999 749.959 Q67.7559 749.778 66.6738 749.44 Q65.5691 749.08 64.8703 748.696 Q64.3969 748.471 64.0812 748.268 Q63.7656 748.065 63.2696 747.659 Q62.7737 747.253 62.5031 746.645 Q62.2326 746.036 62.2326 745.292 Q62.2326 743.669 63.2246 742.519 Q64.2165 741.347 65.772 741.076 Q64.9605 740.513 64.2616 739.814 Q63.5402 739.115 62.8864 737.83 Q62.2326 736.545 62.2326 735.17 Q62.2326 733.456 63.1118 732.397 Q63.9685 731.337 65.231 731.337 Z" fill="#000000" fill-rule="evenodd" fill-opacity="1" /><path clip-path="url(#clip090)" d="M77.2921 710.927 Q77.495 710.746 77.6979 710.746 Q77.9008 710.746 78.4869 711.197 Q79.0731 711.626 79.8621 712.55 Q80.6512 713.474 81.3951 714.669 Q82.1391 715.864 82.635 717.622 Q83.1535 719.381 83.1535 721.229 Q83.1535 724.543 80.7864 726.527 Q78.4193 728.489 74.7897 728.489 Q72.4676 728.489 70.4161 727.722 Q68.3421 726.956 66.8767 725.716 Q65.4113 724.453 64.3518 722.875 Q63.2696 721.274 62.7511 719.606 Q62.2326 717.938 62.2326 716.382 Q62.2326 714.105 63.3824 712.775 Q64.5321 711.445 66.1553 711.445 Q66.5385 711.445 67.012 711.558 Q67.4854 711.648 68.2294 711.964 Q68.9733 712.257 69.7173 713.023 Q70.4387 713.79 70.9121 714.917 Q71.9717 717.419 71.9717 721.973 L71.9717 724.431 Q74.8799 725.152 76.7736 725.152 Q77.5175 725.152 78.284 725.017 Q79.028 724.882 79.9748 724.521 Q80.9217 724.138 81.5304 723.281 Q82.1165 722.402 82.1165 721.139 Q82.1165 720.733 82.094 720.305 Q82.0714 719.854 81.8234 718.727 Q81.5755 717.577 81.1471 716.563 Q80.7188 715.548 79.7945 714.263 Q78.8476 712.956 77.5626 711.919 Q77.0892 711.558 77.0892 711.31 Q77.0892 711.107 77.2921 710.927 M66.1553 712.978 Q64.9154 712.978 64.0812 713.903 Q63.2471 714.804 63.2471 716.382 Q63.2471 716.878 63.3598 717.487 Q63.4725 718.096 63.946 719.11 Q64.4194 720.102 65.2084 720.981 Q65.9749 721.861 67.4854 722.74 Q68.9733 723.619 70.9572 724.138 L70.9572 722.244 Q70.9572 721.59 70.9572 721.117 Q70.9346 720.643 70.8445 719.606 Q70.7543 718.547 70.5965 717.78 Q70.4161 717.014 70.0554 716.044 Q69.6947 715.075 69.2213 714.466 Q68.7253 713.835 67.9363 713.407 Q67.1472 712.978 66.1553 712.978 Z" fill="#000000" fill-rule="evenodd" fill-opacity="1" /><path clip-path="url(#clip090)" d="M51.0958 697.312 L77.7881 703.963 Q78.8476 704.233 79.9974 704.233 Q82.1165 704.233 82.1165 702.836 Q82.1165 702.182 81.6882 701.641 Q81.2373 701.1 80.3581 700.694 Q79.4563 700.266 78.5996 699.995 Q77.743 699.702 76.4129 699.341 Q75.8943 699.229 75.7365 699.116 Q75.5787 699.003 75.5787 698.688 Q75.5787 698.124 76.0296 698.124 Q78.8025 698.688 80.561 699.522 Q83.1535 700.739 83.1535 702.994 Q83.1535 704.684 81.9813 705.947 Q80.7864 707.187 78.8927 707.187 Q78.1713 707.187 77.3146 706.961 L54.2295 701.145 L53.3277 700.987 Q53.0797 700.987 52.9444 701.077 Q52.8092 701.167 52.6739 701.709 Q52.5387 702.227 52.5387 703.264 Q52.5387 703.692 52.5161 703.895 Q52.4936 704.076 52.3808 704.256 Q52.2681 704.414 52.0201 704.414 Q51.6143 704.414 51.3889 704.256 Q51.1635 704.076 51.1184 703.94 Q51.0733 703.805 51.0507 703.535 Q51.0282 703.151 50.9155 701.866 Q50.7802 700.581 50.69 699.477 Q50.5999 698.372 50.5999 697.899 Q50.5999 697.628 50.7351 697.493 Q50.8478 697.335 50.9831 697.312 L51.0958 697.312 Z" fill="#000000" fill-rule="evenodd" fill-opacity="1" /><polyline clip-path="url(#clip093)" style="stroke:#3da44d; stroke-linecap:round; stroke-linejoin:round; stroke-width:4; stroke-opacity:1; fill:none" points="279.704,86.1857 797.967,1380.41 1316.23,1384.24 1834.49,1362.94 2352.76,1337.19 "/>
<path clip-path="url(#clip090)" d="M1609.5 196.789 L2283.65 196.789 L2283.65 93.1086 L1609.5 93.1086  Z" fill="#ffffff" fill-rule="evenodd" fill-opacity="1"/>
<polyline clip-path="url(#clip090)" style="stroke:#000000; stroke-linecap:round; stroke-linejoin:round; stroke-width:4; stroke-opacity:1; fill:none" points="1609.5,196.789 2283.65,196.789 2283.65,93.1086 1609.5,93.1086 1609.5,196.789 "/>
<polyline clip-path="url(#clip090)" style="stroke:#3da44d; stroke-linecap:round; stroke-linejoin:round; stroke-width:4; stroke-opacity:1; fill:none" points="1632.53,144.949 1770.74,144.949 "/>
<path clip-path="url(#clip090)" d="M1821.64 130.331 L1821.64 135.261 Q1819.28 133.062 1816.59 131.974 Q1813.93 130.886 1810.92 130.886 Q1805 130.886 1801.85 134.52 Q1798.7 138.132 1798.7 144.983 Q1798.7 151.812 1801.85 155.446 Q1805 159.057 1810.92 159.057 Q1813.93 159.057 1816.59 157.969 Q1819.28 156.881 1821.64 154.682 L1821.64 159.567 Q1819.19 161.233 1816.43 162.067 Q1813.7 162.9 1810.65 162.9 Q1802.8 162.9 1798.28 158.108 Q1793.77 153.293 1793.77 144.983 Q1793.77 136.65 1798.28 131.858 Q1802.8 127.044 1810.65 127.044 Q1813.75 127.044 1816.48 127.877 Q1819.23 128.687 1821.64 130.331 Z" fill="#000000" fill-rule="evenodd" fill-opacity="1" /><path clip-path="url(#clip090)" d="M1854.74 130.331 L1854.74 135.261 Q1852.38 133.062 1849.7 131.974 Q1847.03 130.886 1844.03 130.886 Q1838.1 130.886 1834.95 134.52 Q1831.8 138.132 1831.8 144.983 Q1831.8 151.812 1834.95 155.446 Q1838.1 159.057 1844.03 159.057 Q1847.03 159.057 1849.7 157.969 Q1852.38 156.881 1854.74 154.682 L1854.74 159.567 Q1852.29 161.233 1849.53 162.067 Q1846.8 162.9 1843.75 162.9 Q1835.9 162.9 1831.39 158.108 Q1826.87 153.293 1826.87 144.983 Q1826.87 136.65 1831.39 131.858 Q1835.9 127.044 1843.75 127.044 Q1846.85 127.044 1849.58 127.877 Q1852.34 128.687 1854.74 130.331 Z" fill="#000000" fill-rule="evenodd" fill-opacity="1" /><path clip-path="url(#clip090)" d="M1859.63 147.344 L1872.1 147.344 L1872.1 151.141 L1859.63 151.141 L1859.63 147.344 Z" fill="#000000" fill-rule="evenodd" fill-opacity="1" /><path clip-path="url(#clip090)" d="M1883.1 128.942 L1883.1 136.303 L1891.87 136.303 L1891.87 139.613 L1883.1 139.613 L1883.1 153.687 Q1883.1 156.858 1883.96 157.761 Q1884.84 158.664 1887.5 158.664 L1891.87 158.664 L1891.87 162.229 L1887.5 162.229 Q1882.57 162.229 1880.69 160.4 Q1878.82 158.548 1878.82 153.687 L1878.82 139.613 L1875.69 139.613 L1875.69 136.303 L1878.82 136.303 L1878.82 128.942 L1883.1 128.942 Z" fill="#000000" fill-rule="evenodd" fill-opacity="1" /><path clip-path="url(#clip090)" d="M1918.38 128.803 L1918.38 133.363 Q1915.71 132.09 1913.35 131.465 Q1910.99 130.84 1908.79 130.84 Q1904.97 130.84 1902.89 132.321 Q1900.83 133.803 1900.83 136.534 Q1900.83 138.826 1902.2 140.007 Q1903.59 141.164 1907.43 141.882 L1910.25 142.46 Q1915.48 143.456 1917.96 145.979 Q1920.46 148.479 1920.46 152.692 Q1920.46 157.715 1917.08 160.307 Q1913.72 162.9 1907.22 162.9 Q1904.77 162.9 1901.99 162.344 Q1899.23 161.789 1896.27 160.701 L1896.27 155.886 Q1899.12 157.483 1901.85 158.293 Q1904.58 159.104 1907.22 159.104 Q1911.22 159.104 1913.4 157.53 Q1915.58 155.956 1915.58 153.039 Q1915.58 150.493 1914 149.057 Q1912.45 147.622 1908.89 146.905 L1906.04 146.349 Q1900.81 145.307 1898.47 143.085 Q1896.13 140.863 1896.13 136.905 Q1896.13 132.321 1899.35 129.682 Q1902.59 127.044 1908.26 127.044 Q1910.69 127.044 1913.21 127.483 Q1915.74 127.923 1918.38 128.803 Z" fill="#000000" fill-rule="evenodd" fill-opacity="1" /><path clip-path="url(#clip090)" d="M1936.66 162.229 L1923.47 127.669 L1928.35 127.669 L1939.3 156.766 L1950.27 127.669 L1955.14 127.669 L1941.96 162.229 L1936.66 162.229 Z" fill="#000000" fill-rule="evenodd" fill-opacity="1" /><path clip-path="url(#clip090)" d="M1964.86 131.511 L1964.86 158.386 L1970.51 158.386 Q1977.66 158.386 1980.97 155.145 Q1984.3 151.905 1984.3 144.914 Q1984.3 137.969 1980.97 134.752 Q1977.66 131.511 1970.51 131.511 L1964.86 131.511 M1960.18 127.669 L1969.79 127.669 Q1979.83 127.669 1984.53 131.858 Q1989.23 136.025 1989.23 144.914 Q1989.23 153.849 1984.51 158.039 Q1979.79 162.229 1969.79 162.229 L1960.18 162.229 L1960.18 127.669 Z" fill="#000000" fill-rule="evenodd" fill-opacity="1" /><path clip-path="url(#clip090)" d="M2021.8 126.257 Q2018.7 131.581 2017.2 136.789 Q2015.69 141.997 2015.69 147.344 Q2015.69 152.692 2017.2 157.946 Q2018.72 163.178 2021.8 168.479 L2018.1 168.479 Q2014.63 163.039 2012.89 157.784 Q2011.18 152.53 2011.18 147.344 Q2011.18 142.182 2012.89 136.951 Q2014.6 131.72 2018.1 126.257 L2021.8 126.257 Z" fill="#000000" fill-rule="evenodd" fill-opacity="1" /><path clip-path="url(#clip090)" d="M2034.19 158.34 L2034.19 172.09 L2029.9 172.09 L2029.9 136.303 L2034.19 136.303 L2034.19 140.238 Q2035.53 137.923 2037.57 136.812 Q2039.63 135.678 2042.47 135.678 Q2047.2 135.678 2050.14 139.428 Q2053.1 143.178 2053.1 149.289 Q2053.1 155.4 2050.14 159.15 Q2047.2 162.9 2042.47 162.9 Q2039.63 162.9 2037.57 161.789 Q2035.53 160.655 2034.19 158.34 M2048.68 149.289 Q2048.68 144.59 2046.73 141.928 Q2044.81 139.243 2041.43 139.243 Q2038.05 139.243 2036.11 141.928 Q2034.19 144.59 2034.19 149.289 Q2034.19 153.988 2036.11 156.673 Q2038.05 159.335 2041.43 159.335 Q2044.81 159.335 2046.73 156.673 Q2048.68 153.988 2048.68 149.289 Z" fill="#000000" fill-rule="evenodd" fill-opacity="1" /><path clip-path="url(#clip090)" d="M2075.18 140.284 Q2074.46 139.868 2073.61 139.682 Q2072.77 139.474 2071.76 139.474 Q2068.14 139.474 2066.2 141.835 Q2064.28 144.173 2064.28 148.571 L2064.28 162.229 L2060 162.229 L2060 136.303 L2064.28 136.303 L2064.28 140.331 Q2065.62 137.969 2067.77 136.835 Q2069.93 135.678 2073.01 135.678 Q2073.45 135.678 2073.98 135.747 Q2074.51 135.794 2075.16 135.909 L2075.18 140.284 Z" fill="#000000" fill-rule="evenodd" fill-opacity="1" /><path clip-path="url(#clip090)" d="M2088.65 139.289 Q2085.23 139.289 2083.24 141.974 Q2081.25 144.636 2081.25 149.289 Q2081.25 153.942 2083.21 156.627 Q2085.2 159.289 2088.65 159.289 Q2092.06 159.289 2094.05 156.604 Q2096.04 153.918 2096.04 149.289 Q2096.04 144.682 2094.05 141.997 Q2092.06 139.289 2088.65 139.289 M2088.65 135.678 Q2094.21 135.678 2097.38 139.289 Q2100.55 142.9 2100.55 149.289 Q2100.55 155.655 2097.38 159.289 Q2094.21 162.9 2088.65 162.9 Q2083.07 162.9 2079.9 159.289 Q2076.76 155.655 2076.76 149.289 Q2076.76 142.9 2079.9 139.289 Q2083.07 135.678 2088.65 135.678 Z" fill="#000000" fill-rule="evenodd" fill-opacity="1" /><path clip-path="url(#clip090)" d="M2111.73 158.34 L2111.73 172.09 L2107.45 172.09 L2107.45 136.303 L2111.73 136.303 L2111.73 140.238 Q2113.07 137.923 2115.11 136.812 Q2117.17 135.678 2120.02 135.678 Q2124.74 135.678 2127.68 139.428 Q2130.64 143.178 2130.64 149.289 Q2130.64 155.4 2127.68 159.15 Q2124.74 162.9 2120.02 162.9 Q2117.17 162.9 2115.11 161.789 Q2113.07 160.655 2111.73 158.34 M2126.22 149.289 Q2126.22 144.59 2124.28 141.928 Q2122.36 139.243 2118.98 139.243 Q2115.6 139.243 2113.65 141.928 Q2111.73 144.59 2111.73 149.289 Q2111.73 153.988 2113.65 156.673 Q2115.6 159.335 2118.98 159.335 Q2122.36 159.335 2124.28 156.673 Q2126.22 153.988 2126.22 149.289 Z" fill="#000000" fill-rule="evenodd" fill-opacity="1" /><path clip-path="url(#clip090)" d="M2147.75 139.289 Q2144.32 139.289 2142.33 141.974 Q2140.34 144.636 2140.34 149.289 Q2140.34 153.942 2142.31 156.627 Q2144.3 159.289 2147.75 159.289 Q2151.15 159.289 2153.14 156.604 Q2155.13 153.918 2155.13 149.289 Q2155.13 144.682 2153.14 141.997 Q2151.15 139.289 2147.75 139.289 M2147.75 135.678 Q2153.31 135.678 2156.48 139.289 Q2159.65 142.9 2159.65 149.289 Q2159.65 155.655 2156.48 159.289 Q2153.31 162.9 2147.75 162.9 Q2142.17 162.9 2139 159.289 Q2135.85 155.655 2135.85 149.289 Q2135.85 142.9 2139 139.289 Q2142.17 135.678 2147.75 135.678 Z" fill="#000000" fill-rule="evenodd" fill-opacity="1" /><path clip-path="url(#clip090)" d="M2183.24 137.067 L2183.24 141.094 Q2181.43 140.169 2179.49 139.706 Q2177.54 139.243 2175.46 139.243 Q2172.29 139.243 2170.69 140.215 Q2169.12 141.187 2169.12 143.131 Q2169.12 144.613 2170.25 145.469 Q2171.38 146.303 2174.81 147.067 L2176.27 147.391 Q2180.81 148.363 2182.7 150.145 Q2184.63 151.905 2184.63 155.076 Q2184.63 158.687 2181.75 160.793 Q2178.91 162.9 2173.91 162.9 Q2171.82 162.9 2169.56 162.483 Q2167.31 162.09 2164.81 161.28 L2164.81 156.881 Q2167.17 158.108 2169.46 158.733 Q2171.75 159.335 2174 159.335 Q2177.01 159.335 2178.63 158.317 Q2180.25 157.275 2180.25 155.4 Q2180.25 153.664 2179.07 152.738 Q2177.91 151.812 2173.95 150.956 L2172.47 150.608 Q2168.51 149.775 2166.76 148.062 Q2165 146.326 2165 143.317 Q2165 139.659 2167.59 137.669 Q2170.18 135.678 2174.95 135.678 Q2177.31 135.678 2179.39 136.025 Q2181.48 136.372 2183.24 137.067 Z" fill="#000000" fill-rule="evenodd" fill-opacity="1" /><path clip-path="url(#clip090)" d="M2213.58 148.201 L2213.58 150.284 L2194 150.284 Q2194.28 154.682 2196.64 156.997 Q2199.02 159.289 2203.26 159.289 Q2205.71 159.289 2208 158.687 Q2210.32 158.085 2212.59 156.881 L2212.59 160.909 Q2210.3 161.881 2207.89 162.391 Q2205.48 162.9 2203 162.9 Q2196.8 162.9 2193.17 159.289 Q2189.56 155.678 2189.56 149.52 Q2189.56 143.155 2192.98 139.428 Q2196.43 135.678 2202.26 135.678 Q2207.5 135.678 2210.53 139.057 Q2213.58 142.414 2213.58 148.201 M2209.32 146.951 Q2209.28 143.456 2207.36 141.372 Q2205.46 139.289 2202.31 139.289 Q2198.75 139.289 2196.59 141.303 Q2194.46 143.317 2194.14 146.974 L2209.32 146.951 Z" fill="#000000" fill-rule="evenodd" fill-opacity="1" /><path clip-path="url(#clip090)" d="M2237.63 140.238 L2237.63 126.21 L2241.89 126.21 L2241.89 162.229 L2237.63 162.229 L2237.63 158.34 Q2236.29 160.655 2234.23 161.789 Q2232.19 162.9 2229.32 162.9 Q2224.63 162.9 2221.66 159.15 Q2218.72 155.4 2218.72 149.289 Q2218.72 143.178 2221.66 139.428 Q2224.63 135.678 2229.32 135.678 Q2232.19 135.678 2234.23 136.812 Q2236.29 137.923 2237.63 140.238 M2223.12 149.289 Q2223.12 153.988 2225.04 156.673 Q2226.99 159.335 2230.37 159.335 Q2233.75 159.335 2235.69 156.673 Q2237.63 153.988 2237.63 149.289 Q2237.63 144.59 2235.69 141.928 Q2233.75 139.243 2230.37 139.243 Q2226.99 139.243 2225.04 141.928 Q2223.12 144.59 2223.12 149.289 Z" fill="#000000" fill-rule="evenodd" fill-opacity="1" /><path clip-path="url(#clip090)" d="M2250 126.257 L2253.7 126.257 Q2257.17 131.72 2258.88 136.951 Q2260.62 142.182 2260.62 147.344 Q2260.62 152.53 2258.88 157.784 Q2257.17 163.039 2253.7 168.479 L2250 168.479 Q2253.07 163.178 2254.58 157.946 Q2256.11 152.692 2256.11 147.344 Q2256.11 141.997 2254.58 136.789 Q2253.07 131.581 2250 126.257 Z" fill="#000000" fill-rule="evenodd" fill-opacity="1" /></svg>
