<?xml version="1.0" encoding="utf-8"?>
<svg xmlns="http://www.w3.org/2000/svg" xmlns:xlink="http://www.w3.org/1999/xlink" width="600" height="400" viewBox="0 0 2400 1600">
<defs>
  <clipPath id="clip560">
    <rect x="0" y="0" width="2400" height="1600"/>
  </clipPath>
</defs>
<path clip-path="url(#clip560)" d="M0 1600 L2400 1600 L2400 0 L0 0  Z" fill="#ffffff" fill-rule="evenodd" fill-opacity="1"/>
<defs>
  <clipPath id="clip561">
    <rect x="480" y="0" width="1681" height="1600"/>
  </clipPath>
</defs>
<defs>
  <clipPath id="clip562">
    <rect x="276" y="47" width="2077" height="1377"/>
  </clipPath>
</defs>
<path clip-path="url(#clip560)" d="M219.866 1423.18 L2352.76 1423.18 L2352.76 47.2441 L219.866 47.2441  Z" fill="#ffffff" fill-rule="evenodd" fill-opacity="1"/>
<defs>
  <clipPath id="clip563">
    <rect x="219" y="47" width="2134" height="1377"/>
  </clipPath>
</defs>
<polyline clip-path="url(#clip563)" style="stroke:#000000; stroke-linecap:round; stroke-linejoin:round; stroke-width:2; stroke-opacity:0.1; fill:none" points="219.866,1423.18 219.866,47.2441 "/>
<polyline clip-path="url(#clip563)" style="stroke:#000000; stroke-linecap:round; stroke-linejoin:round; stroke-width:2; stroke-opacity:0.1; fill:none" points="646.444,1423.18 646.444,47.2441 "/>
<polyline clip-path="url(#clip563)" style="stroke:#000000; stroke-linecap:round; stroke-linejoin:round; stroke-width:2; stroke-opacity:0.1; fill:none" points="1073.02,1423.18 1073.02,47.2441 "/>
<polyline clip-path="url(#clip563)" style="stroke:#000000; stroke-linecap:round; stroke-linejoin:round; stroke-width:2; stroke-opacity:0.1; fill:none" points="1499.6,1423.18 1499.6,47.2441 "/>
<polyline clip-path="url(#clip563)" style="stroke:#000000; stroke-linecap:round; stroke-linejoin:round; stroke-width:2; stroke-opacity:0.1; fill:none" points="1926.18,1423.18 1926.18,47.2441 "/>
<polyline clip-path="url(#clip563)" style="stroke:#000000; stroke-linecap:round; stroke-linejoin:round; stroke-width:2; stroke-opacity:0.1; fill:none" points="2352.76,1423.18 2352.76,47.2441 "/>
<polyline clip-path="url(#clip560)" style="stroke:#000000; stroke-linecap:round; stroke-linejoin:round; stroke-width:4; stroke-opacity:1; fill:none" points="219.866,1423.18 2352.76,1423.18 "/>
<polyline clip-path="url(#clip560)" style="stroke:#000000; stroke-linecap:round; stroke-linejoin:round; stroke-width:4; stroke-opacity:1; fill:none" points="219.866,1423.18 219.866,1404.28 "/>
<polyline clip-path="url(#clip560)" style="stroke:#000000; stroke-linecap:round; stroke-linejoin:round; stroke-width:4; stroke-opacity:1; fill:none" points="646.444,1423.18 646.444,1404.28 "/>
<polyline clip-path="url(#clip560)" style="stroke:#000000; stroke-linecap:round; stroke-linejoin:round; stroke-width:4; stroke-opacity:1; fill:none" points="1073.02,1423.18 1073.02,1404.28 "/>
<polyline clip-path="url(#clip560)" style="stroke:#000000; stroke-linecap:round; stroke-linejoin:round; stroke-width:4; stroke-opacity:1; fill:none" points="1499.6,1423.18 1499.6,1404.28 "/>
<polyline clip-path="url(#clip560)" style="stroke:#000000; stroke-linecap:round; stroke-linejoin:round; stroke-width:4; stroke-opacity:1; fill:none" points="1926.18,1423.18 1926.18,1404.28 "/>
<polyline clip-path="url(#clip560)" style="stroke:#000000; stroke-linecap:round; stroke-linejoin:round; stroke-width:4; stroke-opacity:1; fill:none" points="2352.76,1423.18 2352.76,1404.28 "/>
<path clip-path="url(#clip560)" d="M210.248 1481.64 L217.887 1481.64 L217.887 1455.28 L209.577 1456.95 L209.577 1452.69 L217.841 1451.02 L222.517 1451.02 L222.517 1481.64 L230.156 1481.64 L230.156 1485.58 L210.248 1485.58 L210.248 1481.64 Z" fill="#000000" fill-rule="evenodd" fill-opacity="1" /><path clip-path="url(#clip560)" d="M641.097 1481.64 L657.416 1481.64 L657.416 1485.58 L635.472 1485.58 L635.472 1481.64 Q638.134 1478.89 642.717 1474.26 Q647.324 1469.61 648.504 1468.27 Q650.75 1465.74 651.629 1464.01 Q652.532 1462.25 652.532 1460.56 Q652.532 1457.8 650.588 1456.07 Q648.666 1454.33 645.565 1454.33 Q643.366 1454.33 640.912 1455.09 Q638.481 1455.86 635.704 1457.41 L635.704 1452.69 Q638.528 1451.55 640.981 1450.97 Q643.435 1450.39 645.472 1450.39 Q650.842 1450.39 654.037 1453.08 Q657.231 1455.77 657.231 1460.26 Q657.231 1462.39 656.421 1464.31 Q655.634 1466.2 653.527 1468.8 Q652.949 1469.47 649.847 1472.69 Q646.745 1475.88 641.097 1481.64 Z" fill="#000000" fill-rule="evenodd" fill-opacity="1" /><path clip-path="url(#clip560)" d="M1077.27 1466.95 Q1080.63 1467.66 1082.5 1469.93 Q1084.4 1472.2 1084.4 1475.53 Q1084.4 1480.65 1080.88 1483.45 Q1077.36 1486.25 1070.88 1486.25 Q1068.71 1486.25 1066.39 1485.81 Q1064.1 1485.39 1061.64 1484.54 L1061.64 1480.02 Q1063.59 1481.16 1065.9 1481.74 Q1068.22 1482.32 1070.74 1482.32 Q1075.14 1482.32 1077.43 1480.58 Q1079.75 1478.84 1079.75 1475.53 Q1079.75 1472.48 1077.59 1470.77 Q1075.46 1469.03 1071.64 1469.03 L1067.62 1469.03 L1067.62 1465.19 L1071.83 1465.19 Q1075.28 1465.19 1077.11 1463.82 Q1078.94 1462.43 1078.94 1459.84 Q1078.94 1457.18 1077.04 1455.77 Q1075.16 1454.33 1071.64 1454.33 Q1069.72 1454.33 1067.52 1454.75 Q1065.33 1455.16 1062.69 1456.04 L1062.69 1451.88 Q1065.35 1451.14 1067.66 1450.77 Q1070 1450.39 1072.06 1450.39 Q1077.39 1450.39 1080.49 1452.83 Q1083.59 1455.23 1083.59 1459.35 Q1083.59 1462.22 1081.95 1464.21 Q1080.3 1466.18 1077.27 1466.95 Z" fill="#000000" fill-rule="evenodd" fill-opacity="1" /><path clip-path="url(#clip560)" d="M1502.61 1455.09 L1490.8 1473.54 L1502.61 1473.54 L1502.61 1455.09 M1501.38 1451.02 L1507.26 1451.02 L1507.26 1473.54 L1512.19 1473.54 L1512.19 1477.43 L1507.26 1477.43 L1507.26 1485.58 L1502.61 1485.58 L1502.61 1477.43 L1487.01 1477.43 L1487.01 1472.92 L1501.38 1451.02 Z" fill="#000000" fill-rule="evenodd" fill-opacity="1" /><path clip-path="url(#clip560)" d="M1916.46 1451.02 L1934.81 1451.02 L1934.81 1454.96 L1920.74 1454.96 L1920.74 1463.43 Q1921.76 1463.08 1922.78 1462.92 Q1923.79 1462.73 1924.81 1462.73 Q1930.6 1462.73 1933.98 1465.9 Q1937.36 1469.08 1937.36 1474.49 Q1937.36 1480.07 1933.89 1483.17 Q1930.41 1486.25 1924.09 1486.25 Q1921.92 1486.25 1919.65 1485.88 Q1917.4 1485.51 1915 1484.77 L1915 1480.07 Q1917.08 1481.2 1919.3 1481.76 Q1921.53 1482.32 1924 1482.32 Q1928.01 1482.32 1930.34 1480.21 Q1932.68 1478.1 1932.68 1474.49 Q1932.68 1470.88 1930.34 1468.77 Q1928.01 1466.67 1924 1466.67 Q1922.13 1466.67 1920.25 1467.08 Q1918.4 1467.5 1916.46 1468.38 L1916.46 1451.02 Z" fill="#000000" fill-rule="evenodd" fill-opacity="1" /><path clip-path="url(#clip560)" d="M2353.16 1466.44 Q2350.01 1466.44 2348.16 1468.59 Q2346.33 1470.74 2346.33 1474.49 Q2346.33 1478.22 2348.16 1480.39 Q2350.01 1482.55 2353.16 1482.55 Q2356.31 1482.55 2358.14 1480.39 Q2359.99 1478.22 2359.99 1474.49 Q2359.99 1470.74 2358.14 1468.59 Q2356.31 1466.44 2353.16 1466.44 M2362.44 1451.78 L2362.44 1456.04 Q2360.68 1455.21 2358.88 1454.77 Q2357.1 1454.33 2355.34 1454.33 Q2350.71 1454.33 2348.25 1457.45 Q2345.82 1460.58 2345.48 1466.9 Q2346.84 1464.89 2348.9 1463.82 Q2350.96 1462.73 2353.44 1462.73 Q2358.65 1462.73 2361.66 1465.9 Q2364.69 1469.05 2364.69 1474.49 Q2364.69 1479.82 2361.54 1483.03 Q2358.39 1486.25 2353.16 1486.25 Q2347.17 1486.25 2343.99 1481.67 Q2340.82 1477.06 2340.82 1468.33 Q2340.82 1460.14 2344.71 1455.28 Q2348.6 1450.39 2355.15 1450.39 Q2356.91 1450.39 2358.69 1450.74 Q2360.5 1451.09 2362.44 1451.78 Z" fill="#000000" fill-rule="evenodd" fill-opacity="1" /><path clip-path="url(#clip560)" d="M988.062 1550.12 Q980.964 1550.12 978.227 1551.75 Q975.49 1553.37 975.49 1557.29 Q975.49 1560.4 977.527 1562.25 Q979.595 1564.07 983.128 1564.07 Q987.998 1564.07 990.926 1560.63 Q993.886 1557.16 993.886 1551.43 L993.886 1550.12 L988.062 1550.12 M999.743 1547.71 L999.743 1568.04 L993.886 1568.04 L993.886 1562.63 Q991.881 1565.88 988.889 1567.44 Q985.897 1568.97 981.569 1568.97 Q976.094 1568.97 972.848 1565.91 Q969.633 1562.82 969.633 1557.67 Q969.633 1551.65 973.643 1548.6 Q977.686 1545.54 985.675 1545.54 L993.886 1545.54 L993.886 1544.97 Q993.886 1540.93 991.213 1538.73 Q988.571 1536.5 983.765 1536.5 Q980.709 1536.5 977.813 1537.23 Q974.917 1537.97 972.243 1539.43 L972.243 1534.02 Q975.458 1532.78 978.481 1532.17 Q981.505 1531.54 984.37 1531.54 Q992.104 1531.54 995.923 1535.55 Q999.743 1539.56 999.743 1547.71 Z" fill="#000000" fill-rule="evenodd" fill-opacity="1" /><path clip-path="url(#clip560)" d="M1017.47 1562.7 L1017.47 1581.6 L1011.58 1581.6 L1011.58 1532.4 L1017.47 1532.4 L1017.47 1537.81 Q1019.32 1534.62 1022.12 1533.1 Q1024.95 1531.54 1028.87 1531.54 Q1035.36 1531.54 1039.4 1536.69 Q1043.48 1541.85 1043.48 1550.25 Q1043.48 1558.65 1039.4 1563.81 Q1035.36 1568.97 1028.87 1568.97 Q1024.95 1568.97 1022.12 1567.44 Q1019.32 1565.88 1017.47 1562.7 M1037.4 1550.25 Q1037.4 1543.79 1034.72 1540.13 Q1032.08 1536.44 1027.43 1536.44 Q1022.79 1536.44 1020.11 1540.13 Q1017.47 1543.79 1017.47 1550.25 Q1017.47 1556.71 1020.11 1560.4 Q1022.79 1564.07 1027.43 1564.07 Q1032.08 1564.07 1034.72 1560.4 Q1037.4 1556.71 1037.4 1550.25 Z" fill="#000000" fill-rule="evenodd" fill-opacity="1" /><path clip-path="url(#clip560)" d="M1058.85 1562.7 L1058.85 1581.6 L1052.96 1581.6 L1052.96 1532.4 L1058.85 1532.4 L1058.85 1537.81 Q1060.69 1534.62 1063.5 1533.1 Q1066.33 1531.54 1070.24 1531.54 Q1076.74 1531.54 1080.78 1536.69 Q1084.85 1541.85 1084.85 1550.25 Q1084.85 1558.65 1080.78 1563.81 Q1076.74 1568.97 1070.24 1568.97 Q1066.33 1568.97 1063.5 1567.44 Q1060.69 1565.88 1058.85 1562.7 M1078.77 1550.25 Q1078.77 1543.79 1076.1 1540.13 Q1073.46 1536.44 1068.81 1536.44 Q1064.16 1536.44 1061.49 1540.13 Q1058.85 1543.79 1058.85 1550.25 Q1058.85 1556.71 1061.49 1560.4 Q1064.16 1564.07 1068.81 1564.07 Q1073.46 1564.07 1076.1 1560.4 Q1078.77 1556.71 1078.77 1550.25 Z" fill="#000000" fill-rule="evenodd" fill-opacity="1" /><path clip-path="url(#clip560)" d="M1115.22 1537.87 Q1114.23 1537.3 1113.05 1537.04 Q1111.91 1536.76 1110.51 1536.76 Q1105.54 1536.76 1102.87 1540 Q1100.23 1543.22 1100.23 1549.27 L1100.23 1568.04 L1094.34 1568.04 L1094.34 1532.4 L1100.23 1532.4 L1100.23 1537.93 Q1102.07 1534.69 1105.03 1533.13 Q1107.99 1531.54 1112.22 1531.54 Q1112.83 1531.54 1113.56 1531.63 Q1114.29 1531.7 1115.18 1531.85 L1115.22 1537.87 Z" fill="#000000" fill-rule="evenodd" fill-opacity="1" /><path clip-path="url(#clip560)" d="M1133.74 1536.5 Q1129.03 1536.5 1126.29 1540.19 Q1123.56 1543.85 1123.56 1550.25 Q1123.56 1556.65 1126.26 1560.34 Q1129 1564 1133.74 1564 Q1138.42 1564 1141.16 1560.31 Q1143.89 1556.62 1143.89 1550.25 Q1143.89 1543.92 1141.16 1540.23 Q1138.42 1536.5 1133.74 1536.5 M1133.74 1531.54 Q1141.38 1531.54 1145.74 1536.5 Q1150.1 1541.47 1150.1 1550.25 Q1150.1 1559 1145.74 1564 Q1141.38 1568.97 1133.74 1568.97 Q1126.07 1568.97 1121.71 1564 Q1117.38 1559 1117.38 1550.25 Q1117.38 1541.47 1121.71 1536.5 Q1126.07 1531.54 1133.74 1531.54 Z" fill="#000000" fill-rule="evenodd" fill-opacity="1" /><path clip-path="url(#clip560)" d="M1187.44 1532.4 L1174.55 1549.74 L1188.1 1568.04 L1181.2 1568.04 L1170.82 1554.04 L1160.45 1568.04 L1153.54 1568.04 L1167.38 1549.39 L1154.72 1532.4 L1161.62 1532.4 L1171.08 1545.1 L1180.53 1532.4 L1187.44 1532.4 Z" fill="#000000" fill-rule="evenodd" fill-opacity="1" /><path clip-path="url(#clip560)" d="M1196.38 1532.4 L1202.24 1532.4 L1202.24 1568.04 L1196.38 1568.04 L1196.38 1532.4 M1196.38 1518.52 L1202.24 1518.52 L1202.24 1525.93 L1196.38 1525.93 L1196.38 1518.52 Z" fill="#000000" fill-rule="evenodd" fill-opacity="1" /><path clip-path="url(#clip560)" d="M1242.24 1539.24 Q1244.44 1535.29 1247.5 1533.41 Q1250.55 1531.54 1254.69 1531.54 Q1260.26 1531.54 1263.28 1535.45 Q1266.31 1539.33 1266.31 1546.53 L1266.31 1568.04 L1260.42 1568.04 L1260.42 1546.72 Q1260.42 1541.59 1258.6 1539.11 Q1256.79 1536.63 1253.07 1536.63 Q1248.51 1536.63 1245.87 1539.65 Q1243.23 1542.68 1243.23 1547.9 L1243.23 1568.04 L1237.34 1568.04 L1237.34 1546.72 Q1237.34 1541.56 1235.53 1539.11 Q1233.71 1536.63 1229.93 1536.63 Q1225.44 1536.63 1222.8 1539.68 Q1220.16 1542.71 1220.16 1547.9 L1220.16 1568.04 L1214.27 1568.04 L1214.27 1532.4 L1220.16 1532.4 L1220.16 1537.93 Q1222.16 1534.66 1224.96 1533.1 Q1227.76 1531.54 1231.61 1531.54 Q1235.5 1531.54 1238.2 1533.51 Q1240.94 1535.48 1242.24 1539.24 Z" fill="#000000" fill-rule="evenodd" fill-opacity="1" /><path clip-path="url(#clip560)" d="M1294.19 1550.12 Q1287.09 1550.12 1284.35 1551.75 Q1281.62 1553.37 1281.62 1557.29 Q1281.62 1560.4 1283.65 1562.25 Q1285.72 1564.07 1289.26 1564.07 Q1294.12 1564.07 1297.05 1560.63 Q1300.01 1557.16 1300.01 1551.43 L1300.01 1550.12 L1294.19 1550.12 M1305.87 1547.71 L1305.87 1568.04 L1300.01 1568.04 L1300.01 1562.63 Q1298.01 1565.88 1295.02 1567.44 Q1292.02 1568.97 1287.7 1568.97 Q1282.22 1568.97 1278.97 1565.91 Q1275.76 1562.82 1275.76 1557.67 Q1275.76 1551.65 1279.77 1548.6 Q1283.81 1545.54 1291.8 1545.54 L1300.01 1545.54 L1300.01 1544.97 Q1300.01 1540.93 1297.34 1538.73 Q1294.7 1536.5 1289.89 1536.5 Q1286.84 1536.5 1283.94 1537.23 Q1281.04 1537.97 1278.37 1539.43 L1278.37 1534.02 Q1281.58 1532.78 1284.61 1532.17 Q1287.63 1531.54 1290.5 1531.54 Q1298.23 1531.54 1302.05 1535.55 Q1305.87 1539.56 1305.87 1547.71 Z" fill="#000000" fill-rule="evenodd" fill-opacity="1" /><path clip-path="url(#clip560)" d="M1323.73 1522.27 L1323.73 1532.4 L1335.79 1532.4 L1335.79 1536.95 L1323.73 1536.95 L1323.73 1556.3 Q1323.73 1560.66 1324.9 1561.9 Q1326.11 1563.14 1329.77 1563.14 L1335.79 1563.14 L1335.79 1568.04 L1329.77 1568.04 Q1322.99 1568.04 1320.42 1565.53 Q1317.84 1562.98 1317.84 1556.3 L1317.84 1536.95 L1313.54 1536.95 L1313.54 1532.4 L1317.84 1532.4 L1317.84 1522.27 L1323.73 1522.27 Z" fill="#000000" fill-rule="evenodd" fill-opacity="1" /><path clip-path="url(#clip560)" d="M1343.49 1532.4 L1349.35 1532.4 L1349.35 1568.04 L1343.49 1568.04 L1343.49 1532.4 M1343.49 1518.52 L1349.35 1518.52 L1349.35 1525.93 L1343.49 1525.93 L1343.49 1518.52 Z" fill="#000000" fill-rule="evenodd" fill-opacity="1" /><path clip-path="url(#clip560)" d="M1375.42 1536.5 Q1370.7 1536.5 1367.97 1540.19 Q1365.23 1543.85 1365.23 1550.25 Q1365.23 1556.65 1367.94 1560.34 Q1370.67 1564 1375.42 1564 Q1380.09 1564 1382.83 1560.31 Q1385.57 1556.62 1385.57 1550.25 Q1385.57 1543.92 1382.83 1540.23 Q1380.09 1536.5 1375.42 1536.5 M1375.42 1531.54 Q1383.05 1531.54 1387.41 1536.5 Q1391.77 1541.47 1391.77 1550.25 Q1391.77 1559 1387.41 1564 Q1383.05 1568.97 1375.42 1568.97 Q1367.74 1568.97 1363.38 1564 Q1359.06 1559 1359.06 1550.25 Q1359.06 1541.47 1363.38 1536.5 Q1367.74 1531.54 1375.42 1531.54 Z" fill="#000000" fill-rule="evenodd" fill-opacity="1" /><path clip-path="url(#clip560)" d="M1431.11 1546.53 L1431.11 1568.04 L1425.26 1568.04 L1425.26 1546.72 Q1425.26 1541.66 1423.29 1539.14 Q1421.31 1536.63 1417.37 1536.63 Q1412.62 1536.63 1409.89 1539.65 Q1407.15 1542.68 1407.15 1547.9 L1407.15 1568.04 L1401.26 1568.04 L1401.26 1532.4 L1407.15 1532.4 L1407.15 1537.93 Q1409.25 1534.72 1412.08 1533.13 Q1414.95 1531.54 1418.67 1531.54 Q1424.81 1531.54 1427.96 1535.36 Q1431.11 1539.14 1431.11 1546.53 Z" fill="#000000" fill-rule="evenodd" fill-opacity="1" /><path clip-path="url(#clip560)" d="M1484.17 1537.87 Q1483.19 1537.3 1482.01 1537.04 Q1480.86 1536.76 1479.46 1536.76 Q1474.5 1536.76 1471.82 1540 Q1469.18 1543.22 1469.18 1549.27 L1469.18 1568.04 L1463.29 1568.04 L1463.29 1532.4 L1469.18 1532.4 L1469.18 1537.93 Q1471.03 1534.69 1473.99 1533.13 Q1476.95 1531.54 1481.18 1531.54 Q1481.79 1531.54 1482.52 1531.63 Q1483.25 1531.7 1484.14 1531.85 L1484.17 1537.87 Z" fill="#000000" fill-rule="evenodd" fill-opacity="1" /><path clip-path="url(#clip560)" d="M1506.52 1550.12 Q1499.42 1550.12 1496.68 1551.75 Q1493.94 1553.37 1493.94 1557.29 Q1493.94 1560.4 1495.98 1562.25 Q1498.05 1564.07 1501.58 1564.07 Q1506.45 1564.07 1509.38 1560.63 Q1512.34 1557.16 1512.34 1551.43 L1512.34 1550.12 L1506.52 1550.12 M1518.2 1547.71 L1518.2 1568.04 L1512.34 1568.04 L1512.34 1562.63 Q1510.34 1565.88 1507.34 1567.44 Q1504.35 1568.97 1500.02 1568.97 Q1494.55 1568.97 1491.3 1565.91 Q1488.09 1562.82 1488.09 1557.67 Q1488.09 1551.65 1492.1 1548.6 Q1496.14 1545.54 1504.13 1545.54 L1512.34 1545.54 L1512.34 1544.97 Q1512.34 1540.93 1509.67 1538.73 Q1507.03 1536.5 1502.22 1536.5 Q1499.16 1536.5 1496.27 1537.23 Q1493.37 1537.97 1490.7 1539.43 L1490.7 1534.02 Q1493.91 1532.78 1496.94 1532.17 Q1499.96 1531.54 1502.82 1531.54 Q1510.56 1531.54 1514.38 1535.55 Q1518.2 1539.56 1518.2 1547.71 Z" fill="#000000" fill-rule="evenodd" fill-opacity="1" /><path clip-path="url(#clip560)" d="M1559.89 1546.53 L1559.89 1568.04 L1554.04 1568.04 L1554.04 1546.72 Q1554.04 1541.66 1552.06 1539.14 Q1550.09 1536.63 1546.14 1536.63 Q1541.4 1536.63 1538.66 1539.65 Q1535.93 1542.68 1535.93 1547.9 L1535.93 1568.04 L1530.04 1568.04 L1530.04 1532.4 L1535.93 1532.4 L1535.93 1537.93 Q1538.03 1534.72 1540.86 1533.13 Q1543.72 1531.54 1547.45 1531.54 Q1553.59 1531.54 1556.74 1535.36 Q1559.89 1539.14 1559.89 1546.53 Z" fill="#000000" fill-rule="evenodd" fill-opacity="1" /><path clip-path="url(#clip560)" d="M1571.35 1518.52 L1577.24 1518.52 L1577.24 1547.77 L1594.71 1532.4 L1602.19 1532.4 L1583.29 1549.07 L1602.99 1568.04 L1595.35 1568.04 L1577.24 1550.63 L1577.24 1568.04 L1571.35 1568.04 L1571.35 1518.52 Z" fill="#000000" fill-rule="evenodd" fill-opacity="1" /><polyline clip-path="url(#clip563)" style="stroke:#000000; stroke-linecap:round; stroke-linejoin:round; stroke-width:2; stroke-opacity:0.1; fill:none" points="219.866,1423.18 2352.76,1423.18 "/>
<polyline clip-path="url(#clip563)" style="stroke:#000000; stroke-linecap:round; stroke-linejoin:round; stroke-width:2; stroke-opacity:0.1; fill:none" points="219.866,1147.99 2352.76,1147.99 "/>
<polyline clip-path="url(#clip563)" style="stroke:#000000; stroke-linecap:round; stroke-linejoin:round; stroke-width:2; stroke-opacity:0.1; fill:none" points="219.866,872.806 2352.76,872.806 "/>
<polyline clip-path="url(#clip563)" style="stroke:#000000; stroke-linecap:round; stroke-linejoin:round; stroke-width:2; stroke-opacity:0.1; fill:none" points="219.866,597.618 2352.76,597.618 "/>
<polyline clip-path="url(#clip563)" style="stroke:#000000; stroke-linecap:round; stroke-linejoin:round; stroke-width:2; stroke-opacity:0.1; fill:none" points="219.866,322.431 2352.76,322.431 "/>
<polyline clip-path="url(#clip563)" style="stroke:#000000; stroke-linecap:round; stroke-linejoin:round; stroke-width:2; stroke-opacity:0.1; fill:none" points="219.866,47.2441 2352.76,47.2441 "/>
<polyline clip-path="url(#clip560)" style="stroke:#000000; stroke-linecap:round; stroke-linejoin:round; stroke-width:4; stroke-opacity:1; fill:none" points="219.866,1423.18 219.866,47.2441 "/>
<polyline clip-path="url(#clip560)" style="stroke:#000000; stroke-linecap:round; stroke-linejoin:round; stroke-width:4; stroke-opacity:1; fill:none" points="219.866,1423.18 238.764,1423.18 "/>
<polyline clip-path="url(#clip560)" style="stroke:#000000; stroke-linecap:round; stroke-linejoin:round; stroke-width:4; stroke-opacity:1; fill:none" points="219.866,1147.99 238.764,1147.99 "/>
<polyline clip-path="url(#clip560)" style="stroke:#000000; stroke-linecap:round; stroke-linejoin:round; stroke-width:4; stroke-opacity:1; fill:none" points="219.866,872.806 238.764,872.806 "/>
<polyline clip-path="url(#clip560)" style="stroke:#000000; stroke-linecap:round; stroke-linejoin:round; stroke-width:4; stroke-opacity:1; fill:none" points="219.866,597.618 238.764,597.618 "/>
<polyline clip-path="url(#clip560)" style="stroke:#000000; stroke-linecap:round; stroke-linejoin:round; stroke-width:4; stroke-opacity:1; fill:none" points="219.866,322.431 238.764,322.431 "/>
<polyline clip-path="url(#clip560)" style="stroke:#000000; stroke-linecap:round; stroke-linejoin:round; stroke-width:4; stroke-opacity:1; fill:none" points="219.866,47.2441 238.764,47.2441 "/>
<path clip-path="url(#clip560)" d="M126.691 1408.98 Q123.08 1408.98 121.251 1412.54 Q119.445 1416.08 119.445 1423.21 Q119.445 1430.32 121.251 1433.89 Q123.08 1437.43 126.691 1437.43 Q130.325 1437.43 132.13 1433.89 Q133.959 1430.32 133.959 1423.21 Q133.959 1416.08 132.13 1412.54 Q130.325 1408.98 126.691 1408.98 M126.691 1405.27 Q132.501 1405.27 135.556 1409.88 Q138.635 1414.46 138.635 1423.21 Q138.635 1431.94 135.556 1436.55 Q132.501 1441.13 126.691 1441.13 Q120.88 1441.13 117.802 1436.55 Q114.746 1431.94 114.746 1423.21 Q114.746 1414.46 117.802 1409.88 Q120.88 1405.27 126.691 1405.27 Z" fill="#000000" fill-rule="evenodd" fill-opacity="1" /><path clip-path="url(#clip560)" d="M146.853 1434.58 L151.737 1434.58 L151.737 1440.46 L146.853 1440.46 L146.853 1434.58 Z" fill="#000000" fill-rule="evenodd" fill-opacity="1" /><path clip-path="url(#clip560)" d="M171.922 1408.98 Q168.311 1408.98 166.482 1412.54 Q164.677 1416.08 164.677 1423.21 Q164.677 1430.32 166.482 1433.89 Q168.311 1437.43 171.922 1437.43 Q175.556 1437.43 177.362 1433.89 Q179.19 1430.32 179.19 1423.21 Q179.19 1416.08 177.362 1412.54 Q175.556 1408.98 171.922 1408.98 M171.922 1405.27 Q177.732 1405.27 180.788 1409.88 Q183.866 1414.46 183.866 1423.21 Q183.866 1431.94 180.788 1436.55 Q177.732 1441.13 171.922 1441.13 Q166.112 1441.13 163.033 1436.55 Q159.978 1431.94 159.978 1423.21 Q159.978 1414.46 163.033 1409.88 Q166.112 1405.27 171.922 1405.27 Z" fill="#000000" fill-rule="evenodd" fill-opacity="1" /><path clip-path="url(#clip560)" d="M128.288 1133.79 Q124.677 1133.79 122.848 1137.36 Q121.043 1140.9 121.043 1148.03 Q121.043 1155.13 122.848 1158.7 Q124.677 1162.24 128.288 1162.24 Q131.922 1162.24 133.728 1158.7 Q135.556 1155.13 135.556 1148.03 Q135.556 1140.9 133.728 1137.36 Q131.922 1133.79 128.288 1133.79 M128.288 1130.09 Q134.098 1130.09 137.154 1134.69 Q140.232 1139.28 140.232 1148.03 Q140.232 1156.75 137.154 1161.36 Q134.098 1165.94 128.288 1165.94 Q122.478 1165.94 119.399 1161.36 Q116.343 1156.75 116.343 1148.03 Q116.343 1139.28 119.399 1134.69 Q122.478 1130.09 128.288 1130.09 Z" fill="#000000" fill-rule="evenodd" fill-opacity="1" /><path clip-path="url(#clip560)" d="M148.45 1159.39 L153.334 1159.39 L153.334 1165.27 L148.45 1165.27 L148.45 1159.39 Z" fill="#000000" fill-rule="evenodd" fill-opacity="1" /><path clip-path="url(#clip560)" d="M167.547 1161.34 L183.866 1161.34 L183.866 1165.27 L161.922 1165.27 L161.922 1161.34 Q164.584 1158.58 169.167 1153.95 Q173.774 1149.3 174.954 1147.96 Q177.2 1145.43 178.079 1143.7 Q178.982 1141.94 178.982 1140.25 Q178.982 1137.5 177.038 1135.76 Q175.116 1134.02 172.014 1134.02 Q169.815 1134.02 167.362 1134.79 Q164.931 1135.55 162.153 1137.1 L162.153 1132.38 Q164.977 1131.25 167.431 1130.67 Q169.885 1130.09 171.922 1130.09 Q177.292 1130.09 180.487 1132.77 Q183.681 1135.46 183.681 1139.95 Q183.681 1142.08 182.871 1144 Q182.084 1145.9 179.977 1148.49 Q179.399 1149.16 176.297 1152.38 Q173.195 1155.57 167.547 1161.34 Z" fill="#000000" fill-rule="evenodd" fill-opacity="1" /><path clip-path="url(#clip560)" d="M126.205 858.604 Q122.593 858.604 120.765 862.169 Q118.959 865.711 118.959 872.84 Q118.959 879.947 120.765 883.512 Q122.593 887.053 126.205 887.053 Q129.839 887.053 131.644 883.512 Q133.473 879.947 133.473 872.84 Q133.473 865.711 131.644 862.169 Q129.839 858.604 126.205 858.604 M126.205 854.901 Q132.015 854.901 135.07 859.507 Q138.149 864.09 138.149 872.84 Q138.149 881.567 135.07 886.174 Q132.015 890.757 126.205 890.757 Q120.394 890.757 117.316 886.174 Q114.26 881.567 114.26 872.84 Q114.26 864.09 117.316 859.507 Q120.394 854.901 126.205 854.901 Z" fill="#000000" fill-rule="evenodd" fill-opacity="1" /><path clip-path="url(#clip560)" d="M146.366 884.206 L151.251 884.206 L151.251 890.086 L146.366 890.086 L146.366 884.206 Z" fill="#000000" fill-rule="evenodd" fill-opacity="1" /><path clip-path="url(#clip560)" d="M174.283 859.6 L162.477 878.049 L174.283 878.049 L174.283 859.6 M173.056 855.526 L178.936 855.526 L178.936 878.049 L183.866 878.049 L183.866 881.937 L178.936 881.937 L178.936 890.086 L174.283 890.086 L174.283 881.937 L158.681 881.937 L158.681 877.424 L173.056 855.526 Z" fill="#000000" fill-rule="evenodd" fill-opacity="1" /><path clip-path="url(#clip560)" d="M126.529 583.417 Q122.918 583.417 121.089 586.982 Q119.283 590.524 119.283 597.653 Q119.283 604.76 121.089 608.324 Q122.918 611.866 126.529 611.866 Q130.163 611.866 131.968 608.324 Q133.797 604.76 133.797 597.653 Q133.797 590.524 131.968 586.982 Q130.163 583.417 126.529 583.417 M126.529 579.713 Q132.339 579.713 135.394 584.32 Q138.473 588.903 138.473 597.653 Q138.473 606.38 135.394 610.986 Q132.339 615.57 126.529 615.57 Q120.718 615.57 117.64 610.986 Q114.584 606.38 114.584 597.653 Q114.584 588.903 117.64 584.32 Q120.718 579.713 126.529 579.713 Z" fill="#000000" fill-rule="evenodd" fill-opacity="1" /><path clip-path="url(#clip560)" d="M146.691 609.019 L151.575 609.019 L151.575 614.898 L146.691 614.898 L146.691 609.019 Z" fill="#000000" fill-rule="evenodd" fill-opacity="1" /><path clip-path="url(#clip560)" d="M172.339 595.755 Q169.19 595.755 167.339 597.908 Q165.51 600.061 165.51 603.81 Q165.51 607.537 167.339 609.713 Q169.19 611.866 172.339 611.866 Q175.487 611.866 177.315 609.713 Q179.167 607.537 179.167 603.81 Q179.167 600.061 177.315 597.908 Q175.487 595.755 172.339 595.755 M181.621 581.102 L181.621 585.362 Q179.862 584.528 178.056 584.088 Q176.274 583.649 174.514 583.649 Q169.885 583.649 167.431 586.774 Q165.001 589.899 164.653 596.218 Q166.019 594.204 168.079 593.139 Q170.139 592.051 172.616 592.051 Q177.825 592.051 180.834 595.223 Q183.866 598.371 183.866 603.81 Q183.866 609.135 180.718 612.352 Q177.57 615.57 172.339 615.57 Q166.343 615.57 163.172 610.986 Q160.001 606.38 160.001 597.653 Q160.001 589.459 163.89 584.598 Q167.778 579.713 174.329 579.713 Q176.089 579.713 177.871 580.061 Q179.676 580.408 181.621 581.102 Z" fill="#000000" fill-rule="evenodd" fill-opacity="1" /><path clip-path="url(#clip560)" d="M126.783 308.23 Q123.172 308.23 121.343 311.795 Q119.538 315.336 119.538 322.466 Q119.538 329.572 121.343 333.137 Q123.172 336.679 126.783 336.679 Q130.417 336.679 132.223 333.137 Q134.052 329.572 134.052 322.466 Q134.052 315.336 132.223 311.795 Q130.417 308.23 126.783 308.23 M126.783 304.526 Q132.593 304.526 135.649 309.133 Q138.728 313.716 138.728 322.466 Q138.728 331.193 135.649 335.799 Q132.593 340.383 126.783 340.383 Q120.973 340.383 117.894 335.799 Q114.839 331.193 114.839 322.466 Q114.839 313.716 117.894 309.133 Q120.973 304.526 126.783 304.526 Z" fill="#000000" fill-rule="evenodd" fill-opacity="1" /><path clip-path="url(#clip560)" d="M146.945 333.832 L151.829 333.832 L151.829 339.711 L146.945 339.711 L146.945 333.832 Z" fill="#000000" fill-rule="evenodd" fill-opacity="1" /><path clip-path="url(#clip560)" d="M172.014 323.299 Q168.681 323.299 166.76 325.082 Q164.862 326.864 164.862 329.989 Q164.862 333.114 166.76 334.896 Q168.681 336.679 172.014 336.679 Q175.348 336.679 177.269 334.896 Q179.19 333.091 179.19 329.989 Q179.19 326.864 177.269 325.082 Q175.371 323.299 172.014 323.299 M167.339 321.309 Q164.329 320.568 162.64 318.508 Q160.973 316.447 160.973 313.485 Q160.973 309.341 163.913 306.934 Q166.876 304.526 172.014 304.526 Q177.176 304.526 180.116 306.934 Q183.056 309.341 183.056 313.485 Q183.056 316.447 181.366 318.508 Q179.7 320.568 176.714 321.309 Q180.093 322.096 181.968 324.387 Q183.866 326.679 183.866 329.989 Q183.866 335.012 180.788 337.697 Q177.732 340.383 172.014 340.383 Q166.297 340.383 163.218 337.697 Q160.163 335.012 160.163 329.989 Q160.163 326.679 162.061 324.387 Q163.959 322.096 167.339 321.309 M165.626 313.924 Q165.626 316.61 167.292 318.114 Q168.982 319.619 172.014 319.619 Q175.024 319.619 176.714 318.114 Q178.426 316.61 178.426 313.924 Q178.426 311.239 176.714 309.735 Q175.024 308.23 172.014 308.23 Q168.982 308.23 167.292 309.735 Q165.626 311.239 165.626 313.924 Z" fill="#000000" fill-rule="evenodd" fill-opacity="1" /><path clip-path="url(#clip560)" d="M117.501 60.5889 L125.14 60.5889 L125.14 34.2233 L116.83 35.89 L116.83 31.6308 L125.093 29.9641 L129.769 29.9641 L129.769 60.5889 L137.408 60.5889 L137.408 64.5241 L117.501 64.5241 L117.501 60.5889 Z" fill="#000000" fill-rule="evenodd" fill-opacity="1" /><path clip-path="url(#clip560)" d="M146.853 58.6445 L151.737 58.6445 L151.737 64.5241 L146.853 64.5241 L146.853 58.6445 Z" fill="#000000" fill-rule="evenodd" fill-opacity="1" /><path clip-path="url(#clip560)" d="M171.922 33.0428 Q168.311 33.0428 166.482 36.6076 Q164.677 40.1492 164.677 47.2788 Q164.677 54.3853 166.482 57.9501 Q168.311 61.4917 171.922 61.4917 Q175.556 61.4917 177.362 57.9501 Q179.19 54.3853 179.19 47.2788 Q179.19 40.1492 177.362 36.6076 Q175.556 33.0428 171.922 33.0428 M171.922 29.3391 Q177.732 29.3391 180.788 33.9456 Q183.866 38.5289 183.866 47.2788 Q183.866 56.0056 180.788 60.6121 Q177.732 65.1954 171.922 65.1954 Q166.112 65.1954 163.033 60.6121 Q159.978 56.0056 159.978 47.2788 Q159.978 38.5289 163.033 33.9456 Q166.112 29.3391 171.922 29.3391 Z" fill="#000000" fill-rule="evenodd" fill-opacity="1" /><path clip-path="url(#clip560)" d="M27.9392 757.108 Q28.6155 757.108 29.163 757.688 Q29.7105 758.236 29.7105 758.912 Q29.7105 759.298 29.0664 760.232 Q27.1985 762.905 27.1985 766.287 Q27.1985 769.314 27.9392 772.116 Q28.6799 774.918 30.1936 776.818 Q31.6751 778.686 33.6074 778.686 Q36.0229 778.686 37.4399 776.045 Q36.1839 773.308 36.1839 769.926 Q36.1839 768.831 36.2483 768.09 Q36.3127 767.318 36.4738 766.577 Q36.6348 765.836 37.0213 765.482 Q37.3755 765.095 37.9552 765.095 Q40.0164 765.095 40.0164 770.442 Q40.0164 773.92 39.0824 776.11 Q40.4673 778.912 42.6895 780.458 Q44.9117 782.003 46.8118 782.003 Q48.4543 782.003 49.646 781.102 Q50.8376 780.168 51.4173 778.654 Q51.997 777.108 52.2546 775.594 Q52.4801 774.049 52.4801 772.342 Q52.4801 769.54 52.1258 767.575 Q51.7393 765.578 51.0308 764.483 Q50.3223 763.356 49.8392 762.905 Q49.3239 762.422 48.5187 761.939 Q48.0679 761.649 48.0679 761.263 Q48.0679 760.973 48.2611 760.78 Q48.4221 760.554 48.712 760.554 Q49.0662 760.554 49.807 761.005 Q50.5477 761.424 51.5461 762.454 Q52.5123 763.453 53.414 764.838 Q54.2836 766.19 54.8955 768.348 Q55.5074 770.506 55.5074 772.954 Q55.5074 777.945 53.0598 780.844 Q50.6121 783.71 47.1983 783.71 Q44.8151 783.71 42.3674 782.132 Q39.8876 780.522 38.3095 777.688 Q36.3449 780.329 33.6074 780.329 Q31.1598 780.329 28.9698 778.268 Q26.7798 776.174 25.4916 772.793 Q24.1711 769.379 24.1711 765.643 Q24.1711 763.549 24.8796 761.488 Q25.556 759.427 26.4255 758.268 Q27.2951 757.108 27.9392 757.108 M38.0196 766.802 Q37.6332 768.219 37.6332 769.926 Q37.6332 772.245 38.2129 773.952 Q38.5671 772.567 38.5671 770.442 Q38.5671 768.67 38.4705 768.155 Q38.3739 767.607 38.0196 766.802 Z" fill="#000000" fill-rule="evenodd" fill-opacity="1" /><path clip-path="url(#clip560)" d="M57.1294 731.525 Q58.3243 731.525 59.0908 732.314 Q59.8573 733.08 59.8573 734.072 Q59.8573 734.929 59.3613 735.38 Q58.8653 735.831 58.2341 735.831 Q57.3323 735.831 56.5884 735.132 Q55.8444 734.433 55.6866 733.419 Q55.1455 734.162 55.1455 735.357 Q55.1455 737.319 56.656 739.055 Q57.3549 739.821 58.6399 740.655 Q59.9023 741.489 60.4434 741.647 L66.4627 743.112 Q67.139 743.248 70.3854 744.082 Q73.6092 744.893 73.7444 744.961 Q74.3757 745.187 74.7138 745.683 Q75.052 746.178 75.052 746.674 Q75.052 747.238 74.7138 747.621 Q74.3757 748.005 73.7895 748.005 Q73.6993 748.005 73.3612 747.937 Q73.023 747.869 72.5496 747.757 Q72.0762 747.644 71.8056 747.599 L61.1423 744.916 Q59.2035 744.42 58.5948 744.307 Q57.9636 744.172 57.2647 744.172 Q56.0473 744.172 55.5964 744.555 Q55.1455 744.939 55.1455 745.615 Q55.1455 746.787 56.5433 747.554 Q57.941 748.32 60.6463 748.974 Q61.3903 749.177 61.5481 749.312 Q61.7059 749.425 61.7059 749.763 Q61.6833 750.327 61.2324 750.327 Q61.1197 750.327 60.3983 750.146 Q59.6544 749.966 58.5722 749.628 Q57.4676 749.267 56.7687 748.884 Q56.2953 748.658 55.9797 748.455 Q55.6641 748.253 55.1681 747.847 Q54.6721 747.441 54.4016 746.832 Q54.1311 746.224 54.1311 745.48 Q54.1311 743.856 55.123 742.707 Q56.1149 741.534 57.6705 741.264 Q56.8589 740.7 56.16 740.001 Q55.4386 739.303 54.7848 738.018 Q54.1311 736.732 54.1311 735.357 Q54.1311 733.644 55.0103 732.584 Q55.867 731.525 57.1294 731.525 Z" fill="#000000" fill-rule="evenodd" fill-opacity="1" /><path clip-path="url(#clip560)" d="M69.1905 711.114 Q69.3934 710.934 69.5963 710.934 Q69.7992 710.934 70.3854 711.385 Q70.9715 711.813 71.7605 712.737 Q72.5496 713.662 73.2935 714.857 Q74.0375 716.051 74.5335 717.81 Q75.052 719.568 75.052 721.417 Q75.052 724.731 72.6849 726.715 Q70.3177 728.676 66.6881 728.676 Q64.3661 728.676 62.3146 727.91 Q60.2405 727.143 58.7751 725.903 Q57.3098 724.641 56.2502 723.063 Q55.1681 721.462 54.6496 719.794 Q54.1311 718.125 54.1311 716.57 Q54.1311 714.293 55.2808 712.963 Q56.4306 711.633 58.0537 711.633 Q58.437 711.633 58.9104 711.745 Q59.3838 711.836 60.1278 712.151 Q60.8717 712.444 61.6157 713.211 Q62.3371 713.977 62.8105 715.105 Q63.8701 717.607 63.8701 722.161 L63.8701 724.618 Q66.7783 725.34 68.672 725.34 Q69.416 725.34 70.1825 725.204 Q70.9264 725.069 71.8733 724.708 Q72.8201 724.325 73.4288 723.468 Q74.015 722.589 74.015 721.327 Q74.015 720.921 73.9924 720.493 Q73.9699 720.042 73.7219 718.914 Q73.4739 717.765 73.0456 716.75 Q72.6172 715.736 71.6929 714.451 Q70.7461 713.143 69.461 712.106 Q68.9876 711.745 68.9876 711.497 Q68.9876 711.295 69.1905 711.114 M58.0537 713.166 Q56.8138 713.166 55.9797 714.09 Q55.1455 714.992 55.1455 716.57 Q55.1455 717.066 55.2583 717.675 Q55.371 718.283 55.8444 719.298 Q56.3178 720.29 57.1069 721.169 Q57.8734 722.048 59.3838 722.927 Q60.8717 723.807 62.8556 724.325 L62.8556 722.431 Q62.8556 721.778 62.8556 721.304 Q62.8331 720.831 62.7429 719.794 Q62.6527 718.734 62.4949 717.968 Q62.3146 717.201 61.9539 716.232 Q61.5932 715.262 61.1197 714.654 Q60.6238 714.022 59.8347 713.594 Q59.0457 713.166 58.0537 713.166 Z" fill="#000000" fill-rule="evenodd" fill-opacity="1" /><path clip-path="url(#clip560)" d="M42.9943 697.5 L69.6865 704.15 Q70.7461 704.421 71.8958 704.421 Q74.015 704.421 74.015 703.023 Q74.015 702.369 73.5866 701.828 Q73.1357 701.287 72.2565 700.882 Q71.3548 700.453 70.4981 700.183 Q69.6414 699.89 68.3113 699.529 Q67.7928 699.416 67.635 699.303 Q67.4772 699.191 67.4772 698.875 Q67.4772 698.312 67.928 698.312 Q70.701 698.875 72.4594 699.709 Q75.052 700.927 75.052 703.181 Q75.052 704.872 73.8797 706.134 Q72.6849 707.374 70.7911 707.374 Q70.0697 707.374 69.2131 707.149 L46.1279 701.332 L45.2261 701.175 Q44.9782 701.175 44.8429 701.265 Q44.7076 701.355 44.5724 701.896 Q44.4371 702.415 44.4371 703.452 Q44.4371 703.88 44.4145 704.083 Q44.392 704.263 44.2793 704.444 Q44.1666 704.601 43.9186 704.601 Q43.5128 704.601 43.2873 704.444 Q43.0619 704.263 43.0168 704.128 Q42.9717 703.993 42.9492 703.722 Q42.9266 703.339 42.8139 702.054 Q42.6787 700.769 42.5885 699.664 Q42.4983 698.56 42.4983 698.086 Q42.4983 697.816 42.6336 697.68 Q42.7463 697.522 42.8815 697.5 L42.9943 697.5 Z" fill="#000000" fill-rule="evenodd" fill-opacity="1" /><polyline clip-path="url(#clip563)" style="stroke:#009af9; stroke-linecap:round; stroke-linejoin:round; stroke-width:4; stroke-opacity:1; fill:none" points="219.866,1422.87 646.444,1423.05 1073.02,1423.1 1499.6,1423.14 1926.18,1423.16 2352.76,1423.18 "/>
<polyline clip-path="url(#clip563)" style="stroke:#e26f46; stroke-linecap:round; stroke-linejoin:round; stroke-width:4; stroke-opacity:1; fill:none" points="219.866,1363.47 646.444,1413.93 1073.02,1417.9 1499.6,1420.33 1926.18,1421.91 2352.76,1423.18 "/>
<polyline clip-path="url(#clip563)" style="stroke:#3da44d; stroke-linecap:round; stroke-linejoin:round; stroke-width:4; stroke-opacity:1; fill:none" points="219.866,1368.35 646.444,1411.7 1073.02,1416.9 1499.6,1420.25 1926.18,1421.97 2352.76,1423.18 "/>
<polyline clip-path="url(#clip563)" style="stroke:#c271d2; stroke-linecap:round; stroke-linejoin:round; stroke-width:4; stroke-opacity:1; fill:none" points="219.866,1369.39 646.444,1416.15 1073.02,1418.86 1499.6,1420.63 1926.18,1422.03 2352.76,1423.18 "/>
<path clip-path="url(#clip560)" d="M1510.46 352.309 L2281.66 352.309 L2281.66 93.1086 L1510.46 93.1086  Z" fill="#ffffff" fill-rule="evenodd" fill-opacity="1"/>
<polyline clip-path="url(#clip560)" style="stroke:#000000; stroke-linecap:round; stroke-linejoin:round; stroke-width:4; stroke-opacity:1; fill:none" points="1510.46,352.309 2281.66,352.309 2281.66,93.1086 1510.46,93.1086 1510.46,352.309 "/>
<polyline clip-path="url(#clip560)" style="stroke:#009af9; stroke-linecap:round; stroke-linejoin:round; stroke-width:4; stroke-opacity:1; fill:none" points="1534.16,144.949 1676.35,144.949 "/>
<path clip-path="url(#clip560)" d="M1707.45 128.942 L1707.45 136.303 L1716.23 136.303 L1716.23 139.613 L1707.45 139.613 L1707.45 153.687 Q1707.45 156.858 1708.31 157.761 Q1709.19 158.664 1711.85 158.664 L1716.23 158.664 L1716.23 162.229 L1711.85 162.229 Q1706.92 162.229 1705.05 160.4 Q1703.17 158.548 1703.17 153.687 L1703.17 139.613 L1700.05 139.613 L1700.05 136.303 L1703.17 136.303 L1703.17 128.942 L1707.45 128.942 Z" fill="#000000" fill-rule="evenodd" fill-opacity="1" /><path clip-path="url(#clip560)" d="M1743.38 146.581 L1743.38 162.229 L1739.12 162.229 L1739.12 146.719 Q1739.12 143.039 1737.69 141.21 Q1736.25 139.382 1733.38 139.382 Q1729.93 139.382 1727.94 141.581 Q1725.95 143.78 1725.95 147.576 L1725.95 162.229 L1721.67 162.229 L1721.67 126.21 L1725.95 126.21 L1725.95 140.331 Q1727.48 137.993 1729.54 136.835 Q1731.62 135.678 1734.33 135.678 Q1738.8 135.678 1741.09 138.456 Q1743.38 141.21 1743.38 146.581 Z" fill="#000000" fill-rule="evenodd" fill-opacity="1" /><path clip-path="url(#clip560)" d="M1774.05 148.201 L1774.05 150.284 L1754.47 150.284 Q1754.75 154.682 1757.11 156.997 Q1759.49 159.289 1763.73 159.289 Q1766.18 159.289 1768.47 158.687 Q1770.79 158.085 1773.06 156.881 L1773.06 160.909 Q1770.76 161.881 1768.36 162.391 Q1765.95 162.9 1763.47 162.9 Q1757.27 162.9 1753.63 159.289 Q1750.02 155.678 1750.02 149.52 Q1750.02 143.155 1753.45 139.428 Q1756.9 135.678 1762.73 135.678 Q1767.96 135.678 1771 139.057 Q1774.05 142.414 1774.05 148.201 M1769.79 146.951 Q1769.75 143.456 1767.82 141.372 Q1765.93 139.289 1762.78 139.289 Q1759.21 139.289 1757.06 141.303 Q1754.93 143.317 1754.61 146.974 L1769.79 146.951 Z" fill="#000000" fill-rule="evenodd" fill-opacity="1" /><path clip-path="url(#clip560)" d="M1791.09 139.289 Q1787.66 139.289 1785.67 141.974 Q1783.68 144.636 1783.68 149.289 Q1783.68 153.942 1785.65 156.627 Q1787.64 159.289 1791.09 159.289 Q1794.49 159.289 1796.48 156.604 Q1798.47 153.918 1798.47 149.289 Q1798.47 144.682 1796.48 141.997 Q1794.49 139.289 1791.09 139.289 M1791.09 135.678 Q1796.64 135.678 1799.82 139.289 Q1802.99 142.9 1802.99 149.289 Q1802.99 155.655 1799.82 159.289 Q1796.64 162.9 1791.09 162.9 Q1785.51 162.9 1782.34 159.289 Q1779.19 155.655 1779.19 149.289 Q1779.19 142.9 1782.34 139.289 Q1785.51 135.678 1791.09 135.678 Z" fill="#000000" fill-rule="evenodd" fill-opacity="1" /><path clip-path="url(#clip560)" d="M1825.07 140.284 Q1824.35 139.868 1823.5 139.682 Q1822.66 139.474 1821.64 139.474 Q1818.03 139.474 1816.09 141.835 Q1814.17 144.173 1814.17 148.571 L1814.17 162.229 L1809.88 162.229 L1809.88 136.303 L1814.17 136.303 L1814.17 140.331 Q1815.51 137.969 1817.66 136.835 Q1819.82 135.678 1822.89 135.678 Q1823.33 135.678 1823.87 135.747 Q1824.4 135.794 1825.05 135.909 L1825.07 140.284 Z" fill="#000000" fill-rule="evenodd" fill-opacity="1" /><path clip-path="url(#clip560)" d="M1850.67 148.201 L1850.67 150.284 L1831.09 150.284 Q1831.37 154.682 1833.73 156.997 Q1836.11 159.289 1840.35 159.289 Q1842.8 159.289 1845.09 158.687 Q1847.41 158.085 1849.68 156.881 L1849.68 160.909 Q1847.38 161.881 1844.98 162.391 Q1842.57 162.9 1840.09 162.9 Q1833.89 162.9 1830.25 159.289 Q1826.64 155.678 1826.64 149.52 Q1826.64 143.155 1830.07 139.428 Q1833.52 135.678 1839.35 135.678 Q1844.58 135.678 1847.62 139.057 Q1850.67 142.414 1850.67 148.201 M1846.41 146.951 Q1846.37 143.456 1844.44 141.372 Q1842.55 139.289 1839.4 139.289 Q1835.83 139.289 1833.68 141.303 Q1831.55 143.317 1831.23 146.974 L1846.41 146.951 Z" fill="#000000" fill-rule="evenodd" fill-opacity="1" /><path clip-path="url(#clip560)" d="M1861.87 128.942 L1861.87 136.303 L1870.65 136.303 L1870.65 139.613 L1861.87 139.613 L1861.87 153.687 Q1861.87 156.858 1862.73 157.761 Q1863.61 158.664 1866.27 158.664 L1870.65 158.664 L1870.65 162.229 L1866.27 162.229 Q1861.34 162.229 1859.47 160.4 Q1857.59 158.548 1857.59 153.687 L1857.59 139.613 L1854.47 139.613 L1854.47 136.303 L1857.59 136.303 L1857.59 128.942 L1861.87 128.942 Z" fill="#000000" fill-rule="evenodd" fill-opacity="1" /><path clip-path="url(#clip560)" d="M1876.25 136.303 L1880.51 136.303 L1880.51 162.229 L1876.25 162.229 L1876.25 136.303 M1876.25 126.21 L1880.51 126.21 L1880.51 131.604 L1876.25 131.604 L1876.25 126.21 Z" fill="#000000" fill-rule="evenodd" fill-opacity="1" /><path clip-path="url(#clip560)" d="M1908.08 137.298 L1908.08 141.28 Q1906.27 140.284 1904.44 139.798 Q1902.64 139.289 1900.79 139.289 Q1896.64 139.289 1894.35 141.928 Q1892.06 144.544 1892.06 149.289 Q1892.06 154.034 1894.35 156.673 Q1896.64 159.289 1900.79 159.289 Q1902.64 159.289 1904.44 158.803 Q1906.27 158.293 1908.08 157.298 L1908.08 161.233 Q1906.3 162.067 1904.37 162.483 Q1902.48 162.9 1900.32 162.9 Q1894.47 162.9 1891.02 159.219 Q1887.57 155.539 1887.57 149.289 Q1887.57 142.946 1891.04 139.312 Q1894.54 135.678 1900.6 135.678 Q1902.57 135.678 1904.44 136.095 Q1906.32 136.488 1908.08 137.298 Z" fill="#000000" fill-rule="evenodd" fill-opacity="1" /><path clip-path="url(#clip560)" d="M1927.27 149.196 Q1922.11 149.196 1920.12 150.377 Q1918.12 151.557 1918.12 154.405 Q1918.12 156.673 1919.61 158.016 Q1921.11 159.335 1923.68 159.335 Q1927.22 159.335 1929.35 156.835 Q1931.5 154.312 1931.5 150.145 L1931.5 149.196 L1927.27 149.196 M1935.76 147.437 L1935.76 162.229 L1931.5 162.229 L1931.5 158.293 Q1930.05 160.655 1927.87 161.789 Q1925.69 162.9 1922.55 162.9 Q1918.56 162.9 1916.2 160.678 Q1913.87 158.432 1913.87 154.682 Q1913.87 150.307 1916.78 148.085 Q1919.72 145.863 1925.53 145.863 L1931.5 145.863 L1931.5 145.446 Q1931.5 142.507 1929.56 140.909 Q1927.64 139.289 1924.14 139.289 Q1921.92 139.289 1919.81 139.821 Q1917.71 140.354 1915.76 141.419 L1915.76 137.483 Q1918.1 136.581 1920.3 136.141 Q1922.5 135.678 1924.58 135.678 Q1930.21 135.678 1932.99 138.594 Q1935.76 141.511 1935.76 147.437 Z" fill="#000000" fill-rule="evenodd" fill-opacity="1" /><path clip-path="url(#clip560)" d="M1944.54 126.21 L1948.8 126.21 L1948.8 162.229 L1944.54 162.229 L1944.54 126.21 Z" fill="#000000" fill-rule="evenodd" fill-opacity="1" /><path clip-path="url(#clip560)" d="M1972.78 126.21 L1977.04 126.21 L1977.04 162.229 L1972.78 162.229 L1972.78 126.21 Z" fill="#000000" fill-rule="evenodd" fill-opacity="1" /><path clip-path="url(#clip560)" d="M1995.99 139.289 Q1992.57 139.289 1990.58 141.974 Q1988.59 144.636 1988.59 149.289 Q1988.59 153.942 1990.55 156.627 Q1992.55 159.289 1995.99 159.289 Q1999.4 159.289 2001.39 156.604 Q2003.38 153.918 2003.38 149.289 Q2003.38 144.682 2001.39 141.997 Q1999.4 139.289 1995.99 139.289 M1995.99 135.678 Q2001.55 135.678 2004.72 139.289 Q2007.89 142.9 2007.89 149.289 Q2007.89 155.655 2004.72 159.289 Q2001.55 162.9 1995.99 162.9 Q1990.42 162.9 1987.24 159.289 Q1984.1 155.655 1984.1 149.289 Q1984.1 142.9 1987.24 139.289 Q1990.42 135.678 1995.99 135.678 Z" fill="#000000" fill-rule="evenodd" fill-opacity="1" /><path clip-path="url(#clip560)" d="M2012.48 136.303 L2016.74 136.303 L2022.06 156.534 L2027.36 136.303 L2032.38 136.303 L2037.71 156.534 L2043.01 136.303 L2047.27 136.303 L2040.49 162.229 L2035.46 162.229 L2029.88 140.979 L2024.28 162.229 L2019.26 162.229 L2012.48 136.303 Z" fill="#000000" fill-rule="evenodd" fill-opacity="1" /><path clip-path="url(#clip560)" d="M2075.9 148.201 L2075.9 150.284 L2056.32 150.284 Q2056.6 154.682 2058.96 156.997 Q2061.34 159.289 2065.58 159.289 Q2068.03 159.289 2070.32 158.687 Q2072.64 158.085 2074.91 156.881 L2074.91 160.909 Q2072.61 161.881 2070.21 162.391 Q2067.8 162.9 2065.32 162.9 Q2059.12 162.9 2055.49 159.289 Q2051.87 155.678 2051.87 149.52 Q2051.87 143.155 2055.3 139.428 Q2058.75 135.678 2064.58 135.678 Q2069.81 135.678 2072.85 139.057 Q2075.9 142.414 2075.9 148.201 M2071.64 146.951 Q2071.6 143.456 2069.67 141.372 Q2067.78 139.289 2064.63 139.289 Q2061.06 139.289 2058.91 141.303 Q2056.78 143.317 2056.46 146.974 L2071.64 146.951 Z" fill="#000000" fill-rule="evenodd" fill-opacity="1" /><path clip-path="url(#clip560)" d="M2097.92 140.284 Q2097.2 139.868 2096.34 139.682 Q2095.51 139.474 2094.49 139.474 Q2090.88 139.474 2088.93 141.835 Q2087.01 144.173 2087.01 148.571 L2087.01 162.229 L2082.73 162.229 L2082.73 136.303 L2087.01 136.303 L2087.01 140.331 Q2088.36 137.969 2090.51 136.835 Q2092.66 135.678 2095.74 135.678 Q2096.18 135.678 2096.71 135.747 Q2097.24 135.794 2097.89 135.909 L2097.92 140.284 Z" fill="#000000" fill-rule="evenodd" fill-opacity="1" /><path clip-path="url(#clip560)" d="M2136.06 149.289 Q2136.06 144.59 2134.12 141.928 Q2132.2 139.243 2128.82 139.243 Q2125.44 139.243 2123.49 141.928 Q2121.57 144.59 2121.57 149.289 Q2121.57 153.988 2123.49 156.673 Q2125.44 159.335 2128.82 159.335 Q2132.2 159.335 2134.12 156.673 Q2136.06 153.988 2136.06 149.289 M2121.57 140.238 Q2122.92 137.923 2124.95 136.812 Q2127.01 135.678 2129.86 135.678 Q2134.58 135.678 2137.52 139.428 Q2140.48 143.178 2140.48 149.289 Q2140.48 155.4 2137.52 159.15 Q2134.58 162.9 2129.86 162.9 Q2127.01 162.9 2124.95 161.789 Q2122.92 160.655 2121.57 158.34 L2121.57 162.229 L2117.29 162.229 L2117.29 126.21 L2121.57 126.21 L2121.57 140.238 Z" fill="#000000" fill-rule="evenodd" fill-opacity="1" /><path clip-path="url(#clip560)" d="M2157.59 139.289 Q2154.17 139.289 2152.17 141.974 Q2150.18 144.636 2150.18 149.289 Q2150.18 153.942 2152.15 156.627 Q2154.14 159.289 2157.59 159.289 Q2160.99 159.289 2162.98 156.604 Q2164.98 153.918 2164.98 149.289 Q2164.98 144.682 2162.98 141.997 Q2160.99 139.289 2157.59 139.289 M2157.59 135.678 Q2163.15 135.678 2166.32 139.289 Q2169.49 142.9 2169.49 149.289 Q2169.49 155.655 2166.32 159.289 Q2163.15 162.9 2157.59 162.9 Q2152.01 162.9 2148.84 159.289 Q2145.69 155.655 2145.69 149.289 Q2145.69 142.9 2148.84 139.289 Q2152.01 135.678 2157.59 135.678 Z" fill="#000000" fill-rule="evenodd" fill-opacity="1" /><path clip-path="url(#clip560)" d="M2176.11 151.997 L2176.11 136.303 L2180.37 136.303 L2180.37 151.835 Q2180.37 155.516 2181.8 157.368 Q2183.24 159.196 2186.11 159.196 Q2189.56 159.196 2191.55 156.997 Q2193.56 154.798 2193.56 151.002 L2193.56 136.303 L2197.82 136.303 L2197.82 162.229 L2193.56 162.229 L2193.56 158.247 Q2192.01 160.608 2189.95 161.766 Q2187.91 162.9 2185.21 162.9 Q2180.74 162.9 2178.42 160.122 Q2176.11 157.344 2176.11 151.997 M2186.83 135.678 L2186.83 135.678 Z" fill="#000000" fill-rule="evenodd" fill-opacity="1" /><path clip-path="url(#clip560)" d="M2228.15 146.581 L2228.15 162.229 L2223.89 162.229 L2223.89 146.719 Q2223.89 143.039 2222.45 141.21 Q2221.02 139.382 2218.15 139.382 Q2214.7 139.382 2212.71 141.581 Q2210.72 143.78 2210.72 147.576 L2210.72 162.229 L2206.43 162.229 L2206.43 136.303 L2210.72 136.303 L2210.72 140.331 Q2212.24 137.993 2214.3 136.835 Q2216.39 135.678 2219.1 135.678 Q2223.56 135.678 2225.85 138.456 Q2228.15 141.21 2228.15 146.581 Z" fill="#000000" fill-rule="evenodd" fill-opacity="1" /><path clip-path="url(#clip560)" d="M2253.7 140.238 L2253.7 126.21 L2257.96 126.21 L2257.96 162.229 L2253.7 162.229 L2253.7 158.34 Q2252.36 160.655 2250.3 161.789 Q2248.26 162.9 2245.39 162.9 Q2240.69 162.9 2237.73 159.15 Q2234.79 155.4 2234.79 149.289 Q2234.79 143.178 2237.73 139.428 Q2240.69 135.678 2245.39 135.678 Q2248.26 135.678 2250.3 136.812 Q2252.36 137.923 2253.7 140.238 M2239.19 149.289 Q2239.19 153.988 2241.11 156.673 Q2243.05 159.335 2246.43 159.335 Q2249.81 159.335 2251.76 156.673 Q2253.7 153.988 2253.7 149.289 Q2253.7 144.59 2251.76 141.928 Q2249.81 139.243 2246.43 139.243 Q2243.05 139.243 2241.11 141.928 Q2239.19 144.59 2239.19 149.289 Z" fill="#000000" fill-rule="evenodd" fill-opacity="1" /><polyline clip-path="url(#clip560)" style="stroke:#e26f46; stroke-linecap:round; stroke-linejoin:round; stroke-width:4; stroke-opacity:1; fill:none" points="1534.16,196.789 1676.35,196.789 "/>
<path clip-path="url(#clip560)" d="M1721.76 198.421 L1721.76 214.069 L1717.5 214.069 L1717.5 198.559 Q1717.5 194.879 1716.07 193.05 Q1714.63 191.222 1711.76 191.222 Q1708.31 191.222 1706.32 193.421 Q1704.33 195.62 1704.33 199.416 L1704.33 214.069 L1700.05 214.069 L1700.05 188.143 L1704.33 188.143 L1704.33 192.171 Q1705.86 189.833 1707.92 188.675 Q1710 187.518 1712.71 187.518 Q1717.18 187.518 1719.47 190.296 Q1721.76 193.05 1721.76 198.421 Z" fill="#000000" fill-rule="evenodd" fill-opacity="1" /><path clip-path="url(#clip560)" d="M1742.04 201.036 Q1736.88 201.036 1734.88 202.217 Q1732.89 203.397 1732.89 206.245 Q1732.89 208.513 1734.38 209.856 Q1735.88 211.175 1738.45 211.175 Q1741.99 211.175 1744.12 208.675 Q1746.27 206.152 1746.27 201.985 L1746.27 201.036 L1742.04 201.036 M1750.53 199.277 L1750.53 214.069 L1746.27 214.069 L1746.27 210.133 Q1744.82 212.495 1742.64 213.629 Q1740.46 214.74 1737.32 214.74 Q1733.33 214.74 1730.97 212.518 Q1728.63 210.272 1728.63 206.522 Q1728.63 202.147 1731.55 199.925 Q1734.49 197.703 1740.3 197.703 L1746.27 197.703 L1746.27 197.286 Q1746.27 194.347 1744.33 192.749 Q1742.41 191.129 1738.91 191.129 Q1736.69 191.129 1734.58 191.661 Q1732.48 192.194 1730.53 193.259 L1730.53 189.323 Q1732.87 188.421 1735.07 187.981 Q1737.27 187.518 1739.35 187.518 Q1744.98 187.518 1747.76 190.434 Q1750.53 193.351 1750.53 199.277 Z" fill="#000000" fill-rule="evenodd" fill-opacity="1" /><path clip-path="url(#clip560)" d="M1759.31 188.143 L1763.57 188.143 L1763.57 214.069 L1759.31 214.069 L1759.31 188.143 M1759.31 178.05 L1763.57 178.05 L1763.57 183.444 L1759.31 183.444 L1759.31 178.05 Z" fill="#000000" fill-rule="evenodd" fill-opacity="1" /><path clip-path="url(#clip560)" d="M1769.42 188.143 L1773.94 188.143 L1782.04 209.902 L1790.14 188.143 L1794.65 188.143 L1784.93 214.069 L1779.14 214.069 L1769.42 188.143 Z" fill="#000000" fill-rule="evenodd" fill-opacity="1" /><path clip-path="url(#clip560)" d="M1822.71 200.041 L1822.71 202.124 L1803.13 202.124 Q1803.4 206.522 1805.76 208.837 Q1808.15 211.129 1812.38 211.129 Q1814.84 211.129 1817.13 210.527 Q1819.44 209.925 1821.71 208.721 L1821.71 212.749 Q1819.42 213.721 1817.01 214.231 Q1814.61 214.74 1812.13 214.74 Q1805.93 214.74 1802.29 211.129 Q1798.68 207.518 1798.68 201.36 Q1798.68 194.995 1802.11 191.268 Q1805.56 187.518 1811.39 187.518 Q1816.62 187.518 1819.65 190.897 Q1822.71 194.254 1822.71 200.041 M1818.45 198.791 Q1818.4 195.296 1816.48 193.212 Q1814.58 191.129 1811.44 191.129 Q1807.87 191.129 1805.72 193.143 Q1803.59 195.157 1803.26 198.814 L1818.45 198.791 Z" fill="#000000" fill-rule="evenodd" fill-opacity="1" /><polyline clip-path="url(#clip560)" style="stroke:#3da44d; stroke-linecap:round; stroke-linejoin:round; stroke-width:4; stroke-opacity:1; fill:none" points="1534.16,248.629 1676.35,248.629 "/>
<path clip-path="url(#clip560)" d="M1720.56 240.978 L1720.56 244.96 Q1718.75 243.964 1716.92 243.478 Q1715.12 242.969 1713.26 242.969 Q1709.12 242.969 1706.83 245.608 Q1704.54 248.224 1704.54 252.969 Q1704.54 257.714 1706.83 260.353 Q1709.12 262.969 1713.26 262.969 Q1715.12 262.969 1716.92 262.483 Q1718.75 261.973 1720.56 260.978 L1720.56 264.913 Q1718.77 265.747 1716.85 266.163 Q1714.95 266.58 1712.8 266.58 Q1706.95 266.58 1703.5 262.899 Q1700.05 259.219 1700.05 252.969 Q1700.05 246.626 1703.52 242.992 Q1707.01 239.358 1713.08 239.358 Q1715.05 239.358 1716.92 239.775 Q1718.8 240.168 1720.56 240.978 Z" fill="#000000" fill-rule="evenodd" fill-opacity="1" /><path clip-path="url(#clip560)" d="M1727.52 255.677 L1727.52 239.983 L1731.78 239.983 L1731.78 255.515 Q1731.78 259.196 1733.22 261.048 Q1734.65 262.876 1737.52 262.876 Q1740.97 262.876 1742.96 260.677 Q1744.98 258.478 1744.98 254.682 L1744.98 239.983 L1749.24 239.983 L1749.24 265.909 L1744.98 265.909 L1744.98 261.927 Q1743.43 264.288 1741.37 265.446 Q1739.33 266.58 1736.62 266.58 Q1732.15 266.58 1729.84 263.802 Q1727.52 261.024 1727.52 255.677 M1738.24 239.358 L1738.24 239.358 Z" fill="#000000" fill-rule="evenodd" fill-opacity="1" /><path clip-path="url(#clip560)" d="M1773.03 243.964 Q1772.32 243.548 1771.46 243.362 Q1770.63 243.154 1769.61 243.154 Q1766 243.154 1764.05 245.515 Q1762.13 247.853 1762.13 252.251 L1762.13 265.909 L1757.85 265.909 L1757.85 239.983 L1762.13 239.983 L1762.13 244.011 Q1763.47 241.649 1765.63 240.515 Q1767.78 239.358 1770.86 239.358 Q1771.3 239.358 1771.83 239.427 Q1772.36 239.474 1773.01 239.589 L1773.03 243.964 Z" fill="#000000" fill-rule="evenodd" fill-opacity="1" /><path clip-path="url(#clip560)" d="M1774.44 239.983 L1778.96 239.983 L1787.06 261.742 L1795.16 239.983 L1799.68 239.983 L1789.95 265.909 L1784.17 265.909 L1774.44 239.983 Z" fill="#000000" fill-rule="evenodd" fill-opacity="1" /><path clip-path="url(#clip560)" d="M1817.34 252.876 Q1812.18 252.876 1810.19 254.057 Q1808.19 255.237 1808.19 258.085 Q1808.19 260.353 1809.68 261.696 Q1811.18 263.015 1813.75 263.015 Q1817.29 263.015 1819.42 260.515 Q1821.57 257.992 1821.57 253.825 L1821.57 252.876 L1817.34 252.876 M1825.83 251.117 L1825.83 265.909 L1821.57 265.909 L1821.57 261.973 Q1820.12 264.335 1817.94 265.469 Q1815.76 266.58 1812.62 266.58 Q1808.63 266.58 1806.27 264.358 Q1803.94 262.112 1803.94 258.362 Q1803.94 253.987 1806.85 251.765 Q1809.79 249.543 1815.6 249.543 L1821.57 249.543 L1821.57 249.126 Q1821.57 246.187 1819.63 244.589 Q1817.71 242.969 1814.21 242.969 Q1811.99 242.969 1809.88 243.501 Q1807.78 244.034 1805.83 245.099 L1805.83 241.163 Q1808.17 240.261 1810.37 239.821 Q1812.57 239.358 1814.65 239.358 Q1820.28 239.358 1823.06 242.274 Q1825.83 245.191 1825.83 251.117 Z" fill="#000000" fill-rule="evenodd" fill-opacity="1" /><path clip-path="url(#clip560)" d="M1838.82 232.622 L1838.82 239.983 L1847.59 239.983 L1847.59 243.293 L1838.82 243.293 L1838.82 257.367 Q1838.82 260.538 1839.68 261.441 Q1840.56 262.344 1843.22 262.344 L1847.59 262.344 L1847.59 265.909 L1843.22 265.909 Q1838.29 265.909 1836.41 264.08 Q1834.54 262.228 1834.54 257.367 L1834.54 243.293 L1831.41 243.293 L1831.41 239.983 L1834.54 239.983 L1834.54 232.622 L1838.82 232.622 Z" fill="#000000" fill-rule="evenodd" fill-opacity="1" /><path clip-path="url(#clip560)" d="M1852.75 255.677 L1852.75 239.983 L1857.01 239.983 L1857.01 255.515 Q1857.01 259.196 1858.45 261.048 Q1859.88 262.876 1862.75 262.876 Q1866.2 262.876 1868.19 260.677 Q1870.21 258.478 1870.21 254.682 L1870.21 239.983 L1874.47 239.983 L1874.47 265.909 L1870.21 265.909 L1870.21 261.927 Q1868.66 264.288 1866.6 265.446 Q1864.56 266.58 1861.85 266.58 Q1857.38 266.58 1855.07 263.802 Q1852.75 261.024 1852.75 255.677 M1863.47 239.358 L1863.47 239.358 Z" fill="#000000" fill-rule="evenodd" fill-opacity="1" /><path clip-path="url(#clip560)" d="M1898.26 243.964 Q1897.55 243.548 1896.69 243.362 Q1895.86 243.154 1894.84 243.154 Q1891.23 243.154 1889.28 245.515 Q1887.36 247.853 1887.36 252.251 L1887.36 265.909 L1883.08 265.909 L1883.08 239.983 L1887.36 239.983 L1887.36 244.011 Q1888.7 241.649 1890.86 240.515 Q1893.01 239.358 1896.09 239.358 Q1896.53 239.358 1897.06 239.427 Q1897.59 239.474 1898.24 239.589 L1898.26 243.964 Z" fill="#000000" fill-rule="evenodd" fill-opacity="1" /><path clip-path="url(#clip560)" d="M1923.87 251.881 L1923.87 253.964 L1904.28 253.964 Q1904.56 258.362 1906.92 260.677 Q1909.31 262.969 1913.54 262.969 Q1916 262.969 1918.29 262.367 Q1920.6 261.765 1922.87 260.561 L1922.87 264.589 Q1920.58 265.561 1918.17 266.071 Q1915.76 266.58 1913.29 266.58 Q1907.08 266.58 1903.45 262.969 Q1899.84 259.358 1899.84 253.2 Q1899.84 246.835 1903.26 243.108 Q1906.71 239.358 1912.55 239.358 Q1917.78 239.358 1920.81 242.737 Q1923.87 246.094 1923.87 251.881 M1919.61 250.631 Q1919.56 247.136 1917.64 245.052 Q1915.74 242.969 1912.59 242.969 Q1909.03 242.969 1906.87 244.983 Q1904.75 246.997 1904.42 250.654 L1919.61 250.631 Z" fill="#000000" fill-rule="evenodd" fill-opacity="1" /><path clip-path="url(#clip560)" d="M1964.58 240.978 L1964.58 244.96 Q1962.78 243.964 1960.95 243.478 Q1959.14 242.969 1957.29 242.969 Q1953.15 242.969 1950.86 245.608 Q1948.56 248.224 1948.56 252.969 Q1948.56 257.714 1950.86 260.353 Q1953.15 262.969 1957.29 262.969 Q1959.14 262.969 1960.95 262.483 Q1962.78 261.973 1964.58 260.978 L1964.58 264.913 Q1962.8 265.747 1960.88 266.163 Q1958.98 266.58 1956.83 266.58 Q1950.97 266.58 1947.52 262.899 Q1944.07 259.219 1944.07 252.969 Q1944.07 246.626 1947.55 242.992 Q1951.04 239.358 1957.11 239.358 Q1959.07 239.358 1960.95 239.775 Q1962.82 240.168 1964.58 240.978 Z" fill="#000000" fill-rule="evenodd" fill-opacity="1" /><path clip-path="url(#clip560)" d="M1982.04 242.969 Q1978.61 242.969 1976.62 245.654 Q1974.63 248.316 1974.63 252.969 Q1974.63 257.622 1976.6 260.307 Q1978.59 262.969 1982.04 262.969 Q1985.44 262.969 1987.43 260.284 Q1989.42 257.598 1989.42 252.969 Q1989.42 248.362 1987.43 245.677 Q1985.44 242.969 1982.04 242.969 M1982.04 239.358 Q1987.59 239.358 1990.76 242.969 Q1993.93 246.58 1993.93 252.969 Q1993.93 259.335 1990.76 262.969 Q1987.59 266.58 1982.04 266.58 Q1976.46 266.58 1973.29 262.969 Q1970.14 259.335 1970.14 252.969 Q1970.14 246.58 1973.29 242.969 Q1976.46 239.358 1982.04 239.358 Z" fill="#000000" fill-rule="evenodd" fill-opacity="1" /><path clip-path="url(#clip560)" d="M2016.02 243.964 Q2015.3 243.548 2014.44 243.362 Q2013.61 243.154 2012.59 243.154 Q2008.98 243.154 2007.04 245.515 Q2005.11 247.853 2005.11 252.251 L2005.11 265.909 L2000.83 265.909 L2000.83 239.983 L2005.11 239.983 L2005.11 244.011 Q2006.46 241.649 2008.61 240.515 Q2010.76 239.358 2013.84 239.358 Q2014.28 239.358 2014.81 239.427 Q2015.35 239.474 2015.99 239.589 L2016.02 243.964 Z" fill="#000000" fill-rule="evenodd" fill-opacity="1" /><path clip-path="url(#clip560)" d="M2034.67 243.964 Q2033.96 243.548 2033.1 243.362 Q2032.27 243.154 2031.25 243.154 Q2027.64 243.154 2025.69 245.515 Q2023.77 247.853 2023.77 252.251 L2023.77 265.909 L2019.49 265.909 L2019.49 239.983 L2023.77 239.983 L2023.77 244.011 Q2025.11 241.649 2027.27 240.515 Q2029.42 239.358 2032.5 239.358 Q2032.94 239.358 2033.47 239.427 Q2034 239.474 2034.65 239.589 L2034.67 243.964 Z" fill="#000000" fill-rule="evenodd" fill-opacity="1" /><path clip-path="url(#clip560)" d="M2060.28 251.881 L2060.28 253.964 L2040.69 253.964 Q2040.97 258.362 2043.33 260.677 Q2045.72 262.969 2049.95 262.969 Q2052.41 262.969 2054.7 262.367 Q2057.01 261.765 2059.28 260.561 L2059.28 264.589 Q2056.99 265.561 2054.58 266.071 Q2052.17 266.58 2049.7 266.58 Q2043.49 266.58 2039.86 262.969 Q2036.25 259.358 2036.25 253.2 Q2036.25 246.835 2039.67 243.108 Q2043.12 239.358 2048.96 239.358 Q2054.19 239.358 2057.22 242.737 Q2060.28 246.094 2060.28 251.881 M2056.02 250.631 Q2055.97 247.136 2054.05 245.052 Q2052.15 242.969 2049 242.969 Q2045.44 242.969 2043.29 244.983 Q2041.16 246.997 2040.83 250.654 L2056.02 250.631 Z" fill="#000000" fill-rule="evenodd" fill-opacity="1" /><path clip-path="url(#clip560)" d="M2085.92 240.978 L2085.92 244.96 Q2084.12 243.964 2082.29 243.478 Q2080.48 242.969 2078.63 242.969 Q2074.49 242.969 2072.2 245.608 Q2069.91 248.224 2069.91 252.969 Q2069.91 257.714 2072.2 260.353 Q2074.49 262.969 2078.63 262.969 Q2080.48 262.969 2082.29 262.483 Q2084.12 261.973 2085.92 260.978 L2085.92 264.913 Q2084.14 265.747 2082.22 266.163 Q2080.32 266.58 2078.17 266.58 Q2072.31 266.58 2068.86 262.899 Q2065.42 259.219 2065.42 252.969 Q2065.42 246.626 2068.89 242.992 Q2072.38 239.358 2078.45 239.358 Q2080.42 239.358 2082.29 239.775 Q2084.17 240.168 2085.92 240.978 Z" fill="#000000" fill-rule="evenodd" fill-opacity="1" /><path clip-path="url(#clip560)" d="M2097.55 232.622 L2097.55 239.983 L2106.32 239.983 L2106.32 243.293 L2097.55 243.293 L2097.55 257.367 Q2097.55 260.538 2098.4 261.441 Q2099.28 262.344 2101.94 262.344 L2106.32 262.344 L2106.32 265.909 L2101.94 265.909 Q2097.01 265.909 2095.14 264.08 Q2093.26 262.228 2093.26 257.367 L2093.26 243.293 L2090.14 243.293 L2090.14 239.983 L2093.26 239.983 L2093.26 232.622 L2097.55 232.622 Z" fill="#000000" fill-rule="evenodd" fill-opacity="1" /><path clip-path="url(#clip560)" d="M2134.1 251.881 L2134.1 253.964 L2114.51 253.964 Q2114.79 258.362 2117.15 260.677 Q2119.54 262.969 2123.77 262.969 Q2126.23 262.969 2128.52 262.367 Q2130.83 261.765 2133.1 260.561 L2133.1 264.589 Q2130.81 265.561 2128.4 266.071 Q2125.99 266.58 2123.52 266.58 Q2117.31 266.58 2113.68 262.969 Q2110.07 259.358 2110.07 253.2 Q2110.07 246.835 2113.49 243.108 Q2116.94 239.358 2122.78 239.358 Q2128.01 239.358 2131.04 242.737 Q2134.1 246.094 2134.1 251.881 M2129.84 250.631 Q2129.79 247.136 2127.87 245.052 Q2125.97 242.969 2122.82 242.969 Q2119.26 242.969 2117.11 244.983 Q2114.98 246.997 2114.65 250.654 L2129.84 250.631 Z" fill="#000000" fill-rule="evenodd" fill-opacity="1" /><path clip-path="url(#clip560)" d="M2158.15 243.918 L2158.15 229.89 L2162.41 229.89 L2162.41 265.909 L2158.15 265.909 L2158.15 262.02 Q2156.8 264.335 2154.74 265.469 Q2152.71 266.58 2149.84 266.58 Q2145.14 266.58 2142.17 262.83 Q2139.23 259.08 2139.23 252.969 Q2139.23 246.858 2142.17 243.108 Q2145.14 239.358 2149.84 239.358 Q2152.71 239.358 2154.74 240.492 Q2156.8 241.603 2158.15 243.918 M2143.63 252.969 Q2143.63 257.668 2145.55 260.353 Q2147.5 263.015 2150.88 263.015 Q2154.26 263.015 2156.2 260.353 Q2158.15 257.668 2158.15 252.969 Q2158.15 248.27 2156.2 245.608 Q2154.26 242.923 2150.88 242.923 Q2147.5 242.923 2145.55 245.608 Q2143.63 248.27 2143.63 252.969 Z" fill="#000000" fill-rule="evenodd" fill-opacity="1" /><polyline clip-path="url(#clip560)" style="stroke:#c271d2; stroke-linecap:round; stroke-linejoin:round; stroke-width:4; stroke-opacity:1; fill:none" points="1534.16,300.469 1676.35,300.469 "/>
<path clip-path="url(#clip560)" d="M1724.07 303.721 L1724.07 305.804 L1704.49 305.804 Q1704.77 310.202 1707.13 312.517 Q1709.51 314.809 1713.75 314.809 Q1716.2 314.809 1718.5 314.207 Q1720.81 313.605 1723.08 312.401 L1723.08 316.429 Q1720.79 317.401 1718.38 317.911 Q1715.97 318.42 1713.5 318.42 Q1707.29 318.42 1703.66 314.809 Q1700.05 311.198 1700.05 305.04 Q1700.05 298.675 1703.47 294.948 Q1706.92 291.198 1712.76 291.198 Q1717.99 291.198 1721.02 294.577 Q1724.07 297.934 1724.07 303.721 M1719.82 302.471 Q1719.77 298.976 1717.85 296.892 Q1715.95 294.809 1712.8 294.809 Q1709.24 294.809 1707.08 296.823 Q1704.95 298.837 1704.63 302.494 L1719.82 302.471 Z" fill="#000000" fill-rule="evenodd" fill-opacity="1" /><path clip-path="url(#clip560)" d="M1751.78 291.823 L1742.41 304.439 L1752.27 317.749 L1747.25 317.749 L1739.7 307.563 L1732.15 317.749 L1727.13 317.749 L1737.2 304.184 L1727.99 291.823 L1733.01 291.823 L1739.88 301.059 L1746.76 291.823 L1751.78 291.823 Z" fill="#000000" fill-rule="evenodd" fill-opacity="1" /><path clip-path="url(#clip560)" d="M1770.07 304.716 Q1764.91 304.716 1762.92 305.897 Q1760.93 307.077 1760.93 309.925 Q1760.93 312.193 1762.41 313.536 Q1763.91 314.855 1766.48 314.855 Q1770.02 314.855 1772.15 312.355 Q1774.31 309.832 1774.31 305.665 L1774.31 304.716 L1770.07 304.716 M1778.57 302.957 L1778.57 317.749 L1774.31 317.749 L1774.31 313.813 Q1772.85 316.175 1770.67 317.309 Q1768.5 318.42 1765.35 318.42 Q1761.37 318.42 1759.01 316.198 Q1756.67 313.952 1756.67 310.202 Q1756.67 305.827 1759.58 303.605 Q1762.52 301.383 1768.33 301.383 L1774.31 301.383 L1774.31 300.966 Q1774.31 298.027 1772.36 296.429 Q1770.44 294.809 1766.94 294.809 Q1764.72 294.809 1762.62 295.341 Q1760.51 295.874 1758.57 296.939 L1758.57 293.003 Q1760.9 292.101 1763.1 291.661 Q1765.3 291.198 1767.38 291.198 Q1773.01 291.198 1775.79 294.114 Q1778.57 297.031 1778.57 302.957 Z" fill="#000000" fill-rule="evenodd" fill-opacity="1" /><path clip-path="url(#clip560)" d="M1806 292.818 L1806 296.8 Q1804.19 295.804 1802.36 295.318 Q1800.56 294.809 1798.7 294.809 Q1794.56 294.809 1792.27 297.448 Q1789.98 300.064 1789.98 304.809 Q1789.98 309.554 1792.27 312.193 Q1794.56 314.809 1798.7 314.809 Q1800.56 314.809 1802.36 314.323 Q1804.19 313.813 1806 312.818 L1806 316.753 Q1804.21 317.587 1802.29 318.003 Q1800.39 318.42 1798.24 318.42 Q1792.38 318.42 1788.94 314.739 Q1785.49 311.059 1785.49 304.809 Q1785.49 298.466 1788.96 294.832 Q1792.45 291.198 1798.52 291.198 Q1800.49 291.198 1802.36 291.615 Q1804.24 292.008 1806 292.818 Z" fill="#000000" fill-rule="evenodd" fill-opacity="1" /><path clip-path="url(#clip560)" d="M1817.62 284.462 L1817.62 291.823 L1826.39 291.823 L1826.39 295.133 L1817.62 295.133 L1817.62 309.207 Q1817.62 312.378 1818.47 313.281 Q1819.35 314.184 1822.01 314.184 L1826.39 314.184 L1826.39 317.749 L1822.01 317.749 Q1817.08 317.749 1815.21 315.92 Q1813.33 314.068 1813.33 309.207 L1813.33 295.133 L1810.21 295.133 L1810.21 291.823 L1813.33 291.823 L1813.33 284.462 L1817.62 284.462 Z" fill="#000000" fill-rule="evenodd" fill-opacity="1" /></svg>
