<?xml version="1.0" encoding="utf-8"?>
<svg xmlns="http://www.w3.org/2000/svg" xmlns:xlink="http://www.w3.org/1999/xlink" width="600" height="400" viewBox="0 0 2400 1600">
<defs>
  <clipPath id="clip130">
    <rect x="0" y="0" width="2400" height="1600"/>
  </clipPath>
</defs>
<path clip-path="url(#clip130)" d="M0 1600 L2400 1600 L2400 0 L0 0  Z" fill="#ffffff" fill-rule="evenodd" fill-opacity="1"/>
<defs>
  <clipPath id="clip131">
    <rect x="480" y="0" width="1681" height="1600"/>
  </clipPath>
</defs>
<defs>
  <clipPath id="clip132">
    <rect x="252" y="47" width="2101" height="1440"/>
  </clipPath>
</defs>
<path clip-path="url(#clip130)" d="M252.764 1486.45 L2352.76 1486.45 L2352.76 47.2441 L252.764 47.2441  Z" fill="#ffffff" fill-rule="evenodd" fill-opacity="1"/>
<polyline clip-path="url(#clip132)" style="stroke:#000000; stroke-linecap:round; stroke-linejoin:round; stroke-width:2; stroke-opacity:0.1; fill:none" points="271.767,1486.45 271.767,47.2441 "/>
<polyline clip-path="url(#clip132)" style="stroke:#000000; stroke-linecap:round; stroke-linejoin:round; stroke-width:2; stroke-opacity:0.1; fill:none" points="676.078,1486.45 676.078,47.2441 "/>
<polyline clip-path="url(#clip132)" style="stroke:#000000; stroke-linecap:round; stroke-linejoin:round; stroke-width:2; stroke-opacity:0.1; fill:none" points="1080.39,1486.45 1080.39,47.2441 "/>
<polyline clip-path="url(#clip132)" style="stroke:#000000; stroke-linecap:round; stroke-linejoin:round; stroke-width:2; stroke-opacity:0.1; fill:none" points="1484.7,1486.45 1484.7,47.2441 "/>
<polyline clip-path="url(#clip132)" style="stroke:#000000; stroke-linecap:round; stroke-linejoin:round; stroke-width:2; stroke-opacity:0.1; fill:none" points="1889.01,1486.45 1889.01,47.2441 "/>
<polyline clip-path="url(#clip132)" style="stroke:#000000; stroke-linecap:round; stroke-linejoin:round; stroke-width:2; stroke-opacity:0.1; fill:none" points="2293.32,1486.45 2293.32,47.2441 "/>
<polyline clip-path="url(#clip130)" style="stroke:#000000; stroke-linecap:round; stroke-linejoin:round; stroke-width:4; stroke-opacity:1; fill:none" points="252.764,1486.45 2352.76,1486.45 "/>
<polyline clip-path="url(#clip130)" style="stroke:#000000; stroke-linecap:round; stroke-linejoin:round; stroke-width:4; stroke-opacity:1; fill:none" points="271.767,1486.45 271.767,1467.55 "/>
<polyline clip-path="url(#clip130)" style="stroke:#000000; stroke-linecap:round; stroke-linejoin:round; stroke-width:4; stroke-opacity:1; fill:none" points="676.078,1486.45 676.078,1467.55 "/>
<polyline clip-path="url(#clip130)" style="stroke:#000000; stroke-linecap:round; stroke-linejoin:round; stroke-width:4; stroke-opacity:1; fill:none" points="1080.39,1486.45 1080.39,1467.55 "/>
<polyline clip-path="url(#clip130)" style="stroke:#000000; stroke-linecap:round; stroke-linejoin:round; stroke-width:4; stroke-opacity:1; fill:none" points="1484.7,1486.45 1484.7,1467.55 "/>
<polyline clip-path="url(#clip130)" style="stroke:#000000; stroke-linecap:round; stroke-linejoin:round; stroke-width:4; stroke-opacity:1; fill:none" points="1889.01,1486.45 1889.01,1467.55 "/>
<polyline clip-path="url(#clip130)" style="stroke:#000000; stroke-linecap:round; stroke-linejoin:round; stroke-width:4; stroke-opacity:1; fill:none" points="2293.32,1486.45 2293.32,1467.55 "/>
<path clip-path="url(#clip130)" d="M271.767 1517.37 Q268.155 1517.37 266.327 1520.93 Q264.521 1524.47 264.521 1531.6 Q264.521 1538.71 266.327 1542.27 Q268.155 1545.82 271.767 1545.82 Q275.401 1545.82 277.206 1542.27 Q279.035 1538.71 279.035 1531.6 Q279.035 1524.47 277.206 1520.93 Q275.401 1517.37 271.767 1517.37 M271.767 1513.66 Q277.577 1513.66 280.632 1518.27 Q283.711 1522.85 283.711 1531.6 Q283.711 1540.33 280.632 1544.94 Q277.577 1549.52 271.767 1549.52 Q265.956 1549.52 262.878 1544.94 Q259.822 1540.33 259.822 1531.6 Q259.822 1522.85 262.878 1518.27 Q265.956 1513.66 271.767 1513.66 Z" fill="#000000" fill-rule="evenodd" fill-opacity="1" /><path clip-path="url(#clip130)" d="M650.765 1544.91 L658.404 1544.91 L658.404 1518.55 L650.094 1520.21 L650.094 1515.95 L658.358 1514.29 L663.034 1514.29 L663.034 1544.91 L670.673 1544.91 L670.673 1548.85 L650.765 1548.85 L650.765 1544.91 Z" fill="#000000" fill-rule="evenodd" fill-opacity="1" /><path clip-path="url(#clip130)" d="M690.117 1517.37 Q686.506 1517.37 684.677 1520.93 Q682.872 1524.47 682.872 1531.6 Q682.872 1538.71 684.677 1542.27 Q686.506 1545.82 690.117 1545.82 Q693.751 1545.82 695.557 1542.27 Q697.385 1538.71 697.385 1531.6 Q697.385 1524.47 695.557 1520.93 Q693.751 1517.37 690.117 1517.37 M690.117 1513.66 Q695.927 1513.66 698.983 1518.27 Q702.061 1522.85 702.061 1531.6 Q702.061 1540.33 698.983 1544.94 Q695.927 1549.52 690.117 1549.52 Q684.307 1549.52 681.228 1544.94 Q678.173 1540.33 678.173 1531.6 Q678.173 1522.85 681.228 1518.27 Q684.307 1513.66 690.117 1513.66 Z" fill="#000000" fill-rule="evenodd" fill-opacity="1" /><path clip-path="url(#clip130)" d="M1059.16 1544.91 L1075.48 1544.91 L1075.48 1548.85 L1053.54 1548.85 L1053.54 1544.91 Q1056.2 1542.16 1060.78 1537.53 Q1065.39 1532.88 1066.57 1531.53 Q1068.81 1529.01 1069.69 1527.27 Q1070.6 1525.51 1070.6 1523.82 Q1070.6 1521.07 1068.65 1519.33 Q1066.73 1517.6 1063.63 1517.6 Q1061.43 1517.6 1058.98 1518.36 Q1056.55 1519.13 1053.77 1520.68 L1053.77 1515.95 Q1056.59 1514.82 1059.05 1514.24 Q1061.5 1513.66 1063.54 1513.66 Q1068.91 1513.66 1072.1 1516.35 Q1075.3 1519.03 1075.3 1523.52 Q1075.3 1525.65 1074.49 1527.57 Q1073.7 1529.47 1071.59 1532.07 Q1071.01 1532.74 1067.91 1535.95 Q1064.81 1539.15 1059.16 1544.91 Z" fill="#000000" fill-rule="evenodd" fill-opacity="1" /><path clip-path="url(#clip130)" d="M1095.3 1517.37 Q1091.69 1517.37 1089.86 1520.93 Q1088.05 1524.47 1088.05 1531.6 Q1088.05 1538.71 1089.86 1542.27 Q1091.69 1545.82 1095.3 1545.82 Q1098.93 1545.82 1100.74 1542.27 Q1102.56 1538.71 1102.56 1531.6 Q1102.56 1524.47 1100.74 1520.93 Q1098.93 1517.37 1095.3 1517.37 M1095.3 1513.66 Q1101.11 1513.66 1104.16 1518.27 Q1107.24 1522.85 1107.24 1531.6 Q1107.24 1540.33 1104.16 1544.94 Q1101.11 1549.52 1095.3 1549.52 Q1089.49 1549.52 1086.41 1544.94 Q1083.35 1540.33 1083.35 1531.6 Q1083.35 1522.85 1086.41 1518.27 Q1089.49 1513.66 1095.3 1513.66 Z" fill="#000000" fill-rule="evenodd" fill-opacity="1" /><path clip-path="url(#clip130)" d="M1473.54 1530.21 Q1476.9 1530.93 1478.77 1533.2 Q1480.67 1535.47 1480.67 1538.8 Q1480.67 1543.92 1477.15 1546.72 Q1473.64 1549.52 1467.15 1549.52 Q1464.98 1549.52 1462.66 1549.08 Q1460.37 1548.66 1457.92 1547.81 L1457.92 1543.29 Q1459.86 1544.43 1462.18 1545.01 Q1464.49 1545.58 1467.01 1545.58 Q1471.41 1545.58 1473.7 1543.85 Q1476.02 1542.11 1476.02 1538.8 Q1476.02 1535.75 1473.87 1534.03 Q1471.74 1532.3 1467.92 1532.3 L1463.89 1532.3 L1463.89 1528.45 L1468.1 1528.45 Q1471.55 1528.45 1473.38 1527.09 Q1475.21 1525.7 1475.21 1523.11 Q1475.21 1520.45 1473.31 1519.03 Q1471.44 1517.6 1467.92 1517.6 Q1466 1517.6 1463.8 1518.01 Q1461.6 1518.43 1458.96 1519.31 L1458.96 1515.14 Q1461.62 1514.4 1463.94 1514.03 Q1466.27 1513.66 1468.33 1513.66 Q1473.66 1513.66 1476.76 1516.09 Q1479.86 1518.5 1479.86 1522.62 Q1479.86 1525.49 1478.22 1527.48 Q1476.57 1529.45 1473.54 1530.21 Z" fill="#000000" fill-rule="evenodd" fill-opacity="1" /><path clip-path="url(#clip130)" d="M1499.54 1517.37 Q1495.93 1517.37 1494.1 1520.93 Q1492.29 1524.47 1492.29 1531.6 Q1492.29 1538.71 1494.1 1542.27 Q1495.93 1545.82 1499.54 1545.82 Q1503.17 1545.82 1504.98 1542.27 Q1506.81 1538.71 1506.81 1531.6 Q1506.81 1524.47 1504.98 1520.93 Q1503.17 1517.37 1499.54 1517.37 M1499.54 1513.66 Q1505.35 1513.66 1508.4 1518.27 Q1511.48 1522.85 1511.48 1531.6 Q1511.48 1540.33 1508.4 1544.94 Q1505.35 1549.52 1499.54 1549.52 Q1493.73 1549.52 1490.65 1544.94 Q1487.59 1540.33 1487.59 1531.6 Q1487.59 1522.85 1490.65 1518.27 Q1493.73 1513.66 1499.54 1513.66 Z" fill="#000000" fill-rule="evenodd" fill-opacity="1" /><path clip-path="url(#clip130)" d="M1877.18 1518.36 L1865.38 1536.81 L1877.18 1536.81 L1877.18 1518.36 M1875.96 1514.29 L1881.84 1514.29 L1881.84 1536.81 L1886.77 1536.81 L1886.77 1540.7 L1881.84 1540.7 L1881.84 1548.85 L1877.18 1548.85 L1877.18 1540.7 L1861.58 1540.7 L1861.58 1536.19 L1875.96 1514.29 Z" fill="#000000" fill-rule="evenodd" fill-opacity="1" /><path clip-path="url(#clip130)" d="M1904.5 1517.37 Q1900.89 1517.37 1899.06 1520.93 Q1897.25 1524.47 1897.25 1531.6 Q1897.25 1538.71 1899.06 1542.27 Q1900.89 1545.82 1904.5 1545.82 Q1908.13 1545.82 1909.94 1542.27 Q1911.77 1538.71 1911.77 1531.6 Q1911.77 1524.47 1909.94 1520.93 Q1908.13 1517.37 1904.5 1517.37 M1904.5 1513.66 Q1910.31 1513.66 1913.36 1518.27 Q1916.44 1522.85 1916.44 1531.6 Q1916.44 1540.33 1913.36 1544.94 Q1910.31 1549.52 1904.5 1549.52 Q1898.69 1549.52 1895.61 1544.94 Q1892.55 1540.33 1892.55 1531.6 Q1892.55 1522.85 1895.61 1518.27 Q1898.69 1513.66 1904.5 1513.66 Z" fill="#000000" fill-rule="evenodd" fill-opacity="1" /><path clip-path="url(#clip130)" d="M2268.02 1514.29 L2286.38 1514.29 L2286.38 1518.22 L2272.3 1518.22 L2272.3 1526.7 Q2273.32 1526.35 2274.34 1526.19 Q2275.36 1526 2276.38 1526 Q2282.16 1526 2285.54 1529.17 Q2288.92 1532.34 2288.92 1537.76 Q2288.92 1543.34 2285.45 1546.44 Q2281.98 1549.52 2275.66 1549.52 Q2273.48 1549.52 2271.22 1549.15 Q2268.97 1548.78 2266.56 1548.04 L2266.56 1543.34 Q2268.65 1544.47 2270.87 1545.03 Q2273.09 1545.58 2275.57 1545.58 Q2279.57 1545.58 2281.91 1543.48 Q2284.25 1541.37 2284.25 1537.76 Q2284.25 1534.15 2281.91 1532.04 Q2279.57 1529.94 2275.57 1529.94 Q2273.69 1529.94 2271.82 1530.35 Q2269.97 1530.77 2268.02 1531.65 L2268.02 1514.29 Z" fill="#000000" fill-rule="evenodd" fill-opacity="1" /><path clip-path="url(#clip130)" d="M2308.14 1517.37 Q2304.53 1517.37 2302.7 1520.93 Q2300.89 1524.47 2300.89 1531.6 Q2300.89 1538.71 2302.7 1542.27 Q2304.53 1545.82 2308.14 1545.82 Q2311.77 1545.82 2313.58 1542.27 Q2315.41 1538.71 2315.41 1531.6 Q2315.41 1524.47 2313.58 1520.93 Q2311.77 1517.37 2308.14 1517.37 M2308.14 1513.66 Q2313.95 1513.66 2317 1518.27 Q2320.08 1522.85 2320.08 1531.6 Q2320.08 1540.33 2317 1544.94 Q2313.95 1549.52 2308.14 1549.52 Q2302.33 1549.52 2299.25 1544.94 Q2296.19 1540.33 2296.19 1531.6 Q2296.19 1522.85 2299.25 1518.27 Q2302.33 1513.66 2308.14 1513.66 Z" fill="#000000" fill-rule="evenodd" fill-opacity="1" /><polyline clip-path="url(#clip132)" style="stroke:#000000; stroke-linecap:round; stroke-linejoin:round; stroke-width:2; stroke-opacity:0.1; fill:none" points="252.764,1486.45 2352.76,1486.45 "/>
<polyline clip-path="url(#clip132)" style="stroke:#000000; stroke-linecap:round; stroke-linejoin:round; stroke-width:2; stroke-opacity:0.1; fill:none" points="252.764,1126.65 2352.76,1126.65 "/>
<polyline clip-path="url(#clip132)" style="stroke:#000000; stroke-linecap:round; stroke-linejoin:round; stroke-width:2; stroke-opacity:0.1; fill:none" points="252.764,766.846 2352.76,766.846 "/>
<polyline clip-path="url(#clip132)" style="stroke:#000000; stroke-linecap:round; stroke-linejoin:round; stroke-width:2; stroke-opacity:0.1; fill:none" points="252.764,407.045 2352.76,407.045 "/>
<polyline clip-path="url(#clip132)" style="stroke:#000000; stroke-linecap:round; stroke-linejoin:round; stroke-width:2; stroke-opacity:0.1; fill:none" points="252.764,47.2441 2352.76,47.2441 "/>
<polyline clip-path="url(#clip130)" style="stroke:#000000; stroke-linecap:round; stroke-linejoin:round; stroke-width:4; stroke-opacity:1; fill:none" points="252.764,1486.45 252.764,47.2441 "/>
<polyline clip-path="url(#clip130)" style="stroke:#000000; stroke-linecap:round; stroke-linejoin:round; stroke-width:4; stroke-opacity:1; fill:none" points="252.764,1486.45 271.662,1486.45 "/>
<polyline clip-path="url(#clip130)" style="stroke:#000000; stroke-linecap:round; stroke-linejoin:round; stroke-width:4; stroke-opacity:1; fill:none" points="252.764,1126.65 271.662,1126.65 "/>
<polyline clip-path="url(#clip130)" style="stroke:#000000; stroke-linecap:round; stroke-linejoin:round; stroke-width:4; stroke-opacity:1; fill:none" points="252.764,766.846 271.662,766.846 "/>
<polyline clip-path="url(#clip130)" style="stroke:#000000; stroke-linecap:round; stroke-linejoin:round; stroke-width:4; stroke-opacity:1; fill:none" points="252.764,407.045 271.662,407.045 "/>
<polyline clip-path="url(#clip130)" style="stroke:#000000; stroke-linecap:round; stroke-linejoin:round; stroke-width:4; stroke-opacity:1; fill:none" points="252.764,47.2441 271.662,47.2441 "/>
<path clip-path="url(#clip130)" d="M114.931 1506.24 L122.57 1506.24 L122.57 1479.87 L114.26 1481.54 L114.26 1477.28 L122.524 1475.62 L127.2 1475.62 L127.2 1506.24 L134.839 1506.24 L134.839 1510.18 L114.931 1510.18 L114.931 1506.24 Z" fill="#000000" fill-rule="evenodd" fill-opacity="1" /><path clip-path="url(#clip130)" d="M154.283 1478.69 Q150.672 1478.69 148.843 1482.26 Q147.038 1485.8 147.038 1492.93 Q147.038 1500.04 148.843 1503.6 Q150.672 1507.14 154.283 1507.14 Q157.917 1507.14 159.723 1503.6 Q161.552 1500.04 161.552 1492.93 Q161.552 1485.8 159.723 1482.26 Q157.917 1478.69 154.283 1478.69 M154.283 1474.99 Q160.093 1474.99 163.149 1479.6 Q166.227 1484.18 166.227 1492.93 Q166.227 1501.66 163.149 1506.26 Q160.093 1510.85 154.283 1510.85 Q148.473 1510.85 145.394 1506.26 Q142.339 1501.66 142.339 1492.93 Q142.339 1484.18 145.394 1479.6 Q148.473 1474.99 154.283 1474.99 Z" fill="#000000" fill-rule="evenodd" fill-opacity="1" /><path clip-path="url(#clip130)" d="M166.227 1469.09 L190.339 1469.09 L190.339 1472.29 L166.227 1472.29 L166.227 1469.09 Z" fill="#000000" fill-rule="evenodd" fill-opacity="1" /><path clip-path="url(#clip130)" d="M208.978 1458 L199.386 1472.99 L208.978 1472.99 L208.978 1458 M207.981 1454.69 L212.758 1454.69 L212.758 1472.99 L216.764 1472.99 L216.764 1476.14 L212.758 1476.14 L212.758 1482.77 L208.978 1482.77 L208.978 1476.14 L196.301 1476.14 L196.301 1472.48 L207.981 1454.69 Z" fill="#000000" fill-rule="evenodd" fill-opacity="1" /><path clip-path="url(#clip130)" d="M115.853 1146.44 L123.492 1146.44 L123.492 1120.07 L115.182 1121.74 L115.182 1117.48 L123.446 1115.81 L128.121 1115.81 L128.121 1146.44 L135.76 1146.44 L135.76 1150.37 L115.853 1150.37 L115.853 1146.44 Z" fill="#000000" fill-rule="evenodd" fill-opacity="1" /><path clip-path="url(#clip130)" d="M155.205 1118.89 Q151.594 1118.89 149.765 1122.46 Q147.959 1126 147.959 1133.13 Q147.959 1140.24 149.765 1143.8 Q151.594 1147.34 155.205 1147.34 Q158.839 1147.34 160.644 1143.8 Q162.473 1140.24 162.473 1133.13 Q162.473 1126 160.644 1122.46 Q158.839 1118.89 155.205 1118.89 M155.205 1115.19 Q161.015 1115.19 164.07 1119.8 Q167.149 1124.38 167.149 1133.13 Q167.149 1141.86 164.07 1146.46 Q161.015 1151.05 155.205 1151.05 Q149.395 1151.05 146.316 1146.46 Q143.26 1141.86 143.26 1133.13 Q143.26 1124.38 146.316 1119.8 Q149.395 1115.19 155.205 1115.19 Z" fill="#000000" fill-rule="evenodd" fill-opacity="1" /><path clip-path="url(#clip130)" d="M167.149 1109.29 L191.261 1109.29 L191.261 1112.49 L167.149 1112.49 L167.149 1109.29 Z" fill="#000000" fill-rule="evenodd" fill-opacity="1" /><path clip-path="url(#clip130)" d="M210.971 1107.82 Q213.698 1108.41 215.222 1110.25 Q216.764 1112.09 216.764 1114.8 Q216.764 1118.96 213.905 1121.23 Q211.046 1123.51 205.78 1123.51 Q204.012 1123.51 202.132 1123.15 Q200.27 1122.81 198.276 1122.12 L198.276 1118.45 Q199.856 1119.37 201.737 1119.84 Q203.617 1120.31 205.667 1120.31 Q209.241 1120.31 211.103 1118.9 Q212.984 1117.49 212.984 1114.8 Q212.984 1112.32 211.234 1110.93 Q209.504 1109.52 206.401 1109.52 L203.128 1109.52 L203.128 1106.39 L206.551 1106.39 Q209.354 1106.39 210.84 1105.28 Q212.325 1104.16 212.325 1102.05 Q212.325 1099.89 210.783 1098.74 Q209.26 1097.57 206.401 1097.57 Q204.84 1097.57 203.053 1097.91 Q201.266 1098.25 199.122 1098.97 L199.122 1095.58 Q201.285 1094.98 203.166 1094.68 Q205.066 1094.38 206.739 1094.38 Q211.065 1094.38 213.585 1096.35 Q216.106 1098.31 216.106 1101.65 Q216.106 1103.99 214.77 1105.6 Q213.435 1107.2 210.971 1107.82 Z" fill="#000000" fill-rule="evenodd" fill-opacity="1" /><path clip-path="url(#clip130)" d="M116.624 786.638 L124.263 786.638 L124.263 760.273 L115.953 761.939 L115.953 757.68 L124.217 756.014 L128.893 756.014 L128.893 786.638 L136.531 786.638 L136.531 790.574 L116.624 790.574 L116.624 786.638 Z" fill="#000000" fill-rule="evenodd" fill-opacity="1" /><path clip-path="url(#clip130)" d="M155.976 759.092 Q152.365 759.092 150.536 762.657 Q148.73 766.199 148.73 773.328 Q148.73 780.435 150.536 784 Q152.365 787.541 155.976 787.541 Q159.61 787.541 161.416 784 Q163.244 780.435 163.244 773.328 Q163.244 766.199 161.416 762.657 Q159.61 759.092 155.976 759.092 M155.976 755.389 Q161.786 755.389 164.841 759.995 Q167.92 764.578 167.92 773.328 Q167.92 782.055 164.841 786.662 Q161.786 791.245 155.976 791.245 Q150.166 791.245 147.087 786.662 Q144.031 782.055 144.031 773.328 Q144.031 764.578 147.087 759.995 Q150.166 755.389 155.976 755.389 Z" fill="#000000" fill-rule="evenodd" fill-opacity="1" /><path clip-path="url(#clip130)" d="M167.92 749.49 L192.032 749.49 L192.032 752.687 L167.92 752.687 L167.92 749.49 Z" fill="#000000" fill-rule="evenodd" fill-opacity="1" /><path clip-path="url(#clip130)" d="M203.504 759.966 L216.764 759.966 L216.764 763.163 L198.934 763.163 L198.934 759.966 Q201.097 757.728 204.821 753.966 Q208.564 750.186 209.523 749.095 Q211.347 747.045 212.062 745.634 Q212.796 744.205 212.796 742.832 Q212.796 740.594 211.216 739.183 Q209.655 737.773 207.134 737.773 Q205.348 737.773 203.354 738.393 Q201.379 739.014 199.122 740.274 L199.122 736.437 Q201.417 735.516 203.41 735.046 Q205.404 734.575 207.059 734.575 Q211.423 734.575 214.018 736.757 Q216.613 738.939 216.613 742.587 Q216.613 744.318 215.955 745.879 Q215.316 747.421 213.604 749.528 Q213.134 750.073 210.614 752.687 Q208.094 755.283 203.504 759.966 Z" fill="#000000" fill-rule="evenodd" fill-opacity="1" /><path clip-path="url(#clip130)" d="M116.323 426.837 L123.962 426.837 L123.962 400.472 L115.652 402.139 L115.652 397.879 L123.916 396.213 L128.592 396.213 L128.592 426.837 L136.231 426.837 L136.231 430.773 L116.323 430.773 L116.323 426.837 Z" fill="#000000" fill-rule="evenodd" fill-opacity="1" /><path clip-path="url(#clip130)" d="M155.675 399.291 Q152.064 399.291 150.235 402.856 Q148.43 406.398 148.43 413.527 Q148.43 420.634 150.235 424.199 Q152.064 427.74 155.675 427.74 Q159.309 427.74 161.115 424.199 Q162.943 420.634 162.943 413.527 Q162.943 406.398 161.115 402.856 Q159.309 399.291 155.675 399.291 M155.675 395.588 Q161.485 395.588 164.541 400.194 Q167.619 404.777 167.619 413.527 Q167.619 422.254 164.541 426.861 Q161.485 431.444 155.675 431.444 Q149.865 431.444 146.786 426.861 Q143.73 422.254 143.73 413.527 Q143.73 404.777 146.786 400.194 Q149.865 395.588 155.675 395.588 Z" fill="#000000" fill-rule="evenodd" fill-opacity="1" /><path clip-path="url(#clip130)" d="M167.619 389.689 L191.731 389.689 L191.731 392.886 L167.619 392.886 L167.619 389.689 Z" fill="#000000" fill-rule="evenodd" fill-opacity="1" /><path clip-path="url(#clip130)" d="M200.589 400.165 L206.796 400.165 L206.796 378.743 L200.044 380.097 L200.044 376.636 L206.758 375.282 L210.557 375.282 L210.557 400.165 L216.764 400.165 L216.764 403.362 L200.589 403.362 L200.589 400.165 Z" fill="#000000" fill-rule="evenodd" fill-opacity="1" /><path clip-path="url(#clip130)" d="M146.058 67.0365 L153.697 67.0365 L153.697 40.6709 L145.387 42.3376 L145.387 38.0784 L153.651 36.4117 L158.327 36.4117 L158.327 67.0365 L165.966 67.0365 L165.966 70.9717 L146.058 70.9717 L146.058 67.0365 Z" fill="#000000" fill-rule="evenodd" fill-opacity="1" /><path clip-path="url(#clip130)" d="M185.41 39.4904 Q181.799 39.4904 179.97 43.0552 Q178.165 46.5968 178.165 53.7264 Q178.165 60.8329 179.97 64.3977 Q181.799 67.9393 185.41 67.9393 Q189.044 67.9393 190.85 64.3977 Q192.678 60.8329 192.678 53.7264 Q192.678 46.5968 190.85 43.0552 Q189.044 39.4904 185.41 39.4904 M185.41 35.7867 Q191.22 35.7867 194.276 40.3932 Q197.354 44.9765 197.354 53.7264 Q197.354 62.4532 194.276 67.0597 Q191.22 71.643 185.41 71.643 Q179.6 71.643 176.521 67.0597 Q173.466 62.4532 173.466 53.7264 Q173.466 44.9765 176.521 40.3932 Q179.6 35.7867 185.41 35.7867 Z" fill="#000000" fill-rule="evenodd" fill-opacity="1" /><path clip-path="url(#clip130)" d="M207.059 17.9827 Q204.125 17.9827 202.639 20.8791 Q201.172 23.7567 201.172 29.5495 Q201.172 35.3235 202.639 38.2199 Q204.125 41.0975 207.059 41.0975 Q210.012 41.0975 211.479 38.2199 Q212.965 35.3235 212.965 29.5495 Q212.965 23.7567 211.479 20.8791 Q210.012 17.9827 207.059 17.9827 M207.059 14.9735 Q211.78 14.9735 214.263 18.7162 Q216.764 22.4402 216.764 29.5495 Q216.764 36.64 214.263 40.3828 Q211.78 44.1067 207.059 44.1067 Q202.338 44.1067 199.837 40.3828 Q197.354 36.64 197.354 29.5495 Q197.354 22.4402 199.837 18.7162 Q202.338 14.9735 207.059 14.9735 Z" fill="#000000" fill-rule="evenodd" fill-opacity="1" /><path clip-path="url(#clip130)" d="M27.9392 788.742 Q28.6155 788.742 29.163 789.322 Q29.7105 789.87 29.7105 790.546 Q29.7105 790.932 29.0664 791.866 Q27.1985 794.539 27.1985 797.921 Q27.1985 800.948 27.9392 803.75 Q28.6799 806.552 30.1936 808.452 Q31.6751 810.32 33.6074 810.32 Q36.0229 810.32 37.4399 807.679 Q36.1839 804.942 36.1839 801.56 Q36.1839 800.465 36.2483 799.725 Q36.3127 798.952 36.4738 798.211 Q36.6348 797.47 37.0213 797.116 Q37.3755 796.729 37.9552 796.729 Q40.0164 796.729 40.0164 802.076 Q40.0164 805.554 39.0824 807.744 Q40.4673 810.546 42.6895 812.092 Q44.9117 813.637 46.8118 813.637 Q48.4543 813.637 49.646 812.736 Q50.8376 811.802 51.4173 810.288 Q51.997 808.742 52.2546 807.228 Q52.4801 805.683 52.4801 803.976 Q52.4801 801.174 52.1258 799.209 Q51.7393 797.212 51.0308 796.117 Q50.3223 794.99 49.8392 794.539 Q49.3239 794.056 48.5187 793.573 Q48.0679 793.283 48.0679 792.897 Q48.0679 792.607 48.2611 792.414 Q48.4221 792.188 48.712 792.188 Q49.0662 792.188 49.807 792.639 Q50.5477 793.058 51.5461 794.088 Q52.5123 795.087 53.414 796.472 Q54.2836 797.824 54.8955 799.982 Q55.5074 802.14 55.5074 804.588 Q55.5074 809.58 53.0598 812.478 Q50.6121 815.344 47.1983 815.344 Q44.8151 815.344 42.3674 813.766 Q39.8876 812.156 38.3095 809.322 Q36.3449 811.963 33.6074 811.963 Q31.1598 811.963 28.9698 809.902 Q26.7798 807.808 25.4916 804.427 Q24.1711 801.013 24.1711 797.277 Q24.1711 795.183 24.8796 793.122 Q25.556 791.061 26.4255 789.902 Q27.2951 788.742 27.9392 788.742 M38.0196 798.436 Q37.6332 799.853 37.6332 801.56 Q37.6332 803.879 38.2129 805.586 Q38.5671 804.201 38.5671 802.076 Q38.5671 800.304 38.4705 799.789 Q38.3739 799.241 38.0196 798.436 Z" fill="#000000" fill-rule="evenodd" fill-opacity="1" /><path clip-path="url(#clip130)" d="M57.1294 763.159 Q58.3243 763.159 59.0908 763.948 Q59.8573 764.714 59.8573 765.706 Q59.8573 766.563 59.3613 767.014 Q58.8653 767.465 58.2341 767.465 Q57.3323 767.465 56.5884 766.766 Q55.8444 766.067 55.6866 765.053 Q55.1455 765.796 55.1455 766.991 Q55.1455 768.953 56.656 770.689 Q57.3549 771.455 58.6399 772.289 Q59.9023 773.123 60.4434 773.281 L66.4627 774.746 Q67.139 774.882 70.3854 775.716 Q73.6092 776.527 73.7444 776.595 Q74.3757 776.821 74.7138 777.317 Q75.052 777.812 75.052 778.308 Q75.052 778.872 74.7138 779.255 Q74.3757 779.639 73.7895 779.639 Q73.6993 779.639 73.3612 779.571 Q73.023 779.503 72.5496 779.391 Q72.0762 779.278 71.8056 779.233 L61.1423 776.55 Q59.2035 776.054 58.5948 775.941 Q57.9636 775.806 57.2647 775.806 Q56.0473 775.806 55.5964 776.189 Q55.1455 776.573 55.1455 777.249 Q55.1455 778.421 56.5433 779.188 Q57.941 779.954 60.6463 780.608 Q61.3903 780.811 61.5481 780.946 Q61.7059 781.059 61.7059 781.397 Q61.6833 781.961 61.2324 781.961 Q61.1197 781.961 60.3983 781.78 Q59.6544 781.6 58.5722 781.262 Q57.4676 780.901 56.7687 780.518 Q56.2953 780.292 55.9797 780.089 Q55.6641 779.887 55.1681 779.481 Q54.6721 779.075 54.4016 778.466 Q54.1311 777.858 54.1311 777.114 Q54.1311 775.49 55.123 774.341 Q56.1149 773.168 57.6705 772.898 Q56.8589 772.334 56.16 771.635 Q55.4386 770.937 54.7848 769.652 Q54.1311 768.367 54.1311 766.991 Q54.1311 765.278 55.0103 764.218 Q55.867 763.159 57.1294 763.159 Z" fill="#000000" fill-rule="evenodd" fill-opacity="1" /><path clip-path="url(#clip130)" d="M69.1905 742.748 Q69.3934 742.568 69.5963 742.568 Q69.7992 742.568 70.3854 743.019 Q70.9715 743.447 71.7605 744.371 Q72.5496 745.296 73.2935 746.491 Q74.0375 747.685 74.5335 749.444 Q75.052 751.202 75.052 753.051 Q75.052 756.365 72.6849 758.349 Q70.3177 760.31 66.6881 760.31 Q64.3661 760.31 62.3146 759.544 Q60.2405 758.777 58.7751 757.537 Q57.3098 756.275 56.2502 754.697 Q55.1681 753.096 54.6496 751.428 Q54.1311 749.759 54.1311 748.204 Q54.1311 745.927 55.2808 744.597 Q56.4306 743.267 58.0537 743.267 Q58.437 743.267 58.9104 743.379 Q59.3838 743.47 60.1278 743.785 Q60.8717 744.078 61.6157 744.845 Q62.3371 745.611 62.8105 746.739 Q63.8701 749.241 63.8701 753.795 L63.8701 756.252 Q66.7783 756.974 68.672 756.974 Q69.416 756.974 70.1825 756.838 Q70.9264 756.703 71.8733 756.342 Q72.8201 755.959 73.4288 755.102 Q74.015 754.223 74.015 752.961 Q74.015 752.555 73.9924 752.127 Q73.9699 751.676 73.7219 750.548 Q73.4739 749.399 73.0456 748.384 Q72.6172 747.37 71.6929 746.085 Q70.7461 744.777 69.461 743.74 Q68.9876 743.379 68.9876 743.131 Q68.9876 742.929 69.1905 742.748 M58.0537 744.8 Q56.8138 744.8 55.9797 745.724 Q55.1455 746.626 55.1455 748.204 Q55.1455 748.7 55.2583 749.309 Q55.371 749.917 55.8444 750.932 Q56.3178 751.924 57.1069 752.803 Q57.8734 753.682 59.3838 754.561 Q60.8717 755.441 62.8556 755.959 L62.8556 754.065 Q62.8556 753.412 62.8556 752.938 Q62.8331 752.465 62.7429 751.428 Q62.6527 750.368 62.4949 749.602 Q62.3146 748.835 61.9539 747.866 Q61.5932 746.896 61.1197 746.288 Q60.6238 745.656 59.8347 745.228 Q59.0457 744.8 58.0537 744.8 Z" fill="#000000" fill-rule="evenodd" fill-opacity="1" /><path clip-path="url(#clip130)" d="M42.9943 729.134 L69.6865 735.784 Q70.7461 736.055 71.8958 736.055 Q74.015 736.055 74.015 734.657 Q74.015 734.003 73.5866 733.462 Q73.1357 732.921 72.2565 732.516 Q71.3548 732.087 70.4981 731.817 Q69.6414 731.524 68.3113 731.163 Q67.7928 731.05 67.635 730.937 Q67.4772 730.825 67.4772 730.509 Q67.4772 729.946 67.928 729.946 Q70.701 730.509 72.4594 731.343 Q75.052 732.561 75.052 734.815 Q75.052 736.506 73.8797 737.768 Q72.6849 739.008 70.7911 739.008 Q70.0697 739.008 69.2131 738.783 L46.1279 732.966 L45.2261 732.809 Q44.9782 732.809 44.8429 732.899 Q44.7076 732.989 44.5724 733.53 Q44.4371 734.049 44.4371 735.086 Q44.4371 735.514 44.4145 735.717 Q44.392 735.897 44.2793 736.078 Q44.1666 736.235 43.9186 736.235 Q43.5128 736.235 43.2873 736.078 Q43.0619 735.897 43.0168 735.762 Q42.9717 735.627 42.9492 735.356 Q42.9266 734.973 42.8139 733.688 Q42.6787 732.403 42.5885 731.298 Q42.4983 730.194 42.4983 729.72 Q42.4983 729.45 42.6336 729.314 Q42.7463 729.156 42.8815 729.134 L42.9943 729.134 Z" fill="#000000" fill-rule="evenodd" fill-opacity="1" /><polyline clip-path="url(#clip132)" style="stroke:#009af9; stroke-linecap:round; stroke-linejoin:round; stroke-width:4; stroke-opacity:1; fill:none" points="312.198,540.786 352.629,543.468 393.06,545.656 433.491,547.441 473.922,548.896 514.353,550.085 554.784,551.056 595.215,551.851 635.647,552.503 676.078,553.04 716.509,553.482 756.94,553.847 797.371,554.15 837.802,554.402 878.233,554.612 918.664,554.788 959.095,554.935 999.527,555.059 1039.96,555.163 1080.39,555.251 1120.82,555.325 1161.25,555.389 1201.68,555.442 1242.11,555.488 1282.54,555.526 1322.98,555.559 1363.41,555.587 1403.84,555.611 1444.27,555.631 1484.7,555.648 1525.13,555.663 1565.56,555.675 1605.99,555.685 1646.42,555.693 1686.86,555.7 1727.29,555.705 1767.72,555.71 1808.15,555.713 1848.58,555.716 1889.01,555.718 1929.44,555.719 1969.87,555.72 2010.3,555.72 2050.74,555.719 2091.17,555.719 2131.6,555.718 2172.03,555.717 2212.46,555.715 2252.89,555.714 2293.32,555.712 "/>
<polyline clip-path="url(#clip132)" style="stroke:#e26f46; stroke-linecap:round; stroke-linejoin:round; stroke-width:4; stroke-opacity:1; fill:none" points="312.198,837.626 352.629,844.986 393.06,851.215 433.491,856.479 473.922,860.926 514.353,864.687 554.784,867.875 595.215,870.585 635.647,872.898 676.078,874.879 716.509,876.585 756.94,878.061 797.371,879.344 837.802,880.465 878.233,881.449 918.664,882.316 959.095,883.085 999.527,883.768 1039.96,884.377 1080.39,884.923 1120.82,885.412 1161.25,885.854 1201.68,886.252 1242.11,886.612 1282.54,886.939 1322.98,887.235 1363.41,887.505 1403.84,887.751 1444.27,887.975 1484.7,888.179 1525.13,888.366 1565.56,888.537 1605.99,888.693 1646.42,888.837 1686.86,888.968 1727.29,889.089 1767.72,889.2 1808.15,889.302 1848.58,889.396 1889.01,889.482 1929.44,889.562 1969.87,889.635 2010.3,889.703 2050.74,889.765 2091.17,889.823 2131.6,889.877 2172.03,889.927 2212.46,889.973 2252.89,890.015 2293.32,890.055 "/>
<polyline clip-path="url(#clip132)" style="stroke:#3da44d; stroke-linecap:round; stroke-linejoin:round; stroke-width:4; stroke-opacity:1; fill:none" points="312.198,923.619 352.629,929.534 393.06,934.427 433.491,938.459 473.922,941.771 514.353,944.489 554.784,946.716 595.215,948.541 635.647,950.038 676.078,951.267 716.509,952.279 756.94,953.113 797.371,953.803 837.802,954.375 878.233,954.853 918.664,955.253 959.095,955.589 999.527,955.874 1039.96,956.117 1080.39,956.325 1120.82,956.504 1161.25,956.66 1201.68,956.797 1242.11,956.918 1282.54,957.026 1322.98,957.123 1363.41,957.21 1403.84,957.29 1444.27,957.363 1484.7,957.431 1525.13,957.495 1565.56,957.554 1605.99,957.61 1646.42,957.662 1686.86,957.713 1727.29,957.761 1767.72,957.807 1808.15,957.851 1848.58,957.893 1889.01,957.934 1929.44,957.974 1969.87,958.013 2010.3,958.05 2050.74,958.086 2091.17,958.121 2131.6,958.155 2172.03,958.189 2212.46,958.221 2252.89,958.253 2293.32,958.283 "/>
<polyline clip-path="url(#clip132)" style="stroke:#c271d2; stroke-linecap:round; stroke-linejoin:round; stroke-width:4; stroke-opacity:1; fill:none" points="312.198,1016.9 352.629,1020.25 393.06,1022.97 433.491,1025.19 473.922,1026.99 514.353,1028.46 554.784,1029.67 595.215,1030.67 635.647,1031.49 676.078,1032.19 716.509,1032.77 756.94,1033.27 797.371,1033.7 837.802,1034.08 878.233,1034.41 918.664,1034.7 959.095,1034.96 999.527,1035.2 1039.96,1035.42 1080.39,1035.62 1120.82,1035.81 1161.25,1035.98 1201.68,1036.15 1242.11,1036.31 1282.54,1036.45 1322.98,1036.6 1363.41,1036.73 1403.84,1036.86 1444.27,1036.98 1484.7,1037.1 1525.13,1037.22 1565.56,1037.33 1605.99,1037.43 1646.42,1037.54 1686.86,1037.63 1727.29,1037.73 1767.72,1037.82 1808.15,1037.91 1848.58,1038 1889.01,1038.08 1929.44,1038.16 1969.87,1038.23 2010.3,1038.31 2050.74,1038.38 2091.17,1038.45 2131.6,1038.52 2172.03,1038.58 2212.46,1038.64 2252.89,1038.7 2293.32,1038.76 "/>
<polyline clip-path="url(#clip132)" style="stroke:#ac8d18; stroke-linecap:round; stroke-linejoin:round; stroke-width:4; stroke-opacity:1; fill:none" points="312.198,1143.16 352.629,1146.15 393.06,1148.59 433.491,1150.58 473.922,1152.2 514.353,1153.52 554.784,1154.6 595.215,1155.49 635.647,1156.23 676.078,1156.84 716.509,1157.35 756.94,1157.79 797.371,1158.15 837.802,1158.47 878.233,1158.75 918.664,1158.99 959.095,1159.21 999.527,1159.4 1039.96,1159.58 1080.39,1159.74 1120.82,1159.89 1161.25,1160.03 1201.68,1160.16 1242.11,1160.29 1282.54,1160.41 1322.98,1160.52 1363.41,1160.63 1403.84,1160.74 1444.27,1160.84 1484.7,1160.94 1525.13,1161.03 1565.56,1161.13 1605.99,1161.22 1646.42,1161.31 1686.86,1161.4 1727.29,1161.48 1767.72,1161.56 1808.15,1161.64 1848.58,1161.72 1889.01,1161.8 1929.44,1161.88 1969.87,1161.95 2010.3,1162.02 2050.74,1162.09 2091.17,1162.16 2131.6,1162.23 2172.03,1162.3 2212.46,1162.36 2252.89,1162.42 2293.32,1162.49 "/>
<path clip-path="url(#clip130)" d="M1928.45 406.258 L2282.76 406.258 L2282.76 95.2176 L1928.45 95.2176  Z" fill="#ffffff" fill-rule="evenodd" fill-opacity="1"/>
<polyline clip-path="url(#clip130)" style="stroke:#000000; stroke-linecap:round; stroke-linejoin:round; stroke-width:4; stroke-opacity:1; fill:none" points="1928.45,406.258 2282.76,406.258 2282.76,95.2176 1928.45,95.2176 1928.45,406.258 "/>
<polyline clip-path="url(#clip130)" style="stroke:#009af9; stroke-linecap:round; stroke-linejoin:round; stroke-width:4; stroke-opacity:1; fill:none" points="1951.79,147.058 2091.78,147.058 "/>
<path clip-path="url(#clip130)" d="M2130.3 142.393 Q2129.59 141.977 2128.73 141.791 Q2127.9 141.583 2126.88 141.583 Q2123.27 141.583 2121.32 143.944 Q2119.4 146.282 2119.4 150.68 L2119.4 164.338 L2115.12 164.338 L2115.12 138.412 L2119.4 138.412 L2119.4 142.44 Q2120.74 140.078 2122.9 138.944 Q2125.05 137.787 2128.13 137.787 Q2128.57 137.787 2129.1 137.856 Q2129.63 137.903 2130.28 138.018 L2130.3 142.393 Z" fill="#000000" fill-rule="evenodd" fill-opacity="1" /><path clip-path="url(#clip130)" d="M2146.55 151.305 Q2141.39 151.305 2139.4 152.486 Q2137.41 153.666 2137.41 156.514 Q2137.41 158.782 2138.89 160.125 Q2140.4 161.444 2142.97 161.444 Q2146.51 161.444 2148.64 158.944 Q2150.79 156.421 2150.79 152.254 L2150.79 151.305 L2146.55 151.305 M2155.05 149.546 L2155.05 164.338 L2150.79 164.338 L2150.79 160.402 Q2149.33 162.763 2147.16 163.898 Q2144.98 165.009 2141.83 165.009 Q2137.85 165.009 2135.49 162.787 Q2133.15 160.541 2133.15 156.791 Q2133.15 152.416 2136.07 150.194 Q2139.01 147.972 2144.82 147.972 L2150.79 147.972 L2150.79 147.555 Q2150.79 144.615 2148.84 143.018 Q2146.92 141.398 2143.43 141.398 Q2141.21 141.398 2139.1 141.93 Q2136.99 142.463 2135.05 143.527 L2135.05 139.592 Q2137.39 138.69 2139.59 138.25 Q2141.78 137.787 2143.87 137.787 Q2149.49 137.787 2152.27 140.703 Q2155.05 143.62 2155.05 149.546 Z" fill="#000000" fill-rule="evenodd" fill-opacity="1" /><path clip-path="url(#clip130)" d="M2185.37 148.689 L2185.37 164.338 L2181.11 164.338 L2181.11 148.828 Q2181.11 145.148 2179.68 143.319 Q2178.24 141.49 2175.37 141.49 Q2171.92 141.49 2169.93 143.69 Q2167.94 145.889 2167.94 149.685 L2167.94 164.338 L2163.66 164.338 L2163.66 138.412 L2167.94 138.412 L2167.94 142.44 Q2169.47 140.102 2171.53 138.944 Q2173.61 137.787 2176.32 137.787 Q2180.79 137.787 2183.08 140.565 Q2185.37 143.319 2185.37 148.689 Z" fill="#000000" fill-rule="evenodd" fill-opacity="1" /><path clip-path="url(#clip130)" d="M2193.71 128.319 L2197.99 128.319 L2197.99 149.592 L2210.7 138.412 L2216.14 138.412 L2202.39 150.541 L2216.71 164.338 L2211.16 164.338 L2197.99 151.676 L2197.99 164.338 L2193.71 164.338 L2193.71 128.319 Z" fill="#000000" fill-rule="evenodd" fill-opacity="1" /><path clip-path="url(#clip130)" d="M2237.8 160.402 L2245.44 160.402 L2245.44 134.037 L2237.13 135.703 L2237.13 131.444 L2245.4 129.778 L2250.07 129.778 L2250.07 160.402 L2257.71 160.402 L2257.71 164.338 L2237.8 164.338 L2237.8 160.402 Z" fill="#000000" fill-rule="evenodd" fill-opacity="1" /><polyline clip-path="url(#clip130)" style="stroke:#e26f46; stroke-linecap:round; stroke-linejoin:round; stroke-width:4; stroke-opacity:1; fill:none" points="1951.79,198.898 2091.78,198.898 "/>
<path clip-path="url(#clip130)" d="M2130.3 194.233 Q2129.59 193.817 2128.73 193.631 Q2127.9 193.423 2126.88 193.423 Q2123.27 193.423 2121.32 195.784 Q2119.4 198.122 2119.4 202.52 L2119.4 216.178 L2115.12 216.178 L2115.12 190.252 L2119.4 190.252 L2119.4 194.28 Q2120.74 191.918 2122.9 190.784 Q2125.05 189.627 2128.13 189.627 Q2128.57 189.627 2129.1 189.696 Q2129.63 189.743 2130.28 189.858 L2130.3 194.233 Z" fill="#000000" fill-rule="evenodd" fill-opacity="1" /><path clip-path="url(#clip130)" d="M2146.55 203.145 Q2141.39 203.145 2139.4 204.326 Q2137.41 205.506 2137.41 208.354 Q2137.41 210.622 2138.89 211.965 Q2140.4 213.284 2142.97 213.284 Q2146.51 213.284 2148.64 210.784 Q2150.79 208.261 2150.79 204.094 L2150.79 203.145 L2146.55 203.145 M2155.05 201.386 L2155.05 216.178 L2150.79 216.178 L2150.79 212.242 Q2149.33 214.603 2147.16 215.738 Q2144.98 216.849 2141.83 216.849 Q2137.85 216.849 2135.49 214.627 Q2133.15 212.381 2133.15 208.631 Q2133.15 204.256 2136.07 202.034 Q2139.01 199.812 2144.82 199.812 L2150.79 199.812 L2150.79 199.395 Q2150.79 196.455 2148.84 194.858 Q2146.92 193.238 2143.43 193.238 Q2141.21 193.238 2139.1 193.77 Q2136.99 194.303 2135.05 195.367 L2135.05 191.432 Q2137.39 190.53 2139.59 190.09 Q2141.78 189.627 2143.87 189.627 Q2149.49 189.627 2152.27 192.543 Q2155.05 195.46 2155.05 201.386 Z" fill="#000000" fill-rule="evenodd" fill-opacity="1" /><path clip-path="url(#clip130)" d="M2185.37 200.529 L2185.37 216.178 L2181.11 216.178 L2181.11 200.668 Q2181.11 196.988 2179.68 195.159 Q2178.24 193.33 2175.37 193.33 Q2171.92 193.33 2169.93 195.53 Q2167.94 197.729 2167.94 201.525 L2167.94 216.178 L2163.66 216.178 L2163.66 190.252 L2167.94 190.252 L2167.94 194.28 Q2169.47 191.942 2171.53 190.784 Q2173.61 189.627 2176.32 189.627 Q2180.79 189.627 2183.08 192.405 Q2185.37 195.159 2185.37 200.529 Z" fill="#000000" fill-rule="evenodd" fill-opacity="1" /><path clip-path="url(#clip130)" d="M2193.71 180.159 L2197.99 180.159 L2197.99 201.432 L2210.7 190.252 L2216.14 190.252 L2202.39 202.381 L2216.71 216.178 L2211.16 216.178 L2197.99 203.516 L2197.99 216.178 L2193.71 216.178 L2193.71 180.159 Z" fill="#000000" fill-rule="evenodd" fill-opacity="1" /><path clip-path="url(#clip130)" d="M2241.02 212.242 L2257.34 212.242 L2257.34 216.178 L2235.4 216.178 L2235.4 212.242 Q2238.06 209.488 2242.64 204.858 Q2247.25 200.205 2248.43 198.863 Q2250.67 196.34 2251.55 194.604 Q2252.46 192.844 2252.46 191.155 Q2252.46 188.4 2250.51 186.664 Q2248.59 184.928 2245.49 184.928 Q2243.29 184.928 2240.84 185.692 Q2238.4 186.455 2235.63 188.006 L2235.63 183.284 Q2238.45 182.15 2240.9 181.571 Q2243.36 180.993 2245.4 180.993 Q2250.77 180.993 2253.96 183.678 Q2257.15 186.363 2257.15 190.854 Q2257.15 192.983 2256.34 194.905 Q2255.56 196.803 2253.45 199.395 Q2252.87 200.067 2249.77 203.284 Q2246.67 206.479 2241.02 212.242 Z" fill="#000000" fill-rule="evenodd" fill-opacity="1" /><polyline clip-path="url(#clip130)" style="stroke:#3da44d; stroke-linecap:round; stroke-linejoin:round; stroke-width:4; stroke-opacity:1; fill:none" points="1951.79,250.738 2091.78,250.738 "/>
<path clip-path="url(#clip130)" d="M2130.3 246.073 Q2129.59 245.657 2128.73 245.471 Q2127.9 245.263 2126.88 245.263 Q2123.27 245.263 2121.32 247.624 Q2119.4 249.962 2119.4 254.36 L2119.4 268.018 L2115.12 268.018 L2115.12 242.092 L2119.4 242.092 L2119.4 246.12 Q2120.74 243.758 2122.9 242.624 Q2125.05 241.467 2128.13 241.467 Q2128.57 241.467 2129.1 241.536 Q2129.63 241.583 2130.28 241.698 L2130.3 246.073 Z" fill="#000000" fill-rule="evenodd" fill-opacity="1" /><path clip-path="url(#clip130)" d="M2146.55 254.985 Q2141.39 254.985 2139.4 256.166 Q2137.41 257.346 2137.41 260.194 Q2137.41 262.462 2138.89 263.805 Q2140.4 265.124 2142.97 265.124 Q2146.51 265.124 2148.64 262.624 Q2150.79 260.101 2150.79 255.934 L2150.79 254.985 L2146.55 254.985 M2155.05 253.226 L2155.05 268.018 L2150.79 268.018 L2150.79 264.082 Q2149.33 266.443 2147.16 267.578 Q2144.98 268.689 2141.83 268.689 Q2137.85 268.689 2135.49 266.467 Q2133.15 264.221 2133.15 260.471 Q2133.15 256.096 2136.07 253.874 Q2139.01 251.652 2144.82 251.652 L2150.79 251.652 L2150.79 251.235 Q2150.79 248.295 2148.84 246.698 Q2146.92 245.078 2143.43 245.078 Q2141.21 245.078 2139.1 245.61 Q2136.99 246.143 2135.05 247.207 L2135.05 243.272 Q2137.39 242.37 2139.59 241.93 Q2141.78 241.467 2143.87 241.467 Q2149.49 241.467 2152.27 244.383 Q2155.05 247.3 2155.05 253.226 Z" fill="#000000" fill-rule="evenodd" fill-opacity="1" /><path clip-path="url(#clip130)" d="M2185.37 252.369 L2185.37 268.018 L2181.11 268.018 L2181.11 252.508 Q2181.11 248.828 2179.68 246.999 Q2178.24 245.17 2175.37 245.17 Q2171.92 245.17 2169.93 247.37 Q2167.94 249.569 2167.94 253.365 L2167.94 268.018 L2163.66 268.018 L2163.66 242.092 L2167.94 242.092 L2167.94 246.12 Q2169.47 243.782 2171.53 242.624 Q2173.61 241.467 2176.32 241.467 Q2180.79 241.467 2183.08 244.245 Q2185.37 246.999 2185.37 252.369 Z" fill="#000000" fill-rule="evenodd" fill-opacity="1" /><path clip-path="url(#clip130)" d="M2193.71 231.999 L2197.99 231.999 L2197.99 253.272 L2210.7 242.092 L2216.14 242.092 L2202.39 254.221 L2216.71 268.018 L2211.16 268.018 L2197.99 255.356 L2197.99 268.018 L2193.71 268.018 L2193.71 231.999 Z" fill="#000000" fill-rule="evenodd" fill-opacity="1" /><path clip-path="url(#clip130)" d="M2251.16 249.383 Q2254.52 250.101 2256.39 252.369 Q2258.29 254.638 2258.29 257.971 Q2258.29 263.087 2254.77 265.888 Q2251.25 268.689 2244.77 268.689 Q2242.59 268.689 2240.28 268.249 Q2237.99 267.832 2235.53 266.976 L2235.53 262.462 Q2237.48 263.596 2239.79 264.175 Q2242.11 264.754 2244.63 264.754 Q2249.03 264.754 2251.32 263.018 Q2253.64 261.281 2253.64 257.971 Q2253.64 254.916 2251.48 253.203 Q2249.35 251.467 2245.53 251.467 L2241.51 251.467 L2241.51 247.624 L2245.72 247.624 Q2249.17 247.624 2251 246.258 Q2252.83 244.87 2252.83 242.277 Q2252.83 239.615 2250.93 238.203 Q2249.05 236.768 2245.53 236.768 Q2243.61 236.768 2241.41 237.184 Q2239.21 237.601 2236.58 238.481 L2236.58 234.314 Q2239.24 233.573 2241.55 233.203 Q2243.89 232.833 2245.95 232.833 Q2251.27 232.833 2254.38 235.263 Q2257.48 237.67 2257.48 241.791 Q2257.48 244.661 2255.83 246.652 Q2254.19 248.62 2251.16 249.383 Z" fill="#000000" fill-rule="evenodd" fill-opacity="1" /><polyline clip-path="url(#clip130)" style="stroke:#c271d2; stroke-linecap:round; stroke-linejoin:round; stroke-width:4; stroke-opacity:1; fill:none" points="1951.79,302.578 2091.78,302.578 "/>
<path clip-path="url(#clip130)" d="M2130.3 297.913 Q2129.59 297.497 2128.73 297.311 Q2127.9 297.103 2126.88 297.103 Q2123.27 297.103 2121.32 299.464 Q2119.4 301.802 2119.4 306.2 L2119.4 319.858 L2115.12 319.858 L2115.12 293.932 L2119.4 293.932 L2119.4 297.96 Q2120.74 295.598 2122.9 294.464 Q2125.05 293.307 2128.13 293.307 Q2128.57 293.307 2129.1 293.376 Q2129.63 293.423 2130.28 293.538 L2130.3 297.913 Z" fill="#000000" fill-rule="evenodd" fill-opacity="1" /><path clip-path="url(#clip130)" d="M2146.55 306.825 Q2141.39 306.825 2139.4 308.006 Q2137.41 309.186 2137.41 312.034 Q2137.41 314.302 2138.89 315.645 Q2140.4 316.964 2142.97 316.964 Q2146.51 316.964 2148.64 314.464 Q2150.79 311.941 2150.79 307.774 L2150.79 306.825 L2146.55 306.825 M2155.05 305.066 L2155.05 319.858 L2150.79 319.858 L2150.79 315.922 Q2149.33 318.283 2147.16 319.418 Q2144.98 320.529 2141.83 320.529 Q2137.85 320.529 2135.49 318.307 Q2133.15 316.061 2133.15 312.311 Q2133.15 307.936 2136.07 305.714 Q2139.01 303.492 2144.82 303.492 L2150.79 303.492 L2150.79 303.075 Q2150.79 300.135 2148.84 298.538 Q2146.92 296.918 2143.43 296.918 Q2141.21 296.918 2139.1 297.45 Q2136.99 297.983 2135.05 299.047 L2135.05 295.112 Q2137.39 294.21 2139.59 293.77 Q2141.78 293.307 2143.87 293.307 Q2149.49 293.307 2152.27 296.223 Q2155.05 299.14 2155.05 305.066 Z" fill="#000000" fill-rule="evenodd" fill-opacity="1" /><path clip-path="url(#clip130)" d="M2185.37 304.209 L2185.37 319.858 L2181.11 319.858 L2181.11 304.348 Q2181.11 300.668 2179.68 298.839 Q2178.24 297.01 2175.37 297.01 Q2171.92 297.01 2169.93 299.21 Q2167.94 301.409 2167.94 305.205 L2167.94 319.858 L2163.66 319.858 L2163.66 293.932 L2167.94 293.932 L2167.94 297.96 Q2169.47 295.622 2171.53 294.464 Q2173.61 293.307 2176.32 293.307 Q2180.79 293.307 2183.08 296.085 Q2185.37 298.839 2185.37 304.209 Z" fill="#000000" fill-rule="evenodd" fill-opacity="1" /><path clip-path="url(#clip130)" d="M2193.71 283.839 L2197.99 283.839 L2197.99 305.112 L2210.7 293.932 L2216.14 293.932 L2202.39 306.061 L2216.71 319.858 L2211.16 319.858 L2197.99 307.196 L2197.99 319.858 L2193.71 319.858 L2193.71 283.839 Z" fill="#000000" fill-rule="evenodd" fill-opacity="1" /><path clip-path="url(#clip130)" d="M2249.84 289.372 L2238.03 307.821 L2249.84 307.821 L2249.84 289.372 M2248.61 285.298 L2254.49 285.298 L2254.49 307.821 L2259.42 307.821 L2259.42 311.709 L2254.49 311.709 L2254.49 319.858 L2249.84 319.858 L2249.84 311.709 L2234.24 311.709 L2234.24 307.196 L2248.61 285.298 Z" fill="#000000" fill-rule="evenodd" fill-opacity="1" /><polyline clip-path="url(#clip130)" style="stroke:#ac8d18; stroke-linecap:round; stroke-linejoin:round; stroke-width:4; stroke-opacity:1; fill:none" points="1951.79,354.418 2091.78,354.418 "/>
<path clip-path="url(#clip130)" d="M2130.3 349.753 Q2129.59 349.337 2128.73 349.151 Q2127.9 348.943 2126.88 348.943 Q2123.27 348.943 2121.32 351.304 Q2119.4 353.642 2119.4 358.04 L2119.4 371.698 L2115.12 371.698 L2115.12 345.772 L2119.4 345.772 L2119.4 349.8 Q2120.74 347.438 2122.9 346.304 Q2125.05 345.147 2128.13 345.147 Q2128.57 345.147 2129.1 345.216 Q2129.63 345.263 2130.28 345.378 L2130.3 349.753 Z" fill="#000000" fill-rule="evenodd" fill-opacity="1" /><path clip-path="url(#clip130)" d="M2146.55 358.665 Q2141.39 358.665 2139.4 359.846 Q2137.41 361.026 2137.41 363.874 Q2137.41 366.142 2138.89 367.485 Q2140.4 368.804 2142.97 368.804 Q2146.51 368.804 2148.64 366.304 Q2150.79 363.781 2150.79 359.614 L2150.79 358.665 L2146.55 358.665 M2155.05 356.906 L2155.05 371.698 L2150.79 371.698 L2150.79 367.762 Q2149.33 370.123 2147.16 371.258 Q2144.98 372.369 2141.83 372.369 Q2137.85 372.369 2135.49 370.147 Q2133.15 367.901 2133.15 364.151 Q2133.15 359.776 2136.07 357.554 Q2139.01 355.332 2144.82 355.332 L2150.79 355.332 L2150.79 354.915 Q2150.79 351.975 2148.84 350.378 Q2146.92 348.758 2143.43 348.758 Q2141.21 348.758 2139.1 349.29 Q2136.99 349.823 2135.05 350.887 L2135.05 346.952 Q2137.39 346.05 2139.59 345.61 Q2141.78 345.147 2143.87 345.147 Q2149.49 345.147 2152.27 348.063 Q2155.05 350.98 2155.05 356.906 Z" fill="#000000" fill-rule="evenodd" fill-opacity="1" /><path clip-path="url(#clip130)" d="M2185.37 356.049 L2185.37 371.698 L2181.11 371.698 L2181.11 356.188 Q2181.11 352.508 2179.68 350.679 Q2178.24 348.85 2175.37 348.85 Q2171.92 348.85 2169.93 351.05 Q2167.94 353.249 2167.94 357.045 L2167.94 371.698 L2163.66 371.698 L2163.66 345.772 L2167.94 345.772 L2167.94 349.8 Q2169.47 347.462 2171.53 346.304 Q2173.61 345.147 2176.32 345.147 Q2180.79 345.147 2183.08 347.925 Q2185.37 350.679 2185.37 356.049 Z" fill="#000000" fill-rule="evenodd" fill-opacity="1" /><path clip-path="url(#clip130)" d="M2193.71 335.679 L2197.99 335.679 L2197.99 356.952 L2210.7 345.772 L2216.14 345.772 L2202.39 357.901 L2216.71 371.698 L2211.16 371.698 L2197.99 359.036 L2197.99 371.698 L2193.71 371.698 L2193.71 335.679 Z" fill="#000000" fill-rule="evenodd" fill-opacity="1" /><path clip-path="url(#clip130)" d="M2237.04 337.138 L2255.4 337.138 L2255.4 341.073 L2241.32 341.073 L2241.32 349.545 Q2242.34 349.198 2243.36 349.036 Q2244.38 348.85 2245.4 348.85 Q2251.18 348.85 2254.56 352.022 Q2257.94 355.193 2257.94 360.61 Q2257.94 366.188 2254.47 369.29 Q2251 372.369 2244.68 372.369 Q2242.5 372.369 2240.23 371.998 Q2237.99 371.628 2235.58 370.887 L2235.58 366.188 Q2237.66 367.323 2239.89 367.878 Q2242.11 368.434 2244.59 368.434 Q2248.59 368.434 2250.93 366.327 Q2253.27 364.221 2253.27 360.61 Q2253.27 356.999 2250.93 354.892 Q2248.59 352.786 2244.59 352.786 Q2242.71 352.786 2240.84 353.202 Q2238.98 353.619 2237.04 354.499 L2237.04 337.138 Z" fill="#000000" fill-rule="evenodd" fill-opacity="1" /></svg>
