<?xml version="1.0" encoding="utf-8"?>
<svg xmlns="http://www.w3.org/2000/svg" xmlns:xlink="http://www.w3.org/1999/xlink" width="600" height="400" viewBox="0 0 2400 1600">
<defs>
  <clipPath id="clip920">
    <rect x="0" y="0" width="2400" height="1600"/>
  </clipPath>
</defs>
<path clip-path="url(#clip920)" d="M0 1600 L2400 1600 L2400 0 L0 0  Z" fill="#ffffff" fill-rule="evenodd" fill-opacity="1"/>
<defs>
  <clipPath id="clip921">
    <rect x="480" y="0" width="1681" height="1600"/>
  </clipPath>
</defs>
<defs>
  <clipPath id="clip922">
    <rect x="252" y="47" width="2101" height="1440"/>
  </clipPath>
</defs>
<path clip-path="url(#clip920)" d="M309.866 1423.18 L2352.76 1423.18 L2352.76 47.2441 L309.866 47.2441  Z" fill="#ffffff" fill-rule="evenodd" fill-opacity="1"/>
<defs>
  <clipPath id="clip923">
    <rect x="309" y="47" width="2044" height="1377"/>
  </clipPath>
</defs>
<polyline clip-path="url(#clip923)" style="stroke:#000000; stroke-linecap:round; stroke-linejoin:round; stroke-width:2; stroke-opacity:0.1; fill:none" points="309.866,1423.18 309.866,47.2441 "/>
<polyline clip-path="url(#clip923)" style="stroke:#000000; stroke-linecap:round; stroke-linejoin:round; stroke-width:2; stroke-opacity:0.1; fill:none" points="820.588,1423.18 820.588,47.2441 "/>
<polyline clip-path="url(#clip923)" style="stroke:#000000; stroke-linecap:round; stroke-linejoin:round; stroke-width:2; stroke-opacity:0.1; fill:none" points="1331.31,1423.18 1331.31,47.2441 "/>
<polyline clip-path="url(#clip923)" style="stroke:#000000; stroke-linecap:round; stroke-linejoin:round; stroke-width:2; stroke-opacity:0.1; fill:none" points="1842.03,1423.18 1842.03,47.2441 "/>
<polyline clip-path="url(#clip923)" style="stroke:#000000; stroke-linecap:round; stroke-linejoin:round; stroke-width:2; stroke-opacity:0.1; fill:none" points="2352.76,1423.18 2352.76,47.2441 "/>
<polyline clip-path="url(#clip920)" style="stroke:#000000; stroke-linecap:round; stroke-linejoin:round; stroke-width:4; stroke-opacity:1; fill:none" points="309.866,1423.18 2352.76,1423.18 "/>
<polyline clip-path="url(#clip920)" style="stroke:#000000; stroke-linecap:round; stroke-linejoin:round; stroke-width:4; stroke-opacity:1; fill:none" points="309.866,1423.18 309.866,1404.28 "/>
<polyline clip-path="url(#clip920)" style="stroke:#000000; stroke-linecap:round; stroke-linejoin:round; stroke-width:4; stroke-opacity:1; fill:none" points="820.588,1423.18 820.588,1404.28 "/>
<polyline clip-path="url(#clip920)" style="stroke:#000000; stroke-linecap:round; stroke-linejoin:round; stroke-width:4; stroke-opacity:1; fill:none" points="1331.31,1423.18 1331.31,1404.28 "/>
<polyline clip-path="url(#clip920)" style="stroke:#000000; stroke-linecap:round; stroke-linejoin:round; stroke-width:4; stroke-opacity:1; fill:none" points="1842.03,1423.18 1842.03,1404.28 "/>
<polyline clip-path="url(#clip920)" style="stroke:#000000; stroke-linecap:round; stroke-linejoin:round; stroke-width:4; stroke-opacity:1; fill:none" points="2352.76,1423.18 2352.76,1404.28 "/>
<path clip-path="url(#clip920)" d="M300.248 1481.64 L307.887 1481.64 L307.887 1455.28 L299.576 1456.95 L299.576 1452.69 L307.84 1451.02 L312.516 1451.02 L312.516 1481.64 L320.155 1481.64 L320.155 1485.58 L300.248 1485.58 L300.248 1481.64 Z" fill="#000000" fill-rule="evenodd" fill-opacity="1" /><path clip-path="url(#clip920)" d="M815.241 1481.64 L831.56 1481.64 L831.56 1485.58 L809.616 1485.58 L809.616 1481.64 Q812.278 1478.89 816.861 1474.26 Q821.468 1469.61 822.648 1468.27 Q824.894 1465.74 825.773 1464.01 Q826.676 1462.25 826.676 1460.56 Q826.676 1457.8 824.732 1456.07 Q822.811 1454.33 819.709 1454.33 Q817.51 1454.33 815.056 1455.09 Q812.625 1455.86 809.848 1457.41 L809.848 1452.69 Q812.672 1451.55 815.125 1450.97 Q817.579 1450.39 819.616 1450.39 Q824.986 1450.39 828.181 1453.08 Q831.375 1455.77 831.375 1460.26 Q831.375 1462.39 830.565 1464.31 Q829.778 1466.2 827.672 1468.8 Q827.093 1469.47 823.991 1472.69 Q820.889 1475.88 815.241 1481.64 Z" fill="#000000" fill-rule="evenodd" fill-opacity="1" /><path clip-path="url(#clip920)" d="M1335.56 1466.95 Q1338.91 1467.66 1340.79 1469.93 Q1342.69 1472.2 1342.69 1475.53 Q1342.69 1480.65 1339.17 1483.45 Q1335.65 1486.25 1329.17 1486.25 Q1326.99 1486.25 1324.68 1485.81 Q1322.39 1485.39 1319.93 1484.54 L1319.93 1480.02 Q1321.88 1481.16 1324.19 1481.74 Q1326.51 1482.32 1329.03 1482.32 Q1333.43 1482.32 1335.72 1480.58 Q1338.04 1478.84 1338.04 1475.53 Q1338.04 1472.48 1335.88 1470.77 Q1333.75 1469.03 1329.93 1469.03 L1325.91 1469.03 L1325.91 1465.19 L1330.12 1465.19 Q1333.57 1465.19 1335.4 1463.82 Q1337.23 1462.43 1337.23 1459.84 Q1337.23 1457.18 1335.33 1455.77 Q1333.45 1454.33 1329.93 1454.33 Q1328.01 1454.33 1325.81 1454.75 Q1323.61 1455.16 1320.98 1456.04 L1320.98 1451.88 Q1323.64 1451.14 1325.95 1450.77 Q1328.29 1450.39 1330.35 1450.39 Q1335.67 1450.39 1338.78 1452.83 Q1341.88 1455.23 1341.88 1459.35 Q1341.88 1462.22 1340.23 1464.21 Q1338.59 1466.18 1335.56 1466.95 Z" fill="#000000" fill-rule="evenodd" fill-opacity="1" /><path clip-path="url(#clip920)" d="M1845.04 1455.09 L1833.24 1473.54 L1845.04 1473.54 L1845.04 1455.09 M1843.82 1451.02 L1849.7 1451.02 L1849.7 1473.54 L1854.63 1473.54 L1854.63 1477.43 L1849.7 1477.43 L1849.7 1485.58 L1845.04 1485.58 L1845.04 1477.43 L1829.44 1477.43 L1829.44 1472.92 L1843.82 1451.02 Z" fill="#000000" fill-rule="evenodd" fill-opacity="1" /><path clip-path="url(#clip920)" d="M2343.03 1451.02 L2361.39 1451.02 L2361.39 1454.96 L2347.32 1454.96 L2347.32 1463.43 Q2348.33 1463.08 2349.35 1462.92 Q2350.37 1462.73 2351.39 1462.73 Q2357.18 1462.73 2360.56 1465.9 Q2363.94 1469.08 2363.94 1474.49 Q2363.94 1480.07 2360.46 1483.17 Q2356.99 1486.25 2350.67 1486.25 Q2348.5 1486.25 2346.23 1485.88 Q2343.98 1485.51 2341.58 1484.77 L2341.58 1480.07 Q2343.66 1481.2 2345.88 1481.76 Q2348.1 1482.32 2350.58 1482.32 Q2354.58 1482.32 2356.92 1480.21 Q2359.26 1478.1 2359.26 1474.49 Q2359.26 1470.88 2356.92 1468.77 Q2354.58 1466.67 2350.58 1466.67 Q2348.71 1466.67 2346.83 1467.08 Q2344.98 1467.5 2343.03 1468.38 L2343.03 1451.02 Z" fill="#000000" fill-rule="evenodd" fill-opacity="1" /><path clip-path="url(#clip920)" d="M1033.06 1550.12 Q1025.96 1550.12 1023.23 1551.75 Q1020.49 1553.37 1020.49 1557.29 Q1020.49 1560.4 1022.53 1562.25 Q1024.6 1564.07 1028.13 1564.07 Q1033 1564.07 1035.93 1560.63 Q1038.89 1557.16 1038.89 1551.43 L1038.89 1550.12 L1033.06 1550.12 M1044.74 1547.71 L1044.74 1568.04 L1038.89 1568.04 L1038.89 1562.63 Q1036.88 1565.88 1033.89 1567.44 Q1030.9 1568.97 1026.57 1568.97 Q1021.09 1568.97 1017.85 1565.91 Q1014.63 1562.82 1014.63 1557.67 Q1014.63 1551.65 1018.64 1548.6 Q1022.69 1545.54 1030.67 1545.54 L1038.89 1545.54 L1038.89 1544.97 Q1038.89 1540.93 1036.21 1538.73 Q1033.57 1536.5 1028.76 1536.5 Q1025.71 1536.5 1022.81 1537.23 Q1019.92 1537.97 1017.24 1539.43 L1017.24 1534.02 Q1020.46 1532.78 1023.48 1532.17 Q1026.5 1531.54 1029.37 1531.54 Q1037.1 1531.54 1040.92 1535.55 Q1044.74 1539.56 1044.74 1547.71 Z" fill="#000000" fill-rule="evenodd" fill-opacity="1" /><path clip-path="url(#clip920)" d="M1062.47 1562.7 L1062.47 1581.6 L1056.58 1581.6 L1056.58 1532.4 L1062.47 1532.4 L1062.47 1537.81 Q1064.32 1534.62 1067.12 1533.1 Q1069.95 1531.54 1073.87 1531.54 Q1080.36 1531.54 1084.4 1536.69 Q1088.48 1541.85 1088.48 1550.25 Q1088.48 1558.65 1084.4 1563.81 Q1080.36 1568.97 1073.87 1568.97 Q1069.95 1568.97 1067.12 1567.44 Q1064.32 1565.88 1062.47 1562.7 M1082.4 1550.25 Q1082.4 1543.79 1079.72 1540.13 Q1077.08 1536.44 1072.43 1536.44 Q1067.79 1536.44 1065.11 1540.13 Q1062.47 1543.79 1062.47 1550.25 Q1062.47 1556.71 1065.11 1560.4 Q1067.79 1564.07 1072.43 1564.07 Q1077.08 1564.07 1079.72 1560.4 Q1082.4 1556.71 1082.4 1550.25 Z" fill="#000000" fill-rule="evenodd" fill-opacity="1" /><path clip-path="url(#clip920)" d="M1103.85 1562.7 L1103.85 1581.6 L1097.96 1581.6 L1097.96 1532.4 L1103.85 1532.4 L1103.85 1537.81 Q1105.69 1534.62 1108.5 1533.1 Q1111.33 1531.54 1115.24 1531.54 Q1121.74 1531.54 1125.78 1536.69 Q1129.85 1541.85 1129.85 1550.25 Q1129.85 1558.65 1125.78 1563.81 Q1121.74 1568.97 1115.24 1568.97 Q1111.33 1568.97 1108.5 1567.44 Q1105.69 1565.88 1103.85 1562.7 M1123.77 1550.25 Q1123.77 1543.79 1121.1 1540.13 Q1118.46 1536.44 1113.81 1536.44 Q1109.16 1536.44 1106.49 1540.13 Q1103.85 1543.79 1103.85 1550.25 Q1103.85 1556.71 1106.49 1560.4 Q1109.16 1564.07 1113.81 1564.07 Q1118.46 1564.07 1121.1 1560.4 Q1123.77 1556.71 1123.77 1550.25 Z" fill="#000000" fill-rule="evenodd" fill-opacity="1" /><path clip-path="url(#clip920)" d="M1160.22 1537.87 Q1159.23 1537.3 1158.05 1537.04 Q1156.91 1536.76 1155.51 1536.76 Q1150.54 1536.76 1147.87 1540 Q1145.23 1543.22 1145.23 1549.27 L1145.23 1568.04 L1139.34 1568.04 L1139.34 1532.4 L1145.23 1532.4 L1145.23 1537.93 Q1147.07 1534.69 1150.03 1533.13 Q1152.99 1531.54 1157.22 1531.54 Q1157.83 1531.54 1158.56 1531.63 Q1159.29 1531.7 1160.18 1531.85 L1160.22 1537.87 Z" fill="#000000" fill-rule="evenodd" fill-opacity="1" /><path clip-path="url(#clip920)" d="M1178.74 1536.5 Q1174.03 1536.5 1171.29 1540.19 Q1168.56 1543.85 1168.56 1550.25 Q1168.56 1556.65 1171.26 1560.34 Q1174 1564 1178.74 1564 Q1183.42 1564 1186.16 1560.31 Q1188.89 1556.62 1188.89 1550.25 Q1188.89 1543.92 1186.16 1540.23 Q1183.42 1536.5 1178.74 1536.5 M1178.74 1531.54 Q1186.38 1531.54 1190.74 1536.5 Q1195.1 1541.47 1195.1 1550.25 Q1195.1 1559 1190.74 1564 Q1186.38 1568.97 1178.74 1568.97 Q1171.07 1568.97 1166.71 1564 Q1162.38 1559 1162.38 1550.25 Q1162.38 1541.47 1166.71 1536.5 Q1171.07 1531.54 1178.74 1531.54 Z" fill="#000000" fill-rule="evenodd" fill-opacity="1" /><path clip-path="url(#clip920)" d="M1232.44 1532.4 L1219.54 1549.74 L1233.1 1568.04 L1226.2 1568.04 L1215.82 1554.04 L1205.44 1568.04 L1198.54 1568.04 L1212.38 1549.39 L1199.72 1532.4 L1206.62 1532.4 L1216.08 1545.1 L1225.53 1532.4 L1232.44 1532.4 Z" fill="#000000" fill-rule="evenodd" fill-opacity="1" /><path clip-path="url(#clip920)" d="M1241.38 1532.4 L1247.24 1532.4 L1247.24 1568.04 L1241.38 1568.04 L1241.38 1532.4 M1241.38 1518.52 L1247.24 1518.52 L1247.24 1525.93 L1241.38 1525.93 L1241.38 1518.52 Z" fill="#000000" fill-rule="evenodd" fill-opacity="1" /><path clip-path="url(#clip920)" d="M1287.24 1539.24 Q1289.44 1535.29 1292.5 1533.41 Q1295.55 1531.54 1299.69 1531.54 Q1305.26 1531.54 1308.28 1535.45 Q1311.31 1539.33 1311.31 1546.53 L1311.31 1568.04 L1305.42 1568.04 L1305.42 1546.72 Q1305.42 1541.59 1303.6 1539.11 Q1301.79 1536.63 1298.07 1536.63 Q1293.51 1536.63 1290.87 1539.65 Q1288.23 1542.68 1288.23 1547.9 L1288.23 1568.04 L1282.34 1568.04 L1282.34 1546.72 Q1282.34 1541.56 1280.53 1539.11 Q1278.71 1536.63 1274.93 1536.63 Q1270.44 1536.63 1267.8 1539.68 Q1265.16 1542.71 1265.16 1547.9 L1265.16 1568.04 L1259.27 1568.04 L1259.27 1532.4 L1265.16 1532.4 L1265.16 1537.93 Q1267.16 1534.66 1269.96 1533.1 Q1272.76 1531.54 1276.61 1531.54 Q1280.5 1531.54 1283.2 1533.51 Q1285.94 1535.48 1287.24 1539.24 Z" fill="#000000" fill-rule="evenodd" fill-opacity="1" /><path clip-path="url(#clip920)" d="M1339.19 1550.12 Q1332.09 1550.12 1329.35 1551.75 Q1326.62 1553.37 1326.62 1557.29 Q1326.62 1560.4 1328.65 1562.25 Q1330.72 1564.07 1334.25 1564.07 Q1339.12 1564.07 1342.05 1560.63 Q1345.01 1557.16 1345.01 1551.43 L1345.01 1550.12 L1339.19 1550.12 M1350.87 1547.71 L1350.87 1568.04 L1345.01 1568.04 L1345.01 1562.63 Q1343.01 1565.88 1340.02 1567.44 Q1337.02 1568.97 1332.7 1568.97 Q1327.22 1568.97 1323.97 1565.91 Q1320.76 1562.82 1320.76 1557.67 Q1320.76 1551.65 1324.77 1548.6 Q1328.81 1545.54 1336.8 1545.54 L1345.01 1545.54 L1345.01 1544.97 Q1345.01 1540.93 1342.34 1538.73 Q1339.7 1536.5 1334.89 1536.5 Q1331.84 1536.5 1328.94 1537.23 Q1326.04 1537.97 1323.37 1539.43 L1323.37 1534.02 Q1326.58 1532.78 1329.61 1532.17 Q1332.63 1531.54 1335.5 1531.54 Q1343.23 1531.54 1347.05 1535.55 Q1350.87 1539.56 1350.87 1547.71 Z" fill="#000000" fill-rule="evenodd" fill-opacity="1" /><path clip-path="url(#clip920)" d="M1368.73 1522.27 L1368.73 1532.4 L1380.79 1532.4 L1380.79 1536.95 L1368.73 1536.95 L1368.73 1556.3 Q1368.73 1560.66 1369.9 1561.9 Q1371.11 1563.14 1374.77 1563.14 L1380.79 1563.14 L1380.79 1568.04 L1374.77 1568.04 Q1367.99 1568.04 1365.42 1565.53 Q1362.84 1562.98 1362.84 1556.3 L1362.84 1536.95 L1358.54 1536.95 L1358.54 1532.4 L1362.84 1532.4 L1362.84 1522.27 L1368.73 1522.27 Z" fill="#000000" fill-rule="evenodd" fill-opacity="1" /><path clip-path="url(#clip920)" d="M1388.49 1532.4 L1394.35 1532.4 L1394.35 1568.04 L1388.49 1568.04 L1388.49 1532.4 M1388.49 1518.52 L1394.35 1518.52 L1394.35 1525.93 L1388.49 1525.93 L1388.49 1518.52 Z" fill="#000000" fill-rule="evenodd" fill-opacity="1" /><path clip-path="url(#clip920)" d="M1420.41 1536.5 Q1415.7 1536.5 1412.97 1540.19 Q1410.23 1543.85 1410.23 1550.25 Q1410.23 1556.65 1412.94 1560.34 Q1415.67 1564 1420.41 1564 Q1425.09 1564 1427.83 1560.31 Q1430.57 1556.62 1430.57 1550.25 Q1430.57 1543.92 1427.83 1540.23 Q1425.09 1536.5 1420.41 1536.5 M1420.41 1531.54 Q1428.05 1531.54 1432.41 1536.5 Q1436.77 1541.47 1436.77 1550.25 Q1436.77 1559 1432.41 1564 Q1428.05 1568.97 1420.41 1568.97 Q1412.74 1568.97 1408.38 1564 Q1404.05 1559 1404.05 1550.25 Q1404.05 1541.47 1408.38 1536.5 Q1412.74 1531.54 1420.41 1531.54 Z" fill="#000000" fill-rule="evenodd" fill-opacity="1" /><path clip-path="url(#clip920)" d="M1476.11 1546.53 L1476.11 1568.04 L1470.26 1568.04 L1470.26 1546.72 Q1470.26 1541.66 1468.28 1539.14 Q1466.31 1536.63 1462.36 1536.63 Q1457.62 1536.63 1454.89 1539.65 Q1452.15 1542.68 1452.15 1547.9 L1452.15 1568.04 L1446.26 1568.04 L1446.26 1532.4 L1452.15 1532.4 L1452.15 1537.93 Q1454.25 1534.72 1457.08 1533.13 Q1459.95 1531.54 1463.67 1531.54 Q1469.81 1531.54 1472.96 1535.36 Q1476.11 1539.14 1476.11 1546.53 Z" fill="#000000" fill-rule="evenodd" fill-opacity="1" /><path clip-path="url(#clip920)" d="M1529.17 1537.87 Q1528.19 1537.3 1527.01 1537.04 Q1525.86 1536.76 1524.46 1536.76 Q1519.5 1536.76 1516.82 1540 Q1514.18 1543.22 1514.18 1549.27 L1514.18 1568.04 L1508.29 1568.04 L1508.29 1532.4 L1514.18 1532.4 L1514.18 1537.93 Q1516.03 1534.69 1518.99 1533.13 Q1521.95 1531.54 1526.18 1531.54 Q1526.79 1531.54 1527.52 1531.63 Q1528.25 1531.7 1529.14 1531.85 L1529.17 1537.87 Z" fill="#000000" fill-rule="evenodd" fill-opacity="1" /><path clip-path="url(#clip920)" d="M1551.52 1550.12 Q1544.42 1550.12 1541.68 1551.75 Q1538.94 1553.37 1538.94 1557.29 Q1538.94 1560.4 1540.98 1562.25 Q1543.05 1564.07 1546.58 1564.07 Q1551.45 1564.07 1554.38 1560.63 Q1557.34 1557.16 1557.34 1551.43 L1557.34 1550.12 L1551.52 1550.12 M1563.2 1547.71 L1563.2 1568.04 L1557.34 1568.04 L1557.34 1562.63 Q1555.34 1565.88 1552.34 1567.44 Q1549.35 1568.97 1545.02 1568.97 Q1539.55 1568.97 1536.3 1565.91 Q1533.09 1562.82 1533.09 1557.67 Q1533.09 1551.65 1537.1 1548.6 Q1541.14 1545.54 1549.13 1545.54 L1557.34 1545.54 L1557.34 1544.97 Q1557.34 1540.93 1554.67 1538.73 Q1552.03 1536.5 1547.22 1536.5 Q1544.16 1536.5 1541.27 1537.23 Q1538.37 1537.97 1535.7 1539.43 L1535.7 1534.02 Q1538.91 1532.78 1541.94 1532.17 Q1544.96 1531.54 1547.82 1531.54 Q1555.56 1531.54 1559.38 1535.55 Q1563.2 1539.56 1563.2 1547.71 Z" fill="#000000" fill-rule="evenodd" fill-opacity="1" /><path clip-path="url(#clip920)" d="M1604.89 1546.53 L1604.89 1568.04 L1599.04 1568.04 L1599.04 1546.72 Q1599.04 1541.66 1597.06 1539.14 Q1595.09 1536.63 1591.14 1536.63 Q1586.4 1536.63 1583.66 1539.65 Q1580.93 1542.68 1580.93 1547.9 L1580.93 1568.04 L1575.04 1568.04 L1575.04 1532.4 L1580.93 1532.4 L1580.93 1537.93 Q1583.03 1534.72 1585.86 1533.13 Q1588.72 1531.54 1592.45 1531.54 Q1598.59 1531.54 1601.74 1535.36 Q1604.89 1539.14 1604.89 1546.53 Z" fill="#000000" fill-rule="evenodd" fill-opacity="1" /><path clip-path="url(#clip920)" d="M1616.35 1518.52 L1622.24 1518.52 L1622.24 1547.77 L1639.71 1532.4 L1647.19 1532.4 L1628.29 1549.07 L1647.99 1568.04 L1640.35 1568.04 L1622.24 1550.63 L1622.24 1568.04 L1616.35 1568.04 L1616.35 1518.52 Z" fill="#000000" fill-rule="evenodd" fill-opacity="1" /><polyline clip-path="url(#clip923)" style="stroke:#000000; stroke-linecap:round; stroke-linejoin:round; stroke-width:2; stroke-opacity:0.1; fill:none" points="309.866,1176.24 2352.76,1176.24 "/>
<polyline clip-path="url(#clip923)" style="stroke:#000000; stroke-linecap:round; stroke-linejoin:round; stroke-width:2; stroke-opacity:0.1; fill:none" points="309.866,918.238 2352.76,918.238 "/>
<polyline clip-path="url(#clip923)" style="stroke:#000000; stroke-linecap:round; stroke-linejoin:round; stroke-width:2; stroke-opacity:0.1; fill:none" points="309.866,660.24 2352.76,660.24 "/>
<polyline clip-path="url(#clip923)" style="stroke:#000000; stroke-linecap:round; stroke-linejoin:round; stroke-width:2; stroke-opacity:0.1; fill:none" points="309.866,402.241 2352.76,402.241 "/>
<polyline clip-path="url(#clip923)" style="stroke:#000000; stroke-linecap:round; stroke-linejoin:round; stroke-width:2; stroke-opacity:0.1; fill:none" points="309.866,144.242 2352.76,144.242 "/>
<polyline clip-path="url(#clip920)" style="stroke:#000000; stroke-linecap:round; stroke-linejoin:round; stroke-width:4; stroke-opacity:1; fill:none" points="309.866,1423.18 309.866,47.2441 "/>
<polyline clip-path="url(#clip920)" style="stroke:#000000; stroke-linecap:round; stroke-linejoin:round; stroke-width:4; stroke-opacity:1; fill:none" points="309.866,1176.24 328.763,1176.24 "/>
<polyline clip-path="url(#clip920)" style="stroke:#000000; stroke-linecap:round; stroke-linejoin:round; stroke-width:4; stroke-opacity:1; fill:none" points="309.866,918.238 328.763,918.238 "/>
<polyline clip-path="url(#clip920)" style="stroke:#000000; stroke-linecap:round; stroke-linejoin:round; stroke-width:4; stroke-opacity:1; fill:none" points="309.866,660.24 328.763,660.24 "/>
<polyline clip-path="url(#clip920)" style="stroke:#000000; stroke-linecap:round; stroke-linejoin:round; stroke-width:4; stroke-opacity:1; fill:none" points="309.866,402.241 328.763,402.241 "/>
<polyline clip-path="url(#clip920)" style="stroke:#000000; stroke-linecap:round; stroke-linejoin:round; stroke-width:4; stroke-opacity:1; fill:none" points="309.866,144.242 328.763,144.242 "/>
<path clip-path="url(#clip920)" d="M127.2 1162.04 Q123.589 1162.04 121.76 1165.6 Q119.955 1169.14 119.955 1176.27 Q119.955 1183.38 121.76 1186.94 Q123.589 1190.48 127.2 1190.48 Q130.834 1190.48 132.64 1186.94 Q134.468 1183.38 134.468 1176.27 Q134.468 1169.14 132.64 1165.6 Q130.834 1162.04 127.2 1162.04 M127.2 1158.33 Q133.01 1158.33 136.066 1162.94 Q139.144 1167.52 139.144 1176.27 Q139.144 1185 136.066 1189.61 Q133.01 1194.19 127.2 1194.19 Q121.39 1194.19 118.311 1189.61 Q115.256 1185 115.256 1176.27 Q115.256 1167.52 118.311 1162.94 Q121.39 1158.33 127.2 1158.33 Z" fill="#000000" fill-rule="evenodd" fill-opacity="1" /><path clip-path="url(#clip920)" d="M147.362 1187.64 L152.246 1187.64 L152.246 1193.52 L147.362 1193.52 L147.362 1187.64 Z" fill="#000000" fill-rule="evenodd" fill-opacity="1" /><path clip-path="url(#clip920)" d="M172.431 1162.04 Q168.82 1162.04 166.991 1165.6 Q165.186 1169.14 165.186 1176.27 Q165.186 1183.38 166.991 1186.94 Q168.82 1190.48 172.431 1190.48 Q176.065 1190.48 177.871 1186.94 Q179.7 1183.38 179.7 1176.27 Q179.7 1169.14 177.871 1165.6 Q176.065 1162.04 172.431 1162.04 M172.431 1158.33 Q178.241 1158.33 181.297 1162.94 Q184.376 1167.52 184.376 1176.27 Q184.376 1185 181.297 1189.61 Q178.241 1194.19 172.431 1194.19 Q166.621 1194.19 163.542 1189.61 Q160.487 1185 160.487 1176.27 Q160.487 1167.52 163.542 1162.94 Q166.621 1158.33 172.431 1158.33 Z" fill="#000000" fill-rule="evenodd" fill-opacity="1" /><path clip-path="url(#clip920)" d="M202.593 1162.04 Q198.982 1162.04 197.153 1165.6 Q195.348 1169.14 195.348 1176.27 Q195.348 1183.38 197.153 1186.94 Q198.982 1190.48 202.593 1190.48 Q206.227 1190.48 208.033 1186.94 Q209.861 1183.38 209.861 1176.27 Q209.861 1169.14 208.033 1165.6 Q206.227 1162.04 202.593 1162.04 M202.593 1158.33 Q208.403 1158.33 211.459 1162.94 Q214.537 1167.52 214.537 1176.27 Q214.537 1185 211.459 1189.61 Q208.403 1194.19 202.593 1194.19 Q196.783 1194.19 193.704 1189.61 Q190.649 1185 190.649 1176.27 Q190.649 1167.52 193.704 1162.94 Q196.783 1158.33 202.593 1158.33 Z" fill="#000000" fill-rule="evenodd" fill-opacity="1" /><path clip-path="url(#clip920)" d="M223.565 1189.58 L231.204 1189.58 L231.204 1163.22 L222.894 1164.88 L222.894 1160.62 L231.158 1158.96 L235.834 1158.96 L235.834 1189.58 L243.472 1189.58 L243.472 1193.52 L223.565 1193.52 L223.565 1189.58 Z" fill="#000000" fill-rule="evenodd" fill-opacity="1" /><path clip-path="url(#clip920)" d="M252.963 1158.96 L271.32 1158.96 L271.32 1162.89 L257.246 1162.89 L257.246 1171.36 Q258.264 1171.02 259.283 1170.86 Q260.301 1170.67 261.32 1170.67 Q267.107 1170.67 270.486 1173.84 Q273.866 1177.01 273.866 1182.43 Q273.866 1188.01 270.394 1191.11 Q266.921 1194.19 260.602 1194.19 Q258.426 1194.19 256.158 1193.82 Q253.912 1193.45 251.505 1192.71 L251.505 1188.01 Q253.588 1189.14 255.81 1189.7 Q258.033 1190.25 260.509 1190.25 Q264.514 1190.25 266.852 1188.15 Q269.19 1186.04 269.19 1182.43 Q269.19 1178.82 266.852 1176.71 Q264.514 1174.61 260.509 1174.61 Q258.634 1174.61 256.759 1175.02 Q254.908 1175.44 252.963 1176.32 L252.963 1158.96 Z" fill="#000000" fill-rule="evenodd" fill-opacity="1" /><path clip-path="url(#clip920)" d="M126.205 904.037 Q122.593 904.037 120.765 907.602 Q118.959 911.143 118.959 918.273 Q118.959 925.379 120.765 928.944 Q122.593 932.486 126.205 932.486 Q129.839 932.486 131.644 928.944 Q133.473 925.379 133.473 918.273 Q133.473 911.143 131.644 907.602 Q129.839 904.037 126.205 904.037 M126.205 900.333 Q132.015 900.333 135.07 904.94 Q138.149 909.523 138.149 918.273 Q138.149 927 135.07 931.606 Q132.015 936.19 126.205 936.19 Q120.394 936.19 117.316 931.606 Q114.26 927 114.26 918.273 Q114.26 909.523 117.316 904.94 Q120.394 900.333 126.205 900.333 Z" fill="#000000" fill-rule="evenodd" fill-opacity="1" /><path clip-path="url(#clip920)" d="M146.366 929.639 L151.251 929.639 L151.251 935.518 L146.366 935.518 L146.366 929.639 Z" fill="#000000" fill-rule="evenodd" fill-opacity="1" /><path clip-path="url(#clip920)" d="M171.436 904.037 Q167.825 904.037 165.996 907.602 Q164.19 911.143 164.19 918.273 Q164.19 925.379 165.996 928.944 Q167.825 932.486 171.436 932.486 Q175.07 932.486 176.876 928.944 Q178.704 925.379 178.704 918.273 Q178.704 911.143 176.876 907.602 Q175.07 904.037 171.436 904.037 M171.436 900.333 Q177.246 900.333 180.301 904.94 Q183.38 909.523 183.38 918.273 Q183.38 927 180.301 931.606 Q177.246 936.19 171.436 936.19 Q165.626 936.19 162.547 931.606 Q159.491 927 159.491 918.273 Q159.491 909.523 162.547 904.94 Q165.626 900.333 171.436 900.333 Z" fill="#000000" fill-rule="evenodd" fill-opacity="1" /><path clip-path="url(#clip920)" d="M201.598 904.037 Q197.987 904.037 196.158 907.602 Q194.352 911.143 194.352 918.273 Q194.352 925.379 196.158 928.944 Q197.987 932.486 201.598 932.486 Q205.232 932.486 207.037 928.944 Q208.866 925.379 208.866 918.273 Q208.866 911.143 207.037 907.602 Q205.232 904.037 201.598 904.037 M201.598 900.333 Q207.408 900.333 210.463 904.94 Q213.542 909.523 213.542 918.273 Q213.542 927 210.463 931.606 Q207.408 936.19 201.598 936.19 Q195.787 936.19 192.709 931.606 Q189.653 927 189.653 918.273 Q189.653 909.523 192.709 904.94 Q195.787 900.333 201.598 900.333 Z" fill="#000000" fill-rule="evenodd" fill-opacity="1" /><path clip-path="url(#clip920)" d="M225.787 931.583 L242.107 931.583 L242.107 935.518 L220.162 935.518 L220.162 931.583 Q222.824 928.829 227.408 924.199 Q232.014 919.546 233.195 918.204 Q235.44 915.68 236.32 913.944 Q237.222 912.185 237.222 910.495 Q237.222 907.741 235.278 906.005 Q233.357 904.269 230.255 904.269 Q228.056 904.269 225.602 905.032 Q223.172 905.796 220.394 907.347 L220.394 902.625 Q223.218 901.491 225.672 900.912 Q228.125 900.333 230.162 900.333 Q235.533 900.333 238.727 903.019 Q241.922 905.704 241.922 910.194 Q241.922 912.324 241.111 914.245 Q240.324 916.143 238.218 918.736 Q237.639 919.407 234.537 922.625 Q231.435 925.819 225.787 931.583 Z" fill="#000000" fill-rule="evenodd" fill-opacity="1" /><path clip-path="url(#clip920)" d="M261.921 904.037 Q258.31 904.037 256.482 907.602 Q254.676 911.143 254.676 918.273 Q254.676 925.379 256.482 928.944 Q258.31 932.486 261.921 932.486 Q265.556 932.486 267.361 928.944 Q269.19 925.379 269.19 918.273 Q269.19 911.143 267.361 907.602 Q265.556 904.037 261.921 904.037 M261.921 900.333 Q267.732 900.333 270.787 904.94 Q273.866 909.523 273.866 918.273 Q273.866 927 270.787 931.606 Q267.732 936.19 261.921 936.19 Q256.111 936.19 253.033 931.606 Q249.977 927 249.977 918.273 Q249.977 909.523 253.033 904.94 Q256.111 900.333 261.921 900.333 Z" fill="#000000" fill-rule="evenodd" fill-opacity="1" /><path clip-path="url(#clip920)" d="M127.2 646.038 Q123.589 646.038 121.76 649.603 Q119.955 653.145 119.955 660.274 Q119.955 667.381 121.76 670.946 Q123.589 674.487 127.2 674.487 Q130.834 674.487 132.64 670.946 Q134.468 667.381 134.468 660.274 Q134.468 653.145 132.64 649.603 Q130.834 646.038 127.2 646.038 M127.2 642.335 Q133.01 642.335 136.066 646.941 Q139.144 651.524 139.144 660.274 Q139.144 669.001 136.066 673.608 Q133.01 678.191 127.2 678.191 Q121.39 678.191 118.311 673.608 Q115.256 669.001 115.256 660.274 Q115.256 651.524 118.311 646.941 Q121.39 642.335 127.2 642.335 Z" fill="#000000" fill-rule="evenodd" fill-opacity="1" /><path clip-path="url(#clip920)" d="M147.362 671.64 L152.246 671.64 L152.246 677.52 L147.362 677.52 L147.362 671.64 Z" fill="#000000" fill-rule="evenodd" fill-opacity="1" /><path clip-path="url(#clip920)" d="M172.431 646.038 Q168.82 646.038 166.991 649.603 Q165.186 653.145 165.186 660.274 Q165.186 667.381 166.991 670.946 Q168.82 674.487 172.431 674.487 Q176.065 674.487 177.871 670.946 Q179.7 667.381 179.7 660.274 Q179.7 653.145 177.871 649.603 Q176.065 646.038 172.431 646.038 M172.431 642.335 Q178.241 642.335 181.297 646.941 Q184.376 651.524 184.376 660.274 Q184.376 669.001 181.297 673.608 Q178.241 678.191 172.431 678.191 Q166.621 678.191 163.542 673.608 Q160.487 669.001 160.487 660.274 Q160.487 651.524 163.542 646.941 Q166.621 642.335 172.431 642.335 Z" fill="#000000" fill-rule="evenodd" fill-opacity="1" /><path clip-path="url(#clip920)" d="M202.593 646.038 Q198.982 646.038 197.153 649.603 Q195.348 653.145 195.348 660.274 Q195.348 667.381 197.153 670.946 Q198.982 674.487 202.593 674.487 Q206.227 674.487 208.033 670.946 Q209.861 667.381 209.861 660.274 Q209.861 653.145 208.033 649.603 Q206.227 646.038 202.593 646.038 M202.593 642.335 Q208.403 642.335 211.459 646.941 Q214.537 651.524 214.537 660.274 Q214.537 669.001 211.459 673.608 Q208.403 678.191 202.593 678.191 Q196.783 678.191 193.704 673.608 Q190.649 669.001 190.649 660.274 Q190.649 651.524 193.704 646.941 Q196.783 642.335 202.593 642.335 Z" fill="#000000" fill-rule="evenodd" fill-opacity="1" /><path clip-path="url(#clip920)" d="M226.783 673.584 L243.102 673.584 L243.102 677.52 L221.158 677.52 L221.158 673.584 Q223.82 670.83 228.403 666.2 Q233.01 661.547 234.19 660.205 Q236.435 657.682 237.315 655.946 Q238.218 654.186 238.218 652.497 Q238.218 649.742 236.273 648.006 Q234.352 646.27 231.25 646.27 Q229.051 646.27 226.598 647.034 Q224.167 647.798 221.389 649.348 L221.389 644.626 Q224.213 643.492 226.667 642.913 Q229.121 642.335 231.158 642.335 Q236.528 642.335 239.722 645.02 Q242.917 647.705 242.917 652.196 Q242.917 654.325 242.107 656.247 Q241.32 658.145 239.213 660.737 Q238.634 661.409 235.533 664.626 Q232.431 667.821 226.783 673.584 Z" fill="#000000" fill-rule="evenodd" fill-opacity="1" /><path clip-path="url(#clip920)" d="M252.963 642.96 L271.32 642.96 L271.32 646.895 L257.246 646.895 L257.246 655.367 Q258.264 655.02 259.283 654.858 Q260.301 654.673 261.32 654.673 Q267.107 654.673 270.486 657.844 Q273.866 661.015 273.866 666.432 Q273.866 672.01 270.394 675.112 Q266.921 678.191 260.602 678.191 Q258.426 678.191 256.158 677.821 Q253.912 677.45 251.505 676.709 L251.505 672.01 Q253.588 673.145 255.81 673.7 Q258.033 674.256 260.509 674.256 Q264.514 674.256 266.852 672.149 Q269.19 670.043 269.19 666.432 Q269.19 662.821 266.852 660.714 Q264.514 658.608 260.509 658.608 Q258.634 658.608 256.759 659.024 Q254.908 659.441 252.963 660.321 L252.963 642.96 Z" fill="#000000" fill-rule="evenodd" fill-opacity="1" /><path clip-path="url(#clip920)" d="M126.205 388.04 Q122.593 388.04 120.765 391.604 Q118.959 395.146 118.959 402.276 Q118.959 409.382 120.765 412.947 Q122.593 416.489 126.205 416.489 Q129.839 416.489 131.644 412.947 Q133.473 409.382 133.473 402.276 Q133.473 395.146 131.644 391.604 Q129.839 388.04 126.205 388.04 M126.205 384.336 Q132.015 384.336 135.07 388.942 Q138.149 393.526 138.149 402.276 Q138.149 411.002 135.07 415.609 Q132.015 420.192 126.205 420.192 Q120.394 420.192 117.316 415.609 Q114.26 411.002 114.26 402.276 Q114.26 393.526 117.316 388.942 Q120.394 384.336 126.205 384.336 Z" fill="#000000" fill-rule="evenodd" fill-opacity="1" /><path clip-path="url(#clip920)" d="M146.366 413.641 L151.251 413.641 L151.251 419.521 L146.366 419.521 L146.366 413.641 Z" fill="#000000" fill-rule="evenodd" fill-opacity="1" /><path clip-path="url(#clip920)" d="M171.436 388.04 Q167.825 388.04 165.996 391.604 Q164.19 395.146 164.19 402.276 Q164.19 409.382 165.996 412.947 Q167.825 416.489 171.436 416.489 Q175.07 416.489 176.876 412.947 Q178.704 409.382 178.704 402.276 Q178.704 395.146 176.876 391.604 Q175.07 388.04 171.436 388.04 M171.436 384.336 Q177.246 384.336 180.301 388.942 Q183.38 393.526 183.38 402.276 Q183.38 411.002 180.301 415.609 Q177.246 420.192 171.436 420.192 Q165.626 420.192 162.547 415.609 Q159.491 411.002 159.491 402.276 Q159.491 393.526 162.547 388.942 Q165.626 384.336 171.436 384.336 Z" fill="#000000" fill-rule="evenodd" fill-opacity="1" /><path clip-path="url(#clip920)" d="M201.598 388.04 Q197.987 388.04 196.158 391.604 Q194.352 395.146 194.352 402.276 Q194.352 409.382 196.158 412.947 Q197.987 416.489 201.598 416.489 Q205.232 416.489 207.037 412.947 Q208.866 409.382 208.866 402.276 Q208.866 395.146 207.037 391.604 Q205.232 388.04 201.598 388.04 M201.598 384.336 Q207.408 384.336 210.463 388.942 Q213.542 393.526 213.542 402.276 Q213.542 411.002 210.463 415.609 Q207.408 420.192 201.598 420.192 Q195.787 420.192 192.709 415.609 Q189.653 411.002 189.653 402.276 Q189.653 393.526 192.709 388.942 Q195.787 384.336 201.598 384.336 Z" fill="#000000" fill-rule="evenodd" fill-opacity="1" /><path clip-path="url(#clip920)" d="M235.926 400.887 Q239.283 401.604 241.158 403.873 Q243.056 406.141 243.056 409.475 Q243.056 414.59 239.537 417.391 Q236.019 420.192 229.537 420.192 Q227.361 420.192 225.047 419.752 Q222.755 419.336 220.301 418.479 L220.301 413.965 Q222.246 415.1 224.56 415.678 Q226.875 416.257 229.398 416.257 Q233.797 416.257 236.088 414.521 Q238.403 412.785 238.403 409.475 Q238.403 406.419 236.25 404.706 Q234.121 402.97 230.301 402.97 L226.273 402.97 L226.273 399.128 L230.486 399.128 Q233.935 399.128 235.764 397.762 Q237.593 396.373 237.593 393.78 Q237.593 391.118 235.695 389.706 Q233.82 388.271 230.301 388.271 Q228.38 388.271 226.181 388.688 Q223.982 389.104 221.343 389.984 L221.343 385.817 Q224.005 385.077 226.32 384.706 Q228.658 384.336 230.718 384.336 Q236.042 384.336 239.144 386.766 Q242.246 389.174 242.246 393.294 Q242.246 396.165 240.602 398.155 Q238.959 400.123 235.926 400.887 Z" fill="#000000" fill-rule="evenodd" fill-opacity="1" /><path clip-path="url(#clip920)" d="M261.921 388.04 Q258.31 388.04 256.482 391.604 Q254.676 395.146 254.676 402.276 Q254.676 409.382 256.482 412.947 Q258.31 416.489 261.921 416.489 Q265.556 416.489 267.361 412.947 Q269.19 409.382 269.19 402.276 Q269.19 395.146 267.361 391.604 Q265.556 388.04 261.921 388.04 M261.921 384.336 Q267.732 384.336 270.787 388.942 Q273.866 393.526 273.866 402.276 Q273.866 411.002 270.787 415.609 Q267.732 420.192 261.921 420.192 Q256.111 420.192 253.033 415.609 Q249.977 411.002 249.977 402.276 Q249.977 393.526 253.033 388.942 Q256.111 384.336 261.921 384.336 Z" fill="#000000" fill-rule="evenodd" fill-opacity="1" /><path clip-path="url(#clip920)" d="M127.2 130.041 Q123.589 130.041 121.76 133.606 Q119.955 137.147 119.955 144.277 Q119.955 151.383 121.76 154.948 Q123.589 158.49 127.2 158.49 Q130.834 158.49 132.64 154.948 Q134.468 151.383 134.468 144.277 Q134.468 137.147 132.64 133.606 Q130.834 130.041 127.2 130.041 M127.2 126.337 Q133.01 126.337 136.066 130.944 Q139.144 135.527 139.144 144.277 Q139.144 153.004 136.066 157.61 Q133.01 162.194 127.2 162.194 Q121.39 162.194 118.311 157.61 Q115.256 153.004 115.256 144.277 Q115.256 135.527 118.311 130.944 Q121.39 126.337 127.2 126.337 Z" fill="#000000" fill-rule="evenodd" fill-opacity="1" /><path clip-path="url(#clip920)" d="M147.362 155.643 L152.246 155.643 L152.246 161.522 L147.362 161.522 L147.362 155.643 Z" fill="#000000" fill-rule="evenodd" fill-opacity="1" /><path clip-path="url(#clip920)" d="M172.431 130.041 Q168.82 130.041 166.991 133.606 Q165.186 137.147 165.186 144.277 Q165.186 151.383 166.991 154.948 Q168.82 158.49 172.431 158.49 Q176.065 158.49 177.871 154.948 Q179.7 151.383 179.7 144.277 Q179.7 137.147 177.871 133.606 Q176.065 130.041 172.431 130.041 M172.431 126.337 Q178.241 126.337 181.297 130.944 Q184.376 135.527 184.376 144.277 Q184.376 153.004 181.297 157.61 Q178.241 162.194 172.431 162.194 Q166.621 162.194 163.542 157.61 Q160.487 153.004 160.487 144.277 Q160.487 135.527 163.542 130.944 Q166.621 126.337 172.431 126.337 Z" fill="#000000" fill-rule="evenodd" fill-opacity="1" /><path clip-path="url(#clip920)" d="M202.593 130.041 Q198.982 130.041 197.153 133.606 Q195.348 137.147 195.348 144.277 Q195.348 151.383 197.153 154.948 Q198.982 158.49 202.593 158.49 Q206.227 158.49 208.033 154.948 Q209.861 151.383 209.861 144.277 Q209.861 137.147 208.033 133.606 Q206.227 130.041 202.593 130.041 M202.593 126.337 Q208.403 126.337 211.459 130.944 Q214.537 135.527 214.537 144.277 Q214.537 153.004 211.459 157.61 Q208.403 162.194 202.593 162.194 Q196.783 162.194 193.704 157.61 Q190.649 153.004 190.649 144.277 Q190.649 135.527 193.704 130.944 Q196.783 126.337 202.593 126.337 Z" fill="#000000" fill-rule="evenodd" fill-opacity="1" /><path clip-path="url(#clip920)" d="M236.922 142.888 Q240.278 143.606 242.153 145.874 Q244.051 148.143 244.051 151.476 Q244.051 156.592 240.533 159.393 Q237.014 162.194 230.533 162.194 Q228.357 162.194 226.042 161.754 Q223.75 161.337 221.297 160.481 L221.297 155.967 Q223.241 157.101 225.556 157.68 Q227.871 158.258 230.394 158.258 Q234.792 158.258 237.084 156.522 Q239.398 154.786 239.398 151.476 Q239.398 148.42 237.246 146.707 Q235.116 144.971 231.297 144.971 L227.269 144.971 L227.269 141.129 L231.482 141.129 Q234.931 141.129 236.76 139.763 Q238.588 138.374 238.588 135.782 Q238.588 133.12 236.69 131.708 Q234.815 130.272 231.297 130.272 Q229.375 130.272 227.176 130.689 Q224.977 131.106 222.338 131.985 L222.338 127.819 Q225 127.078 227.315 126.708 Q229.653 126.337 231.713 126.337 Q237.037 126.337 240.139 128.768 Q243.241 131.175 243.241 135.295 Q243.241 138.166 241.597 140.157 Q239.954 142.124 236.922 142.888 Z" fill="#000000" fill-rule="evenodd" fill-opacity="1" /><path clip-path="url(#clip920)" d="M252.963 126.962 L271.32 126.962 L271.32 130.897 L257.246 130.897 L257.246 139.37 Q258.264 139.022 259.283 138.86 Q260.301 138.675 261.32 138.675 Q267.107 138.675 270.486 141.846 Q273.866 145.018 273.866 150.434 Q273.866 156.013 270.394 159.115 Q266.921 162.194 260.602 162.194 Q258.426 162.194 256.158 161.823 Q253.912 161.453 251.505 160.712 L251.505 156.013 Q253.588 157.147 255.81 157.703 Q258.033 158.258 260.509 158.258 Q264.514 158.258 266.852 156.152 Q269.19 154.045 269.19 150.434 Q269.19 146.823 266.852 144.717 Q264.514 142.61 260.509 142.61 Q258.634 142.61 256.759 143.027 Q254.908 143.444 252.963 144.323 L252.963 126.962 Z" fill="#000000" fill-rule="evenodd" fill-opacity="1" /><path clip-path="url(#clip920)" d="M18.8696 756.909 Q19.3527 756.909 20.0613 757.264 Q20.7054 757.586 21.124 758.262 Q21.5105 758.906 21.5105 759.615 Q21.5105 759.84 21.3817 760.355 Q20.9952 761.225 20.1257 762.578 Q19.2561 763.93 18.7086 765.154 Q18.1289 766.346 18.0645 767.666 Q18.0645 768.825 18.4832 769.792 Q18.9663 770.661 19.9968 771.241 Q20.4155 771.499 21.124 771.499 Q22.1224 771.499 23.4429 770.951 Q24.7633 770.404 26.4702 769.276 Q28.1771 768.117 29.3365 767.28 Q30.4637 766.442 32.3317 764.993 Q32.4927 764.864 32.5893 764.8 Q32.6537 764.735 32.8148 764.639 Q32.9436 764.542 33.0402 764.445 Q36.8727 761.386 41.0917 760.613 Q42.5732 760.42 44.119 760.42 Q47.2108 760.42 50.8501 761.354 Q54.1673 762.159 57.0336 763.866 Q59.8677 765.573 61.7356 768.149 Q63.6036 770.693 63.6036 773.463 Q63.6036 776.201 62.412 778.455 Q61.1881 780.709 59.0948 782.062 Q56.3251 783.898 52.4926 783.898 Q50.3348 783.898 48.499 783.383 Q45.5683 782.674 42.863 780.999 Q40.1577 779.325 38.0643 776.909 Q34.9726 773.238 34.103 769.244 Q30.5604 771.112 27.8229 772.207 Q25.0532 773.27 22.7021 773.27 Q20.641 773.27 19.3205 772.497 Q17.9035 771.821 17.0983 770.436 Q16.3898 769.276 16.0355 767.602 Q15.9067 766.571 15.9067 765.895 Q15.9067 763.608 17.1627 758.294 Q17.4848 756.909 18.8696 756.909 M46.7599 764.961 Q44.7954 764.961 43.4749 765.283 Q40.2543 765.895 35.8099 768.342 L35.4879 768.536 Q36.3896 771.66 39.1271 774.204 Q42.4765 777.392 48.8211 779.003 Q52.3637 779.872 54.3605 779.872 Q56.5183 779.872 58.3862 779.067 Q60.1253 778.294 61.1237 776.845 Q62.1221 775.363 62.1221 773.399 Q62.1221 771.917 61.2848 770.629 Q60.4152 769.341 58.9015 768.407 Q57.3878 767.473 55.7453 766.829 Q54.0706 766.152 52.1061 765.637 Q49.4652 764.961 46.7599 764.961 Z" fill="#000000" fill-rule="evenodd" fill-opacity="1" /><path clip-path="url(#clip920)" d="M65.231 731.337 Q66.4258 731.337 67.1923 732.126 Q67.9588 732.893 67.9588 733.885 Q67.9588 734.741 67.4629 735.192 Q66.9669 735.643 66.3356 735.643 Q65.4339 735.643 64.6899 734.944 Q63.946 734.245 63.7882 733.231 Q63.2471 733.975 63.2471 735.17 Q63.2471 737.131 64.7576 738.867 Q65.4564 739.634 66.7414 740.468 Q68.0039 741.302 68.545 741.46 L74.5642 742.925 Q75.2406 743.06 78.4869 743.894 Q81.7107 744.706 81.846 744.774 Q82.4772 744.999 82.8154 745.495 Q83.1535 745.991 83.1535 746.487 Q83.1535 747.051 82.8154 747.434 Q82.4772 747.817 81.8911 747.817 Q81.8009 747.817 81.4627 747.749 Q81.1246 747.682 80.6512 747.569 Q80.1777 747.456 79.9072 747.411 L69.2438 744.729 Q67.305 744.233 66.6964 744.12 Q66.0651 743.985 65.3662 743.985 Q64.1489 743.985 63.698 744.368 Q63.2471 744.751 63.2471 745.427 Q63.2471 746.6 64.6448 747.366 Q66.0426 748.133 68.7479 748.786 Q69.4918 748.989 69.6496 749.125 Q69.8074 749.237 69.8074 749.575 Q69.7849 750.139 69.334 750.139 Q69.2213 750.139 68.4999 749.959 Q67.7559 749.778 66.6738 749.44 Q65.5691 749.08 64.8703 748.696 Q64.3969 748.471 64.0812 748.268 Q63.7656 748.065 63.2696 747.659 Q62.7737 747.253 62.5031 746.645 Q62.2326 746.036 62.2326 745.292 Q62.2326 743.669 63.2246 742.519 Q64.2165 741.347 65.772 741.076 Q64.9605 740.513 64.2616 739.814 Q63.5402 739.115 62.8864 737.83 Q62.2326 736.545 62.2326 735.17 Q62.2326 733.456 63.1118 732.397 Q63.9685 731.337 65.231 731.337 Z" fill="#000000" fill-rule="evenodd" fill-opacity="1" /><path clip-path="url(#clip920)" d="M77.2921 710.927 Q77.495 710.746 77.6979 710.746 Q77.9008 710.746 78.4869 711.197 Q79.0731 711.626 79.8621 712.55 Q80.6512 713.474 81.3951 714.669 Q82.1391 715.864 82.635 717.622 Q83.1535 719.381 83.1535 721.229 Q83.1535 724.543 80.7864 726.527 Q78.4193 728.489 74.7897 728.489 Q72.4676 728.489 70.4161 727.722 Q68.3421 726.956 66.8767 725.716 Q65.4113 724.453 64.3518 722.875 Q63.2696 721.274 62.7511 719.606 Q62.2326 717.938 62.2326 716.382 Q62.2326 714.105 63.3824 712.775 Q64.5321 711.445 66.1553 711.445 Q66.5385 711.445 67.012 711.558 Q67.4854 711.648 68.2294 711.964 Q68.9733 712.257 69.7173 713.023 Q70.4387 713.79 70.9121 714.917 Q71.9717 717.419 71.9717 721.973 L71.9717 724.431 Q74.8799 725.152 76.7736 725.152 Q77.5175 725.152 78.284 725.017 Q79.028 724.882 79.9748 724.521 Q80.9217 724.138 81.5304 723.281 Q82.1165 722.402 82.1165 721.139 Q82.1165 720.733 82.094 720.305 Q82.0714 719.854 81.8234 718.727 Q81.5755 717.577 81.1471 716.563 Q80.7188 715.548 79.7945 714.263 Q78.8476 712.956 77.5626 711.919 Q77.0892 711.558 77.0892 711.31 Q77.0892 711.107 77.2921 710.927 M66.1553 712.978 Q64.9154 712.978 64.0812 713.903 Q63.2471 714.804 63.2471 716.382 Q63.2471 716.878 63.3598 717.487 Q63.4725 718.096 63.946 719.11 Q64.4194 720.102 65.2084 720.981 Q65.9749 721.861 67.4854 722.74 Q68.9733 723.619 70.9572 724.138 L70.9572 722.244 Q70.9572 721.59 70.9572 721.117 Q70.9346 720.643 70.8445 719.606 Q70.7543 718.547 70.5965 717.78 Q70.4161 717.014 70.0554 716.044 Q69.6947 715.075 69.2213 714.466 Q68.7253 713.835 67.9363 713.407 Q67.1472 712.978 66.1553 712.978 Z" fill="#000000" fill-rule="evenodd" fill-opacity="1" /><path clip-path="url(#clip920)" d="M51.0958 697.312 L77.7881 703.963 Q78.8476 704.233 79.9974 704.233 Q82.1165 704.233 82.1165 702.836 Q82.1165 702.182 81.6882 701.641 Q81.2373 701.1 80.3581 700.694 Q79.4563 700.266 78.5996 699.995 Q77.743 699.702 76.4129 699.341 Q75.8943 699.229 75.7365 699.116 Q75.5787 699.003 75.5787 698.688 Q75.5787 698.124 76.0296 698.124 Q78.8025 698.688 80.561 699.522 Q83.1535 700.739 83.1535 702.994 Q83.1535 704.684 81.9813 705.947 Q80.7864 707.187 78.8927 707.187 Q78.1713 707.187 77.3146 706.961 L54.2295 701.145 L53.3277 700.987 Q53.0797 700.987 52.9444 701.077 Q52.8092 701.167 52.6739 701.709 Q52.5387 702.227 52.5387 703.264 Q52.5387 703.692 52.5161 703.895 Q52.4936 704.076 52.3808 704.256 Q52.2681 704.414 52.0201 704.414 Q51.6143 704.414 51.3889 704.256 Q51.1635 704.076 51.1184 703.94 Q51.0733 703.805 51.0507 703.535 Q51.0282 703.151 50.9155 701.866 Q50.7802 700.581 50.69 699.477 Q50.5999 698.372 50.5999 697.899 Q50.5999 697.628 50.7351 697.493 Q50.8478 697.335 50.9831 697.312 L51.0958 697.312 Z" fill="#000000" fill-rule="evenodd" fill-opacity="1" /><polyline clip-path="url(#clip923)" style="stroke:#3da44d; stroke-linecap:round; stroke-linejoin:round; stroke-width:4; stroke-opacity:1; fill:none" points="309.866,86.1857 820.588,1279.37 1331.31,1384.24 1842.03,1295 2352.76,1354.09 "/>
<path clip-path="url(#clip920)" d="M1613.52 196.789 L2284.66 196.789 L2284.66 93.1086 L1613.52 93.1086  Z" fill="#ffffff" fill-rule="evenodd" fill-opacity="1"/>
<polyline clip-path="url(#clip920)" style="stroke:#000000; stroke-linecap:round; stroke-linejoin:round; stroke-width:4; stroke-opacity:1; fill:none" points="1613.52,196.789 2284.66,196.789 2284.66,93.1086 1613.52,93.1086 1613.52,196.789 "/>
<polyline clip-path="url(#clip920)" style="stroke:#3da44d; stroke-linecap:round; stroke-linejoin:round; stroke-width:4; stroke-opacity:1; fill:none" points="1636.22,144.949 1772.41,144.949 "/>
<path clip-path="url(#clip920)" d="M1822.98 130.331 L1822.98 135.261 Q1820.62 133.062 1817.94 131.974 Q1815.27 130.886 1812.26 130.886 Q1806.34 130.886 1803.19 134.52 Q1800.04 138.132 1800.04 144.983 Q1800.04 151.812 1803.19 155.446 Q1806.34 159.057 1812.26 159.057 Q1815.27 159.057 1817.94 157.969 Q1820.62 156.881 1822.98 154.682 L1822.98 159.567 Q1820.53 161.233 1817.77 162.067 Q1815.04 162.9 1811.99 162.9 Q1804.14 162.9 1799.63 158.108 Q1795.11 153.293 1795.11 144.983 Q1795.11 136.65 1799.63 131.858 Q1804.14 127.044 1811.99 127.044 Q1815.09 127.044 1817.82 127.877 Q1820.57 128.687 1822.98 130.331 Z" fill="#000000" fill-rule="evenodd" fill-opacity="1" /><path clip-path="url(#clip920)" d="M1856.08 130.331 L1856.08 135.261 Q1853.72 133.062 1851.04 131.974 Q1848.38 130.886 1845.37 130.886 Q1839.44 130.886 1836.29 134.52 Q1833.14 138.132 1833.14 144.983 Q1833.14 151.812 1836.29 155.446 Q1839.44 159.057 1845.37 159.057 Q1848.38 159.057 1851.04 157.969 Q1853.72 156.881 1856.08 154.682 L1856.08 159.567 Q1853.63 161.233 1850.88 162.067 Q1848.14 162.9 1845.09 162.9 Q1837.24 162.9 1832.73 158.108 Q1828.21 153.293 1828.21 144.983 Q1828.21 136.65 1832.73 131.858 Q1837.24 127.044 1845.09 127.044 Q1848.19 127.044 1850.92 127.877 Q1853.68 128.687 1856.08 130.331 Z" fill="#000000" fill-rule="evenodd" fill-opacity="1" /><path clip-path="url(#clip920)" d="M1860.97 147.344 L1873.44 147.344 L1873.44 151.141 L1860.97 151.141 L1860.97 147.344 Z" fill="#000000" fill-rule="evenodd" fill-opacity="1" /><path clip-path="url(#clip920)" d="M1884.44 128.942 L1884.44 136.303 L1893.21 136.303 L1893.21 139.613 L1884.44 139.613 L1884.44 153.687 Q1884.44 156.858 1885.3 157.761 Q1886.18 158.664 1888.84 158.664 L1893.21 158.664 L1893.21 162.229 L1888.84 162.229 Q1883.91 162.229 1882.03 160.4 Q1880.16 158.548 1880.16 153.687 L1880.16 139.613 L1877.03 139.613 L1877.03 136.303 L1880.16 136.303 L1880.16 128.942 L1884.44 128.942 Z" fill="#000000" fill-rule="evenodd" fill-opacity="1" /><path clip-path="url(#clip920)" d="M1919.72 128.803 L1919.72 133.363 Q1917.06 132.09 1914.69 131.465 Q1912.33 130.84 1910.13 130.84 Q1906.31 130.84 1904.23 132.321 Q1902.17 133.803 1902.17 136.534 Q1902.17 138.826 1903.54 140.007 Q1904.93 141.164 1908.77 141.882 L1911.59 142.46 Q1916.82 143.456 1919.3 145.979 Q1921.8 148.479 1921.8 152.692 Q1921.8 157.715 1918.42 160.307 Q1915.06 162.9 1908.56 162.9 Q1906.11 162.9 1903.33 162.344 Q1900.57 161.789 1897.61 160.701 L1897.61 155.886 Q1900.46 157.483 1903.19 158.293 Q1905.92 159.104 1908.56 159.104 Q1912.56 159.104 1914.74 157.53 Q1916.92 155.956 1916.92 153.039 Q1916.92 150.493 1915.34 149.057 Q1913.79 147.622 1910.23 146.905 L1907.38 146.349 Q1902.15 145.307 1899.81 143.085 Q1897.47 140.863 1897.47 136.905 Q1897.47 132.321 1900.69 129.682 Q1903.93 127.044 1909.6 127.044 Q1912.03 127.044 1914.56 127.483 Q1917.08 127.923 1919.72 128.803 Z" fill="#000000" fill-rule="evenodd" fill-opacity="1" /><path clip-path="url(#clip920)" d="M1938 162.229 L1924.81 127.669 L1929.69 127.669 L1940.64 156.766 L1951.62 127.669 L1956.48 127.669 L1943.31 162.229 L1938 162.229 Z" fill="#000000" fill-rule="evenodd" fill-opacity="1" /><path clip-path="url(#clip920)" d="M1966.2 131.511 L1966.2 158.386 L1971.85 158.386 Q1979 158.386 1982.31 155.145 Q1985.64 151.905 1985.64 144.914 Q1985.64 137.969 1982.31 134.752 Q1979 131.511 1971.85 131.511 L1966.2 131.511 M1961.52 127.669 L1971.13 127.669 Q1981.18 127.669 1985.87 131.858 Q1990.57 136.025 1990.57 144.914 Q1990.57 153.849 1985.85 158.039 Q1981.13 162.229 1971.13 162.229 L1961.52 162.229 L1961.52 127.669 Z" fill="#000000" fill-rule="evenodd" fill-opacity="1" /><path clip-path="url(#clip920)" d="M2023.14 126.257 Q2020.04 131.581 2018.54 136.789 Q2017.03 141.997 2017.03 147.344 Q2017.03 152.692 2018.54 157.946 Q2020.06 163.178 2023.14 168.479 L2019.44 168.479 Q2015.97 163.039 2014.23 157.784 Q2012.52 152.53 2012.52 147.344 Q2012.52 142.182 2014.23 136.951 Q2015.94 131.72 2019.44 126.257 L2023.14 126.257 Z" fill="#000000" fill-rule="evenodd" fill-opacity="1" /><path clip-path="url(#clip920)" d="M2035.53 158.34 L2035.53 172.09 L2031.24 172.09 L2031.24 136.303 L2035.53 136.303 L2035.53 140.238 Q2036.87 137.923 2038.91 136.812 Q2040.97 135.678 2043.81 135.678 Q2048.54 135.678 2051.48 139.428 Q2054.44 143.178 2054.44 149.289 Q2054.44 155.4 2051.48 159.15 Q2048.54 162.9 2043.81 162.9 Q2040.97 162.9 2038.91 161.789 Q2036.87 160.655 2035.53 158.34 M2050.02 149.289 Q2050.02 144.59 2048.07 141.928 Q2046.15 139.243 2042.77 139.243 Q2039.39 139.243 2037.45 141.928 Q2035.53 144.59 2035.53 149.289 Q2035.53 153.988 2037.45 156.673 Q2039.39 159.335 2042.77 159.335 Q2046.15 159.335 2048.07 156.673 Q2050.02 153.988 2050.02 149.289 Z" fill="#000000" fill-rule="evenodd" fill-opacity="1" /><path clip-path="url(#clip920)" d="M2076.52 140.284 Q2075.8 139.868 2074.95 139.682 Q2074.11 139.474 2073.1 139.474 Q2069.48 139.474 2067.54 141.835 Q2065.62 144.173 2065.62 148.571 L2065.62 162.229 L2061.34 162.229 L2061.34 136.303 L2065.62 136.303 L2065.62 140.331 Q2066.96 137.969 2069.11 136.835 Q2071.27 135.678 2074.35 135.678 Q2074.79 135.678 2075.32 135.747 Q2075.85 135.794 2076.5 135.909 L2076.52 140.284 Z" fill="#000000" fill-rule="evenodd" fill-opacity="1" /><path clip-path="url(#clip920)" d="M2089.99 139.289 Q2086.57 139.289 2084.58 141.974 Q2082.59 144.636 2082.59 149.289 Q2082.59 153.942 2084.55 156.627 Q2086.55 159.289 2089.99 159.289 Q2093.4 159.289 2095.39 156.604 Q2097.38 153.918 2097.38 149.289 Q2097.38 144.682 2095.39 141.997 Q2093.4 139.289 2089.99 139.289 M2089.99 135.678 Q2095.55 135.678 2098.72 139.289 Q2101.89 142.9 2101.89 149.289 Q2101.89 155.655 2098.72 159.289 Q2095.55 162.9 2089.99 162.9 Q2084.42 162.9 2081.24 159.289 Q2078.1 155.655 2078.1 149.289 Q2078.1 142.9 2081.24 139.289 Q2084.42 135.678 2089.99 135.678 Z" fill="#000000" fill-rule="evenodd" fill-opacity="1" /><path clip-path="url(#clip920)" d="M2113.07 158.34 L2113.07 172.09 L2108.79 172.09 L2108.79 136.303 L2113.07 136.303 L2113.07 140.238 Q2114.42 137.923 2116.45 136.812 Q2118.51 135.678 2121.36 135.678 Q2126.08 135.678 2129.02 139.428 Q2131.98 143.178 2131.98 149.289 Q2131.98 155.4 2129.02 159.15 Q2126.08 162.9 2121.36 162.9 Q2118.51 162.9 2116.45 161.789 Q2114.42 160.655 2113.07 158.34 M2127.56 149.289 Q2127.56 144.59 2125.62 141.928 Q2123.7 139.243 2120.32 139.243 Q2116.94 139.243 2114.99 141.928 Q2113.07 144.59 2113.07 149.289 Q2113.07 153.988 2114.99 156.673 Q2116.94 159.335 2120.32 159.335 Q2123.7 159.335 2125.62 156.673 Q2127.56 153.988 2127.56 149.289 Z" fill="#000000" fill-rule="evenodd" fill-opacity="1" /><path clip-path="url(#clip920)" d="M2149.09 139.289 Q2145.67 139.289 2143.67 141.974 Q2141.68 144.636 2141.68 149.289 Q2141.68 153.942 2143.65 156.627 Q2145.64 159.289 2149.09 159.289 Q2152.49 159.289 2154.48 156.604 Q2156.48 153.918 2156.48 149.289 Q2156.48 144.682 2154.48 141.997 Q2152.49 139.289 2149.09 139.289 M2149.09 135.678 Q2154.65 135.678 2157.82 139.289 Q2160.99 142.9 2160.99 149.289 Q2160.99 155.655 2157.82 159.289 Q2154.65 162.9 2149.09 162.9 Q2143.51 162.9 2140.34 159.289 Q2137.19 155.655 2137.19 149.289 Q2137.19 142.9 2140.34 139.289 Q2143.51 135.678 2149.09 135.678 Z" fill="#000000" fill-rule="evenodd" fill-opacity="1" /><path clip-path="url(#clip920)" d="M2184.58 137.067 L2184.58 141.094 Q2182.77 140.169 2180.83 139.706 Q2178.88 139.243 2176.8 139.243 Q2173.63 139.243 2172.03 140.215 Q2170.46 141.187 2170.46 143.131 Q2170.46 144.613 2171.59 145.469 Q2172.73 146.303 2176.15 147.067 L2177.61 147.391 Q2182.15 148.363 2184.04 150.145 Q2185.97 151.905 2185.97 155.076 Q2185.97 158.687 2183.1 160.793 Q2180.25 162.9 2175.25 162.9 Q2173.16 162.9 2170.9 162.483 Q2168.65 162.09 2166.15 161.28 L2166.15 156.881 Q2168.51 158.108 2170.8 158.733 Q2173.1 159.335 2175.34 159.335 Q2178.35 159.335 2179.97 158.317 Q2181.59 157.275 2181.59 155.4 Q2181.59 153.664 2180.41 152.738 Q2179.25 151.812 2175.29 150.956 L2173.81 150.608 Q2169.85 149.775 2168.1 148.062 Q2166.34 146.326 2166.34 143.317 Q2166.34 139.659 2168.93 137.669 Q2171.52 135.678 2176.29 135.678 Q2178.65 135.678 2180.73 136.025 Q2182.82 136.372 2184.58 137.067 Z" fill="#000000" fill-rule="evenodd" fill-opacity="1" /><path clip-path="url(#clip920)" d="M2214.92 148.201 L2214.92 150.284 L2195.34 150.284 Q2195.62 154.682 2197.98 156.997 Q2200.36 159.289 2204.6 159.289 Q2207.05 159.289 2209.35 158.687 Q2211.66 158.085 2213.93 156.881 L2213.93 160.909 Q2211.64 161.881 2209.23 162.391 Q2206.82 162.9 2204.35 162.9 Q2198.14 162.9 2194.51 159.289 Q2190.9 155.678 2190.9 149.52 Q2190.9 143.155 2194.32 139.428 Q2197.77 135.678 2203.6 135.678 Q2208.84 135.678 2211.87 139.057 Q2214.92 142.414 2214.92 148.201 M2210.66 146.951 Q2210.62 143.456 2208.7 141.372 Q2206.8 139.289 2203.65 139.289 Q2200.09 139.289 2197.93 141.303 Q2195.8 143.317 2195.48 146.974 L2210.66 146.951 Z" fill="#000000" fill-rule="evenodd" fill-opacity="1" /><path clip-path="url(#clip920)" d="M2238.97 140.238 L2238.97 126.21 L2243.23 126.21 L2243.23 162.229 L2238.97 162.229 L2238.97 158.34 Q2237.63 160.655 2235.57 161.789 Q2233.54 162.9 2230.66 162.9 Q2225.97 162.9 2223 159.15 Q2220.06 155.4 2220.06 149.289 Q2220.06 143.178 2223 139.428 Q2225.97 135.678 2230.66 135.678 Q2233.54 135.678 2235.57 136.812 Q2237.63 137.923 2238.97 140.238 M2224.46 149.289 Q2224.46 153.988 2226.38 156.673 Q2228.33 159.335 2231.71 159.335 Q2235.09 159.335 2237.03 156.673 Q2238.97 153.988 2238.97 149.289 Q2238.97 144.59 2237.03 141.928 Q2235.09 139.243 2231.71 139.243 Q2228.33 139.243 2226.38 141.928 Q2224.46 144.59 2224.46 149.289 Z" fill="#000000" fill-rule="evenodd" fill-opacity="1" /><path clip-path="url(#clip920)" d="M2251.34 126.257 L2255.04 126.257 Q2258.51 131.72 2260.22 136.951 Q2261.96 142.182 2261.96 147.344 Q2261.96 152.53 2260.22 157.784 Q2258.51 163.039 2255.04 168.479 L2251.34 168.479 Q2254.41 163.178 2255.92 157.946 Q2257.45 152.692 2257.45 147.344 Q2257.45 141.997 2255.92 136.789 Q2254.41 131.581 2251.34 126.257 Z" fill="#000000" fill-rule="evenodd" fill-opacity="1" /></svg>
