<?xml version="1.0" encoding="utf-8"?>
<svg xmlns="http://www.w3.org/2000/svg" xmlns:xlink="http://www.w3.org/1999/xlink" width="600" height="400" viewBox="0 0 2400 1600">
<defs>
  <clipPath id="clip760">
    <rect x="0" y="0" width="2400" height="1600"/>
  </clipPath>
</defs>
<path clip-path="url(#clip760)" d="M0 1600 L2400 1600 L2400 0 L0 0  Z" fill="#ffffff" fill-rule="evenodd" fill-opacity="1"/>
<defs>
  <clipPath id="clip761">
    <rect x="480" y="0" width="1681" height="1600"/>
  </clipPath>
</defs>
<defs>
  <clipPath id="clip762">
    <rect x="219" y="47" width="2134" height="1377"/>
  </clipPath>
</defs>
<path clip-path="url(#clip760)" d="M258.387 1423.18 L2352.76 1423.18 L2352.76 47.2441 L258.387 47.2441  Z" fill="#ffffff" fill-rule="evenodd" fill-opacity="1"/>
<defs>
  <clipPath id="clip763">
    <rect x="258" y="47" width="2095" height="1377"/>
  </clipPath>
</defs>
<polyline clip-path="url(#clip763)" style="stroke:#000000; stroke-linecap:round; stroke-linejoin:round; stroke-width:2; stroke-opacity:0.1; fill:none" points="258.387,1423.18 258.387,47.2441 "/>
<polyline clip-path="url(#clip763)" style="stroke:#000000; stroke-linecap:round; stroke-linejoin:round; stroke-width:2; stroke-opacity:0.1; fill:none" points="677.261,1423.18 677.261,47.2441 "/>
<polyline clip-path="url(#clip763)" style="stroke:#000000; stroke-linecap:round; stroke-linejoin:round; stroke-width:2; stroke-opacity:0.1; fill:none" points="1096.13,1423.18 1096.13,47.2441 "/>
<polyline clip-path="url(#clip763)" style="stroke:#000000; stroke-linecap:round; stroke-linejoin:round; stroke-width:2; stroke-opacity:0.1; fill:none" points="1515.01,1423.18 1515.01,47.2441 "/>
<polyline clip-path="url(#clip763)" style="stroke:#000000; stroke-linecap:round; stroke-linejoin:round; stroke-width:2; stroke-opacity:0.1; fill:none" points="1933.88,1423.18 1933.88,47.2441 "/>
<polyline clip-path="url(#clip763)" style="stroke:#000000; stroke-linecap:round; stroke-linejoin:round; stroke-width:2; stroke-opacity:0.1; fill:none" points="2352.76,1423.18 2352.76,47.2441 "/>
<polyline clip-path="url(#clip760)" style="stroke:#000000; stroke-linecap:round; stroke-linejoin:round; stroke-width:4; stroke-opacity:1; fill:none" points="258.387,1423.18 2352.76,1423.18 "/>
<polyline clip-path="url(#clip760)" style="stroke:#000000; stroke-linecap:round; stroke-linejoin:round; stroke-width:4; stroke-opacity:1; fill:none" points="258.387,1423.18 258.387,1404.28 "/>
<polyline clip-path="url(#clip760)" style="stroke:#000000; stroke-linecap:round; stroke-linejoin:round; stroke-width:4; stroke-opacity:1; fill:none" points="677.261,1423.18 677.261,1404.28 "/>
<polyline clip-path="url(#clip760)" style="stroke:#000000; stroke-linecap:round; stroke-linejoin:round; stroke-width:4; stroke-opacity:1; fill:none" points="1096.13,1423.18 1096.13,1404.28 "/>
<polyline clip-path="url(#clip760)" style="stroke:#000000; stroke-linecap:round; stroke-linejoin:round; stroke-width:4; stroke-opacity:1; fill:none" points="1515.01,1423.18 1515.01,1404.28 "/>
<polyline clip-path="url(#clip760)" style="stroke:#000000; stroke-linecap:round; stroke-linejoin:round; stroke-width:4; stroke-opacity:1; fill:none" points="1933.88,1423.18 1933.88,1404.28 "/>
<polyline clip-path="url(#clip760)" style="stroke:#000000; stroke-linecap:round; stroke-linejoin:round; stroke-width:4; stroke-opacity:1; fill:none" points="2352.76,1423.18 2352.76,1404.28 "/>
<path clip-path="url(#clip760)" d="M248.769 1481.64 L256.408 1481.64 L256.408 1455.28 L248.098 1456.95 L248.098 1452.69 L256.362 1451.02 L261.038 1451.02 L261.038 1481.64 L268.677 1481.64 L268.677 1485.58 L248.769 1485.58 L248.769 1481.64 Z" fill="#000000" fill-rule="evenodd" fill-opacity="1" /><path clip-path="url(#clip760)" d="M671.914 1481.64 L688.233 1481.64 L688.233 1485.58 L666.289 1485.58 L666.289 1481.64 Q668.951 1478.89 673.534 1474.26 Q678.141 1469.61 679.321 1468.27 Q681.567 1465.74 682.446 1464.01 Q683.349 1462.25 683.349 1460.56 Q683.349 1457.8 681.405 1456.07 Q679.483 1454.33 676.382 1454.33 Q674.182 1454.33 671.729 1455.09 Q669.298 1455.86 666.52 1457.41 L666.52 1452.69 Q669.345 1451.55 671.798 1450.97 Q674.252 1450.39 676.289 1450.39 Q681.659 1450.39 684.854 1453.08 Q688.048 1455.77 688.048 1460.26 Q688.048 1462.39 687.238 1464.31 Q686.451 1466.2 684.344 1468.8 Q683.766 1469.47 680.664 1472.69 Q677.562 1475.88 671.914 1481.64 Z" fill="#000000" fill-rule="evenodd" fill-opacity="1" /><path clip-path="url(#clip760)" d="M1100.38 1466.95 Q1103.74 1467.66 1105.61 1469.93 Q1107.51 1472.2 1107.51 1475.53 Q1107.51 1480.65 1103.99 1483.45 Q1100.48 1486.25 1093.99 1486.25 Q1091.82 1486.25 1089.5 1485.81 Q1087.21 1485.39 1084.76 1484.54 L1084.76 1480.02 Q1086.7 1481.16 1089.02 1481.74 Q1091.33 1482.32 1093.85 1482.32 Q1098.25 1482.32 1100.54 1480.58 Q1102.86 1478.84 1102.86 1475.53 Q1102.86 1472.48 1100.71 1470.77 Q1098.58 1469.03 1094.76 1469.03 L1090.73 1469.03 L1090.73 1465.19 L1094.94 1465.19 Q1098.39 1465.19 1100.22 1463.82 Q1102.05 1462.43 1102.05 1459.84 Q1102.05 1457.18 1100.15 1455.77 Q1098.28 1454.33 1094.76 1454.33 Q1092.84 1454.33 1090.64 1454.75 Q1088.44 1455.16 1085.8 1456.04 L1085.8 1451.88 Q1088.46 1451.14 1090.78 1450.77 Q1093.11 1450.39 1095.17 1450.39 Q1100.5 1450.39 1103.6 1452.83 Q1106.7 1455.23 1106.7 1459.35 Q1106.7 1462.22 1105.06 1464.21 Q1103.41 1466.18 1100.38 1466.95 Z" fill="#000000" fill-rule="evenodd" fill-opacity="1" /><path clip-path="url(#clip760)" d="M1518.02 1455.09 L1506.21 1473.54 L1518.02 1473.54 L1518.02 1455.09 M1516.79 1451.02 L1522.67 1451.02 L1522.67 1473.54 L1527.6 1473.54 L1527.6 1477.43 L1522.67 1477.43 L1522.67 1485.58 L1518.02 1485.58 L1518.02 1477.43 L1502.42 1477.43 L1502.42 1472.92 L1516.79 1451.02 Z" fill="#000000" fill-rule="evenodd" fill-opacity="1" /><path clip-path="url(#clip760)" d="M1924.16 1451.02 L1942.52 1451.02 L1942.52 1454.96 L1928.44 1454.96 L1928.44 1463.43 Q1929.46 1463.08 1930.48 1462.92 Q1931.5 1462.73 1932.52 1462.73 Q1938.3 1462.73 1941.68 1465.9 Q1945.06 1469.08 1945.06 1474.49 Q1945.06 1480.07 1941.59 1483.17 Q1938.12 1486.25 1931.8 1486.25 Q1929.62 1486.25 1927.35 1485.88 Q1925.11 1485.51 1922.7 1484.77 L1922.7 1480.07 Q1924.79 1481.2 1927.01 1481.76 Q1929.23 1482.32 1931.71 1482.32 Q1935.71 1482.32 1938.05 1480.21 Q1940.39 1478.1 1940.39 1474.49 Q1940.39 1470.88 1938.05 1468.77 Q1935.71 1466.67 1931.71 1466.67 Q1929.83 1466.67 1927.96 1467.08 Q1926.1 1467.5 1924.16 1468.38 L1924.16 1451.02 Z" fill="#000000" fill-rule="evenodd" fill-opacity="1" /><path clip-path="url(#clip760)" d="M2353.16 1466.44 Q2350.01 1466.44 2348.16 1468.59 Q2346.33 1470.74 2346.33 1474.49 Q2346.33 1478.22 2348.16 1480.39 Q2350.01 1482.55 2353.16 1482.55 Q2356.31 1482.55 2358.14 1480.39 Q2359.99 1478.22 2359.99 1474.49 Q2359.99 1470.74 2358.14 1468.59 Q2356.31 1466.44 2353.16 1466.44 M2362.44 1451.78 L2362.44 1456.04 Q2360.68 1455.21 2358.88 1454.77 Q2357.1 1454.33 2355.34 1454.33 Q2350.71 1454.33 2348.25 1457.45 Q2345.82 1460.58 2345.48 1466.9 Q2346.84 1464.89 2348.9 1463.82 Q2350.96 1462.73 2353.44 1462.73 Q2358.65 1462.73 2361.66 1465.9 Q2364.69 1469.05 2364.69 1474.49 Q2364.69 1479.82 2361.54 1483.03 Q2358.39 1486.25 2353.16 1486.25 Q2347.17 1486.25 2343.99 1481.67 Q2340.82 1477.06 2340.82 1468.33 Q2340.82 1460.14 2344.71 1455.28 Q2348.6 1450.39 2355.15 1450.39 Q2356.91 1450.39 2358.69 1450.74 Q2360.5 1451.09 2362.44 1451.78 Z" fill="#000000" fill-rule="evenodd" fill-opacity="1" /><path clip-path="url(#clip760)" d="M1007.32 1550.12 Q1000.22 1550.12 997.487 1551.75 Q994.75 1553.37 994.75 1557.29 Q994.75 1560.4 996.787 1562.25 Q998.856 1564.07 1002.39 1564.07 Q1007.26 1564.07 1010.19 1560.63 Q1013.15 1557.16 1013.15 1551.43 L1013.15 1550.12 L1007.32 1550.12 M1019 1547.71 L1019 1568.04 L1013.15 1568.04 L1013.15 1562.63 Q1011.14 1565.88 1008.15 1567.44 Q1005.16 1568.97 1000.83 1568.97 Q995.355 1568.97 992.108 1565.91 Q988.894 1562.82 988.894 1557.67 Q988.894 1551.65 992.904 1548.6 Q996.946 1545.54 1004.94 1545.54 L1013.15 1545.54 L1013.15 1544.97 Q1013.15 1540.93 1010.47 1538.73 Q1007.83 1536.5 1003.03 1536.5 Q999.97 1536.5 997.074 1537.23 Q994.177 1537.97 991.504 1539.43 L991.504 1534.02 Q994.718 1532.78 997.742 1532.17 Q1000.77 1531.54 1003.63 1531.54 Q1011.36 1531.54 1015.18 1535.55 Q1019 1539.56 1019 1547.71 Z" fill="#000000" fill-rule="evenodd" fill-opacity="1" /><path clip-path="url(#clip760)" d="M1036.73 1562.7 L1036.73 1581.6 L1030.84 1581.6 L1030.84 1532.4 L1036.73 1532.4 L1036.73 1537.81 Q1038.58 1534.62 1041.38 1533.1 Q1044.21 1531.54 1048.13 1531.54 Q1054.62 1531.54 1058.66 1536.69 Q1062.74 1541.85 1062.74 1550.25 Q1062.74 1558.65 1058.66 1563.81 Q1054.62 1568.97 1048.13 1568.97 Q1044.21 1568.97 1041.38 1567.44 Q1038.58 1565.88 1036.73 1562.7 M1056.66 1550.25 Q1056.66 1543.79 1053.98 1540.13 Q1051.34 1536.44 1046.69 1536.44 Q1042.05 1536.44 1039.37 1540.13 Q1036.73 1543.79 1036.73 1550.25 Q1036.73 1556.71 1039.37 1560.4 Q1042.05 1564.07 1046.69 1564.07 Q1051.34 1564.07 1053.98 1560.4 Q1056.66 1556.71 1056.66 1550.25 Z" fill="#000000" fill-rule="evenodd" fill-opacity="1" /><path clip-path="url(#clip760)" d="M1078.11 1562.7 L1078.11 1581.6 L1072.22 1581.6 L1072.22 1532.4 L1078.11 1532.4 L1078.11 1537.81 Q1079.96 1534.62 1082.76 1533.1 Q1085.59 1531.54 1089.5 1531.54 Q1096 1531.54 1100.04 1536.69 Q1104.11 1541.85 1104.11 1550.25 Q1104.11 1558.65 1100.04 1563.81 Q1096 1568.97 1089.5 1568.97 Q1085.59 1568.97 1082.76 1567.44 Q1079.96 1565.88 1078.11 1562.7 M1098.03 1550.25 Q1098.03 1543.79 1095.36 1540.13 Q1092.72 1536.44 1088.07 1536.44 Q1083.42 1536.44 1080.75 1540.13 Q1078.11 1543.79 1078.11 1550.25 Q1078.11 1556.71 1080.75 1560.4 Q1083.42 1564.07 1088.07 1564.07 Q1092.72 1564.07 1095.36 1560.4 Q1098.03 1556.71 1098.03 1550.25 Z" fill="#000000" fill-rule="evenodd" fill-opacity="1" /><path clip-path="url(#clip760)" d="M1134.48 1537.87 Q1133.49 1537.3 1132.31 1537.04 Q1131.17 1536.76 1129.77 1536.76 Q1124.8 1536.76 1122.13 1540 Q1119.49 1543.22 1119.49 1549.27 L1119.49 1568.04 L1113.6 1568.04 L1113.6 1532.4 L1119.49 1532.4 L1119.49 1537.93 Q1121.33 1534.69 1124.29 1533.13 Q1127.25 1531.54 1131.49 1531.54 Q1132.09 1531.54 1132.82 1531.63 Q1133.55 1531.7 1134.45 1531.85 L1134.48 1537.87 Z" fill="#000000" fill-rule="evenodd" fill-opacity="1" /><path clip-path="url(#clip760)" d="M1153 1536.5 Q1148.29 1536.5 1145.55 1540.19 Q1142.82 1543.85 1142.82 1550.25 Q1142.82 1556.65 1145.52 1560.34 Q1148.26 1564 1153 1564 Q1157.68 1564 1160.42 1560.31 Q1163.15 1556.62 1163.15 1550.25 Q1163.15 1543.92 1160.42 1540.23 Q1157.68 1536.5 1153 1536.5 M1153 1531.54 Q1160.64 1531.54 1165 1536.5 Q1169.36 1541.47 1169.36 1550.25 Q1169.36 1559 1165 1564 Q1160.64 1568.97 1153 1568.97 Q1145.33 1568.97 1140.97 1564 Q1136.64 1559 1136.64 1550.25 Q1136.64 1541.47 1140.97 1536.5 Q1145.33 1531.54 1153 1531.54 Z" fill="#000000" fill-rule="evenodd" fill-opacity="1" /><path clip-path="url(#clip760)" d="M1206.7 1532.4 L1193.81 1549.74 L1207.36 1568.04 L1200.46 1568.04 L1190.08 1554.04 L1179.71 1568.04 L1172.8 1568.04 L1186.64 1549.39 L1173.98 1532.4 L1180.88 1532.4 L1190.34 1545.1 L1199.79 1532.4 L1206.7 1532.4 Z" fill="#000000" fill-rule="evenodd" fill-opacity="1" /><path clip-path="url(#clip760)" d="M1215.64 1532.4 L1221.5 1532.4 L1221.5 1568.04 L1215.64 1568.04 L1215.64 1532.4 M1215.64 1518.52 L1221.5 1518.52 L1221.5 1525.93 L1215.64 1525.93 L1215.64 1518.52 Z" fill="#000000" fill-rule="evenodd" fill-opacity="1" /><path clip-path="url(#clip760)" d="M1261.51 1539.24 Q1263.7 1535.29 1266.76 1533.41 Q1269.81 1531.54 1273.95 1531.54 Q1279.52 1531.54 1282.54 1535.45 Q1285.57 1539.33 1285.57 1546.53 L1285.57 1568.04 L1279.68 1568.04 L1279.68 1546.72 Q1279.68 1541.59 1277.86 1539.11 Q1276.05 1536.63 1272.33 1536.63 Q1267.78 1536.63 1265.13 1539.65 Q1262.49 1542.68 1262.49 1547.9 L1262.49 1568.04 L1256.6 1568.04 L1256.6 1546.72 Q1256.6 1541.56 1254.79 1539.11 Q1252.98 1536.63 1249.19 1536.63 Q1244.7 1536.63 1242.06 1539.68 Q1239.42 1542.71 1239.42 1547.9 L1239.42 1568.04 L1233.53 1568.04 L1233.53 1532.4 L1239.42 1532.4 L1239.42 1537.93 Q1241.42 1534.66 1244.22 1533.1 Q1247.02 1531.54 1250.87 1531.54 Q1254.76 1531.54 1257.46 1533.51 Q1260.2 1535.48 1261.51 1539.24 Z" fill="#000000" fill-rule="evenodd" fill-opacity="1" /><path clip-path="url(#clip760)" d="M1313.45 1550.12 Q1306.35 1550.12 1303.61 1551.75 Q1300.88 1553.37 1300.88 1557.29 Q1300.88 1560.4 1302.91 1562.25 Q1304.98 1564.07 1308.52 1564.07 Q1313.39 1564.07 1316.31 1560.63 Q1319.27 1557.16 1319.27 1551.43 L1319.27 1550.12 L1313.45 1550.12 M1325.13 1547.71 L1325.13 1568.04 L1319.27 1568.04 L1319.27 1562.63 Q1317.27 1565.88 1314.28 1567.44 Q1311.28 1568.97 1306.96 1568.97 Q1301.48 1568.97 1298.24 1565.91 Q1295.02 1562.82 1295.02 1557.67 Q1295.02 1551.65 1299.03 1548.6 Q1303.07 1545.54 1311.06 1545.54 L1319.27 1545.54 L1319.27 1544.97 Q1319.27 1540.93 1316.6 1538.73 Q1313.96 1536.5 1309.15 1536.5 Q1306.1 1536.5 1303.2 1537.23 Q1300.3 1537.97 1297.63 1539.43 L1297.63 1534.02 Q1300.85 1532.78 1303.87 1532.17 Q1306.89 1531.54 1309.76 1531.54 Q1317.49 1531.54 1321.31 1535.55 Q1325.13 1539.56 1325.13 1547.71 Z" fill="#000000" fill-rule="evenodd" fill-opacity="1" /><path clip-path="url(#clip760)" d="M1342.99 1522.27 L1342.99 1532.4 L1355.05 1532.4 L1355.05 1536.95 L1342.99 1536.95 L1342.99 1556.3 Q1342.99 1560.66 1344.16 1561.9 Q1345.37 1563.14 1349.03 1563.14 L1355.05 1563.14 L1355.05 1568.04 L1349.03 1568.04 Q1342.25 1568.04 1339.68 1565.53 Q1337.1 1562.98 1337.1 1556.3 L1337.1 1536.95 L1332.8 1536.95 L1332.8 1532.4 L1337.1 1532.4 L1337.1 1522.27 L1342.99 1522.27 Z" fill="#000000" fill-rule="evenodd" fill-opacity="1" /><path clip-path="url(#clip760)" d="M1362.75 1532.4 L1368.61 1532.4 L1368.61 1568.04 L1362.75 1568.04 L1362.75 1532.4 M1362.75 1518.52 L1368.61 1518.52 L1368.61 1525.93 L1362.75 1525.93 L1362.75 1518.52 Z" fill="#000000" fill-rule="evenodd" fill-opacity="1" /><path clip-path="url(#clip760)" d="M1394.68 1536.5 Q1389.97 1536.5 1387.23 1540.19 Q1384.49 1543.85 1384.49 1550.25 Q1384.49 1556.65 1387.2 1560.34 Q1389.93 1564 1394.68 1564 Q1399.35 1564 1402.09 1560.31 Q1404.83 1556.62 1404.83 1550.25 Q1404.83 1543.92 1402.09 1540.23 Q1399.35 1536.5 1394.68 1536.5 M1394.68 1531.54 Q1402.31 1531.54 1406.68 1536.5 Q1411.04 1541.47 1411.04 1550.25 Q1411.04 1559 1406.68 1564 Q1402.31 1568.97 1394.68 1568.97 Q1387 1568.97 1382.64 1564 Q1378.32 1559 1378.32 1550.25 Q1378.32 1541.47 1382.64 1536.5 Q1387 1531.54 1394.68 1531.54 Z" fill="#000000" fill-rule="evenodd" fill-opacity="1" /><path clip-path="url(#clip760)" d="M1450.38 1546.53 L1450.38 1568.04 L1444.52 1568.04 L1444.52 1546.72 Q1444.52 1541.66 1442.55 1539.14 Q1440.57 1536.63 1436.63 1536.63 Q1431.88 1536.63 1429.15 1539.65 Q1426.41 1542.68 1426.41 1547.9 L1426.41 1568.04 L1420.52 1568.04 L1420.52 1532.4 L1426.41 1532.4 L1426.41 1537.93 Q1428.51 1534.72 1431.34 1533.13 Q1434.21 1531.54 1437.93 1531.54 Q1444.07 1531.54 1447.22 1535.36 Q1450.38 1539.14 1450.38 1546.53 Z" fill="#000000" fill-rule="evenodd" fill-opacity="1" /><path clip-path="url(#clip760)" d="M1503.43 1537.87 Q1502.45 1537.3 1501.27 1537.04 Q1500.12 1536.76 1498.72 1536.76 Q1493.76 1536.76 1491.08 1540 Q1488.44 1543.22 1488.44 1549.27 L1488.44 1568.04 L1482.55 1568.04 L1482.55 1532.4 L1488.44 1532.4 L1488.44 1537.93 Q1490.29 1534.69 1493.25 1533.13 Q1496.21 1531.54 1500.44 1531.54 Q1501.05 1531.54 1501.78 1531.63 Q1502.51 1531.7 1503.4 1531.85 L1503.43 1537.87 Z" fill="#000000" fill-rule="evenodd" fill-opacity="1" /><path clip-path="url(#clip760)" d="M1525.78 1550.12 Q1518.68 1550.12 1515.94 1551.75 Q1513.21 1553.37 1513.21 1557.29 Q1513.21 1560.4 1515.24 1562.25 Q1517.31 1564.07 1520.84 1564.07 Q1525.71 1564.07 1528.64 1560.63 Q1531.6 1557.16 1531.6 1551.43 L1531.6 1550.12 L1525.78 1550.12 M1537.46 1547.71 L1537.46 1568.04 L1531.6 1568.04 L1531.6 1562.63 Q1529.6 1565.88 1526.6 1567.44 Q1523.61 1568.97 1519.28 1568.97 Q1513.81 1568.97 1510.56 1565.91 Q1507.35 1562.82 1507.35 1557.67 Q1507.35 1551.65 1511.36 1548.6 Q1515.4 1545.54 1523.39 1545.54 L1531.6 1545.54 L1531.6 1544.97 Q1531.6 1540.93 1528.93 1538.73 Q1526.29 1536.5 1521.48 1536.5 Q1518.43 1536.5 1515.53 1537.23 Q1512.63 1537.97 1509.96 1539.43 L1509.96 1534.02 Q1513.17 1532.78 1516.2 1532.17 Q1519.22 1531.54 1522.09 1531.54 Q1529.82 1531.54 1533.64 1535.55 Q1537.46 1539.56 1537.46 1547.71 Z" fill="#000000" fill-rule="evenodd" fill-opacity="1" /><path clip-path="url(#clip760)" d="M1579.15 1546.53 L1579.15 1568.04 L1573.3 1568.04 L1573.3 1546.72 Q1573.3 1541.66 1571.32 1539.14 Q1569.35 1536.63 1565.4 1536.63 Q1560.66 1536.63 1557.92 1539.65 Q1555.19 1542.68 1555.19 1547.9 L1555.19 1568.04 L1549.3 1568.04 L1549.3 1532.4 L1555.19 1532.4 L1555.19 1537.93 Q1557.29 1534.72 1560.12 1533.13 Q1562.98 1531.54 1566.71 1531.54 Q1572.85 1531.54 1576 1535.36 Q1579.15 1539.14 1579.15 1546.53 Z" fill="#000000" fill-rule="evenodd" fill-opacity="1" /><path clip-path="url(#clip760)" d="M1590.61 1518.52 L1596.5 1518.52 L1596.5 1547.77 L1613.97 1532.4 L1621.45 1532.4 L1602.55 1549.07 L1622.25 1568.04 L1614.61 1568.04 L1596.5 1550.63 L1596.5 1568.04 L1590.61 1568.04 L1590.61 1518.52 Z" fill="#000000" fill-rule="evenodd" fill-opacity="1" /><polyline clip-path="url(#clip763)" style="stroke:#000000; stroke-linecap:round; stroke-linejoin:round; stroke-width:2; stroke-opacity:0.1; fill:none" points="258.387,929.078 2352.76,929.078 "/>
<polyline clip-path="url(#clip763)" style="stroke:#000000; stroke-linecap:round; stroke-linejoin:round; stroke-width:2; stroke-opacity:0.1; fill:none" points="258.387,394.414 2352.76,394.414 "/>
<polyline clip-path="url(#clip760)" style="stroke:#000000; stroke-linecap:round; stroke-linejoin:round; stroke-width:4; stroke-opacity:1; fill:none" points="258.387,1423.18 258.387,47.2441 "/>
<polyline clip-path="url(#clip760)" style="stroke:#000000; stroke-linecap:round; stroke-linejoin:round; stroke-width:4; stroke-opacity:1; fill:none" points="258.387,929.078 277.285,929.078 "/>
<polyline clip-path="url(#clip760)" style="stroke:#000000; stroke-linecap:round; stroke-linejoin:round; stroke-width:4; stroke-opacity:1; fill:none" points="258.387,394.414 277.285,394.414 "/>
<path clip-path="url(#clip760)" d="M114.931 948.87 L122.57 948.87 L122.57 922.505 L114.26 924.172 L114.26 919.912 L122.524 918.246 L127.2 918.246 L127.2 948.87 L134.839 948.87 L134.839 952.806 L114.931 952.806 L114.931 948.87 Z" fill="#000000" fill-rule="evenodd" fill-opacity="1" /><path clip-path="url(#clip760)" d="M154.283 921.324 Q150.672 921.324 148.843 924.889 Q147.038 928.431 147.038 935.56 Q147.038 942.667 148.843 946.232 Q150.672 949.773 154.283 949.773 Q157.917 949.773 159.723 946.232 Q161.552 942.667 161.552 935.56 Q161.552 928.431 159.723 924.889 Q157.917 921.324 154.283 921.324 M154.283 917.621 Q160.093 917.621 163.149 922.227 Q166.227 926.81 166.227 935.56 Q166.227 944.287 163.149 948.894 Q160.093 953.477 154.283 953.477 Q148.473 953.477 145.394 948.894 Q142.339 944.287 142.339 935.56 Q142.339 926.81 145.394 922.227 Q148.473 917.621 154.283 917.621 Z" fill="#000000" fill-rule="evenodd" fill-opacity="1" /><path clip-path="url(#clip760)" d="M175.932 899.817 Q172.998 899.817 171.512 902.713 Q170.045 905.591 170.045 911.383 Q170.045 917.157 171.512 920.054 Q172.998 922.931 175.932 922.931 Q178.885 922.931 180.352 920.054 Q181.838 917.157 181.838 911.383 Q181.838 905.591 180.352 902.713 Q178.885 899.817 175.932 899.817 M175.932 896.807 Q180.653 896.807 183.136 900.55 Q185.637 904.274 185.637 911.383 Q185.637 918.474 183.136 922.217 Q180.653 925.941 175.932 925.941 Q171.212 925.941 168.71 922.217 Q166.227 918.474 166.227 911.383 Q166.227 904.274 168.71 900.55 Q171.212 896.807 175.932 896.807 Z" fill="#000000" fill-rule="evenodd" fill-opacity="1" /><path clip-path="url(#clip760)" d="M192.314 920.618 L196.282 920.618 L196.282 925.395 L192.314 925.395 L192.314 920.618 Z" fill="#000000" fill-rule="evenodd" fill-opacity="1" /><path clip-path="url(#clip760)" d="M212.683 899.817 Q209.749 899.817 208.263 902.713 Q206.796 905.591 206.796 911.383 Q206.796 917.157 208.263 920.054 Q209.749 922.931 212.683 922.931 Q215.635 922.931 217.102 920.054 Q218.588 917.157 218.588 911.383 Q218.588 905.591 217.102 902.713 Q215.635 899.817 212.683 899.817 M212.683 896.807 Q217.403 896.807 219.886 900.55 Q222.387 904.274 222.387 911.383 Q222.387 918.474 219.886 922.217 Q217.403 925.941 212.683 925.941 Q207.962 925.941 205.46 922.217 Q202.978 918.474 202.978 911.383 Q202.978 904.274 205.46 900.55 Q207.962 896.807 212.683 896.807 Z" fill="#000000" fill-rule="evenodd" fill-opacity="1" /><path clip-path="url(#clip760)" d="M116.229 414.207 L123.868 414.207 L123.868 387.841 L115.558 389.508 L115.558 385.249 L123.822 383.582 L128.498 383.582 L128.498 414.207 L136.136 414.207 L136.136 418.142 L116.229 418.142 L116.229 414.207 Z" fill="#000000" fill-rule="evenodd" fill-opacity="1" /><path clip-path="url(#clip760)" d="M155.581 386.661 Q151.97 386.661 150.141 390.225 Q148.335 393.767 148.335 400.897 Q148.335 408.003 150.141 411.568 Q151.97 415.11 155.581 415.11 Q159.215 415.11 161.021 411.568 Q162.849 408.003 162.849 400.897 Q162.849 393.767 161.021 390.225 Q159.215 386.661 155.581 386.661 M155.581 382.957 Q161.391 382.957 164.447 387.563 Q167.525 392.147 167.525 400.897 Q167.525 409.623 164.447 414.23 Q161.391 418.813 155.581 418.813 Q149.771 418.813 146.692 414.23 Q143.636 409.623 143.636 400.897 Q143.636 392.147 146.692 387.563 Q149.771 382.957 155.581 382.957 Z" fill="#000000" fill-rule="evenodd" fill-opacity="1" /><path clip-path="url(#clip760)" d="M177.23 365.153 Q174.296 365.153 172.81 368.049 Q171.343 370.927 171.343 376.72 Q171.343 382.494 172.81 385.39 Q174.296 388.268 177.23 388.268 Q180.183 388.268 181.65 385.39 Q183.136 382.494 183.136 376.72 Q183.136 370.927 181.65 368.049 Q180.183 365.153 177.23 365.153 M177.23 362.144 Q181.951 362.144 184.433 365.886 Q186.935 369.61 186.935 376.72 Q186.935 383.81 184.433 387.553 Q181.951 391.277 177.23 391.277 Q172.509 391.277 170.008 387.553 Q167.525 383.81 167.525 376.72 Q167.525 369.61 170.008 365.886 Q172.509 362.144 177.23 362.144 Z" fill="#000000" fill-rule="evenodd" fill-opacity="1" /><path clip-path="url(#clip760)" d="M193.612 385.954 L197.58 385.954 L197.58 390.732 L193.612 390.732 L193.612 385.954 Z" fill="#000000" fill-rule="evenodd" fill-opacity="1" /><path clip-path="url(#clip760)" d="M209.128 387.534 L222.387 387.534 L222.387 390.732 L204.558 390.732 L204.558 387.534 Q206.721 385.296 210.445 381.535 Q214.187 377.754 215.146 376.663 Q216.971 374.613 217.686 373.203 Q218.419 371.773 218.419 370.4 Q218.419 368.162 216.839 366.752 Q215.278 365.341 212.758 365.341 Q210.971 365.341 208.978 365.962 Q207.003 366.582 204.746 367.842 L204.746 364.006 Q207.04 363.084 209.034 362.614 Q211.028 362.144 212.683 362.144 Q217.046 362.144 219.642 364.325 Q222.237 366.507 222.237 370.156 Q222.237 371.886 221.579 373.447 Q220.939 374.989 219.228 377.096 Q218.758 377.641 216.237 380.256 Q213.717 382.851 209.128 387.534 Z" fill="#000000" fill-rule="evenodd" fill-opacity="1" /><path clip-path="url(#clip760)" d="M18.8696 756.909 Q19.3527 756.909 20.0613 757.264 Q20.7054 757.586 21.124 758.262 Q21.5105 758.906 21.5105 759.615 Q21.5105 759.84 21.3817 760.355 Q20.9952 761.225 20.1257 762.578 Q19.2561 763.93 18.7086 765.154 Q18.1289 766.346 18.0645 767.666 Q18.0645 768.825 18.4832 769.792 Q18.9663 770.661 19.9968 771.241 Q20.4155 771.499 21.124 771.499 Q22.1224 771.499 23.4429 770.951 Q24.7633 770.404 26.4702 769.276 Q28.1771 768.117 29.3365 767.28 Q30.4637 766.442 32.3317 764.993 Q32.4927 764.864 32.5893 764.8 Q32.6537 764.735 32.8148 764.639 Q32.9436 764.542 33.0402 764.445 Q36.8727 761.386 41.0917 760.613 Q42.5732 760.42 44.119 760.42 Q47.2108 760.42 50.8501 761.354 Q54.1673 762.159 57.0336 763.866 Q59.8677 765.573 61.7356 768.149 Q63.6036 770.693 63.6036 773.463 Q63.6036 776.201 62.412 778.455 Q61.1881 780.709 59.0948 782.062 Q56.3251 783.898 52.4926 783.898 Q50.3348 783.898 48.499 783.383 Q45.5683 782.674 42.863 780.999 Q40.1577 779.325 38.0643 776.909 Q34.9726 773.238 34.103 769.244 Q30.5604 771.112 27.8229 772.207 Q25.0532 773.27 22.7021 773.27 Q20.641 773.27 19.3205 772.497 Q17.9035 771.821 17.0983 770.436 Q16.3898 769.276 16.0355 767.602 Q15.9067 766.571 15.9067 765.895 Q15.9067 763.608 17.1627 758.294 Q17.4848 756.909 18.8696 756.909 M46.7599 764.961 Q44.7954 764.961 43.4749 765.283 Q40.2543 765.895 35.8099 768.342 L35.4879 768.536 Q36.3896 771.66 39.1271 774.204 Q42.4765 777.392 48.8211 779.003 Q52.3637 779.872 54.3605 779.872 Q56.5183 779.872 58.3862 779.067 Q60.1253 778.294 61.1237 776.845 Q62.1221 775.363 62.1221 773.399 Q62.1221 771.917 61.2848 770.629 Q60.4152 769.341 58.9015 768.407 Q57.3878 767.473 55.7453 766.829 Q54.0706 766.152 52.1061 765.637 Q49.4652 764.961 46.7599 764.961 Z" fill="#000000" fill-rule="evenodd" fill-opacity="1" /><path clip-path="url(#clip760)" d="M65.231 731.337 Q66.4258 731.337 67.1923 732.126 Q67.9588 732.893 67.9588 733.885 Q67.9588 734.741 67.4629 735.192 Q66.9669 735.643 66.3356 735.643 Q65.4339 735.643 64.6899 734.944 Q63.946 734.245 63.7882 733.231 Q63.2471 733.975 63.2471 735.17 Q63.2471 737.131 64.7576 738.867 Q65.4564 739.634 66.7414 740.468 Q68.0039 741.302 68.545 741.46 L74.5642 742.925 Q75.2406 743.06 78.4869 743.894 Q81.7107 744.706 81.846 744.774 Q82.4772 744.999 82.8154 745.495 Q83.1535 745.991 83.1535 746.487 Q83.1535 747.051 82.8154 747.434 Q82.4772 747.817 81.8911 747.817 Q81.8009 747.817 81.4627 747.749 Q81.1246 747.682 80.6512 747.569 Q80.1777 747.456 79.9072 747.411 L69.2438 744.729 Q67.305 744.233 66.6964 744.12 Q66.0651 743.985 65.3662 743.985 Q64.1489 743.985 63.698 744.368 Q63.2471 744.751 63.2471 745.427 Q63.2471 746.6 64.6448 747.366 Q66.0426 748.133 68.7479 748.786 Q69.4918 748.989 69.6496 749.125 Q69.8074 749.237 69.8074 749.575 Q69.7849 750.139 69.334 750.139 Q69.2213 750.139 68.4999 749.959 Q67.7559 749.778 66.6738 749.44 Q65.5691 749.08 64.8703 748.696 Q64.3969 748.471 64.0812 748.268 Q63.7656 748.065 63.2696 747.659 Q62.7737 747.253 62.5031 746.645 Q62.2326 746.036 62.2326 745.292 Q62.2326 743.669 63.2246 742.519 Q64.2165 741.347 65.772 741.076 Q64.9605 740.513 64.2616 739.814 Q63.5402 739.115 62.8864 737.83 Q62.2326 736.545 62.2326 735.17 Q62.2326 733.456 63.1118 732.397 Q63.9685 731.337 65.231 731.337 Z" fill="#000000" fill-rule="evenodd" fill-opacity="1" /><path clip-path="url(#clip760)" d="M77.2921 710.927 Q77.495 710.746 77.6979 710.746 Q77.9008 710.746 78.4869 711.197 Q79.0731 711.626 79.8621 712.55 Q80.6512 713.474 81.3951 714.669 Q82.1391 715.864 82.635 717.622 Q83.1535 719.381 83.1535 721.229 Q83.1535 724.543 80.7864 726.527 Q78.4193 728.489 74.7897 728.489 Q72.4676 728.489 70.4161 727.722 Q68.3421 726.956 66.8767 725.716 Q65.4113 724.453 64.3518 722.875 Q63.2696 721.274 62.7511 719.606 Q62.2326 717.938 62.2326 716.382 Q62.2326 714.105 63.3824 712.775 Q64.5321 711.445 66.1553 711.445 Q66.5385 711.445 67.012 711.558 Q67.4854 711.648 68.2294 711.964 Q68.9733 712.257 69.7173 713.023 Q70.4387 713.79 70.9121 714.917 Q71.9717 717.419 71.9717 721.973 L71.9717 724.431 Q74.8799 725.152 76.7736 725.152 Q77.5175 725.152 78.284 725.017 Q79.028 724.882 79.9748 724.521 Q80.9217 724.138 81.5304 723.281 Q82.1165 722.402 82.1165 721.139 Q82.1165 720.733 82.094 720.305 Q82.0714 719.854 81.8234 718.727 Q81.5755 717.577 81.1471 716.563 Q80.7188 715.548 79.7945 714.263 Q78.8476 712.956 77.5626 711.919 Q77.0892 711.558 77.0892 711.31 Q77.0892 711.107 77.2921 710.927 M66.1553 712.978 Q64.9154 712.978 64.0812 713.903 Q63.2471 714.804 63.2471 716.382 Q63.2471 716.878 63.3598 717.487 Q63.4725 718.096 63.946 719.11 Q64.4194 720.102 65.2084 720.981 Q65.9749 721.861 67.4854 722.74 Q68.9733 723.619 70.9572 724.138 L70.9572 722.244 Q70.9572 721.59 70.9572 721.117 Q70.9346 720.643 70.8445 719.606 Q70.7543 718.547 70.5965 717.78 Q70.4161 717.014 70.0554 716.044 Q69.6947 715.075 69.2213 714.466 Q68.7253 713.835 67.9363 713.407 Q67.1472 712.978 66.1553 712.978 Z" fill="#000000" fill-rule="evenodd" fill-opacity="1" /><path clip-path="url(#clip760)" d="M51.0958 697.312 L77.7881 703.963 Q78.8476 704.233 79.9974 704.233 Q82.1165 704.233 82.1165 702.836 Q82.1165 702.182 81.6882 701.641 Q81.2373 701.1 80.3581 700.694 Q79.4563 700.266 78.5996 699.995 Q77.743 699.702 76.4129 699.341 Q75.8943 699.229 75.7365 699.116 Q75.5787 699.003 75.5787 698.688 Q75.5787 698.124 76.0296 698.124 Q78.8025 698.688 80.561 699.522 Q83.1535 700.739 83.1535 702.994 Q83.1535 704.684 81.9813 705.947 Q80.7864 707.187 78.8927 707.187 Q78.1713 707.187 77.3146 706.961 L54.2295 701.145 L53.3277 700.987 Q53.0797 700.987 52.9444 701.077 Q52.8092 701.167 52.6739 701.709 Q52.5387 702.227 52.5387 703.264 Q52.5387 703.692 52.5161 703.895 Q52.4936 704.076 52.3808 704.256 Q52.2681 704.414 52.0201 704.414 Q51.6143 704.414 51.3889 704.256 Q51.1635 704.076 51.1184 703.94 Q51.0733 703.805 51.0507 703.535 Q51.0282 703.151 50.9155 701.866 Q50.7802 700.581 50.69 699.477 Q50.5999 698.372 50.5999 697.899 Q50.5999 697.628 50.7351 697.493 Q50.8478 697.335 50.9831 697.312 L51.0958 697.312 Z" fill="#000000" fill-rule="evenodd" fill-opacity="1" /><polyline clip-path="url(#clip763)" style="stroke:#009af9; stroke-linecap:round; stroke-linejoin:round; stroke-width:4; stroke-opacity:1; fill:none" points="258.387,241.866 677.261,86.1857 1096.13,213.668 1515.01,447.974 1933.88,561.932 2352.76,1351.51 "/>
<polyline clip-path="url(#clip763)" style="stroke:#e26f46; stroke-linecap:round; stroke-linejoin:round; stroke-width:4; stroke-opacity:1; fill:none" points="258.387,278.597 677.261,1107.26 1096.13,1091.23 1515.01,1028.74 1933.88,972.122 2352.76,1384.24 "/>
<path clip-path="url(#clip760)" d="M328.2 1377.32 L1177.4 1377.32 L1177.4 1221.8 L328.2 1221.8  Z" fill="#ffffff" fill-rule="evenodd" fill-opacity="1"/>
<polyline clip-path="url(#clip760)" style="stroke:#000000; stroke-linecap:round; stroke-linejoin:round; stroke-width:4; stroke-opacity:1; fill:none" points="328.2,1377.32 1177.4,1377.32 1177.4,1221.8 328.2,1221.8 328.2,1377.32 "/>
<polyline clip-path="url(#clip760)" style="stroke:#009af9; stroke-linecap:round; stroke-linejoin:round; stroke-width:4; stroke-opacity:1; fill:none" points="351.471,1273.64 491.095,1273.64 "/>
<path clip-path="url(#clip760)" d="M533.278 1268.92 L533.278 1254.9 L537.537 1254.9 L537.537 1290.92 L533.278 1290.92 L533.278 1287.03 Q531.935 1289.34 529.875 1290.48 Q527.838 1291.59 524.968 1291.59 Q520.269 1291.59 517.306 1287.84 Q514.366 1284.09 514.366 1277.98 Q514.366 1271.86 517.306 1268.11 Q520.269 1264.36 524.968 1264.36 Q527.838 1264.36 529.875 1265.5 Q531.935 1266.61 533.278 1268.92 M518.764 1277.98 Q518.764 1282.67 520.685 1285.36 Q522.63 1288.02 526.009 1288.02 Q529.389 1288.02 531.333 1285.36 Q533.278 1282.67 533.278 1277.98 Q533.278 1273.28 531.333 1270.61 Q529.389 1267.93 526.009 1267.93 Q522.63 1267.93 520.685 1270.61 Q518.764 1273.28 518.764 1277.98 Z" fill="#000000" fill-rule="evenodd" fill-opacity="1" /><path clip-path="url(#clip760)" d="M546.31 1264.99 L550.569 1264.99 L550.569 1290.92 L546.31 1290.92 L546.31 1264.99 M546.31 1254.9 L550.569 1254.9 L550.569 1260.29 L546.31 1260.29 L546.31 1254.9 Z" fill="#000000" fill-rule="evenodd" fill-opacity="1" /><path clip-path="url(#clip760)" d="M576.009 1265.75 L576.009 1269.78 Q574.203 1268.86 572.259 1268.39 Q570.315 1267.93 568.231 1267.93 Q565.06 1267.93 563.463 1268.9 Q561.889 1269.87 561.889 1271.82 Q561.889 1273.3 563.023 1274.16 Q564.157 1274.99 567.583 1275.75 L569.041 1276.08 Q573.578 1277.05 575.477 1278.83 Q577.398 1280.59 577.398 1283.76 Q577.398 1287.37 574.528 1289.48 Q571.68 1291.59 566.68 1291.59 Q564.597 1291.59 562.329 1291.17 Q560.083 1290.78 557.583 1289.97 L557.583 1285.57 Q559.944 1286.79 562.236 1287.42 Q564.528 1288.02 566.773 1288.02 Q569.782 1288.02 571.403 1287 Q573.023 1285.96 573.023 1284.09 Q573.023 1282.35 571.842 1281.42 Q570.685 1280.5 566.727 1279.64 L565.245 1279.3 Q561.287 1278.46 559.528 1276.75 Q557.768 1275.01 557.768 1272 Q557.768 1268.35 560.361 1266.36 Q562.954 1264.36 567.722 1264.36 Q570.083 1264.36 572.166 1264.71 Q574.25 1265.06 576.009 1265.75 Z" fill="#000000" fill-rule="evenodd" fill-opacity="1" /><path clip-path="url(#clip760)" d="M602.838 1265.98 L602.838 1269.97 Q601.032 1268.97 599.203 1268.48 Q597.398 1267.98 595.546 1267.98 Q591.402 1267.98 589.111 1270.61 Q586.819 1273.23 586.819 1277.98 Q586.819 1282.72 589.111 1285.36 Q591.402 1287.98 595.546 1287.98 Q597.398 1287.98 599.203 1287.49 Q601.032 1286.98 602.838 1285.98 L602.838 1289.92 Q601.055 1290.75 599.134 1291.17 Q597.236 1291.59 595.083 1291.59 Q589.227 1291.59 585.777 1287.91 Q582.328 1284.23 582.328 1277.98 Q582.328 1271.63 585.801 1268 Q589.296 1264.36 595.361 1264.36 Q597.328 1264.36 599.203 1264.78 Q601.078 1265.17 602.838 1265.98 Z" fill="#000000" fill-rule="evenodd" fill-opacity="1" /><path clip-path="url(#clip760)" d="M625.268 1268.97 Q624.55 1268.55 623.694 1268.37 Q622.861 1268.16 621.842 1268.16 Q618.231 1268.16 616.287 1270.52 Q614.365 1272.86 614.365 1277.26 L614.365 1290.92 L610.083 1290.92 L610.083 1264.99 L614.365 1264.99 L614.365 1269.02 Q615.708 1266.66 617.861 1265.52 Q620.013 1264.36 623.092 1264.36 Q623.532 1264.36 624.064 1264.43 Q624.597 1264.48 625.245 1264.6 L625.268 1268.97 Z" fill="#000000" fill-rule="evenodd" fill-opacity="1" /><path clip-path="url(#clip760)" d="M650.87 1276.89 L650.87 1278.97 L631.287 1278.97 Q631.564 1283.37 633.925 1285.68 Q636.31 1287.98 640.546 1287.98 Q642.999 1287.98 645.291 1287.37 Q647.606 1286.77 649.874 1285.57 L649.874 1289.6 Q647.583 1290.57 645.175 1291.08 Q642.768 1291.59 640.291 1291.59 Q634.087 1291.59 630.453 1287.98 Q626.842 1284.36 626.842 1278.21 Q626.842 1271.84 630.268 1268.11 Q633.717 1264.36 639.55 1264.36 Q644.782 1264.36 647.814 1267.74 Q650.87 1271.1 650.87 1276.89 M646.61 1275.64 Q646.564 1272.14 644.643 1270.06 Q642.745 1267.98 639.597 1267.98 Q636.032 1267.98 633.879 1269.99 Q631.749 1272 631.425 1275.66 L646.61 1275.64 Z" fill="#000000" fill-rule="evenodd" fill-opacity="1" /><path clip-path="url(#clip760)" d="M661.981 1287.03 L661.981 1300.78 L657.698 1300.78 L657.698 1264.99 L661.981 1264.99 L661.981 1268.92 Q663.323 1266.61 665.36 1265.5 Q667.421 1264.36 670.268 1264.36 Q674.99 1264.36 677.93 1268.11 Q680.893 1271.86 680.893 1277.98 Q680.893 1284.09 677.93 1287.84 Q674.99 1291.59 670.268 1291.59 Q667.421 1291.59 665.36 1290.48 Q663.323 1289.34 661.981 1287.03 M676.471 1277.98 Q676.471 1273.28 674.527 1270.61 Q672.606 1267.93 669.226 1267.93 Q665.847 1267.93 663.902 1270.61 Q661.981 1273.28 661.981 1277.98 Q661.981 1282.67 663.902 1285.36 Q665.847 1288.02 669.226 1288.02 Q672.606 1288.02 674.527 1285.36 Q676.471 1282.67 676.471 1277.98 Z" fill="#000000" fill-rule="evenodd" fill-opacity="1" /><path clip-path="url(#clip760)" d="M699.735 1277.88 Q694.573 1277.88 692.582 1279.06 Q690.592 1280.24 690.592 1283.09 Q690.592 1285.36 692.073 1286.7 Q693.578 1288.02 696.147 1288.02 Q699.689 1288.02 701.819 1285.52 Q703.971 1283 703.971 1278.83 L703.971 1277.88 L699.735 1277.88 M708.231 1276.12 L708.231 1290.92 L703.971 1290.92 L703.971 1286.98 Q702.513 1289.34 700.337 1290.48 Q698.161 1291.59 695.013 1291.59 Q691.032 1291.59 688.67 1289.36 Q686.333 1287.12 686.333 1283.37 Q686.333 1278.99 689.249 1276.77 Q692.189 1274.55 697.999 1274.55 L703.971 1274.55 L703.971 1274.13 Q703.971 1271.19 702.027 1269.6 Q700.106 1267.98 696.61 1267.98 Q694.388 1267.98 692.282 1268.51 Q690.175 1269.04 688.231 1270.11 L688.231 1266.17 Q690.569 1265.27 692.768 1264.83 Q694.967 1264.36 697.05 1264.36 Q702.675 1264.36 705.453 1267.28 Q708.231 1270.2 708.231 1276.12 Z" fill="#000000" fill-rule="evenodd" fill-opacity="1" /><path clip-path="url(#clip760)" d="M738.554 1275.27 L738.554 1290.92 L734.295 1290.92 L734.295 1275.41 Q734.295 1271.73 732.86 1269.9 Q731.425 1268.07 728.555 1268.07 Q725.105 1268.07 723.115 1270.27 Q721.124 1272.47 721.124 1276.26 L721.124 1290.92 L716.842 1290.92 L716.842 1264.99 L721.124 1264.99 L721.124 1269.02 Q722.652 1266.68 724.712 1265.52 Q726.795 1264.36 729.504 1264.36 Q733.971 1264.36 736.263 1267.14 Q738.554 1269.9 738.554 1275.27 Z" fill="#000000" fill-rule="evenodd" fill-opacity="1" /><path clip-path="url(#clip760)" d="M765.707 1265.98 L765.707 1269.97 Q763.902 1268.97 762.073 1268.48 Q760.267 1267.98 758.415 1267.98 Q754.272 1267.98 751.98 1270.61 Q749.689 1273.23 749.689 1277.98 Q749.689 1282.72 751.98 1285.36 Q754.272 1287.98 758.415 1287.98 Q760.267 1287.98 762.073 1287.49 Q763.902 1286.98 765.707 1285.98 L765.707 1289.92 Q763.925 1290.75 762.003 1291.17 Q760.105 1291.59 757.952 1291.59 Q752.096 1291.59 748.647 1287.91 Q745.198 1284.23 745.198 1277.98 Q745.198 1271.63 748.67 1268 Q752.165 1264.36 758.23 1264.36 Q760.198 1264.36 762.073 1264.78 Q763.948 1265.17 765.707 1265.98 Z" fill="#000000" fill-rule="evenodd" fill-opacity="1" /><path clip-path="url(#clip760)" d="M783.901 1293.32 Q782.096 1297.95 780.383 1299.36 Q778.67 1300.78 775.8 1300.78 L772.397 1300.78 L772.397 1297.21 L774.897 1297.21 Q776.656 1297.21 777.628 1296.38 Q778.601 1295.54 779.781 1292.44 L780.545 1290.5 L770.059 1264.99 L774.573 1264.99 L782.675 1285.27 L790.776 1264.99 L795.29 1264.99 L783.901 1293.32 Z" fill="#000000" fill-rule="evenodd" fill-opacity="1" /><path clip-path="url(#clip760)" d="M816.239 1264.99 L820.498 1264.99 L820.498 1290.92 L816.239 1290.92 L816.239 1264.99 M816.239 1254.9 L820.498 1254.9 L820.498 1260.29 L816.239 1260.29 L816.239 1254.9 Z" fill="#000000" fill-rule="evenodd" fill-opacity="1" /><path clip-path="url(#clip760)" d="M850.961 1275.27 L850.961 1290.92 L846.702 1290.92 L846.702 1275.41 Q846.702 1271.73 845.267 1269.9 Q843.832 1268.07 840.961 1268.07 Q837.512 1268.07 835.522 1270.27 Q833.531 1272.47 833.531 1276.26 L833.531 1290.92 L829.248 1290.92 L829.248 1264.99 L833.531 1264.99 L833.531 1269.02 Q835.059 1266.68 837.119 1265.52 Q839.202 1264.36 841.91 1264.36 Q846.378 1264.36 848.67 1267.14 Q850.961 1269.9 850.961 1275.27 Z" fill="#000000" fill-rule="evenodd" fill-opacity="1" /><path clip-path="url(#clip760)" d="M874.526 1264.99 L878.785 1264.99 L878.785 1290.92 L874.526 1290.92 L874.526 1264.99 M874.526 1254.9 L878.785 1254.9 L878.785 1260.29 L874.526 1260.29 L874.526 1254.9 Z" fill="#000000" fill-rule="evenodd" fill-opacity="1" /><path clip-path="url(#clip760)" d="M909.248 1275.27 L909.248 1290.92 L904.989 1290.92 L904.989 1275.41 Q904.989 1271.73 903.554 1269.9 Q902.118 1268.07 899.248 1268.07 Q895.799 1268.07 893.808 1270.27 Q891.818 1272.47 891.818 1276.26 L891.818 1290.92 L887.535 1290.92 L887.535 1264.99 L891.818 1264.99 L891.818 1269.02 Q893.345 1266.68 895.405 1265.52 Q897.489 1264.36 900.197 1264.36 Q904.665 1264.36 906.956 1267.14 Q909.248 1269.9 909.248 1275.27 Z" fill="#000000" fill-rule="evenodd" fill-opacity="1" /><path clip-path="url(#clip760)" d="M917.743 1264.99 L922.003 1264.99 L922.003 1290.92 L917.743 1290.92 L917.743 1264.99 M917.743 1254.9 L922.003 1254.9 L922.003 1260.29 L917.743 1260.29 L917.743 1254.9 Z" fill="#000000" fill-rule="evenodd" fill-opacity="1" /><path clip-path="url(#clip760)" d="M935.127 1257.63 L935.127 1264.99 L943.901 1264.99 L943.901 1268.3 L935.127 1268.3 L935.127 1282.37 Q935.127 1285.54 935.984 1286.45 Q936.864 1287.35 939.526 1287.35 L943.901 1287.35 L943.901 1290.92 L939.526 1290.92 Q934.595 1290.92 932.72 1289.09 Q930.845 1287.23 930.845 1282.37 L930.845 1268.3 L927.72 1268.3 L927.72 1264.99 L930.845 1264.99 L930.845 1257.63 L935.127 1257.63 Z" fill="#000000" fill-rule="evenodd" fill-opacity="1" /><path clip-path="url(#clip760)" d="M949.502 1264.99 L953.762 1264.99 L953.762 1290.92 L949.502 1290.92 L949.502 1264.99 M949.502 1254.9 L953.762 1254.9 L953.762 1260.29 L949.502 1260.29 L949.502 1254.9 Z" fill="#000000" fill-rule="evenodd" fill-opacity="1" /><path clip-path="url(#clip760)" d="M974.456 1277.88 Q969.294 1277.88 967.303 1279.06 Q965.312 1280.24 965.312 1283.09 Q965.312 1285.36 966.794 1286.7 Q968.299 1288.02 970.868 1288.02 Q974.41 1288.02 976.539 1285.52 Q978.692 1283 978.692 1278.83 L978.692 1277.88 L974.456 1277.88 M982.951 1276.12 L982.951 1290.92 L978.692 1290.92 L978.692 1286.98 Q977.234 1289.34 975.058 1290.48 Q972.882 1291.59 969.734 1291.59 Q965.752 1291.59 963.391 1289.36 Q961.053 1287.12 961.053 1283.37 Q961.053 1278.99 963.97 1276.77 Q966.91 1274.55 972.72 1274.55 L978.692 1274.55 L978.692 1274.13 Q978.692 1271.19 976.748 1269.6 Q974.826 1267.98 971.331 1267.98 Q969.109 1267.98 967.002 1268.51 Q964.896 1269.04 962.951 1270.11 L962.951 1266.17 Q965.289 1265.27 967.488 1264.83 Q969.687 1264.36 971.771 1264.36 Q977.396 1264.36 980.174 1267.28 Q982.951 1270.2 982.951 1276.12 Z" fill="#000000" fill-rule="evenodd" fill-opacity="1" /><path clip-path="url(#clip760)" d="M991.724 1254.9 L995.984 1254.9 L995.984 1290.92 L991.724 1290.92 L991.724 1254.9 Z" fill="#000000" fill-rule="evenodd" fill-opacity="1" /><path clip-path="url(#clip760)" d="M1004.9 1264.99 L1009.15 1264.99 L1009.15 1290.92 L1004.9 1290.92 L1004.9 1264.99 M1004.9 1254.9 L1009.15 1254.9 L1009.15 1260.29 L1004.9 1260.29 L1004.9 1254.9 Z" fill="#000000" fill-rule="evenodd" fill-opacity="1" /><path clip-path="url(#clip760)" d="M1034.59 1265.75 L1034.59 1269.78 Q1032.79 1268.86 1030.84 1268.39 Q1028.9 1267.93 1026.82 1267.93 Q1023.65 1267.93 1022.05 1268.9 Q1020.47 1269.87 1020.47 1271.82 Q1020.47 1273.3 1021.61 1274.16 Q1022.74 1274.99 1026.17 1275.75 L1027.63 1276.08 Q1032.16 1277.05 1034.06 1278.83 Q1035.98 1280.59 1035.98 1283.76 Q1035.98 1287.37 1033.11 1289.48 Q1030.27 1291.59 1025.27 1291.59 Q1023.18 1291.59 1020.91 1291.17 Q1018.67 1290.78 1016.17 1289.97 L1016.17 1285.57 Q1018.53 1286.79 1020.82 1287.42 Q1023.11 1288.02 1025.36 1288.02 Q1028.37 1288.02 1029.99 1287 Q1031.61 1285.96 1031.61 1284.09 Q1031.61 1282.35 1030.43 1281.42 Q1029.27 1280.5 1025.31 1279.64 L1023.83 1279.3 Q1019.87 1278.46 1018.11 1276.75 Q1016.35 1275.01 1016.35 1272 Q1016.35 1268.35 1018.95 1266.36 Q1021.54 1264.36 1026.31 1264.36 Q1028.67 1264.36 1030.75 1264.71 Q1032.84 1265.06 1034.59 1265.75 Z" fill="#000000" fill-rule="evenodd" fill-opacity="1" /><path clip-path="url(#clip760)" d="M1054.55 1277.88 Q1049.39 1277.88 1047.4 1279.06 Q1045.4 1280.24 1045.4 1283.09 Q1045.4 1285.36 1046.89 1286.7 Q1048.39 1288.02 1050.96 1288.02 Q1054.5 1288.02 1056.63 1285.52 Q1058.78 1283 1058.78 1278.83 L1058.78 1277.88 L1054.55 1277.88 M1063.04 1276.12 L1063.04 1290.92 L1058.78 1290.92 L1058.78 1286.98 Q1057.33 1289.34 1055.15 1290.48 Q1052.97 1291.59 1049.83 1291.59 Q1045.84 1291.59 1043.48 1289.36 Q1041.15 1287.12 1041.15 1283.37 Q1041.15 1278.99 1044.06 1276.77 Q1047 1274.55 1052.81 1274.55 L1058.78 1274.55 L1058.78 1274.13 Q1058.78 1271.19 1056.84 1269.6 Q1054.92 1267.98 1051.42 1267.98 Q1049.2 1267.98 1047.09 1268.51 Q1044.99 1269.04 1043.04 1270.11 L1043.04 1266.17 Q1045.38 1265.27 1047.58 1264.83 Q1049.78 1264.36 1051.86 1264.36 Q1057.49 1264.36 1060.27 1267.28 Q1063.04 1270.2 1063.04 1276.12 Z" fill="#000000" fill-rule="evenodd" fill-opacity="1" /><path clip-path="url(#clip760)" d="M1076.03 1257.63 L1076.03 1264.99 L1084.8 1264.99 L1084.8 1268.3 L1076.03 1268.3 L1076.03 1282.37 Q1076.03 1285.54 1076.89 1286.45 Q1077.77 1287.35 1080.43 1287.35 L1084.8 1287.35 L1084.8 1290.92 L1080.43 1290.92 Q1075.5 1290.92 1073.62 1289.09 Q1071.75 1287.23 1071.75 1282.37 L1071.75 1268.3 L1068.62 1268.3 L1068.62 1264.99 L1071.75 1264.99 L1071.75 1257.63 L1076.03 1257.63 Z" fill="#000000" fill-rule="evenodd" fill-opacity="1" /><path clip-path="url(#clip760)" d="M1090.4 1264.99 L1094.66 1264.99 L1094.66 1290.92 L1090.4 1290.92 L1090.4 1264.99 M1090.4 1254.9 L1094.66 1254.9 L1094.66 1260.29 L1090.4 1260.29 L1090.4 1254.9 Z" fill="#000000" fill-rule="evenodd" fill-opacity="1" /><path clip-path="url(#clip760)" d="M1113.62 1267.98 Q1110.2 1267.98 1108.21 1270.66 Q1106.21 1273.32 1106.21 1277.98 Q1106.21 1282.63 1108.18 1285.31 Q1110.17 1287.98 1113.62 1287.98 Q1117.02 1287.98 1119.02 1285.29 Q1121.01 1282.61 1121.01 1277.98 Q1121.01 1273.37 1119.02 1270.68 Q1117.02 1267.98 1113.62 1267.98 M1113.62 1264.36 Q1119.18 1264.36 1122.35 1267.98 Q1125.52 1271.59 1125.52 1277.98 Q1125.52 1284.34 1122.35 1287.98 Q1119.18 1291.59 1113.62 1291.59 Q1108.04 1291.59 1104.87 1287.98 Q1101.72 1284.34 1101.72 1277.98 Q1101.72 1271.59 1104.87 1267.98 Q1108.04 1264.36 1113.62 1264.36 Z" fill="#000000" fill-rule="evenodd" fill-opacity="1" /><path clip-path="url(#clip760)" d="M1154.13 1275.27 L1154.13 1290.92 L1149.87 1290.92 L1149.87 1275.41 Q1149.87 1271.73 1148.44 1269.9 Q1147 1268.07 1144.13 1268.07 Q1140.68 1268.07 1138.69 1270.27 Q1136.7 1272.47 1136.7 1276.26 L1136.7 1290.92 L1132.42 1290.92 L1132.42 1264.99 L1136.7 1264.99 L1136.7 1269.02 Q1138.23 1266.68 1140.29 1265.52 Q1142.37 1264.36 1145.08 1264.36 Q1149.55 1264.36 1151.84 1267.14 Q1154.13 1269.9 1154.13 1275.27 Z" fill="#000000" fill-rule="evenodd" fill-opacity="1" /><polyline clip-path="url(#clip760)" style="stroke:#e26f46; stroke-linecap:round; stroke-linejoin:round; stroke-width:4; stroke-opacity:1; fill:none" points="351.471,1325.48 491.095,1325.48 "/>
<path clip-path="url(#clip760)" d="M533.278 1320.76 L533.278 1306.74 L537.537 1306.74 L537.537 1342.76 L533.278 1342.76 L533.278 1338.87 Q531.935 1341.18 529.875 1342.32 Q527.838 1343.43 524.968 1343.43 Q520.269 1343.43 517.306 1339.68 Q514.366 1335.93 514.366 1329.82 Q514.366 1323.7 517.306 1319.95 Q520.269 1316.2 524.968 1316.2 Q527.838 1316.2 529.875 1317.34 Q531.935 1318.45 533.278 1320.76 M518.764 1329.82 Q518.764 1334.51 520.685 1337.2 Q522.63 1339.86 526.009 1339.86 Q529.389 1339.86 531.333 1337.2 Q533.278 1334.51 533.278 1329.82 Q533.278 1325.12 531.333 1322.45 Q529.389 1319.77 526.009 1319.77 Q522.63 1319.77 520.685 1322.45 Q518.764 1325.12 518.764 1329.82 Z" fill="#000000" fill-rule="evenodd" fill-opacity="1" /><path clip-path="url(#clip760)" d="M546.31 1316.83 L550.569 1316.83 L550.569 1342.76 L546.31 1342.76 L546.31 1316.83 M546.31 1306.74 L550.569 1306.74 L550.569 1312.13 L546.31 1312.13 L546.31 1306.74 Z" fill="#000000" fill-rule="evenodd" fill-opacity="1" /><path clip-path="url(#clip760)" d="M576.009 1317.59 L576.009 1321.62 Q574.203 1320.7 572.259 1320.23 Q570.315 1319.77 568.231 1319.77 Q565.06 1319.77 563.463 1320.74 Q561.889 1321.71 561.889 1323.66 Q561.889 1325.14 563.023 1326 Q564.157 1326.83 567.583 1327.59 L569.041 1327.92 Q573.578 1328.89 575.477 1330.67 Q577.398 1332.43 577.398 1335.6 Q577.398 1339.21 574.528 1341.32 Q571.68 1343.43 566.68 1343.43 Q564.597 1343.43 562.329 1343.01 Q560.083 1342.62 557.583 1341.81 L557.583 1337.41 Q559.944 1338.63 562.236 1339.26 Q564.528 1339.86 566.773 1339.86 Q569.782 1339.86 571.403 1338.84 Q573.023 1337.8 573.023 1335.93 Q573.023 1334.19 571.842 1333.26 Q570.685 1332.34 566.727 1331.48 L565.245 1331.14 Q561.287 1330.3 559.528 1328.59 Q557.768 1326.85 557.768 1323.84 Q557.768 1320.19 560.361 1318.2 Q562.954 1316.2 567.722 1316.2 Q570.083 1316.2 572.166 1316.55 Q574.25 1316.9 576.009 1317.59 Z" fill="#000000" fill-rule="evenodd" fill-opacity="1" /><path clip-path="url(#clip760)" d="M602.838 1317.82 L602.838 1321.81 Q601.032 1320.81 599.203 1320.32 Q597.398 1319.82 595.546 1319.82 Q591.402 1319.82 589.111 1322.45 Q586.819 1325.07 586.819 1329.82 Q586.819 1334.56 589.111 1337.2 Q591.402 1339.82 595.546 1339.82 Q597.398 1339.82 599.203 1339.33 Q601.032 1338.82 602.838 1337.82 L602.838 1341.76 Q601.055 1342.59 599.134 1343.01 Q597.236 1343.43 595.083 1343.43 Q589.227 1343.43 585.777 1339.75 Q582.328 1336.07 582.328 1329.82 Q582.328 1323.47 585.801 1319.84 Q589.296 1316.2 595.361 1316.2 Q597.328 1316.2 599.203 1316.62 Q601.078 1317.01 602.838 1317.82 Z" fill="#000000" fill-rule="evenodd" fill-opacity="1" /><path clip-path="url(#clip760)" d="M625.268 1320.81 Q624.55 1320.39 623.694 1320.21 Q622.861 1320 621.842 1320 Q618.231 1320 616.287 1322.36 Q614.365 1324.7 614.365 1329.1 L614.365 1342.76 L610.083 1342.76 L610.083 1316.83 L614.365 1316.83 L614.365 1320.86 Q615.708 1318.5 617.861 1317.36 Q620.013 1316.2 623.092 1316.2 Q623.532 1316.2 624.064 1316.27 Q624.597 1316.32 625.245 1316.44 L625.268 1320.81 Z" fill="#000000" fill-rule="evenodd" fill-opacity="1" /><path clip-path="url(#clip760)" d="M650.87 1328.73 L650.87 1330.81 L631.287 1330.81 Q631.564 1335.21 633.925 1337.52 Q636.31 1339.82 640.546 1339.82 Q642.999 1339.82 645.291 1339.21 Q647.606 1338.61 649.874 1337.41 L649.874 1341.44 Q647.583 1342.41 645.175 1342.92 Q642.768 1343.43 640.291 1343.43 Q634.087 1343.43 630.453 1339.82 Q626.842 1336.2 626.842 1330.05 Q626.842 1323.68 630.268 1319.95 Q633.717 1316.2 639.55 1316.2 Q644.782 1316.2 647.814 1319.58 Q650.87 1322.94 650.87 1328.73 M646.61 1327.48 Q646.564 1323.98 644.643 1321.9 Q642.745 1319.82 639.597 1319.82 Q636.032 1319.82 633.879 1321.83 Q631.749 1323.84 631.425 1327.5 L646.61 1327.48 Z" fill="#000000" fill-rule="evenodd" fill-opacity="1" /><path clip-path="url(#clip760)" d="M661.981 1338.87 L661.981 1352.62 L657.698 1352.62 L657.698 1316.83 L661.981 1316.83 L661.981 1320.76 Q663.323 1318.45 665.36 1317.34 Q667.421 1316.2 670.268 1316.2 Q674.99 1316.2 677.93 1319.95 Q680.893 1323.7 680.893 1329.82 Q680.893 1335.93 677.93 1339.68 Q674.99 1343.43 670.268 1343.43 Q667.421 1343.43 665.36 1342.32 Q663.323 1341.18 661.981 1338.87 M676.471 1329.82 Q676.471 1325.12 674.527 1322.45 Q672.606 1319.77 669.226 1319.77 Q665.847 1319.77 663.902 1322.45 Q661.981 1325.12 661.981 1329.82 Q661.981 1334.51 663.902 1337.2 Q665.847 1339.86 669.226 1339.86 Q672.606 1339.86 674.527 1337.2 Q676.471 1334.51 676.471 1329.82 Z" fill="#000000" fill-rule="evenodd" fill-opacity="1" /><path clip-path="url(#clip760)" d="M699.735 1329.72 Q694.573 1329.72 692.582 1330.9 Q690.592 1332.08 690.592 1334.93 Q690.592 1337.2 692.073 1338.54 Q693.578 1339.86 696.147 1339.86 Q699.689 1339.86 701.819 1337.36 Q703.971 1334.84 703.971 1330.67 L703.971 1329.72 L699.735 1329.72 M708.231 1327.96 L708.231 1342.76 L703.971 1342.76 L703.971 1338.82 Q702.513 1341.18 700.337 1342.32 Q698.161 1343.43 695.013 1343.43 Q691.032 1343.43 688.67 1341.2 Q686.333 1338.96 686.333 1335.21 Q686.333 1330.83 689.249 1328.61 Q692.189 1326.39 697.999 1326.39 L703.971 1326.39 L703.971 1325.97 Q703.971 1323.03 702.027 1321.44 Q700.106 1319.82 696.61 1319.82 Q694.388 1319.82 692.282 1320.35 Q690.175 1320.88 688.231 1321.95 L688.231 1318.01 Q690.569 1317.11 692.768 1316.67 Q694.967 1316.2 697.05 1316.2 Q702.675 1316.2 705.453 1319.12 Q708.231 1322.04 708.231 1327.96 Z" fill="#000000" fill-rule="evenodd" fill-opacity="1" /><path clip-path="url(#clip760)" d="M738.554 1327.11 L738.554 1342.76 L734.295 1342.76 L734.295 1327.25 Q734.295 1323.57 732.86 1321.74 Q731.425 1319.91 728.555 1319.91 Q725.105 1319.91 723.115 1322.11 Q721.124 1324.31 721.124 1328.1 L721.124 1342.76 L716.842 1342.76 L716.842 1316.83 L721.124 1316.83 L721.124 1320.86 Q722.652 1318.52 724.712 1317.36 Q726.795 1316.2 729.504 1316.2 Q733.971 1316.2 736.263 1318.98 Q738.554 1321.74 738.554 1327.11 Z" fill="#000000" fill-rule="evenodd" fill-opacity="1" /><path clip-path="url(#clip760)" d="M765.707 1317.82 L765.707 1321.81 Q763.902 1320.81 762.073 1320.32 Q760.267 1319.82 758.415 1319.82 Q754.272 1319.82 751.98 1322.45 Q749.689 1325.07 749.689 1329.82 Q749.689 1334.56 751.98 1337.2 Q754.272 1339.82 758.415 1339.82 Q760.267 1339.82 762.073 1339.33 Q763.902 1338.82 765.707 1337.82 L765.707 1341.76 Q763.925 1342.59 762.003 1343.01 Q760.105 1343.43 757.952 1343.43 Q752.096 1343.43 748.647 1339.75 Q745.198 1336.07 745.198 1329.82 Q745.198 1323.47 748.67 1319.84 Q752.165 1316.2 758.23 1316.2 Q760.198 1316.2 762.073 1316.62 Q763.948 1317.01 765.707 1317.82 Z" fill="#000000" fill-rule="evenodd" fill-opacity="1" /><path clip-path="url(#clip760)" d="M783.901 1345.16 Q782.096 1349.79 780.383 1351.2 Q778.67 1352.62 775.8 1352.62 L772.397 1352.62 L772.397 1349.05 L774.897 1349.05 Q776.656 1349.05 777.628 1348.22 Q778.601 1347.38 779.781 1344.28 L780.545 1342.34 L770.059 1316.83 L774.573 1316.83 L782.675 1337.11 L790.776 1316.83 L795.29 1316.83 L783.901 1345.16 Z" fill="#000000" fill-rule="evenodd" fill-opacity="1" /><path clip-path="url(#clip760)" d="M816.239 1316.83 L820.498 1316.83 L820.498 1342.76 L816.239 1342.76 L816.239 1316.83 M816.239 1306.74 L820.498 1306.74 L820.498 1312.13 L816.239 1312.13 L816.239 1306.74 Z" fill="#000000" fill-rule="evenodd" fill-opacity="1" /><path clip-path="url(#clip760)" d="M850.961 1327.11 L850.961 1342.76 L846.702 1342.76 L846.702 1327.25 Q846.702 1323.57 845.267 1321.74 Q843.832 1319.91 840.961 1319.91 Q837.512 1319.91 835.522 1322.11 Q833.531 1324.31 833.531 1328.1 L833.531 1342.76 L829.248 1342.76 L829.248 1316.83 L833.531 1316.83 L833.531 1320.86 Q835.059 1318.52 837.119 1317.36 Q839.202 1316.2 841.91 1316.2 Q846.378 1316.2 848.67 1318.98 Q850.961 1321.74 850.961 1327.11 Z" fill="#000000" fill-rule="evenodd" fill-opacity="1" /><path clip-path="url(#clip760)" d="M891.054 1317.59 L891.054 1321.62 Q889.248 1320.7 887.304 1320.23 Q885.359 1319.77 883.276 1319.77 Q880.105 1319.77 878.507 1320.74 Q876.933 1321.71 876.933 1323.66 Q876.933 1325.14 878.068 1326 Q879.202 1326.83 882.628 1327.59 L884.086 1327.92 Q888.623 1328.89 890.521 1330.67 Q892.443 1332.43 892.443 1335.6 Q892.443 1339.21 889.572 1341.32 Q886.725 1343.43 881.725 1343.43 Q879.642 1343.43 877.373 1343.01 Q875.128 1342.62 872.628 1341.81 L872.628 1337.41 Q874.989 1338.63 877.281 1339.26 Q879.572 1339.86 881.818 1339.86 Q884.827 1339.86 886.447 1338.84 Q888.068 1337.8 888.068 1335.93 Q888.068 1334.19 886.887 1333.26 Q885.73 1332.34 881.771 1331.48 L880.29 1331.14 Q876.331 1330.3 874.572 1328.59 Q872.813 1326.85 872.813 1323.84 Q872.813 1320.19 875.406 1318.2 Q877.998 1316.2 882.767 1316.2 Q885.128 1316.2 887.211 1316.55 Q889.294 1316.9 891.054 1317.59 Z" fill="#000000" fill-rule="evenodd" fill-opacity="1" /><path clip-path="url(#clip760)" d="M909.271 1319.82 Q905.845 1319.82 903.854 1322.5 Q901.864 1325.16 901.864 1329.82 Q901.864 1334.47 903.831 1337.15 Q905.822 1339.82 909.271 1339.82 Q912.674 1339.82 914.665 1337.13 Q916.655 1334.45 916.655 1329.82 Q916.655 1325.21 914.665 1322.52 Q912.674 1319.82 909.271 1319.82 M909.271 1316.2 Q914.827 1316.2 917.998 1319.82 Q921.169 1323.43 921.169 1329.82 Q921.169 1336.18 917.998 1339.82 Q914.827 1343.43 909.271 1343.43 Q903.692 1343.43 900.521 1339.82 Q897.373 1336.18 897.373 1329.82 Q897.373 1323.43 900.521 1319.82 Q903.692 1316.2 909.271 1316.2 Z" fill="#000000" fill-rule="evenodd" fill-opacity="1" /><path clip-path="url(#clip760)" d="M928.229 1306.74 L932.489 1306.74 L932.489 1342.76 L928.229 1342.76 L928.229 1306.74 Z" fill="#000000" fill-rule="evenodd" fill-opacity="1" /><path clip-path="url(#clip760)" d="M940.961 1332.52 L940.961 1316.83 L945.22 1316.83 L945.22 1332.36 Q945.22 1336.04 946.655 1337.89 Q948.09 1339.72 950.961 1339.72 Q954.41 1339.72 956.401 1337.52 Q958.414 1335.32 958.414 1331.53 L958.414 1316.83 L962.674 1316.83 L962.674 1342.76 L958.414 1342.76 L958.414 1338.77 Q956.863 1341.13 954.803 1342.29 Q952.766 1343.43 950.058 1343.43 Q945.59 1343.43 943.276 1340.65 Q940.961 1337.87 940.961 1332.52 M951.678 1316.2 L951.678 1316.2 Z" fill="#000000" fill-rule="evenodd" fill-opacity="1" /><path clip-path="url(#clip760)" d="M975.66 1309.47 L975.66 1316.83 L984.433 1316.83 L984.433 1320.14 L975.66 1320.14 L975.66 1334.21 Q975.66 1337.38 976.516 1338.29 Q977.396 1339.19 980.058 1339.19 L984.433 1339.19 L984.433 1342.76 L980.058 1342.76 Q975.127 1342.76 973.252 1340.93 Q971.377 1339.07 971.377 1334.21 L971.377 1320.14 L968.252 1320.14 L968.252 1316.83 L971.377 1316.83 L971.377 1309.47 L975.66 1309.47 Z" fill="#000000" fill-rule="evenodd" fill-opacity="1" /><path clip-path="url(#clip760)" d="M990.035 1316.83 L994.294 1316.83 L994.294 1342.76 L990.035 1342.76 L990.035 1316.83 M990.035 1306.74 L994.294 1306.74 L994.294 1312.13 L990.035 1312.13 L990.035 1306.74 Z" fill="#000000" fill-rule="evenodd" fill-opacity="1" /><path clip-path="url(#clip760)" d="M1013.25 1319.82 Q1009.83 1319.82 1007.84 1322.5 Q1005.84 1325.16 1005.84 1329.82 Q1005.84 1334.47 1007.81 1337.15 Q1009.8 1339.82 1013.25 1339.82 Q1016.65 1339.82 1018.65 1337.13 Q1020.64 1334.45 1020.64 1329.82 Q1020.64 1325.21 1018.65 1322.52 Q1016.65 1319.82 1013.25 1319.82 M1013.25 1316.2 Q1018.81 1316.2 1021.98 1319.82 Q1025.15 1323.43 1025.15 1329.82 Q1025.15 1336.18 1021.98 1339.82 Q1018.81 1343.43 1013.25 1343.43 Q1007.67 1343.43 1004.5 1339.82 Q1001.35 1336.18 1001.35 1329.82 Q1001.35 1323.43 1004.5 1319.82 Q1007.67 1316.2 1013.25 1316.2 Z" fill="#000000" fill-rule="evenodd" fill-opacity="1" /><path clip-path="url(#clip760)" d="M1053.76 1327.11 L1053.76 1342.76 L1049.5 1342.76 L1049.5 1327.25 Q1049.5 1323.57 1048.07 1321.74 Q1046.63 1319.91 1043.76 1319.91 Q1040.31 1319.91 1038.32 1322.11 Q1036.33 1324.31 1036.33 1328.1 L1036.33 1342.76 L1032.05 1342.76 L1032.05 1316.83 L1036.33 1316.83 L1036.33 1320.86 Q1037.86 1318.52 1039.92 1317.36 Q1042 1316.2 1044.71 1316.2 Q1049.18 1316.2 1051.47 1318.98 Q1053.76 1321.74 1053.76 1327.11 Z" fill="#000000" fill-rule="evenodd" fill-opacity="1" /><path clip-path="url(#clip760)" d="M1078.78 1317.59 L1078.78 1321.62 Q1076.98 1320.7 1075.03 1320.23 Q1073.09 1319.77 1071.01 1319.77 Q1067.84 1319.77 1066.24 1320.74 Q1064.66 1321.71 1064.66 1323.66 Q1064.66 1325.14 1065.8 1326 Q1066.93 1326.83 1070.36 1327.59 L1071.82 1327.92 Q1076.35 1328.89 1078.25 1330.67 Q1080.17 1332.43 1080.17 1335.6 Q1080.17 1339.21 1077.3 1341.32 Q1074.46 1343.43 1069.46 1343.43 Q1067.37 1343.43 1065.1 1343.01 Q1062.86 1342.62 1060.36 1341.81 L1060.36 1337.41 Q1062.72 1338.63 1065.01 1339.26 Q1067.3 1339.86 1069.55 1339.86 Q1072.56 1339.86 1074.18 1338.84 Q1075.8 1337.8 1075.8 1335.93 Q1075.8 1334.19 1074.62 1333.26 Q1073.46 1332.34 1069.5 1331.48 L1068.02 1331.14 Q1064.06 1330.3 1062.3 1328.59 Q1060.54 1326.85 1060.54 1323.84 Q1060.54 1320.19 1063.14 1318.2 Q1065.73 1316.2 1070.5 1316.2 Q1072.86 1316.2 1074.94 1316.55 Q1077.02 1316.9 1078.78 1317.59 Z" fill="#000000" fill-rule="evenodd" fill-opacity="1" /></svg>
