<?xml version="1.0" encoding="utf-8"?>
<svg xmlns="http://www.w3.org/2000/svg" xmlns:xlink="http://www.w3.org/1999/xlink" width="600" height="400" viewBox="0 0 2400 1600">
<defs>
  <clipPath id="clip640">
    <rect x="0" y="0" width="2400" height="1600"/>
  </clipPath>
</defs>
<path clip-path="url(#clip640)" d="M0 1600 L2400 1600 L2400 0 L0 0  Z" fill="#ffffff" fill-rule="evenodd" fill-opacity="1"/>
<defs>
  <clipPath id="clip641">
    <rect x="480" y="0" width="1681" height="1600"/>
  </clipPath>
</defs>
<defs>
  <clipPath id="clip642">
    <rect x="276" y="47" width="2077" height="1377"/>
  </clipPath>
</defs>
<path clip-path="url(#clip640)" d="M219.288 1423.18 L2352.76 1423.18 L2352.76 47.2441 L219.288 47.2441  Z" fill="#ffffff" fill-rule="evenodd" fill-opacity="1"/>
<defs>
  <clipPath id="clip643">
    <rect x="219" y="47" width="2134" height="1377"/>
  </clipPath>
</defs>
<polyline clip-path="url(#clip643)" style="stroke:#000000; stroke-linecap:round; stroke-linejoin:round; stroke-width:2; stroke-opacity:0.1; fill:none" points="219.288,1423.18 219.288,47.2441 "/>
<polyline clip-path="url(#clip643)" style="stroke:#000000; stroke-linecap:round; stroke-linejoin:round; stroke-width:2; stroke-opacity:0.1; fill:none" points="645.981,1423.18 645.981,47.2441 "/>
<polyline clip-path="url(#clip643)" style="stroke:#000000; stroke-linecap:round; stroke-linejoin:round; stroke-width:2; stroke-opacity:0.1; fill:none" points="1072.67,1423.18 1072.67,47.2441 "/>
<polyline clip-path="url(#clip643)" style="stroke:#000000; stroke-linecap:round; stroke-linejoin:round; stroke-width:2; stroke-opacity:0.1; fill:none" points="1499.37,1423.18 1499.37,47.2441 "/>
<polyline clip-path="url(#clip643)" style="stroke:#000000; stroke-linecap:round; stroke-linejoin:round; stroke-width:2; stroke-opacity:0.1; fill:none" points="1926.06,1423.18 1926.06,47.2441 "/>
<polyline clip-path="url(#clip643)" style="stroke:#000000; stroke-linecap:round; stroke-linejoin:round; stroke-width:2; stroke-opacity:0.1; fill:none" points="2352.76,1423.18 2352.76,47.2441 "/>
<polyline clip-path="url(#clip640)" style="stroke:#000000; stroke-linecap:round; stroke-linejoin:round; stroke-width:4; stroke-opacity:1; fill:none" points="219.288,1423.18 2352.76,1423.18 "/>
<polyline clip-path="url(#clip640)" style="stroke:#000000; stroke-linecap:round; stroke-linejoin:round; stroke-width:4; stroke-opacity:1; fill:none" points="219.288,1423.18 219.288,1404.28 "/>
<polyline clip-path="url(#clip640)" style="stroke:#000000; stroke-linecap:round; stroke-linejoin:round; stroke-width:4; stroke-opacity:1; fill:none" points="645.981,1423.18 645.981,1404.28 "/>
<polyline clip-path="url(#clip640)" style="stroke:#000000; stroke-linecap:round; stroke-linejoin:round; stroke-width:4; stroke-opacity:1; fill:none" points="1072.67,1423.18 1072.67,1404.28 "/>
<polyline clip-path="url(#clip640)" style="stroke:#000000; stroke-linecap:round; stroke-linejoin:round; stroke-width:4; stroke-opacity:1; fill:none" points="1499.37,1423.18 1499.37,1404.28 "/>
<polyline clip-path="url(#clip640)" style="stroke:#000000; stroke-linecap:round; stroke-linejoin:round; stroke-width:4; stroke-opacity:1; fill:none" points="1926.06,1423.18 1926.06,1404.28 "/>
<polyline clip-path="url(#clip640)" style="stroke:#000000; stroke-linecap:round; stroke-linejoin:round; stroke-width:4; stroke-opacity:1; fill:none" points="2352.76,1423.18 2352.76,1404.28 "/>
<path clip-path="url(#clip640)" d="M209.67 1481.64 L217.308 1481.64 L217.308 1455.28 L208.998 1456.95 L208.998 1452.69 L217.262 1451.02 L221.938 1451.02 L221.938 1481.64 L229.577 1481.64 L229.577 1485.58 L209.67 1485.58 L209.67 1481.64 Z" fill="#000000" fill-rule="evenodd" fill-opacity="1" /><path clip-path="url(#clip640)" d="M640.634 1481.64 L656.953 1481.64 L656.953 1485.58 L635.009 1485.58 L635.009 1481.64 Q637.671 1478.89 642.254 1474.26 Q646.861 1469.61 648.041 1468.27 Q650.287 1465.74 651.166 1464.01 Q652.069 1462.25 652.069 1460.56 Q652.069 1457.8 650.125 1456.07 Q648.203 1454.33 645.102 1454.33 Q642.903 1454.33 640.449 1455.09 Q638.018 1455.86 635.241 1457.41 L635.241 1452.69 Q638.065 1451.55 640.518 1450.97 Q642.972 1450.39 645.009 1450.39 Q650.379 1450.39 653.574 1453.08 Q656.768 1455.77 656.768 1460.26 Q656.768 1462.39 655.958 1464.31 Q655.171 1466.2 653.065 1468.8 Q652.486 1469.47 649.384 1472.69 Q646.282 1475.88 640.634 1481.64 Z" fill="#000000" fill-rule="evenodd" fill-opacity="1" /><path clip-path="url(#clip640)" d="M1076.92 1466.95 Q1080.28 1467.66 1082.15 1469.93 Q1084.05 1472.2 1084.05 1475.53 Q1084.05 1480.65 1080.53 1483.45 Q1077.02 1486.25 1070.53 1486.25 Q1068.36 1486.25 1066.04 1485.81 Q1063.75 1485.39 1061.3 1484.54 L1061.3 1480.02 Q1063.24 1481.16 1065.56 1481.74 Q1067.87 1482.32 1070.39 1482.32 Q1074.79 1482.32 1077.08 1480.58 Q1079.4 1478.84 1079.4 1475.53 Q1079.4 1472.48 1077.25 1470.77 Q1075.12 1469.03 1071.3 1469.03 L1067.27 1469.03 L1067.27 1465.19 L1071.48 1465.19 Q1074.93 1465.19 1076.76 1463.82 Q1078.59 1462.43 1078.59 1459.84 Q1078.59 1457.18 1076.69 1455.77 Q1074.82 1454.33 1071.3 1454.33 Q1069.38 1454.33 1067.18 1454.75 Q1064.98 1455.16 1062.34 1456.04 L1062.34 1451.88 Q1065 1451.14 1067.32 1450.77 Q1069.65 1450.39 1071.71 1450.39 Q1077.04 1450.39 1080.14 1452.83 Q1083.24 1455.23 1083.24 1459.35 Q1083.24 1462.22 1081.6 1464.21 Q1079.95 1466.18 1076.92 1466.95 Z" fill="#000000" fill-rule="evenodd" fill-opacity="1" /><path clip-path="url(#clip640)" d="M1502.38 1455.09 L1490.57 1473.54 L1502.38 1473.54 L1502.38 1455.09 M1501.15 1451.02 L1507.03 1451.02 L1507.03 1473.54 L1511.96 1473.54 L1511.96 1477.43 L1507.03 1477.43 L1507.03 1485.58 L1502.38 1485.58 L1502.38 1477.43 L1486.78 1477.43 L1486.78 1472.92 L1501.15 1451.02 Z" fill="#000000" fill-rule="evenodd" fill-opacity="1" /><path clip-path="url(#clip640)" d="M1916.34 1451.02 L1934.7 1451.02 L1934.7 1454.96 L1920.62 1454.96 L1920.62 1463.43 Q1921.64 1463.08 1922.66 1462.92 Q1923.68 1462.73 1924.7 1462.73 Q1930.48 1462.73 1933.86 1465.9 Q1937.24 1469.08 1937.24 1474.49 Q1937.24 1480.07 1933.77 1483.17 Q1930.3 1486.25 1923.98 1486.25 Q1921.8 1486.25 1919.53 1485.88 Q1917.29 1485.51 1914.88 1484.77 L1914.88 1480.07 Q1916.97 1481.2 1919.19 1481.76 Q1921.41 1482.32 1923.89 1482.32 Q1927.89 1482.32 1930.23 1480.21 Q1932.57 1478.1 1932.57 1474.49 Q1932.57 1470.88 1930.23 1468.77 Q1927.89 1466.67 1923.89 1466.67 Q1922.01 1466.67 1920.14 1467.08 Q1918.28 1467.5 1916.34 1468.38 L1916.34 1451.02 Z" fill="#000000" fill-rule="evenodd" fill-opacity="1" /><path clip-path="url(#clip640)" d="M2353.16 1466.44 Q2350.01 1466.44 2348.16 1468.59 Q2346.33 1470.74 2346.33 1474.49 Q2346.33 1478.22 2348.16 1480.39 Q2350.01 1482.55 2353.16 1482.55 Q2356.31 1482.55 2358.14 1480.39 Q2359.99 1478.22 2359.99 1474.49 Q2359.99 1470.74 2358.14 1468.59 Q2356.31 1466.44 2353.16 1466.44 M2362.44 1451.78 L2362.44 1456.04 Q2360.68 1455.21 2358.88 1454.77 Q2357.1 1454.33 2355.34 1454.33 Q2350.71 1454.33 2348.25 1457.45 Q2345.82 1460.58 2345.48 1466.9 Q2346.84 1464.89 2348.9 1463.82 Q2350.96 1462.73 2353.44 1462.73 Q2358.65 1462.73 2361.66 1465.9 Q2364.69 1469.05 2364.69 1474.49 Q2364.69 1479.82 2361.54 1483.03 Q2358.39 1486.25 2353.16 1486.25 Q2347.17 1486.25 2343.99 1481.67 Q2340.82 1477.06 2340.82 1468.33 Q2340.82 1460.14 2344.71 1455.28 Q2348.6 1450.39 2355.15 1450.39 Q2356.91 1450.39 2358.69 1450.74 Q2360.5 1451.09 2362.44 1451.78 Z" fill="#000000" fill-rule="evenodd" fill-opacity="1" /><path clip-path="url(#clip640)" d="M987.772 1550.12 Q980.675 1550.12 977.937 1551.75 Q975.2 1553.37 975.2 1557.29 Q975.2 1560.4 977.237 1562.25 Q979.306 1564.07 982.839 1564.07 Q987.709 1564.07 990.637 1560.63 Q993.597 1557.16 993.597 1551.43 L993.597 1550.12 L987.772 1550.12 M999.454 1547.71 L999.454 1568.04 L993.597 1568.04 L993.597 1562.63 Q991.592 1565.88 988.6 1567.44 Q985.608 1568.97 981.279 1568.97 Q975.805 1568.97 972.558 1565.91 Q969.344 1562.82 969.344 1557.67 Q969.344 1551.65 973.354 1548.6 Q977.396 1545.54 985.385 1545.54 L993.597 1545.54 L993.597 1544.97 Q993.597 1540.93 990.923 1538.73 Q988.282 1536.5 983.476 1536.5 Q980.42 1536.5 977.524 1537.23 Q974.627 1537.97 971.954 1539.43 L971.954 1534.02 Q975.168 1532.78 978.192 1532.17 Q981.216 1531.54 984.08 1531.54 Q991.815 1531.54 995.634 1535.55 Q999.454 1539.56 999.454 1547.71 Z" fill="#000000" fill-rule="evenodd" fill-opacity="1" /><path clip-path="url(#clip640)" d="M1017.18 1562.7 L1017.18 1581.6 L1011.29 1581.6 L1011.29 1532.4 L1017.18 1532.4 L1017.18 1537.81 Q1019.03 1534.62 1021.83 1533.1 Q1024.66 1531.54 1028.58 1531.54 Q1035.07 1531.54 1039.11 1536.69 Q1043.19 1541.85 1043.19 1550.25 Q1043.19 1558.65 1039.11 1563.81 Q1035.07 1568.97 1028.58 1568.97 Q1024.66 1568.97 1021.83 1567.44 Q1019.03 1565.88 1017.18 1562.7 M1037.11 1550.25 Q1037.11 1543.79 1034.43 1540.13 Q1031.79 1536.44 1027.14 1536.44 Q1022.5 1536.44 1019.82 1540.13 Q1017.18 1543.79 1017.18 1550.25 Q1017.18 1556.71 1019.82 1560.4 Q1022.5 1564.07 1027.14 1564.07 Q1031.79 1564.07 1034.43 1560.4 Q1037.11 1556.71 1037.11 1550.25 Z" fill="#000000" fill-rule="evenodd" fill-opacity="1" /><path clip-path="url(#clip640)" d="M1058.56 1562.7 L1058.56 1581.6 L1052.67 1581.6 L1052.67 1532.4 L1058.56 1532.4 L1058.56 1537.81 Q1060.41 1534.62 1063.21 1533.1 Q1066.04 1531.54 1069.95 1531.54 Q1076.45 1531.54 1080.49 1536.69 Q1084.56 1541.85 1084.56 1550.25 Q1084.56 1558.65 1080.49 1563.81 Q1076.45 1568.97 1069.95 1568.97 Q1066.04 1568.97 1063.21 1567.44 Q1060.41 1565.88 1058.56 1562.7 M1078.48 1550.25 Q1078.48 1543.79 1075.81 1540.13 Q1073.17 1536.44 1068.52 1536.44 Q1063.87 1536.44 1061.2 1540.13 Q1058.56 1543.79 1058.56 1550.25 Q1058.56 1556.71 1061.2 1560.4 Q1063.87 1564.07 1068.52 1564.07 Q1073.17 1564.07 1075.81 1560.4 Q1078.48 1556.71 1078.48 1550.25 Z" fill="#000000" fill-rule="evenodd" fill-opacity="1" /><path clip-path="url(#clip640)" d="M1114.93 1537.87 Q1113.94 1537.3 1112.76 1537.04 Q1111.62 1536.76 1110.22 1536.76 Q1105.25 1536.76 1102.58 1540 Q1099.94 1543.22 1099.94 1549.27 L1099.94 1568.04 L1094.05 1568.04 L1094.05 1532.4 L1099.94 1532.4 L1099.94 1537.93 Q1101.78 1534.69 1104.74 1533.13 Q1107.7 1531.54 1111.94 1531.54 Q1112.54 1531.54 1113.27 1531.63 Q1114 1531.7 1114.9 1531.85 L1114.93 1537.87 Z" fill="#000000" fill-rule="evenodd" fill-opacity="1" /><path clip-path="url(#clip640)" d="M1133.45 1536.5 Q1128.74 1536.5 1126 1540.19 Q1123.27 1543.85 1123.27 1550.25 Q1123.27 1556.65 1125.97 1560.34 Q1128.71 1564 1133.45 1564 Q1138.13 1564 1140.87 1560.31 Q1143.6 1556.62 1143.6 1550.25 Q1143.6 1543.92 1140.87 1540.23 Q1138.13 1536.5 1133.45 1536.5 M1133.45 1531.54 Q1141.09 1531.54 1145.45 1536.5 Q1149.81 1541.47 1149.81 1550.25 Q1149.81 1559 1145.45 1564 Q1141.09 1568.97 1133.45 1568.97 Q1125.78 1568.97 1121.42 1564 Q1117.09 1559 1117.09 1550.25 Q1117.09 1541.47 1121.42 1536.5 Q1125.78 1531.54 1133.45 1531.54 Z" fill="#000000" fill-rule="evenodd" fill-opacity="1" /><path clip-path="url(#clip640)" d="M1187.15 1532.4 L1174.26 1549.74 L1187.81 1568.04 L1180.91 1568.04 L1170.53 1554.04 L1160.16 1568.04 L1153.25 1568.04 L1167.09 1549.39 L1154.43 1532.4 L1161.33 1532.4 L1170.79 1545.1 L1180.24 1532.4 L1187.15 1532.4 Z" fill="#000000" fill-rule="evenodd" fill-opacity="1" /><path clip-path="url(#clip640)" d="M1196.09 1532.4 L1201.95 1532.4 L1201.95 1568.04 L1196.09 1568.04 L1196.09 1532.4 M1196.09 1518.52 L1201.95 1518.52 L1201.95 1525.93 L1196.09 1525.93 L1196.09 1518.52 Z" fill="#000000" fill-rule="evenodd" fill-opacity="1" /><path clip-path="url(#clip640)" d="M1241.96 1539.24 Q1244.15 1535.29 1247.21 1533.41 Q1250.26 1531.54 1254.4 1531.54 Q1259.97 1531.54 1262.99 1535.45 Q1266.02 1539.33 1266.02 1546.53 L1266.02 1568.04 L1260.13 1568.04 L1260.13 1546.72 Q1260.13 1541.59 1258.31 1539.11 Q1256.5 1536.63 1252.78 1536.63 Q1248.23 1536.63 1245.58 1539.65 Q1242.94 1542.68 1242.94 1547.9 L1242.94 1568.04 L1237.05 1568.04 L1237.05 1546.72 Q1237.05 1541.56 1235.24 1539.11 Q1233.43 1536.63 1229.64 1536.63 Q1225.15 1536.63 1222.51 1539.68 Q1219.87 1542.71 1219.87 1547.9 L1219.87 1568.04 L1213.98 1568.04 L1213.98 1532.4 L1219.87 1532.4 L1219.87 1537.93 Q1221.87 1534.66 1224.67 1533.1 Q1227.47 1531.54 1231.32 1531.54 Q1235.21 1531.54 1237.91 1533.51 Q1240.65 1535.48 1241.96 1539.24 Z" fill="#000000" fill-rule="evenodd" fill-opacity="1" /><path clip-path="url(#clip640)" d="M1293.9 1550.12 Q1286.8 1550.12 1284.06 1551.75 Q1281.33 1553.37 1281.33 1557.29 Q1281.33 1560.4 1283.36 1562.25 Q1285.43 1564.07 1288.97 1564.07 Q1293.84 1564.07 1296.76 1560.63 Q1299.72 1557.16 1299.72 1551.43 L1299.72 1550.12 L1293.9 1550.12 M1305.58 1547.71 L1305.58 1568.04 L1299.72 1568.04 L1299.72 1562.63 Q1297.72 1565.88 1294.73 1567.44 Q1291.73 1568.97 1287.41 1568.97 Q1281.93 1568.97 1278.69 1565.91 Q1275.47 1562.82 1275.47 1557.67 Q1275.47 1551.65 1279.48 1548.6 Q1283.52 1545.54 1291.51 1545.54 L1299.72 1545.54 L1299.72 1544.97 Q1299.72 1540.93 1297.05 1538.73 Q1294.41 1536.5 1289.6 1536.5 Q1286.55 1536.5 1283.65 1537.23 Q1280.75 1537.97 1278.08 1539.43 L1278.08 1534.02 Q1281.3 1532.78 1284.32 1532.17 Q1287.34 1531.54 1290.21 1531.54 Q1297.94 1531.54 1301.76 1535.55 Q1305.58 1539.56 1305.58 1547.71 Z" fill="#000000" fill-rule="evenodd" fill-opacity="1" /><path clip-path="url(#clip640)" d="M1323.44 1522.27 L1323.44 1532.4 L1335.5 1532.4 L1335.5 1536.95 L1323.44 1536.95 L1323.44 1556.3 Q1323.44 1560.66 1324.61 1561.9 Q1325.82 1563.14 1329.48 1563.14 L1335.5 1563.14 L1335.5 1568.04 L1329.48 1568.04 Q1322.7 1568.04 1320.13 1565.53 Q1317.55 1562.98 1317.55 1556.3 L1317.55 1536.95 L1313.25 1536.95 L1313.25 1532.4 L1317.55 1532.4 L1317.55 1522.27 L1323.44 1522.27 Z" fill="#000000" fill-rule="evenodd" fill-opacity="1" /><path clip-path="url(#clip640)" d="M1343.2 1532.4 L1349.06 1532.4 L1349.06 1568.04 L1343.2 1568.04 L1343.2 1532.4 M1343.2 1518.52 L1349.06 1518.52 L1349.06 1525.93 L1343.2 1525.93 L1343.2 1518.52 Z" fill="#000000" fill-rule="evenodd" fill-opacity="1" /><path clip-path="url(#clip640)" d="M1375.13 1536.5 Q1370.42 1536.5 1367.68 1540.19 Q1364.94 1543.85 1364.94 1550.25 Q1364.94 1556.65 1367.65 1560.34 Q1370.38 1564 1375.13 1564 Q1379.8 1564 1382.54 1560.31 Q1385.28 1556.62 1385.28 1550.25 Q1385.28 1543.92 1382.54 1540.23 Q1379.8 1536.5 1375.13 1536.5 M1375.13 1531.54 Q1382.76 1531.54 1387.13 1536.5 Q1391.49 1541.47 1391.49 1550.25 Q1391.49 1559 1387.13 1564 Q1382.76 1568.97 1375.13 1568.97 Q1367.46 1568.97 1363.09 1564 Q1358.77 1559 1358.77 1550.25 Q1358.77 1541.47 1363.09 1536.5 Q1367.46 1531.54 1375.13 1531.54 Z" fill="#000000" fill-rule="evenodd" fill-opacity="1" /><path clip-path="url(#clip640)" d="M1430.83 1546.53 L1430.83 1568.04 L1424.97 1568.04 L1424.97 1546.72 Q1424.97 1541.66 1423 1539.14 Q1421.02 1536.63 1417.08 1536.63 Q1412.33 1536.63 1409.6 1539.65 Q1406.86 1542.68 1406.86 1547.9 L1406.86 1568.04 L1400.97 1568.04 L1400.97 1532.4 L1406.86 1532.4 L1406.86 1537.93 Q1408.96 1534.72 1411.79 1533.13 Q1414.66 1531.54 1418.38 1531.54 Q1424.52 1531.54 1427.67 1535.36 Q1430.83 1539.14 1430.83 1546.53 Z" fill="#000000" fill-rule="evenodd" fill-opacity="1" /><path clip-path="url(#clip640)" d="M1483.88 1537.87 Q1482.9 1537.3 1481.72 1537.04 Q1480.57 1536.76 1479.17 1536.76 Q1474.21 1536.76 1471.53 1540 Q1468.89 1543.22 1468.89 1549.27 L1468.89 1568.04 L1463 1568.04 L1463 1532.4 L1468.89 1532.4 L1468.89 1537.93 Q1470.74 1534.69 1473.7 1533.13 Q1476.66 1531.54 1480.89 1531.54 Q1481.5 1531.54 1482.23 1531.63 Q1482.96 1531.7 1483.85 1531.85 L1483.88 1537.87 Z" fill="#000000" fill-rule="evenodd" fill-opacity="1" /><path clip-path="url(#clip640)" d="M1506.23 1550.12 Q1499.13 1550.12 1496.39 1551.75 Q1493.66 1553.37 1493.66 1557.29 Q1493.66 1560.4 1495.69 1562.25 Q1497.76 1564.07 1501.29 1564.07 Q1506.16 1564.07 1509.09 1560.63 Q1512.05 1557.16 1512.05 1551.43 L1512.05 1550.12 L1506.23 1550.12 M1517.91 1547.71 L1517.91 1568.04 L1512.05 1568.04 L1512.05 1562.63 Q1510.05 1565.88 1507.05 1567.44 Q1504.06 1568.97 1499.73 1568.97 Q1494.26 1568.97 1491.01 1565.91 Q1487.8 1562.82 1487.8 1557.67 Q1487.8 1551.65 1491.81 1548.6 Q1495.85 1545.54 1503.84 1545.54 L1512.05 1545.54 L1512.05 1544.97 Q1512.05 1540.93 1509.38 1538.73 Q1506.74 1536.5 1501.93 1536.5 Q1498.88 1536.5 1495.98 1537.23 Q1493.08 1537.97 1490.41 1539.43 L1490.41 1534.02 Q1493.62 1532.78 1496.65 1532.17 Q1499.67 1531.54 1502.54 1531.54 Q1510.27 1531.54 1514.09 1535.55 Q1517.91 1539.56 1517.91 1547.71 Z" fill="#000000" fill-rule="evenodd" fill-opacity="1" /><path clip-path="url(#clip640)" d="M1559.6 1546.53 L1559.6 1568.04 L1553.75 1568.04 L1553.75 1546.72 Q1553.75 1541.66 1551.77 1539.14 Q1549.8 1536.63 1545.85 1536.63 Q1541.11 1536.63 1538.37 1539.65 Q1535.64 1542.68 1535.64 1547.9 L1535.64 1568.04 L1529.75 1568.04 L1529.75 1532.4 L1535.64 1532.4 L1535.64 1537.93 Q1537.74 1534.72 1540.57 1533.13 Q1543.43 1531.54 1547.16 1531.54 Q1553.3 1531.54 1556.45 1535.36 Q1559.6 1539.14 1559.6 1546.53 Z" fill="#000000" fill-rule="evenodd" fill-opacity="1" /><path clip-path="url(#clip640)" d="M1571.06 1518.52 L1576.95 1518.52 L1576.95 1547.77 L1594.42 1532.4 L1601.9 1532.4 L1583 1549.07 L1602.7 1568.04 L1595.06 1568.04 L1576.95 1550.63 L1576.95 1568.04 L1571.06 1568.04 L1571.06 1518.52 Z" fill="#000000" fill-rule="evenodd" fill-opacity="1" /><polyline clip-path="url(#clip643)" style="stroke:#000000; stroke-linecap:round; stroke-linejoin:round; stroke-width:2; stroke-opacity:0.1; fill:none" points="219.288,1172.09 2352.76,1172.09 "/>
<polyline clip-path="url(#clip643)" style="stroke:#000000; stroke-linecap:round; stroke-linejoin:round; stroke-width:2; stroke-opacity:0.1; fill:none" points="219.288,864.763 2352.76,864.763 "/>
<polyline clip-path="url(#clip643)" style="stroke:#000000; stroke-linecap:round; stroke-linejoin:round; stroke-width:2; stroke-opacity:0.1; fill:none" points="219.288,557.438 2352.76,557.438 "/>
<polyline clip-path="url(#clip643)" style="stroke:#000000; stroke-linecap:round; stroke-linejoin:round; stroke-width:2; stroke-opacity:0.1; fill:none" points="219.288,250.113 2352.76,250.113 "/>
<polyline clip-path="url(#clip640)" style="stroke:#000000; stroke-linecap:round; stroke-linejoin:round; stroke-width:4; stroke-opacity:1; fill:none" points="219.288,1423.18 219.288,47.2441 "/>
<polyline clip-path="url(#clip640)" style="stroke:#000000; stroke-linecap:round; stroke-linejoin:round; stroke-width:4; stroke-opacity:1; fill:none" points="219.288,1172.09 238.185,1172.09 "/>
<polyline clip-path="url(#clip640)" style="stroke:#000000; stroke-linecap:round; stroke-linejoin:round; stroke-width:4; stroke-opacity:1; fill:none" points="219.288,864.763 238.185,864.763 "/>
<polyline clip-path="url(#clip640)" style="stroke:#000000; stroke-linecap:round; stroke-linejoin:round; stroke-width:4; stroke-opacity:1; fill:none" points="219.288,557.438 238.185,557.438 "/>
<polyline clip-path="url(#clip640)" style="stroke:#000000; stroke-linecap:round; stroke-linejoin:round; stroke-width:4; stroke-opacity:1; fill:none" points="219.288,250.113 238.185,250.113 "/>
<path clip-path="url(#clip640)" d="M127.015 1157.89 Q123.404 1157.89 121.575 1161.45 Q119.769 1164.99 119.769 1172.12 Q119.769 1179.23 121.575 1182.79 Q123.404 1186.34 127.015 1186.34 Q130.649 1186.34 132.455 1182.79 Q134.283 1179.23 134.283 1172.12 Q134.283 1164.99 132.455 1161.45 Q130.649 1157.89 127.015 1157.89 M127.015 1154.18 Q132.825 1154.18 135.88 1158.79 Q138.959 1163.37 138.959 1172.12 Q138.959 1180.85 135.88 1185.46 Q132.825 1190.04 127.015 1190.04 Q121.205 1190.04 118.126 1185.46 Q115.07 1180.85 115.07 1172.12 Q115.07 1163.37 118.126 1158.79 Q121.205 1154.18 127.015 1154.18 Z" fill="#000000" fill-rule="evenodd" fill-opacity="1" /><path clip-path="url(#clip640)" d="M147.177 1183.49 L152.061 1183.49 L152.061 1189.37 L147.177 1189.37 L147.177 1183.49 Z" fill="#000000" fill-rule="evenodd" fill-opacity="1" /><path clip-path="url(#clip640)" d="M161.065 1154.81 L183.288 1154.81 L183.288 1156.8 L170.741 1189.37 L165.857 1189.37 L177.663 1158.74 L161.065 1158.74 L161.065 1154.81 Z" fill="#000000" fill-rule="evenodd" fill-opacity="1" /><path clip-path="url(#clip640)" d="M126.205 850.562 Q122.593 850.562 120.765 854.127 Q118.959 857.669 118.959 864.798 Q118.959 871.905 120.765 875.469 Q122.593 879.011 126.205 879.011 Q129.839 879.011 131.644 875.469 Q133.473 871.905 133.473 864.798 Q133.473 857.669 131.644 854.127 Q129.839 850.562 126.205 850.562 M126.205 846.858 Q132.015 846.858 135.07 851.465 Q138.149 856.048 138.149 864.798 Q138.149 873.525 135.07 878.131 Q132.015 882.715 126.205 882.715 Q120.394 882.715 117.316 878.131 Q114.26 873.525 114.26 864.798 Q114.26 856.048 117.316 851.465 Q120.394 846.858 126.205 846.858 Z" fill="#000000" fill-rule="evenodd" fill-opacity="1" /><path clip-path="url(#clip640)" d="M146.366 876.164 L151.251 876.164 L151.251 882.043 L146.366 882.043 L146.366 876.164 Z" fill="#000000" fill-rule="evenodd" fill-opacity="1" /><path clip-path="url(#clip640)" d="M171.436 865.632 Q168.102 865.632 166.181 867.414 Q164.283 869.196 164.283 872.321 Q164.283 875.446 166.181 877.229 Q168.102 879.011 171.436 879.011 Q174.769 879.011 176.69 877.229 Q178.612 875.423 178.612 872.321 Q178.612 869.196 176.69 867.414 Q174.792 865.632 171.436 865.632 M166.76 863.641 Q163.751 862.9 162.061 860.84 Q160.394 858.78 160.394 855.817 Q160.394 851.673 163.334 849.266 Q166.297 846.858 171.436 846.858 Q176.598 846.858 179.538 849.266 Q182.477 851.673 182.477 855.817 Q182.477 858.78 180.788 860.84 Q179.121 862.9 176.135 863.641 Q179.514 864.428 181.389 866.719 Q183.288 869.011 183.288 872.321 Q183.288 877.344 180.209 880.03 Q177.153 882.715 171.436 882.715 Q165.718 882.715 162.64 880.03 Q159.584 877.344 159.584 872.321 Q159.584 869.011 161.482 866.719 Q163.38 864.428 166.76 863.641 M165.047 856.257 Q165.047 858.942 166.714 860.446 Q168.403 861.951 171.436 861.951 Q174.445 861.951 176.135 860.446 Q177.848 858.942 177.848 856.257 Q177.848 853.571 176.135 852.067 Q174.445 850.562 171.436 850.562 Q168.403 850.562 166.714 852.067 Q165.047 853.571 165.047 856.257 Z" fill="#000000" fill-rule="evenodd" fill-opacity="1" /><path clip-path="url(#clip640)" d="M126.297 543.237 Q122.686 543.237 120.857 546.801 Q119.052 550.343 119.052 557.473 Q119.052 564.579 120.857 568.144 Q122.686 571.686 126.297 571.686 Q129.931 571.686 131.737 568.144 Q133.566 564.579 133.566 557.473 Q133.566 550.343 131.737 546.801 Q129.931 543.237 126.297 543.237 M126.297 539.533 Q132.107 539.533 135.163 544.139 Q138.242 548.723 138.242 557.473 Q138.242 566.2 135.163 570.806 Q132.107 575.389 126.297 575.389 Q120.487 575.389 117.408 570.806 Q114.353 566.2 114.353 557.473 Q114.353 548.723 117.408 544.139 Q120.487 539.533 126.297 539.533 Z" fill="#000000" fill-rule="evenodd" fill-opacity="1" /><path clip-path="url(#clip640)" d="M146.459 568.838 L151.343 568.838 L151.343 574.718 L146.459 574.718 L146.459 568.838 Z" fill="#000000" fill-rule="evenodd" fill-opacity="1" /><path clip-path="url(#clip640)" d="M161.667 574 L161.667 569.741 Q163.427 570.574 165.232 571.014 Q167.038 571.454 168.774 571.454 Q173.403 571.454 175.834 568.352 Q178.288 565.227 178.635 558.885 Q177.292 560.875 175.232 561.94 Q173.172 563.005 170.672 563.005 Q165.487 563.005 162.454 559.88 Q159.445 556.732 159.445 551.292 Q159.445 545.968 162.593 542.751 Q165.741 539.533 170.973 539.533 Q176.968 539.533 180.116 544.139 Q183.288 548.723 183.288 557.473 Q183.288 565.644 179.399 570.528 Q175.533 575.389 168.982 575.389 Q167.223 575.389 165.417 575.042 Q163.612 574.695 161.667 574 M170.973 559.348 Q174.121 559.348 175.95 557.195 Q177.801 555.042 177.801 551.292 Q177.801 547.565 175.95 545.413 Q174.121 543.237 170.973 543.237 Q167.825 543.237 165.973 545.413 Q164.144 547.565 164.144 551.292 Q164.144 555.042 165.973 557.195 Q167.825 559.348 170.973 559.348 Z" fill="#000000" fill-rule="evenodd" fill-opacity="1" /><path clip-path="url(#clip640)" d="M116.922 263.457 L124.561 263.457 L124.561 237.092 L116.251 238.758 L116.251 234.499 L124.515 232.833 L129.191 232.833 L129.191 263.457 L136.829 263.457 L136.829 267.393 L116.922 267.393 L116.922 263.457 Z" fill="#000000" fill-rule="evenodd" fill-opacity="1" /><path clip-path="url(#clip640)" d="M146.274 261.513 L151.158 261.513 L151.158 267.393 L146.274 267.393 L146.274 261.513 Z" fill="#000000" fill-rule="evenodd" fill-opacity="1" /><path clip-path="url(#clip640)" d="M171.343 235.911 Q167.732 235.911 165.903 239.476 Q164.098 243.018 164.098 250.147 Q164.098 257.254 165.903 260.818 Q167.732 264.36 171.343 264.36 Q174.977 264.36 176.783 260.818 Q178.612 257.254 178.612 250.147 Q178.612 243.018 176.783 239.476 Q174.977 235.911 171.343 235.911 M171.343 232.208 Q177.153 232.208 180.209 236.814 Q183.288 241.397 183.288 250.147 Q183.288 258.874 180.209 263.48 Q177.153 268.064 171.343 268.064 Q165.533 268.064 162.454 263.48 Q159.399 258.874 159.399 250.147 Q159.399 241.397 162.454 236.814 Q165.533 232.208 171.343 232.208 Z" fill="#000000" fill-rule="evenodd" fill-opacity="1" /><path clip-path="url(#clip640)" d="M18.8696 756.909 Q19.3527 756.909 20.0613 757.264 Q20.7054 757.586 21.124 758.262 Q21.5105 758.906 21.5105 759.615 Q21.5105 759.84 21.3817 760.355 Q20.9952 761.225 20.1257 762.578 Q19.2561 763.93 18.7086 765.154 Q18.1289 766.346 18.0645 767.666 Q18.0645 768.825 18.4832 769.792 Q18.9663 770.661 19.9968 771.241 Q20.4155 771.499 21.124 771.499 Q22.1224 771.499 23.4429 770.951 Q24.7633 770.404 26.4702 769.276 Q28.1771 768.117 29.3365 767.28 Q30.4637 766.442 32.3317 764.993 Q32.4927 764.864 32.5893 764.8 Q32.6537 764.735 32.8148 764.639 Q32.9436 764.542 33.0402 764.445 Q36.8727 761.386 41.0917 760.613 Q42.5732 760.42 44.119 760.42 Q47.2108 760.42 50.8501 761.354 Q54.1673 762.159 57.0336 763.866 Q59.8677 765.573 61.7356 768.149 Q63.6036 770.693 63.6036 773.463 Q63.6036 776.201 62.412 778.455 Q61.1881 780.709 59.0948 782.062 Q56.3251 783.898 52.4926 783.898 Q50.3348 783.898 48.499 783.383 Q45.5683 782.674 42.863 780.999 Q40.1577 779.325 38.0643 776.909 Q34.9726 773.238 34.103 769.244 Q30.5604 771.112 27.8229 772.207 Q25.0532 773.27 22.7021 773.27 Q20.641 773.27 19.3205 772.497 Q17.9035 771.821 17.0983 770.436 Q16.3898 769.276 16.0355 767.602 Q15.9067 766.571 15.9067 765.895 Q15.9067 763.608 17.1627 758.294 Q17.4848 756.909 18.8696 756.909 M46.7599 764.961 Q44.7954 764.961 43.4749 765.283 Q40.2543 765.895 35.8099 768.342 L35.4879 768.536 Q36.3896 771.66 39.1271 774.204 Q42.4765 777.392 48.8211 779.003 Q52.3637 779.872 54.3605 779.872 Q56.5183 779.872 58.3862 779.067 Q60.1253 778.294 61.1237 776.845 Q62.1221 775.363 62.1221 773.399 Q62.1221 771.917 61.2848 770.629 Q60.4152 769.341 58.9015 768.407 Q57.3878 767.473 55.7453 766.829 Q54.0706 766.152 52.1061 765.637 Q49.4652 764.961 46.7599 764.961 Z" fill="#000000" fill-rule="evenodd" fill-opacity="1" /><path clip-path="url(#clip640)" d="M65.231 731.337 Q66.4258 731.337 67.1923 732.126 Q67.9588 732.893 67.9588 733.885 Q67.9588 734.741 67.4629 735.192 Q66.9669 735.643 66.3356 735.643 Q65.4339 735.643 64.6899 734.944 Q63.946 734.245 63.7882 733.231 Q63.2471 733.975 63.2471 735.17 Q63.2471 737.131 64.7576 738.867 Q65.4564 739.634 66.7414 740.468 Q68.0039 741.302 68.545 741.46 L74.5642 742.925 Q75.2406 743.06 78.4869 743.894 Q81.7107 744.706 81.846 744.774 Q82.4772 744.999 82.8154 745.495 Q83.1535 745.991 83.1535 746.487 Q83.1535 747.051 82.8154 747.434 Q82.4772 747.817 81.8911 747.817 Q81.8009 747.817 81.4627 747.749 Q81.1246 747.682 80.6512 747.569 Q80.1777 747.456 79.9072 747.411 L69.2438 744.729 Q67.305 744.233 66.6964 744.12 Q66.0651 743.985 65.3662 743.985 Q64.1489 743.985 63.698 744.368 Q63.2471 744.751 63.2471 745.427 Q63.2471 746.6 64.6448 747.366 Q66.0426 748.133 68.7479 748.786 Q69.4918 748.989 69.6496 749.125 Q69.8074 749.237 69.8074 749.575 Q69.7849 750.139 69.334 750.139 Q69.2213 750.139 68.4999 749.959 Q67.7559 749.778 66.6738 749.44 Q65.5691 749.08 64.8703 748.696 Q64.3969 748.471 64.0812 748.268 Q63.7656 748.065 63.2696 747.659 Q62.7737 747.253 62.5031 746.645 Q62.2326 746.036 62.2326 745.292 Q62.2326 743.669 63.2246 742.519 Q64.2165 741.347 65.772 741.076 Q64.9605 740.513 64.2616 739.814 Q63.5402 739.115 62.8864 737.83 Q62.2326 736.545 62.2326 735.17 Q62.2326 733.456 63.1118 732.397 Q63.9685 731.337 65.231 731.337 Z" fill="#000000" fill-rule="evenodd" fill-opacity="1" /><path clip-path="url(#clip640)" d="M77.2921 710.927 Q77.495 710.746 77.6979 710.746 Q77.9008 710.746 78.4869 711.197 Q79.0731 711.626 79.8621 712.55 Q80.6512 713.474 81.3951 714.669 Q82.1391 715.864 82.635 717.622 Q83.1535 719.381 83.1535 721.229 Q83.1535 724.543 80.7864 726.527 Q78.4193 728.489 74.7897 728.489 Q72.4676 728.489 70.4161 727.722 Q68.3421 726.956 66.8767 725.716 Q65.4113 724.453 64.3518 722.875 Q63.2696 721.274 62.7511 719.606 Q62.2326 717.938 62.2326 716.382 Q62.2326 714.105 63.3824 712.775 Q64.5321 711.445 66.1553 711.445 Q66.5385 711.445 67.012 711.558 Q67.4854 711.648 68.2294 711.964 Q68.9733 712.257 69.7173 713.023 Q70.4387 713.79 70.9121 714.917 Q71.9717 717.419 71.9717 721.973 L71.9717 724.431 Q74.8799 725.152 76.7736 725.152 Q77.5175 725.152 78.284 725.017 Q79.028 724.882 79.9748 724.521 Q80.9217 724.138 81.5304 723.281 Q82.1165 722.402 82.1165 721.139 Q82.1165 720.733 82.094 720.305 Q82.0714 719.854 81.8234 718.727 Q81.5755 717.577 81.1471 716.563 Q80.7188 715.548 79.7945 714.263 Q78.8476 712.956 77.5626 711.919 Q77.0892 711.558 77.0892 711.31 Q77.0892 711.107 77.2921 710.927 M66.1553 712.978 Q64.9154 712.978 64.0812 713.903 Q63.2471 714.804 63.2471 716.382 Q63.2471 716.878 63.3598 717.487 Q63.4725 718.096 63.946 719.11 Q64.4194 720.102 65.2084 720.981 Q65.9749 721.861 67.4854 722.74 Q68.9733 723.619 70.9572 724.138 L70.9572 722.244 Q70.9572 721.59 70.9572 721.117 Q70.9346 720.643 70.8445 719.606 Q70.7543 718.547 70.5965 717.78 Q70.4161 717.014 70.0554 716.044 Q69.6947 715.075 69.2213 714.466 Q68.7253 713.835 67.9363 713.407 Q67.1472 712.978 66.1553 712.978 Z" fill="#000000" fill-rule="evenodd" fill-opacity="1" /><path clip-path="url(#clip640)" d="M51.0958 697.312 L77.7881 703.963 Q78.8476 704.233 79.9974 704.233 Q82.1165 704.233 82.1165 702.836 Q82.1165 702.182 81.6882 701.641 Q81.2373 701.1 80.3581 700.694 Q79.4563 700.266 78.5996 699.995 Q77.743 699.702 76.4129 699.341 Q75.8943 699.229 75.7365 699.116 Q75.5787 699.003 75.5787 698.688 Q75.5787 698.124 76.0296 698.124 Q78.8025 698.688 80.561 699.522 Q83.1535 700.739 83.1535 702.994 Q83.1535 704.684 81.9813 705.947 Q80.7864 707.187 78.8927 707.187 Q78.1713 707.187 77.3146 706.961 L54.2295 701.145 L53.3277 700.987 Q53.0797 700.987 52.9444 701.077 Q52.8092 701.167 52.6739 701.709 Q52.5387 702.227 52.5387 703.264 Q52.5387 703.692 52.5161 703.895 Q52.4936 704.076 52.3808 704.256 Q52.2681 704.414 52.0201 704.414 Q51.6143 704.414 51.3889 704.256 Q51.1635 704.076 51.1184 703.94 Q51.0733 703.805 51.0507 703.535 Q51.0282 703.151 50.9155 701.866 Q50.7802 700.581 50.69 699.477 Q50.5999 698.372 50.5999 697.899 Q50.5999 697.628 50.7351 697.493 Q50.8478 697.335 50.9831 697.312 L51.0958 697.312 Z" fill="#000000" fill-rule="evenodd" fill-opacity="1" /><polyline clip-path="url(#clip643)" style="stroke:#009af9; stroke-linecap:round; stroke-linejoin:round; stroke-width:4; stroke-opacity:1; fill:none" points="219.288,112.366 645.981,226.849 1072.67,233.679 1499.37,236.786 1926.06,242.214 2352.76,1361.61 "/>
<polyline clip-path="url(#clip643)" style="stroke:#e26f46; stroke-linecap:round; stroke-linejoin:round; stroke-width:4; stroke-opacity:1; fill:none" points="219.288,86.1857 645.981,234.746 1072.67,239.354 1499.37,240.388 1926.06,244.047 2352.76,1384.24 "/>
<path clip-path="url(#clip640)" d="M290.403 1377.32 L1143.52 1377.32 L1143.52 1221.8 L290.403 1221.8  Z" fill="#ffffff" fill-rule="evenodd" fill-opacity="1"/>
<polyline clip-path="url(#clip640)" style="stroke:#000000; stroke-linecap:round; stroke-linejoin:round; stroke-width:4; stroke-opacity:1; fill:none" points="290.403,1377.32 1143.52,1377.32 1143.52,1221.8 290.403,1221.8 290.403,1377.32 "/>
<polyline clip-path="url(#clip640)" style="stroke:#009af9; stroke-linecap:round; stroke-linejoin:round; stroke-width:4; stroke-opacity:1; fill:none" points="314.108,1273.64 456.34,1273.64 "/>
<path clip-path="url(#clip640)" d="M498.957 1268.92 L498.957 1254.9 L503.216 1254.9 L503.216 1290.92 L498.957 1290.92 L498.957 1287.03 Q497.614 1289.34 495.554 1290.48 Q493.517 1291.59 490.647 1291.59 Q485.948 1291.59 482.985 1287.84 Q480.045 1284.09 480.045 1277.98 Q480.045 1271.86 482.985 1268.11 Q485.948 1264.36 490.647 1264.36 Q493.517 1264.36 495.554 1265.5 Q497.614 1266.61 498.957 1268.92 M484.443 1277.98 Q484.443 1282.67 486.364 1285.36 Q488.309 1288.02 491.688 1288.02 Q495.068 1288.02 497.012 1285.36 Q498.957 1282.67 498.957 1277.98 Q498.957 1273.28 497.012 1270.61 Q495.068 1267.93 491.688 1267.93 Q488.309 1267.93 486.364 1270.61 Q484.443 1273.28 484.443 1277.98 Z" fill="#000000" fill-rule="evenodd" fill-opacity="1" /><path clip-path="url(#clip640)" d="M511.989 1264.99 L516.248 1264.99 L516.248 1290.92 L511.989 1290.92 L511.989 1264.99 M511.989 1254.9 L516.248 1254.9 L516.248 1260.29 L511.989 1260.29 L511.989 1254.9 Z" fill="#000000" fill-rule="evenodd" fill-opacity="1" /><path clip-path="url(#clip640)" d="M541.688 1265.75 L541.688 1269.78 Q539.882 1268.86 537.938 1268.39 Q535.994 1267.93 533.91 1267.93 Q530.739 1267.93 529.142 1268.9 Q527.568 1269.87 527.568 1271.82 Q527.568 1273.3 528.702 1274.16 Q529.836 1274.99 533.262 1275.75 L534.72 1276.08 Q539.257 1277.05 541.156 1278.83 Q543.077 1280.59 543.077 1283.76 Q543.077 1287.37 540.207 1289.48 Q537.359 1291.59 532.359 1291.59 Q530.276 1291.59 528.008 1291.17 Q525.762 1290.78 523.262 1289.97 L523.262 1285.57 Q525.623 1286.79 527.915 1287.42 Q530.207 1288.02 532.452 1288.02 Q535.461 1288.02 537.082 1287 Q538.702 1285.96 538.702 1284.09 Q538.702 1282.35 537.521 1281.42 Q536.364 1280.5 532.406 1279.64 L530.924 1279.3 Q526.966 1278.46 525.207 1276.75 Q523.447 1275.01 523.447 1272 Q523.447 1268.35 526.04 1266.36 Q528.633 1264.36 533.401 1264.36 Q535.762 1264.36 537.845 1264.71 Q539.929 1265.06 541.688 1265.75 Z" fill="#000000" fill-rule="evenodd" fill-opacity="1" /><path clip-path="url(#clip640)" d="M568.517 1265.98 L568.517 1269.97 Q566.711 1268.97 564.882 1268.48 Q563.077 1267.98 561.225 1267.98 Q557.081 1267.98 554.79 1270.61 Q552.498 1273.23 552.498 1277.98 Q552.498 1282.72 554.79 1285.36 Q557.081 1287.98 561.225 1287.98 Q563.077 1287.98 564.882 1287.49 Q566.711 1286.98 568.517 1285.98 L568.517 1289.92 Q566.734 1290.75 564.813 1291.17 Q562.915 1291.59 560.762 1291.59 Q554.906 1291.59 551.456 1287.91 Q548.007 1284.23 548.007 1277.98 Q548.007 1271.63 551.48 1268 Q554.975 1264.36 561.04 1264.36 Q563.007 1264.36 564.882 1264.78 Q566.757 1265.17 568.517 1265.98 Z" fill="#000000" fill-rule="evenodd" fill-opacity="1" /><path clip-path="url(#clip640)" d="M590.947 1268.97 Q590.229 1268.55 589.373 1268.37 Q588.54 1268.16 587.521 1268.16 Q583.91 1268.16 581.966 1270.52 Q580.044 1272.86 580.044 1277.26 L580.044 1290.92 L575.762 1290.92 L575.762 1264.99 L580.044 1264.99 L580.044 1269.02 Q581.387 1266.66 583.54 1265.52 Q585.692 1264.36 588.771 1264.36 Q589.211 1264.36 589.743 1264.43 Q590.276 1264.48 590.924 1264.6 L590.947 1268.97 Z" fill="#000000" fill-rule="evenodd" fill-opacity="1" /><path clip-path="url(#clip640)" d="M616.549 1276.89 L616.549 1278.97 L596.965 1278.97 Q597.243 1283.37 599.604 1285.68 Q601.989 1287.98 606.225 1287.98 Q608.678 1287.98 610.97 1287.37 Q613.285 1286.77 615.553 1285.57 L615.553 1289.6 Q613.262 1290.57 610.854 1291.08 Q608.447 1291.59 605.97 1291.59 Q599.766 1291.59 596.132 1287.98 Q592.521 1284.36 592.521 1278.21 Q592.521 1271.84 595.947 1268.11 Q599.396 1264.36 605.229 1264.36 Q610.461 1264.36 613.493 1267.74 Q616.549 1271.1 616.549 1276.89 M612.289 1275.64 Q612.243 1272.14 610.322 1270.06 Q608.424 1267.98 605.276 1267.98 Q601.711 1267.98 599.558 1269.99 Q597.428 1272 597.104 1275.66 L612.289 1275.64 Z" fill="#000000" fill-rule="evenodd" fill-opacity="1" /><path clip-path="url(#clip640)" d="M627.66 1287.03 L627.66 1300.78 L623.377 1300.78 L623.377 1264.99 L627.66 1264.99 L627.66 1268.92 Q629.002 1266.61 631.039 1265.5 Q633.1 1264.36 635.947 1264.36 Q640.669 1264.36 643.609 1268.11 Q646.572 1271.86 646.572 1277.98 Q646.572 1284.09 643.609 1287.84 Q640.669 1291.59 635.947 1291.59 Q633.1 1291.59 631.039 1290.48 Q629.002 1289.34 627.66 1287.03 M642.15 1277.98 Q642.15 1273.28 640.206 1270.61 Q638.285 1267.93 634.905 1267.93 Q631.525 1267.93 629.581 1270.61 Q627.66 1273.28 627.66 1277.98 Q627.66 1282.67 629.581 1285.36 Q631.525 1288.02 634.905 1288.02 Q638.285 1288.02 640.206 1285.36 Q642.15 1282.67 642.15 1277.98 Z" fill="#000000" fill-rule="evenodd" fill-opacity="1" /><path clip-path="url(#clip640)" d="M665.414 1277.88 Q660.252 1277.88 658.261 1279.06 Q656.271 1280.24 656.271 1283.09 Q656.271 1285.36 657.752 1286.7 Q659.257 1288.02 661.826 1288.02 Q665.368 1288.02 667.498 1285.52 Q669.65 1283 669.65 1278.83 L669.65 1277.88 L665.414 1277.88 M673.91 1276.12 L673.91 1290.92 L669.65 1290.92 L669.65 1286.98 Q668.192 1289.34 666.016 1290.48 Q663.84 1291.59 660.692 1291.59 Q656.711 1291.59 654.349 1289.36 Q652.011 1287.12 652.011 1283.37 Q652.011 1278.99 654.928 1276.77 Q657.868 1274.55 663.678 1274.55 L669.65 1274.55 L669.65 1274.13 Q669.65 1271.19 667.706 1269.6 Q665.785 1267.98 662.289 1267.98 Q660.067 1267.98 657.961 1268.51 Q655.854 1269.04 653.91 1270.11 L653.91 1266.17 Q656.248 1265.27 658.447 1264.83 Q660.646 1264.36 662.729 1264.36 Q668.354 1264.36 671.132 1267.28 Q673.91 1270.2 673.91 1276.12 Z" fill="#000000" fill-rule="evenodd" fill-opacity="1" /><path clip-path="url(#clip640)" d="M704.233 1275.27 L704.233 1290.92 L699.974 1290.92 L699.974 1275.41 Q699.974 1271.73 698.539 1269.9 Q697.104 1268.07 694.233 1268.07 Q690.784 1268.07 688.794 1270.27 Q686.803 1272.47 686.803 1276.26 L686.803 1290.92 L682.521 1290.92 L682.521 1264.99 L686.803 1264.99 L686.803 1269.02 Q688.331 1266.68 690.391 1265.52 Q692.474 1264.36 695.183 1264.36 Q699.65 1264.36 701.942 1267.14 Q704.233 1269.9 704.233 1275.27 Z" fill="#000000" fill-rule="evenodd" fill-opacity="1" /><path clip-path="url(#clip640)" d="M731.386 1265.98 L731.386 1269.97 Q729.581 1268.97 727.752 1268.48 Q725.946 1267.98 724.094 1267.98 Q719.951 1267.98 717.659 1270.61 Q715.368 1273.23 715.368 1277.98 Q715.368 1282.72 717.659 1285.36 Q719.951 1287.98 724.094 1287.98 Q725.946 1287.98 727.752 1287.49 Q729.581 1286.98 731.386 1285.98 L731.386 1289.92 Q729.604 1290.75 727.682 1291.17 Q725.784 1291.59 723.631 1291.59 Q717.775 1291.59 714.326 1287.91 Q710.877 1284.23 710.877 1277.98 Q710.877 1271.63 714.349 1268 Q717.844 1264.36 723.909 1264.36 Q725.877 1264.36 727.752 1264.78 Q729.627 1265.17 731.386 1265.98 Z" fill="#000000" fill-rule="evenodd" fill-opacity="1" /><path clip-path="url(#clip640)" d="M749.58 1293.32 Q747.775 1297.95 746.062 1299.36 Q744.349 1300.78 741.479 1300.78 L738.076 1300.78 L738.076 1297.21 L740.576 1297.21 Q742.335 1297.21 743.307 1296.38 Q744.28 1295.54 745.46 1292.44 L746.224 1290.5 L735.738 1264.99 L740.252 1264.99 L748.354 1285.27 L756.455 1264.99 L760.969 1264.99 L749.58 1293.32 Z" fill="#000000" fill-rule="evenodd" fill-opacity="1" /><path clip-path="url(#clip640)" d="M781.918 1264.99 L786.177 1264.99 L786.177 1290.92 L781.918 1290.92 L781.918 1264.99 M781.918 1254.9 L786.177 1254.9 L786.177 1260.29 L781.918 1260.29 L781.918 1254.9 Z" fill="#000000" fill-rule="evenodd" fill-opacity="1" /><path clip-path="url(#clip640)" d="M816.64 1275.27 L816.64 1290.92 L812.381 1290.92 L812.381 1275.41 Q812.381 1271.73 810.946 1269.9 Q809.511 1268.07 806.64 1268.07 Q803.191 1268.07 801.2 1270.27 Q799.21 1272.47 799.21 1276.26 L799.21 1290.92 L794.927 1290.92 L794.927 1264.99 L799.21 1264.99 L799.21 1269.02 Q800.738 1266.68 802.798 1265.52 Q804.881 1264.36 807.589 1264.36 Q812.057 1264.36 814.349 1267.14 Q816.64 1269.9 816.64 1275.27 Z" fill="#000000" fill-rule="evenodd" fill-opacity="1" /><path clip-path="url(#clip640)" d="M840.205 1264.99 L844.464 1264.99 L844.464 1290.92 L840.205 1290.92 L840.205 1264.99 M840.205 1254.9 L844.464 1254.9 L844.464 1260.29 L840.205 1260.29 L840.205 1254.9 Z" fill="#000000" fill-rule="evenodd" fill-opacity="1" /><path clip-path="url(#clip640)" d="M874.927 1275.27 L874.927 1290.92 L870.668 1290.92 L870.668 1275.41 Q870.668 1271.73 869.233 1269.9 Q867.797 1268.07 864.927 1268.07 Q861.478 1268.07 859.487 1270.27 Q857.496 1272.47 857.496 1276.26 L857.496 1290.92 L853.214 1290.92 L853.214 1264.99 L857.496 1264.99 L857.496 1269.02 Q859.024 1266.68 861.084 1265.52 Q863.168 1264.36 865.876 1264.36 Q870.344 1264.36 872.635 1267.14 Q874.927 1269.9 874.927 1275.27 Z" fill="#000000" fill-rule="evenodd" fill-opacity="1" /><path clip-path="url(#clip640)" d="M883.422 1264.99 L887.682 1264.99 L887.682 1290.92 L883.422 1290.92 L883.422 1264.99 M883.422 1254.9 L887.682 1254.9 L887.682 1260.29 L883.422 1260.29 L883.422 1254.9 Z" fill="#000000" fill-rule="evenodd" fill-opacity="1" /><path clip-path="url(#clip640)" d="M900.806 1257.63 L900.806 1264.99 L909.58 1264.99 L909.58 1268.3 L900.806 1268.3 L900.806 1282.37 Q900.806 1285.54 901.663 1286.45 Q902.543 1287.35 905.205 1287.35 L909.58 1287.35 L909.58 1290.92 L905.205 1290.92 Q900.274 1290.92 898.399 1289.09 Q896.524 1287.23 896.524 1282.37 L896.524 1268.3 L893.399 1268.3 L893.399 1264.99 L896.524 1264.99 L896.524 1257.63 L900.806 1257.63 Z" fill="#000000" fill-rule="evenodd" fill-opacity="1" /><path clip-path="url(#clip640)" d="M915.181 1264.99 L919.441 1264.99 L919.441 1290.92 L915.181 1290.92 L915.181 1264.99 M915.181 1254.9 L919.441 1254.9 L919.441 1260.29 L915.181 1260.29 L915.181 1254.9 Z" fill="#000000" fill-rule="evenodd" fill-opacity="1" /><path clip-path="url(#clip640)" d="M940.135 1277.88 Q934.973 1277.88 932.982 1279.06 Q930.991 1280.24 930.991 1283.09 Q930.991 1285.36 932.473 1286.7 Q933.978 1288.02 936.547 1288.02 Q940.089 1288.02 942.218 1285.52 Q944.371 1283 944.371 1278.83 L944.371 1277.88 L940.135 1277.88 M948.63 1276.12 L948.63 1290.92 L944.371 1290.92 L944.371 1286.98 Q942.913 1289.34 940.737 1290.48 Q938.561 1291.59 935.413 1291.59 Q931.431 1291.59 929.07 1289.36 Q926.732 1287.12 926.732 1283.37 Q926.732 1278.99 929.649 1276.77 Q932.589 1274.55 938.399 1274.55 L944.371 1274.55 L944.371 1274.13 Q944.371 1271.19 942.427 1269.6 Q940.505 1267.98 937.01 1267.98 Q934.788 1267.98 932.681 1268.51 Q930.575 1269.04 928.63 1270.11 L928.63 1266.17 Q930.968 1265.27 933.167 1264.83 Q935.366 1264.36 937.45 1264.36 Q943.075 1264.36 945.852 1267.28 Q948.63 1270.2 948.63 1276.12 Z" fill="#000000" fill-rule="evenodd" fill-opacity="1" /><path clip-path="url(#clip640)" d="M957.403 1254.9 L961.663 1254.9 L961.663 1290.92 L957.403 1290.92 L957.403 1254.9 Z" fill="#000000" fill-rule="evenodd" fill-opacity="1" /><path clip-path="url(#clip640)" d="M970.575 1264.99 L974.834 1264.99 L974.834 1290.92 L970.575 1290.92 L970.575 1264.99 M970.575 1254.9 L974.834 1254.9 L974.834 1260.29 L970.575 1260.29 L970.575 1254.9 Z" fill="#000000" fill-rule="evenodd" fill-opacity="1" /><path clip-path="url(#clip640)" d="M1000.27 1265.75 L1000.27 1269.78 Q998.468 1268.86 996.524 1268.39 Q994.579 1267.93 992.496 1267.93 Q989.324 1267.93 987.727 1268.9 Q986.153 1269.87 986.153 1271.82 Q986.153 1273.3 987.287 1274.16 Q988.422 1274.99 991.848 1275.75 L993.306 1276.08 Q997.843 1277.05 999.741 1278.83 Q1001.66 1280.59 1001.66 1283.76 Q1001.66 1287.37 998.792 1289.48 Q995.945 1291.59 990.945 1291.59 Q988.862 1291.59 986.593 1291.17 Q984.348 1290.78 981.848 1289.97 L981.848 1285.57 Q984.209 1286.79 986.5 1287.42 Q988.792 1288.02 991.037 1288.02 Q994.047 1288.02 995.667 1287 Q997.287 1285.96 997.287 1284.09 Q997.287 1282.35 996.107 1281.42 Q994.949 1280.5 990.991 1279.64 L989.51 1279.3 Q985.551 1278.46 983.792 1276.75 Q982.033 1275.01 982.033 1272 Q982.033 1268.35 984.625 1266.36 Q987.218 1264.36 991.987 1264.36 Q994.348 1264.36 996.431 1264.71 Q998.514 1265.06 1000.27 1265.75 Z" fill="#000000" fill-rule="evenodd" fill-opacity="1" /><path clip-path="url(#clip640)" d="M1020.23 1277.88 Q1015.07 1277.88 1013.07 1279.06 Q1011.08 1280.24 1011.08 1283.09 Q1011.08 1285.36 1012.57 1286.7 Q1014.07 1288.02 1016.64 1288.02 Q1020.18 1288.02 1022.31 1285.52 Q1024.46 1283 1024.46 1278.83 L1024.46 1277.88 L1020.23 1277.88 M1028.72 1276.12 L1028.72 1290.92 L1024.46 1290.92 L1024.46 1286.98 Q1023 1289.34 1020.83 1290.48 Q1018.65 1291.59 1015.5 1291.59 Q1011.52 1291.59 1009.16 1289.36 Q1006.82 1287.12 1006.82 1283.37 Q1006.82 1278.99 1009.74 1276.77 Q1012.68 1274.55 1018.49 1274.55 L1024.46 1274.55 L1024.46 1274.13 Q1024.46 1271.19 1022.52 1269.6 Q1020.6 1267.98 1017.1 1267.98 Q1014.88 1267.98 1012.77 1268.51 Q1010.67 1269.04 1008.72 1270.11 L1008.72 1266.17 Q1011.06 1265.27 1013.26 1264.83 Q1015.46 1264.36 1017.54 1264.36 Q1023.17 1264.36 1025.94 1267.28 Q1028.72 1270.2 1028.72 1276.12 Z" fill="#000000" fill-rule="evenodd" fill-opacity="1" /><path clip-path="url(#clip640)" d="M1041.71 1257.63 L1041.71 1264.99 L1050.48 1264.99 L1050.48 1268.3 L1041.71 1268.3 L1041.71 1282.37 Q1041.71 1285.54 1042.56 1286.45 Q1043.44 1287.35 1046.11 1287.35 L1050.48 1287.35 L1050.48 1290.92 L1046.11 1290.92 Q1041.18 1290.92 1039.3 1289.09 Q1037.43 1287.23 1037.43 1282.37 L1037.43 1268.3 L1034.3 1268.3 L1034.3 1264.99 L1037.43 1264.99 L1037.43 1257.63 L1041.71 1257.63 Z" fill="#000000" fill-rule="evenodd" fill-opacity="1" /><path clip-path="url(#clip640)" d="M1056.08 1264.99 L1060.34 1264.99 L1060.34 1290.92 L1056.08 1290.92 L1056.08 1264.99 M1056.08 1254.9 L1060.34 1254.9 L1060.34 1260.29 L1056.08 1260.29 L1056.08 1254.9 Z" fill="#000000" fill-rule="evenodd" fill-opacity="1" /><path clip-path="url(#clip640)" d="M1079.3 1267.98 Q1075.87 1267.98 1073.88 1270.66 Q1071.89 1273.32 1071.89 1277.98 Q1071.89 1282.63 1073.86 1285.31 Q1075.85 1287.98 1079.3 1287.98 Q1082.7 1287.98 1084.69 1285.29 Q1086.69 1282.61 1086.69 1277.98 Q1086.69 1273.37 1084.69 1270.68 Q1082.7 1267.98 1079.3 1267.98 M1079.3 1264.36 Q1084.86 1264.36 1088.03 1267.98 Q1091.2 1271.59 1091.2 1277.98 Q1091.2 1284.34 1088.03 1287.98 Q1084.86 1291.59 1079.3 1291.59 Q1073.72 1291.59 1070.55 1287.98 Q1067.4 1284.34 1067.4 1277.98 Q1067.4 1271.59 1070.55 1267.98 Q1073.72 1264.36 1079.3 1264.36 Z" fill="#000000" fill-rule="evenodd" fill-opacity="1" /><path clip-path="url(#clip640)" d="M1119.81 1275.27 L1119.81 1290.92 L1115.55 1290.92 L1115.55 1275.41 Q1115.55 1271.73 1114.12 1269.9 Q1112.68 1268.07 1109.81 1268.07 Q1106.36 1268.07 1104.37 1270.27 Q1102.38 1272.47 1102.38 1276.26 L1102.38 1290.92 L1098.1 1290.92 L1098.1 1264.99 L1102.38 1264.99 L1102.38 1269.02 Q1103.91 1266.68 1105.97 1265.52 Q1108.05 1264.36 1110.76 1264.36 Q1115.23 1264.36 1117.52 1267.14 Q1119.81 1269.9 1119.81 1275.27 Z" fill="#000000" fill-rule="evenodd" fill-opacity="1" /><polyline clip-path="url(#clip640)" style="stroke:#e26f46; stroke-linecap:round; stroke-linejoin:round; stroke-width:4; stroke-opacity:1; fill:none" points="314.108,1325.48 456.34,1325.48 "/>
<path clip-path="url(#clip640)" d="M498.957 1320.76 L498.957 1306.74 L503.216 1306.74 L503.216 1342.76 L498.957 1342.76 L498.957 1338.87 Q497.614 1341.18 495.554 1342.32 Q493.517 1343.43 490.647 1343.43 Q485.948 1343.43 482.985 1339.68 Q480.045 1335.93 480.045 1329.82 Q480.045 1323.7 482.985 1319.95 Q485.948 1316.2 490.647 1316.2 Q493.517 1316.2 495.554 1317.34 Q497.614 1318.45 498.957 1320.76 M484.443 1329.82 Q484.443 1334.51 486.364 1337.2 Q488.309 1339.86 491.688 1339.86 Q495.068 1339.86 497.012 1337.2 Q498.957 1334.51 498.957 1329.82 Q498.957 1325.12 497.012 1322.45 Q495.068 1319.77 491.688 1319.77 Q488.309 1319.77 486.364 1322.45 Q484.443 1325.12 484.443 1329.82 Z" fill="#000000" fill-rule="evenodd" fill-opacity="1" /><path clip-path="url(#clip640)" d="M511.989 1316.83 L516.248 1316.83 L516.248 1342.76 L511.989 1342.76 L511.989 1316.83 M511.989 1306.74 L516.248 1306.74 L516.248 1312.13 L511.989 1312.13 L511.989 1306.74 Z" fill="#000000" fill-rule="evenodd" fill-opacity="1" /><path clip-path="url(#clip640)" d="M541.688 1317.59 L541.688 1321.62 Q539.882 1320.7 537.938 1320.23 Q535.994 1319.77 533.91 1319.77 Q530.739 1319.77 529.142 1320.74 Q527.568 1321.71 527.568 1323.66 Q527.568 1325.14 528.702 1326 Q529.836 1326.83 533.262 1327.59 L534.72 1327.92 Q539.257 1328.89 541.156 1330.67 Q543.077 1332.43 543.077 1335.6 Q543.077 1339.21 540.207 1341.32 Q537.359 1343.43 532.359 1343.43 Q530.276 1343.43 528.008 1343.01 Q525.762 1342.62 523.262 1341.81 L523.262 1337.41 Q525.623 1338.63 527.915 1339.26 Q530.207 1339.86 532.452 1339.86 Q535.461 1339.86 537.082 1338.84 Q538.702 1337.8 538.702 1335.93 Q538.702 1334.19 537.521 1333.26 Q536.364 1332.34 532.406 1331.48 L530.924 1331.14 Q526.966 1330.3 525.207 1328.59 Q523.447 1326.85 523.447 1323.84 Q523.447 1320.19 526.04 1318.2 Q528.633 1316.2 533.401 1316.2 Q535.762 1316.2 537.845 1316.55 Q539.929 1316.9 541.688 1317.59 Z" fill="#000000" fill-rule="evenodd" fill-opacity="1" /><path clip-path="url(#clip640)" d="M568.517 1317.82 L568.517 1321.81 Q566.711 1320.81 564.882 1320.32 Q563.077 1319.82 561.225 1319.82 Q557.081 1319.82 554.79 1322.45 Q552.498 1325.07 552.498 1329.82 Q552.498 1334.56 554.79 1337.2 Q557.081 1339.82 561.225 1339.82 Q563.077 1339.82 564.882 1339.33 Q566.711 1338.82 568.517 1337.82 L568.517 1341.76 Q566.734 1342.59 564.813 1343.01 Q562.915 1343.43 560.762 1343.43 Q554.906 1343.43 551.456 1339.75 Q548.007 1336.07 548.007 1329.82 Q548.007 1323.47 551.48 1319.84 Q554.975 1316.2 561.04 1316.2 Q563.007 1316.2 564.882 1316.62 Q566.757 1317.01 568.517 1317.82 Z" fill="#000000" fill-rule="evenodd" fill-opacity="1" /><path clip-path="url(#clip640)" d="M590.947 1320.81 Q590.229 1320.39 589.373 1320.21 Q588.54 1320 587.521 1320 Q583.91 1320 581.966 1322.36 Q580.044 1324.7 580.044 1329.1 L580.044 1342.76 L575.762 1342.76 L575.762 1316.83 L580.044 1316.83 L580.044 1320.86 Q581.387 1318.5 583.54 1317.36 Q585.692 1316.2 588.771 1316.2 Q589.211 1316.2 589.743 1316.27 Q590.276 1316.32 590.924 1316.44 L590.947 1320.81 Z" fill="#000000" fill-rule="evenodd" fill-opacity="1" /><path clip-path="url(#clip640)" d="M616.549 1328.73 L616.549 1330.81 L596.965 1330.81 Q597.243 1335.21 599.604 1337.52 Q601.989 1339.82 606.225 1339.82 Q608.678 1339.82 610.97 1339.21 Q613.285 1338.61 615.553 1337.41 L615.553 1341.44 Q613.262 1342.41 610.854 1342.92 Q608.447 1343.43 605.97 1343.43 Q599.766 1343.43 596.132 1339.82 Q592.521 1336.2 592.521 1330.05 Q592.521 1323.68 595.947 1319.95 Q599.396 1316.2 605.229 1316.2 Q610.461 1316.2 613.493 1319.58 Q616.549 1322.94 616.549 1328.73 M612.289 1327.48 Q612.243 1323.98 610.322 1321.9 Q608.424 1319.82 605.276 1319.82 Q601.711 1319.82 599.558 1321.83 Q597.428 1323.84 597.104 1327.5 L612.289 1327.48 Z" fill="#000000" fill-rule="evenodd" fill-opacity="1" /><path clip-path="url(#clip640)" d="M627.66 1338.87 L627.66 1352.62 L623.377 1352.62 L623.377 1316.83 L627.66 1316.83 L627.66 1320.76 Q629.002 1318.45 631.039 1317.34 Q633.1 1316.2 635.947 1316.2 Q640.669 1316.2 643.609 1319.95 Q646.572 1323.7 646.572 1329.82 Q646.572 1335.93 643.609 1339.68 Q640.669 1343.43 635.947 1343.43 Q633.1 1343.43 631.039 1342.32 Q629.002 1341.18 627.66 1338.87 M642.15 1329.82 Q642.15 1325.12 640.206 1322.45 Q638.285 1319.77 634.905 1319.77 Q631.525 1319.77 629.581 1322.45 Q627.66 1325.12 627.66 1329.82 Q627.66 1334.51 629.581 1337.2 Q631.525 1339.86 634.905 1339.86 Q638.285 1339.86 640.206 1337.2 Q642.15 1334.51 642.15 1329.82 Z" fill="#000000" fill-rule="evenodd" fill-opacity="1" /><path clip-path="url(#clip640)" d="M665.414 1329.72 Q660.252 1329.72 658.261 1330.9 Q656.271 1332.08 656.271 1334.93 Q656.271 1337.2 657.752 1338.54 Q659.257 1339.86 661.826 1339.86 Q665.368 1339.86 667.498 1337.36 Q669.65 1334.84 669.65 1330.67 L669.65 1329.72 L665.414 1329.72 M673.91 1327.96 L673.91 1342.76 L669.65 1342.76 L669.65 1338.82 Q668.192 1341.18 666.016 1342.32 Q663.84 1343.43 660.692 1343.43 Q656.711 1343.43 654.349 1341.2 Q652.011 1338.96 652.011 1335.21 Q652.011 1330.83 654.928 1328.61 Q657.868 1326.39 663.678 1326.39 L669.65 1326.39 L669.65 1325.97 Q669.65 1323.03 667.706 1321.44 Q665.785 1319.82 662.289 1319.82 Q660.067 1319.82 657.961 1320.35 Q655.854 1320.88 653.91 1321.95 L653.91 1318.01 Q656.248 1317.11 658.447 1316.67 Q660.646 1316.2 662.729 1316.2 Q668.354 1316.2 671.132 1319.12 Q673.91 1322.04 673.91 1327.96 Z" fill="#000000" fill-rule="evenodd" fill-opacity="1" /><path clip-path="url(#clip640)" d="M704.233 1327.11 L704.233 1342.76 L699.974 1342.76 L699.974 1327.25 Q699.974 1323.57 698.539 1321.74 Q697.104 1319.91 694.233 1319.91 Q690.784 1319.91 688.794 1322.11 Q686.803 1324.31 686.803 1328.1 L686.803 1342.76 L682.521 1342.76 L682.521 1316.83 L686.803 1316.83 L686.803 1320.86 Q688.331 1318.52 690.391 1317.36 Q692.474 1316.2 695.183 1316.2 Q699.65 1316.2 701.942 1318.98 Q704.233 1321.74 704.233 1327.11 Z" fill="#000000" fill-rule="evenodd" fill-opacity="1" /><path clip-path="url(#clip640)" d="M731.386 1317.82 L731.386 1321.81 Q729.581 1320.81 727.752 1320.32 Q725.946 1319.82 724.094 1319.82 Q719.951 1319.82 717.659 1322.45 Q715.368 1325.07 715.368 1329.82 Q715.368 1334.56 717.659 1337.2 Q719.951 1339.82 724.094 1339.82 Q725.946 1339.82 727.752 1339.33 Q729.581 1338.82 731.386 1337.82 L731.386 1341.76 Q729.604 1342.59 727.682 1343.01 Q725.784 1343.43 723.631 1343.43 Q717.775 1343.43 714.326 1339.75 Q710.877 1336.07 710.877 1329.82 Q710.877 1323.47 714.349 1319.84 Q717.844 1316.2 723.909 1316.2 Q725.877 1316.2 727.752 1316.62 Q729.627 1317.01 731.386 1317.82 Z" fill="#000000" fill-rule="evenodd" fill-opacity="1" /><path clip-path="url(#clip640)" d="M749.58 1345.16 Q747.775 1349.79 746.062 1351.2 Q744.349 1352.62 741.479 1352.62 L738.076 1352.62 L738.076 1349.05 L740.576 1349.05 Q742.335 1349.05 743.307 1348.22 Q744.28 1347.38 745.46 1344.28 L746.224 1342.34 L735.738 1316.83 L740.252 1316.83 L748.354 1337.11 L756.455 1316.83 L760.969 1316.83 L749.58 1345.16 Z" fill="#000000" fill-rule="evenodd" fill-opacity="1" /><path clip-path="url(#clip640)" d="M781.918 1316.83 L786.177 1316.83 L786.177 1342.76 L781.918 1342.76 L781.918 1316.83 M781.918 1306.74 L786.177 1306.74 L786.177 1312.13 L781.918 1312.13 L781.918 1306.74 Z" fill="#000000" fill-rule="evenodd" fill-opacity="1" /><path clip-path="url(#clip640)" d="M816.64 1327.11 L816.64 1342.76 L812.381 1342.76 L812.381 1327.25 Q812.381 1323.57 810.946 1321.74 Q809.511 1319.91 806.64 1319.91 Q803.191 1319.91 801.2 1322.11 Q799.21 1324.31 799.21 1328.1 L799.21 1342.76 L794.927 1342.76 L794.927 1316.83 L799.21 1316.83 L799.21 1320.86 Q800.738 1318.52 802.798 1317.36 Q804.881 1316.2 807.589 1316.2 Q812.057 1316.2 814.349 1318.98 Q816.64 1321.74 816.64 1327.11 Z" fill="#000000" fill-rule="evenodd" fill-opacity="1" /><path clip-path="url(#clip640)" d="M856.733 1317.59 L856.733 1321.62 Q854.927 1320.7 852.983 1320.23 Q851.038 1319.77 848.955 1319.77 Q845.784 1319.77 844.186 1320.74 Q842.612 1321.71 842.612 1323.66 Q842.612 1325.14 843.747 1326 Q844.881 1326.83 848.307 1327.59 L849.765 1327.92 Q854.302 1328.89 856.2 1330.67 Q858.121 1332.43 858.121 1335.6 Q858.121 1339.21 855.251 1341.32 Q852.404 1343.43 847.404 1343.43 Q845.321 1343.43 843.052 1343.01 Q840.807 1342.62 838.307 1341.81 L838.307 1337.41 Q840.668 1338.63 842.96 1339.26 Q845.251 1339.86 847.497 1339.86 Q850.506 1339.86 852.126 1338.84 Q853.747 1337.8 853.747 1335.93 Q853.747 1334.19 852.566 1333.26 Q851.409 1332.34 847.45 1331.48 L845.969 1331.14 Q842.01 1330.3 840.251 1328.59 Q838.492 1326.85 838.492 1323.84 Q838.492 1320.19 841.085 1318.2 Q843.677 1316.2 848.446 1316.2 Q850.807 1316.2 852.89 1316.55 Q854.973 1316.9 856.733 1317.59 Z" fill="#000000" fill-rule="evenodd" fill-opacity="1" /><path clip-path="url(#clip640)" d="M874.95 1319.82 Q871.524 1319.82 869.533 1322.5 Q867.543 1325.16 867.543 1329.82 Q867.543 1334.47 869.51 1337.15 Q871.501 1339.82 874.95 1339.82 Q878.353 1339.82 880.344 1337.13 Q882.334 1334.45 882.334 1329.82 Q882.334 1325.21 880.344 1322.52 Q878.353 1319.82 874.95 1319.82 M874.95 1316.2 Q880.506 1316.2 883.677 1319.82 Q886.848 1323.43 886.848 1329.82 Q886.848 1336.18 883.677 1339.82 Q880.506 1343.43 874.95 1343.43 Q869.371 1343.43 866.2 1339.82 Q863.052 1336.18 863.052 1329.82 Q863.052 1323.43 866.2 1319.82 Q869.371 1316.2 874.95 1316.2 Z" fill="#000000" fill-rule="evenodd" fill-opacity="1" /><path clip-path="url(#clip640)" d="M893.908 1306.74 L898.168 1306.74 L898.168 1342.76 L893.908 1342.76 L893.908 1306.74 Z" fill="#000000" fill-rule="evenodd" fill-opacity="1" /><path clip-path="url(#clip640)" d="M906.64 1332.52 L906.64 1316.83 L910.899 1316.83 L910.899 1332.36 Q910.899 1336.04 912.334 1337.89 Q913.769 1339.72 916.64 1339.72 Q920.089 1339.72 922.079 1337.52 Q924.093 1335.32 924.093 1331.53 L924.093 1316.83 L928.353 1316.83 L928.353 1342.76 L924.093 1342.76 L924.093 1338.77 Q922.542 1341.13 920.482 1342.29 Q918.445 1343.43 915.737 1343.43 Q911.269 1343.43 908.955 1340.65 Q906.64 1337.87 906.64 1332.52 M917.357 1316.2 L917.357 1316.2 Z" fill="#000000" fill-rule="evenodd" fill-opacity="1" /><path clip-path="url(#clip640)" d="M941.339 1309.47 L941.339 1316.83 L950.112 1316.83 L950.112 1320.14 L941.339 1320.14 L941.339 1334.21 Q941.339 1337.38 942.195 1338.29 Q943.075 1339.19 945.737 1339.19 L950.112 1339.19 L950.112 1342.76 L945.737 1342.76 Q940.806 1342.76 938.931 1340.93 Q937.056 1339.07 937.056 1334.21 L937.056 1320.14 L933.931 1320.14 L933.931 1316.83 L937.056 1316.83 L937.056 1309.47 L941.339 1309.47 Z" fill="#000000" fill-rule="evenodd" fill-opacity="1" /><path clip-path="url(#clip640)" d="M955.714 1316.83 L959.973 1316.83 L959.973 1342.76 L955.714 1342.76 L955.714 1316.83 M955.714 1306.74 L959.973 1306.74 L959.973 1312.13 L955.714 1312.13 L955.714 1306.74 Z" fill="#000000" fill-rule="evenodd" fill-opacity="1" /><path clip-path="url(#clip640)" d="M978.931 1319.82 Q975.505 1319.82 973.514 1322.5 Q971.524 1325.16 971.524 1329.82 Q971.524 1334.47 973.491 1337.15 Q975.482 1339.82 978.931 1339.82 Q982.334 1339.82 984.325 1337.13 Q986.315 1334.45 986.315 1329.82 Q986.315 1325.21 984.325 1322.52 Q982.334 1319.82 978.931 1319.82 M978.931 1316.2 Q984.487 1316.2 987.658 1319.82 Q990.829 1323.43 990.829 1329.82 Q990.829 1336.18 987.658 1339.82 Q984.487 1343.43 978.931 1343.43 Q973.352 1343.43 970.181 1339.82 Q967.033 1336.18 967.033 1329.82 Q967.033 1323.43 970.181 1319.82 Q973.352 1316.2 978.931 1316.2 Z" fill="#000000" fill-rule="evenodd" fill-opacity="1" /><path clip-path="url(#clip640)" d="M1019.44 1327.11 L1019.44 1342.76 L1015.18 1342.76 L1015.18 1327.25 Q1015.18 1323.57 1013.75 1321.74 Q1012.31 1319.91 1009.44 1319.91 Q1005.99 1319.91 1004 1322.11 Q1002.01 1324.31 1002.01 1328.1 L1002.01 1342.76 L997.727 1342.76 L997.727 1316.83 L1002.01 1316.83 L1002.01 1320.86 Q1003.54 1318.52 1005.6 1317.36 Q1007.68 1316.2 1010.39 1316.2 Q1014.86 1316.2 1017.15 1318.98 Q1019.44 1321.74 1019.44 1327.11 Z" fill="#000000" fill-rule="evenodd" fill-opacity="1" /><path clip-path="url(#clip640)" d="M1044.46 1317.59 L1044.46 1321.62 Q1042.66 1320.7 1040.71 1320.23 Q1038.77 1319.77 1036.69 1319.77 Q1033.51 1319.77 1031.92 1320.74 Q1030.34 1321.71 1030.34 1323.66 Q1030.34 1325.14 1031.48 1326 Q1032.61 1326.83 1036.04 1327.59 L1037.5 1327.92 Q1042.03 1328.89 1043.93 1330.67 Q1045.85 1332.43 1045.85 1335.6 Q1045.85 1339.21 1042.98 1341.32 Q1040.13 1343.43 1035.13 1343.43 Q1033.05 1343.43 1030.78 1343.01 Q1028.54 1342.62 1026.04 1341.81 L1026.04 1337.41 Q1028.4 1338.63 1030.69 1339.26 Q1032.98 1339.86 1035.23 1339.86 Q1038.24 1339.86 1039.86 1338.84 Q1041.48 1337.8 1041.48 1335.93 Q1041.48 1334.19 1040.3 1333.26 Q1039.14 1332.34 1035.18 1331.48 L1033.7 1331.14 Q1029.74 1330.3 1027.98 1328.59 Q1026.22 1326.85 1026.22 1323.84 Q1026.22 1320.19 1028.82 1318.2 Q1031.41 1316.2 1036.18 1316.2 Q1038.54 1316.2 1040.62 1316.55 Q1042.7 1316.9 1044.46 1317.59 Z" fill="#000000" fill-rule="evenodd" fill-opacity="1" /></svg>
