<?xml version="1.0" encoding="utf-8"?>
<svg xmlns="http://www.w3.org/2000/svg" xmlns:xlink="http://www.w3.org/1999/xlink" width="600" height="400" viewBox="0 0 2400 1600">
<defs>
  <clipPath id="clip680">
    <rect x="0" y="0" width="2400" height="1600"/>
  </clipPath>
</defs>
<path clip-path="url(#clip680)" d="M0 1600 L2400 1600 L2400 0 L0 0  Z" fill="#ffffff" fill-rule="evenodd" fill-opacity="1"/>
<defs>
  <clipPath id="clip681">
    <rect x="480" y="0" width="1681" height="1600"/>
  </clipPath>
</defs>
<defs>
  <clipPath id="clip682">
    <rect x="219" y="47" width="2134" height="1377"/>
  </clipPath>
</defs>
<path clip-path="url(#clip680)" d="M313.626 1423.18 L2352.76 1423.18 L2352.76 47.2441 L313.626 47.2441  Z" fill="#ffffff" fill-rule="evenodd" fill-opacity="1"/>
<defs>
  <clipPath id="clip683">
    <rect x="313" y="47" width="2040" height="1377"/>
  </clipPath>
</defs>
<polyline clip-path="url(#clip683)" style="stroke:#000000; stroke-linecap:round; stroke-linejoin:round; stroke-width:2; stroke-opacity:0.1; fill:none" points="313.626,1423.18 313.626,47.2441 "/>
<polyline clip-path="url(#clip683)" style="stroke:#000000; stroke-linecap:round; stroke-linejoin:round; stroke-width:2; stroke-opacity:0.1; fill:none" points="721.452,1423.18 721.452,47.2441 "/>
<polyline clip-path="url(#clip683)" style="stroke:#000000; stroke-linecap:round; stroke-linejoin:round; stroke-width:2; stroke-opacity:0.1; fill:none" points="1129.28,1423.18 1129.28,47.2441 "/>
<polyline clip-path="url(#clip683)" style="stroke:#000000; stroke-linecap:round; stroke-linejoin:round; stroke-width:2; stroke-opacity:0.1; fill:none" points="1537.1,1423.18 1537.1,47.2441 "/>
<polyline clip-path="url(#clip683)" style="stroke:#000000; stroke-linecap:round; stroke-linejoin:round; stroke-width:2; stroke-opacity:0.1; fill:none" points="1944.93,1423.18 1944.93,47.2441 "/>
<polyline clip-path="url(#clip683)" style="stroke:#000000; stroke-linecap:round; stroke-linejoin:round; stroke-width:2; stroke-opacity:0.1; fill:none" points="2352.76,1423.18 2352.76,47.2441 "/>
<polyline clip-path="url(#clip680)" style="stroke:#000000; stroke-linecap:round; stroke-linejoin:round; stroke-width:4; stroke-opacity:1; fill:none" points="313.626,1423.18 2352.76,1423.18 "/>
<polyline clip-path="url(#clip680)" style="stroke:#000000; stroke-linecap:round; stroke-linejoin:round; stroke-width:4; stroke-opacity:1; fill:none" points="313.626,1423.18 313.626,1404.28 "/>
<polyline clip-path="url(#clip680)" style="stroke:#000000; stroke-linecap:round; stroke-linejoin:round; stroke-width:4; stroke-opacity:1; fill:none" points="721.452,1423.18 721.452,1404.28 "/>
<polyline clip-path="url(#clip680)" style="stroke:#000000; stroke-linecap:round; stroke-linejoin:round; stroke-width:4; stroke-opacity:1; fill:none" points="1129.28,1423.18 1129.28,1404.28 "/>
<polyline clip-path="url(#clip680)" style="stroke:#000000; stroke-linecap:round; stroke-linejoin:round; stroke-width:4; stroke-opacity:1; fill:none" points="1537.1,1423.18 1537.1,1404.28 "/>
<polyline clip-path="url(#clip680)" style="stroke:#000000; stroke-linecap:round; stroke-linejoin:round; stroke-width:4; stroke-opacity:1; fill:none" points="1944.93,1423.18 1944.93,1404.28 "/>
<polyline clip-path="url(#clip680)" style="stroke:#000000; stroke-linecap:round; stroke-linejoin:round; stroke-width:4; stroke-opacity:1; fill:none" points="2352.76,1423.18 2352.76,1404.28 "/>
<path clip-path="url(#clip680)" d="M304.008 1481.64 L311.647 1481.64 L311.647 1455.28 L303.337 1456.95 L303.337 1452.69 L311.6 1451.02 L316.276 1451.02 L316.276 1481.64 L323.915 1481.64 L323.915 1485.58 L304.008 1485.58 L304.008 1481.64 Z" fill="#000000" fill-rule="evenodd" fill-opacity="1" /><path clip-path="url(#clip680)" d="M716.105 1481.64 L732.424 1481.64 L732.424 1485.58 L710.48 1485.58 L710.48 1481.64 Q713.142 1478.89 717.725 1474.26 Q722.332 1469.61 723.512 1468.27 Q725.757 1465.74 726.637 1464.01 Q727.54 1462.25 727.54 1460.56 Q727.54 1457.8 725.595 1456.07 Q723.674 1454.33 720.572 1454.33 Q718.373 1454.33 715.92 1455.09 Q713.489 1455.86 710.711 1457.41 L710.711 1452.69 Q713.535 1451.55 715.989 1450.97 Q718.443 1450.39 720.48 1450.39 Q725.85 1450.39 729.044 1453.08 Q732.239 1455.77 732.239 1460.26 Q732.239 1462.39 731.429 1464.31 Q730.642 1466.2 728.535 1468.8 Q727.956 1469.47 724.855 1472.69 Q721.753 1475.88 716.105 1481.64 Z" fill="#000000" fill-rule="evenodd" fill-opacity="1" /><path clip-path="url(#clip680)" d="M1133.53 1466.95 Q1136.88 1467.66 1138.76 1469.93 Q1140.66 1472.2 1140.66 1475.53 Q1140.66 1480.65 1137.14 1483.45 Q1133.62 1486.25 1127.14 1486.25 Q1124.96 1486.25 1122.65 1485.81 Q1120.35 1485.39 1117.9 1484.54 L1117.9 1480.02 Q1119.85 1481.16 1122.16 1481.74 Q1124.47 1482.32 1127 1482.32 Q1131.4 1482.32 1133.69 1480.58 Q1136 1478.84 1136 1475.53 Q1136 1472.48 1133.85 1470.77 Q1131.72 1469.03 1127.9 1469.03 L1123.87 1469.03 L1123.87 1465.19 L1128.09 1465.19 Q1131.53 1465.19 1133.36 1463.82 Q1135.19 1462.43 1135.19 1459.84 Q1135.19 1457.18 1133.29 1455.77 Q1131.42 1454.33 1127.9 1454.33 Q1125.98 1454.33 1123.78 1454.75 Q1121.58 1455.16 1118.94 1456.04 L1118.94 1451.88 Q1121.6 1451.14 1123.92 1450.77 Q1126.26 1450.39 1128.32 1450.39 Q1133.64 1450.39 1136.74 1452.83 Q1139.84 1455.23 1139.84 1459.35 Q1139.84 1462.22 1138.2 1464.21 Q1136.56 1466.18 1133.53 1466.95 Z" fill="#000000" fill-rule="evenodd" fill-opacity="1" /><path clip-path="url(#clip680)" d="M1540.11 1455.09 L1528.31 1473.54 L1540.11 1473.54 L1540.11 1455.09 M1538.89 1451.02 L1544.77 1451.02 L1544.77 1473.54 L1549.7 1473.54 L1549.7 1477.43 L1544.77 1477.43 L1544.77 1485.58 L1540.11 1485.58 L1540.11 1477.43 L1524.51 1477.43 L1524.51 1472.92 L1538.89 1451.02 Z" fill="#000000" fill-rule="evenodd" fill-opacity="1" /><path clip-path="url(#clip680)" d="M1935.21 1451.02 L1953.56 1451.02 L1953.56 1454.96 L1939.49 1454.96 L1939.49 1463.43 Q1940.51 1463.08 1941.53 1462.92 Q1942.55 1462.73 1943.56 1462.73 Q1949.35 1462.73 1952.73 1465.9 Q1956.11 1469.08 1956.11 1474.49 Q1956.11 1480.07 1952.64 1483.17 Q1949.17 1486.25 1942.85 1486.25 Q1940.67 1486.25 1938.4 1485.88 Q1936.16 1485.51 1933.75 1484.77 L1933.75 1480.07 Q1935.83 1481.2 1938.05 1481.76 Q1940.28 1482.32 1942.75 1482.32 Q1946.76 1482.32 1949.1 1480.21 Q1951.43 1478.1 1951.43 1474.49 Q1951.43 1470.88 1949.1 1468.77 Q1946.76 1466.67 1942.75 1466.67 Q1940.88 1466.67 1939 1467.08 Q1937.15 1467.5 1935.21 1468.38 L1935.21 1451.02 Z" fill="#000000" fill-rule="evenodd" fill-opacity="1" /><path clip-path="url(#clip680)" d="M2353.16 1466.44 Q2350.01 1466.44 2348.16 1468.59 Q2346.33 1470.74 2346.33 1474.49 Q2346.33 1478.22 2348.16 1480.39 Q2350.01 1482.55 2353.16 1482.55 Q2356.31 1482.55 2358.14 1480.39 Q2359.99 1478.22 2359.99 1474.49 Q2359.99 1470.74 2358.14 1468.59 Q2356.31 1466.44 2353.16 1466.44 M2362.44 1451.78 L2362.44 1456.04 Q2360.68 1455.21 2358.88 1454.77 Q2357.1 1454.33 2355.34 1454.33 Q2350.71 1454.33 2348.25 1457.45 Q2345.82 1460.58 2345.48 1466.9 Q2346.84 1464.89 2348.9 1463.82 Q2350.96 1462.73 2353.44 1462.73 Q2358.65 1462.73 2361.66 1465.9 Q2364.69 1469.05 2364.69 1474.49 Q2364.69 1479.82 2361.54 1483.03 Q2358.39 1486.25 2353.16 1486.25 Q2347.17 1486.25 2343.99 1481.67 Q2340.82 1477.06 2340.82 1468.33 Q2340.82 1460.14 2344.71 1455.28 Q2348.6 1450.39 2355.15 1450.39 Q2356.91 1450.39 2358.69 1450.74 Q2360.5 1451.09 2362.44 1451.78 Z" fill="#000000" fill-rule="evenodd" fill-opacity="1" /><path clip-path="url(#clip680)" d="M1034.94 1550.12 Q1027.84 1550.12 1025.11 1551.75 Q1022.37 1553.37 1022.37 1557.29 Q1022.37 1560.4 1024.41 1562.25 Q1026.48 1564.07 1030.01 1564.07 Q1034.88 1564.07 1037.81 1560.63 Q1040.77 1557.16 1040.77 1551.43 L1040.77 1550.12 L1034.94 1550.12 M1046.62 1547.71 L1046.62 1568.04 L1040.77 1568.04 L1040.77 1562.63 Q1038.76 1565.88 1035.77 1567.44 Q1032.78 1568.97 1028.45 1568.97 Q1022.97 1568.97 1019.73 1565.91 Q1016.51 1562.82 1016.51 1557.67 Q1016.51 1551.65 1020.52 1548.6 Q1024.57 1545.54 1032.55 1545.54 L1040.77 1545.54 L1040.77 1544.97 Q1040.77 1540.93 1038.09 1538.73 Q1035.45 1536.5 1030.64 1536.5 Q1027.59 1536.5 1024.69 1537.23 Q1021.8 1537.97 1019.12 1539.43 L1019.12 1534.02 Q1022.34 1532.78 1025.36 1532.17 Q1028.38 1531.54 1031.25 1531.54 Q1038.98 1531.54 1042.8 1535.55 Q1046.62 1539.56 1046.62 1547.71 Z" fill="#000000" fill-rule="evenodd" fill-opacity="1" /><path clip-path="url(#clip680)" d="M1064.35 1562.7 L1064.35 1581.6 L1058.46 1581.6 L1058.46 1532.4 L1064.35 1532.4 L1064.35 1537.81 Q1066.2 1534.62 1069 1533.1 Q1071.83 1531.54 1075.75 1531.54 Q1082.24 1531.54 1086.28 1536.69 Q1090.36 1541.85 1090.36 1550.25 Q1090.36 1558.65 1086.28 1563.81 Q1082.24 1568.97 1075.75 1568.97 Q1071.83 1568.97 1069 1567.44 Q1066.2 1565.88 1064.35 1562.7 M1084.28 1550.25 Q1084.28 1543.79 1081.6 1540.13 Q1078.96 1536.44 1074.31 1536.44 Q1069.67 1536.44 1066.99 1540.13 Q1064.35 1543.79 1064.35 1550.25 Q1064.35 1556.71 1066.99 1560.4 Q1069.67 1564.07 1074.31 1564.07 Q1078.96 1564.07 1081.6 1560.4 Q1084.28 1556.71 1084.28 1550.25 Z" fill="#000000" fill-rule="evenodd" fill-opacity="1" /><path clip-path="url(#clip680)" d="M1105.73 1562.7 L1105.73 1581.6 L1099.84 1581.6 L1099.84 1532.4 L1105.73 1532.4 L1105.73 1537.81 Q1107.57 1534.62 1110.38 1533.1 Q1113.21 1531.54 1117.12 1531.54 Q1123.62 1531.54 1127.66 1536.69 Q1131.73 1541.85 1131.73 1550.25 Q1131.73 1558.65 1127.66 1563.81 Q1123.62 1568.97 1117.12 1568.97 Q1113.21 1568.97 1110.38 1567.44 Q1107.57 1565.88 1105.73 1562.7 M1125.65 1550.25 Q1125.65 1543.79 1122.98 1540.13 Q1120.34 1536.44 1115.69 1536.44 Q1111.04 1536.44 1108.37 1540.13 Q1105.73 1543.79 1105.73 1550.25 Q1105.73 1556.71 1108.37 1560.4 Q1111.04 1564.07 1115.69 1564.07 Q1120.34 1564.07 1122.98 1560.4 Q1125.65 1556.71 1125.65 1550.25 Z" fill="#000000" fill-rule="evenodd" fill-opacity="1" /><path clip-path="url(#clip680)" d="M1162.1 1537.87 Q1161.11 1537.3 1159.93 1537.04 Q1158.79 1536.76 1157.39 1536.76 Q1152.42 1536.76 1149.75 1540 Q1147.11 1543.22 1147.11 1549.27 L1147.11 1568.04 L1141.22 1568.04 L1141.22 1532.4 L1147.11 1532.4 L1147.11 1537.93 Q1148.95 1534.69 1151.91 1533.13 Q1154.87 1531.54 1159.1 1531.54 Q1159.71 1531.54 1160.44 1531.63 Q1161.17 1531.7 1162.06 1531.85 L1162.1 1537.87 Z" fill="#000000" fill-rule="evenodd" fill-opacity="1" /><path clip-path="url(#clip680)" d="M1180.62 1536.5 Q1175.91 1536.5 1173.17 1540.19 Q1170.44 1543.85 1170.44 1550.25 Q1170.44 1556.65 1173.14 1560.34 Q1175.88 1564 1180.62 1564 Q1185.3 1564 1188.04 1560.31 Q1190.77 1556.62 1190.77 1550.25 Q1190.77 1543.92 1188.04 1540.23 Q1185.3 1536.5 1180.62 1536.5 M1180.62 1531.54 Q1188.26 1531.54 1192.62 1536.5 Q1196.98 1541.47 1196.98 1550.25 Q1196.98 1559 1192.62 1564 Q1188.26 1568.97 1180.62 1568.97 Q1172.95 1568.97 1168.59 1564 Q1164.26 1559 1164.26 1550.25 Q1164.26 1541.47 1168.59 1536.5 Q1172.95 1531.54 1180.62 1531.54 Z" fill="#000000" fill-rule="evenodd" fill-opacity="1" /><path clip-path="url(#clip680)" d="M1234.32 1532.4 L1221.43 1549.74 L1234.98 1568.04 L1228.08 1568.04 L1217.7 1554.04 L1207.32 1568.04 L1200.42 1568.04 L1214.26 1549.39 L1201.6 1532.4 L1208.5 1532.4 L1217.96 1545.1 L1227.41 1532.4 L1234.32 1532.4 Z" fill="#000000" fill-rule="evenodd" fill-opacity="1" /><path clip-path="url(#clip680)" d="M1243.26 1532.4 L1249.12 1532.4 L1249.12 1568.04 L1243.26 1568.04 L1243.26 1532.4 M1243.26 1518.52 L1249.12 1518.52 L1249.12 1525.93 L1243.26 1525.93 L1243.26 1518.52 Z" fill="#000000" fill-rule="evenodd" fill-opacity="1" /><path clip-path="url(#clip680)" d="M1289.12 1539.24 Q1291.32 1535.29 1294.38 1533.41 Q1297.43 1531.54 1301.57 1531.54 Q1307.14 1531.54 1310.16 1535.45 Q1313.19 1539.33 1313.19 1546.53 L1313.19 1568.04 L1307.3 1568.04 L1307.3 1546.72 Q1307.3 1541.59 1305.48 1539.11 Q1303.67 1536.63 1299.95 1536.63 Q1295.39 1536.63 1292.75 1539.65 Q1290.11 1542.68 1290.11 1547.9 L1290.11 1568.04 L1284.22 1568.04 L1284.22 1546.72 Q1284.22 1541.56 1282.41 1539.11 Q1280.59 1536.63 1276.81 1536.63 Q1272.32 1536.63 1269.68 1539.68 Q1267.04 1542.71 1267.04 1547.9 L1267.04 1568.04 L1261.15 1568.04 L1261.15 1532.4 L1267.04 1532.4 L1267.04 1537.93 Q1269.04 1534.66 1271.84 1533.1 Q1274.64 1531.54 1278.49 1531.54 Q1282.38 1531.54 1285.08 1533.51 Q1287.82 1535.48 1289.12 1539.24 Z" fill="#000000" fill-rule="evenodd" fill-opacity="1" /><path clip-path="url(#clip680)" d="M1341.07 1550.12 Q1333.97 1550.12 1331.23 1551.75 Q1328.5 1553.37 1328.5 1557.29 Q1328.5 1560.4 1330.53 1562.25 Q1332.6 1564.07 1336.14 1564.07 Q1341 1564.07 1343.93 1560.63 Q1346.89 1557.16 1346.89 1551.43 L1346.89 1550.12 L1341.07 1550.12 M1352.75 1547.71 L1352.75 1568.04 L1346.89 1568.04 L1346.89 1562.63 Q1344.89 1565.88 1341.9 1567.44 Q1338.9 1568.97 1334.58 1568.97 Q1329.1 1568.97 1325.85 1565.91 Q1322.64 1562.82 1322.64 1557.67 Q1322.64 1551.65 1326.65 1548.6 Q1330.69 1545.54 1338.68 1545.54 L1346.89 1545.54 L1346.89 1544.97 Q1346.89 1540.93 1344.22 1538.73 Q1341.58 1536.5 1336.77 1536.5 Q1333.72 1536.5 1330.82 1537.23 Q1327.92 1537.97 1325.25 1539.43 L1325.25 1534.02 Q1328.46 1532.78 1331.49 1532.17 Q1334.51 1531.54 1337.38 1531.54 Q1345.11 1531.54 1348.93 1535.55 Q1352.75 1539.56 1352.75 1547.71 Z" fill="#000000" fill-rule="evenodd" fill-opacity="1" /><path clip-path="url(#clip680)" d="M1370.61 1522.27 L1370.61 1532.4 L1382.67 1532.4 L1382.67 1536.95 L1370.61 1536.95 L1370.61 1556.3 Q1370.61 1560.66 1371.78 1561.9 Q1372.99 1563.14 1376.65 1563.14 L1382.67 1563.14 L1382.67 1568.04 L1376.65 1568.04 Q1369.87 1568.04 1367.3 1565.53 Q1364.72 1562.98 1364.72 1556.3 L1364.72 1536.95 L1360.42 1536.95 L1360.42 1532.4 L1364.72 1532.4 L1364.72 1522.27 L1370.61 1522.27 Z" fill="#000000" fill-rule="evenodd" fill-opacity="1" /><path clip-path="url(#clip680)" d="M1390.37 1532.4 L1396.23 1532.4 L1396.23 1568.04 L1390.37 1568.04 L1390.37 1532.4 M1390.37 1518.52 L1396.23 1518.52 L1396.23 1525.93 L1390.37 1525.93 L1390.37 1518.52 Z" fill="#000000" fill-rule="evenodd" fill-opacity="1" /><path clip-path="url(#clip680)" d="M1422.29 1536.5 Q1417.58 1536.5 1414.85 1540.19 Q1412.11 1543.85 1412.11 1550.25 Q1412.11 1556.65 1414.82 1560.34 Q1417.55 1564 1422.29 1564 Q1426.97 1564 1429.71 1560.31 Q1432.45 1556.62 1432.45 1550.25 Q1432.45 1543.92 1429.71 1540.23 Q1426.97 1536.5 1422.29 1536.5 M1422.29 1531.54 Q1429.93 1531.54 1434.29 1536.5 Q1438.65 1541.47 1438.65 1550.25 Q1438.65 1559 1434.29 1564 Q1429.93 1568.97 1422.29 1568.97 Q1414.62 1568.97 1410.26 1564 Q1405.94 1559 1405.94 1550.25 Q1405.94 1541.47 1410.26 1536.5 Q1414.62 1531.54 1422.29 1531.54 Z" fill="#000000" fill-rule="evenodd" fill-opacity="1" /><path clip-path="url(#clip680)" d="M1477.99 1546.53 L1477.99 1568.04 L1472.14 1568.04 L1472.14 1546.72 Q1472.14 1541.66 1470.16 1539.14 Q1468.19 1536.63 1464.24 1536.63 Q1459.5 1536.63 1456.77 1539.65 Q1454.03 1542.68 1454.03 1547.9 L1454.03 1568.04 L1448.14 1568.04 L1448.14 1532.4 L1454.03 1532.4 L1454.03 1537.93 Q1456.13 1534.72 1458.96 1533.13 Q1461.83 1531.54 1465.55 1531.54 Q1471.69 1531.54 1474.84 1535.36 Q1477.99 1539.14 1477.99 1546.53 Z" fill="#000000" fill-rule="evenodd" fill-opacity="1" /><path clip-path="url(#clip680)" d="M1531.05 1537.87 Q1530.07 1537.3 1528.89 1537.04 Q1527.74 1536.76 1526.34 1536.76 Q1521.38 1536.76 1518.7 1540 Q1516.06 1543.22 1516.06 1549.27 L1516.06 1568.04 L1510.17 1568.04 L1510.17 1532.4 L1516.06 1532.4 L1516.06 1537.93 Q1517.91 1534.69 1520.87 1533.13 Q1523.83 1531.54 1528.06 1531.54 Q1528.67 1531.54 1529.4 1531.63 Q1530.13 1531.7 1531.02 1531.85 L1531.05 1537.87 Z" fill="#000000" fill-rule="evenodd" fill-opacity="1" /><path clip-path="url(#clip680)" d="M1553.4 1550.12 Q1546.3 1550.12 1543.56 1551.75 Q1540.82 1553.37 1540.82 1557.29 Q1540.82 1560.4 1542.86 1562.25 Q1544.93 1564.07 1548.46 1564.07 Q1553.33 1564.07 1556.26 1560.63 Q1559.22 1557.16 1559.22 1551.43 L1559.22 1550.12 L1553.4 1550.12 M1565.08 1547.71 L1565.08 1568.04 L1559.22 1568.04 L1559.22 1562.63 Q1557.22 1565.88 1554.22 1567.44 Q1551.23 1568.97 1546.9 1568.97 Q1541.43 1568.97 1538.18 1565.91 Q1534.97 1562.82 1534.97 1557.67 Q1534.97 1551.65 1538.98 1548.6 Q1543.02 1545.54 1551.01 1545.54 L1559.22 1545.54 L1559.22 1544.97 Q1559.22 1540.93 1556.55 1538.73 Q1553.91 1536.5 1549.1 1536.5 Q1546.04 1536.5 1543.15 1537.23 Q1540.25 1537.97 1537.58 1539.43 L1537.58 1534.02 Q1540.79 1532.78 1543.82 1532.17 Q1546.84 1531.54 1549.7 1531.54 Q1557.44 1531.54 1561.26 1535.55 Q1565.08 1539.56 1565.08 1547.71 Z" fill="#000000" fill-rule="evenodd" fill-opacity="1" /><path clip-path="url(#clip680)" d="M1606.77 1546.53 L1606.77 1568.04 L1600.92 1568.04 L1600.92 1546.72 Q1600.92 1541.66 1598.94 1539.14 Q1596.97 1536.63 1593.02 1536.63 Q1588.28 1536.63 1585.54 1539.65 Q1582.81 1542.68 1582.81 1547.9 L1582.81 1568.04 L1576.92 1568.04 L1576.92 1532.4 L1582.81 1532.4 L1582.81 1537.93 Q1584.91 1534.72 1587.74 1533.13 Q1590.6 1531.54 1594.33 1531.54 Q1600.47 1531.54 1603.62 1535.36 Q1606.77 1539.14 1606.77 1546.53 Z" fill="#000000" fill-rule="evenodd" fill-opacity="1" /><path clip-path="url(#clip680)" d="M1618.23 1518.52 L1624.12 1518.52 L1624.12 1547.77 L1641.59 1532.4 L1649.07 1532.4 L1630.17 1549.07 L1649.87 1568.04 L1642.23 1568.04 L1624.12 1550.63 L1624.12 1568.04 L1618.23 1568.04 L1618.23 1518.52 Z" fill="#000000" fill-rule="evenodd" fill-opacity="1" /><polyline clip-path="url(#clip683)" style="stroke:#000000; stroke-linecap:round; stroke-linejoin:round; stroke-width:2; stroke-opacity:0.1; fill:none" points="313.626,1384.29 2352.76,1384.29 "/>
<polyline clip-path="url(#clip683)" style="stroke:#000000; stroke-linecap:round; stroke-linejoin:round; stroke-width:2; stroke-opacity:0.1; fill:none" points="313.626,1092.67 2352.76,1092.67 "/>
<polyline clip-path="url(#clip683)" style="stroke:#000000; stroke-linecap:round; stroke-linejoin:round; stroke-width:2; stroke-opacity:0.1; fill:none" points="313.626,801.05 2352.76,801.05 "/>
<polyline clip-path="url(#clip683)" style="stroke:#000000; stroke-linecap:round; stroke-linejoin:round; stroke-width:2; stroke-opacity:0.1; fill:none" points="313.626,509.431 2352.76,509.431 "/>
<polyline clip-path="url(#clip683)" style="stroke:#000000; stroke-linecap:round; stroke-linejoin:round; stroke-width:2; stroke-opacity:0.1; fill:none" points="313.626,217.813 2352.76,217.813 "/>
<polyline clip-path="url(#clip680)" style="stroke:#000000; stroke-linecap:round; stroke-linejoin:round; stroke-width:4; stroke-opacity:1; fill:none" points="313.626,1423.18 313.626,47.2441 "/>
<polyline clip-path="url(#clip680)" style="stroke:#000000; stroke-linecap:round; stroke-linejoin:round; stroke-width:4; stroke-opacity:1; fill:none" points="313.626,1384.29 332.524,1384.29 "/>
<polyline clip-path="url(#clip680)" style="stroke:#000000; stroke-linecap:round; stroke-linejoin:round; stroke-width:4; stroke-opacity:1; fill:none" points="313.626,1092.67 332.524,1092.67 "/>
<polyline clip-path="url(#clip680)" style="stroke:#000000; stroke-linecap:round; stroke-linejoin:round; stroke-width:4; stroke-opacity:1; fill:none" points="313.626,801.05 332.524,801.05 "/>
<polyline clip-path="url(#clip680)" style="stroke:#000000; stroke-linecap:round; stroke-linejoin:round; stroke-width:4; stroke-opacity:1; fill:none" points="313.626,509.431 332.524,509.431 "/>
<polyline clip-path="url(#clip680)" style="stroke:#000000; stroke-linecap:round; stroke-linejoin:round; stroke-width:4; stroke-opacity:1; fill:none" points="313.626,217.813 332.524,217.813 "/>
<path clip-path="url(#clip680)" d="M114.931 1404.08 L122.57 1404.08 L122.57 1377.71 L114.26 1379.38 L114.26 1375.12 L122.524 1373.45 L127.2 1373.45 L127.2 1404.08 L134.839 1404.08 L134.839 1408.01 L114.931 1408.01 L114.931 1404.08 Z" fill="#000000" fill-rule="evenodd" fill-opacity="1" /><path clip-path="url(#clip680)" d="M154.283 1376.53 Q150.672 1376.53 148.843 1380.1 Q147.038 1383.64 147.038 1390.77 Q147.038 1397.87 148.843 1401.44 Q150.672 1404.98 154.283 1404.98 Q157.917 1404.98 159.723 1401.44 Q161.552 1397.87 161.552 1390.77 Q161.552 1383.64 159.723 1380.1 Q157.917 1376.53 154.283 1376.53 M154.283 1372.83 Q160.093 1372.83 163.149 1377.43 Q166.227 1382.02 166.227 1390.77 Q166.227 1399.49 163.149 1404.1 Q160.093 1408.68 154.283 1408.68 Q148.473 1408.68 145.394 1404.1 Q142.339 1399.49 142.339 1390.77 Q142.339 1382.02 145.394 1377.43 Q148.473 1372.83 154.283 1372.83 Z" fill="#000000" fill-rule="evenodd" fill-opacity="1" /><path clip-path="url(#clip680)" d="M166.227 1366.93 L190.339 1366.93 L190.339 1370.13 L166.227 1370.13 L166.227 1366.93 Z" fill="#000000" fill-rule="evenodd" fill-opacity="1" /><path clip-path="url(#clip680)" d="M206.664 1355.02 Q203.73 1355.02 202.244 1357.92 Q200.777 1360.8 200.777 1366.59 Q200.777 1372.37 202.244 1375.26 Q203.73 1378.14 206.664 1378.14 Q209.617 1378.14 211.084 1375.26 Q212.57 1372.37 212.57 1366.59 Q212.57 1360.8 211.084 1357.92 Q209.617 1355.02 206.664 1355.02 M206.664 1352.02 Q211.385 1352.02 213.868 1355.76 Q216.369 1359.48 216.369 1366.59 Q216.369 1373.68 213.868 1377.42 Q211.385 1381.15 206.664 1381.15 Q201.943 1381.15 199.442 1377.42 Q196.959 1373.68 196.959 1366.59 Q196.959 1359.48 199.442 1355.76 Q201.943 1352.02 206.664 1352.02 Z" fill="#000000" fill-rule="evenodd" fill-opacity="1" /><path clip-path="url(#clip680)" d="M223.046 1375.83 L227.014 1375.83 L227.014 1380.6 L223.046 1380.6 L223.046 1375.83 Z" fill="#000000" fill-rule="evenodd" fill-opacity="1" /><path clip-path="url(#clip680)" d="M238.562 1377.41 L251.822 1377.41 L251.822 1380.6 L233.992 1380.6 L233.992 1377.41 Q236.155 1375.17 239.879 1371.41 Q243.621 1367.63 244.581 1366.53 Q246.405 1364.48 247.12 1363.07 Q247.853 1361.64 247.853 1360.27 Q247.853 1358.03 246.273 1356.62 Q244.712 1355.21 242.192 1355.21 Q240.405 1355.21 238.412 1355.83 Q236.437 1356.45 234.18 1357.71 L234.18 1353.88 Q236.474 1352.96 238.468 1352.49 Q240.462 1352.02 242.117 1352.02 Q246.48 1352.02 249.076 1354.2 Q251.671 1356.38 251.671 1360.03 Q251.671 1361.76 251.013 1363.32 Q250.373 1364.86 248.662 1366.97 Q248.192 1367.51 245.671 1370.13 Q243.151 1372.72 238.562 1377.41 Z" fill="#000000" fill-rule="evenodd" fill-opacity="1" /><path clip-path="url(#clip680)" d="M267.921 1355.02 Q264.987 1355.02 263.501 1357.92 Q262.034 1360.8 262.034 1366.59 Q262.034 1372.37 263.501 1375.26 Q264.987 1378.14 267.921 1378.14 Q270.874 1378.14 272.341 1375.26 Q273.827 1372.37 273.827 1366.59 Q273.827 1360.8 272.341 1357.92 Q270.874 1355.02 267.921 1355.02 M267.921 1352.02 Q272.642 1352.02 275.124 1355.76 Q277.626 1359.48 277.626 1366.59 Q277.626 1373.68 275.124 1377.42 Q272.642 1381.15 267.921 1381.15 Q263.2 1381.15 260.699 1377.42 Q258.216 1373.68 258.216 1366.59 Q258.216 1359.48 260.699 1355.76 Q263.2 1352.02 267.921 1352.02 Z" fill="#000000" fill-rule="evenodd" fill-opacity="1" /><path clip-path="url(#clip680)" d="M115.74 1112.46 L123.379 1112.46 L123.379 1086.09 L115.069 1087.76 L115.069 1083.5 L123.333 1081.84 L128.009 1081.84 L128.009 1112.46 L135.647 1112.46 L135.647 1116.4 L115.74 1116.4 L115.74 1112.46 Z" fill="#000000" fill-rule="evenodd" fill-opacity="1" /><path clip-path="url(#clip680)" d="M155.092 1084.91 Q151.481 1084.91 149.652 1088.48 Q147.846 1092.02 147.846 1099.15 Q147.846 1106.26 149.652 1109.82 Q151.481 1113.36 155.092 1113.36 Q158.726 1113.36 160.532 1109.82 Q162.36 1106.26 162.36 1099.15 Q162.36 1092.02 160.532 1088.48 Q158.726 1084.91 155.092 1084.91 M155.092 1081.21 Q160.902 1081.21 163.958 1085.82 Q167.036 1090.4 167.036 1099.15 Q167.036 1107.88 163.958 1112.48 Q160.902 1117.07 155.092 1117.07 Q149.282 1117.07 146.203 1112.48 Q143.147 1107.88 143.147 1099.15 Q143.147 1090.4 146.203 1085.82 Q149.282 1081.21 155.092 1081.21 Z" fill="#000000" fill-rule="evenodd" fill-opacity="1" /><path clip-path="url(#clip680)" d="M167.036 1075.31 L191.148 1075.31 L191.148 1078.51 L167.036 1078.51 L167.036 1075.31 Z" fill="#000000" fill-rule="evenodd" fill-opacity="1" /><path clip-path="url(#clip680)" d="M207.473 1063.41 Q204.539 1063.41 203.053 1066.3 Q201.586 1069.18 201.586 1074.97 Q201.586 1080.75 203.053 1083.64 Q204.539 1086.52 207.473 1086.52 Q210.426 1086.52 211.893 1083.64 Q213.379 1080.75 213.379 1074.97 Q213.379 1069.18 211.893 1066.3 Q210.426 1063.41 207.473 1063.41 M207.473 1060.4 Q212.194 1060.4 214.676 1064.14 Q217.178 1067.86 217.178 1074.97 Q217.178 1082.06 214.676 1085.81 Q212.194 1089.53 207.473 1089.53 Q202.752 1089.53 200.251 1085.81 Q197.768 1082.06 197.768 1074.97 Q197.768 1067.86 200.251 1064.14 Q202.752 1060.4 207.473 1060.4 Z" fill="#000000" fill-rule="evenodd" fill-opacity="1" /><path clip-path="url(#clip680)" d="M223.854 1084.21 L227.823 1084.21 L227.823 1088.98 L223.854 1088.98 L223.854 1084.21 Z" fill="#000000" fill-rule="evenodd" fill-opacity="1" /><path clip-path="url(#clip680)" d="M236.757 1085.79 L242.963 1085.79 L242.963 1064.37 L236.211 1065.72 L236.211 1062.26 L242.926 1060.9 L246.725 1060.9 L246.725 1085.79 L252.931 1085.79 L252.931 1088.98 L236.757 1088.98 L236.757 1085.79 Z" fill="#000000" fill-rule="evenodd" fill-opacity="1" /><path clip-path="url(#clip680)" d="M260.642 1060.9 L275.557 1060.9 L275.557 1064.1 L264.122 1064.1 L264.122 1070.99 Q264.949 1070.7 265.777 1070.57 Q266.605 1070.42 267.432 1070.42 Q272.134 1070.42 274.88 1073 Q277.626 1075.57 277.626 1079.98 Q277.626 1084.51 274.805 1087.03 Q271.984 1089.53 266.849 1089.53 Q265.081 1089.53 263.238 1089.23 Q261.414 1088.93 259.458 1088.33 L259.458 1084.51 Q261.15 1085.43 262.956 1085.88 Q264.761 1086.33 266.774 1086.33 Q270.028 1086.33 271.927 1084.62 Q273.827 1082.91 273.827 1079.98 Q273.827 1077.04 271.927 1075.33 Q270.028 1073.62 266.774 1073.62 Q265.25 1073.62 263.727 1073.96 Q262.222 1074.3 260.642 1075.01 L260.642 1060.9 Z" fill="#000000" fill-rule="evenodd" fill-opacity="1" /><path clip-path="url(#clip680)" d="M114.931 820.842 L122.57 820.842 L122.57 794.476 L114.26 796.143 L114.26 791.884 L122.524 790.217 L127.2 790.217 L127.2 820.842 L134.839 820.842 L134.839 824.777 L114.931 824.777 L114.931 820.842 Z" fill="#000000" fill-rule="evenodd" fill-opacity="1" /><path clip-path="url(#clip680)" d="M154.283 793.296 Q150.672 793.296 148.843 796.861 Q147.038 800.402 147.038 807.532 Q147.038 814.638 148.843 818.203 Q150.672 821.745 154.283 821.745 Q157.917 821.745 159.723 818.203 Q161.552 814.638 161.552 807.532 Q161.552 800.402 159.723 796.861 Q157.917 793.296 154.283 793.296 M154.283 789.592 Q160.093 789.592 163.149 794.199 Q166.227 798.782 166.227 807.532 Q166.227 816.259 163.149 820.865 Q160.093 825.448 154.283 825.448 Q148.473 825.448 145.394 820.865 Q142.339 816.259 142.339 807.532 Q142.339 798.782 145.394 794.199 Q148.473 789.592 154.283 789.592 Z" fill="#000000" fill-rule="evenodd" fill-opacity="1" /><path clip-path="url(#clip680)" d="M166.227 783.693 L190.339 783.693 L190.339 786.891 L166.227 786.891 L166.227 783.693 Z" fill="#000000" fill-rule="evenodd" fill-opacity="1" /><path clip-path="url(#clip680)" d="M206.664 771.788 Q203.73 771.788 202.244 774.685 Q200.777 777.562 200.777 783.355 Q200.777 789.129 202.244 792.025 Q203.73 794.903 206.664 794.903 Q209.617 794.903 211.084 792.025 Q212.57 789.129 212.57 783.355 Q212.57 777.562 211.084 774.685 Q209.617 771.788 206.664 771.788 M206.664 768.779 Q211.385 768.779 213.868 772.522 Q216.369 776.246 216.369 783.355 Q216.369 790.445 213.868 794.188 Q211.385 797.912 206.664 797.912 Q201.943 797.912 199.442 794.188 Q196.959 790.445 196.959 783.355 Q196.959 776.246 199.442 772.522 Q201.943 768.779 206.664 768.779 Z" fill="#000000" fill-rule="evenodd" fill-opacity="1" /><path clip-path="url(#clip680)" d="M223.046 792.59 L227.014 792.59 L227.014 797.367 L223.046 797.367 L223.046 792.59 Z" fill="#000000" fill-rule="evenodd" fill-opacity="1" /><path clip-path="url(#clip680)" d="M235.948 794.169 L242.154 794.169 L242.154 772.747 L235.402 774.102 L235.402 770.641 L242.117 769.287 L245.916 769.287 L245.916 794.169 L252.123 794.169 L252.123 797.367 L235.948 797.367 L235.948 794.169 Z" fill="#000000" fill-rule="evenodd" fill-opacity="1" /><path clip-path="url(#clip680)" d="M267.921 771.788 Q264.987 771.788 263.501 774.685 Q262.034 777.562 262.034 783.355 Q262.034 789.129 263.501 792.025 Q264.987 794.903 267.921 794.903 Q270.874 794.903 272.341 792.025 Q273.827 789.129 273.827 783.355 Q273.827 777.562 272.341 774.685 Q270.874 771.788 267.921 771.788 M267.921 768.779 Q272.642 768.779 275.124 772.522 Q277.626 776.246 277.626 783.355 Q277.626 790.445 275.124 794.188 Q272.642 797.912 267.921 797.912 Q263.2 797.912 260.699 794.188 Q258.216 790.445 258.216 783.355 Q258.216 776.246 260.699 772.522 Q263.2 768.779 267.921 768.779 Z" fill="#000000" fill-rule="evenodd" fill-opacity="1" /><path clip-path="url(#clip680)" d="M115.74 529.224 L123.379 529.224 L123.379 502.858 L115.069 504.525 L115.069 500.266 L123.333 498.599 L128.009 498.599 L128.009 529.224 L135.647 529.224 L135.647 533.159 L115.74 533.159 L115.74 529.224 Z" fill="#000000" fill-rule="evenodd" fill-opacity="1" /><path clip-path="url(#clip680)" d="M155.092 501.678 Q151.481 501.678 149.652 505.243 Q147.846 508.784 147.846 515.914 Q147.846 523.02 149.652 526.585 Q151.481 530.127 155.092 530.127 Q158.726 530.127 160.532 526.585 Q162.36 523.02 162.36 515.914 Q162.36 508.784 160.532 505.243 Q158.726 501.678 155.092 501.678 M155.092 497.974 Q160.902 497.974 163.958 502.58 Q167.036 507.164 167.036 515.914 Q167.036 524.641 163.958 529.247 Q160.902 533.83 155.092 533.83 Q149.282 533.83 146.203 529.247 Q143.147 524.641 143.147 515.914 Q143.147 507.164 146.203 502.58 Q149.282 497.974 155.092 497.974 Z" fill="#000000" fill-rule="evenodd" fill-opacity="1" /><path clip-path="url(#clip680)" d="M167.036 492.075 L191.148 492.075 L191.148 495.273 L167.036 495.273 L167.036 492.075 Z" fill="#000000" fill-rule="evenodd" fill-opacity="1" /><path clip-path="url(#clip680)" d="M207.473 480.17 Q204.539 480.17 203.053 483.066 Q201.586 485.944 201.586 491.737 Q201.586 497.511 203.053 500.407 Q204.539 503.285 207.473 503.285 Q210.426 503.285 211.893 500.407 Q213.379 497.511 213.379 491.737 Q213.379 485.944 211.893 483.066 Q210.426 480.17 207.473 480.17 M207.473 477.161 Q212.194 477.161 214.676 480.904 Q217.178 484.628 217.178 491.737 Q217.178 498.827 214.676 502.57 Q212.194 506.294 207.473 506.294 Q202.752 506.294 200.251 502.57 Q197.768 498.827 197.768 491.737 Q197.768 484.628 200.251 480.904 Q202.752 477.161 207.473 477.161 Z" fill="#000000" fill-rule="evenodd" fill-opacity="1" /><path clip-path="url(#clip680)" d="M223.854 500.971 L227.823 500.971 L227.823 505.749 L223.854 505.749 L223.854 500.971 Z" fill="#000000" fill-rule="evenodd" fill-opacity="1" /><path clip-path="url(#clip680)" d="M244.223 480.17 Q241.289 480.17 239.803 483.066 Q238.336 485.944 238.336 491.737 Q238.336 497.511 239.803 500.407 Q241.289 503.285 244.223 503.285 Q247.176 503.285 248.643 500.407 Q250.129 497.511 250.129 491.737 Q250.129 485.944 248.643 483.066 Q247.176 480.17 244.223 480.17 M244.223 477.161 Q248.944 477.161 251.427 480.904 Q253.928 484.628 253.928 491.737 Q253.928 498.827 251.427 502.57 Q248.944 506.294 244.223 506.294 Q239.503 506.294 237.001 502.57 Q234.518 498.827 234.518 491.737 Q234.518 484.628 237.001 480.904 Q239.503 477.161 244.223 477.161 Z" fill="#000000" fill-rule="evenodd" fill-opacity="1" /><path clip-path="url(#clip680)" d="M260.642 477.669 L275.557 477.669 L275.557 480.866 L264.122 480.866 L264.122 487.75 Q264.949 487.467 265.777 487.336 Q266.605 487.185 267.432 487.185 Q272.134 487.185 274.88 489.762 Q277.626 492.339 277.626 496.74 Q277.626 501.272 274.805 503.793 Q271.984 506.294 266.849 506.294 Q265.081 506.294 263.238 505.993 Q261.414 505.692 259.458 505.09 L259.458 501.272 Q261.15 502.194 262.956 502.645 Q264.761 503.097 266.774 503.097 Q270.028 503.097 271.927 501.385 Q273.827 499.674 273.827 496.74 Q273.827 493.806 271.927 492.094 Q270.028 490.383 266.774 490.383 Q265.25 490.383 263.727 490.721 Q262.222 491.06 260.642 491.774 L260.642 477.669 Z" fill="#000000" fill-rule="evenodd" fill-opacity="1" /><path clip-path="url(#clip680)" d="M145.663 237.606 L153.302 237.606 L153.302 211.24 L144.992 212.907 L144.992 208.648 L153.256 206.981 L157.932 206.981 L157.932 237.606 L165.571 237.606 L165.571 241.541 L145.663 241.541 L145.663 237.606 Z" fill="#000000" fill-rule="evenodd" fill-opacity="1" /><path clip-path="url(#clip680)" d="M185.015 210.06 Q181.404 210.06 179.575 213.624 Q177.77 217.166 177.77 224.296 Q177.77 231.402 179.575 234.967 Q181.404 238.509 185.015 238.509 Q188.649 238.509 190.455 234.967 Q192.283 231.402 192.283 224.296 Q192.283 217.166 190.455 213.624 Q188.649 210.06 185.015 210.06 M185.015 206.356 Q190.825 206.356 193.881 210.962 Q196.959 215.546 196.959 224.296 Q196.959 233.022 193.881 237.629 Q190.825 242.212 185.015 242.212 Q179.205 242.212 176.126 237.629 Q173.071 233.022 173.071 224.296 Q173.071 215.546 176.126 210.962 Q179.205 206.356 185.015 206.356 Z" fill="#000000" fill-rule="evenodd" fill-opacity="1" /><path clip-path="url(#clip680)" d="M206.664 188.552 Q203.73 188.552 202.244 191.448 Q200.777 194.326 200.777 200.119 Q200.777 205.893 202.244 208.789 Q203.73 211.667 206.664 211.667 Q209.617 211.667 211.084 208.789 Q212.57 205.893 212.57 200.119 Q212.57 194.326 211.084 191.448 Q209.617 188.552 206.664 188.552 M206.664 185.543 Q211.385 185.543 213.868 189.285 Q216.369 193.009 216.369 200.119 Q216.369 207.209 213.868 210.952 Q211.385 214.676 206.664 214.676 Q201.943 214.676 199.442 210.952 Q196.959 207.209 196.959 200.119 Q196.959 193.009 199.442 189.285 Q201.943 185.543 206.664 185.543 Z" fill="#000000" fill-rule="evenodd" fill-opacity="1" /><path clip-path="url(#clip680)" d="M223.046 209.353 L227.014 209.353 L227.014 214.131 L223.046 214.131 L223.046 209.353 Z" fill="#000000" fill-rule="evenodd" fill-opacity="1" /><path clip-path="url(#clip680)" d="M243.415 188.552 Q240.481 188.552 238.995 191.448 Q237.528 194.326 237.528 200.119 Q237.528 205.893 238.995 208.789 Q240.481 211.667 243.415 211.667 Q246.367 211.667 247.834 208.789 Q249.32 205.893 249.32 200.119 Q249.32 194.326 247.834 191.448 Q246.367 188.552 243.415 188.552 M243.415 185.543 Q248.135 185.543 250.618 189.285 Q253.119 193.009 253.119 200.119 Q253.119 207.209 250.618 210.952 Q248.135 214.676 243.415 214.676 Q238.694 214.676 236.192 210.952 Q233.71 207.209 233.71 200.119 Q233.71 193.009 236.192 189.285 Q238.694 185.543 243.415 185.543 Z" fill="#000000" fill-rule="evenodd" fill-opacity="1" /><path clip-path="url(#clip680)" d="M267.921 188.552 Q264.987 188.552 263.501 191.448 Q262.034 194.326 262.034 200.119 Q262.034 205.893 263.501 208.789 Q264.987 211.667 267.921 211.667 Q270.874 211.667 272.341 208.789 Q273.827 205.893 273.827 200.119 Q273.827 194.326 272.341 191.448 Q270.874 188.552 267.921 188.552 M267.921 185.543 Q272.642 185.543 275.124 189.285 Q277.626 193.009 277.626 200.119 Q277.626 207.209 275.124 210.952 Q272.642 214.676 267.921 214.676 Q263.2 214.676 260.699 210.952 Q258.216 207.209 258.216 200.119 Q258.216 193.009 260.699 189.285 Q263.2 185.543 267.921 185.543 Z" fill="#000000" fill-rule="evenodd" fill-opacity="1" /><path clip-path="url(#clip680)" d="M18.8696 756.909 Q19.3527 756.909 20.0613 757.264 Q20.7054 757.586 21.124 758.262 Q21.5105 758.906 21.5105 759.615 Q21.5105 759.84 21.3817 760.355 Q20.9952 761.225 20.1257 762.578 Q19.2561 763.93 18.7086 765.154 Q18.1289 766.346 18.0645 767.666 Q18.0645 768.825 18.4832 769.792 Q18.9663 770.661 19.9968 771.241 Q20.4155 771.499 21.124 771.499 Q22.1224 771.499 23.4429 770.951 Q24.7633 770.404 26.4702 769.276 Q28.1771 768.117 29.3365 767.28 Q30.4637 766.442 32.3317 764.993 Q32.4927 764.864 32.5893 764.8 Q32.6537 764.735 32.8148 764.639 Q32.9436 764.542 33.0402 764.445 Q36.8727 761.386 41.0917 760.613 Q42.5732 760.42 44.119 760.42 Q47.2108 760.42 50.8501 761.354 Q54.1673 762.159 57.0336 763.866 Q59.8677 765.573 61.7356 768.149 Q63.6036 770.693 63.6036 773.463 Q63.6036 776.201 62.412 778.455 Q61.1881 780.709 59.0948 782.062 Q56.3251 783.898 52.4926 783.898 Q50.3348 783.898 48.499 783.383 Q45.5683 782.674 42.863 780.999 Q40.1577 779.325 38.0643 776.909 Q34.9726 773.238 34.103 769.244 Q30.5604 771.112 27.8229 772.207 Q25.0532 773.27 22.7021 773.27 Q20.641 773.27 19.3205 772.497 Q17.9035 771.821 17.0983 770.436 Q16.3898 769.276 16.0355 767.602 Q15.9067 766.571 15.9067 765.895 Q15.9067 763.608 17.1627 758.294 Q17.4848 756.909 18.8696 756.909 M46.7599 764.961 Q44.7954 764.961 43.4749 765.283 Q40.2543 765.895 35.8099 768.342 L35.4879 768.536 Q36.3896 771.66 39.1271 774.204 Q42.4765 777.392 48.8211 779.003 Q52.3637 779.872 54.3605 779.872 Q56.5183 779.872 58.3862 779.067 Q60.1253 778.294 61.1237 776.845 Q62.1221 775.363 62.1221 773.399 Q62.1221 771.917 61.2848 770.629 Q60.4152 769.341 58.9015 768.407 Q57.3878 767.473 55.7453 766.829 Q54.0706 766.152 52.1061 765.637 Q49.4652 764.961 46.7599 764.961 Z" fill="#000000" fill-rule="evenodd" fill-opacity="1" /><path clip-path="url(#clip680)" d="M65.231 731.337 Q66.4258 731.337 67.1923 732.126 Q67.9588 732.893 67.9588 733.885 Q67.9588 734.741 67.4629 735.192 Q66.9669 735.643 66.3356 735.643 Q65.4339 735.643 64.6899 734.944 Q63.946 734.245 63.7882 733.231 Q63.2471 733.975 63.2471 735.17 Q63.2471 737.131 64.7576 738.867 Q65.4564 739.634 66.7414 740.468 Q68.0039 741.302 68.545 741.46 L74.5642 742.925 Q75.2406 743.06 78.4869 743.894 Q81.7107 744.706 81.846 744.774 Q82.4772 744.999 82.8154 745.495 Q83.1535 745.991 83.1535 746.487 Q83.1535 747.051 82.8154 747.434 Q82.4772 747.817 81.8911 747.817 Q81.8009 747.817 81.4627 747.749 Q81.1246 747.682 80.6512 747.569 Q80.1777 747.456 79.9072 747.411 L69.2438 744.729 Q67.305 744.233 66.6964 744.12 Q66.0651 743.985 65.3662 743.985 Q64.1489 743.985 63.698 744.368 Q63.2471 744.751 63.2471 745.427 Q63.2471 746.6 64.6448 747.366 Q66.0426 748.133 68.7479 748.786 Q69.4918 748.989 69.6496 749.125 Q69.8074 749.237 69.8074 749.575 Q69.7849 750.139 69.334 750.139 Q69.2213 750.139 68.4999 749.959 Q67.7559 749.778 66.6738 749.44 Q65.5691 749.08 64.8703 748.696 Q64.3969 748.471 64.0812 748.268 Q63.7656 748.065 63.2696 747.659 Q62.7737 747.253 62.5031 746.645 Q62.2326 746.036 62.2326 745.292 Q62.2326 743.669 63.2246 742.519 Q64.2165 741.347 65.772 741.076 Q64.9605 740.513 64.2616 739.814 Q63.5402 739.115 62.8864 737.83 Q62.2326 736.545 62.2326 735.17 Q62.2326 733.456 63.1118 732.397 Q63.9685 731.337 65.231 731.337 Z" fill="#000000" fill-rule="evenodd" fill-opacity="1" /><path clip-path="url(#clip680)" d="M77.2921 710.927 Q77.495 710.746 77.6979 710.746 Q77.9008 710.746 78.4869 711.197 Q79.0731 711.626 79.8621 712.55 Q80.6512 713.474 81.3951 714.669 Q82.1391 715.864 82.635 717.622 Q83.1535 719.381 83.1535 721.229 Q83.1535 724.543 80.7864 726.527 Q78.4193 728.489 74.7897 728.489 Q72.4676 728.489 70.4161 727.722 Q68.3421 726.956 66.8767 725.716 Q65.4113 724.453 64.3518 722.875 Q63.2696 721.274 62.7511 719.606 Q62.2326 717.938 62.2326 716.382 Q62.2326 714.105 63.3824 712.775 Q64.5321 711.445 66.1553 711.445 Q66.5385 711.445 67.012 711.558 Q67.4854 711.648 68.2294 711.964 Q68.9733 712.257 69.7173 713.023 Q70.4387 713.79 70.9121 714.917 Q71.9717 717.419 71.9717 721.973 L71.9717 724.431 Q74.8799 725.152 76.7736 725.152 Q77.5175 725.152 78.284 725.017 Q79.028 724.882 79.9748 724.521 Q80.9217 724.138 81.5304 723.281 Q82.1165 722.402 82.1165 721.139 Q82.1165 720.733 82.094 720.305 Q82.0714 719.854 81.8234 718.727 Q81.5755 717.577 81.1471 716.563 Q80.7188 715.548 79.7945 714.263 Q78.8476 712.956 77.5626 711.919 Q77.0892 711.558 77.0892 711.31 Q77.0892 711.107 77.2921 710.927 M66.1553 712.978 Q64.9154 712.978 64.0812 713.903 Q63.2471 714.804 63.2471 716.382 Q63.2471 716.878 63.3598 717.487 Q63.4725 718.096 63.946 719.11 Q64.4194 720.102 65.2084 720.981 Q65.9749 721.861 67.4854 722.74 Q68.9733 723.619 70.9572 724.138 L70.9572 722.244 Q70.9572 721.59 70.9572 721.117 Q70.9346 720.643 70.8445 719.606 Q70.7543 718.547 70.5965 717.78 Q70.4161 717.014 70.0554 716.044 Q69.6947 715.075 69.2213 714.466 Q68.7253 713.835 67.9363 713.407 Q67.1472 712.978 66.1553 712.978 Z" fill="#000000" fill-rule="evenodd" fill-opacity="1" /><path clip-path="url(#clip680)" d="M51.0958 697.312 L77.7881 703.963 Q78.8476 704.233 79.9974 704.233 Q82.1165 704.233 82.1165 702.836 Q82.1165 702.182 81.6882 701.641 Q81.2373 701.1 80.3581 700.694 Q79.4563 700.266 78.5996 699.995 Q77.743 699.702 76.4129 699.341 Q75.8943 699.229 75.7365 699.116 Q75.5787 699.003 75.5787 698.688 Q75.5787 698.124 76.0296 698.124 Q78.8025 698.688 80.561 699.522 Q83.1535 700.739 83.1535 702.994 Q83.1535 704.684 81.9813 705.947 Q80.7864 707.187 78.8927 707.187 Q78.1713 707.187 77.3146 706.961 L54.2295 701.145 L53.3277 700.987 Q53.0797 700.987 52.9444 701.077 Q52.8092 701.167 52.6739 701.709 Q52.5387 702.227 52.5387 703.264 Q52.5387 703.692 52.5161 703.895 Q52.4936 704.076 52.3808 704.256 Q52.2681 704.414 52.0201 704.414 Q51.6143 704.414 51.3889 704.256 Q51.1635 704.076 51.1184 703.94 Q51.0733 703.805 51.0507 703.535 Q51.0282 703.151 50.9155 701.866 Q50.7802 700.581 50.69 699.477 Q50.5999 698.372 50.5999 697.899 Q50.5999 697.628 50.7351 697.493 Q50.8478 697.335 50.9831 697.312 L51.0958 697.312 Z" fill="#000000" fill-rule="evenodd" fill-opacity="1" /><polyline clip-path="url(#clip683)" style="stroke:#009af9; stroke-linecap:round; stroke-linejoin:round; stroke-width:4; stroke-opacity:1; fill:none" points="313.626,106.754 721.452,198.711 1129.28,204.305 1537.1,206.854 1944.93,211.312 2352.76,1354.86 "/>
<polyline clip-path="url(#clip683)" style="stroke:#e26f46; stroke-linecap:round; stroke-linejoin:round; stroke-width:4; stroke-opacity:1; fill:none" points="313.626,86.1857 721.452,205.18 1129.28,208.962 1537.1,209.811 1944.93,212.819 2352.76,1384.24 "/>
<path clip-path="url(#clip680)" d="M381.597 1377.32 L1225.27 1377.32 L1225.27 1221.8 L381.597 1221.8  Z" fill="#ffffff" fill-rule="evenodd" fill-opacity="1"/>
<polyline clip-path="url(#clip680)" style="stroke:#000000; stroke-linecap:round; stroke-linejoin:round; stroke-width:4; stroke-opacity:1; fill:none" points="381.597,1377.32 1225.27,1377.32 1225.27,1221.8 381.597,1221.8 381.597,1377.32 "/>
<polyline clip-path="url(#clip680)" style="stroke:#009af9; stroke-linecap:round; stroke-linejoin:round; stroke-width:4; stroke-opacity:1; fill:none" points="404.254,1273.64 540.196,1273.64 "/>
<path clip-path="url(#clip680)" d="M581.765 1268.92 L581.765 1254.9 L586.024 1254.9 L586.024 1290.92 L581.765 1290.92 L581.765 1287.03 Q580.422 1289.34 578.362 1290.48 Q576.325 1291.59 573.455 1291.59 Q568.756 1291.59 565.793 1287.84 Q562.853 1284.09 562.853 1277.98 Q562.853 1271.86 565.793 1268.11 Q568.756 1264.36 573.455 1264.36 Q576.325 1264.36 578.362 1265.5 Q580.422 1266.61 581.765 1268.92 M567.251 1277.98 Q567.251 1282.67 569.172 1285.36 Q571.117 1288.02 574.496 1288.02 Q577.876 1288.02 579.82 1285.36 Q581.765 1282.67 581.765 1277.98 Q581.765 1273.28 579.82 1270.61 Q577.876 1267.93 574.496 1267.93 Q571.117 1267.93 569.172 1270.61 Q567.251 1273.28 567.251 1277.98 Z" fill="#000000" fill-rule="evenodd" fill-opacity="1" /><path clip-path="url(#clip680)" d="M594.797 1264.99 L599.056 1264.99 L599.056 1290.92 L594.797 1290.92 L594.797 1264.99 M594.797 1254.9 L599.056 1254.9 L599.056 1260.29 L594.797 1260.29 L594.797 1254.9 Z" fill="#000000" fill-rule="evenodd" fill-opacity="1" /><path clip-path="url(#clip680)" d="M624.496 1265.75 L624.496 1269.78 Q622.691 1268.86 620.746 1268.39 Q618.802 1267.93 616.718 1267.93 Q613.547 1267.93 611.95 1268.9 Q610.376 1269.87 610.376 1271.82 Q610.376 1273.3 611.51 1274.16 Q612.644 1274.99 616.07 1275.75 L617.529 1276.08 Q622.066 1277.05 623.964 1278.83 Q625.885 1280.59 625.885 1283.76 Q625.885 1287.37 623.015 1289.48 Q620.167 1291.59 615.167 1291.59 Q613.084 1291.59 610.816 1291.17 Q608.57 1290.78 606.07 1289.97 L606.07 1285.57 Q608.431 1286.79 610.723 1287.42 Q613.015 1288.02 615.26 1288.02 Q618.269 1288.02 619.89 1287 Q621.51 1285.96 621.51 1284.09 Q621.51 1282.35 620.329 1281.42 Q619.172 1280.5 615.214 1279.64 L613.732 1279.3 Q609.774 1278.46 608.015 1276.75 Q606.255 1275.01 606.255 1272 Q606.255 1268.35 608.848 1266.36 Q611.441 1264.36 616.209 1264.36 Q618.57 1264.36 620.654 1264.71 Q622.737 1265.06 624.496 1265.75 Z" fill="#000000" fill-rule="evenodd" fill-opacity="1" /><path clip-path="url(#clip680)" d="M651.325 1265.98 L651.325 1269.97 Q649.519 1268.97 647.69 1268.48 Q645.885 1267.98 644.033 1267.98 Q639.89 1267.98 637.598 1270.61 Q635.306 1273.23 635.306 1277.98 Q635.306 1282.72 637.598 1285.36 Q639.89 1287.98 644.033 1287.98 Q645.885 1287.98 647.69 1287.49 Q649.519 1286.98 651.325 1285.98 L651.325 1289.92 Q649.542 1290.75 647.621 1291.17 Q645.723 1291.59 643.57 1291.59 Q637.714 1291.59 634.265 1287.91 Q630.815 1284.23 630.815 1277.98 Q630.815 1271.63 634.288 1268 Q637.783 1264.36 643.848 1264.36 Q645.815 1264.36 647.69 1264.78 Q649.565 1265.17 651.325 1265.98 Z" fill="#000000" fill-rule="evenodd" fill-opacity="1" /><path clip-path="url(#clip680)" d="M673.755 1268.97 Q673.037 1268.55 672.181 1268.37 Q671.348 1268.16 670.329 1268.16 Q666.718 1268.16 664.774 1270.52 Q662.852 1272.86 662.852 1277.26 L662.852 1290.92 L658.57 1290.92 L658.57 1264.99 L662.852 1264.99 L662.852 1269.02 Q664.195 1266.66 666.348 1265.52 Q668.5 1264.36 671.579 1264.36 Q672.019 1264.36 672.551 1264.43 Q673.084 1264.48 673.732 1264.6 L673.755 1268.97 Z" fill="#000000" fill-rule="evenodd" fill-opacity="1" /><path clip-path="url(#clip680)" d="M699.357 1276.89 L699.357 1278.97 L679.774 1278.97 Q680.051 1283.37 682.412 1285.68 Q684.797 1287.98 689.033 1287.98 Q691.486 1287.98 693.778 1287.37 Q696.093 1286.77 698.361 1285.57 L698.361 1289.6 Q696.07 1290.57 693.662 1291.08 Q691.255 1291.59 688.778 1291.59 Q682.574 1291.59 678.94 1287.98 Q675.329 1284.36 675.329 1278.21 Q675.329 1271.84 678.755 1268.11 Q682.204 1264.36 688.037 1264.36 Q693.269 1264.36 696.301 1267.74 Q699.357 1271.1 699.357 1276.89 M695.098 1275.64 Q695.051 1272.14 693.13 1270.06 Q691.232 1267.98 688.084 1267.98 Q684.519 1267.98 682.366 1269.99 Q680.237 1272 679.912 1275.66 L695.098 1275.64 Z" fill="#000000" fill-rule="evenodd" fill-opacity="1" /><path clip-path="url(#clip680)" d="M710.468 1287.03 L710.468 1300.78 L706.185 1300.78 L706.185 1264.99 L710.468 1264.99 L710.468 1268.92 Q711.81 1266.61 713.847 1265.5 Q715.908 1264.36 718.755 1264.36 Q723.477 1264.36 726.417 1268.11 Q729.38 1271.86 729.38 1277.98 Q729.38 1284.09 726.417 1287.84 Q723.477 1291.59 718.755 1291.59 Q715.908 1291.59 713.847 1290.48 Q711.81 1289.34 710.468 1287.03 M724.959 1277.98 Q724.959 1273.28 723.014 1270.61 Q721.093 1267.93 717.713 1267.93 Q714.334 1267.93 712.389 1270.61 Q710.468 1273.28 710.468 1277.98 Q710.468 1282.67 712.389 1285.36 Q714.334 1288.02 717.713 1288.02 Q721.093 1288.02 723.014 1285.36 Q724.959 1282.67 724.959 1277.98 Z" fill="#000000" fill-rule="evenodd" fill-opacity="1" /><path clip-path="url(#clip680)" d="M748.222 1277.88 Q743.06 1277.88 741.07 1279.06 Q739.079 1280.24 739.079 1283.09 Q739.079 1285.36 740.56 1286.7 Q742.065 1288.02 744.634 1288.02 Q748.176 1288.02 750.306 1285.52 Q752.458 1283 752.458 1278.83 L752.458 1277.88 L748.222 1277.88 M756.718 1276.12 L756.718 1290.92 L752.458 1290.92 L752.458 1286.98 Q751 1289.34 748.824 1290.48 Q746.648 1291.59 743.5 1291.59 Q739.519 1291.59 737.158 1289.36 Q734.82 1287.12 734.82 1283.37 Q734.82 1278.99 737.736 1276.77 Q740.676 1274.55 746.486 1274.55 L752.458 1274.55 L752.458 1274.13 Q752.458 1271.19 750.514 1269.6 Q748.593 1267.98 745.097 1267.98 Q742.875 1267.98 740.769 1268.51 Q738.662 1269.04 736.718 1270.11 L736.718 1266.17 Q739.056 1265.27 741.255 1264.83 Q743.454 1264.36 745.537 1264.36 Q751.162 1264.36 753.94 1267.28 Q756.718 1270.2 756.718 1276.12 Z" fill="#000000" fill-rule="evenodd" fill-opacity="1" /><path clip-path="url(#clip680)" d="M787.042 1275.27 L787.042 1290.92 L782.782 1290.92 L782.782 1275.41 Q782.782 1271.73 781.347 1269.9 Q779.912 1268.07 777.042 1268.07 Q773.593 1268.07 771.602 1270.27 Q769.611 1272.47 769.611 1276.26 L769.611 1290.92 L765.329 1290.92 L765.329 1264.99 L769.611 1264.99 L769.611 1269.02 Q771.139 1266.68 773.199 1265.52 Q775.282 1264.36 777.991 1264.36 Q782.458 1264.36 784.75 1267.14 Q787.042 1269.9 787.042 1275.27 Z" fill="#000000" fill-rule="evenodd" fill-opacity="1" /><path clip-path="url(#clip680)" d="M814.194 1265.98 L814.194 1269.97 Q812.389 1268.97 810.56 1268.48 Q808.754 1267.98 806.903 1267.98 Q802.759 1267.98 800.467 1270.61 Q798.176 1273.23 798.176 1277.98 Q798.176 1282.72 800.467 1285.36 Q802.759 1287.98 806.903 1287.98 Q808.754 1287.98 810.56 1287.49 Q812.389 1286.98 814.194 1285.98 L814.194 1289.92 Q812.412 1290.75 810.49 1291.17 Q808.592 1291.59 806.44 1291.59 Q800.583 1291.59 797.134 1287.91 Q793.685 1284.23 793.685 1277.98 Q793.685 1271.63 797.157 1268 Q800.653 1264.36 806.717 1264.36 Q808.685 1264.36 810.56 1264.78 Q812.435 1265.17 814.194 1265.98 Z" fill="#000000" fill-rule="evenodd" fill-opacity="1" /><path clip-path="url(#clip680)" d="M832.388 1293.32 Q830.583 1297.95 828.87 1299.36 Q827.157 1300.78 824.287 1300.78 L820.884 1300.78 L820.884 1297.21 L823.384 1297.21 Q825.143 1297.21 826.115 1296.38 Q827.088 1295.54 828.268 1292.44 L829.032 1290.5 L818.546 1264.99 L823.06 1264.99 L831.162 1285.27 L839.263 1264.99 L843.777 1264.99 L832.388 1293.32 Z" fill="#000000" fill-rule="evenodd" fill-opacity="1" /><path clip-path="url(#clip680)" d="M864.726 1264.99 L868.986 1264.99 L868.986 1290.92 L864.726 1290.92 L864.726 1264.99 M864.726 1254.9 L868.986 1254.9 L868.986 1260.29 L864.726 1260.29 L864.726 1254.9 Z" fill="#000000" fill-rule="evenodd" fill-opacity="1" /><path clip-path="url(#clip680)" d="M899.448 1275.27 L899.448 1290.92 L895.189 1290.92 L895.189 1275.41 Q895.189 1271.73 893.754 1269.9 Q892.319 1268.07 889.448 1268.07 Q885.999 1268.07 884.009 1270.27 Q882.018 1272.47 882.018 1276.26 L882.018 1290.92 L877.735 1290.92 L877.735 1264.99 L882.018 1264.99 L882.018 1269.02 Q883.546 1266.68 885.606 1265.52 Q887.689 1264.36 890.397 1264.36 Q894.865 1264.36 897.157 1267.14 Q899.448 1269.9 899.448 1275.27 Z" fill="#000000" fill-rule="evenodd" fill-opacity="1" /><path clip-path="url(#clip680)" d="M923.013 1264.99 L927.272 1264.99 L927.272 1290.92 L923.013 1290.92 L923.013 1264.99 M923.013 1254.9 L927.272 1254.9 L927.272 1260.29 L923.013 1260.29 L923.013 1254.9 Z" fill="#000000" fill-rule="evenodd" fill-opacity="1" /><path clip-path="url(#clip680)" d="M957.735 1275.27 L957.735 1290.92 L953.476 1290.92 L953.476 1275.41 Q953.476 1271.73 952.041 1269.9 Q950.605 1268.07 947.735 1268.07 Q944.286 1268.07 942.295 1270.27 Q940.305 1272.47 940.305 1276.26 L940.305 1290.92 L936.022 1290.92 L936.022 1264.99 L940.305 1264.99 L940.305 1269.02 Q941.832 1266.68 943.893 1265.52 Q945.976 1264.36 948.684 1264.36 Q953.152 1264.36 955.443 1267.14 Q957.735 1269.9 957.735 1275.27 Z" fill="#000000" fill-rule="evenodd" fill-opacity="1" /><path clip-path="url(#clip680)" d="M966.23 1264.99 L970.49 1264.99 L970.49 1290.92 L966.23 1290.92 L966.23 1264.99 M966.23 1254.9 L970.49 1254.9 L970.49 1260.29 L966.23 1260.29 L966.23 1254.9 Z" fill="#000000" fill-rule="evenodd" fill-opacity="1" /><path clip-path="url(#clip680)" d="M983.615 1257.63 L983.615 1264.99 L992.388 1264.99 L992.388 1268.3 L983.615 1268.3 L983.615 1282.37 Q983.615 1285.54 984.471 1286.45 Q985.351 1287.35 988.013 1287.35 L992.388 1287.35 L992.388 1290.92 L988.013 1290.92 Q983.082 1290.92 981.207 1289.09 Q979.332 1287.23 979.332 1282.37 L979.332 1268.3 L976.207 1268.3 L976.207 1264.99 L979.332 1264.99 L979.332 1257.63 L983.615 1257.63 Z" fill="#000000" fill-rule="evenodd" fill-opacity="1" /><path clip-path="url(#clip680)" d="M997.989 1264.99 L1002.25 1264.99 L1002.25 1290.92 L997.989 1290.92 L997.989 1264.99 M997.989 1254.9 L1002.25 1254.9 L1002.25 1260.29 L997.989 1260.29 L997.989 1254.9 Z" fill="#000000" fill-rule="evenodd" fill-opacity="1" /><path clip-path="url(#clip680)" d="M1022.94 1277.88 Q1017.78 1277.88 1015.79 1279.06 Q1013.8 1280.24 1013.8 1283.09 Q1013.8 1285.36 1015.28 1286.7 Q1016.79 1288.02 1019.36 1288.02 Q1022.9 1288.02 1025.03 1285.52 Q1027.18 1283 1027.18 1278.83 L1027.18 1277.88 L1022.94 1277.88 M1031.44 1276.12 L1031.44 1290.92 L1027.18 1290.92 L1027.18 1286.98 Q1025.72 1289.34 1023.54 1290.48 Q1021.37 1291.59 1018.22 1291.59 Q1014.24 1291.59 1011.88 1289.36 Q1009.54 1287.12 1009.54 1283.37 Q1009.54 1278.99 1012.46 1276.77 Q1015.4 1274.55 1021.21 1274.55 L1027.18 1274.55 L1027.18 1274.13 Q1027.18 1271.19 1025.23 1269.6 Q1023.31 1267.98 1019.82 1267.98 Q1017.6 1267.98 1015.49 1268.51 Q1013.38 1269.04 1011.44 1270.11 L1011.44 1266.17 Q1013.78 1265.27 1015.98 1264.83 Q1018.17 1264.36 1020.26 1264.36 Q1025.88 1264.36 1028.66 1267.28 Q1031.44 1270.2 1031.44 1276.12 Z" fill="#000000" fill-rule="evenodd" fill-opacity="1" /><path clip-path="url(#clip680)" d="M1040.21 1254.9 L1044.47 1254.9 L1044.47 1290.92 L1040.21 1290.92 L1040.21 1254.9 Z" fill="#000000" fill-rule="evenodd" fill-opacity="1" /><path clip-path="url(#clip680)" d="M1053.38 1264.99 L1057.64 1264.99 L1057.64 1290.92 L1053.38 1290.92 L1053.38 1264.99 M1053.38 1254.9 L1057.64 1254.9 L1057.64 1260.29 L1053.38 1260.29 L1053.38 1254.9 Z" fill="#000000" fill-rule="evenodd" fill-opacity="1" /><path clip-path="url(#clip680)" d="M1083.08 1265.75 L1083.08 1269.78 Q1081.28 1268.86 1079.33 1268.39 Q1077.39 1267.93 1075.3 1267.93 Q1072.13 1267.93 1070.54 1268.9 Q1068.96 1269.87 1068.96 1271.82 Q1068.96 1273.3 1070.1 1274.16 Q1071.23 1274.99 1074.66 1275.75 L1076.11 1276.08 Q1080.65 1277.05 1082.55 1278.83 Q1084.47 1280.59 1084.47 1283.76 Q1084.47 1287.37 1081.6 1289.48 Q1078.75 1291.59 1073.75 1291.59 Q1071.67 1291.59 1069.4 1291.17 Q1067.16 1290.78 1064.66 1289.97 L1064.66 1285.57 Q1067.02 1286.79 1069.31 1287.42 Q1071.6 1288.02 1073.85 1288.02 Q1076.85 1288.02 1078.48 1287 Q1080.1 1285.96 1080.1 1284.09 Q1080.1 1282.35 1078.91 1281.42 Q1077.76 1280.5 1073.8 1279.64 L1072.32 1279.3 Q1068.36 1278.46 1066.6 1276.75 Q1064.84 1275.01 1064.84 1272 Q1064.84 1268.35 1067.43 1266.36 Q1070.03 1264.36 1074.79 1264.36 Q1077.16 1264.36 1079.24 1264.71 Q1081.32 1265.06 1083.08 1265.75 Z" fill="#000000" fill-rule="evenodd" fill-opacity="1" /><path clip-path="url(#clip680)" d="M1103.04 1277.88 Q1097.87 1277.88 1095.88 1279.06 Q1093.89 1280.24 1093.89 1283.09 Q1093.89 1285.36 1095.37 1286.7 Q1096.88 1288.02 1099.45 1288.02 Q1102.99 1288.02 1105.12 1285.52 Q1107.27 1283 1107.27 1278.83 L1107.27 1277.88 L1103.04 1277.88 M1111.53 1276.12 L1111.53 1290.92 L1107.27 1290.92 L1107.27 1286.98 Q1105.81 1289.34 1103.64 1290.48 Q1101.46 1291.59 1098.31 1291.59 Q1094.33 1291.59 1091.97 1289.36 Q1089.63 1287.12 1089.63 1283.37 Q1089.63 1278.99 1092.55 1276.77 Q1095.49 1274.55 1101.3 1274.55 L1107.27 1274.55 L1107.27 1274.13 Q1107.27 1271.19 1105.33 1269.6 Q1103.41 1267.98 1099.91 1267.98 Q1097.69 1267.98 1095.58 1268.51 Q1093.48 1269.04 1091.53 1270.11 L1091.53 1266.17 Q1093.87 1265.27 1096.07 1264.83 Q1098.27 1264.36 1100.35 1264.36 Q1105.97 1264.36 1108.75 1267.28 Q1111.53 1270.2 1111.53 1276.12 Z" fill="#000000" fill-rule="evenodd" fill-opacity="1" /><path clip-path="url(#clip680)" d="M1124.52 1257.63 L1124.52 1264.99 L1133.29 1264.99 L1133.29 1268.3 L1124.52 1268.3 L1124.52 1282.37 Q1124.52 1285.54 1125.37 1286.45 Q1126.25 1287.35 1128.91 1287.35 L1133.29 1287.35 L1133.29 1290.92 L1128.91 1290.92 Q1123.98 1290.92 1122.11 1289.09 Q1120.23 1287.23 1120.23 1282.37 L1120.23 1268.3 L1117.11 1268.3 L1117.11 1264.99 L1120.23 1264.99 L1120.23 1257.63 L1124.52 1257.63 Z" fill="#000000" fill-rule="evenodd" fill-opacity="1" /><path clip-path="url(#clip680)" d="M1138.89 1264.99 L1143.15 1264.99 L1143.15 1290.92 L1138.89 1290.92 L1138.89 1264.99 M1138.89 1254.9 L1143.15 1254.9 L1143.15 1260.29 L1138.89 1260.29 L1138.89 1254.9 Z" fill="#000000" fill-rule="evenodd" fill-opacity="1" /><path clip-path="url(#clip680)" d="M1162.11 1267.98 Q1158.68 1267.98 1156.69 1270.66 Q1154.7 1273.32 1154.7 1277.98 Q1154.7 1282.63 1156.67 1285.31 Q1158.66 1287.98 1162.11 1287.98 Q1165.51 1287.98 1167.5 1285.29 Q1169.49 1282.61 1169.49 1277.98 Q1169.49 1273.37 1167.5 1270.68 Q1165.51 1267.98 1162.11 1267.98 M1162.11 1264.36 Q1167.66 1264.36 1170.84 1267.98 Q1174.01 1271.59 1174.01 1277.98 Q1174.01 1284.34 1170.84 1287.98 Q1167.66 1291.59 1162.11 1291.59 Q1156.53 1291.59 1153.36 1287.98 Q1150.21 1284.34 1150.21 1277.98 Q1150.21 1271.59 1153.36 1267.98 Q1156.53 1264.36 1162.11 1264.36 Z" fill="#000000" fill-rule="evenodd" fill-opacity="1" /><path clip-path="url(#clip680)" d="M1202.62 1275.27 L1202.62 1290.92 L1198.36 1290.92 L1198.36 1275.41 Q1198.36 1271.73 1196.92 1269.9 Q1195.49 1268.07 1192.62 1268.07 Q1189.17 1268.07 1187.18 1270.27 Q1185.19 1272.47 1185.19 1276.26 L1185.19 1290.92 L1180.91 1290.92 L1180.91 1264.99 L1185.19 1264.99 L1185.19 1269.02 Q1186.72 1266.68 1188.78 1265.52 Q1190.86 1264.36 1193.57 1264.36 Q1198.03 1264.36 1200.33 1267.14 Q1202.62 1269.9 1202.62 1275.27 Z" fill="#000000" fill-rule="evenodd" fill-opacity="1" /><polyline clip-path="url(#clip680)" style="stroke:#e26f46; stroke-linecap:round; stroke-linejoin:round; stroke-width:4; stroke-opacity:1; fill:none" points="404.254,1325.48 540.196,1325.48 "/>
<path clip-path="url(#clip680)" d="M581.765 1320.76 L581.765 1306.74 L586.024 1306.74 L586.024 1342.76 L581.765 1342.76 L581.765 1338.87 Q580.422 1341.18 578.362 1342.32 Q576.325 1343.43 573.455 1343.43 Q568.756 1343.43 565.793 1339.68 Q562.853 1335.93 562.853 1329.82 Q562.853 1323.7 565.793 1319.95 Q568.756 1316.2 573.455 1316.2 Q576.325 1316.2 578.362 1317.34 Q580.422 1318.45 581.765 1320.76 M567.251 1329.82 Q567.251 1334.51 569.172 1337.2 Q571.117 1339.86 574.496 1339.86 Q577.876 1339.86 579.82 1337.2 Q581.765 1334.51 581.765 1329.82 Q581.765 1325.12 579.82 1322.45 Q577.876 1319.77 574.496 1319.77 Q571.117 1319.77 569.172 1322.45 Q567.251 1325.12 567.251 1329.82 Z" fill="#000000" fill-rule="evenodd" fill-opacity="1" /><path clip-path="url(#clip680)" d="M594.797 1316.83 L599.056 1316.83 L599.056 1342.76 L594.797 1342.76 L594.797 1316.83 M594.797 1306.74 L599.056 1306.74 L599.056 1312.13 L594.797 1312.13 L594.797 1306.74 Z" fill="#000000" fill-rule="evenodd" fill-opacity="1" /><path clip-path="url(#clip680)" d="M624.496 1317.59 L624.496 1321.62 Q622.691 1320.7 620.746 1320.23 Q618.802 1319.77 616.718 1319.77 Q613.547 1319.77 611.95 1320.74 Q610.376 1321.71 610.376 1323.66 Q610.376 1325.14 611.51 1326 Q612.644 1326.83 616.07 1327.59 L617.529 1327.92 Q622.066 1328.89 623.964 1330.67 Q625.885 1332.43 625.885 1335.6 Q625.885 1339.21 623.015 1341.32 Q620.167 1343.43 615.167 1343.43 Q613.084 1343.43 610.816 1343.01 Q608.57 1342.62 606.07 1341.81 L606.07 1337.41 Q608.431 1338.63 610.723 1339.26 Q613.015 1339.86 615.26 1339.86 Q618.269 1339.86 619.89 1338.84 Q621.51 1337.8 621.51 1335.93 Q621.51 1334.19 620.329 1333.26 Q619.172 1332.34 615.214 1331.48 L613.732 1331.14 Q609.774 1330.3 608.015 1328.59 Q606.255 1326.85 606.255 1323.84 Q606.255 1320.19 608.848 1318.2 Q611.441 1316.2 616.209 1316.2 Q618.57 1316.2 620.654 1316.55 Q622.737 1316.9 624.496 1317.59 Z" fill="#000000" fill-rule="evenodd" fill-opacity="1" /><path clip-path="url(#clip680)" d="M651.325 1317.82 L651.325 1321.81 Q649.519 1320.81 647.69 1320.32 Q645.885 1319.82 644.033 1319.82 Q639.89 1319.82 637.598 1322.45 Q635.306 1325.07 635.306 1329.82 Q635.306 1334.56 637.598 1337.2 Q639.89 1339.82 644.033 1339.82 Q645.885 1339.82 647.69 1339.33 Q649.519 1338.82 651.325 1337.82 L651.325 1341.76 Q649.542 1342.59 647.621 1343.01 Q645.723 1343.43 643.57 1343.43 Q637.714 1343.43 634.265 1339.75 Q630.815 1336.07 630.815 1329.82 Q630.815 1323.47 634.288 1319.84 Q637.783 1316.2 643.848 1316.2 Q645.815 1316.2 647.69 1316.62 Q649.565 1317.01 651.325 1317.82 Z" fill="#000000" fill-rule="evenodd" fill-opacity="1" /><path clip-path="url(#clip680)" d="M673.755 1320.81 Q673.037 1320.39 672.181 1320.21 Q671.348 1320 670.329 1320 Q666.718 1320 664.774 1322.36 Q662.852 1324.7 662.852 1329.1 L662.852 1342.76 L658.57 1342.76 L658.57 1316.83 L662.852 1316.83 L662.852 1320.86 Q664.195 1318.5 666.348 1317.36 Q668.5 1316.2 671.579 1316.2 Q672.019 1316.2 672.551 1316.27 Q673.084 1316.32 673.732 1316.44 L673.755 1320.81 Z" fill="#000000" fill-rule="evenodd" fill-opacity="1" /><path clip-path="url(#clip680)" d="M699.357 1328.73 L699.357 1330.81 L679.774 1330.81 Q680.051 1335.21 682.412 1337.52 Q684.797 1339.82 689.033 1339.82 Q691.486 1339.82 693.778 1339.21 Q696.093 1338.61 698.361 1337.41 L698.361 1341.44 Q696.07 1342.41 693.662 1342.92 Q691.255 1343.43 688.778 1343.43 Q682.574 1343.43 678.94 1339.82 Q675.329 1336.2 675.329 1330.05 Q675.329 1323.68 678.755 1319.95 Q682.204 1316.2 688.037 1316.2 Q693.269 1316.2 696.301 1319.58 Q699.357 1322.94 699.357 1328.73 M695.098 1327.48 Q695.051 1323.98 693.13 1321.9 Q691.232 1319.82 688.084 1319.82 Q684.519 1319.82 682.366 1321.83 Q680.237 1323.84 679.912 1327.5 L695.098 1327.48 Z" fill="#000000" fill-rule="evenodd" fill-opacity="1" /><path clip-path="url(#clip680)" d="M710.468 1338.87 L710.468 1352.62 L706.185 1352.62 L706.185 1316.83 L710.468 1316.83 L710.468 1320.76 Q711.81 1318.45 713.847 1317.34 Q715.908 1316.2 718.755 1316.2 Q723.477 1316.2 726.417 1319.95 Q729.38 1323.7 729.38 1329.82 Q729.38 1335.93 726.417 1339.68 Q723.477 1343.43 718.755 1343.43 Q715.908 1343.43 713.847 1342.32 Q711.81 1341.18 710.468 1338.87 M724.959 1329.82 Q724.959 1325.12 723.014 1322.45 Q721.093 1319.77 717.713 1319.77 Q714.334 1319.77 712.389 1322.45 Q710.468 1325.12 710.468 1329.82 Q710.468 1334.51 712.389 1337.2 Q714.334 1339.86 717.713 1339.86 Q721.093 1339.86 723.014 1337.2 Q724.959 1334.51 724.959 1329.82 Z" fill="#000000" fill-rule="evenodd" fill-opacity="1" /><path clip-path="url(#clip680)" d="M748.222 1329.72 Q743.06 1329.72 741.07 1330.9 Q739.079 1332.08 739.079 1334.93 Q739.079 1337.2 740.56 1338.54 Q742.065 1339.86 744.634 1339.86 Q748.176 1339.86 750.306 1337.36 Q752.458 1334.84 752.458 1330.67 L752.458 1329.72 L748.222 1329.72 M756.718 1327.96 L756.718 1342.76 L752.458 1342.76 L752.458 1338.82 Q751 1341.18 748.824 1342.32 Q746.648 1343.43 743.5 1343.43 Q739.519 1343.43 737.158 1341.2 Q734.82 1338.96 734.82 1335.21 Q734.82 1330.83 737.736 1328.61 Q740.676 1326.39 746.486 1326.39 L752.458 1326.39 L752.458 1325.97 Q752.458 1323.03 750.514 1321.44 Q748.593 1319.82 745.097 1319.82 Q742.875 1319.82 740.769 1320.35 Q738.662 1320.88 736.718 1321.95 L736.718 1318.01 Q739.056 1317.11 741.255 1316.67 Q743.454 1316.2 745.537 1316.2 Q751.162 1316.2 753.94 1319.12 Q756.718 1322.04 756.718 1327.96 Z" fill="#000000" fill-rule="evenodd" fill-opacity="1" /><path clip-path="url(#clip680)" d="M787.042 1327.11 L787.042 1342.76 L782.782 1342.76 L782.782 1327.25 Q782.782 1323.57 781.347 1321.74 Q779.912 1319.91 777.042 1319.91 Q773.593 1319.91 771.602 1322.11 Q769.611 1324.31 769.611 1328.1 L769.611 1342.76 L765.329 1342.76 L765.329 1316.83 L769.611 1316.83 L769.611 1320.86 Q771.139 1318.52 773.199 1317.36 Q775.282 1316.2 777.991 1316.2 Q782.458 1316.2 784.75 1318.98 Q787.042 1321.74 787.042 1327.11 Z" fill="#000000" fill-rule="evenodd" fill-opacity="1" /><path clip-path="url(#clip680)" d="M814.194 1317.82 L814.194 1321.81 Q812.389 1320.81 810.56 1320.32 Q808.754 1319.82 806.903 1319.82 Q802.759 1319.82 800.467 1322.45 Q798.176 1325.07 798.176 1329.82 Q798.176 1334.56 800.467 1337.2 Q802.759 1339.82 806.903 1339.82 Q808.754 1339.82 810.56 1339.33 Q812.389 1338.82 814.194 1337.82 L814.194 1341.76 Q812.412 1342.59 810.49 1343.01 Q808.592 1343.43 806.44 1343.43 Q800.583 1343.43 797.134 1339.75 Q793.685 1336.07 793.685 1329.82 Q793.685 1323.47 797.157 1319.84 Q800.653 1316.2 806.717 1316.2 Q808.685 1316.2 810.56 1316.62 Q812.435 1317.01 814.194 1317.82 Z" fill="#000000" fill-rule="evenodd" fill-opacity="1" /><path clip-path="url(#clip680)" d="M832.388 1345.16 Q830.583 1349.79 828.87 1351.2 Q827.157 1352.62 824.287 1352.62 L820.884 1352.62 L820.884 1349.05 L823.384 1349.05 Q825.143 1349.05 826.115 1348.22 Q827.088 1347.38 828.268 1344.28 L829.032 1342.34 L818.546 1316.83 L823.06 1316.83 L831.162 1337.11 L839.263 1316.83 L843.777 1316.83 L832.388 1345.16 Z" fill="#000000" fill-rule="evenodd" fill-opacity="1" /><path clip-path="url(#clip680)" d="M864.726 1316.83 L868.986 1316.83 L868.986 1342.76 L864.726 1342.76 L864.726 1316.83 M864.726 1306.74 L868.986 1306.74 L868.986 1312.13 L864.726 1312.13 L864.726 1306.74 Z" fill="#000000" fill-rule="evenodd" fill-opacity="1" /><path clip-path="url(#clip680)" d="M899.448 1327.11 L899.448 1342.76 L895.189 1342.76 L895.189 1327.25 Q895.189 1323.57 893.754 1321.74 Q892.319 1319.91 889.448 1319.91 Q885.999 1319.91 884.009 1322.11 Q882.018 1324.31 882.018 1328.1 L882.018 1342.76 L877.735 1342.76 L877.735 1316.83 L882.018 1316.83 L882.018 1320.86 Q883.546 1318.52 885.606 1317.36 Q887.689 1316.2 890.397 1316.2 Q894.865 1316.2 897.157 1318.98 Q899.448 1321.74 899.448 1327.11 Z" fill="#000000" fill-rule="evenodd" fill-opacity="1" /><path clip-path="url(#clip680)" d="M939.541 1317.59 L939.541 1321.62 Q937.735 1320.7 935.791 1320.23 Q933.846 1319.77 931.763 1319.77 Q928.592 1319.77 926.994 1320.74 Q925.42 1321.71 925.42 1323.66 Q925.42 1325.14 926.555 1326 Q927.689 1326.83 931.115 1327.59 L932.573 1327.92 Q937.11 1328.89 939.008 1330.67 Q940.93 1332.43 940.93 1335.6 Q940.93 1339.21 938.059 1341.32 Q935.212 1343.43 930.212 1343.43 Q928.129 1343.43 925.86 1343.01 Q923.615 1342.62 921.115 1341.81 L921.115 1337.41 Q923.476 1338.63 925.768 1339.26 Q928.059 1339.86 930.305 1339.86 Q933.314 1339.86 934.934 1338.84 Q936.555 1337.8 936.555 1335.93 Q936.555 1334.19 935.374 1333.26 Q934.217 1332.34 930.258 1331.48 L928.777 1331.14 Q924.819 1330.3 923.059 1328.59 Q921.3 1326.85 921.3 1323.84 Q921.3 1320.19 923.893 1318.2 Q926.485 1316.2 931.254 1316.2 Q933.615 1316.2 935.698 1316.55 Q937.781 1316.9 939.541 1317.59 Z" fill="#000000" fill-rule="evenodd" fill-opacity="1" /><path clip-path="url(#clip680)" d="M957.758 1319.82 Q954.332 1319.82 952.342 1322.5 Q950.351 1325.16 950.351 1329.82 Q950.351 1334.47 952.318 1337.15 Q954.309 1339.82 957.758 1339.82 Q961.161 1339.82 963.152 1337.13 Q965.142 1334.45 965.142 1329.82 Q965.142 1325.21 963.152 1322.52 Q961.161 1319.82 957.758 1319.82 M957.758 1316.2 Q963.314 1316.2 966.485 1319.82 Q969.656 1323.43 969.656 1329.82 Q969.656 1336.18 966.485 1339.82 Q963.314 1343.43 957.758 1343.43 Q952.18 1343.43 949.008 1339.82 Q945.86 1336.18 945.86 1329.82 Q945.86 1323.43 949.008 1319.82 Q952.18 1316.2 957.758 1316.2 Z" fill="#000000" fill-rule="evenodd" fill-opacity="1" /><path clip-path="url(#clip680)" d="M976.716 1306.74 L980.976 1306.74 L980.976 1342.76 L976.716 1342.76 L976.716 1306.74 Z" fill="#000000" fill-rule="evenodd" fill-opacity="1" /><path clip-path="url(#clip680)" d="M989.448 1332.52 L989.448 1316.83 L993.707 1316.83 L993.707 1332.36 Q993.707 1336.04 995.142 1337.89 Q996.577 1339.72 999.448 1339.72 Q1002.9 1339.72 1004.89 1337.52 Q1006.9 1335.32 1006.9 1331.53 L1006.9 1316.83 L1011.16 1316.83 L1011.16 1342.76 L1006.9 1342.76 L1006.9 1338.77 Q1005.35 1341.13 1003.29 1342.29 Q1001.25 1343.43 998.545 1343.43 Q994.077 1343.43 991.763 1340.65 Q989.448 1337.87 989.448 1332.52 M1000.17 1316.2 L1000.17 1316.2 Z" fill="#000000" fill-rule="evenodd" fill-opacity="1" /><path clip-path="url(#clip680)" d="M1024.15 1309.47 L1024.15 1316.83 L1032.92 1316.83 L1032.92 1320.14 L1024.15 1320.14 L1024.15 1334.21 Q1024.15 1337.38 1025 1338.29 Q1025.88 1339.19 1028.54 1339.19 L1032.92 1339.19 L1032.92 1342.76 L1028.54 1342.76 Q1023.61 1342.76 1021.74 1340.93 Q1019.86 1339.07 1019.86 1334.21 L1019.86 1320.14 L1016.74 1320.14 L1016.74 1316.83 L1019.86 1316.83 L1019.86 1309.47 L1024.15 1309.47 Z" fill="#000000" fill-rule="evenodd" fill-opacity="1" /><path clip-path="url(#clip680)" d="M1038.52 1316.83 L1042.78 1316.83 L1042.78 1342.76 L1038.52 1342.76 L1038.52 1316.83 M1038.52 1306.74 L1042.78 1306.74 L1042.78 1312.13 L1038.52 1312.13 L1038.52 1306.74 Z" fill="#000000" fill-rule="evenodd" fill-opacity="1" /><path clip-path="url(#clip680)" d="M1061.74 1319.82 Q1058.31 1319.82 1056.32 1322.5 Q1054.33 1325.16 1054.33 1329.82 Q1054.33 1334.47 1056.3 1337.15 Q1058.29 1339.82 1061.74 1339.82 Q1065.14 1339.82 1067.13 1337.13 Q1069.12 1334.45 1069.12 1329.82 Q1069.12 1325.21 1067.13 1322.52 Q1065.14 1319.82 1061.74 1319.82 M1061.74 1316.2 Q1067.29 1316.2 1070.47 1319.82 Q1073.64 1323.43 1073.64 1329.82 Q1073.64 1336.18 1070.47 1339.82 Q1067.29 1343.43 1061.74 1343.43 Q1056.16 1343.43 1052.99 1339.82 Q1049.84 1336.18 1049.84 1329.82 Q1049.84 1323.43 1052.99 1319.82 Q1056.16 1316.2 1061.74 1316.2 Z" fill="#000000" fill-rule="evenodd" fill-opacity="1" /><path clip-path="url(#clip680)" d="M1102.25 1327.11 L1102.25 1342.76 L1097.99 1342.76 L1097.99 1327.25 Q1097.99 1323.57 1096.55 1321.74 Q1095.12 1319.91 1092.25 1319.91 Q1088.8 1319.91 1086.81 1322.11 Q1084.82 1324.31 1084.82 1328.1 L1084.82 1342.76 L1080.54 1342.76 L1080.54 1316.83 L1084.82 1316.83 L1084.82 1320.86 Q1086.35 1318.52 1088.41 1317.36 Q1090.49 1316.2 1093.2 1316.2 Q1097.66 1316.2 1099.96 1318.98 Q1102.25 1321.74 1102.25 1327.11 Z" fill="#000000" fill-rule="evenodd" fill-opacity="1" /><path clip-path="url(#clip680)" d="M1127.27 1317.59 L1127.27 1321.62 Q1125.47 1320.7 1123.52 1320.23 Q1121.58 1319.77 1119.49 1319.77 Q1116.32 1319.77 1114.72 1320.74 Q1113.15 1321.71 1113.15 1323.66 Q1113.15 1325.14 1114.29 1326 Q1115.42 1326.83 1118.85 1327.59 L1120.3 1327.92 Q1124.84 1328.89 1126.74 1330.67 Q1128.66 1332.43 1128.66 1335.6 Q1128.66 1339.21 1125.79 1341.32 Q1122.94 1343.43 1117.94 1343.43 Q1115.86 1343.43 1113.59 1343.01 Q1111.35 1342.62 1108.85 1341.81 L1108.85 1337.41 Q1111.21 1338.63 1113.5 1339.26 Q1115.79 1339.86 1118.04 1339.86 Q1121.04 1339.86 1122.66 1338.84 Q1124.29 1337.8 1124.29 1335.93 Q1124.29 1334.19 1123.1 1333.26 Q1121.95 1332.34 1117.99 1331.48 L1116.51 1331.14 Q1112.55 1330.3 1110.79 1328.59 Q1109.03 1326.85 1109.03 1323.84 Q1109.03 1320.19 1111.62 1318.2 Q1114.22 1316.2 1118.98 1316.2 Q1121.35 1316.2 1123.43 1316.55 Q1125.51 1316.9 1127.27 1317.59 Z" fill="#000000" fill-rule="evenodd" fill-opacity="1" /></svg>
