<?xml version="1.0" encoding="utf-8"?>
<svg xmlns="http://www.w3.org/2000/svg" xmlns:xlink="http://www.w3.org/1999/xlink" width="600" height="400" viewBox="0 0 2400 1600">
<defs>
  <clipPath id="clip520">
    <rect x="0" y="0" width="2400" height="1600"/>
  </clipPath>
</defs>
<path clip-path="url(#clip520)" d="M0 1600 L2400 1600 L2400 0 L0 0  Z" fill="#ffffff" fill-rule="evenodd" fill-opacity="1"/>
<defs>
  <clipPath id="clip521">
    <rect x="480" y="0" width="1681" height="1600"/>
  </clipPath>
</defs>
<defs>
  <clipPath id="clip522">
    <rect x="219" y="47" width="2134" height="1377"/>
  </clipPath>
</defs>
<path clip-path="url(#clip520)" d="M276.876 1423.18 L2352.76 1423.18 L2352.76 47.2441 L276.876 47.2441  Z" fill="#ffffff" fill-rule="evenodd" fill-opacity="1"/>
<defs>
  <clipPath id="clip523">
    <rect x="276" y="47" width="2077" height="1377"/>
  </clipPath>
</defs>
<polyline clip-path="url(#clip523)" style="stroke:#000000; stroke-linecap:round; stroke-linejoin:round; stroke-width:2; stroke-opacity:0.1; fill:none" points="276.876,1423.18 276.876,47.2441 "/>
<polyline clip-path="url(#clip523)" style="stroke:#000000; stroke-linecap:round; stroke-linejoin:round; stroke-width:2; stroke-opacity:0.1; fill:none" points="692.052,1423.18 692.052,47.2441 "/>
<polyline clip-path="url(#clip523)" style="stroke:#000000; stroke-linecap:round; stroke-linejoin:round; stroke-width:2; stroke-opacity:0.1; fill:none" points="1107.23,1423.18 1107.23,47.2441 "/>
<polyline clip-path="url(#clip523)" style="stroke:#000000; stroke-linecap:round; stroke-linejoin:round; stroke-width:2; stroke-opacity:0.1; fill:none" points="1522.4,1423.18 1522.4,47.2441 "/>
<polyline clip-path="url(#clip523)" style="stroke:#000000; stroke-linecap:round; stroke-linejoin:round; stroke-width:2; stroke-opacity:0.1; fill:none" points="1937.58,1423.18 1937.58,47.2441 "/>
<polyline clip-path="url(#clip523)" style="stroke:#000000; stroke-linecap:round; stroke-linejoin:round; stroke-width:2; stroke-opacity:0.1; fill:none" points="2352.76,1423.18 2352.76,47.2441 "/>
<polyline clip-path="url(#clip520)" style="stroke:#000000; stroke-linecap:round; stroke-linejoin:round; stroke-width:4; stroke-opacity:1; fill:none" points="276.876,1423.18 2352.76,1423.18 "/>
<polyline clip-path="url(#clip520)" style="stroke:#000000; stroke-linecap:round; stroke-linejoin:round; stroke-width:4; stroke-opacity:1; fill:none" points="276.876,1423.18 276.876,1404.28 "/>
<polyline clip-path="url(#clip520)" style="stroke:#000000; stroke-linecap:round; stroke-linejoin:round; stroke-width:4; stroke-opacity:1; fill:none" points="692.052,1423.18 692.052,1404.28 "/>
<polyline clip-path="url(#clip520)" style="stroke:#000000; stroke-linecap:round; stroke-linejoin:round; stroke-width:4; stroke-opacity:1; fill:none" points="1107.23,1423.18 1107.23,1404.28 "/>
<polyline clip-path="url(#clip520)" style="stroke:#000000; stroke-linecap:round; stroke-linejoin:round; stroke-width:4; stroke-opacity:1; fill:none" points="1522.4,1423.18 1522.4,1404.28 "/>
<polyline clip-path="url(#clip520)" style="stroke:#000000; stroke-linecap:round; stroke-linejoin:round; stroke-width:4; stroke-opacity:1; fill:none" points="1937.58,1423.18 1937.58,1404.28 "/>
<polyline clip-path="url(#clip520)" style="stroke:#000000; stroke-linecap:round; stroke-linejoin:round; stroke-width:4; stroke-opacity:1; fill:none" points="2352.76,1423.18 2352.76,1404.28 "/>
<path clip-path="url(#clip520)" d="M267.258 1481.64 L274.896 1481.64 L274.896 1455.28 L266.586 1456.95 L266.586 1452.69 L274.85 1451.02 L279.526 1451.02 L279.526 1481.64 L287.165 1481.64 L287.165 1485.58 L267.258 1485.58 L267.258 1481.64 Z" fill="#000000" fill-rule="evenodd" fill-opacity="1" /><path clip-path="url(#clip520)" d="M686.704 1481.64 L703.024 1481.64 L703.024 1485.58 L681.079 1485.58 L681.079 1481.64 Q683.741 1478.89 688.325 1474.26 Q692.931 1469.61 694.112 1468.27 Q696.357 1465.74 697.237 1464.01 Q698.14 1462.25 698.14 1460.56 Q698.14 1457.8 696.195 1456.07 Q694.274 1454.33 691.172 1454.33 Q688.973 1454.33 686.519 1455.09 Q684.089 1455.86 681.311 1457.41 L681.311 1452.69 Q684.135 1451.55 686.589 1450.97 Q689.042 1450.39 691.079 1450.39 Q696.45 1450.39 699.644 1453.08 Q702.839 1455.77 702.839 1460.26 Q702.839 1462.39 702.028 1464.31 Q701.241 1466.2 699.135 1468.8 Q698.556 1469.47 695.454 1472.69 Q692.353 1475.88 686.704 1481.64 Z" fill="#000000" fill-rule="evenodd" fill-opacity="1" /><path clip-path="url(#clip520)" d="M1111.48 1466.95 Q1114.83 1467.66 1116.71 1469.93 Q1118.6 1472.2 1118.6 1475.53 Q1118.6 1480.65 1115.09 1483.45 Q1111.57 1486.25 1105.09 1486.25 Q1102.91 1486.25 1100.6 1485.81 Q1098.3 1485.39 1095.85 1484.54 L1095.85 1480.02 Q1097.79 1481.16 1100.11 1481.74 Q1102.42 1482.32 1104.95 1482.32 Q1109.35 1482.32 1111.64 1480.58 Q1113.95 1478.84 1113.95 1475.53 Q1113.95 1472.48 1111.8 1470.77 Q1109.67 1469.03 1105.85 1469.03 L1101.82 1469.03 L1101.82 1465.19 L1106.04 1465.19 Q1109.48 1465.19 1111.31 1463.82 Q1113.14 1462.43 1113.14 1459.84 Q1113.14 1457.18 1111.24 1455.77 Q1109.37 1454.33 1105.85 1454.33 Q1103.93 1454.33 1101.73 1454.75 Q1099.53 1455.16 1096.89 1456.04 L1096.89 1451.88 Q1099.55 1451.14 1101.87 1450.77 Q1104.21 1450.39 1106.27 1450.39 Q1111.59 1450.39 1114.69 1452.83 Q1117.79 1455.23 1117.79 1459.35 Q1117.79 1462.22 1116.15 1464.21 Q1114.51 1466.18 1111.48 1466.95 Z" fill="#000000" fill-rule="evenodd" fill-opacity="1" /><path clip-path="url(#clip520)" d="M1525.41 1455.09 L1513.61 1473.54 L1525.41 1473.54 L1525.41 1455.09 M1524.19 1451.02 L1530.07 1451.02 L1530.07 1473.54 L1535 1473.54 L1535 1477.43 L1530.07 1477.43 L1530.07 1485.58 L1525.41 1485.58 L1525.41 1477.43 L1509.81 1477.43 L1509.81 1472.92 L1524.19 1451.02 Z" fill="#000000" fill-rule="evenodd" fill-opacity="1" /><path clip-path="url(#clip520)" d="M1927.86 1451.02 L1946.21 1451.02 L1946.21 1454.96 L1932.14 1454.96 L1932.14 1463.43 Q1933.16 1463.08 1934.18 1462.92 Q1935.2 1462.73 1936.21 1462.73 Q1942 1462.73 1945.38 1465.9 Q1948.76 1469.08 1948.76 1474.49 Q1948.76 1480.07 1945.29 1483.17 Q1941.82 1486.25 1935.5 1486.25 Q1933.32 1486.25 1931.05 1485.88 Q1928.81 1485.51 1926.4 1484.77 L1926.4 1480.07 Q1928.48 1481.2 1930.7 1481.76 Q1932.93 1482.32 1935.4 1482.32 Q1939.41 1482.32 1941.75 1480.21 Q1944.08 1478.1 1944.08 1474.49 Q1944.08 1470.88 1941.75 1468.77 Q1939.41 1466.67 1935.4 1466.67 Q1933.53 1466.67 1931.65 1467.08 Q1929.8 1467.5 1927.86 1468.38 L1927.86 1451.02 Z" fill="#000000" fill-rule="evenodd" fill-opacity="1" /><path clip-path="url(#clip520)" d="M2353.16 1466.44 Q2350.01 1466.44 2348.16 1468.59 Q2346.33 1470.74 2346.33 1474.49 Q2346.33 1478.22 2348.16 1480.39 Q2350.01 1482.55 2353.16 1482.55 Q2356.31 1482.55 2358.14 1480.39 Q2359.99 1478.22 2359.99 1474.49 Q2359.99 1470.74 2358.14 1468.59 Q2356.31 1466.44 2353.16 1466.44 M2362.44 1451.78 L2362.44 1456.04 Q2360.68 1455.21 2358.88 1454.77 Q2357.1 1454.33 2355.34 1454.33 Q2350.71 1454.33 2348.25 1457.45 Q2345.82 1460.58 2345.48 1466.9 Q2346.84 1464.89 2348.9 1463.82 Q2350.96 1462.73 2353.44 1462.73 Q2358.65 1462.73 2361.66 1465.9 Q2364.69 1469.05 2364.69 1474.49 Q2364.69 1479.82 2361.54 1483.03 Q2358.39 1486.25 2353.16 1486.25 Q2347.17 1486.25 2343.99 1481.67 Q2340.82 1477.06 2340.82 1468.33 Q2340.82 1460.14 2344.71 1455.28 Q2348.6 1450.39 2355.15 1450.39 Q2356.91 1450.39 2358.69 1450.74 Q2360.5 1451.09 2362.44 1451.78 Z" fill="#000000" fill-rule="evenodd" fill-opacity="1" /><path clip-path="url(#clip520)" d="M1016.57 1550.12 Q1009.47 1550.12 1006.73 1551.75 Q1003.99 1553.37 1003.99 1557.29 Q1003.99 1560.4 1006.03 1562.25 Q1008.1 1564.07 1011.63 1564.07 Q1016.5 1564.07 1019.43 1560.63 Q1022.39 1557.16 1022.39 1551.43 L1022.39 1550.12 L1016.57 1550.12 M1028.25 1547.71 L1028.25 1568.04 L1022.39 1568.04 L1022.39 1562.63 Q1020.39 1565.88 1017.39 1567.44 Q1014.4 1568.97 1010.07 1568.97 Q1004.6 1568.97 1001.35 1565.91 Q998.138 1562.82 998.138 1557.67 Q998.138 1551.65 1002.15 1548.6 Q1006.19 1545.54 1014.18 1545.54 L1022.39 1545.54 L1022.39 1544.97 Q1022.39 1540.93 1019.72 1538.73 Q1017.08 1536.5 1012.27 1536.5 Q1009.21 1536.5 1006.32 1537.23 Q1003.42 1537.97 1000.75 1539.43 L1000.75 1534.02 Q1003.96 1532.78 1006.99 1532.17 Q1010.01 1531.54 1012.87 1531.54 Q1020.61 1531.54 1024.43 1535.55 Q1028.25 1539.56 1028.25 1547.71 Z" fill="#000000" fill-rule="evenodd" fill-opacity="1" /><path clip-path="url(#clip520)" d="M1045.98 1562.7 L1045.98 1581.6 L1040.09 1581.6 L1040.09 1532.4 L1045.98 1532.4 L1045.98 1537.81 Q1047.82 1534.62 1050.62 1533.1 Q1053.46 1531.54 1057.37 1531.54 Q1063.86 1531.54 1067.91 1536.69 Q1071.98 1541.85 1071.98 1550.25 Q1071.98 1558.65 1067.91 1563.81 Q1063.86 1568.97 1057.37 1568.97 Q1053.46 1568.97 1050.62 1567.44 Q1047.82 1565.88 1045.98 1562.7 M1065.9 1550.25 Q1065.9 1543.79 1063.23 1540.13 Q1060.59 1536.44 1055.94 1536.44 Q1051.29 1536.44 1048.62 1540.13 Q1045.98 1543.79 1045.98 1550.25 Q1045.98 1556.71 1048.62 1560.4 Q1051.29 1564.07 1055.94 1564.07 Q1060.59 1564.07 1063.23 1560.4 Q1065.9 1556.71 1065.9 1550.25 Z" fill="#000000" fill-rule="evenodd" fill-opacity="1" /><path clip-path="url(#clip520)" d="M1087.35 1562.7 L1087.35 1581.6 L1081.46 1581.6 L1081.46 1532.4 L1087.35 1532.4 L1087.35 1537.81 Q1089.2 1534.62 1092 1533.1 Q1094.83 1531.54 1098.75 1531.54 Q1105.24 1531.54 1109.28 1536.69 Q1113.36 1541.85 1113.36 1550.25 Q1113.36 1558.65 1109.28 1563.81 Q1105.24 1568.97 1098.75 1568.97 Q1094.83 1568.97 1092 1567.44 Q1089.2 1565.88 1087.35 1562.7 M1107.28 1550.25 Q1107.28 1543.79 1104.6 1540.13 Q1101.96 1536.44 1097.32 1536.44 Q1092.67 1536.44 1089.99 1540.13 Q1087.35 1543.79 1087.35 1550.25 Q1087.35 1556.71 1089.99 1560.4 Q1092.67 1564.07 1097.32 1564.07 Q1101.96 1564.07 1104.6 1560.4 Q1107.28 1556.71 1107.28 1550.25 Z" fill="#000000" fill-rule="evenodd" fill-opacity="1" /><path clip-path="url(#clip520)" d="M1143.72 1537.87 Q1142.73 1537.3 1141.56 1537.04 Q1140.41 1536.76 1139.01 1536.76 Q1134.05 1536.76 1131.37 1540 Q1128.73 1543.22 1128.73 1549.27 L1128.73 1568.04 L1122.84 1568.04 L1122.84 1532.4 L1128.73 1532.4 L1128.73 1537.93 Q1130.58 1534.69 1133.54 1533.13 Q1136.5 1531.54 1140.73 1531.54 Q1141.33 1531.54 1142.07 1531.63 Q1142.8 1531.7 1143.69 1531.85 L1143.72 1537.87 Z" fill="#000000" fill-rule="evenodd" fill-opacity="1" /><path clip-path="url(#clip520)" d="M1162.25 1536.5 Q1157.54 1536.5 1154.8 1540.19 Q1152.06 1543.85 1152.06 1550.25 Q1152.06 1556.65 1154.77 1560.34 Q1157.5 1564 1162.25 1564 Q1166.92 1564 1169.66 1560.31 Q1172.4 1556.62 1172.4 1550.25 Q1172.4 1543.92 1169.66 1540.23 Q1166.92 1536.5 1162.25 1536.5 M1162.25 1531.54 Q1169.88 1531.54 1174.24 1536.5 Q1178.61 1541.47 1178.61 1550.25 Q1178.61 1559 1174.24 1564 Q1169.88 1568.97 1162.25 1568.97 Q1154.57 1568.97 1150.21 1564 Q1145.89 1559 1145.89 1550.25 Q1145.89 1541.47 1150.21 1536.5 Q1154.57 1531.54 1162.25 1531.54 Z" fill="#000000" fill-rule="evenodd" fill-opacity="1" /><path clip-path="url(#clip520)" d="M1215.94 1532.4 L1203.05 1549.74 L1216.61 1568.04 L1209.7 1568.04 L1199.33 1554.04 L1188.95 1568.04 L1182.04 1568.04 L1195.89 1549.39 L1183.22 1532.4 L1190.13 1532.4 L1199.58 1545.1 L1209.03 1532.4 L1215.94 1532.4 Z" fill="#000000" fill-rule="evenodd" fill-opacity="1" /><path clip-path="url(#clip520)" d="M1224.88 1532.4 L1230.74 1532.4 L1230.74 1568.04 L1224.88 1568.04 L1224.88 1532.4 M1224.88 1518.52 L1230.74 1518.52 L1230.74 1525.93 L1224.88 1525.93 L1224.88 1518.52 Z" fill="#000000" fill-rule="evenodd" fill-opacity="1" /><path clip-path="url(#clip520)" d="M1270.75 1539.24 Q1272.95 1535.29 1276 1533.41 Q1279.06 1531.54 1283.19 1531.54 Q1288.76 1531.54 1291.79 1535.45 Q1294.81 1539.33 1294.81 1546.53 L1294.81 1568.04 L1288.92 1568.04 L1288.92 1546.72 Q1288.92 1541.59 1287.11 1539.11 Q1285.29 1536.63 1281.57 1536.63 Q1277.02 1536.63 1274.38 1539.65 Q1271.74 1542.68 1271.74 1547.9 L1271.74 1568.04 L1265.85 1568.04 L1265.85 1546.72 Q1265.85 1541.56 1264.03 1539.11 Q1262.22 1536.63 1258.43 1536.63 Q1253.94 1536.63 1251.3 1539.68 Q1248.66 1542.71 1248.66 1547.9 L1248.66 1568.04 L1242.77 1568.04 L1242.77 1532.4 L1248.66 1532.4 L1248.66 1537.93 Q1250.67 1534.66 1253.47 1533.1 Q1256.27 1531.54 1260.12 1531.54 Q1264 1531.54 1266.71 1533.51 Q1269.44 1535.48 1270.75 1539.24 Z" fill="#000000" fill-rule="evenodd" fill-opacity="1" /><path clip-path="url(#clip520)" d="M1322.69 1550.12 Q1315.6 1550.12 1312.86 1551.75 Q1310.12 1553.37 1310.12 1557.29 Q1310.12 1560.4 1312.16 1562.25 Q1314.23 1564.07 1317.76 1564.07 Q1322.63 1564.07 1325.56 1560.63 Q1328.52 1557.16 1328.52 1551.43 L1328.52 1550.12 L1322.69 1550.12 M1334.37 1547.71 L1334.37 1568.04 L1328.52 1568.04 L1328.52 1562.63 Q1326.51 1565.88 1323.52 1567.44 Q1320.53 1568.97 1316.2 1568.97 Q1310.73 1568.97 1307.48 1565.91 Q1304.26 1562.82 1304.26 1557.67 Q1304.26 1551.65 1308.27 1548.6 Q1312.32 1545.54 1320.31 1545.54 L1328.52 1545.54 L1328.52 1544.97 Q1328.52 1540.93 1325.84 1538.73 Q1323.2 1536.5 1318.4 1536.5 Q1315.34 1536.5 1312.44 1537.23 Q1309.55 1537.97 1306.87 1539.43 L1306.87 1534.02 Q1310.09 1532.78 1313.11 1532.17 Q1316.14 1531.54 1319 1531.54 Q1326.74 1531.54 1330.55 1535.55 Q1334.37 1539.56 1334.37 1547.71 Z" fill="#000000" fill-rule="evenodd" fill-opacity="1" /><path clip-path="url(#clip520)" d="M1352.23 1522.27 L1352.23 1532.4 L1364.29 1532.4 L1364.29 1536.95 L1352.23 1536.95 L1352.23 1556.3 Q1352.23 1560.66 1353.41 1561.9 Q1354.62 1563.14 1358.28 1563.14 L1364.29 1563.14 L1364.29 1568.04 L1358.28 1568.04 Q1351.5 1568.04 1348.92 1565.53 Q1346.34 1562.98 1346.34 1556.3 L1346.34 1536.95 L1342.05 1536.95 L1342.05 1532.4 L1346.34 1532.4 L1346.34 1522.27 L1352.23 1522.27 Z" fill="#000000" fill-rule="evenodd" fill-opacity="1" /><path clip-path="url(#clip520)" d="M1372 1532.4 L1377.85 1532.4 L1377.85 1568.04 L1372 1568.04 L1372 1532.4 M1372 1518.52 L1377.85 1518.52 L1377.85 1525.93 L1372 1525.93 L1372 1518.52 Z" fill="#000000" fill-rule="evenodd" fill-opacity="1" /><path clip-path="url(#clip520)" d="M1403.92 1536.5 Q1399.21 1536.5 1396.47 1540.19 Q1393.73 1543.85 1393.73 1550.25 Q1393.73 1556.65 1396.44 1560.34 Q1399.18 1564 1403.92 1564 Q1408.6 1564 1411.34 1560.31 Q1414.07 1556.62 1414.07 1550.25 Q1414.07 1543.92 1411.34 1540.23 Q1408.6 1536.5 1403.92 1536.5 M1403.92 1531.54 Q1411.56 1531.54 1415.92 1536.5 Q1420.28 1541.47 1420.28 1550.25 Q1420.28 1559 1415.92 1564 Q1411.56 1568.97 1403.92 1568.97 Q1396.25 1568.97 1391.89 1564 Q1387.56 1559 1387.56 1550.25 Q1387.56 1541.47 1391.89 1536.5 Q1396.25 1531.54 1403.92 1531.54 Z" fill="#000000" fill-rule="evenodd" fill-opacity="1" /><path clip-path="url(#clip520)" d="M1459.62 1546.53 L1459.62 1568.04 L1453.76 1568.04 L1453.76 1546.72 Q1453.76 1541.66 1451.79 1539.14 Q1449.82 1536.63 1445.87 1536.63 Q1441.13 1536.63 1438.39 1539.65 Q1435.65 1542.68 1435.65 1547.9 L1435.65 1568.04 L1429.76 1568.04 L1429.76 1532.4 L1435.65 1532.4 L1435.65 1537.93 Q1437.75 1534.72 1440.59 1533.13 Q1443.45 1531.54 1447.17 1531.54 Q1453.32 1531.54 1456.47 1535.36 Q1459.62 1539.14 1459.62 1546.53 Z" fill="#000000" fill-rule="evenodd" fill-opacity="1" /><path clip-path="url(#clip520)" d="M1512.68 1537.87 Q1511.69 1537.3 1510.51 1537.04 Q1509.37 1536.76 1507.97 1536.76 Q1503 1536.76 1500.33 1540 Q1497.69 1543.22 1497.69 1549.27 L1497.69 1568.04 L1491.8 1568.04 L1491.8 1532.4 L1497.69 1532.4 L1497.69 1537.93 Q1499.53 1534.69 1502.49 1533.13 Q1505.45 1531.54 1509.69 1531.54 Q1510.29 1531.54 1511.02 1531.63 Q1511.75 1531.7 1512.65 1531.85 L1512.68 1537.87 Z" fill="#000000" fill-rule="evenodd" fill-opacity="1" /><path clip-path="url(#clip520)" d="M1535.02 1550.12 Q1527.92 1550.12 1525.19 1551.75 Q1522.45 1553.37 1522.45 1557.29 Q1522.45 1560.4 1524.49 1562.25 Q1526.56 1564.07 1530.09 1564.07 Q1534.96 1564.07 1537.89 1560.63 Q1540.85 1557.16 1540.85 1551.43 L1540.85 1550.12 L1535.02 1550.12 M1546.7 1547.71 L1546.7 1568.04 L1540.85 1568.04 L1540.85 1562.63 Q1538.84 1565.88 1535.85 1567.44 Q1532.86 1568.97 1528.53 1568.97 Q1523.05 1568.97 1519.81 1565.91 Q1516.59 1562.82 1516.59 1557.67 Q1516.59 1551.65 1520.6 1548.6 Q1524.65 1545.54 1532.63 1545.54 L1540.85 1545.54 L1540.85 1544.97 Q1540.85 1540.93 1538.17 1538.73 Q1535.53 1536.5 1530.72 1536.5 Q1527.67 1536.5 1524.77 1537.23 Q1521.88 1537.97 1519.2 1539.43 L1519.2 1534.02 Q1522.42 1532.78 1525.44 1532.17 Q1528.46 1531.54 1531.33 1531.54 Q1539.06 1531.54 1542.88 1535.55 Q1546.7 1539.56 1546.7 1547.71 Z" fill="#000000" fill-rule="evenodd" fill-opacity="1" /><path clip-path="url(#clip520)" d="M1588.4 1546.53 L1588.4 1568.04 L1582.54 1568.04 L1582.54 1546.72 Q1582.54 1541.66 1580.57 1539.14 Q1578.59 1536.63 1574.65 1536.63 Q1569.91 1536.63 1567.17 1539.65 Q1564.43 1542.68 1564.43 1547.9 L1564.43 1568.04 L1558.54 1568.04 L1558.54 1532.4 L1564.43 1532.4 L1564.43 1537.93 Q1566.53 1534.72 1569.36 1533.13 Q1572.23 1531.54 1575.95 1531.54 Q1582.1 1531.54 1585.25 1535.36 Q1588.4 1539.14 1588.4 1546.53 Z" fill="#000000" fill-rule="evenodd" fill-opacity="1" /><path clip-path="url(#clip520)" d="M1599.86 1518.52 L1605.74 1518.52 L1605.74 1547.77 L1623.22 1532.4 L1630.7 1532.4 L1611.79 1549.07 L1631.49 1568.04 L1623.85 1568.04 L1605.74 1550.63 L1605.74 1568.04 L1599.86 1568.04 L1599.86 1518.52 Z" fill="#000000" fill-rule="evenodd" fill-opacity="1" /><polyline clip-path="url(#clip523)" style="stroke:#000000; stroke-linecap:round; stroke-linejoin:round; stroke-width:2; stroke-opacity:0.1; fill:none" points="276.876,907.204 2352.76,907.204 "/>
<polyline clip-path="url(#clip523)" style="stroke:#000000; stroke-linecap:round; stroke-linejoin:round; stroke-width:2; stroke-opacity:0.1; fill:none" points="276.876,47.2441 2352.76,47.2441 "/>
<polyline clip-path="url(#clip520)" style="stroke:#000000; stroke-linecap:round; stroke-linejoin:round; stroke-width:4; stroke-opacity:1; fill:none" points="276.876,1423.18 276.876,47.2441 "/>
<polyline clip-path="url(#clip520)" style="stroke:#000000; stroke-linecap:round; stroke-linejoin:round; stroke-width:4; stroke-opacity:1; fill:none" points="276.876,907.204 295.773,907.204 "/>
<polyline clip-path="url(#clip520)" style="stroke:#000000; stroke-linecap:round; stroke-linejoin:round; stroke-width:4; stroke-opacity:1; fill:none" points="276.876,47.2441 295.773,47.2441 "/>
<path clip-path="url(#clip520)" d="M114.931 926.996 L122.57 926.996 L122.57 900.631 L114.26 902.297 L114.26 898.038 L122.524 896.372 L127.2 896.372 L127.2 926.996 L134.839 926.996 L134.839 930.932 L114.931 930.932 L114.931 926.996 Z" fill="#000000" fill-rule="evenodd" fill-opacity="1" /><path clip-path="url(#clip520)" d="M154.283 899.45 Q150.672 899.45 148.843 903.015 Q147.038 906.557 147.038 913.686 Q147.038 920.793 148.843 924.357 Q150.672 927.899 154.283 927.899 Q157.917 927.899 159.723 924.357 Q161.552 920.793 161.552 913.686 Q161.552 906.557 159.723 903.015 Q157.917 899.45 154.283 899.45 M154.283 895.747 Q160.093 895.747 163.149 900.353 Q166.227 904.936 166.227 913.686 Q166.227 922.413 163.149 927.02 Q160.093 931.603 154.283 931.603 Q148.473 931.603 145.394 927.02 Q142.339 922.413 142.339 913.686 Q142.339 904.936 145.394 900.353 Q148.473 895.747 154.283 895.747 Z" fill="#000000" fill-rule="evenodd" fill-opacity="1" /><path clip-path="url(#clip520)" d="M166.227 889.848 L190.339 889.848 L190.339 893.045 L166.227 893.045 L166.227 889.848 Z" fill="#000000" fill-rule="evenodd" fill-opacity="1" /><path clip-path="url(#clip520)" d="M199.197 900.324 L205.404 900.324 L205.404 878.902 L198.652 880.256 L198.652 876.795 L205.366 875.441 L209.166 875.441 L209.166 900.324 L215.372 900.324 L215.372 903.521 L199.197 903.521 L199.197 900.324 Z" fill="#000000" fill-rule="evenodd" fill-opacity="1" /><path clip-path="url(#clip520)" d="M231.171 877.943 Q228.237 877.943 226.751 880.839 Q225.284 883.717 225.284 889.509 Q225.284 895.283 226.751 898.18 Q228.237 901.057 231.171 901.057 Q234.124 901.057 235.591 898.18 Q237.076 895.283 237.076 889.509 Q237.076 883.717 235.591 880.839 Q234.124 877.943 231.171 877.943 M231.171 874.933 Q235.891 874.933 238.374 878.676 Q240.876 882.4 240.876 889.509 Q240.876 896.6 238.374 900.343 Q235.891 904.067 231.171 904.067 Q226.45 904.067 223.949 900.343 Q221.466 896.6 221.466 889.509 Q221.466 882.4 223.949 878.676 Q226.45 874.933 231.171 874.933 Z" fill="#000000" fill-rule="evenodd" fill-opacity="1" /><path clip-path="url(#clip520)" d="M170.17 67.0365 L177.809 67.0365 L177.809 40.6709 L169.499 42.3376 L169.499 38.0784 L177.762 36.4117 L182.438 36.4117 L182.438 67.0365 L190.077 67.0365 L190.077 70.9717 L170.17 70.9717 L170.17 67.0365 Z" fill="#000000" fill-rule="evenodd" fill-opacity="1" /><path clip-path="url(#clip520)" d="M209.522 39.4904 Q205.91 39.4904 204.082 43.0552 Q202.276 46.5968 202.276 53.7264 Q202.276 60.8329 204.082 64.3977 Q205.91 67.9393 209.522 67.9393 Q213.156 67.9393 214.961 64.3977 Q216.79 60.8329 216.79 53.7264 Q216.79 46.5968 214.961 43.0552 Q213.156 39.4904 209.522 39.4904 M209.522 35.7867 Q215.332 35.7867 218.387 40.3932 Q221.466 44.9765 221.466 53.7264 Q221.466 62.4532 218.387 67.0597 Q215.332 71.643 209.522 71.643 Q203.711 71.643 200.633 67.0597 Q197.577 62.4532 197.577 53.7264 Q197.577 44.9765 200.633 40.3932 Q203.711 35.7867 209.522 35.7867 Z" fill="#000000" fill-rule="evenodd" fill-opacity="1" /><path clip-path="url(#clip520)" d="M231.171 17.9827 Q228.237 17.9827 226.751 20.8791 Q225.284 23.7567 225.284 29.5495 Q225.284 35.3235 226.751 38.2199 Q228.237 41.0975 231.171 41.0975 Q234.124 41.0975 235.591 38.2199 Q237.076 35.3235 237.076 29.5495 Q237.076 23.7567 235.591 20.8791 Q234.124 17.9827 231.171 17.9827 M231.171 14.9735 Q235.891 14.9735 238.374 18.7162 Q240.876 22.4402 240.876 29.5495 Q240.876 36.64 238.374 40.3828 Q235.891 44.1067 231.171 44.1067 Q226.45 44.1067 223.949 40.3828 Q221.466 36.64 221.466 29.5495 Q221.466 22.4402 223.949 18.7162 Q226.45 14.9735 231.171 14.9735 Z" fill="#000000" fill-rule="evenodd" fill-opacity="1" /><path clip-path="url(#clip520)" d="M27.9392 757.108 Q28.6155 757.108 29.163 757.688 Q29.7105 758.236 29.7105 758.912 Q29.7105 759.298 29.0664 760.232 Q27.1985 762.905 27.1985 766.287 Q27.1985 769.314 27.9392 772.116 Q28.6799 774.918 30.1936 776.818 Q31.6751 778.686 33.6074 778.686 Q36.0229 778.686 37.4399 776.045 Q36.1839 773.308 36.1839 769.926 Q36.1839 768.831 36.2483 768.09 Q36.3127 767.318 36.4738 766.577 Q36.6348 765.836 37.0213 765.482 Q37.3755 765.095 37.9552 765.095 Q40.0164 765.095 40.0164 770.442 Q40.0164 773.92 39.0824 776.11 Q40.4673 778.912 42.6895 780.458 Q44.9117 782.003 46.8118 782.003 Q48.4543 782.003 49.646 781.102 Q50.8376 780.168 51.4173 778.654 Q51.997 777.108 52.2546 775.594 Q52.4801 774.049 52.4801 772.342 Q52.4801 769.54 52.1258 767.575 Q51.7393 765.578 51.0308 764.483 Q50.3223 763.356 49.8392 762.905 Q49.3239 762.422 48.5187 761.939 Q48.0679 761.649 48.0679 761.263 Q48.0679 760.973 48.2611 760.78 Q48.4221 760.554 48.712 760.554 Q49.0662 760.554 49.807 761.005 Q50.5477 761.424 51.5461 762.454 Q52.5123 763.453 53.414 764.838 Q54.2836 766.19 54.8955 768.348 Q55.5074 770.506 55.5074 772.954 Q55.5074 777.945 53.0598 780.844 Q50.6121 783.71 47.1983 783.71 Q44.8151 783.71 42.3674 782.132 Q39.8876 780.522 38.3095 777.688 Q36.3449 780.329 33.6074 780.329 Q31.1598 780.329 28.9698 778.268 Q26.7798 776.174 25.4916 772.793 Q24.1711 769.379 24.1711 765.643 Q24.1711 763.549 24.8796 761.488 Q25.556 759.427 26.4255 758.268 Q27.2951 757.108 27.9392 757.108 M38.0196 766.802 Q37.6332 768.219 37.6332 769.926 Q37.6332 772.245 38.2129 773.952 Q38.5671 772.567 38.5671 770.442 Q38.5671 768.67 38.4705 768.155 Q38.3739 767.607 38.0196 766.802 Z" fill="#000000" fill-rule="evenodd" fill-opacity="1" /><path clip-path="url(#clip520)" d="M57.1294 731.525 Q58.3243 731.525 59.0908 732.314 Q59.8573 733.08 59.8573 734.072 Q59.8573 734.929 59.3613 735.38 Q58.8653 735.831 58.2341 735.831 Q57.3323 735.831 56.5884 735.132 Q55.8444 734.433 55.6866 733.419 Q55.1455 734.162 55.1455 735.357 Q55.1455 737.319 56.656 739.055 Q57.3549 739.821 58.6399 740.655 Q59.9023 741.489 60.4434 741.647 L66.4627 743.112 Q67.139 743.248 70.3854 744.082 Q73.6092 744.893 73.7444 744.961 Q74.3757 745.187 74.7138 745.683 Q75.052 746.178 75.052 746.674 Q75.052 747.238 74.7138 747.621 Q74.3757 748.005 73.7895 748.005 Q73.6993 748.005 73.3612 747.937 Q73.023 747.869 72.5496 747.757 Q72.0762 747.644 71.8056 747.599 L61.1423 744.916 Q59.2035 744.42 58.5948 744.307 Q57.9636 744.172 57.2647 744.172 Q56.0473 744.172 55.5964 744.555 Q55.1455 744.939 55.1455 745.615 Q55.1455 746.787 56.5433 747.554 Q57.941 748.32 60.6463 748.974 Q61.3903 749.177 61.5481 749.312 Q61.7059 749.425 61.7059 749.763 Q61.6833 750.327 61.2324 750.327 Q61.1197 750.327 60.3983 750.146 Q59.6544 749.966 58.5722 749.628 Q57.4676 749.267 56.7687 748.884 Q56.2953 748.658 55.9797 748.455 Q55.6641 748.253 55.1681 747.847 Q54.6721 747.441 54.4016 746.832 Q54.1311 746.224 54.1311 745.48 Q54.1311 743.856 55.123 742.707 Q56.1149 741.534 57.6705 741.264 Q56.8589 740.7 56.16 740.001 Q55.4386 739.303 54.7848 738.018 Q54.1311 736.732 54.1311 735.357 Q54.1311 733.644 55.0103 732.584 Q55.867 731.525 57.1294 731.525 Z" fill="#000000" fill-rule="evenodd" fill-opacity="1" /><path clip-path="url(#clip520)" d="M69.1905 711.114 Q69.3934 710.934 69.5963 710.934 Q69.7992 710.934 70.3854 711.385 Q70.9715 711.813 71.7605 712.737 Q72.5496 713.662 73.2935 714.857 Q74.0375 716.051 74.5335 717.81 Q75.052 719.568 75.052 721.417 Q75.052 724.731 72.6849 726.715 Q70.3177 728.676 66.6881 728.676 Q64.3661 728.676 62.3146 727.91 Q60.2405 727.143 58.7751 725.903 Q57.3098 724.641 56.2502 723.063 Q55.1681 721.462 54.6496 719.794 Q54.1311 718.125 54.1311 716.57 Q54.1311 714.293 55.2808 712.963 Q56.4306 711.633 58.0537 711.633 Q58.437 711.633 58.9104 711.745 Q59.3838 711.836 60.1278 712.151 Q60.8717 712.444 61.6157 713.211 Q62.3371 713.977 62.8105 715.105 Q63.8701 717.607 63.8701 722.161 L63.8701 724.618 Q66.7783 725.34 68.672 725.34 Q69.416 725.34 70.1825 725.204 Q70.9264 725.069 71.8733 724.708 Q72.8201 724.325 73.4288 723.468 Q74.015 722.589 74.015 721.327 Q74.015 720.921 73.9924 720.493 Q73.9699 720.042 73.7219 718.914 Q73.4739 717.765 73.0456 716.75 Q72.6172 715.736 71.6929 714.451 Q70.7461 713.143 69.461 712.106 Q68.9876 711.745 68.9876 711.497 Q68.9876 711.295 69.1905 711.114 M58.0537 713.166 Q56.8138 713.166 55.9797 714.09 Q55.1455 714.992 55.1455 716.57 Q55.1455 717.066 55.2583 717.675 Q55.371 718.283 55.8444 719.298 Q56.3178 720.29 57.1069 721.169 Q57.8734 722.048 59.3838 722.927 Q60.8717 723.807 62.8556 724.325 L62.8556 722.431 Q62.8556 721.778 62.8556 721.304 Q62.8331 720.831 62.7429 719.794 Q62.6527 718.734 62.4949 717.968 Q62.3146 717.201 61.9539 716.232 Q61.5932 715.262 61.1197 714.654 Q60.6238 714.022 59.8347 713.594 Q59.0457 713.166 58.0537 713.166 Z" fill="#000000" fill-rule="evenodd" fill-opacity="1" /><path clip-path="url(#clip520)" d="M42.9943 697.5 L69.6865 704.15 Q70.7461 704.421 71.8958 704.421 Q74.015 704.421 74.015 703.023 Q74.015 702.369 73.5866 701.828 Q73.1357 701.287 72.2565 700.882 Q71.3548 700.453 70.4981 700.183 Q69.6414 699.89 68.3113 699.529 Q67.7928 699.416 67.635 699.303 Q67.4772 699.191 67.4772 698.875 Q67.4772 698.312 67.928 698.312 Q70.701 698.875 72.4594 699.709 Q75.052 700.927 75.052 703.181 Q75.052 704.872 73.8797 706.134 Q72.6849 707.374 70.7911 707.374 Q70.0697 707.374 69.2131 707.149 L46.1279 701.332 L45.2261 701.175 Q44.9782 701.175 44.8429 701.265 Q44.7076 701.355 44.5724 701.896 Q44.4371 702.415 44.4371 703.452 Q44.4371 703.88 44.4145 704.083 Q44.392 704.263 44.2793 704.444 Q44.1666 704.601 43.9186 704.601 Q43.5128 704.601 43.2873 704.444 Q43.0619 704.263 43.0168 704.128 Q42.9717 703.993 42.9492 703.722 Q42.9266 703.339 42.8139 702.054 Q42.6787 700.769 42.5885 699.664 Q42.4983 698.56 42.4983 698.086 Q42.4983 697.816 42.6336 697.68 Q42.7463 697.522 42.8815 697.5 L42.9943 697.5 Z" fill="#000000" fill-rule="evenodd" fill-opacity="1" /><polyline clip-path="url(#clip523)" style="stroke:#009af9; stroke-linecap:round; stroke-linejoin:round; stroke-width:4; stroke-opacity:1; fill:none" points="276.876,113.046 692.052,257.69 1107.23,271.51 1522.4,290.286 1937.58,318.254 2352.76,1423.18 "/>
<polyline clip-path="url(#clip523)" style="stroke:#e26f46; stroke-linecap:round; stroke-linejoin:round; stroke-width:4; stroke-opacity:1; fill:none" points="276.876,80.7762 692.052,250.275 1107.23,264.163 1522.4,283.194 1937.58,311.142 2352.76,1406.41 "/>
<polyline clip-path="url(#clip523)" style="stroke:#3da44d; stroke-linecap:round; stroke-linejoin:round; stroke-width:4; stroke-opacity:1; fill:none" points="276.876,82.2602 692.052,250.498 1107.23,264.321 1522.4,283.294 1937.58,311.195 2352.76,1405.98 "/>
<polyline clip-path="url(#clip523)" style="stroke:#c271d2; stroke-linecap:round; stroke-linejoin:round; stroke-width:4; stroke-opacity:1; fill:none" points="276.876,82.2253 692.052,250.501 1107.23,264.323 1522.4,283.295 1937.58,311.195 2352.76,1406.2 "/>
<path clip-path="url(#clip520)" d="M346.072 1377.32 L1111.57 1377.32 L1111.57 1118.12 L346.072 1118.12  Z" fill="#ffffff" fill-rule="evenodd" fill-opacity="1"/>
<polyline clip-path="url(#clip520)" style="stroke:#000000; stroke-linecap:round; stroke-linejoin:round; stroke-width:4; stroke-opacity:1; fill:none" points="346.072,1377.32 1111.57,1377.32 1111.57,1118.12 346.072,1118.12 346.072,1377.32 "/>
<polyline clip-path="url(#clip520)" style="stroke:#009af9; stroke-linecap:round; stroke-linejoin:round; stroke-width:4; stroke-opacity:1; fill:none" points="369.137,1169.96 507.529,1169.96 "/>
<path clip-path="url(#clip520)" d="M538.002 1153.95 L538.002 1161.31 L546.775 1161.31 L546.775 1164.62 L538.002 1164.62 L538.002 1178.69 Q538.002 1181.86 538.858 1182.77 Q539.738 1183.67 542.4 1183.67 L546.775 1183.67 L546.775 1187.24 L542.4 1187.24 Q537.469 1187.24 535.594 1185.41 Q533.719 1183.55 533.719 1178.69 L533.719 1164.62 L530.594 1164.62 L530.594 1161.31 L533.719 1161.31 L533.719 1153.95 L538.002 1153.95 Z" fill="#000000" fill-rule="evenodd" fill-opacity="1" /><path clip-path="url(#clip520)" d="M573.927 1171.59 L573.927 1187.24 L569.668 1187.24 L569.668 1171.73 Q569.668 1168.05 568.233 1166.22 Q566.798 1164.39 563.927 1164.39 Q560.478 1164.39 558.488 1166.59 Q556.497 1168.79 556.497 1172.58 L556.497 1187.24 L552.214 1187.24 L552.214 1151.22 L556.497 1151.22 L556.497 1165.34 Q558.025 1163 560.085 1161.84 Q562.168 1160.68 564.876 1160.68 Q569.344 1160.68 571.636 1163.46 Q573.927 1166.22 573.927 1171.59 Z" fill="#000000" fill-rule="evenodd" fill-opacity="1" /><path clip-path="url(#clip520)" d="M604.598 1173.21 L604.598 1175.29 L585.015 1175.29 Q585.293 1179.69 587.654 1182 Q590.038 1184.3 594.274 1184.3 Q596.728 1184.3 599.02 1183.69 Q601.335 1183.09 603.603 1181.89 L603.603 1185.92 Q601.311 1186.89 598.904 1187.4 Q596.497 1187.91 594.02 1187.91 Q587.816 1187.91 584.182 1184.3 Q580.571 1180.68 580.571 1174.53 Q580.571 1168.16 583.997 1164.43 Q587.446 1160.68 593.279 1160.68 Q598.511 1160.68 601.543 1164.06 Q604.598 1167.42 604.598 1173.21 M600.339 1171.96 Q600.293 1168.46 598.372 1166.38 Q596.474 1164.3 593.325 1164.3 Q589.761 1164.3 587.608 1166.31 Q585.478 1168.32 585.154 1171.98 L600.339 1171.96 Z" fill="#000000" fill-rule="evenodd" fill-opacity="1" /><path clip-path="url(#clip520)" d="M621.635 1164.3 Q618.209 1164.3 616.219 1166.98 Q614.228 1169.64 614.228 1174.3 Q614.228 1178.95 616.196 1181.63 Q618.186 1184.3 621.635 1184.3 Q625.038 1184.3 627.029 1181.61 Q629.02 1178.93 629.02 1174.3 Q629.02 1169.69 627.029 1167 Q625.038 1164.3 621.635 1164.3 M621.635 1160.68 Q627.191 1160.68 630.362 1164.3 Q633.533 1167.91 633.533 1174.3 Q633.533 1180.66 630.362 1184.3 Q627.191 1187.91 621.635 1187.91 Q616.057 1187.91 612.885 1184.3 Q609.737 1180.66 609.737 1174.3 Q609.737 1167.91 612.885 1164.3 Q616.057 1160.68 621.635 1160.68 Z" fill="#000000" fill-rule="evenodd" fill-opacity="1" /><path clip-path="url(#clip520)" d="M655.617 1165.29 Q654.899 1164.87 654.043 1164.69 Q653.209 1164.48 652.191 1164.48 Q648.58 1164.48 646.635 1166.84 Q644.714 1169.18 644.714 1173.58 L644.714 1187.24 L640.432 1187.24 L640.432 1161.31 L644.714 1161.31 L644.714 1165.34 Q646.057 1162.98 648.209 1161.84 Q650.362 1160.68 653.441 1160.68 Q653.881 1160.68 654.413 1160.75 Q654.945 1160.8 655.594 1160.92 L655.617 1165.29 Z" fill="#000000" fill-rule="evenodd" fill-opacity="1" /><path clip-path="url(#clip520)" d="M681.218 1173.21 L681.218 1175.29 L661.635 1175.29 Q661.913 1179.69 664.274 1182 Q666.658 1184.3 670.894 1184.3 Q673.348 1184.3 675.64 1183.69 Q677.955 1183.09 680.223 1181.89 L680.223 1185.92 Q677.931 1186.89 675.524 1187.4 Q673.117 1187.91 670.64 1187.91 Q664.436 1187.91 660.802 1184.3 Q657.191 1180.68 657.191 1174.53 Q657.191 1168.16 660.617 1164.43 Q664.066 1160.68 669.899 1160.68 Q675.13 1160.68 678.163 1164.06 Q681.218 1167.42 681.218 1173.21 M676.959 1171.96 Q676.913 1168.46 674.992 1166.38 Q673.093 1164.3 669.945 1164.3 Q666.381 1164.3 664.228 1166.31 Q662.098 1168.32 661.774 1171.98 L676.959 1171.96 Z" fill="#000000" fill-rule="evenodd" fill-opacity="1" /><path clip-path="url(#clip520)" d="M692.422 1153.95 L692.422 1161.31 L701.195 1161.31 L701.195 1164.62 L692.422 1164.62 L692.422 1178.69 Q692.422 1181.86 693.279 1182.77 Q694.158 1183.67 696.82 1183.67 L701.195 1183.67 L701.195 1187.24 L696.82 1187.24 Q691.89 1187.24 690.015 1185.41 Q688.14 1183.55 688.14 1178.69 L688.14 1164.62 L685.015 1164.62 L685.015 1161.31 L688.14 1161.31 L688.14 1153.95 L692.422 1153.95 Z" fill="#000000" fill-rule="evenodd" fill-opacity="1" /><path clip-path="url(#clip520)" d="M706.797 1161.31 L711.056 1161.31 L711.056 1187.24 L706.797 1187.24 L706.797 1161.31 M706.797 1151.22 L711.056 1151.22 L711.056 1156.61 L706.797 1156.61 L706.797 1151.22 Z" fill="#000000" fill-rule="evenodd" fill-opacity="1" /><path clip-path="url(#clip520)" d="M738.626 1162.3 L738.626 1166.29 Q736.82 1165.29 734.991 1164.8 Q733.186 1164.3 731.334 1164.3 Q727.19 1164.3 724.899 1166.93 Q722.607 1169.55 722.607 1174.3 Q722.607 1179.04 724.899 1181.68 Q727.19 1184.3 731.334 1184.3 Q733.186 1184.3 734.991 1183.81 Q736.82 1183.3 738.626 1182.3 L738.626 1186.24 Q736.843 1187.07 734.922 1187.49 Q733.024 1187.91 730.871 1187.91 Q725.014 1187.91 721.565 1184.23 Q718.116 1180.55 718.116 1174.3 Q718.116 1167.95 721.589 1164.32 Q725.084 1160.68 731.149 1160.68 Q733.116 1160.68 734.991 1161.1 Q736.866 1161.49 738.626 1162.3 Z" fill="#000000" fill-rule="evenodd" fill-opacity="1" /><path clip-path="url(#clip520)" d="M757.815 1174.2 Q752.653 1174.2 750.662 1175.38 Q748.672 1176.56 748.672 1179.41 Q748.672 1181.68 750.153 1183.02 Q751.658 1184.34 754.227 1184.34 Q757.769 1184.34 759.899 1181.84 Q762.051 1179.32 762.051 1175.15 L762.051 1174.2 L757.815 1174.2 M766.311 1172.44 L766.311 1187.24 L762.051 1187.24 L762.051 1183.3 Q760.593 1185.66 758.417 1186.8 Q756.241 1187.91 753.093 1187.91 Q749.112 1187.91 746.75 1185.68 Q744.413 1183.44 744.413 1179.69 Q744.413 1175.31 747.329 1173.09 Q750.269 1170.87 756.079 1170.87 L762.051 1170.87 L762.051 1170.45 Q762.051 1167.51 760.107 1165.92 Q758.186 1164.3 754.69 1164.3 Q752.468 1164.3 750.362 1164.83 Q748.255 1165.36 746.311 1166.43 L746.311 1162.49 Q748.649 1161.59 750.848 1161.15 Q753.047 1160.68 755.13 1160.68 Q760.755 1160.68 763.533 1163.6 Q766.311 1166.52 766.311 1172.44 Z" fill="#000000" fill-rule="evenodd" fill-opacity="1" /><path clip-path="url(#clip520)" d="M775.084 1151.22 L779.343 1151.22 L779.343 1187.24 L775.084 1187.24 L775.084 1151.22 Z" fill="#000000" fill-rule="evenodd" fill-opacity="1" /><path clip-path="url(#clip520)" d="M803.324 1151.22 L807.583 1151.22 L807.583 1187.24 L803.324 1187.24 L803.324 1151.22 Z" fill="#000000" fill-rule="evenodd" fill-opacity="1" /><path clip-path="url(#clip520)" d="M826.542 1164.3 Q823.116 1164.3 821.125 1166.98 Q819.134 1169.64 819.134 1174.3 Q819.134 1178.95 821.102 1181.63 Q823.093 1184.3 826.542 1184.3 Q829.944 1184.3 831.935 1181.61 Q833.926 1178.93 833.926 1174.3 Q833.926 1169.69 831.935 1167 Q829.944 1164.3 826.542 1164.3 M826.542 1160.68 Q832.097 1160.68 835.269 1164.3 Q838.44 1167.91 838.44 1174.3 Q838.44 1180.66 835.269 1184.3 Q832.097 1187.91 826.542 1187.91 Q820.963 1187.91 817.792 1184.3 Q814.644 1180.66 814.644 1174.3 Q814.644 1167.91 817.792 1164.3 Q820.963 1160.68 826.542 1160.68 Z" fill="#000000" fill-rule="evenodd" fill-opacity="1" /><path clip-path="url(#clip520)" d="M843.023 1161.31 L847.282 1161.31 L852.606 1181.54 L857.907 1161.31 L862.93 1161.31 L868.254 1181.54 L873.555 1161.31 L877.815 1161.31 L871.032 1187.24 L866.009 1187.24 L860.43 1165.99 L854.829 1187.24 L849.805 1187.24 L843.023 1161.31 Z" fill="#000000" fill-rule="evenodd" fill-opacity="1" /><path clip-path="url(#clip520)" d="M906.449 1173.21 L906.449 1175.29 L886.865 1175.29 Q887.143 1179.69 889.504 1182 Q891.889 1184.3 896.125 1184.3 Q898.578 1184.3 900.87 1183.69 Q903.185 1183.09 905.453 1181.89 L905.453 1185.92 Q903.162 1186.89 900.754 1187.4 Q898.347 1187.91 895.87 1187.91 Q889.666 1187.91 886.032 1184.3 Q882.421 1180.68 882.421 1174.53 Q882.421 1168.16 885.847 1164.43 Q889.296 1160.68 895.129 1160.68 Q900.361 1160.68 903.393 1164.06 Q906.449 1167.42 906.449 1173.21 M902.189 1171.96 Q902.143 1168.46 900.222 1166.38 Q898.324 1164.3 895.176 1164.3 Q891.611 1164.3 889.458 1166.31 Q887.328 1168.32 887.004 1171.98 L902.189 1171.96 Z" fill="#000000" fill-rule="evenodd" fill-opacity="1" /><path clip-path="url(#clip520)" d="M928.462 1165.29 Q927.745 1164.87 926.888 1164.69 Q926.055 1164.48 925.037 1164.48 Q921.425 1164.48 919.481 1166.84 Q917.56 1169.18 917.56 1173.58 L917.56 1187.24 L913.277 1187.24 L913.277 1161.31 L917.56 1161.31 L917.56 1165.34 Q918.902 1162.98 921.055 1161.84 Q923.208 1160.68 926.287 1160.68 Q926.726 1160.68 927.259 1160.75 Q927.791 1160.8 928.439 1160.92 L928.462 1165.29 Z" fill="#000000" fill-rule="evenodd" fill-opacity="1" /><path clip-path="url(#clip520)" d="M966.61 1174.3 Q966.61 1169.6 964.666 1166.93 Q962.745 1164.25 959.365 1164.25 Q955.985 1164.25 954.041 1166.93 Q952.12 1169.6 952.12 1174.3 Q952.12 1178.99 954.041 1181.68 Q955.985 1184.34 959.365 1184.34 Q962.745 1184.34 964.666 1181.68 Q966.61 1178.99 966.61 1174.3 M952.12 1165.24 Q953.462 1162.93 955.499 1161.82 Q957.56 1160.68 960.407 1160.68 Q965.129 1160.68 968.069 1164.43 Q971.032 1168.18 971.032 1174.3 Q971.032 1180.41 968.069 1184.16 Q965.129 1187.91 960.407 1187.91 Q957.56 1187.91 955.499 1186.8 Q953.462 1185.66 952.12 1183.35 L952.12 1187.24 L947.837 1187.24 L947.837 1151.22 L952.12 1151.22 L952.12 1165.24 Z" fill="#000000" fill-rule="evenodd" fill-opacity="1" /><path clip-path="url(#clip520)" d="M988.138 1164.3 Q984.712 1164.3 982.721 1166.98 Q980.731 1169.64 980.731 1174.3 Q980.731 1178.95 982.698 1181.63 Q984.689 1184.3 988.138 1184.3 Q991.541 1184.3 993.532 1181.61 Q995.522 1178.93 995.522 1174.3 Q995.522 1169.69 993.532 1167 Q991.541 1164.3 988.138 1164.3 M988.138 1160.68 Q993.694 1160.68 996.865 1164.3 Q1000.04 1167.91 1000.04 1174.3 Q1000.04 1180.66 996.865 1184.3 Q993.694 1187.91 988.138 1187.91 Q982.559 1187.91 979.388 1184.3 Q976.24 1180.66 976.24 1174.3 Q976.24 1167.91 979.388 1164.3 Q982.559 1160.68 988.138 1160.68 Z" fill="#000000" fill-rule="evenodd" fill-opacity="1" /><path clip-path="url(#clip520)" d="M1006.66 1177 L1006.66 1161.31 L1010.92 1161.31 L1010.92 1176.84 Q1010.92 1180.52 1012.35 1182.37 Q1013.79 1184.2 1016.66 1184.2 Q1020.11 1184.2 1022.1 1182 Q1024.11 1179.8 1024.11 1176.01 L1024.11 1161.31 L1028.37 1161.31 L1028.37 1187.24 L1024.11 1187.24 L1024.11 1183.25 Q1022.56 1185.61 1020.5 1186.77 Q1018.46 1187.91 1015.75 1187.91 Q1011.29 1187.91 1008.97 1185.13 Q1006.66 1182.35 1006.66 1177 M1017.37 1160.68 L1017.37 1160.68 Z" fill="#000000" fill-rule="evenodd" fill-opacity="1" /><path clip-path="url(#clip520)" d="M1058.69 1171.59 L1058.69 1187.24 L1054.43 1187.24 L1054.43 1171.73 Q1054.43 1168.05 1053 1166.22 Q1051.56 1164.39 1048.69 1164.39 Q1045.24 1164.39 1043.25 1166.59 Q1041.26 1168.79 1041.26 1172.58 L1041.26 1187.24 L1036.98 1187.24 L1036.98 1161.31 L1041.26 1161.31 L1041.26 1165.34 Q1042.79 1163 1044.85 1161.84 Q1046.93 1160.68 1049.64 1160.68 Q1054.11 1160.68 1056.4 1163.46 Q1058.69 1166.22 1058.69 1171.59 Z" fill="#000000" fill-rule="evenodd" fill-opacity="1" /><path clip-path="url(#clip520)" d="M1084.25 1165.24 L1084.25 1151.22 L1088.51 1151.22 L1088.51 1187.24 L1084.25 1187.24 L1084.25 1183.35 Q1082.91 1185.66 1080.85 1186.8 Q1078.81 1187.91 1075.94 1187.91 Q1071.24 1187.91 1068.28 1184.16 Q1065.34 1180.41 1065.34 1174.3 Q1065.34 1168.18 1068.28 1164.43 Q1071.24 1160.68 1075.94 1160.68 Q1078.81 1160.68 1080.85 1161.82 Q1082.91 1162.93 1084.25 1165.24 M1069.73 1174.3 Q1069.73 1178.99 1071.66 1181.68 Q1073.6 1184.34 1076.98 1184.34 Q1080.36 1184.34 1082.3 1181.68 Q1084.25 1178.99 1084.25 1174.3 Q1084.25 1169.6 1082.3 1166.93 Q1080.36 1164.25 1076.98 1164.25 Q1073.6 1164.25 1071.66 1166.93 Q1069.73 1169.6 1069.73 1174.3 Z" fill="#000000" fill-rule="evenodd" fill-opacity="1" /><polyline clip-path="url(#clip520)" style="stroke:#e26f46; stroke-linecap:round; stroke-linejoin:round; stroke-width:4; stroke-opacity:1; fill:none" points="369.137,1221.8 507.529,1221.8 "/>
<path clip-path="url(#clip520)" d="M552.307 1223.43 L552.307 1239.08 L548.048 1239.08 L548.048 1223.57 Q548.048 1219.89 546.613 1218.06 Q545.177 1216.23 542.307 1216.23 Q538.858 1216.23 536.867 1218.43 Q534.877 1220.63 534.877 1224.42 L534.877 1239.08 L530.594 1239.08 L530.594 1213.15 L534.877 1213.15 L534.877 1217.18 Q536.404 1214.84 538.465 1213.68 Q540.548 1212.52 543.256 1212.52 Q547.724 1212.52 550.015 1215.3 Q552.307 1218.06 552.307 1223.43 Z" fill="#000000" fill-rule="evenodd" fill-opacity="1" /><path clip-path="url(#clip520)" d="M572.585 1226.04 Q567.423 1226.04 565.432 1227.22 Q563.441 1228.4 563.441 1231.25 Q563.441 1233.52 564.923 1234.86 Q566.427 1236.18 568.997 1236.18 Q572.538 1236.18 574.668 1233.68 Q576.821 1231.16 576.821 1226.99 L576.821 1226.04 L572.585 1226.04 M581.08 1224.28 L581.08 1239.08 L576.821 1239.08 L576.821 1235.14 Q575.363 1237.5 573.187 1238.64 Q571.011 1239.75 567.863 1239.75 Q563.881 1239.75 561.52 1237.52 Q559.182 1235.28 559.182 1231.53 Q559.182 1227.15 562.099 1224.93 Q565.038 1222.71 570.849 1222.71 L576.821 1222.71 L576.821 1222.29 Q576.821 1219.35 574.876 1217.76 Q572.955 1216.14 569.46 1216.14 Q567.238 1216.14 565.131 1216.67 Q563.025 1217.2 561.08 1218.27 L561.08 1214.33 Q563.418 1213.43 565.617 1212.99 Q567.816 1212.52 569.9 1212.52 Q575.525 1212.52 578.302 1215.44 Q581.08 1218.36 581.08 1224.28 Z" fill="#000000" fill-rule="evenodd" fill-opacity="1" /><path clip-path="url(#clip520)" d="M589.853 1213.15 L594.112 1213.15 L594.112 1239.08 L589.853 1239.08 L589.853 1213.15 M589.853 1203.06 L594.112 1203.06 L594.112 1208.45 L589.853 1208.45 L589.853 1203.06 Z" fill="#000000" fill-rule="evenodd" fill-opacity="1" /><path clip-path="url(#clip520)" d="M599.969 1213.15 L604.483 1213.15 L612.585 1234.91 L620.686 1213.15 L625.2 1213.15 L615.478 1239.08 L609.691 1239.08 L599.969 1213.15 Z" fill="#000000" fill-rule="evenodd" fill-opacity="1" /><path clip-path="url(#clip520)" d="M653.256 1225.05 L653.256 1227.13 L633.672 1227.13 Q633.95 1231.53 636.311 1233.84 Q638.695 1236.14 642.932 1236.14 Q645.385 1236.14 647.677 1235.53 Q649.992 1234.93 652.26 1233.73 L652.26 1237.76 Q649.969 1238.73 647.561 1239.24 Q645.154 1239.75 642.677 1239.75 Q636.473 1239.75 632.839 1236.14 Q629.228 1232.52 629.228 1226.37 Q629.228 1220 632.654 1216.27 Q636.103 1212.52 641.936 1212.52 Q647.168 1212.52 650.2 1215.9 Q653.256 1219.26 653.256 1225.05 M648.996 1223.8 Q648.95 1220.3 647.029 1218.22 Q645.131 1216.14 641.983 1216.14 Q638.418 1216.14 636.265 1218.15 Q634.135 1220.16 633.811 1223.82 L648.996 1223.8 Z" fill="#000000" fill-rule="evenodd" fill-opacity="1" /><polyline clip-path="url(#clip520)" style="stroke:#3da44d; stroke-linecap:round; stroke-linejoin:round; stroke-width:4; stroke-opacity:1; fill:none" points="369.137,1273.64 507.529,1273.64 "/>
<path clip-path="url(#clip520)" d="M551.103 1265.98 L551.103 1269.97 Q549.298 1268.97 547.469 1268.48 Q545.664 1267.98 543.812 1267.98 Q539.668 1267.98 537.377 1270.61 Q535.085 1273.23 535.085 1277.98 Q535.085 1282.72 537.377 1285.36 Q539.668 1287.98 543.812 1287.98 Q545.664 1287.98 547.469 1287.49 Q549.298 1286.98 551.103 1285.98 L551.103 1289.92 Q549.321 1290.75 547.4 1291.17 Q545.502 1291.59 543.349 1291.59 Q537.492 1291.59 534.043 1287.91 Q530.594 1284.23 530.594 1277.98 Q530.594 1271.63 534.066 1268 Q537.562 1264.36 543.627 1264.36 Q545.594 1264.36 547.469 1264.78 Q549.344 1265.17 551.103 1265.98 Z" fill="#000000" fill-rule="evenodd" fill-opacity="1" /><path clip-path="url(#clip520)" d="M558.071 1280.68 L558.071 1264.99 L562.33 1264.99 L562.33 1280.52 Q562.33 1284.2 563.765 1286.05 Q565.201 1287.88 568.071 1287.88 Q571.52 1287.88 573.511 1285.68 Q575.525 1283.48 575.525 1279.69 L575.525 1264.99 L579.784 1264.99 L579.784 1290.92 L575.525 1290.92 L575.525 1286.93 Q573.974 1289.29 571.913 1290.45 Q569.876 1291.59 567.168 1291.59 Q562.701 1291.59 560.386 1288.81 Q558.071 1286.03 558.071 1280.68 M568.788 1264.36 L568.788 1264.36 Z" fill="#000000" fill-rule="evenodd" fill-opacity="1" /><path clip-path="url(#clip520)" d="M603.58 1268.97 Q602.862 1268.55 602.006 1268.37 Q601.173 1268.16 600.154 1268.16 Q596.543 1268.16 594.599 1270.52 Q592.677 1272.86 592.677 1277.26 L592.677 1290.92 L588.395 1290.92 L588.395 1264.99 L592.677 1264.99 L592.677 1269.02 Q594.02 1266.66 596.173 1265.52 Q598.325 1264.36 601.404 1264.36 Q601.844 1264.36 602.376 1264.43 Q602.909 1264.48 603.557 1264.6 L603.58 1268.97 Z" fill="#000000" fill-rule="evenodd" fill-opacity="1" /><path clip-path="url(#clip520)" d="M604.992 1264.99 L609.506 1264.99 L617.608 1286.75 L625.709 1264.99 L630.223 1264.99 L620.501 1290.92 L614.714 1290.92 L604.992 1264.99 Z" fill="#000000" fill-rule="evenodd" fill-opacity="1" /><path clip-path="url(#clip520)" d="M647.885 1277.88 Q642.723 1277.88 640.733 1279.06 Q638.742 1280.24 638.742 1283.09 Q638.742 1285.36 640.223 1286.7 Q641.728 1288.02 644.297 1288.02 Q647.839 1288.02 649.969 1285.52 Q652.121 1283 652.121 1278.83 L652.121 1277.88 L647.885 1277.88 M656.381 1276.12 L656.381 1290.92 L652.121 1290.92 L652.121 1286.98 Q650.663 1289.34 648.487 1290.48 Q646.311 1291.59 643.163 1291.59 Q639.182 1291.59 636.821 1289.36 Q634.483 1287.12 634.483 1283.37 Q634.483 1278.99 637.399 1276.77 Q640.339 1274.55 646.149 1274.55 L652.121 1274.55 L652.121 1274.13 Q652.121 1271.19 650.177 1269.6 Q648.256 1267.98 644.76 1267.98 Q642.538 1267.98 640.432 1268.51 Q638.325 1269.04 636.381 1270.11 L636.381 1266.17 Q638.719 1265.27 640.918 1264.83 Q643.117 1264.36 645.2 1264.36 Q650.825 1264.36 653.603 1267.28 Q656.381 1270.2 656.381 1276.12 Z" fill="#000000" fill-rule="evenodd" fill-opacity="1" /><path clip-path="url(#clip520)" d="M669.367 1257.63 L669.367 1264.99 L678.14 1264.99 L678.14 1268.3 L669.367 1268.3 L669.367 1282.37 Q669.367 1285.54 670.223 1286.45 Q671.103 1287.35 673.765 1287.35 L678.14 1287.35 L678.14 1290.92 L673.765 1290.92 Q668.834 1290.92 666.959 1289.09 Q665.084 1287.23 665.084 1282.37 L665.084 1268.3 L661.959 1268.3 L661.959 1264.99 L665.084 1264.99 L665.084 1257.63 L669.367 1257.63 Z" fill="#000000" fill-rule="evenodd" fill-opacity="1" /><path clip-path="url(#clip520)" d="M683.302 1280.68 L683.302 1264.99 L687.561 1264.99 L687.561 1280.52 Q687.561 1284.2 688.996 1286.05 Q690.431 1287.88 693.302 1287.88 Q696.751 1287.88 698.741 1285.68 Q700.755 1283.48 700.755 1279.69 L700.755 1264.99 L705.015 1264.99 L705.015 1290.92 L700.755 1290.92 L700.755 1286.93 Q699.204 1289.29 697.144 1290.45 Q695.107 1291.59 692.399 1291.59 Q687.931 1291.59 685.617 1288.81 Q683.302 1286.03 683.302 1280.68 M694.019 1264.36 L694.019 1264.36 Z" fill="#000000" fill-rule="evenodd" fill-opacity="1" /><path clip-path="url(#clip520)" d="M728.811 1268.97 Q728.093 1268.55 727.237 1268.37 Q726.403 1268.16 725.385 1268.16 Q721.774 1268.16 719.829 1270.52 Q717.908 1272.86 717.908 1277.26 L717.908 1290.92 L713.626 1290.92 L713.626 1264.99 L717.908 1264.99 L717.908 1269.02 Q719.251 1266.66 721.403 1265.52 Q723.556 1264.36 726.635 1264.36 Q727.075 1264.36 727.607 1264.43 Q728.139 1264.48 728.788 1264.6 L728.811 1268.97 Z" fill="#000000" fill-rule="evenodd" fill-opacity="1" /><path clip-path="url(#clip520)" d="M754.412 1276.89 L754.412 1278.97 L734.829 1278.97 Q735.107 1283.37 737.468 1285.68 Q739.852 1287.98 744.088 1287.98 Q746.542 1287.98 748.834 1287.37 Q751.149 1286.77 753.417 1285.57 L753.417 1289.6 Q751.125 1290.57 748.718 1291.08 Q746.311 1291.59 743.834 1291.59 Q737.63 1291.59 733.996 1287.98 Q730.385 1284.36 730.385 1278.21 Q730.385 1271.84 733.811 1268.11 Q737.26 1264.36 743.093 1264.36 Q748.325 1264.36 751.357 1267.74 Q754.412 1271.1 754.412 1276.89 M750.153 1275.64 Q750.107 1272.14 748.186 1270.06 Q746.288 1267.98 743.139 1267.98 Q739.575 1267.98 737.422 1269.99 Q735.292 1272 734.968 1275.66 L750.153 1275.64 Z" fill="#000000" fill-rule="evenodd" fill-opacity="1" /><path clip-path="url(#clip520)" d="M795.13 1265.98 L795.13 1269.97 Q793.324 1268.97 791.496 1268.48 Q789.69 1267.98 787.838 1267.98 Q783.695 1267.98 781.403 1270.61 Q779.111 1273.23 779.111 1277.98 Q779.111 1282.72 781.403 1285.36 Q783.695 1287.98 787.838 1287.98 Q789.69 1287.98 791.496 1287.49 Q793.324 1286.98 795.13 1285.98 L795.13 1289.92 Q793.347 1290.75 791.426 1291.17 Q789.528 1291.59 787.375 1291.59 Q781.519 1291.59 778.07 1287.91 Q774.621 1284.23 774.621 1277.98 Q774.621 1271.63 778.093 1268 Q781.588 1264.36 787.653 1264.36 Q789.621 1264.36 791.496 1264.78 Q793.371 1265.17 795.13 1265.98 Z" fill="#000000" fill-rule="evenodd" fill-opacity="1" /><path clip-path="url(#clip520)" d="M812.583 1267.98 Q809.158 1267.98 807.167 1270.66 Q805.176 1273.32 805.176 1277.98 Q805.176 1282.63 807.144 1285.31 Q809.134 1287.98 812.583 1287.98 Q815.986 1287.98 817.977 1285.29 Q819.968 1282.61 819.968 1277.98 Q819.968 1273.37 817.977 1270.68 Q815.986 1267.98 812.583 1267.98 M812.583 1264.36 Q818.139 1264.36 821.31 1267.98 Q824.482 1271.59 824.482 1277.98 Q824.482 1284.34 821.31 1287.98 Q818.139 1291.59 812.583 1291.59 Q807.005 1291.59 803.834 1287.98 Q800.685 1284.34 800.685 1277.98 Q800.685 1271.59 803.834 1267.98 Q807.005 1264.36 812.583 1264.36 Z" fill="#000000" fill-rule="evenodd" fill-opacity="1" /><path clip-path="url(#clip520)" d="M846.565 1268.97 Q845.847 1268.55 844.991 1268.37 Q844.157 1268.16 843.139 1268.16 Q839.528 1268.16 837.583 1270.52 Q835.662 1272.86 835.662 1277.26 L835.662 1290.92 L831.38 1290.92 L831.38 1264.99 L835.662 1264.99 L835.662 1269.02 Q837.005 1266.66 839.157 1265.52 Q841.31 1264.36 844.389 1264.36 Q844.829 1264.36 845.361 1264.43 Q845.893 1264.48 846.542 1264.6 L846.565 1268.97 Z" fill="#000000" fill-rule="evenodd" fill-opacity="1" /><path clip-path="url(#clip520)" d="M865.222 1268.97 Q864.504 1268.55 863.648 1268.37 Q862.815 1268.16 861.796 1268.16 Q858.185 1268.16 856.241 1270.52 Q854.319 1272.86 854.319 1277.26 L854.319 1290.92 L850.037 1290.92 L850.037 1264.99 L854.319 1264.99 L854.319 1269.02 Q855.662 1266.66 857.815 1265.52 Q859.967 1264.36 863.046 1264.36 Q863.486 1264.36 864.018 1264.43 Q864.551 1264.48 865.199 1264.6 L865.222 1268.97 Z" fill="#000000" fill-rule="evenodd" fill-opacity="1" /><path clip-path="url(#clip520)" d="M890.824 1276.89 L890.824 1278.97 L871.241 1278.97 Q871.518 1283.37 873.879 1285.68 Q876.264 1287.98 880.5 1287.98 Q882.953 1287.98 885.245 1287.37 Q887.56 1286.77 889.828 1285.57 L889.828 1289.6 Q887.537 1290.57 885.129 1291.08 Q882.722 1291.59 880.245 1291.59 Q874.041 1291.59 870.407 1287.98 Q866.796 1284.36 866.796 1278.21 Q866.796 1271.84 870.222 1268.11 Q873.671 1264.36 879.504 1264.36 Q884.736 1264.36 887.768 1267.74 Q890.824 1271.1 890.824 1276.89 M886.565 1275.64 Q886.518 1272.14 884.597 1270.06 Q882.699 1267.98 879.551 1267.98 Q875.986 1267.98 873.833 1269.99 Q871.704 1272 871.379 1275.66 L886.565 1275.64 Z" fill="#000000" fill-rule="evenodd" fill-opacity="1" /><path clip-path="url(#clip520)" d="M916.472 1265.98 L916.472 1269.97 Q914.666 1268.97 912.838 1268.48 Q911.032 1267.98 909.18 1267.98 Q905.037 1267.98 902.745 1270.61 Q900.453 1273.23 900.453 1277.98 Q900.453 1282.72 902.745 1285.36 Q905.037 1287.98 909.18 1287.98 Q911.032 1287.98 912.838 1287.49 Q914.666 1286.98 916.472 1285.98 L916.472 1289.92 Q914.689 1290.75 912.768 1291.17 Q910.87 1291.59 908.717 1291.59 Q902.861 1291.59 899.412 1287.91 Q895.963 1284.23 895.963 1277.98 Q895.963 1271.63 899.435 1268 Q902.93 1264.36 908.995 1264.36 Q910.963 1264.36 912.838 1264.78 Q914.713 1265.17 916.472 1265.98 Z" fill="#000000" fill-rule="evenodd" fill-opacity="1" /><path clip-path="url(#clip520)" d="M928.092 1257.63 L928.092 1264.99 L936.865 1264.99 L936.865 1268.3 L928.092 1268.3 L928.092 1282.37 Q928.092 1285.54 928.949 1286.45 Q929.828 1287.35 932.49 1287.35 L936.865 1287.35 L936.865 1290.92 L932.49 1290.92 Q927.56 1290.92 925.685 1289.09 Q923.81 1287.23 923.81 1282.37 L923.81 1268.3 L920.685 1268.3 L920.685 1264.99 L923.81 1264.99 L923.81 1257.63 L928.092 1257.63 Z" fill="#000000" fill-rule="evenodd" fill-opacity="1" /><path clip-path="url(#clip520)" d="M964.643 1276.89 L964.643 1278.97 L945.06 1278.97 Q945.337 1283.37 947.698 1285.68 Q950.083 1287.98 954.319 1287.98 Q956.772 1287.98 959.064 1287.37 Q961.379 1286.77 963.647 1285.57 L963.647 1289.6 Q961.356 1290.57 958.948 1291.08 Q956.541 1291.59 954.064 1291.59 Q947.861 1291.59 944.226 1287.98 Q940.615 1284.36 940.615 1278.21 Q940.615 1271.84 944.041 1268.11 Q947.49 1264.36 953.323 1264.36 Q958.555 1264.36 961.587 1267.74 Q964.643 1271.1 964.643 1276.89 M960.384 1275.64 Q960.337 1272.14 958.416 1270.06 Q956.518 1267.98 953.37 1267.98 Q949.805 1267.98 947.652 1269.99 Q945.523 1272 945.198 1275.66 L960.384 1275.64 Z" fill="#000000" fill-rule="evenodd" fill-opacity="1" /><path clip-path="url(#clip520)" d="M988.694 1268.92 L988.694 1254.9 L992.953 1254.9 L992.953 1290.92 L988.694 1290.92 L988.694 1287.03 Q987.351 1289.34 985.291 1290.48 Q983.254 1291.59 980.383 1291.59 Q975.684 1291.59 972.721 1287.84 Q969.782 1284.09 969.782 1277.98 Q969.782 1271.86 972.721 1268.11 Q975.684 1264.36 980.383 1264.36 Q983.254 1264.36 985.291 1265.5 Q987.351 1266.61 988.694 1268.92 M974.18 1277.98 Q974.18 1282.67 976.101 1285.36 Q978.046 1288.02 981.425 1288.02 Q984.805 1288.02 986.749 1285.36 Q988.694 1282.67 988.694 1277.98 Q988.694 1273.28 986.749 1270.61 Q984.805 1267.93 981.425 1267.93 Q978.046 1267.93 976.101 1270.61 Q974.18 1273.28 974.18 1277.98 Z" fill="#000000" fill-rule="evenodd" fill-opacity="1" /><polyline clip-path="url(#clip520)" style="stroke:#c271d2; stroke-linecap:round; stroke-linejoin:round; stroke-width:4; stroke-opacity:1; fill:none" points="369.137,1325.48 507.529,1325.48 "/>
<path clip-path="url(#clip520)" d="M554.622 1328.73 L554.622 1330.81 L535.039 1330.81 Q535.316 1335.21 537.678 1337.52 Q540.062 1339.82 544.298 1339.82 Q546.752 1339.82 549.043 1339.21 Q551.358 1338.61 553.627 1337.41 L553.627 1341.44 Q551.335 1342.41 548.927 1342.92 Q546.52 1343.43 544.043 1343.43 Q537.84 1343.43 534.205 1339.82 Q530.594 1336.2 530.594 1330.05 Q530.594 1323.68 534.02 1319.95 Q537.469 1316.2 543.302 1316.2 Q548.534 1316.2 551.566 1319.58 Q554.622 1322.94 554.622 1328.73 M550.363 1327.48 Q550.316 1323.98 548.395 1321.9 Q546.497 1319.82 543.349 1319.82 Q539.784 1319.82 537.631 1321.83 Q535.502 1323.84 535.178 1327.5 L550.363 1327.48 Z" fill="#000000" fill-rule="evenodd" fill-opacity="1" /><path clip-path="url(#clip520)" d="M582.33 1316.83 L572.955 1329.45 L582.816 1342.76 L577.793 1342.76 L570.247 1332.57 L562.701 1342.76 L557.677 1342.76 L567.747 1329.19 L558.534 1316.83 L563.557 1316.83 L570.432 1326.07 L577.307 1316.83 L582.33 1316.83 Z" fill="#000000" fill-rule="evenodd" fill-opacity="1" /><path clip-path="url(#clip520)" d="M600.617 1329.72 Q595.455 1329.72 593.464 1330.9 Q591.474 1332.08 591.474 1334.93 Q591.474 1337.2 592.955 1338.54 Q594.46 1339.86 597.029 1339.86 Q600.571 1339.86 602.7 1337.36 Q604.853 1334.84 604.853 1330.67 L604.853 1329.72 L600.617 1329.72 M609.112 1327.96 L609.112 1342.76 L604.853 1342.76 L604.853 1338.82 Q603.395 1341.18 601.219 1342.32 Q599.043 1343.43 595.895 1343.43 Q591.913 1343.43 589.552 1341.2 Q587.214 1338.96 587.214 1335.21 Q587.214 1330.83 590.131 1328.61 Q593.071 1326.39 598.881 1326.39 L604.853 1326.39 L604.853 1325.97 Q604.853 1323.03 602.909 1321.44 Q600.987 1319.82 597.492 1319.82 Q595.27 1319.82 593.163 1320.35 Q591.057 1320.88 589.112 1321.95 L589.112 1318.01 Q591.45 1317.11 593.649 1316.67 Q595.849 1316.2 597.932 1316.2 Q603.557 1316.2 606.335 1319.12 Q609.112 1322.04 609.112 1327.96 Z" fill="#000000" fill-rule="evenodd" fill-opacity="1" /><path clip-path="url(#clip520)" d="M636.543 1317.82 L636.543 1321.81 Q634.737 1320.81 632.908 1320.32 Q631.103 1319.82 629.251 1319.82 Q625.108 1319.82 622.816 1322.45 Q620.524 1325.07 620.524 1329.82 Q620.524 1334.56 622.816 1337.2 Q625.108 1339.82 629.251 1339.82 Q631.103 1339.82 632.908 1339.33 Q634.737 1338.82 636.543 1337.82 L636.543 1341.76 Q634.76 1342.59 632.839 1343.01 Q630.941 1343.43 628.788 1343.43 Q622.932 1343.43 619.483 1339.75 Q616.034 1336.07 616.034 1329.82 Q616.034 1323.47 619.506 1319.84 Q623.001 1316.2 629.066 1316.2 Q631.034 1316.2 632.908 1316.62 Q634.783 1317.01 636.543 1317.82 Z" fill="#000000" fill-rule="evenodd" fill-opacity="1" /><path clip-path="url(#clip520)" d="M648.163 1309.47 L648.163 1316.83 L656.936 1316.83 L656.936 1320.14 L648.163 1320.14 L648.163 1334.21 Q648.163 1337.38 649.02 1338.29 Q649.899 1339.19 652.561 1339.19 L656.936 1339.19 L656.936 1342.76 L652.561 1342.76 Q647.631 1342.76 645.756 1340.93 Q643.881 1339.07 643.881 1334.21 L643.881 1320.14 L640.756 1320.14 L640.756 1316.83 L643.881 1316.83 L643.881 1309.47 L648.163 1309.47 Z" fill="#000000" fill-rule="evenodd" fill-opacity="1" /></svg>
