<?xml version="1.0" encoding="utf-8"?>
<svg xmlns="http://www.w3.org/2000/svg" xmlns:xlink="http://www.w3.org/1999/xlink" width="600" height="400" viewBox="0 0 2400 1600">
<defs>
  <clipPath id="clip280">
    <rect x="0" y="0" width="2400" height="1600"/>
  </clipPath>
</defs>
<path clip-path="url(#clip280)" d="M0 1600 L2400 1600 L2400 0 L0 0  Z" fill="#ffffff" fill-rule="evenodd" fill-opacity="1"/>
<defs>
  <clipPath id="clip281">
    <rect x="480" y="0" width="1681" height="1600"/>
  </clipPath>
</defs>
<defs>
  <clipPath id="clip282">
    <rect x="219" y="47" width="2134" height="1377"/>
  </clipPath>
</defs>
<path clip-path="url(#clip280)" d="M251.842 1423.18 L2352.76 1423.18 L2352.76 47.2441 L251.842 47.2441  Z" fill="#ffffff" fill-rule="evenodd" fill-opacity="1"/>
<defs>
  <clipPath id="clip283">
    <rect x="251" y="47" width="2102" height="1377"/>
  </clipPath>
</defs>
<polyline clip-path="url(#clip283)" style="stroke:#000000; stroke-linecap:round; stroke-linejoin:round; stroke-width:2; stroke-opacity:0.1; fill:none" points="514.457,1423.18 514.457,47.2441 "/>
<polyline clip-path="url(#clip283)" style="stroke:#000000; stroke-linecap:round; stroke-linejoin:round; stroke-width:2; stroke-opacity:0.1; fill:none" points="1039.68,1423.18 1039.68,47.2441 "/>
<polyline clip-path="url(#clip283)" style="stroke:#000000; stroke-linecap:round; stroke-linejoin:round; stroke-width:2; stroke-opacity:0.1; fill:none" points="1564.91,1423.18 1564.91,47.2441 "/>
<polyline clip-path="url(#clip283)" style="stroke:#000000; stroke-linecap:round; stroke-linejoin:round; stroke-width:2; stroke-opacity:0.1; fill:none" points="2090.14,1423.18 2090.14,47.2441 "/>
<polyline clip-path="url(#clip280)" style="stroke:#000000; stroke-linecap:round; stroke-linejoin:round; stroke-width:4; stroke-opacity:1; fill:none" points="251.842,1423.18 2352.76,1423.18 "/>
<polyline clip-path="url(#clip280)" style="stroke:#000000; stroke-linecap:round; stroke-linejoin:round; stroke-width:4; stroke-opacity:1; fill:none" points="514.457,1423.18 514.457,1404.28 "/>
<polyline clip-path="url(#clip280)" style="stroke:#000000; stroke-linecap:round; stroke-linejoin:round; stroke-width:4; stroke-opacity:1; fill:none" points="1039.68,1423.18 1039.68,1404.28 "/>
<polyline clip-path="url(#clip280)" style="stroke:#000000; stroke-linecap:round; stroke-linejoin:round; stroke-width:4; stroke-opacity:1; fill:none" points="1564.91,1423.18 1564.91,1404.28 "/>
<polyline clip-path="url(#clip280)" style="stroke:#000000; stroke-linecap:round; stroke-linejoin:round; stroke-width:4; stroke-opacity:1; fill:none" points="2090.14,1423.18 2090.14,1404.28 "/>
<path clip-path="url(#clip280)" d="M509.109 1481.64 L525.429 1481.64 L525.429 1485.58 L503.484 1485.58 L503.484 1481.64 Q506.146 1478.89 510.73 1474.26 Q515.336 1469.61 516.517 1468.27 Q518.762 1465.74 519.642 1464.01 Q520.544 1462.25 520.544 1460.56 Q520.544 1457.8 518.6 1456.07 Q516.679 1454.33 513.577 1454.33 Q511.378 1454.33 508.924 1455.09 Q506.494 1455.86 503.716 1457.41 L503.716 1452.69 Q506.54 1451.55 508.994 1450.97 Q511.447 1450.39 513.484 1450.39 Q518.855 1450.39 522.049 1453.08 Q525.244 1455.77 525.244 1460.26 Q525.244 1462.39 524.433 1464.31 Q523.646 1466.2 521.54 1468.8 Q520.961 1469.47 517.859 1472.69 Q514.757 1475.88 509.109 1481.64 Z" fill="#000000" fill-rule="evenodd" fill-opacity="1" /><path clip-path="url(#clip280)" d="M1042.69 1455.09 L1030.89 1473.54 L1042.69 1473.54 L1042.69 1455.09 M1041.47 1451.02 L1047.35 1451.02 L1047.35 1473.54 L1052.28 1473.54 L1052.28 1477.43 L1047.35 1477.43 L1047.35 1485.58 L1042.69 1485.58 L1042.69 1477.43 L1027.09 1477.43 L1027.09 1472.92 L1041.47 1451.02 Z" fill="#000000" fill-rule="evenodd" fill-opacity="1" /><path clip-path="url(#clip280)" d="M1565.32 1466.44 Q1562.17 1466.44 1560.32 1468.59 Q1558.49 1470.74 1558.49 1474.49 Q1558.49 1478.22 1560.32 1480.39 Q1562.17 1482.55 1565.32 1482.55 Q1568.47 1482.55 1570.3 1480.39 Q1572.15 1478.22 1572.15 1474.49 Q1572.15 1470.74 1570.3 1468.59 Q1568.47 1466.44 1565.32 1466.44 M1574.6 1451.78 L1574.6 1456.04 Q1572.84 1455.21 1571.04 1454.77 Q1569.25 1454.33 1567.49 1454.33 Q1562.86 1454.33 1560.41 1457.45 Q1557.98 1460.58 1557.63 1466.9 Q1559 1464.89 1561.06 1463.82 Q1563.12 1462.73 1565.6 1462.73 Q1570.8 1462.73 1573.81 1465.9 Q1576.85 1469.05 1576.85 1474.49 Q1576.85 1479.82 1573.7 1483.03 Q1570.55 1486.25 1565.32 1486.25 Q1559.32 1486.25 1556.15 1481.67 Q1552.98 1477.06 1552.98 1468.33 Q1552.98 1460.14 1556.87 1455.28 Q1560.76 1450.39 1567.31 1450.39 Q1569.07 1450.39 1570.85 1450.74 Q1572.66 1451.09 1574.6 1451.78 Z" fill="#000000" fill-rule="evenodd" fill-opacity="1" /><path clip-path="url(#clip280)" d="M2090.14 1469.17 Q2086.81 1469.17 2084.89 1470.95 Q2082.99 1472.73 2082.99 1475.86 Q2082.99 1478.98 2084.89 1480.77 Q2086.81 1482.55 2090.14 1482.55 Q2093.48 1482.55 2095.4 1480.77 Q2097.32 1478.96 2097.32 1475.86 Q2097.32 1472.73 2095.4 1470.95 Q2093.5 1469.17 2090.14 1469.17 M2085.47 1467.18 Q2082.46 1466.44 2080.77 1464.38 Q2079.1 1462.32 2079.1 1459.35 Q2079.1 1455.21 2082.04 1452.8 Q2085 1450.39 2090.14 1450.39 Q2095.3 1450.39 2098.24 1452.8 Q2101.18 1455.21 2101.18 1459.35 Q2101.18 1462.32 2099.49 1464.38 Q2097.83 1466.44 2094.84 1467.18 Q2098.22 1467.96 2100.1 1470.26 Q2101.99 1472.55 2101.99 1475.86 Q2101.99 1480.88 2098.91 1483.57 Q2095.86 1486.25 2090.14 1486.25 Q2084.42 1486.25 2081.35 1483.57 Q2078.29 1480.88 2078.29 1475.86 Q2078.29 1472.55 2080.19 1470.26 Q2082.09 1467.96 2085.47 1467.18 M2083.75 1459.79 Q2083.75 1462.48 2085.42 1463.98 Q2087.11 1465.49 2090.14 1465.49 Q2093.15 1465.49 2094.84 1463.98 Q2096.55 1462.48 2096.55 1459.79 Q2096.55 1457.11 2094.84 1455.6 Q2093.15 1454.1 2090.14 1454.1 Q2087.11 1454.1 2085.42 1455.6 Q2083.75 1457.11 2083.75 1459.79 Z" fill="#000000" fill-rule="evenodd" fill-opacity="1" /><path clip-path="url(#clip280)" d="M1004.05 1550.12 Q996.952 1550.12 994.215 1551.75 Q991.478 1553.37 991.478 1557.29 Q991.478 1560.4 993.515 1562.25 Q995.583 1564.07 999.116 1564.07 Q1003.99 1564.07 1006.91 1560.63 Q1009.87 1557.16 1009.87 1551.43 L1009.87 1550.12 L1004.05 1550.12 M1015.73 1547.71 L1015.73 1568.04 L1009.87 1568.04 L1009.87 1562.63 Q1007.87 1565.88 1004.88 1567.44 Q1001.89 1568.97 997.557 1568.97 Q992.082 1568.97 988.836 1565.91 Q985.621 1562.82 985.621 1557.67 Q985.621 1551.65 989.632 1548.6 Q993.674 1545.54 1001.66 1545.54 L1009.87 1545.54 L1009.87 1544.97 Q1009.87 1540.93 1007.2 1538.73 Q1004.56 1536.5 999.753 1536.5 Q996.697 1536.5 993.801 1537.23 Q990.905 1537.97 988.231 1539.43 L988.231 1534.02 Q991.446 1532.78 994.469 1532.17 Q997.493 1531.54 1000.36 1531.54 Q1008.09 1531.54 1011.91 1535.55 Q1015.73 1539.56 1015.73 1547.71 Z" fill="#000000" fill-rule="evenodd" fill-opacity="1" /><path clip-path="url(#clip280)" d="M1033.46 1562.7 L1033.46 1581.6 L1027.57 1581.6 L1027.57 1532.4 L1033.46 1532.4 L1033.46 1537.81 Q1035.31 1534.62 1038.11 1533.1 Q1040.94 1531.54 1044.85 1531.54 Q1051.35 1531.54 1055.39 1536.69 Q1059.46 1541.85 1059.46 1550.25 Q1059.46 1558.65 1055.39 1563.81 Q1051.35 1568.97 1044.85 1568.97 Q1040.94 1568.97 1038.11 1567.44 Q1035.31 1565.88 1033.46 1562.7 M1053.38 1550.25 Q1053.38 1543.79 1050.71 1540.13 Q1048.07 1536.44 1043.42 1536.44 Q1038.77 1536.44 1036.1 1540.13 Q1033.46 1543.79 1033.46 1550.25 Q1033.46 1556.71 1036.1 1560.4 Q1038.77 1564.07 1043.42 1564.07 Q1048.07 1564.07 1050.71 1560.4 Q1053.38 1556.71 1053.38 1550.25 Z" fill="#000000" fill-rule="evenodd" fill-opacity="1" /><path clip-path="url(#clip280)" d="M1074.84 1562.7 L1074.84 1581.6 L1068.95 1581.6 L1068.95 1532.4 L1074.84 1532.4 L1074.84 1537.81 Q1076.68 1534.62 1079.48 1533.1 Q1082.32 1531.54 1086.23 1531.54 Q1092.72 1531.54 1096.77 1536.69 Q1100.84 1541.85 1100.84 1550.25 Q1100.84 1558.65 1096.77 1563.81 Q1092.72 1568.97 1086.23 1568.97 Q1082.32 1568.97 1079.48 1567.44 Q1076.68 1565.88 1074.84 1562.7 M1094.76 1550.25 Q1094.76 1543.79 1092.09 1540.13 Q1089.45 1536.44 1084.8 1536.44 Q1080.15 1536.44 1077.48 1540.13 Q1074.84 1543.79 1074.84 1550.25 Q1074.84 1556.71 1077.48 1560.4 Q1080.15 1564.07 1084.8 1564.07 Q1089.45 1564.07 1092.09 1560.4 Q1094.76 1556.71 1094.76 1550.25 Z" fill="#000000" fill-rule="evenodd" fill-opacity="1" /><path clip-path="url(#clip280)" d="M1131.2 1537.87 Q1130.22 1537.3 1129.04 1537.04 Q1127.89 1536.76 1126.49 1536.76 Q1121.53 1536.76 1118.86 1540 Q1116.21 1543.22 1116.21 1549.27 L1116.21 1568.04 L1110.33 1568.04 L1110.33 1532.4 L1116.21 1532.4 L1116.21 1537.93 Q1118.06 1534.69 1121.02 1533.13 Q1123.98 1531.54 1128.21 1531.54 Q1128.82 1531.54 1129.55 1531.63 Q1130.28 1531.7 1131.17 1531.85 L1131.2 1537.87 Z" fill="#000000" fill-rule="evenodd" fill-opacity="1" /><path clip-path="url(#clip280)" d="M1149.73 1536.5 Q1145.02 1536.5 1142.28 1540.19 Q1139.54 1543.85 1139.54 1550.25 Q1139.54 1556.65 1142.25 1560.34 Q1144.99 1564 1149.73 1564 Q1154.41 1564 1157.15 1560.31 Q1159.88 1556.62 1159.88 1550.25 Q1159.88 1543.92 1157.15 1540.23 Q1154.41 1536.5 1149.73 1536.5 M1149.73 1531.54 Q1157.37 1531.54 1161.73 1536.5 Q1166.09 1541.47 1166.09 1550.25 Q1166.09 1559 1161.73 1564 Q1157.37 1568.97 1149.73 1568.97 Q1142.06 1568.97 1137.7 1564 Q1133.37 1559 1133.37 1550.25 Q1133.37 1541.47 1137.7 1536.5 Q1142.06 1531.54 1149.73 1531.54 Z" fill="#000000" fill-rule="evenodd" fill-opacity="1" /><path clip-path="url(#clip280)" d="M1203.42 1532.4 L1190.53 1549.74 L1204.09 1568.04 L1197.19 1568.04 L1186.81 1554.04 L1176.43 1568.04 L1169.53 1568.04 L1183.37 1549.39 L1170.7 1532.4 L1177.61 1532.4 L1187.06 1545.1 L1196.52 1532.4 L1203.42 1532.4 Z" fill="#000000" fill-rule="evenodd" fill-opacity="1" /><path clip-path="url(#clip280)" d="M1212.37 1532.4 L1218.22 1532.4 L1218.22 1568.04 L1212.37 1568.04 L1212.37 1532.4 M1212.37 1518.52 L1218.22 1518.52 L1218.22 1525.93 L1212.37 1525.93 L1212.37 1518.52 Z" fill="#000000" fill-rule="evenodd" fill-opacity="1" /><path clip-path="url(#clip280)" d="M1258.23 1539.24 Q1260.43 1535.29 1263.48 1533.41 Q1266.54 1531.54 1270.68 1531.54 Q1276.25 1531.54 1279.27 1535.45 Q1282.29 1539.33 1282.29 1546.53 L1282.29 1568.04 L1276.41 1568.04 L1276.41 1546.72 Q1276.41 1541.59 1274.59 1539.11 Q1272.78 1536.63 1269.05 1536.63 Q1264.5 1536.63 1261.86 1539.65 Q1259.22 1542.68 1259.22 1547.9 L1259.22 1568.04 L1253.33 1568.04 L1253.33 1546.72 Q1253.33 1541.56 1251.52 1539.11 Q1249.7 1536.63 1245.91 1536.63 Q1241.43 1536.63 1238.79 1539.68 Q1236.14 1542.71 1236.14 1547.9 L1236.14 1568.04 L1230.26 1568.04 L1230.26 1532.4 L1236.14 1532.4 L1236.14 1537.93 Q1238.15 1534.66 1240.95 1533.1 Q1243.75 1531.54 1247.6 1531.54 Q1251.48 1531.54 1254.19 1533.51 Q1256.93 1535.48 1258.23 1539.24 Z" fill="#000000" fill-rule="evenodd" fill-opacity="1" /><path clip-path="url(#clip280)" d="M1310.18 1550.12 Q1303.08 1550.12 1300.34 1551.75 Q1297.6 1553.37 1297.6 1557.29 Q1297.6 1560.4 1299.64 1562.25 Q1301.71 1564.07 1305.24 1564.07 Q1310.11 1564.07 1313.04 1560.63 Q1316 1557.16 1316 1551.43 L1316 1550.12 L1310.18 1550.12 M1321.86 1547.71 L1321.86 1568.04 L1316 1568.04 L1316 1562.63 Q1314 1565.88 1311 1567.44 Q1308.01 1568.97 1303.68 1568.97 Q1298.21 1568.97 1294.96 1565.91 Q1291.75 1562.82 1291.75 1557.67 Q1291.75 1551.65 1295.76 1548.6 Q1299.8 1545.54 1307.79 1545.54 L1316 1545.54 L1316 1544.97 Q1316 1540.93 1313.33 1538.73 Q1310.69 1536.5 1305.88 1536.5 Q1302.82 1536.5 1299.93 1537.23 Q1297.03 1537.97 1294.36 1539.43 L1294.36 1534.02 Q1297.57 1532.78 1300.6 1532.17 Q1303.62 1531.54 1306.48 1531.54 Q1314.22 1531.54 1318.04 1535.55 Q1321.86 1539.56 1321.86 1547.71 Z" fill="#000000" fill-rule="evenodd" fill-opacity="1" /><path clip-path="url(#clip280)" d="M1339.71 1522.27 L1339.71 1532.4 L1351.78 1532.4 L1351.78 1536.95 L1339.71 1536.95 L1339.71 1556.3 Q1339.71 1560.66 1340.89 1561.9 Q1342.1 1563.14 1345.76 1563.14 L1351.78 1563.14 L1351.78 1568.04 L1345.76 1568.04 Q1338.98 1568.04 1336.4 1565.53 Q1333.83 1562.98 1333.83 1556.3 L1333.83 1536.95 L1329.53 1536.95 L1329.53 1532.4 L1333.83 1532.4 L1333.83 1522.27 L1339.71 1522.27 Z" fill="#000000" fill-rule="evenodd" fill-opacity="1" /><path clip-path="url(#clip280)" d="M1359.48 1532.4 L1365.34 1532.4 L1365.34 1568.04 L1359.48 1568.04 L1359.48 1532.4 M1359.48 1518.52 L1365.34 1518.52 L1365.34 1525.93 L1359.48 1525.93 L1359.48 1518.52 Z" fill="#000000" fill-rule="evenodd" fill-opacity="1" /><path clip-path="url(#clip280)" d="M1391.4 1536.5 Q1386.69 1536.5 1383.96 1540.19 Q1381.22 1543.85 1381.22 1550.25 Q1381.22 1556.65 1383.92 1560.34 Q1386.66 1564 1391.4 1564 Q1396.08 1564 1398.82 1560.31 Q1401.56 1556.62 1401.56 1550.25 Q1401.56 1543.92 1398.82 1540.23 Q1396.08 1536.5 1391.4 1536.5 M1391.4 1531.54 Q1399.04 1531.54 1403.4 1536.5 Q1407.76 1541.47 1407.76 1550.25 Q1407.76 1559 1403.4 1564 Q1399.04 1568.97 1391.4 1568.97 Q1383.73 1568.97 1379.37 1564 Q1375.04 1559 1375.04 1550.25 Q1375.04 1541.47 1379.37 1536.5 Q1383.73 1531.54 1391.4 1531.54 Z" fill="#000000" fill-rule="evenodd" fill-opacity="1" /><path clip-path="url(#clip280)" d="M1447.1 1546.53 L1447.1 1568.04 L1441.25 1568.04 L1441.25 1546.72 Q1441.25 1541.66 1439.27 1539.14 Q1437.3 1536.63 1433.35 1536.63 Q1428.61 1536.63 1425.87 1539.65 Q1423.14 1542.68 1423.14 1547.9 L1423.14 1568.04 L1417.25 1568.04 L1417.25 1532.4 L1423.14 1532.4 L1423.14 1537.93 Q1425.24 1534.72 1428.07 1533.13 Q1430.93 1531.54 1434.66 1531.54 Q1440.8 1531.54 1443.95 1535.36 Q1447.1 1539.14 1447.1 1546.53 Z" fill="#000000" fill-rule="evenodd" fill-opacity="1" /><path clip-path="url(#clip280)" d="M1500.16 1537.87 Q1499.17 1537.3 1498 1537.04 Q1496.85 1536.76 1495.45 1536.76 Q1490.49 1536.76 1487.81 1540 Q1485.17 1543.22 1485.17 1549.27 L1485.17 1568.04 L1479.28 1568.04 L1479.28 1532.4 L1485.17 1532.4 L1485.17 1537.93 Q1487.02 1534.69 1489.98 1533.13 Q1492.94 1531.54 1497.17 1531.54 Q1497.77 1531.54 1498.51 1531.63 Q1499.24 1531.7 1500.13 1531.85 L1500.16 1537.87 Z" fill="#000000" fill-rule="evenodd" fill-opacity="1" /><path clip-path="url(#clip280)" d="M1522.5 1550.12 Q1515.41 1550.12 1512.67 1551.75 Q1509.93 1553.37 1509.93 1557.29 Q1509.93 1560.4 1511.97 1562.25 Q1514.04 1564.07 1517.57 1564.07 Q1522.44 1564.07 1525.37 1560.63 Q1528.33 1557.16 1528.33 1551.43 L1528.33 1550.12 L1522.5 1550.12 M1534.19 1547.71 L1534.19 1568.04 L1528.33 1568.04 L1528.33 1562.63 Q1526.32 1565.88 1523.33 1567.44 Q1520.34 1568.97 1516.01 1568.97 Q1510.54 1568.97 1507.29 1565.91 Q1504.08 1562.82 1504.08 1557.67 Q1504.08 1551.65 1508.09 1548.6 Q1512.13 1545.54 1520.12 1545.54 L1528.33 1545.54 L1528.33 1544.97 Q1528.33 1540.93 1525.66 1538.73 Q1523.01 1536.5 1518.21 1536.5 Q1515.15 1536.5 1512.26 1537.23 Q1509.36 1537.97 1506.69 1539.43 L1506.69 1534.02 Q1509.9 1532.78 1512.92 1532.17 Q1515.95 1531.54 1518.81 1531.54 Q1526.55 1531.54 1530.37 1535.55 Q1534.19 1539.56 1534.19 1547.71 Z" fill="#000000" fill-rule="evenodd" fill-opacity="1" /><path clip-path="url(#clip280)" d="M1575.88 1546.53 L1575.88 1568.04 L1570.02 1568.04 L1570.02 1546.72 Q1570.02 1541.66 1568.05 1539.14 Q1566.08 1536.63 1562.13 1536.63 Q1557.39 1536.63 1554.65 1539.65 Q1551.91 1542.68 1551.91 1547.9 L1551.91 1568.04 L1546.03 1568.04 L1546.03 1532.4 L1551.91 1532.4 L1551.91 1537.93 Q1554.02 1534.72 1556.85 1533.13 Q1559.71 1531.54 1563.44 1531.54 Q1569.58 1531.54 1572.73 1535.36 Q1575.88 1539.14 1575.88 1546.53 Z" fill="#000000" fill-rule="evenodd" fill-opacity="1" /><path clip-path="url(#clip280)" d="M1587.34 1518.52 L1593.23 1518.52 L1593.23 1547.77 L1610.7 1532.4 L1618.18 1532.4 L1599.28 1549.07 L1618.98 1568.04 L1611.34 1568.04 L1593.23 1550.63 L1593.23 1568.04 L1587.34 1568.04 L1587.34 1518.52 Z" fill="#000000" fill-rule="evenodd" fill-opacity="1" /><polyline clip-path="url(#clip283)" style="stroke:#000000; stroke-linecap:round; stroke-linejoin:round; stroke-width:2; stroke-opacity:0.1; fill:none" points="251.842,1423.18 2352.76,1423.18 "/>
<polyline clip-path="url(#clip283)" style="stroke:#000000; stroke-linecap:round; stroke-linejoin:round; stroke-width:2; stroke-opacity:0.1; fill:none" points="251.842,964.535 2352.76,964.535 "/>
<polyline clip-path="url(#clip283)" style="stroke:#000000; stroke-linecap:round; stroke-linejoin:round; stroke-width:2; stroke-opacity:0.1; fill:none" points="251.842,505.889 2352.76,505.889 "/>
<polyline clip-path="url(#clip283)" style="stroke:#000000; stroke-linecap:round; stroke-linejoin:round; stroke-width:2; stroke-opacity:0.1; fill:none" points="251.842,47.2441 2352.76,47.2441 "/>
<polyline clip-path="url(#clip280)" style="stroke:#000000; stroke-linecap:round; stroke-linejoin:round; stroke-width:4; stroke-opacity:1; fill:none" points="251.842,1423.18 251.842,47.2441 "/>
<polyline clip-path="url(#clip280)" style="stroke:#000000; stroke-linecap:round; stroke-linejoin:round; stroke-width:4; stroke-opacity:1; fill:none" points="251.842,1423.18 270.74,1423.18 "/>
<polyline clip-path="url(#clip280)" style="stroke:#000000; stroke-linecap:round; stroke-linejoin:round; stroke-width:4; stroke-opacity:1; fill:none" points="251.842,964.535 270.74,964.535 "/>
<polyline clip-path="url(#clip280)" style="stroke:#000000; stroke-linecap:round; stroke-linejoin:round; stroke-width:4; stroke-opacity:1; fill:none" points="251.842,505.889 270.74,505.889 "/>
<polyline clip-path="url(#clip280)" style="stroke:#000000; stroke-linecap:round; stroke-linejoin:round; stroke-width:4; stroke-opacity:1; fill:none" points="251.842,47.2441 270.74,47.2441 "/>
<path clip-path="url(#clip280)" d="M114.931 1442.97 L122.57 1442.97 L122.57 1416.61 L114.26 1418.27 L114.26 1414.01 L122.524 1412.35 L127.2 1412.35 L127.2 1442.97 L134.839 1442.97 L134.839 1446.91 L114.931 1446.91 L114.931 1442.97 Z" fill="#000000" fill-rule="evenodd" fill-opacity="1" /><path clip-path="url(#clip280)" d="M154.283 1415.43 Q150.672 1415.43 148.843 1418.99 Q147.038 1422.53 147.038 1429.66 Q147.038 1436.77 148.843 1440.33 Q150.672 1443.88 154.283 1443.88 Q157.917 1443.88 159.723 1440.33 Q161.552 1436.77 161.552 1429.66 Q161.552 1422.53 159.723 1418.99 Q157.917 1415.43 154.283 1415.43 M154.283 1411.72 Q160.093 1411.72 163.149 1416.33 Q166.227 1420.91 166.227 1429.66 Q166.227 1438.39 163.149 1443 Q160.093 1447.58 154.283 1447.58 Q148.473 1447.58 145.394 1443 Q142.339 1438.39 142.339 1429.66 Q142.339 1420.91 145.394 1416.33 Q148.473 1411.72 154.283 1411.72 Z" fill="#000000" fill-rule="evenodd" fill-opacity="1" /><path clip-path="url(#clip280)" d="M166.227 1405.82 L190.339 1405.82 L190.339 1409.02 L166.227 1409.02 L166.227 1405.82 Z" fill="#000000" fill-rule="evenodd" fill-opacity="1" /><path clip-path="url(#clip280)" d="M210.05 1404.36 Q212.777 1404.94 214.3 1406.78 Q215.842 1408.63 215.842 1411.33 Q215.842 1415.49 212.984 1417.77 Q210.125 1420.04 204.859 1420.04 Q203.091 1420.04 201.21 1419.69 Q199.348 1419.35 197.354 1418.65 L197.354 1414.98 Q198.934 1415.9 200.815 1416.37 Q202.696 1416.85 204.746 1416.85 Q208.319 1416.85 210.181 1415.43 Q212.062 1414.02 212.062 1411.33 Q212.062 1408.85 210.313 1407.46 Q208.583 1406.05 205.479 1406.05 L202.207 1406.05 L202.207 1402.93 L205.63 1402.93 Q208.432 1402.93 209.918 1401.82 Q211.404 1400.69 211.404 1398.58 Q211.404 1396.42 209.861 1395.27 Q208.338 1394.11 205.479 1394.11 Q203.918 1394.11 202.132 1394.45 Q200.345 1394.78 198.201 1395.5 L198.201 1392.11 Q200.364 1391.51 202.244 1391.21 Q204.144 1390.91 205.818 1390.91 Q210.144 1390.91 212.664 1392.88 Q215.184 1394.84 215.184 1398.19 Q215.184 1400.52 213.849 1402.14 Q212.513 1403.74 210.05 1404.36 Z" fill="#000000" fill-rule="evenodd" fill-opacity="1" /><path clip-path="url(#clip280)" d="M115.703 984.327 L123.341 984.327 L123.341 957.961 L115.031 959.628 L115.031 955.369 L123.295 953.702 L127.971 953.702 L127.971 984.327 L135.61 984.327 L135.61 988.262 L115.703 988.262 L115.703 984.327 Z" fill="#000000" fill-rule="evenodd" fill-opacity="1" /><path clip-path="url(#clip280)" d="M155.054 956.781 Q151.443 956.781 149.614 960.346 Q147.809 963.887 147.809 971.017 Q147.809 978.123 149.614 981.688 Q151.443 985.23 155.054 985.23 Q158.688 985.23 160.494 981.688 Q162.323 978.123 162.323 971.017 Q162.323 963.887 160.494 960.346 Q158.688 956.781 155.054 956.781 M155.054 953.077 Q160.864 953.077 163.92 957.684 Q166.999 962.267 166.999 971.017 Q166.999 979.744 163.92 984.35 Q160.864 988.933 155.054 988.933 Q149.244 988.933 146.165 984.35 Q143.11 979.744 143.11 971.017 Q143.11 962.267 146.165 957.684 Q149.244 953.077 155.054 953.077 Z" fill="#000000" fill-rule="evenodd" fill-opacity="1" /><path clip-path="url(#clip280)" d="M166.999 947.179 L191.11 947.179 L191.11 950.376 L166.999 950.376 L166.999 947.179 Z" fill="#000000" fill-rule="evenodd" fill-opacity="1" /><path clip-path="url(#clip280)" d="M202.583 957.654 L215.842 957.654 L215.842 960.852 L198.013 960.852 L198.013 957.654 Q200.175 955.416 203.899 951.655 Q207.642 947.874 208.601 946.784 Q210.426 944.734 211.14 943.323 Q211.874 941.894 211.874 940.521 Q211.874 938.282 210.294 936.872 Q208.733 935.461 206.213 935.461 Q204.426 935.461 202.432 936.082 Q200.458 936.703 198.201 937.963 L198.201 934.126 Q200.495 933.204 202.489 932.734 Q204.482 932.264 206.138 932.264 Q210.501 932.264 213.096 934.446 Q215.692 936.627 215.692 940.276 Q215.692 942.006 215.034 943.567 Q214.394 945.11 212.683 947.216 Q212.212 947.762 209.692 950.376 Q207.172 952.971 202.583 957.654 Z" fill="#000000" fill-rule="evenodd" fill-opacity="1" /><path clip-path="url(#clip280)" d="M115.402 525.682 L123.04 525.682 L123.04 499.316 L114.73 500.983 L114.73 496.724 L122.994 495.057 L127.67 495.057 L127.67 525.682 L135.309 525.682 L135.309 529.617 L115.402 529.617 L115.402 525.682 Z" fill="#000000" fill-rule="evenodd" fill-opacity="1" /><path clip-path="url(#clip280)" d="M154.753 498.136 Q151.142 498.136 149.313 501.7 Q147.508 505.242 147.508 512.372 Q147.508 519.478 149.313 523.043 Q151.142 526.585 154.753 526.585 Q158.388 526.585 160.193 523.043 Q162.022 519.478 162.022 512.372 Q162.022 505.242 160.193 501.7 Q158.388 498.136 154.753 498.136 M154.753 494.432 Q160.563 494.432 163.619 499.038 Q166.698 503.622 166.698 512.372 Q166.698 521.098 163.619 525.705 Q160.563 530.288 154.753 530.288 Q148.943 530.288 145.864 525.705 Q142.809 521.098 142.809 512.372 Q142.809 503.622 145.864 499.038 Q148.943 494.432 154.753 494.432 Z" fill="#000000" fill-rule="evenodd" fill-opacity="1" /><path clip-path="url(#clip280)" d="M166.698 488.533 L190.809 488.533 L190.809 491.731 L166.698 491.731 L166.698 488.533 Z" fill="#000000" fill-rule="evenodd" fill-opacity="1" /><path clip-path="url(#clip280)" d="M199.668 499.009 L205.874 499.009 L205.874 477.587 L199.122 478.941 L199.122 475.481 L205.837 474.127 L209.636 474.127 L209.636 499.009 L215.842 499.009 L215.842 502.207 L199.668 502.207 L199.668 499.009 Z" fill="#000000" fill-rule="evenodd" fill-opacity="1" /><path clip-path="url(#clip280)" d="M145.137 67.0365 L152.776 67.0365 L152.776 40.6709 L144.465 42.3376 L144.465 38.0784 L152.729 36.4117 L157.405 36.4117 L157.405 67.0365 L165.044 67.0365 L165.044 70.9717 L145.137 70.9717 L145.137 67.0365 Z" fill="#000000" fill-rule="evenodd" fill-opacity="1" /><path clip-path="url(#clip280)" d="M184.488 39.4904 Q180.877 39.4904 179.049 43.0552 Q177.243 46.5968 177.243 53.7264 Q177.243 60.8329 179.049 64.3977 Q180.877 67.9393 184.488 67.9393 Q188.123 67.9393 189.928 64.3977 Q191.757 60.8329 191.757 53.7264 Q191.757 46.5968 189.928 43.0552 Q188.123 39.4904 184.488 39.4904 M184.488 35.7867 Q190.299 35.7867 193.354 40.3932 Q196.433 44.9765 196.433 53.7264 Q196.433 62.4532 193.354 67.0597 Q190.299 71.643 184.488 71.643 Q178.678 71.643 175.6 67.0597 Q172.544 62.4532 172.544 53.7264 Q172.544 44.9765 175.6 40.3932 Q178.678 35.7867 184.488 35.7867 Z" fill="#000000" fill-rule="evenodd" fill-opacity="1" /><path clip-path="url(#clip280)" d="M206.138 17.9827 Q203.204 17.9827 201.718 20.8791 Q200.251 23.7567 200.251 29.5495 Q200.251 35.3235 201.718 38.2199 Q203.204 41.0975 206.138 41.0975 Q209.09 41.0975 210.557 38.2199 Q212.043 35.3235 212.043 29.5495 Q212.043 23.7567 210.557 20.8791 Q209.09 17.9827 206.138 17.9827 M206.138 14.9735 Q210.858 14.9735 213.341 18.7162 Q215.842 22.4402 215.842 29.5495 Q215.842 36.64 213.341 40.3828 Q210.858 44.1067 206.138 44.1067 Q201.417 44.1067 198.915 40.3828 Q196.433 36.64 196.433 29.5495 Q196.433 22.4402 198.915 18.7162 Q201.417 14.9735 206.138 14.9735 Z" fill="#000000" fill-rule="evenodd" fill-opacity="1" /><path clip-path="url(#clip280)" d="M27.9392 757.108 Q28.6155 757.108 29.163 757.688 Q29.7105 758.236 29.7105 758.912 Q29.7105 759.298 29.0664 760.232 Q27.1985 762.905 27.1985 766.287 Q27.1985 769.314 27.9392 772.116 Q28.6799 774.918 30.1936 776.818 Q31.6751 778.686 33.6074 778.686 Q36.0229 778.686 37.4399 776.045 Q36.1839 773.308 36.1839 769.926 Q36.1839 768.831 36.2483 768.09 Q36.3127 767.318 36.4738 766.577 Q36.6348 765.836 37.0213 765.482 Q37.3755 765.095 37.9552 765.095 Q40.0164 765.095 40.0164 770.442 Q40.0164 773.92 39.0824 776.11 Q40.4673 778.912 42.6895 780.458 Q44.9117 782.003 46.8118 782.003 Q48.4543 782.003 49.646 781.102 Q50.8376 780.168 51.4173 778.654 Q51.997 777.108 52.2546 775.594 Q52.4801 774.049 52.4801 772.342 Q52.4801 769.54 52.1258 767.575 Q51.7393 765.578 51.0308 764.483 Q50.3223 763.356 49.8392 762.905 Q49.3239 762.422 48.5187 761.939 Q48.0679 761.649 48.0679 761.263 Q48.0679 760.973 48.2611 760.78 Q48.4221 760.554 48.712 760.554 Q49.0662 760.554 49.807 761.005 Q50.5477 761.424 51.5461 762.454 Q52.5123 763.453 53.414 764.838 Q54.2836 766.19 54.8955 768.348 Q55.5074 770.506 55.5074 772.954 Q55.5074 777.945 53.0598 780.844 Q50.6121 783.71 47.1983 783.71 Q44.8151 783.71 42.3674 782.132 Q39.8876 780.522 38.3095 777.688 Q36.3449 780.329 33.6074 780.329 Q31.1598 780.329 28.9698 778.268 Q26.7798 776.174 25.4916 772.793 Q24.1711 769.379 24.1711 765.643 Q24.1711 763.549 24.8796 761.488 Q25.556 759.427 26.4255 758.268 Q27.2951 757.108 27.9392 757.108 M38.0196 766.802 Q37.6332 768.219 37.6332 769.926 Q37.6332 772.245 38.2129 773.952 Q38.5671 772.567 38.5671 770.442 Q38.5671 768.67 38.4705 768.155 Q38.3739 767.607 38.0196 766.802 Z" fill="#000000" fill-rule="evenodd" fill-opacity="1" /><path clip-path="url(#clip280)" d="M57.1294 731.525 Q58.3243 731.525 59.0908 732.314 Q59.8573 733.08 59.8573 734.072 Q59.8573 734.929 59.3613 735.38 Q58.8653 735.831 58.2341 735.831 Q57.3323 735.831 56.5884 735.132 Q55.8444 734.433 55.6866 733.419 Q55.1455 734.162 55.1455 735.357 Q55.1455 737.319 56.656 739.055 Q57.3549 739.821 58.6399 740.655 Q59.9023 741.489 60.4434 741.647 L66.4627 743.112 Q67.139 743.248 70.3854 744.082 Q73.6092 744.893 73.7444 744.961 Q74.3757 745.187 74.7138 745.683 Q75.052 746.178 75.052 746.674 Q75.052 747.238 74.7138 747.621 Q74.3757 748.005 73.7895 748.005 Q73.6993 748.005 73.3612 747.937 Q73.023 747.869 72.5496 747.757 Q72.0762 747.644 71.8056 747.599 L61.1423 744.916 Q59.2035 744.42 58.5948 744.307 Q57.9636 744.172 57.2647 744.172 Q56.0473 744.172 55.5964 744.555 Q55.1455 744.939 55.1455 745.615 Q55.1455 746.787 56.5433 747.554 Q57.941 748.32 60.6463 748.974 Q61.3903 749.177 61.5481 749.312 Q61.7059 749.425 61.7059 749.763 Q61.6833 750.327 61.2324 750.327 Q61.1197 750.327 60.3983 750.146 Q59.6544 749.966 58.5722 749.628 Q57.4676 749.267 56.7687 748.884 Q56.2953 748.658 55.9797 748.455 Q55.6641 748.253 55.1681 747.847 Q54.6721 747.441 54.4016 746.832 Q54.1311 746.224 54.1311 745.48 Q54.1311 743.856 55.123 742.707 Q56.1149 741.534 57.6705 741.264 Q56.8589 740.7 56.16 740.001 Q55.4386 739.303 54.7848 738.018 Q54.1311 736.732 54.1311 735.357 Q54.1311 733.644 55.0103 732.584 Q55.867 731.525 57.1294 731.525 Z" fill="#000000" fill-rule="evenodd" fill-opacity="1" /><path clip-path="url(#clip280)" d="M69.1905 711.114 Q69.3934 710.934 69.5963 710.934 Q69.7992 710.934 70.3854 711.385 Q70.9715 711.813 71.7605 712.737 Q72.5496 713.662 73.2935 714.857 Q74.0375 716.051 74.5335 717.81 Q75.052 719.568 75.052 721.417 Q75.052 724.731 72.6849 726.715 Q70.3177 728.676 66.6881 728.676 Q64.3661 728.676 62.3146 727.91 Q60.2405 727.143 58.7751 725.903 Q57.3098 724.641 56.2502 723.063 Q55.1681 721.462 54.6496 719.794 Q54.1311 718.125 54.1311 716.57 Q54.1311 714.293 55.2808 712.963 Q56.4306 711.633 58.0537 711.633 Q58.437 711.633 58.9104 711.745 Q59.3838 711.836 60.1278 712.151 Q60.8717 712.444 61.6157 713.211 Q62.3371 713.977 62.8105 715.105 Q63.8701 717.607 63.8701 722.161 L63.8701 724.618 Q66.7783 725.34 68.672 725.34 Q69.416 725.34 70.1825 725.204 Q70.9264 725.069 71.8733 724.708 Q72.8201 724.325 73.4288 723.468 Q74.015 722.589 74.015 721.327 Q74.015 720.921 73.9924 720.493 Q73.9699 720.042 73.7219 718.914 Q73.4739 717.765 73.0456 716.75 Q72.6172 715.736 71.6929 714.451 Q70.7461 713.143 69.461 712.106 Q68.9876 711.745 68.9876 711.497 Q68.9876 711.295 69.1905 711.114 M58.0537 713.166 Q56.8138 713.166 55.9797 714.09 Q55.1455 714.992 55.1455 716.57 Q55.1455 717.066 55.2583 717.675 Q55.371 718.283 55.8444 719.298 Q56.3178 720.29 57.1069 721.169 Q57.8734 722.048 59.3838 722.927 Q60.8717 723.807 62.8556 724.325 L62.8556 722.431 Q62.8556 721.778 62.8556 721.304 Q62.8331 720.831 62.7429 719.794 Q62.6527 718.734 62.4949 717.968 Q62.3146 717.201 61.9539 716.232 Q61.5932 715.262 61.1197 714.654 Q60.6238 714.022 59.8347 713.594 Q59.0457 713.166 58.0537 713.166 Z" fill="#000000" fill-rule="evenodd" fill-opacity="1" /><path clip-path="url(#clip280)" d="M42.9943 697.5 L69.6865 704.15 Q70.7461 704.421 71.8958 704.421 Q74.015 704.421 74.015 703.023 Q74.015 702.369 73.5866 701.828 Q73.1357 701.287 72.2565 700.882 Q71.3548 700.453 70.4981 700.183 Q69.6414 699.89 68.3113 699.529 Q67.7928 699.416 67.635 699.303 Q67.4772 699.191 67.4772 698.875 Q67.4772 698.312 67.928 698.312 Q70.701 698.875 72.4594 699.709 Q75.052 700.927 75.052 703.181 Q75.052 704.872 73.8797 706.134 Q72.6849 707.374 70.7911 707.374 Q70.0697 707.374 69.2131 707.149 L46.1279 701.332 L45.2261 701.175 Q44.9782 701.175 44.8429 701.265 Q44.7076 701.355 44.5724 701.896 Q44.4371 702.415 44.4371 703.452 Q44.4371 703.88 44.4145 704.083 Q44.392 704.263 44.2793 704.444 Q44.1666 704.601 43.9186 704.601 Q43.5128 704.601 43.2873 704.444 Q43.0619 704.263 43.0168 704.128 Q42.9717 703.993 42.9492 703.722 Q42.9266 703.339 42.8139 702.054 Q42.6787 700.769 42.5885 699.664 Q42.4983 698.56 42.4983 698.086 Q42.4983 697.816 42.6336 697.68 Q42.7463 697.522 42.8815 697.5 L42.9943 697.5 Z" fill="#000000" fill-rule="evenodd" fill-opacity="1" /><polyline clip-path="url(#clip283)" style="stroke:#009af9; stroke-linecap:round; stroke-linejoin:round; stroke-width:4; stroke-opacity:1; fill:none" points="251.842,148.47 514.457,286.872 777.071,387.525 1039.68,493.664 1302.3,597.202 1564.91,738.975 1827.53,875.193 2090.14,1039.93 2352.76,1274.9 "/>
<polyline clip-path="url(#clip283)" style="stroke:#e26f46; stroke-linecap:round; stroke-linejoin:round; stroke-width:4; stroke-opacity:1; fill:none" points="251.842,123.244 514.457,210.843 777.071,329.775 1039.68,396.82 1302.3,483.108 1564.91,698.653 1827.53,853.638 2090.14,1017.26 2352.76,1269.01 "/>
<polyline clip-path="url(#clip283)" style="stroke:#3da44d; stroke-linecap:round; stroke-linejoin:round; stroke-width:4; stroke-opacity:1; fill:none" points="251.842,147.528 514.457,282.211 777.071,382.609 1039.68,483.976 1302.3,585.221 1564.91,730.902 1827.53,869.125 2090.14,1033.94 2352.76,1270.09 "/>
<path clip-path="url(#clip280)" d="M321.873 1377.32 L1071.78 1377.32 L1071.78 1169.96 L321.873 1169.96  Z" fill="#ffffff" fill-rule="evenodd" fill-opacity="1"/>
<polyline clip-path="url(#clip280)" style="stroke:#000000; stroke-linecap:round; stroke-linejoin:round; stroke-width:4; stroke-opacity:1; fill:none" points="321.873,1377.32 1071.78,1377.32 1071.78,1169.96 321.873,1169.96 321.873,1377.32 "/>
<polyline clip-path="url(#clip280)" style="stroke:#009af9; stroke-linecap:round; stroke-linejoin:round; stroke-width:4; stroke-opacity:1; fill:none" points="345.216,1221.8 485.277,1221.8 "/>
<path clip-path="url(#clip280)" d="M509.199 1213.15 L529.431 1213.15 L529.431 1217.04 L513.412 1235.67 L529.431 1235.67 L529.431 1239.08 L508.621 1239.08 L508.621 1235.19 L524.639 1216.55 L509.199 1216.55 L509.199 1213.15 Z" fill="#000000" fill-rule="evenodd" fill-opacity="1" /><path clip-path="url(#clip280)" d="M558.111 1225.05 L558.111 1227.13 L538.528 1227.13 Q538.806 1231.53 541.167 1233.84 Q543.551 1236.14 547.787 1236.14 Q550.241 1236.14 552.532 1235.53 Q554.847 1234.93 557.116 1233.73 L557.116 1237.76 Q554.824 1238.73 552.417 1239.24 Q550.009 1239.75 547.533 1239.75 Q541.329 1239.75 537.695 1236.14 Q534.084 1232.52 534.084 1226.37 Q534.084 1220 537.509 1216.27 Q540.958 1212.52 546.792 1212.52 Q552.023 1212.52 555.056 1215.9 Q558.111 1219.26 558.111 1225.05 M553.852 1223.8 Q553.806 1220.3 551.884 1218.22 Q549.986 1216.14 546.838 1216.14 Q543.273 1216.14 541.121 1218.15 Q538.991 1220.16 538.667 1223.82 L553.852 1223.8 Z" fill="#000000" fill-rule="evenodd" fill-opacity="1" /><path clip-path="url(#clip280)" d="M580.125 1217.13 Q579.407 1216.71 578.551 1216.53 Q577.718 1216.32 576.699 1216.32 Q573.088 1216.32 571.144 1218.68 Q569.222 1221.02 569.222 1225.42 L569.222 1239.08 L564.94 1239.08 L564.94 1213.15 L569.222 1213.15 L569.222 1217.18 Q570.565 1214.82 572.718 1213.68 Q574.87 1212.52 577.949 1212.52 Q578.389 1212.52 578.921 1212.59 Q579.454 1212.64 580.102 1212.76 L580.125 1217.13 Z" fill="#000000" fill-rule="evenodd" fill-opacity="1" /><path clip-path="url(#clip280)" d="M593.597 1216.14 Q590.171 1216.14 588.18 1218.82 Q586.19 1221.48 586.19 1226.14 Q586.19 1230.79 588.157 1233.47 Q590.148 1236.14 593.597 1236.14 Q597 1236.14 598.991 1233.45 Q600.981 1230.77 600.981 1226.14 Q600.981 1221.53 598.991 1218.84 Q597 1216.14 593.597 1216.14 M593.597 1212.52 Q599.153 1212.52 602.324 1216.14 Q605.495 1219.75 605.495 1226.14 Q605.495 1232.5 602.324 1236.14 Q599.153 1239.75 593.597 1239.75 Q588.018 1239.75 584.847 1236.14 Q581.699 1232.5 581.699 1226.14 Q581.699 1219.75 584.847 1216.14 Q588.018 1212.52 593.597 1212.52 Z" fill="#000000" fill-rule="evenodd" fill-opacity="1" /><path clip-path="url(#clip280)" d="M611.282 1224.19 L623.759 1224.19 L623.759 1227.99 L611.282 1227.99 L611.282 1224.19 Z" fill="#000000" fill-rule="evenodd" fill-opacity="1" /><path clip-path="url(#clip280)" d="M649.314 1209.05 Q646.953 1207.43 641.421 1207.43 Q635.564 1207.43 635.564 1210.14 Q635.564 1212.27 641.676 1213.38 Q646.49 1214.24 649.199 1216.83 Q652.486 1219.96 652.486 1226.37 Q652.486 1232.5 649.314 1236.11 Q646.143 1239.75 640.588 1239.75 Q635.055 1239.75 631.861 1236.11 Q628.689 1232.5 628.689 1226.14 Q628.689 1221.41 631.861 1217.59 Q633.088 1216.11 634.824 1215.28 Q631.213 1213.45 631.213 1210.19 Q631.213 1203.89 641.421 1203.89 Q646.537 1203.89 649.314 1205.51 L649.314 1209.05 M638.018 1216.44 Q636.444 1217.11 635.171 1218.8 Q633.18 1221.41 633.18 1226.14 Q633.18 1230.83 635.148 1233.47 Q637.139 1236.14 640.588 1236.14 Q643.99 1236.14 645.981 1233.45 Q647.972 1230.77 647.972 1226.37 Q647.972 1221.76 645.865 1219.54 Q643.62 1217.15 640.703 1216.9 Q639.222 1216.76 638.018 1216.44 Z" fill="#000000" fill-rule="evenodd" fill-opacity="1" /><path clip-path="url(#clip280)" d="M674.615 1203.06 L678.874 1203.06 L678.874 1239.08 L674.615 1239.08 L674.615 1203.06 Z" fill="#000000" fill-rule="evenodd" fill-opacity="1" /><path clip-path="url(#clip280)" d="M697.833 1216.14 Q694.407 1216.14 692.416 1218.82 Q690.425 1221.48 690.425 1226.14 Q690.425 1230.79 692.393 1233.47 Q694.384 1236.14 697.833 1236.14 Q701.235 1236.14 703.226 1233.45 Q705.217 1230.77 705.217 1226.14 Q705.217 1221.53 703.226 1218.84 Q701.235 1216.14 697.833 1216.14 M697.833 1212.52 Q703.388 1212.52 706.559 1216.14 Q709.731 1219.75 709.731 1226.14 Q709.731 1232.5 706.559 1236.14 Q703.388 1239.75 697.833 1239.75 Q692.254 1239.75 689.083 1236.14 Q685.935 1232.5 685.935 1226.14 Q685.935 1219.75 689.083 1216.14 Q692.254 1212.52 697.833 1212.52 Z" fill="#000000" fill-rule="evenodd" fill-opacity="1" /><path clip-path="url(#clip280)" d="M714.314 1213.15 L718.573 1213.15 L723.897 1233.38 L729.198 1213.15 L734.221 1213.15 L739.545 1233.38 L744.846 1213.15 L749.106 1213.15 L742.323 1239.08 L737.3 1239.08 L731.721 1217.83 L726.12 1239.08 L721.096 1239.08 L714.314 1213.15 Z" fill="#000000" fill-rule="evenodd" fill-opacity="1" /><path clip-path="url(#clip280)" d="M777.74 1225.05 L777.74 1227.13 L758.156 1227.13 Q758.434 1231.53 760.795 1233.84 Q763.18 1236.14 767.416 1236.14 Q769.869 1236.14 772.161 1235.53 Q774.476 1234.93 776.744 1233.73 L776.744 1237.76 Q774.453 1238.73 772.045 1239.24 Q769.638 1239.75 767.161 1239.75 Q760.957 1239.75 757.323 1236.14 Q753.712 1232.52 753.712 1226.37 Q753.712 1220 757.138 1216.27 Q760.587 1212.52 766.42 1212.52 Q771.652 1212.52 774.684 1215.9 Q777.74 1219.26 777.74 1225.05 M773.48 1223.8 Q773.434 1220.3 771.513 1218.22 Q769.615 1216.14 766.467 1216.14 Q762.902 1216.14 760.749 1218.15 Q758.619 1220.16 758.295 1223.82 L773.48 1223.8 Z" fill="#000000" fill-rule="evenodd" fill-opacity="1" /><path clip-path="url(#clip280)" d="M799.753 1217.13 Q799.036 1216.71 798.179 1216.53 Q797.346 1216.32 796.327 1216.32 Q792.716 1216.32 790.772 1218.68 Q788.851 1221.02 788.851 1225.42 L788.851 1239.08 L784.568 1239.08 L784.568 1213.15 L788.851 1213.15 L788.851 1217.18 Q790.193 1214.82 792.346 1213.68 Q794.499 1212.52 797.577 1212.52 Q798.017 1212.52 798.55 1212.59 Q799.082 1212.64 799.73 1212.76 L799.753 1217.13 Z" fill="#000000" fill-rule="evenodd" fill-opacity="1" /><path clip-path="url(#clip280)" d="M837.901 1226.14 Q837.901 1221.44 835.957 1218.77 Q834.036 1216.09 830.656 1216.09 Q827.276 1216.09 825.332 1218.77 Q823.411 1221.44 823.411 1226.14 Q823.411 1230.83 825.332 1233.52 Q827.276 1236.18 830.656 1236.18 Q834.036 1236.18 835.957 1233.52 Q837.901 1230.83 837.901 1226.14 M823.411 1217.08 Q824.753 1214.77 826.79 1213.66 Q828.85 1212.52 831.698 1212.52 Q836.42 1212.52 839.36 1216.27 Q842.323 1220.02 842.323 1226.14 Q842.323 1232.25 839.36 1236 Q836.42 1239.75 831.698 1239.75 Q828.85 1239.75 826.79 1238.64 Q824.753 1237.5 823.411 1235.19 L823.411 1239.08 L819.128 1239.08 L819.128 1203.06 L823.411 1203.06 L823.411 1217.08 Z" fill="#000000" fill-rule="evenodd" fill-opacity="1" /><path clip-path="url(#clip280)" d="M859.429 1216.14 Q856.003 1216.14 854.012 1218.82 Q852.022 1221.48 852.022 1226.14 Q852.022 1230.79 853.989 1233.47 Q855.98 1236.14 859.429 1236.14 Q862.832 1236.14 864.822 1233.45 Q866.813 1230.77 866.813 1226.14 Q866.813 1221.53 864.822 1218.84 Q862.832 1216.14 859.429 1216.14 M859.429 1212.52 Q864.985 1212.52 868.156 1216.14 Q871.327 1219.75 871.327 1226.14 Q871.327 1232.5 868.156 1236.14 Q864.985 1239.75 859.429 1239.75 Q853.85 1239.75 850.679 1236.14 Q847.531 1232.5 847.531 1226.14 Q847.531 1219.75 850.679 1216.14 Q853.85 1212.52 859.429 1212.52 Z" fill="#000000" fill-rule="evenodd" fill-opacity="1" /><path clip-path="url(#clip280)" d="M877.947 1228.84 L877.947 1213.15 L882.207 1213.15 L882.207 1228.68 Q882.207 1232.36 883.642 1234.21 Q885.077 1236.04 887.947 1236.04 Q891.396 1236.04 893.387 1233.84 Q895.401 1231.64 895.401 1227.85 L895.401 1213.15 L899.66 1213.15 L899.66 1239.08 L895.401 1239.08 L895.401 1235.09 Q893.85 1237.45 891.79 1238.61 Q889.753 1239.75 887.045 1239.75 Q882.577 1239.75 880.262 1236.97 Q877.947 1234.19 877.947 1228.84 M888.665 1212.52 L888.665 1212.52 Z" fill="#000000" fill-rule="evenodd" fill-opacity="1" /><path clip-path="url(#clip280)" d="M929.984 1223.43 L929.984 1239.08 L925.725 1239.08 L925.725 1223.57 Q925.725 1219.89 924.29 1218.06 Q922.855 1216.23 919.984 1216.23 Q916.535 1216.23 914.544 1218.43 Q912.554 1220.63 912.554 1224.42 L912.554 1239.08 L908.271 1239.08 L908.271 1213.15 L912.554 1213.15 L912.554 1217.18 Q914.081 1214.84 916.142 1213.68 Q918.225 1212.52 920.933 1212.52 Q925.401 1212.52 927.693 1215.3 Q929.984 1218.06 929.984 1223.43 Z" fill="#000000" fill-rule="evenodd" fill-opacity="1" /><path clip-path="url(#clip280)" d="M955.54 1217.08 L955.54 1203.06 L959.799 1203.06 L959.799 1239.08 L955.54 1239.08 L955.54 1235.19 Q954.197 1237.5 952.137 1238.64 Q950.1 1239.75 947.229 1239.75 Q942.53 1239.75 939.567 1236 Q936.628 1232.25 936.628 1226.14 Q936.628 1220.02 939.567 1216.27 Q942.53 1212.52 947.229 1212.52 Q950.1 1212.52 952.137 1213.66 Q954.197 1214.77 955.54 1217.08 M941.026 1226.14 Q941.026 1230.83 942.947 1233.52 Q944.891 1236.18 948.271 1236.18 Q951.651 1236.18 953.595 1233.52 Q955.54 1230.83 955.54 1226.14 Q955.54 1221.44 953.595 1218.77 Q951.651 1216.09 948.271 1216.09 Q944.891 1216.09 942.947 1218.77 Q941.026 1221.44 941.026 1226.14 Z" fill="#000000" fill-rule="evenodd" fill-opacity="1" /><polyline clip-path="url(#clip280)" style="stroke:#e26f46; stroke-linecap:round; stroke-linejoin:round; stroke-width:4; stroke-opacity:1; fill:none" points="345.216,1273.64 485.277,1273.64 "/>
<path clip-path="url(#clip280)" d="M516.028 1257.63 L516.028 1264.99 L524.801 1264.99 L524.801 1268.3 L516.028 1268.3 L516.028 1282.37 Q516.028 1285.54 516.885 1286.45 Q517.764 1287.35 520.426 1287.35 L524.801 1287.35 L524.801 1290.92 L520.426 1290.92 Q515.496 1290.92 513.621 1289.09 Q511.746 1287.23 511.746 1282.37 L511.746 1268.3 L508.621 1268.3 L508.621 1264.99 L511.746 1264.99 L511.746 1257.63 L516.028 1257.63 Z" fill="#000000" fill-rule="evenodd" fill-opacity="1" /><path clip-path="url(#clip280)" d="M530.588 1256.36 L535.264 1256.36 L535.264 1270.52 L552.255 1270.52 L552.255 1256.36 L556.931 1256.36 L556.931 1290.92 L552.255 1290.92 L552.255 1274.46 L535.264 1274.46 L535.264 1290.92 L530.588 1290.92 L530.588 1256.36 Z" fill="#000000" fill-rule="evenodd" fill-opacity="1" /><path clip-path="url(#clip280)" d="M580.264 1259.53 Q575.171 1259.53 572.162 1263.32 Q569.176 1267.12 569.176 1273.67 Q569.176 1280.2 572.162 1283.99 Q575.171 1287.79 580.264 1287.79 Q585.356 1287.79 588.319 1283.99 Q591.305 1280.2 591.305 1273.67 Q591.305 1267.12 588.319 1263.32 Q585.356 1259.53 580.264 1259.53 M580.264 1255.73 Q587.532 1255.73 591.884 1260.61 Q596.236 1265.48 596.236 1273.67 Q596.236 1281.84 591.884 1286.73 Q587.532 1291.59 580.264 1291.59 Q572.972 1291.59 568.597 1286.73 Q564.245 1281.86 564.245 1273.67 Q564.245 1265.48 568.597 1260.61 Q572.972 1255.73 580.264 1255.73 Z" fill="#000000" fill-rule="evenodd" fill-opacity="1" /><path clip-path="url(#clip280)" d="M624.268 1257.49 L624.268 1262.05 Q621.606 1260.78 619.245 1260.15 Q616.884 1259.53 614.685 1259.53 Q610.866 1259.53 608.782 1261.01 Q606.722 1262.49 606.722 1265.22 Q606.722 1267.51 608.088 1268.69 Q609.477 1269.85 613.319 1270.57 L616.143 1271.15 Q621.375 1272.14 623.852 1274.67 Q626.352 1277.17 626.352 1281.38 Q626.352 1286.4 622.972 1288.99 Q619.615 1291.59 613.111 1291.59 Q610.657 1291.59 607.879 1291.03 Q605.125 1290.48 602.162 1289.39 L602.162 1284.57 Q605.009 1286.17 607.741 1286.98 Q610.472 1287.79 613.111 1287.79 Q617.115 1287.79 619.291 1286.22 Q621.467 1284.64 621.467 1281.73 Q621.467 1279.18 619.893 1277.74 Q618.342 1276.31 614.778 1275.59 L611.93 1275.04 Q606.699 1273.99 604.361 1271.77 Q602.023 1269.55 602.023 1265.59 Q602.023 1261.01 605.241 1258.37 Q608.481 1255.73 614.153 1255.73 Q616.583 1255.73 619.106 1256.17 Q621.629 1256.61 624.268 1257.49 Z" fill="#000000" fill-rule="evenodd" fill-opacity="1" /><path clip-path="url(#clip280)" d="M642.555 1290.92 L629.361 1256.36 L634.245 1256.36 L645.194 1285.45 L656.166 1256.36 L661.027 1256.36 L647.856 1290.92 L642.555 1290.92 Z" fill="#000000" fill-rule="evenodd" fill-opacity="1" /><path clip-path="url(#clip280)" d="M670.749 1260.2 L670.749 1287.07 L676.398 1287.07 Q683.55 1287.07 686.86 1283.83 Q690.194 1280.59 690.194 1273.6 Q690.194 1266.66 686.86 1263.44 Q683.55 1260.2 676.398 1260.2 L670.749 1260.2 M666.074 1256.36 L675.68 1256.36 Q685.726 1256.36 690.425 1260.55 Q695.124 1264.71 695.124 1273.6 Q695.124 1282.54 690.402 1286.73 Q685.68 1290.92 675.68 1290.92 L666.074 1290.92 L666.074 1256.36 Z" fill="#000000" fill-rule="evenodd" fill-opacity="1" /><polyline clip-path="url(#clip280)" style="stroke:#3da44d; stroke-linecap:round; stroke-linejoin:round; stroke-width:4; stroke-opacity:1; fill:none" points="345.216,1325.48 485.277,1325.48 "/>
<path clip-path="url(#clip280)" d="M536.491 1310.86 L536.491 1315.79 Q534.13 1313.59 531.445 1312.5 Q528.783 1311.41 525.773 1311.41 Q519.847 1311.41 516.699 1315.05 Q513.551 1318.66 513.551 1325.51 Q513.551 1332.34 516.699 1335.97 Q519.847 1339.58 525.773 1339.58 Q528.783 1339.58 531.445 1338.5 Q534.13 1337.41 536.491 1335.21 L536.491 1340.09 Q534.037 1341.76 531.283 1342.59 Q528.551 1343.43 525.496 1343.43 Q517.648 1343.43 513.135 1338.63 Q508.621 1333.82 508.621 1325.51 Q508.621 1317.18 513.135 1312.39 Q517.648 1307.57 525.496 1307.57 Q528.597 1307.57 531.329 1308.4 Q534.084 1309.21 536.491 1310.86 Z" fill="#000000" fill-rule="evenodd" fill-opacity="1" /><path clip-path="url(#clip280)" d="M569.593 1310.86 L569.593 1315.79 Q567.231 1313.59 564.546 1312.5 Q561.884 1311.41 558.875 1311.41 Q552.949 1311.41 549.801 1315.05 Q546.653 1318.66 546.653 1325.51 Q546.653 1332.34 549.801 1335.97 Q552.949 1339.58 558.875 1339.58 Q561.884 1339.58 564.546 1338.5 Q567.231 1337.41 569.593 1335.21 L569.593 1340.09 Q567.139 1341.76 564.384 1342.59 Q561.653 1343.43 558.597 1343.43 Q550.75 1343.43 546.236 1338.63 Q541.722 1333.82 541.722 1325.51 Q541.722 1317.18 546.236 1312.39 Q550.75 1307.57 558.597 1307.57 Q561.699 1307.57 564.431 1308.4 Q567.185 1309.21 569.593 1310.86 Z" fill="#000000" fill-rule="evenodd" fill-opacity="1" /><path clip-path="url(#clip280)" d="M574.477 1327.87 L586.954 1327.87 L586.954 1331.67 L574.477 1331.67 L574.477 1327.87 Z" fill="#000000" fill-rule="evenodd" fill-opacity="1" /><path clip-path="url(#clip280)" d="M597.949 1309.47 L597.949 1316.83 L606.722 1316.83 L606.722 1320.14 L597.949 1320.14 L597.949 1334.21 Q597.949 1337.38 598.805 1338.29 Q599.685 1339.19 602.347 1339.19 L606.722 1339.19 L606.722 1342.76 L602.347 1342.76 Q597.417 1342.76 595.542 1340.93 Q593.667 1339.07 593.667 1334.21 L593.667 1320.14 L590.542 1320.14 L590.542 1316.83 L593.667 1316.83 L593.667 1309.47 L597.949 1309.47 Z" fill="#000000" fill-rule="evenodd" fill-opacity="1" /><path clip-path="url(#clip280)" d="M612.509 1308.2 L617.185 1308.2 L617.185 1322.36 L634.176 1322.36 L634.176 1308.2 L638.851 1308.2 L638.851 1342.76 L634.176 1342.76 L634.176 1326.3 L617.185 1326.3 L617.185 1342.76 L612.509 1342.76 L612.509 1308.2 Z" fill="#000000" fill-rule="evenodd" fill-opacity="1" /><path clip-path="url(#clip280)" d="M662.185 1311.37 Q657.092 1311.37 654.083 1315.16 Q651.097 1318.96 651.097 1325.51 Q651.097 1332.04 654.083 1335.83 Q657.092 1339.63 662.185 1339.63 Q667.277 1339.63 670.24 1335.83 Q673.226 1332.04 673.226 1325.51 Q673.226 1318.96 670.24 1315.16 Q667.277 1311.37 662.185 1311.37 M662.185 1307.57 Q669.453 1307.57 673.805 1312.45 Q678.157 1317.32 678.157 1325.51 Q678.157 1333.68 673.805 1338.57 Q669.453 1343.43 662.185 1343.43 Q654.893 1343.43 650.518 1338.57 Q646.166 1333.7 646.166 1325.51 Q646.166 1317.32 650.518 1312.45 Q654.893 1307.57 662.185 1307.57 Z" fill="#000000" fill-rule="evenodd" fill-opacity="1" /><path clip-path="url(#clip280)" d="M706.189 1309.33 L706.189 1313.89 Q703.527 1312.62 701.166 1311.99 Q698.805 1311.37 696.606 1311.37 Q692.786 1311.37 690.703 1312.85 Q688.643 1314.33 688.643 1317.06 Q688.643 1319.35 690.009 1320.53 Q691.397 1321.69 695.24 1322.41 L698.064 1322.99 Q703.296 1323.98 705.772 1326.51 Q708.272 1329.01 708.272 1333.22 Q708.272 1338.24 704.893 1340.83 Q701.536 1343.43 695.032 1343.43 Q692.578 1343.43 689.8 1342.87 Q687.046 1342.32 684.083 1341.23 L684.083 1336.41 Q686.93 1338.01 689.661 1338.82 Q692.393 1339.63 695.032 1339.63 Q699.036 1339.63 701.212 1338.06 Q703.388 1336.48 703.388 1333.57 Q703.388 1331.02 701.814 1329.58 Q700.263 1328.15 696.698 1327.43 L693.851 1326.88 Q688.62 1325.83 686.282 1323.61 Q683.944 1321.39 683.944 1317.43 Q683.944 1312.85 687.161 1310.21 Q690.402 1307.57 696.073 1307.57 Q698.504 1307.57 701.027 1308.01 Q703.55 1308.45 706.189 1309.33 Z" fill="#000000" fill-rule="evenodd" fill-opacity="1" /><path clip-path="url(#clip280)" d="M724.476 1342.76 L711.282 1308.2 L716.166 1308.2 L727.115 1337.29 L738.087 1308.2 L742.948 1308.2 L729.777 1342.76 L724.476 1342.76 Z" fill="#000000" fill-rule="evenodd" fill-opacity="1" /><path clip-path="url(#clip280)" d="M752.67 1312.04 L752.67 1338.91 L758.318 1338.91 Q765.471 1338.91 768.781 1335.67 Q772.115 1332.43 772.115 1325.44 Q772.115 1318.5 768.781 1315.28 Q765.471 1312.04 758.318 1312.04 L752.67 1312.04 M747.994 1308.2 L757.601 1308.2 Q767.647 1308.2 772.346 1312.39 Q777.045 1316.55 777.045 1325.44 Q777.045 1334.38 772.323 1338.57 Q767.601 1342.76 757.601 1342.76 L747.994 1342.76 L747.994 1308.2 Z" fill="#000000" fill-rule="evenodd" fill-opacity="1" /><path clip-path="url(#clip280)" d="M809.614 1306.78 Q806.513 1312.11 805.008 1317.32 Q803.503 1322.52 803.503 1327.87 Q803.503 1333.22 805.008 1338.47 Q806.536 1343.7 809.614 1349.01 L805.911 1349.01 Q802.439 1343.57 800.702 1338.31 Q798.99 1333.06 798.99 1327.87 Q798.99 1322.71 800.702 1317.48 Q802.415 1312.25 805.911 1306.78 L809.614 1306.78 Z" fill="#000000" fill-rule="evenodd" fill-opacity="1" /><path clip-path="url(#clip280)" d="M821.999 1338.87 L821.999 1352.62 L817.716 1352.62 L817.716 1316.83 L821.999 1316.83 L821.999 1320.76 Q823.341 1318.45 825.378 1317.34 Q827.438 1316.2 830.286 1316.2 Q835.008 1316.2 837.948 1319.95 Q840.911 1323.7 840.911 1329.82 Q840.911 1335.93 837.948 1339.68 Q835.008 1343.43 830.286 1343.43 Q827.438 1343.43 825.378 1342.32 Q823.341 1341.18 821.999 1338.87 M836.489 1329.82 Q836.489 1325.12 834.545 1322.45 Q832.624 1319.77 829.244 1319.77 Q825.864 1319.77 823.92 1322.45 Q821.999 1325.12 821.999 1329.82 Q821.999 1334.51 823.92 1337.2 Q825.864 1339.86 829.244 1339.86 Q832.624 1339.86 834.545 1337.2 Q836.489 1334.51 836.489 1329.82 Z" fill="#000000" fill-rule="evenodd" fill-opacity="1" /><path clip-path="url(#clip280)" d="M862.994 1320.81 Q862.276 1320.39 861.42 1320.21 Q860.586 1320 859.568 1320 Q855.957 1320 854.012 1322.36 Q852.091 1324.7 852.091 1329.1 L852.091 1342.76 L847.809 1342.76 L847.809 1316.83 L852.091 1316.83 L852.091 1320.86 Q853.434 1318.5 855.586 1317.36 Q857.739 1316.2 860.818 1316.2 Q861.258 1316.2 861.79 1316.27 Q862.322 1316.32 862.971 1316.44 L862.994 1320.81 Z" fill="#000000" fill-rule="evenodd" fill-opacity="1" /><path clip-path="url(#clip280)" d="M876.466 1319.82 Q873.04 1319.82 871.049 1322.5 Q869.059 1325.16 869.059 1329.82 Q869.059 1334.47 871.026 1337.15 Q873.017 1339.82 876.466 1339.82 Q879.869 1339.82 881.859 1337.13 Q883.85 1334.45 883.85 1329.82 Q883.85 1325.21 881.859 1322.52 Q879.869 1319.82 876.466 1319.82 M876.466 1316.2 Q882.021 1316.2 885.193 1319.82 Q888.364 1323.43 888.364 1329.82 Q888.364 1336.18 885.193 1339.82 Q882.021 1343.43 876.466 1343.43 Q870.887 1343.43 867.716 1339.82 Q864.568 1336.18 864.568 1329.82 Q864.568 1323.43 867.716 1319.82 Q870.887 1316.2 876.466 1316.2 Z" fill="#000000" fill-rule="evenodd" fill-opacity="1" /><path clip-path="url(#clip280)" d="M899.545 1338.87 L899.545 1352.62 L895.262 1352.62 L895.262 1316.83 L899.545 1316.83 L899.545 1320.76 Q900.887 1318.45 902.924 1317.34 Q904.984 1316.2 907.832 1316.2 Q912.554 1316.2 915.494 1319.95 Q918.456 1323.7 918.456 1329.82 Q918.456 1335.93 915.494 1339.68 Q912.554 1343.43 907.832 1343.43 Q904.984 1343.43 902.924 1342.32 Q900.887 1341.18 899.545 1338.87 M914.035 1329.82 Q914.035 1325.12 912.091 1322.45 Q910.169 1319.77 906.79 1319.77 Q903.41 1319.77 901.466 1322.45 Q899.545 1325.12 899.545 1329.82 Q899.545 1334.51 901.466 1337.2 Q903.41 1339.86 906.79 1339.86 Q910.169 1339.86 912.091 1337.2 Q914.035 1334.51 914.035 1329.82 Z" fill="#000000" fill-rule="evenodd" fill-opacity="1" /><path clip-path="url(#clip280)" d="M935.563 1319.82 Q932.137 1319.82 930.146 1322.5 Q928.155 1325.16 928.155 1329.82 Q928.155 1334.47 930.123 1337.15 Q932.114 1339.82 935.563 1339.82 Q938.966 1339.82 940.956 1337.13 Q942.947 1334.45 942.947 1329.82 Q942.947 1325.21 940.956 1322.52 Q938.966 1319.82 935.563 1319.82 M935.563 1316.2 Q941.118 1316.2 944.29 1319.82 Q947.461 1323.43 947.461 1329.82 Q947.461 1336.18 944.29 1339.82 Q941.118 1343.43 935.563 1343.43 Q929.984 1343.43 926.813 1339.82 Q923.665 1336.18 923.665 1329.82 Q923.665 1323.43 926.813 1319.82 Q929.984 1316.2 935.563 1316.2 Z" fill="#000000" fill-rule="evenodd" fill-opacity="1" /><path clip-path="url(#clip280)" d="M971.049 1317.59 L971.049 1321.62 Q969.243 1320.7 967.299 1320.23 Q965.354 1319.77 963.271 1319.77 Q960.1 1319.77 958.503 1320.74 Q956.928 1321.71 956.928 1323.66 Q956.928 1325.14 958.063 1326 Q959.197 1326.83 962.623 1327.59 L964.081 1327.92 Q968.618 1328.89 970.516 1330.67 Q972.438 1332.43 972.438 1335.6 Q972.438 1339.21 969.567 1341.32 Q966.72 1343.43 961.72 1343.43 Q959.637 1343.43 957.368 1343.01 Q955.123 1342.62 952.623 1341.81 L952.623 1337.41 Q954.984 1338.63 957.276 1339.26 Q959.567 1339.86 961.813 1339.86 Q964.822 1339.86 966.442 1338.84 Q968.063 1337.8 968.063 1335.93 Q968.063 1334.19 966.882 1333.26 Q965.725 1332.34 961.766 1331.48 L960.285 1331.14 Q956.327 1330.3 954.567 1328.59 Q952.808 1326.85 952.808 1323.84 Q952.808 1320.19 955.401 1318.2 Q957.993 1316.2 962.762 1316.2 Q965.123 1316.2 967.206 1316.55 Q969.29 1316.9 971.049 1317.59 Z" fill="#000000" fill-rule="evenodd" fill-opacity="1" /><path clip-path="url(#clip280)" d="M1001.4 1328.73 L1001.4 1330.81 L981.813 1330.81 Q982.09 1335.21 984.451 1337.52 Q986.836 1339.82 991.072 1339.82 Q993.525 1339.82 995.817 1339.21 Q998.132 1338.61 1000.4 1337.41 L1000.4 1341.44 Q998.109 1342.41 995.701 1342.92 Q993.294 1343.43 990.817 1343.43 Q984.614 1343.43 980.979 1339.82 Q977.368 1336.2 977.368 1330.05 Q977.368 1323.68 980.794 1319.95 Q984.243 1316.2 990.076 1316.2 Q995.308 1316.2 998.34 1319.58 Q1001.4 1322.94 1001.4 1328.73 M997.137 1327.48 Q997.09 1323.98 995.169 1321.9 Q993.271 1319.82 990.123 1319.82 Q986.558 1319.82 984.405 1321.83 Q982.276 1323.84 981.951 1327.5 L997.137 1327.48 Z" fill="#000000" fill-rule="evenodd" fill-opacity="1" /><path clip-path="url(#clip280)" d="M1025.45 1320.76 L1025.45 1306.74 L1029.71 1306.74 L1029.71 1342.76 L1025.45 1342.76 L1025.45 1338.87 Q1024.1 1341.18 1022.04 1342.32 Q1020.01 1343.43 1017.14 1343.43 Q1012.44 1343.43 1009.47 1339.68 Q1006.53 1335.93 1006.53 1329.82 Q1006.53 1323.7 1009.47 1319.95 Q1012.44 1316.2 1017.14 1316.2 Q1020.01 1316.2 1022.04 1317.34 Q1024.1 1318.45 1025.45 1320.76 M1010.93 1329.82 Q1010.93 1334.51 1012.85 1337.2 Q1014.8 1339.86 1018.18 1339.86 Q1021.56 1339.86 1023.5 1337.2 Q1025.45 1334.51 1025.45 1329.82 Q1025.45 1325.12 1023.5 1322.45 Q1021.56 1319.77 1018.18 1319.77 Q1014.8 1319.77 1012.85 1322.45 Q1010.93 1325.12 1010.93 1329.82 Z" fill="#000000" fill-rule="evenodd" fill-opacity="1" /><path clip-path="url(#clip280)" d="M1037.81 1306.78 L1041.51 1306.78 Q1044.98 1312.25 1046.7 1317.48 Q1048.43 1322.71 1048.43 1327.87 Q1048.43 1333.06 1046.7 1338.31 Q1044.98 1343.57 1041.51 1349.01 L1037.81 1349.01 Q1040.89 1343.7 1042.39 1338.47 Q1043.92 1333.22 1043.92 1327.87 Q1043.92 1322.52 1042.39 1317.32 Q1040.89 1312.11 1037.81 1306.78 Z" fill="#000000" fill-rule="evenodd" fill-opacity="1" /></svg>
