<?xml version="1.0" encoding="utf-8"?>
<svg xmlns="http://www.w3.org/2000/svg" xmlns:xlink="http://www.w3.org/1999/xlink" width="600" height="400" viewBox="0 0 2400 1600">
<defs>
  <clipPath id="clip330">
    <rect x="0" y="0" width="2400" height="1600"/>
  </clipPath>
</defs>
<path clip-path="url(#clip330)" d="M0 1600 L2400 1600 L2400 0 L0 0  Z" fill="#ffffff" fill-rule="evenodd" fill-opacity="1"/>
<defs>
  <clipPath id="clip331">
    <rect x="480" y="0" width="1681" height="1600"/>
  </clipPath>
</defs>
<defs>
  <clipPath id="clip332">
    <rect x="309" y="47" width="2044" height="1377"/>
  </clipPath>
</defs>
<path clip-path="url(#clip330)" d="M219.866 1423.18 L2352.76 1423.18 L2352.76 47.2441 L219.866 47.2441  Z" fill="#ffffff" fill-rule="evenodd" fill-opacity="1"/>
<defs>
  <clipPath id="clip333">
    <rect x="219" y="47" width="2134" height="1377"/>
  </clipPath>
</defs>
<polyline clip-path="url(#clip333)" style="stroke:#000000; stroke-linecap:round; stroke-linejoin:round; stroke-width:2; stroke-opacity:0.1; fill:none" points="486.477,1423.18 486.477,47.2441 "/>
<polyline clip-path="url(#clip333)" style="stroke:#000000; stroke-linecap:round; stroke-linejoin:round; stroke-width:2; stroke-opacity:0.1; fill:none" points="1019.7,1423.18 1019.7,47.2441 "/>
<polyline clip-path="url(#clip333)" style="stroke:#000000; stroke-linecap:round; stroke-linejoin:round; stroke-width:2; stroke-opacity:0.1; fill:none" points="1552.92,1423.18 1552.92,47.2441 "/>
<polyline clip-path="url(#clip333)" style="stroke:#000000; stroke-linecap:round; stroke-linejoin:round; stroke-width:2; stroke-opacity:0.1; fill:none" points="2086.14,1423.18 2086.14,47.2441 "/>
<polyline clip-path="url(#clip330)" style="stroke:#000000; stroke-linecap:round; stroke-linejoin:round; stroke-width:4; stroke-opacity:1; fill:none" points="219.866,1423.18 2352.76,1423.18 "/>
<polyline clip-path="url(#clip330)" style="stroke:#000000; stroke-linecap:round; stroke-linejoin:round; stroke-width:4; stroke-opacity:1; fill:none" points="486.477,1423.18 486.477,1404.28 "/>
<polyline clip-path="url(#clip330)" style="stroke:#000000; stroke-linecap:round; stroke-linejoin:round; stroke-width:4; stroke-opacity:1; fill:none" points="1019.7,1423.18 1019.7,1404.28 "/>
<polyline clip-path="url(#clip330)" style="stroke:#000000; stroke-linecap:round; stroke-linejoin:round; stroke-width:4; stroke-opacity:1; fill:none" points="1552.92,1423.18 1552.92,1404.28 "/>
<polyline clip-path="url(#clip330)" style="stroke:#000000; stroke-linecap:round; stroke-linejoin:round; stroke-width:4; stroke-opacity:1; fill:none" points="2086.14,1423.18 2086.14,1404.28 "/>
<path clip-path="url(#clip330)" d="M481.13 1481.64 L497.45 1481.64 L497.45 1485.58 L475.505 1485.58 L475.505 1481.64 Q478.167 1478.89 482.751 1474.26 Q487.357 1469.61 488.538 1468.27 Q490.783 1465.74 491.663 1464.01 Q492.565 1462.25 492.565 1460.56 Q492.565 1457.8 490.621 1456.07 Q488.7 1454.33 485.598 1454.33 Q483.399 1454.33 480.945 1455.09 Q478.515 1455.86 475.737 1457.41 L475.737 1452.69 Q478.561 1451.55 481.015 1450.97 Q483.468 1450.39 485.505 1450.39 Q490.876 1450.39 494.07 1453.08 Q497.264 1455.77 497.264 1460.26 Q497.264 1462.39 496.454 1464.31 Q495.667 1466.2 493.561 1468.8 Q492.982 1469.47 489.88 1472.69 Q486.778 1475.88 481.13 1481.64 Z" fill="#000000" fill-rule="evenodd" fill-opacity="1" /><path clip-path="url(#clip330)" d="M1022.71 1455.09 L1010.9 1473.54 L1022.71 1473.54 L1022.71 1455.09 M1021.48 1451.02 L1027.36 1451.02 L1027.36 1473.54 L1032.29 1473.54 L1032.29 1477.43 L1027.36 1477.43 L1027.36 1485.58 L1022.71 1485.58 L1022.71 1477.43 L1007.11 1477.43 L1007.11 1472.92 L1021.48 1451.02 Z" fill="#000000" fill-rule="evenodd" fill-opacity="1" /><path clip-path="url(#clip330)" d="M1553.33 1466.44 Q1550.18 1466.44 1548.33 1468.59 Q1546.5 1470.74 1546.5 1474.49 Q1546.5 1478.22 1548.33 1480.39 Q1550.18 1482.55 1553.33 1482.55 Q1556.48 1482.55 1558.3 1480.39 Q1560.16 1478.22 1560.16 1474.49 Q1560.16 1470.74 1558.3 1468.59 Q1556.48 1466.44 1553.33 1466.44 M1562.61 1451.78 L1562.61 1456.04 Q1560.85 1455.21 1559.04 1454.77 Q1557.26 1454.33 1555.5 1454.33 Q1550.87 1454.33 1548.42 1457.45 Q1545.99 1460.58 1545.64 1466.9 Q1547.01 1464.89 1549.07 1463.82 Q1551.13 1462.73 1553.61 1462.73 Q1558.81 1462.73 1561.82 1465.9 Q1564.86 1469.05 1564.86 1474.49 Q1564.86 1479.82 1561.71 1483.03 Q1558.56 1486.25 1553.33 1486.25 Q1547.33 1486.25 1544.16 1481.67 Q1540.99 1477.06 1540.99 1468.33 Q1540.99 1460.14 1544.88 1455.28 Q1548.77 1450.39 1555.32 1450.39 Q1557.08 1450.39 1558.86 1450.74 Q1560.67 1451.09 1562.61 1451.78 Z" fill="#000000" fill-rule="evenodd" fill-opacity="1" /><path clip-path="url(#clip330)" d="M2086.14 1469.17 Q2082.81 1469.17 2080.89 1470.95 Q2078.99 1472.73 2078.99 1475.86 Q2078.99 1478.98 2080.89 1480.77 Q2082.81 1482.55 2086.14 1482.55 Q2089.48 1482.55 2091.4 1480.77 Q2093.32 1478.96 2093.32 1475.86 Q2093.32 1472.73 2091.4 1470.95 Q2089.5 1469.17 2086.14 1469.17 M2081.47 1467.18 Q2078.46 1466.44 2076.77 1464.38 Q2075.1 1462.32 2075.1 1459.35 Q2075.1 1455.21 2078.04 1452.8 Q2081.01 1450.39 2086.14 1450.39 Q2091.31 1450.39 2094.25 1452.8 Q2097.19 1455.21 2097.19 1459.35 Q2097.19 1462.32 2095.5 1464.38 Q2093.83 1466.44 2090.84 1467.18 Q2094.22 1467.96 2096.1 1470.26 Q2098 1472.55 2098 1475.86 Q2098 1480.88 2094.92 1483.57 Q2091.86 1486.25 2086.14 1486.25 Q2080.43 1486.25 2077.35 1483.57 Q2074.29 1480.88 2074.29 1475.86 Q2074.29 1472.55 2076.19 1470.26 Q2078.09 1467.96 2081.47 1467.18 M2079.76 1459.79 Q2079.76 1462.48 2081.42 1463.98 Q2083.11 1465.49 2086.14 1465.49 Q2089.15 1465.49 2090.84 1463.98 Q2092.56 1462.48 2092.56 1459.79 Q2092.56 1457.11 2090.84 1455.6 Q2089.15 1454.1 2086.14 1454.1 Q2083.11 1454.1 2081.42 1455.6 Q2079.76 1457.11 2079.76 1459.79 Z" fill="#000000" fill-rule="evenodd" fill-opacity="1" /><path clip-path="url(#clip330)" d="M988.062 1550.12 Q980.964 1550.12 978.227 1551.75 Q975.49 1553.37 975.49 1557.29 Q975.49 1560.4 977.527 1562.25 Q979.595 1564.07 983.128 1564.07 Q987.998 1564.07 990.926 1560.63 Q993.886 1557.16 993.886 1551.43 L993.886 1550.12 L988.062 1550.12 M999.743 1547.71 L999.743 1568.04 L993.886 1568.04 L993.886 1562.63 Q991.881 1565.88 988.889 1567.44 Q985.897 1568.97 981.569 1568.97 Q976.094 1568.97 972.848 1565.91 Q969.633 1562.82 969.633 1557.67 Q969.633 1551.65 973.643 1548.6 Q977.686 1545.54 985.675 1545.54 L993.886 1545.54 L993.886 1544.97 Q993.886 1540.93 991.213 1538.73 Q988.571 1536.5 983.765 1536.5 Q980.709 1536.5 977.813 1537.23 Q974.917 1537.97 972.243 1539.43 L972.243 1534.02 Q975.458 1532.78 978.481 1532.17 Q981.505 1531.54 984.37 1531.54 Q992.104 1531.54 995.923 1535.55 Q999.743 1539.56 999.743 1547.71 Z" fill="#000000" fill-rule="evenodd" fill-opacity="1" /><path clip-path="url(#clip330)" d="M1017.47 1562.7 L1017.47 1581.6 L1011.58 1581.6 L1011.58 1532.4 L1017.47 1532.4 L1017.47 1537.81 Q1019.32 1534.62 1022.12 1533.1 Q1024.95 1531.54 1028.87 1531.54 Q1035.36 1531.54 1039.4 1536.69 Q1043.48 1541.85 1043.48 1550.25 Q1043.48 1558.65 1039.4 1563.81 Q1035.36 1568.97 1028.87 1568.97 Q1024.95 1568.97 1022.12 1567.44 Q1019.32 1565.88 1017.47 1562.7 M1037.4 1550.25 Q1037.4 1543.79 1034.72 1540.13 Q1032.08 1536.44 1027.43 1536.44 Q1022.79 1536.44 1020.11 1540.13 Q1017.47 1543.79 1017.47 1550.25 Q1017.47 1556.71 1020.11 1560.4 Q1022.79 1564.07 1027.43 1564.07 Q1032.08 1564.07 1034.72 1560.4 Q1037.4 1556.71 1037.4 1550.25 Z" fill="#000000" fill-rule="evenodd" fill-opacity="1" /><path clip-path="url(#clip330)" d="M1058.85 1562.7 L1058.85 1581.6 L1052.96 1581.6 L1052.96 1532.4 L1058.85 1532.4 L1058.85 1537.81 Q1060.69 1534.62 1063.5 1533.1 Q1066.33 1531.54 1070.24 1531.54 Q1076.74 1531.54 1080.78 1536.69 Q1084.85 1541.85 1084.85 1550.25 Q1084.85 1558.65 1080.78 1563.81 Q1076.74 1568.97 1070.24 1568.97 Q1066.33 1568.97 1063.5 1567.44 Q1060.69 1565.88 1058.85 1562.7 M1078.77 1550.25 Q1078.77 1543.79 1076.1 1540.13 Q1073.46 1536.44 1068.81 1536.44 Q1064.16 1536.44 1061.49 1540.13 Q1058.85 1543.79 1058.85 1550.25 Q1058.85 1556.71 1061.49 1560.4 Q1064.16 1564.07 1068.81 1564.07 Q1073.46 1564.07 1076.1 1560.4 Q1078.77 1556.71 1078.77 1550.25 Z" fill="#000000" fill-rule="evenodd" fill-opacity="1" /><path clip-path="url(#clip330)" d="M1115.22 1537.87 Q1114.23 1537.3 1113.05 1537.04 Q1111.91 1536.76 1110.51 1536.76 Q1105.54 1536.76 1102.87 1540 Q1100.23 1543.22 1100.23 1549.27 L1100.23 1568.04 L1094.34 1568.04 L1094.34 1532.4 L1100.23 1532.4 L1100.23 1537.93 Q1102.07 1534.69 1105.03 1533.13 Q1107.99 1531.54 1112.22 1531.54 Q1112.83 1531.54 1113.56 1531.63 Q1114.29 1531.7 1115.18 1531.85 L1115.22 1537.87 Z" fill="#000000" fill-rule="evenodd" fill-opacity="1" /><path clip-path="url(#clip330)" d="M1133.74 1536.5 Q1129.03 1536.5 1126.29 1540.19 Q1123.56 1543.85 1123.56 1550.25 Q1123.56 1556.65 1126.26 1560.34 Q1129 1564 1133.74 1564 Q1138.42 1564 1141.16 1560.31 Q1143.89 1556.62 1143.89 1550.25 Q1143.89 1543.92 1141.16 1540.23 Q1138.42 1536.5 1133.74 1536.5 M1133.74 1531.54 Q1141.38 1531.54 1145.74 1536.5 Q1150.1 1541.47 1150.1 1550.25 Q1150.1 1559 1145.74 1564 Q1141.38 1568.97 1133.74 1568.97 Q1126.07 1568.97 1121.71 1564 Q1117.38 1559 1117.38 1550.25 Q1117.38 1541.47 1121.71 1536.5 Q1126.07 1531.54 1133.74 1531.54 Z" fill="#000000" fill-rule="evenodd" fill-opacity="1" /><path clip-path="url(#clip330)" d="M1187.44 1532.4 L1174.55 1549.74 L1188.1 1568.04 L1181.2 1568.04 L1170.82 1554.04 L1160.45 1568.04 L1153.54 1568.04 L1167.38 1549.39 L1154.72 1532.4 L1161.62 1532.4 L1171.08 1545.1 L1180.53 1532.4 L1187.44 1532.4 Z" fill="#000000" fill-rule="evenodd" fill-opacity="1" /><path clip-path="url(#clip330)" d="M1196.38 1532.4 L1202.24 1532.4 L1202.24 1568.04 L1196.38 1568.04 L1196.38 1532.4 M1196.38 1518.52 L1202.24 1518.52 L1202.24 1525.93 L1196.38 1525.93 L1196.38 1518.52 Z" fill="#000000" fill-rule="evenodd" fill-opacity="1" /><path clip-path="url(#clip330)" d="M1242.24 1539.24 Q1244.44 1535.29 1247.5 1533.41 Q1250.55 1531.54 1254.69 1531.54 Q1260.26 1531.54 1263.28 1535.45 Q1266.31 1539.33 1266.31 1546.53 L1266.31 1568.04 L1260.42 1568.04 L1260.42 1546.72 Q1260.42 1541.59 1258.6 1539.11 Q1256.79 1536.63 1253.07 1536.63 Q1248.51 1536.63 1245.87 1539.65 Q1243.23 1542.68 1243.23 1547.9 L1243.23 1568.04 L1237.34 1568.04 L1237.34 1546.72 Q1237.34 1541.56 1235.53 1539.11 Q1233.71 1536.63 1229.93 1536.63 Q1225.44 1536.63 1222.8 1539.68 Q1220.16 1542.71 1220.16 1547.9 L1220.16 1568.04 L1214.27 1568.04 L1214.27 1532.4 L1220.16 1532.4 L1220.16 1537.93 Q1222.16 1534.66 1224.96 1533.1 Q1227.76 1531.54 1231.61 1531.54 Q1235.5 1531.54 1238.2 1533.51 Q1240.94 1535.48 1242.24 1539.24 Z" fill="#000000" fill-rule="evenodd" fill-opacity="1" /><path clip-path="url(#clip330)" d="M1294.19 1550.12 Q1287.09 1550.12 1284.35 1551.75 Q1281.62 1553.37 1281.62 1557.29 Q1281.62 1560.4 1283.65 1562.25 Q1285.72 1564.07 1289.26 1564.07 Q1294.12 1564.07 1297.05 1560.63 Q1300.01 1557.16 1300.01 1551.43 L1300.01 1550.12 L1294.19 1550.12 M1305.87 1547.71 L1305.87 1568.04 L1300.01 1568.04 L1300.01 1562.63 Q1298.01 1565.88 1295.02 1567.44 Q1292.02 1568.97 1287.7 1568.97 Q1282.22 1568.97 1278.97 1565.91 Q1275.76 1562.82 1275.76 1557.67 Q1275.76 1551.65 1279.77 1548.6 Q1283.81 1545.54 1291.8 1545.54 L1300.01 1545.54 L1300.01 1544.97 Q1300.01 1540.93 1297.34 1538.73 Q1294.7 1536.5 1289.89 1536.5 Q1286.84 1536.5 1283.94 1537.23 Q1281.04 1537.97 1278.37 1539.43 L1278.37 1534.02 Q1281.58 1532.78 1284.61 1532.17 Q1287.63 1531.54 1290.5 1531.54 Q1298.23 1531.54 1302.05 1535.55 Q1305.87 1539.56 1305.87 1547.71 Z" fill="#000000" fill-rule="evenodd" fill-opacity="1" /><path clip-path="url(#clip330)" d="M1323.73 1522.27 L1323.73 1532.4 L1335.79 1532.4 L1335.79 1536.95 L1323.73 1536.95 L1323.73 1556.3 Q1323.73 1560.66 1324.9 1561.9 Q1326.11 1563.14 1329.77 1563.14 L1335.79 1563.14 L1335.79 1568.04 L1329.77 1568.04 Q1322.99 1568.04 1320.42 1565.53 Q1317.84 1562.98 1317.84 1556.3 L1317.84 1536.95 L1313.54 1536.95 L1313.54 1532.4 L1317.84 1532.4 L1317.84 1522.27 L1323.73 1522.27 Z" fill="#000000" fill-rule="evenodd" fill-opacity="1" /><path clip-path="url(#clip330)" d="M1343.49 1532.4 L1349.35 1532.4 L1349.35 1568.04 L1343.49 1568.04 L1343.49 1532.4 M1343.49 1518.52 L1349.35 1518.52 L1349.35 1525.93 L1343.49 1525.93 L1343.49 1518.52 Z" fill="#000000" fill-rule="evenodd" fill-opacity="1" /><path clip-path="url(#clip330)" d="M1375.42 1536.5 Q1370.7 1536.5 1367.97 1540.19 Q1365.23 1543.85 1365.23 1550.25 Q1365.23 1556.65 1367.94 1560.34 Q1370.67 1564 1375.42 1564 Q1380.09 1564 1382.83 1560.31 Q1385.57 1556.62 1385.57 1550.25 Q1385.57 1543.92 1382.83 1540.23 Q1380.09 1536.5 1375.42 1536.5 M1375.42 1531.54 Q1383.05 1531.54 1387.41 1536.5 Q1391.77 1541.47 1391.77 1550.25 Q1391.77 1559 1387.41 1564 Q1383.05 1568.97 1375.42 1568.97 Q1367.74 1568.97 1363.38 1564 Q1359.06 1559 1359.06 1550.25 Q1359.06 1541.47 1363.38 1536.5 Q1367.74 1531.54 1375.42 1531.54 Z" fill="#000000" fill-rule="evenodd" fill-opacity="1" /><path clip-path="url(#clip330)" d="M1431.11 1546.53 L1431.11 1568.04 L1425.26 1568.04 L1425.26 1546.72 Q1425.26 1541.66 1423.29 1539.14 Q1421.31 1536.63 1417.37 1536.63 Q1412.62 1536.63 1409.89 1539.65 Q1407.15 1542.68 1407.15 1547.9 L1407.15 1568.04 L1401.26 1568.04 L1401.26 1532.4 L1407.15 1532.4 L1407.15 1537.93 Q1409.25 1534.72 1412.08 1533.13 Q1414.95 1531.54 1418.67 1531.54 Q1424.81 1531.54 1427.96 1535.36 Q1431.11 1539.14 1431.11 1546.53 Z" fill="#000000" fill-rule="evenodd" fill-opacity="1" /><path clip-path="url(#clip330)" d="M1484.17 1537.87 Q1483.19 1537.3 1482.01 1537.04 Q1480.86 1536.76 1479.46 1536.76 Q1474.5 1536.76 1471.82 1540 Q1469.18 1543.22 1469.18 1549.27 L1469.18 1568.04 L1463.29 1568.04 L1463.29 1532.4 L1469.18 1532.4 L1469.18 1537.93 Q1471.03 1534.69 1473.99 1533.13 Q1476.95 1531.54 1481.18 1531.54 Q1481.79 1531.54 1482.52 1531.63 Q1483.25 1531.7 1484.14 1531.85 L1484.17 1537.87 Z" fill="#000000" fill-rule="evenodd" fill-opacity="1" /><path clip-path="url(#clip330)" d="M1506.52 1550.12 Q1499.42 1550.12 1496.68 1551.75 Q1493.94 1553.37 1493.94 1557.29 Q1493.94 1560.4 1495.98 1562.25 Q1498.05 1564.07 1501.58 1564.07 Q1506.45 1564.07 1509.38 1560.63 Q1512.34 1557.16 1512.34 1551.43 L1512.34 1550.12 L1506.52 1550.12 M1518.2 1547.71 L1518.2 1568.04 L1512.34 1568.04 L1512.34 1562.63 Q1510.34 1565.88 1507.34 1567.44 Q1504.35 1568.97 1500.02 1568.97 Q1494.55 1568.97 1491.3 1565.91 Q1488.09 1562.82 1488.09 1557.67 Q1488.09 1551.65 1492.1 1548.6 Q1496.14 1545.54 1504.13 1545.54 L1512.34 1545.54 L1512.34 1544.97 Q1512.34 1540.93 1509.67 1538.73 Q1507.03 1536.5 1502.22 1536.5 Q1499.16 1536.5 1496.27 1537.23 Q1493.37 1537.97 1490.7 1539.43 L1490.7 1534.02 Q1493.91 1532.78 1496.94 1532.17 Q1499.96 1531.54 1502.82 1531.54 Q1510.56 1531.54 1514.38 1535.55 Q1518.2 1539.56 1518.2 1547.71 Z" fill="#000000" fill-rule="evenodd" fill-opacity="1" /><path clip-path="url(#clip330)" d="M1559.89 1546.53 L1559.89 1568.04 L1554.04 1568.04 L1554.04 1546.72 Q1554.04 1541.66 1552.06 1539.14 Q1550.09 1536.63 1546.14 1536.63 Q1541.4 1536.63 1538.66 1539.65 Q1535.93 1542.68 1535.93 1547.9 L1535.93 1568.04 L1530.04 1568.04 L1530.04 1532.4 L1535.93 1532.4 L1535.93 1537.93 Q1538.03 1534.72 1540.86 1533.13 Q1543.72 1531.54 1547.45 1531.54 Q1553.59 1531.54 1556.74 1535.36 Q1559.89 1539.14 1559.89 1546.53 Z" fill="#000000" fill-rule="evenodd" fill-opacity="1" /><path clip-path="url(#clip330)" d="M1571.35 1518.52 L1577.24 1518.52 L1577.24 1547.77 L1594.71 1532.4 L1602.19 1532.4 L1583.29 1549.07 L1602.99 1568.04 L1595.35 1568.04 L1577.24 1550.63 L1577.24 1568.04 L1571.35 1568.04 L1571.35 1518.52 Z" fill="#000000" fill-rule="evenodd" fill-opacity="1" /><polyline clip-path="url(#clip333)" style="stroke:#000000; stroke-linecap:round; stroke-linejoin:round; stroke-width:2; stroke-opacity:0.1; fill:none" points="219.866,1423.18 2352.76,1423.18 "/>
<polyline clip-path="url(#clip333)" style="stroke:#000000; stroke-linecap:round; stroke-linejoin:round; stroke-width:2; stroke-opacity:0.1; fill:none" points="219.866,1147.99 2352.76,1147.99 "/>
<polyline clip-path="url(#clip333)" style="stroke:#000000; stroke-linecap:round; stroke-linejoin:round; stroke-width:2; stroke-opacity:0.1; fill:none" points="219.866,872.806 2352.76,872.806 "/>
<polyline clip-path="url(#clip333)" style="stroke:#000000; stroke-linecap:round; stroke-linejoin:round; stroke-width:2; stroke-opacity:0.1; fill:none" points="219.866,597.618 2352.76,597.618 "/>
<polyline clip-path="url(#clip333)" style="stroke:#000000; stroke-linecap:round; stroke-linejoin:round; stroke-width:2; stroke-opacity:0.1; fill:none" points="219.866,322.431 2352.76,322.431 "/>
<polyline clip-path="url(#clip333)" style="stroke:#000000; stroke-linecap:round; stroke-linejoin:round; stroke-width:2; stroke-opacity:0.1; fill:none" points="219.866,47.2441 2352.76,47.2441 "/>
<polyline clip-path="url(#clip330)" style="stroke:#000000; stroke-linecap:round; stroke-linejoin:round; stroke-width:4; stroke-opacity:1; fill:none" points="219.866,1423.18 219.866,47.2441 "/>
<polyline clip-path="url(#clip330)" style="stroke:#000000; stroke-linecap:round; stroke-linejoin:round; stroke-width:4; stroke-opacity:1; fill:none" points="219.866,1423.18 238.764,1423.18 "/>
<polyline clip-path="url(#clip330)" style="stroke:#000000; stroke-linecap:round; stroke-linejoin:round; stroke-width:4; stroke-opacity:1; fill:none" points="219.866,1147.99 238.764,1147.99 "/>
<polyline clip-path="url(#clip330)" style="stroke:#000000; stroke-linecap:round; stroke-linejoin:round; stroke-width:4; stroke-opacity:1; fill:none" points="219.866,872.806 238.764,872.806 "/>
<polyline clip-path="url(#clip330)" style="stroke:#000000; stroke-linecap:round; stroke-linejoin:round; stroke-width:4; stroke-opacity:1; fill:none" points="219.866,597.618 238.764,597.618 "/>
<polyline clip-path="url(#clip330)" style="stroke:#000000; stroke-linecap:round; stroke-linejoin:round; stroke-width:4; stroke-opacity:1; fill:none" points="219.866,322.431 238.764,322.431 "/>
<polyline clip-path="url(#clip330)" style="stroke:#000000; stroke-linecap:round; stroke-linejoin:round; stroke-width:4; stroke-opacity:1; fill:none" points="219.866,47.2441 238.764,47.2441 "/>
<path clip-path="url(#clip330)" d="M126.691 1408.98 Q123.08 1408.98 121.251 1412.54 Q119.445 1416.08 119.445 1423.21 Q119.445 1430.32 121.251 1433.89 Q123.08 1437.43 126.691 1437.43 Q130.325 1437.43 132.13 1433.89 Q133.959 1430.32 133.959 1423.21 Q133.959 1416.08 132.13 1412.54 Q130.325 1408.98 126.691 1408.98 M126.691 1405.27 Q132.501 1405.27 135.556 1409.88 Q138.635 1414.46 138.635 1423.21 Q138.635 1431.94 135.556 1436.55 Q132.501 1441.13 126.691 1441.13 Q120.88 1441.13 117.802 1436.55 Q114.746 1431.94 114.746 1423.21 Q114.746 1414.46 117.802 1409.88 Q120.88 1405.27 126.691 1405.27 Z" fill="#000000" fill-rule="evenodd" fill-opacity="1" /><path clip-path="url(#clip330)" d="M146.853 1434.58 L151.737 1434.58 L151.737 1440.46 L146.853 1440.46 L146.853 1434.58 Z" fill="#000000" fill-rule="evenodd" fill-opacity="1" /><path clip-path="url(#clip330)" d="M171.922 1408.98 Q168.311 1408.98 166.482 1412.54 Q164.677 1416.08 164.677 1423.21 Q164.677 1430.32 166.482 1433.89 Q168.311 1437.43 171.922 1437.43 Q175.556 1437.43 177.362 1433.89 Q179.19 1430.32 179.19 1423.21 Q179.19 1416.08 177.362 1412.54 Q175.556 1408.98 171.922 1408.98 M171.922 1405.27 Q177.732 1405.27 180.788 1409.88 Q183.866 1414.46 183.866 1423.21 Q183.866 1431.94 180.788 1436.55 Q177.732 1441.13 171.922 1441.13 Q166.112 1441.13 163.033 1436.55 Q159.978 1431.94 159.978 1423.21 Q159.978 1414.46 163.033 1409.88 Q166.112 1405.27 171.922 1405.27 Z" fill="#000000" fill-rule="evenodd" fill-opacity="1" /><path clip-path="url(#clip330)" d="M128.288 1133.79 Q124.677 1133.79 122.848 1137.36 Q121.043 1140.9 121.043 1148.03 Q121.043 1155.13 122.848 1158.7 Q124.677 1162.24 128.288 1162.24 Q131.922 1162.24 133.728 1158.7 Q135.556 1155.13 135.556 1148.03 Q135.556 1140.9 133.728 1137.36 Q131.922 1133.79 128.288 1133.79 M128.288 1130.09 Q134.098 1130.09 137.154 1134.69 Q140.232 1139.28 140.232 1148.03 Q140.232 1156.75 137.154 1161.36 Q134.098 1165.94 128.288 1165.94 Q122.478 1165.94 119.399 1161.36 Q116.343 1156.75 116.343 1148.03 Q116.343 1139.28 119.399 1134.69 Q122.478 1130.09 128.288 1130.09 Z" fill="#000000" fill-rule="evenodd" fill-opacity="1" /><path clip-path="url(#clip330)" d="M148.45 1159.39 L153.334 1159.39 L153.334 1165.27 L148.45 1165.27 L148.45 1159.39 Z" fill="#000000" fill-rule="evenodd" fill-opacity="1" /><path clip-path="url(#clip330)" d="M167.547 1161.34 L183.866 1161.34 L183.866 1165.27 L161.922 1165.27 L161.922 1161.34 Q164.584 1158.58 169.167 1153.95 Q173.774 1149.3 174.954 1147.96 Q177.2 1145.43 178.079 1143.7 Q178.982 1141.94 178.982 1140.25 Q178.982 1137.5 177.038 1135.76 Q175.116 1134.02 172.014 1134.02 Q169.815 1134.02 167.362 1134.79 Q164.931 1135.55 162.153 1137.1 L162.153 1132.38 Q164.977 1131.25 167.431 1130.67 Q169.885 1130.09 171.922 1130.09 Q177.292 1130.09 180.487 1132.77 Q183.681 1135.46 183.681 1139.95 Q183.681 1142.08 182.871 1144 Q182.084 1145.9 179.977 1148.49 Q179.399 1149.16 176.297 1152.38 Q173.195 1155.57 167.547 1161.34 Z" fill="#000000" fill-rule="evenodd" fill-opacity="1" /><path clip-path="url(#clip330)" d="M126.205 858.604 Q122.593 858.604 120.765 862.169 Q118.959 865.711 118.959 872.84 Q118.959 879.947 120.765 883.512 Q122.593 887.053 126.205 887.053 Q129.839 887.053 131.644 883.512 Q133.473 879.947 133.473 872.84 Q133.473 865.711 131.644 862.169 Q129.839 858.604 126.205 858.604 M126.205 854.901 Q132.015 854.901 135.07 859.507 Q138.149 864.09 138.149 872.84 Q138.149 881.567 135.07 886.174 Q132.015 890.757 126.205 890.757 Q120.394 890.757 117.316 886.174 Q114.26 881.567 114.26 872.84 Q114.26 864.09 117.316 859.507 Q120.394 854.901 126.205 854.901 Z" fill="#000000" fill-rule="evenodd" fill-opacity="1" /><path clip-path="url(#clip330)" d="M146.366 884.206 L151.251 884.206 L151.251 890.086 L146.366 890.086 L146.366 884.206 Z" fill="#000000" fill-rule="evenodd" fill-opacity="1" /><path clip-path="url(#clip330)" d="M174.283 859.6 L162.477 878.049 L174.283 878.049 L174.283 859.6 M173.056 855.526 L178.936 855.526 L178.936 878.049 L183.866 878.049 L183.866 881.937 L178.936 881.937 L178.936 890.086 L174.283 890.086 L174.283 881.937 L158.681 881.937 L158.681 877.424 L173.056 855.526 Z" fill="#000000" fill-rule="evenodd" fill-opacity="1" /><path clip-path="url(#clip330)" d="M126.529 583.417 Q122.918 583.417 121.089 586.982 Q119.283 590.524 119.283 597.653 Q119.283 604.76 121.089 608.324 Q122.918 611.866 126.529 611.866 Q130.163 611.866 131.968 608.324 Q133.797 604.76 133.797 597.653 Q133.797 590.524 131.968 586.982 Q130.163 583.417 126.529 583.417 M126.529 579.713 Q132.339 579.713 135.394 584.32 Q138.473 588.903 138.473 597.653 Q138.473 606.38 135.394 610.986 Q132.339 615.57 126.529 615.57 Q120.718 615.57 117.64 610.986 Q114.584 606.38 114.584 597.653 Q114.584 588.903 117.64 584.32 Q120.718 579.713 126.529 579.713 Z" fill="#000000" fill-rule="evenodd" fill-opacity="1" /><path clip-path="url(#clip330)" d="M146.691 609.019 L151.575 609.019 L151.575 614.898 L146.691 614.898 L146.691 609.019 Z" fill="#000000" fill-rule="evenodd" fill-opacity="1" /><path clip-path="url(#clip330)" d="M172.339 595.755 Q169.19 595.755 167.339 597.908 Q165.51 600.061 165.51 603.81 Q165.51 607.537 167.339 609.713 Q169.19 611.866 172.339 611.866 Q175.487 611.866 177.315 609.713 Q179.167 607.537 179.167 603.81 Q179.167 600.061 177.315 597.908 Q175.487 595.755 172.339 595.755 M181.621 581.102 L181.621 585.362 Q179.862 584.528 178.056 584.088 Q176.274 583.649 174.514 583.649 Q169.885 583.649 167.431 586.774 Q165.001 589.899 164.653 596.218 Q166.019 594.204 168.079 593.139 Q170.139 592.051 172.616 592.051 Q177.825 592.051 180.834 595.223 Q183.866 598.371 183.866 603.81 Q183.866 609.135 180.718 612.352 Q177.57 615.57 172.339 615.57 Q166.343 615.57 163.172 610.986 Q160.001 606.38 160.001 597.653 Q160.001 589.459 163.89 584.598 Q167.778 579.713 174.329 579.713 Q176.089 579.713 177.871 580.061 Q179.676 580.408 181.621 581.102 Z" fill="#000000" fill-rule="evenodd" fill-opacity="1" /><path clip-path="url(#clip330)" d="M126.783 308.23 Q123.172 308.23 121.343 311.795 Q119.538 315.336 119.538 322.466 Q119.538 329.572 121.343 333.137 Q123.172 336.679 126.783 336.679 Q130.417 336.679 132.223 333.137 Q134.052 329.572 134.052 322.466 Q134.052 315.336 132.223 311.795 Q130.417 308.23 126.783 308.23 M126.783 304.526 Q132.593 304.526 135.649 309.133 Q138.728 313.716 138.728 322.466 Q138.728 331.193 135.649 335.799 Q132.593 340.383 126.783 340.383 Q120.973 340.383 117.894 335.799 Q114.839 331.193 114.839 322.466 Q114.839 313.716 117.894 309.133 Q120.973 304.526 126.783 304.526 Z" fill="#000000" fill-rule="evenodd" fill-opacity="1" /><path clip-path="url(#clip330)" d="M146.945 333.832 L151.829 333.832 L151.829 339.711 L146.945 339.711 L146.945 333.832 Z" fill="#000000" fill-rule="evenodd" fill-opacity="1" /><path clip-path="url(#clip330)" d="M172.014 323.299 Q168.681 323.299 166.76 325.082 Q164.862 326.864 164.862 329.989 Q164.862 333.114 166.76 334.896 Q168.681 336.679 172.014 336.679 Q175.348 336.679 177.269 334.896 Q179.19 333.091 179.19 329.989 Q179.19 326.864 177.269 325.082 Q175.371 323.299 172.014 323.299 M167.339 321.309 Q164.329 320.568 162.64 318.508 Q160.973 316.447 160.973 313.485 Q160.973 309.341 163.913 306.934 Q166.876 304.526 172.014 304.526 Q177.176 304.526 180.116 306.934 Q183.056 309.341 183.056 313.485 Q183.056 316.447 181.366 318.508 Q179.7 320.568 176.714 321.309 Q180.093 322.096 181.968 324.387 Q183.866 326.679 183.866 329.989 Q183.866 335.012 180.788 337.697 Q177.732 340.383 172.014 340.383 Q166.297 340.383 163.218 337.697 Q160.163 335.012 160.163 329.989 Q160.163 326.679 162.061 324.387 Q163.959 322.096 167.339 321.309 M165.626 313.924 Q165.626 316.61 167.292 318.114 Q168.982 319.619 172.014 319.619 Q175.024 319.619 176.714 318.114 Q178.426 316.61 178.426 313.924 Q178.426 311.239 176.714 309.735 Q175.024 308.23 172.014 308.23 Q168.982 308.23 167.292 309.735 Q165.626 311.239 165.626 313.924 Z" fill="#000000" fill-rule="evenodd" fill-opacity="1" /><path clip-path="url(#clip330)" d="M117.501 60.5889 L125.14 60.5889 L125.14 34.2233 L116.83 35.89 L116.83 31.6308 L125.093 29.9641 L129.769 29.9641 L129.769 60.5889 L137.408 60.5889 L137.408 64.5241 L117.501 64.5241 L117.501 60.5889 Z" fill="#000000" fill-rule="evenodd" fill-opacity="1" /><path clip-path="url(#clip330)" d="M146.853 58.6445 L151.737 58.6445 L151.737 64.5241 L146.853 64.5241 L146.853 58.6445 Z" fill="#000000" fill-rule="evenodd" fill-opacity="1" /><path clip-path="url(#clip330)" d="M171.922 33.0428 Q168.311 33.0428 166.482 36.6076 Q164.677 40.1492 164.677 47.2788 Q164.677 54.3853 166.482 57.9501 Q168.311 61.4917 171.922 61.4917 Q175.556 61.4917 177.362 57.9501 Q179.19 54.3853 179.19 47.2788 Q179.19 40.1492 177.362 36.6076 Q175.556 33.0428 171.922 33.0428 M171.922 29.3391 Q177.732 29.3391 180.788 33.9456 Q183.866 38.5289 183.866 47.2788 Q183.866 56.0056 180.788 60.6121 Q177.732 65.1954 171.922 65.1954 Q166.112 65.1954 163.033 60.6121 Q159.978 56.0056 159.978 47.2788 Q159.978 38.5289 163.033 33.9456 Q166.112 29.3391 171.922 29.3391 Z" fill="#000000" fill-rule="evenodd" fill-opacity="1" /><path clip-path="url(#clip330)" d="M27.9392 757.108 Q28.6155 757.108 29.163 757.688 Q29.7105 758.236 29.7105 758.912 Q29.7105 759.298 29.0664 760.232 Q27.1985 762.905 27.1985 766.287 Q27.1985 769.314 27.9392 772.116 Q28.6799 774.918 30.1936 776.818 Q31.6751 778.686 33.6074 778.686 Q36.0229 778.686 37.4399 776.045 Q36.1839 773.308 36.1839 769.926 Q36.1839 768.831 36.2483 768.09 Q36.3127 767.318 36.4738 766.577 Q36.6348 765.836 37.0213 765.482 Q37.3755 765.095 37.9552 765.095 Q40.0164 765.095 40.0164 770.442 Q40.0164 773.92 39.0824 776.11 Q40.4673 778.912 42.6895 780.458 Q44.9117 782.003 46.8118 782.003 Q48.4543 782.003 49.646 781.102 Q50.8376 780.168 51.4173 778.654 Q51.997 777.108 52.2546 775.594 Q52.4801 774.049 52.4801 772.342 Q52.4801 769.54 52.1258 767.575 Q51.7393 765.578 51.0308 764.483 Q50.3223 763.356 49.8392 762.905 Q49.3239 762.422 48.5187 761.939 Q48.0679 761.649 48.0679 761.263 Q48.0679 760.973 48.2611 760.78 Q48.4221 760.554 48.712 760.554 Q49.0662 760.554 49.807 761.005 Q50.5477 761.424 51.5461 762.454 Q52.5123 763.453 53.414 764.838 Q54.2836 766.19 54.8955 768.348 Q55.5074 770.506 55.5074 772.954 Q55.5074 777.945 53.0598 780.844 Q50.6121 783.71 47.1983 783.71 Q44.8151 783.71 42.3674 782.132 Q39.8876 780.522 38.3095 777.688 Q36.3449 780.329 33.6074 780.329 Q31.1598 780.329 28.9698 778.268 Q26.7798 776.174 25.4916 772.793 Q24.1711 769.379 24.1711 765.643 Q24.1711 763.549 24.8796 761.488 Q25.556 759.427 26.4255 758.268 Q27.2951 757.108 27.9392 757.108 M38.0196 766.802 Q37.6332 768.219 37.6332 769.926 Q37.6332 772.245 38.2129 773.952 Q38.5671 772.567 38.5671 770.442 Q38.5671 768.67 38.4705 768.155 Q38.3739 767.607 38.0196 766.802 Z" fill="#000000" fill-rule="evenodd" fill-opacity="1" /><path clip-path="url(#clip330)" d="M57.1294 731.525 Q58.3243 731.525 59.0908 732.314 Q59.8573 733.08 59.8573 734.072 Q59.8573 734.929 59.3613 735.38 Q58.8653 735.831 58.2341 735.831 Q57.3323 735.831 56.5884 735.132 Q55.8444 734.433 55.6866 733.419 Q55.1455 734.162 55.1455 735.357 Q55.1455 737.319 56.656 739.055 Q57.3549 739.821 58.6399 740.655 Q59.9023 741.489 60.4434 741.647 L66.4627 743.112 Q67.139 743.248 70.3854 744.082 Q73.6092 744.893 73.7444 744.961 Q74.3757 745.187 74.7138 745.683 Q75.052 746.178 75.052 746.674 Q75.052 747.238 74.7138 747.621 Q74.3757 748.005 73.7895 748.005 Q73.6993 748.005 73.3612 747.937 Q73.023 747.869 72.5496 747.757 Q72.0762 747.644 71.8056 747.599 L61.1423 744.916 Q59.2035 744.42 58.5948 744.307 Q57.9636 744.172 57.2647 744.172 Q56.0473 744.172 55.5964 744.555 Q55.1455 744.939 55.1455 745.615 Q55.1455 746.787 56.5433 747.554 Q57.941 748.32 60.6463 748.974 Q61.3903 749.177 61.5481 749.312 Q61.7059 749.425 61.7059 749.763 Q61.6833 750.327 61.2324 750.327 Q61.1197 750.327 60.3983 750.146 Q59.6544 749.966 58.5722 749.628 Q57.4676 749.267 56.7687 748.884 Q56.2953 748.658 55.9797 748.455 Q55.6641 748.253 55.1681 747.847 Q54.6721 747.441 54.4016 746.832 Q54.1311 746.224 54.1311 745.48 Q54.1311 743.856 55.123 742.707 Q56.1149 741.534 57.6705 741.264 Q56.8589 740.7 56.16 740.001 Q55.4386 739.303 54.7848 738.018 Q54.1311 736.732 54.1311 735.357 Q54.1311 733.644 55.0103 732.584 Q55.867 731.525 57.1294 731.525 Z" fill="#000000" fill-rule="evenodd" fill-opacity="1" /><path clip-path="url(#clip330)" d="M69.1905 711.114 Q69.3934 710.934 69.5963 710.934 Q69.7992 710.934 70.3854 711.385 Q70.9715 711.813 71.7605 712.737 Q72.5496 713.662 73.2935 714.857 Q74.0375 716.051 74.5335 717.81 Q75.052 719.568 75.052 721.417 Q75.052 724.731 72.6849 726.715 Q70.3177 728.676 66.6881 728.676 Q64.3661 728.676 62.3146 727.91 Q60.2405 727.143 58.7751 725.903 Q57.3098 724.641 56.2502 723.063 Q55.1681 721.462 54.6496 719.794 Q54.1311 718.125 54.1311 716.57 Q54.1311 714.293 55.2808 712.963 Q56.4306 711.633 58.0537 711.633 Q58.437 711.633 58.9104 711.745 Q59.3838 711.836 60.1278 712.151 Q60.8717 712.444 61.6157 713.211 Q62.3371 713.977 62.8105 715.105 Q63.8701 717.607 63.8701 722.161 L63.8701 724.618 Q66.7783 725.34 68.672 725.34 Q69.416 725.34 70.1825 725.204 Q70.9264 725.069 71.8733 724.708 Q72.8201 724.325 73.4288 723.468 Q74.015 722.589 74.015 721.327 Q74.015 720.921 73.9924 720.493 Q73.9699 720.042 73.7219 718.914 Q73.4739 717.765 73.0456 716.75 Q72.6172 715.736 71.6929 714.451 Q70.7461 713.143 69.461 712.106 Q68.9876 711.745 68.9876 711.497 Q68.9876 711.295 69.1905 711.114 M58.0537 713.166 Q56.8138 713.166 55.9797 714.09 Q55.1455 714.992 55.1455 716.57 Q55.1455 717.066 55.2583 717.675 Q55.371 718.283 55.8444 719.298 Q56.3178 720.29 57.1069 721.169 Q57.8734 722.048 59.3838 722.927 Q60.8717 723.807 62.8556 724.325 L62.8556 722.431 Q62.8556 721.778 62.8556 721.304 Q62.8331 720.831 62.7429 719.794 Q62.6527 718.734 62.4949 717.968 Q62.3146 717.201 61.9539 716.232 Q61.5932 715.262 61.1197 714.654 Q60.6238 714.022 59.8347 713.594 Q59.0457 713.166 58.0537 713.166 Z" fill="#000000" fill-rule="evenodd" fill-opacity="1" /><path clip-path="url(#clip330)" d="M42.9943 697.5 L69.6865 704.15 Q70.7461 704.421 71.8958 704.421 Q74.015 704.421 74.015 703.023 Q74.015 702.369 73.5866 701.828 Q73.1357 701.287 72.2565 700.882 Q71.3548 700.453 70.4981 700.183 Q69.6414 699.89 68.3113 699.529 Q67.7928 699.416 67.635 699.303 Q67.4772 699.191 67.4772 698.875 Q67.4772 698.312 67.928 698.312 Q70.701 698.875 72.4594 699.709 Q75.052 700.927 75.052 703.181 Q75.052 704.872 73.8797 706.134 Q72.6849 707.374 70.7911 707.374 Q70.0697 707.374 69.2131 707.149 L46.1279 701.332 L45.2261 701.175 Q44.9782 701.175 44.8429 701.265 Q44.7076 701.355 44.5724 701.896 Q44.4371 702.415 44.4371 703.452 Q44.4371 703.88 44.4145 704.083 Q44.392 704.263 44.2793 704.444 Q44.1666 704.601 43.9186 704.601 Q43.5128 704.601 43.2873 704.444 Q43.0619 704.263 43.0168 704.128 Q42.9717 703.993 42.9492 703.722 Q42.9266 703.339 42.8139 702.054 Q42.6787 700.769 42.5885 699.664 Q42.4983 698.56 42.4983 698.086 Q42.4983 697.816 42.6336 697.68 Q42.7463 697.522 42.8815 697.5 L42.9943 697.5 Z" fill="#000000" fill-rule="evenodd" fill-opacity="1" /><polyline clip-path="url(#clip333)" style="stroke:#009af9; stroke-linecap:round; stroke-linejoin:round; stroke-width:4; stroke-opacity:1; fill:none" points="219.866,595.582 486.477,1010.15 753.089,1174.05 1019.7,1277.01 1286.31,1336.32 1552.92,1380.62 1819.53,1401.77 2086.14,1413.89 2352.76,1420.42 "/>
<polyline clip-path="url(#clip333)" style="stroke:#e26f46; stroke-linecap:round; stroke-linejoin:round; stroke-width:4; stroke-opacity:1; fill:none" points="219.866,483.826 486.477,818.119 753.089,1090.21 1019.7,1185.41 1286.31,1269.05 1552.92,1371.04 1819.53,1399.31 2086.14,1412.76 2352.76,1420.33 "/>
<polyline clip-path="url(#clip333)" style="stroke:#3da44d; stroke-linecap:round; stroke-linejoin:round; stroke-width:4; stroke-opacity:1; fill:none" points="219.866,591.659 486.477,1000.37 753.089,1167.82 1019.7,1269.72 1286.31,1330.93 1552.92,1378.85 1819.53,1401.1 2086.14,1413.61 2352.76,1420.35 "/>
<path clip-path="url(#clip330)" d="M1528.56 300.469 L2281.66 300.469 L2281.66 93.1086 L1528.56 93.1086  Z" fill="#ffffff" fill-rule="evenodd" fill-opacity="1"/>
<polyline clip-path="url(#clip330)" style="stroke:#000000; stroke-linecap:round; stroke-linejoin:round; stroke-width:4; stroke-opacity:1; fill:none" points="1528.56,300.469 2281.66,300.469 2281.66,93.1086 1528.56,93.1086 1528.56,300.469 "/>
<polyline clip-path="url(#clip330)" style="stroke:#009af9; stroke-linecap:round; stroke-linejoin:round; stroke-width:4; stroke-opacity:1; fill:none" points="1552.26,144.949 1694.45,144.949 "/>
<path clip-path="url(#clip330)" d="M1718.73 136.303 L1738.96 136.303 L1738.96 140.192 L1722.94 158.826 L1738.96 158.826 L1738.96 162.229 L1718.15 162.229 L1718.15 158.34 L1734.17 139.706 L1718.73 139.706 L1718.73 136.303 Z" fill="#000000" fill-rule="evenodd" fill-opacity="1" /><path clip-path="url(#clip330)" d="M1767.64 148.201 L1767.64 150.284 L1748.06 150.284 Q1748.33 154.682 1750.7 156.997 Q1753.08 159.289 1757.32 159.289 Q1759.77 159.289 1762.06 158.687 Q1764.38 158.085 1766.64 156.881 L1766.64 160.909 Q1764.35 161.881 1761.94 162.391 Q1759.54 162.9 1757.06 162.9 Q1750.86 162.9 1747.22 159.289 Q1743.61 155.678 1743.61 149.52 Q1743.61 143.155 1747.04 139.428 Q1750.49 135.678 1756.32 135.678 Q1761.55 135.678 1764.58 139.057 Q1767.64 142.414 1767.64 148.201 M1763.38 146.951 Q1763.33 143.456 1761.41 141.372 Q1759.51 139.289 1756.37 139.289 Q1752.8 139.289 1750.65 141.303 Q1748.52 143.317 1748.2 146.974 L1763.38 146.951 Z" fill="#000000" fill-rule="evenodd" fill-opacity="1" /><path clip-path="url(#clip330)" d="M1789.65 140.284 Q1788.94 139.868 1788.08 139.682 Q1787.25 139.474 1786.23 139.474 Q1782.62 139.474 1780.67 141.835 Q1778.75 144.173 1778.75 148.571 L1778.75 162.229 L1774.47 162.229 L1774.47 136.303 L1778.75 136.303 L1778.75 140.331 Q1780.09 137.969 1782.25 136.835 Q1784.4 135.678 1787.48 135.678 Q1787.92 135.678 1788.45 135.747 Q1788.98 135.794 1789.63 135.909 L1789.65 140.284 Z" fill="#000000" fill-rule="evenodd" fill-opacity="1" /><path clip-path="url(#clip330)" d="M1803.13 139.289 Q1799.7 139.289 1797.71 141.974 Q1795.72 144.636 1795.72 149.289 Q1795.72 153.942 1797.69 156.627 Q1799.68 159.289 1803.13 159.289 Q1806.53 159.289 1808.52 156.604 Q1810.51 153.918 1810.51 149.289 Q1810.51 144.682 1808.52 141.997 Q1806.53 139.289 1803.13 139.289 M1803.13 135.678 Q1808.68 135.678 1811.85 139.289 Q1815.02 142.9 1815.02 149.289 Q1815.02 155.655 1811.85 159.289 Q1808.68 162.9 1803.13 162.9 Q1797.55 162.9 1794.38 159.289 Q1791.23 155.655 1791.23 149.289 Q1791.23 142.9 1794.38 139.289 Q1797.55 135.678 1803.13 135.678 Z" fill="#000000" fill-rule="evenodd" fill-opacity="1" /><path clip-path="url(#clip330)" d="M1820.81 147.344 L1833.29 147.344 L1833.29 151.141 L1820.81 151.141 L1820.81 147.344 Z" fill="#000000" fill-rule="evenodd" fill-opacity="1" /><path clip-path="url(#clip330)" d="M1858.84 132.206 Q1856.48 130.585 1850.95 130.585 Q1845.09 130.585 1845.09 133.294 Q1845.09 135.423 1851.2 136.534 Q1856.02 137.391 1858.73 139.983 Q1862.01 143.108 1862.01 149.52 Q1862.01 155.655 1858.84 159.266 Q1855.67 162.9 1850.12 162.9 Q1844.58 162.9 1841.39 159.266 Q1838.22 155.655 1838.22 149.289 Q1838.22 144.567 1841.39 140.747 Q1842.62 139.266 1844.35 138.432 Q1840.74 136.604 1840.74 133.34 Q1840.74 127.044 1850.95 127.044 Q1856.06 127.044 1858.84 128.664 L1858.84 132.206 M1847.55 139.59 Q1845.97 140.261 1844.7 141.951 Q1842.71 144.567 1842.71 149.289 Q1842.71 153.988 1844.68 156.627 Q1846.67 159.289 1850.12 159.289 Q1853.52 159.289 1855.51 156.604 Q1857.5 153.918 1857.5 149.52 Q1857.5 144.914 1855.39 142.692 Q1853.15 140.307 1850.23 140.053 Q1848.75 139.914 1847.55 139.59 Z" fill="#000000" fill-rule="evenodd" fill-opacity="1" /><path clip-path="url(#clip330)" d="M1884.14 126.21 L1888.4 126.21 L1888.4 162.229 L1884.14 162.229 L1884.14 126.21 Z" fill="#000000" fill-rule="evenodd" fill-opacity="1" /><path clip-path="url(#clip330)" d="M1907.36 139.289 Q1903.93 139.289 1901.94 141.974 Q1899.95 144.636 1899.95 149.289 Q1899.95 153.942 1901.92 156.627 Q1903.91 159.289 1907.36 159.289 Q1910.76 159.289 1912.75 156.604 Q1914.75 153.918 1914.75 149.289 Q1914.75 144.682 1912.75 141.997 Q1910.76 139.289 1907.36 139.289 M1907.36 135.678 Q1912.92 135.678 1916.09 139.289 Q1919.26 142.9 1919.26 149.289 Q1919.26 155.655 1916.09 159.289 Q1912.92 162.9 1907.36 162.9 Q1901.78 162.9 1898.61 159.289 Q1895.46 155.655 1895.46 149.289 Q1895.46 142.9 1898.61 139.289 Q1901.78 135.678 1907.36 135.678 Z" fill="#000000" fill-rule="evenodd" fill-opacity="1" /><path clip-path="url(#clip330)" d="M1923.84 136.303 L1928.1 136.303 L1933.43 156.534 L1938.73 136.303 L1943.75 136.303 L1949.07 156.534 L1954.37 136.303 L1958.63 136.303 L1951.85 162.229 L1946.83 162.229 L1941.25 140.979 L1935.65 162.229 L1930.62 162.229 L1923.84 136.303 Z" fill="#000000" fill-rule="evenodd" fill-opacity="1" /><path clip-path="url(#clip330)" d="M1987.27 148.201 L1987.27 150.284 L1967.68 150.284 Q1967.96 154.682 1970.32 156.997 Q1972.71 159.289 1976.94 159.289 Q1979.4 159.289 1981.69 158.687 Q1984 158.085 1986.27 156.881 L1986.27 160.909 Q1983.98 161.881 1981.57 162.391 Q1979.17 162.9 1976.69 162.9 Q1970.49 162.9 1966.85 159.289 Q1963.24 155.678 1963.24 149.52 Q1963.24 143.155 1966.67 139.428 Q1970.12 135.678 1975.95 135.678 Q1981.18 135.678 1984.21 139.057 Q1987.27 142.414 1987.27 148.201 M1983.01 146.951 Q1982.96 143.456 1981.04 141.372 Q1979.14 139.289 1975.99 139.289 Q1972.43 139.289 1970.28 141.303 Q1968.15 143.317 1967.82 146.974 L1983.01 146.951 Z" fill="#000000" fill-rule="evenodd" fill-opacity="1" /><path clip-path="url(#clip330)" d="M2009.28 140.284 Q2008.56 139.868 2007.71 139.682 Q2006.87 139.474 2005.86 139.474 Q2002.24 139.474 2000.3 141.835 Q1998.38 144.173 1998.38 148.571 L1998.38 162.229 L1994.1 162.229 L1994.1 136.303 L1998.38 136.303 L1998.38 140.331 Q1999.72 137.969 2001.87 136.835 Q2004.03 135.678 2007.11 135.678 Q2007.55 135.678 2008.08 135.747 Q2008.61 135.794 2009.26 135.909 L2009.28 140.284 Z" fill="#000000" fill-rule="evenodd" fill-opacity="1" /><path clip-path="url(#clip330)" d="M2047.43 149.289 Q2047.43 144.59 2045.49 141.928 Q2043.56 139.243 2040.18 139.243 Q2036.8 139.243 2034.86 141.928 Q2032.94 144.59 2032.94 149.289 Q2032.94 153.988 2034.86 156.673 Q2036.8 159.335 2040.18 159.335 Q2043.56 159.335 2045.49 156.673 Q2047.43 153.988 2047.43 149.289 M2032.94 140.238 Q2034.28 137.923 2036.32 136.812 Q2038.38 135.678 2041.23 135.678 Q2045.95 135.678 2048.89 139.428 Q2051.85 143.178 2051.85 149.289 Q2051.85 155.4 2048.89 159.15 Q2045.95 162.9 2041.23 162.9 Q2038.38 162.9 2036.32 161.789 Q2034.28 160.655 2032.94 158.34 L2032.94 162.229 L2028.66 162.229 L2028.66 126.21 L2032.94 126.21 L2032.94 140.238 Z" fill="#000000" fill-rule="evenodd" fill-opacity="1" /><path clip-path="url(#clip330)" d="M2068.96 139.289 Q2065.53 139.289 2063.54 141.974 Q2061.55 144.636 2061.55 149.289 Q2061.55 153.942 2063.52 156.627 Q2065.51 159.289 2068.96 159.289 Q2072.36 159.289 2074.35 156.604 Q2076.34 153.918 2076.34 149.289 Q2076.34 144.682 2074.35 141.997 Q2072.36 139.289 2068.96 139.289 M2068.96 135.678 Q2074.51 135.678 2077.68 139.289 Q2080.86 142.9 2080.86 149.289 Q2080.86 155.655 2077.68 159.289 Q2074.51 162.9 2068.96 162.9 Q2063.38 162.9 2060.21 159.289 Q2057.06 155.655 2057.06 149.289 Q2057.06 142.9 2060.21 139.289 Q2063.38 135.678 2068.96 135.678 Z" fill="#000000" fill-rule="evenodd" fill-opacity="1" /><path clip-path="url(#clip330)" d="M2087.48 151.997 L2087.48 136.303 L2091.73 136.303 L2091.73 151.835 Q2091.73 155.516 2093.17 157.368 Q2094.61 159.196 2097.48 159.196 Q2100.92 159.196 2102.92 156.997 Q2104.93 154.798 2104.93 151.002 L2104.93 136.303 L2109.19 136.303 L2109.19 162.229 L2104.93 162.229 L2104.93 158.247 Q2103.38 160.608 2101.32 161.766 Q2099.28 162.9 2096.57 162.9 Q2092.11 162.9 2089.79 160.122 Q2087.48 157.344 2087.48 151.997 M2098.19 135.678 L2098.19 135.678 Z" fill="#000000" fill-rule="evenodd" fill-opacity="1" /><path clip-path="url(#clip330)" d="M2139.51 146.581 L2139.51 162.229 L2135.25 162.229 L2135.25 146.719 Q2135.25 143.039 2133.82 141.21 Q2132.38 139.382 2129.51 139.382 Q2126.06 139.382 2124.07 141.581 Q2122.08 143.78 2122.08 147.576 L2122.08 162.229 L2117.8 162.229 L2117.8 136.303 L2122.08 136.303 L2122.08 140.331 Q2123.61 137.993 2125.67 136.835 Q2127.75 135.678 2130.46 135.678 Q2134.93 135.678 2137.22 138.456 Q2139.51 141.21 2139.51 146.581 Z" fill="#000000" fill-rule="evenodd" fill-opacity="1" /><path clip-path="url(#clip330)" d="M2165.07 140.238 L2165.07 126.21 L2169.33 126.21 L2169.33 162.229 L2165.07 162.229 L2165.07 158.34 Q2163.73 160.655 2161.67 161.789 Q2159.63 162.9 2156.76 162.9 Q2152.06 162.9 2149.1 159.15 Q2146.16 155.4 2146.16 149.289 Q2146.16 143.178 2149.1 139.428 Q2152.06 135.678 2156.76 135.678 Q2159.63 135.678 2161.67 136.812 Q2163.73 137.923 2165.07 140.238 M2150.55 149.289 Q2150.55 153.988 2152.48 156.673 Q2154.42 159.335 2157.8 159.335 Q2161.18 159.335 2163.12 156.673 Q2165.07 153.988 2165.07 149.289 Q2165.07 144.59 2163.12 141.928 Q2161.18 139.243 2157.8 139.243 Q2154.42 139.243 2152.48 141.928 Q2150.55 144.59 2150.55 149.289 Z" fill="#000000" fill-rule="evenodd" fill-opacity="1" /><polyline clip-path="url(#clip330)" style="stroke:#e26f46; stroke-linecap:round; stroke-linejoin:round; stroke-width:4; stroke-opacity:1; fill:none" points="1552.26,196.789 1694.45,196.789 "/>
<path clip-path="url(#clip330)" d="M1725.56 180.782 L1725.56 188.143 L1734.33 188.143 L1734.33 191.453 L1725.56 191.453 L1725.56 205.527 Q1725.56 208.698 1726.41 209.601 Q1727.29 210.504 1729.95 210.504 L1734.33 210.504 L1734.33 214.069 L1729.95 214.069 Q1725.02 214.069 1723.15 212.24 Q1721.27 210.388 1721.27 205.527 L1721.27 191.453 L1718.15 191.453 L1718.15 188.143 L1721.27 188.143 L1721.27 180.782 L1725.56 180.782 Z" fill="#000000" fill-rule="evenodd" fill-opacity="1" /><path clip-path="url(#clip330)" d="M1740.12 179.509 L1744.79 179.509 L1744.79 193.675 L1761.78 193.675 L1761.78 179.509 L1766.46 179.509 L1766.46 214.069 L1761.78 214.069 L1761.78 197.61 L1744.79 197.61 L1744.79 214.069 L1740.12 214.069 L1740.12 179.509 Z" fill="#000000" fill-rule="evenodd" fill-opacity="1" /><path clip-path="url(#clip330)" d="M1789.79 182.68 Q1784.7 182.68 1781.69 186.476 Q1778.7 190.272 1778.7 196.823 Q1778.7 203.351 1781.69 207.147 Q1784.7 210.944 1789.79 210.944 Q1794.88 210.944 1797.85 207.147 Q1800.83 203.351 1800.83 196.823 Q1800.83 190.272 1797.85 186.476 Q1794.88 182.68 1789.79 182.68 M1789.79 178.884 Q1797.06 178.884 1801.41 183.768 Q1805.76 188.629 1805.76 196.823 Q1805.76 204.995 1801.41 209.879 Q1797.06 214.74 1789.79 214.74 Q1782.5 214.74 1778.13 209.879 Q1773.77 205.018 1773.77 196.823 Q1773.77 188.629 1778.13 183.768 Q1782.5 178.884 1789.79 178.884 Z" fill="#000000" fill-rule="evenodd" fill-opacity="1" /><path clip-path="url(#clip330)" d="M1833.8 180.643 L1833.8 185.203 Q1831.13 183.93 1828.77 183.305 Q1826.41 182.68 1824.21 182.68 Q1820.39 182.68 1818.31 184.161 Q1816.25 185.643 1816.25 188.374 Q1816.25 190.666 1817.62 191.847 Q1819 193.004 1822.85 193.722 L1825.67 194.3 Q1830.9 195.296 1833.38 197.819 Q1835.88 200.319 1835.88 204.532 Q1835.88 209.555 1832.5 212.147 Q1829.14 214.74 1822.64 214.74 Q1820.19 214.74 1817.41 214.184 Q1814.65 213.629 1811.69 212.541 L1811.69 207.726 Q1814.54 209.323 1817.27 210.133 Q1820 210.944 1822.64 210.944 Q1826.64 210.944 1828.82 209.37 Q1831 207.796 1831 204.879 Q1831 202.333 1829.42 200.897 Q1827.87 199.462 1824.31 198.745 L1821.46 198.189 Q1816.23 197.147 1813.89 194.925 Q1811.55 192.703 1811.55 188.745 Q1811.55 184.161 1814.77 181.522 Q1818.01 178.884 1823.68 178.884 Q1826.11 178.884 1828.63 179.323 Q1831.16 179.763 1833.8 180.643 Z" fill="#000000" fill-rule="evenodd" fill-opacity="1" /><path clip-path="url(#clip330)" d="M1852.08 214.069 L1838.89 179.509 L1843.77 179.509 L1854.72 208.606 L1865.69 179.509 L1870.56 179.509 L1857.38 214.069 L1852.08 214.069 Z" fill="#000000" fill-rule="evenodd" fill-opacity="1" /><path clip-path="url(#clip330)" d="M1880.28 183.351 L1880.28 210.226 L1885.93 210.226 Q1893.08 210.226 1896.39 206.985 Q1899.72 203.745 1899.72 196.754 Q1899.72 189.809 1896.39 186.592 Q1893.08 183.351 1885.93 183.351 L1880.28 183.351 M1875.6 179.509 L1885.21 179.509 Q1895.25 179.509 1899.95 183.698 Q1904.65 187.865 1904.65 196.754 Q1904.65 205.689 1899.93 209.879 Q1895.21 214.069 1885.21 214.069 L1875.6 214.069 L1875.6 179.509 Z" fill="#000000" fill-rule="evenodd" fill-opacity="1" /><polyline clip-path="url(#clip330)" style="stroke:#3da44d; stroke-linecap:round; stroke-linejoin:round; stroke-width:4; stroke-opacity:1; fill:none" points="1552.26,248.629 1694.45,248.629 "/>
<path clip-path="url(#clip330)" d="M1746.02 234.011 L1746.02 238.941 Q1743.66 236.742 1740.97 235.654 Q1738.31 234.566 1735.3 234.566 Q1729.38 234.566 1726.23 238.2 Q1723.08 241.812 1723.08 248.663 Q1723.08 255.492 1726.23 259.126 Q1729.38 262.737 1735.3 262.737 Q1738.31 262.737 1740.97 261.649 Q1743.66 260.561 1746.02 258.362 L1746.02 263.247 Q1743.57 264.913 1740.81 265.747 Q1738.08 266.58 1735.02 266.58 Q1727.18 266.58 1722.66 261.788 Q1718.15 256.973 1718.15 248.663 Q1718.15 240.33 1722.66 235.538 Q1727.18 230.724 1735.02 230.724 Q1738.13 230.724 1740.86 231.557 Q1743.61 232.367 1746.02 234.011 Z" fill="#000000" fill-rule="evenodd" fill-opacity="1" /><path clip-path="url(#clip330)" d="M1779.12 234.011 L1779.12 238.941 Q1776.76 236.742 1774.07 235.654 Q1771.41 234.566 1768.4 234.566 Q1762.48 234.566 1759.33 238.2 Q1756.18 241.812 1756.18 248.663 Q1756.18 255.492 1759.33 259.126 Q1762.48 262.737 1768.4 262.737 Q1771.41 262.737 1774.07 261.649 Q1776.76 260.561 1779.12 258.362 L1779.12 263.247 Q1776.67 264.913 1773.91 265.747 Q1771.18 266.58 1768.13 266.58 Q1760.28 266.58 1755.76 261.788 Q1751.25 256.973 1751.25 248.663 Q1751.25 240.33 1755.76 235.538 Q1760.28 230.724 1768.13 230.724 Q1771.23 230.724 1773.96 231.557 Q1776.71 232.367 1779.12 234.011 Z" fill="#000000" fill-rule="evenodd" fill-opacity="1" /><path clip-path="url(#clip330)" d="M1784.01 251.024 L1796.48 251.024 L1796.48 254.821 L1784.01 254.821 L1784.01 251.024 Z" fill="#000000" fill-rule="evenodd" fill-opacity="1" /><path clip-path="url(#clip330)" d="M1807.48 232.622 L1807.48 239.983 L1816.25 239.983 L1816.25 243.293 L1807.48 243.293 L1807.48 257.367 Q1807.48 260.538 1808.33 261.441 Q1809.21 262.344 1811.88 262.344 L1816.25 262.344 L1816.25 265.909 L1811.88 265.909 Q1806.94 265.909 1805.07 264.08 Q1803.19 262.228 1803.19 257.367 L1803.19 243.293 L1800.07 243.293 L1800.07 239.983 L1803.19 239.983 L1803.19 232.622 L1807.48 232.622 Z" fill="#000000" fill-rule="evenodd" fill-opacity="1" /><path clip-path="url(#clip330)" d="M1822.04 231.349 L1826.71 231.349 L1826.71 245.515 L1843.7 245.515 L1843.7 231.349 L1848.38 231.349 L1848.38 265.909 L1843.7 265.909 L1843.7 249.45 L1826.71 249.45 L1826.71 265.909 L1822.04 265.909 L1822.04 231.349 Z" fill="#000000" fill-rule="evenodd" fill-opacity="1" /><path clip-path="url(#clip330)" d="M1871.71 234.52 Q1866.62 234.52 1863.61 238.316 Q1860.62 242.112 1860.62 248.663 Q1860.62 255.191 1863.61 258.987 Q1866.62 262.784 1871.71 262.784 Q1876.81 262.784 1879.77 258.987 Q1882.75 255.191 1882.75 248.663 Q1882.75 242.112 1879.77 238.316 Q1876.81 234.52 1871.71 234.52 M1871.71 230.724 Q1878.98 230.724 1883.33 235.608 Q1887.69 240.469 1887.69 248.663 Q1887.69 256.835 1883.33 261.719 Q1878.98 266.58 1871.71 266.58 Q1864.42 266.58 1860.05 261.719 Q1855.69 256.858 1855.69 248.663 Q1855.69 240.469 1860.05 235.608 Q1864.42 230.724 1871.71 230.724 Z" fill="#000000" fill-rule="evenodd" fill-opacity="1" /><path clip-path="url(#clip330)" d="M1915.72 232.483 L1915.72 237.043 Q1913.06 235.77 1910.69 235.145 Q1908.33 234.52 1906.13 234.52 Q1902.31 234.52 1900.23 236.001 Q1898.17 237.483 1898.17 240.214 Q1898.17 242.506 1899.54 243.687 Q1900.93 244.844 1904.77 245.562 L1907.59 246.14 Q1912.82 247.136 1915.3 249.659 Q1917.8 252.159 1917.8 256.372 Q1917.8 261.395 1914.42 263.987 Q1911.06 266.58 1904.56 266.58 Q1902.11 266.58 1899.33 266.024 Q1896.57 265.469 1893.61 264.381 L1893.61 259.566 Q1896.46 261.163 1899.19 261.973 Q1901.92 262.784 1904.56 262.784 Q1908.56 262.784 1910.74 261.21 Q1912.92 259.636 1912.92 256.719 Q1912.92 254.173 1911.34 252.737 Q1909.79 251.302 1906.23 250.585 L1903.38 250.029 Q1898.15 248.987 1895.81 246.765 Q1893.47 244.543 1893.47 240.585 Q1893.47 236.001 1896.69 233.362 Q1899.93 230.724 1905.6 230.724 Q1908.03 230.724 1910.56 231.163 Q1913.08 231.603 1915.72 232.483 Z" fill="#000000" fill-rule="evenodd" fill-opacity="1" /><path clip-path="url(#clip330)" d="M1934 265.909 L1920.81 231.349 L1925.69 231.349 L1936.64 260.446 L1947.62 231.349 L1952.48 231.349 L1939.31 265.909 L1934 265.909 Z" fill="#000000" fill-rule="evenodd" fill-opacity="1" /><path clip-path="url(#clip330)" d="M1962.2 235.191 L1962.2 262.066 L1967.85 262.066 Q1975 262.066 1978.31 258.825 Q1981.64 255.585 1981.64 248.594 Q1981.64 241.649 1978.31 238.432 Q1975 235.191 1967.85 235.191 L1962.2 235.191 M1957.52 231.349 L1967.13 231.349 Q1977.18 231.349 1981.87 235.538 Q1986.57 239.705 1986.57 248.594 Q1986.57 257.529 1981.85 261.719 Q1977.13 265.909 1967.13 265.909 L1957.52 265.909 L1957.52 231.349 Z" fill="#000000" fill-rule="evenodd" fill-opacity="1" /><path clip-path="url(#clip330)" d="M2019.14 229.937 Q2016.04 235.261 2014.54 240.469 Q2013.03 245.677 2013.03 251.024 Q2013.03 256.372 2014.54 261.626 Q2016.06 266.858 2019.14 272.159 L2015.44 272.159 Q2011.97 266.719 2010.23 261.464 Q2008.52 256.21 2008.52 251.024 Q2008.52 245.862 2010.23 240.631 Q2011.94 235.4 2015.44 229.937 L2019.14 229.937 Z" fill="#000000" fill-rule="evenodd" fill-opacity="1" /><path clip-path="url(#clip330)" d="M2031.53 262.02 L2031.53 275.77 L2027.24 275.77 L2027.24 239.983 L2031.53 239.983 L2031.53 243.918 Q2032.87 241.603 2034.91 240.492 Q2036.97 239.358 2039.81 239.358 Q2044.54 239.358 2047.48 243.108 Q2050.44 246.858 2050.44 252.969 Q2050.44 259.08 2047.48 262.83 Q2044.54 266.58 2039.81 266.58 Q2036.97 266.58 2034.91 265.469 Q2032.87 264.335 2031.53 262.02 M2046.02 252.969 Q2046.02 248.27 2044.07 245.608 Q2042.15 242.923 2038.77 242.923 Q2035.39 242.923 2033.45 245.608 Q2031.53 248.27 2031.53 252.969 Q2031.53 257.668 2033.45 260.353 Q2035.39 263.015 2038.77 263.015 Q2042.15 263.015 2044.07 260.353 Q2046.02 257.668 2046.02 252.969 Z" fill="#000000" fill-rule="evenodd" fill-opacity="1" /><path clip-path="url(#clip330)" d="M2072.52 243.964 Q2071.8 243.548 2070.95 243.362 Q2070.11 243.154 2069.1 243.154 Q2065.48 243.154 2063.54 245.515 Q2061.62 247.853 2061.62 252.251 L2061.62 265.909 L2057.34 265.909 L2057.34 239.983 L2061.62 239.983 L2061.62 244.011 Q2062.96 241.649 2065.11 240.515 Q2067.27 239.358 2070.35 239.358 Q2070.79 239.358 2071.32 239.427 Q2071.85 239.474 2072.5 239.589 L2072.52 243.964 Z" fill="#000000" fill-rule="evenodd" fill-opacity="1" /><path clip-path="url(#clip330)" d="M2085.99 242.969 Q2082.57 242.969 2080.58 245.654 Q2078.59 248.316 2078.59 252.969 Q2078.59 257.622 2080.55 260.307 Q2082.55 262.969 2085.99 262.969 Q2089.4 262.969 2091.39 260.284 Q2093.38 257.598 2093.38 252.969 Q2093.38 248.362 2091.39 245.677 Q2089.4 242.969 2085.99 242.969 M2085.99 239.358 Q2091.55 239.358 2094.72 242.969 Q2097.89 246.58 2097.89 252.969 Q2097.89 259.335 2094.72 262.969 Q2091.55 266.58 2085.99 266.58 Q2080.42 266.58 2077.24 262.969 Q2074.1 259.335 2074.1 252.969 Q2074.1 246.58 2077.24 242.969 Q2080.42 239.358 2085.99 239.358 Z" fill="#000000" fill-rule="evenodd" fill-opacity="1" /><path clip-path="url(#clip330)" d="M2109.07 262.02 L2109.07 275.77 L2104.79 275.77 L2104.79 239.983 L2109.07 239.983 L2109.07 243.918 Q2110.42 241.603 2112.45 240.492 Q2114.51 239.358 2117.36 239.358 Q2122.08 239.358 2125.02 243.108 Q2127.98 246.858 2127.98 252.969 Q2127.98 259.08 2125.02 262.83 Q2122.08 266.58 2117.36 266.58 Q2114.51 266.58 2112.45 265.469 Q2110.42 264.335 2109.07 262.02 M2123.56 252.969 Q2123.56 248.27 2121.62 245.608 Q2119.7 242.923 2116.32 242.923 Q2112.94 242.923 2110.99 245.608 Q2109.07 248.27 2109.07 252.969 Q2109.07 257.668 2110.99 260.353 Q2112.94 263.015 2116.32 263.015 Q2119.7 263.015 2121.62 260.353 Q2123.56 257.668 2123.56 252.969 Z" fill="#000000" fill-rule="evenodd" fill-opacity="1" /><path clip-path="url(#clip330)" d="M2145.09 242.969 Q2141.67 242.969 2139.67 245.654 Q2137.68 248.316 2137.68 252.969 Q2137.68 257.622 2139.65 260.307 Q2141.64 262.969 2145.09 262.969 Q2148.49 262.969 2150.48 260.284 Q2152.48 257.598 2152.48 252.969 Q2152.48 248.362 2150.48 245.677 Q2148.49 242.969 2145.09 242.969 M2145.09 239.358 Q2150.65 239.358 2153.82 242.969 Q2156.99 246.58 2156.99 252.969 Q2156.99 259.335 2153.82 262.969 Q2150.65 266.58 2145.09 266.58 Q2139.51 266.58 2136.34 262.969 Q2133.19 259.335 2133.19 252.969 Q2133.19 246.58 2136.34 242.969 Q2139.51 239.358 2145.09 239.358 Z" fill="#000000" fill-rule="evenodd" fill-opacity="1" /><path clip-path="url(#clip330)" d="M2180.58 240.747 L2180.58 244.774 Q2178.77 243.849 2176.83 243.386 Q2174.88 242.923 2172.8 242.923 Q2169.63 242.923 2168.03 243.895 Q2166.46 244.867 2166.46 246.811 Q2166.46 248.293 2167.59 249.149 Q2168.73 249.983 2172.15 250.747 L2173.61 251.071 Q2178.15 252.043 2180.04 253.825 Q2181.97 255.585 2181.97 258.756 Q2181.97 262.367 2179.1 264.473 Q2176.25 266.58 2171.25 266.58 Q2169.16 266.58 2166.9 266.163 Q2164.65 265.77 2162.15 264.96 L2162.15 260.561 Q2164.51 261.788 2166.8 262.413 Q2169.1 263.015 2171.34 263.015 Q2174.35 263.015 2175.97 261.997 Q2177.59 260.955 2177.59 259.08 Q2177.59 257.344 2176.41 256.418 Q2175.25 255.492 2171.29 254.636 L2169.81 254.288 Q2165.85 253.455 2164.1 251.742 Q2162.34 250.006 2162.34 246.997 Q2162.34 243.339 2164.93 241.349 Q2167.52 239.358 2172.29 239.358 Q2174.65 239.358 2176.73 239.705 Q2178.82 240.052 2180.58 240.747 Z" fill="#000000" fill-rule="evenodd" fill-opacity="1" /><path clip-path="url(#clip330)" d="M2210.92 251.881 L2210.92 253.964 L2191.34 253.964 Q2191.62 258.362 2193.98 260.677 Q2196.36 262.969 2200.6 262.969 Q2203.05 262.969 2205.35 262.367 Q2207.66 261.765 2209.93 260.561 L2209.93 264.589 Q2207.64 265.561 2205.23 266.071 Q2202.82 266.58 2200.35 266.58 Q2194.14 266.58 2190.51 262.969 Q2186.9 259.358 2186.9 253.2 Q2186.9 246.835 2190.32 243.108 Q2193.77 239.358 2199.6 239.358 Q2204.84 239.358 2207.87 242.737 Q2210.92 246.094 2210.92 251.881 M2206.66 250.631 Q2206.62 247.136 2204.7 245.052 Q2202.8 242.969 2199.65 242.969 Q2196.09 242.969 2193.93 244.983 Q2191.8 246.997 2191.48 250.654 L2206.66 250.631 Z" fill="#000000" fill-rule="evenodd" fill-opacity="1" /><path clip-path="url(#clip330)" d="M2234.97 243.918 L2234.97 229.89 L2239.23 229.89 L2239.23 265.909 L2234.97 265.909 L2234.97 262.02 Q2233.63 264.335 2231.57 265.469 Q2229.54 266.58 2226.66 266.58 Q2221.97 266.58 2219 262.83 Q2216.06 259.08 2216.06 252.969 Q2216.06 246.858 2219 243.108 Q2221.97 239.358 2226.66 239.358 Q2229.54 239.358 2231.57 240.492 Q2233.63 241.603 2234.97 243.918 M2220.46 252.969 Q2220.46 257.668 2222.38 260.353 Q2224.33 263.015 2227.71 263.015 Q2231.09 263.015 2233.03 260.353 Q2234.97 257.668 2234.97 252.969 Q2234.97 248.27 2233.03 245.608 Q2231.09 242.923 2227.71 242.923 Q2224.33 242.923 2222.38 245.608 Q2220.46 248.27 2220.46 252.969 Z" fill="#000000" fill-rule="evenodd" fill-opacity="1" /><path clip-path="url(#clip330)" d="M2247.34 229.937 L2251.04 229.937 Q2254.51 235.4 2256.22 240.631 Q2257.96 245.862 2257.96 251.024 Q2257.96 256.21 2256.22 261.464 Q2254.51 266.719 2251.04 272.159 L2247.34 272.159 Q2250.41 266.858 2251.92 261.626 Q2253.45 256.372 2253.45 251.024 Q2253.45 245.677 2251.92 240.469 Q2250.41 235.261 2247.34 229.937 Z" fill="#000000" fill-rule="evenodd" fill-opacity="1" /></svg>
