<?xml version="1.0" encoding="utf-8"?>
<svg xmlns="http://www.w3.org/2000/svg" xmlns:xlink="http://www.w3.org/1999/xlink" width="600" height="400" viewBox="0 0 2400 1600">
<defs>
  <clipPath id="clip250">
    <rect x="0" y="0" width="2400" height="1600"/>
  </clipPath>
</defs>
<path clip-path="url(#clip250)" d="M0 1600 L2400 1600 L2400 0 L0 0  Z" fill="#ffffff" fill-rule="evenodd" fill-opacity="1"/>
<defs>
  <clipPath id="clip251">
    <rect x="480" y="0" width="1681" height="1600"/>
  </clipPath>
</defs>
<defs>
  <clipPath id="clip252">
    <rect x="219" y="47" width="2134" height="1377"/>
  </clipPath>
</defs>
<path clip-path="url(#clip250)" d="M252.764 1423.18 L2352.76 1423.18 L2352.76 47.2441 L252.764 47.2441  Z" fill="#ffffff" fill-rule="evenodd" fill-opacity="1"/>
<defs>
  <clipPath id="clip253">
    <rect x="252" y="47" width="2101" height="1377"/>
  </clipPath>
</defs>
<polyline clip-path="url(#clip253)" style="stroke:#000000; stroke-linecap:round; stroke-linejoin:round; stroke-width:2; stroke-opacity:0.1; fill:none" points="486.096,1423.18 486.096,47.2441 "/>
<polyline clip-path="url(#clip253)" style="stroke:#000000; stroke-linecap:round; stroke-linejoin:round; stroke-width:2; stroke-opacity:0.1; fill:none" points="777.762,1423.18 777.762,47.2441 "/>
<polyline clip-path="url(#clip253)" style="stroke:#000000; stroke-linecap:round; stroke-linejoin:round; stroke-width:2; stroke-opacity:0.1; fill:none" points="1069.43,1423.18 1069.43,47.2441 "/>
<polyline clip-path="url(#clip253)" style="stroke:#000000; stroke-linecap:round; stroke-linejoin:round; stroke-width:2; stroke-opacity:0.1; fill:none" points="1361.09,1423.18 1361.09,47.2441 "/>
<polyline clip-path="url(#clip253)" style="stroke:#000000; stroke-linecap:round; stroke-linejoin:round; stroke-width:2; stroke-opacity:0.1; fill:none" points="1652.76,1423.18 1652.76,47.2441 "/>
<polyline clip-path="url(#clip253)" style="stroke:#000000; stroke-linecap:round; stroke-linejoin:round; stroke-width:2; stroke-opacity:0.1; fill:none" points="1944.42,1423.18 1944.42,47.2441 "/>
<polyline clip-path="url(#clip253)" style="stroke:#000000; stroke-linecap:round; stroke-linejoin:round; stroke-width:2; stroke-opacity:0.1; fill:none" points="2236.09,1423.18 2236.09,47.2441 "/>
<polyline clip-path="url(#clip250)" style="stroke:#000000; stroke-linecap:round; stroke-linejoin:round; stroke-width:4; stroke-opacity:1; fill:none" points="252.764,1423.18 2352.76,1423.18 "/>
<polyline clip-path="url(#clip250)" style="stroke:#000000; stroke-linecap:round; stroke-linejoin:round; stroke-width:4; stroke-opacity:1; fill:none" points="486.096,1423.18 486.096,1404.28 "/>
<polyline clip-path="url(#clip250)" style="stroke:#000000; stroke-linecap:round; stroke-linejoin:round; stroke-width:4; stroke-opacity:1; fill:none" points="777.762,1423.18 777.762,1404.28 "/>
<polyline clip-path="url(#clip250)" style="stroke:#000000; stroke-linecap:round; stroke-linejoin:round; stroke-width:4; stroke-opacity:1; fill:none" points="1069.43,1423.18 1069.43,1404.28 "/>
<polyline clip-path="url(#clip250)" style="stroke:#000000; stroke-linecap:round; stroke-linejoin:round; stroke-width:4; stroke-opacity:1; fill:none" points="1361.09,1423.18 1361.09,1404.28 "/>
<polyline clip-path="url(#clip250)" style="stroke:#000000; stroke-linecap:round; stroke-linejoin:round; stroke-width:4; stroke-opacity:1; fill:none" points="1652.76,1423.18 1652.76,1404.28 "/>
<polyline clip-path="url(#clip250)" style="stroke:#000000; stroke-linecap:round; stroke-linejoin:round; stroke-width:4; stroke-opacity:1; fill:none" points="1944.42,1423.18 1944.42,1404.28 "/>
<polyline clip-path="url(#clip250)" style="stroke:#000000; stroke-linecap:round; stroke-linejoin:round; stroke-width:4; stroke-opacity:1; fill:none" points="2236.09,1423.18 2236.09,1404.28 "/>
<path clip-path="url(#clip250)" d="M476.374 1451.02 L494.731 1451.02 L494.731 1454.96 L480.657 1454.96 L480.657 1463.43 Q481.675 1463.08 482.694 1462.92 Q483.712 1462.73 484.731 1462.73 Q490.518 1462.73 493.897 1465.9 Q497.277 1469.08 497.277 1474.49 Q497.277 1480.07 493.805 1483.17 Q490.332 1486.25 484.013 1486.25 Q481.837 1486.25 479.569 1485.88 Q477.323 1485.51 474.916 1484.77 L474.916 1480.07 Q476.999 1481.2 479.221 1481.76 Q481.444 1482.32 483.92 1482.32 Q487.925 1482.32 490.263 1480.21 Q492.601 1478.1 492.601 1474.49 Q492.601 1470.88 490.263 1468.77 Q487.925 1466.67 483.92 1466.67 Q482.045 1466.67 480.17 1467.08 Q478.319 1467.5 476.374 1468.38 L476.374 1451.02 Z" fill="#000000" fill-rule="evenodd" fill-opacity="1" /><path clip-path="url(#clip250)" d="M752.45 1481.64 L760.088 1481.64 L760.088 1455.28 L751.778 1456.95 L751.778 1452.69 L760.042 1451.02 L764.718 1451.02 L764.718 1481.64 L772.357 1481.64 L772.357 1485.58 L752.45 1485.58 L752.45 1481.64 Z" fill="#000000" fill-rule="evenodd" fill-opacity="1" /><path clip-path="url(#clip250)" d="M791.801 1454.1 Q788.19 1454.1 786.361 1457.66 Q784.556 1461.2 784.556 1468.33 Q784.556 1475.44 786.361 1479.01 Q788.19 1482.55 791.801 1482.55 Q795.435 1482.55 797.241 1479.01 Q799.07 1475.44 799.07 1468.33 Q799.07 1461.2 797.241 1457.66 Q795.435 1454.1 791.801 1454.1 M791.801 1450.39 Q797.611 1450.39 800.667 1455 Q803.746 1459.58 803.746 1468.33 Q803.746 1477.06 800.667 1481.67 Q797.611 1486.25 791.801 1486.25 Q785.991 1486.25 782.912 1481.67 Q779.857 1477.06 779.857 1468.33 Q779.857 1459.58 782.912 1455 Q785.991 1450.39 791.801 1450.39 Z" fill="#000000" fill-rule="evenodd" fill-opacity="1" /><path clip-path="url(#clip250)" d="M1044.61 1481.64 L1052.25 1481.64 L1052.25 1455.28 L1043.94 1456.95 L1043.94 1452.69 L1052.21 1451.02 L1056.88 1451.02 L1056.88 1481.64 L1064.52 1481.64 L1064.52 1485.58 L1044.61 1485.58 L1044.61 1481.64 Z" fill="#000000" fill-rule="evenodd" fill-opacity="1" /><path clip-path="url(#clip250)" d="M1074.01 1451.02 L1092.37 1451.02 L1092.37 1454.96 L1078.29 1454.96 L1078.29 1463.43 Q1079.31 1463.08 1080.33 1462.92 Q1081.35 1462.73 1082.37 1462.73 Q1088.15 1462.73 1091.53 1465.9 Q1094.91 1469.08 1094.91 1474.49 Q1094.91 1480.07 1091.44 1483.17 Q1087.97 1486.25 1081.65 1486.25 Q1079.47 1486.25 1077.21 1485.88 Q1074.96 1485.51 1072.55 1484.77 L1072.55 1480.07 Q1074.64 1481.2 1076.86 1481.76 Q1079.08 1482.32 1081.56 1482.32 Q1085.56 1482.32 1087.9 1480.21 Q1090.24 1478.1 1090.24 1474.49 Q1090.24 1470.88 1087.9 1468.77 Q1085.56 1466.67 1081.56 1466.67 Q1079.68 1466.67 1077.81 1467.08 Q1075.96 1467.5 1074.01 1468.38 L1074.01 1451.02 Z" fill="#000000" fill-rule="evenodd" fill-opacity="1" /><path clip-path="url(#clip250)" d="M1339.87 1481.64 L1356.19 1481.64 L1356.19 1485.58 L1334.24 1485.58 L1334.24 1481.64 Q1336.9 1478.89 1341.49 1474.26 Q1346.09 1469.61 1347.27 1468.27 Q1349.52 1465.74 1350.4 1464.01 Q1351.3 1462.25 1351.3 1460.56 Q1351.3 1457.8 1349.36 1456.07 Q1347.44 1454.33 1344.33 1454.33 Q1342.13 1454.33 1339.68 1455.09 Q1337.25 1455.86 1334.47 1457.41 L1334.47 1452.69 Q1337.3 1451.55 1339.75 1450.97 Q1342.2 1450.39 1344.24 1450.39 Q1349.61 1450.39 1352.81 1453.08 Q1356 1455.77 1356 1460.26 Q1356 1462.39 1355.19 1464.31 Q1354.4 1466.2 1352.3 1468.8 Q1351.72 1469.47 1348.62 1472.69 Q1345.51 1475.88 1339.87 1481.64 Z" fill="#000000" fill-rule="evenodd" fill-opacity="1" /><path clip-path="url(#clip250)" d="M1376 1454.1 Q1372.39 1454.1 1370.56 1457.66 Q1368.76 1461.2 1368.76 1468.33 Q1368.76 1475.44 1370.56 1479.01 Q1372.39 1482.55 1376 1482.55 Q1379.63 1482.55 1381.44 1479.01 Q1383.27 1475.44 1383.27 1468.33 Q1383.27 1461.2 1381.44 1457.66 Q1379.63 1454.1 1376 1454.1 M1376 1450.39 Q1381.81 1450.39 1384.87 1455 Q1387.94 1459.58 1387.94 1468.33 Q1387.94 1477.06 1384.87 1481.67 Q1381.81 1486.25 1376 1486.25 Q1370.19 1486.25 1367.11 1481.67 Q1364.06 1477.06 1364.06 1468.33 Q1364.06 1459.58 1367.11 1455 Q1370.19 1450.39 1376 1450.39 Z" fill="#000000" fill-rule="evenodd" fill-opacity="1" /><path clip-path="url(#clip250)" d="M1632.03 1481.64 L1648.35 1481.64 L1648.35 1485.58 L1626.4 1485.58 L1626.4 1481.64 Q1629.07 1478.89 1633.65 1474.26 Q1638.26 1469.61 1639.44 1468.27 Q1641.68 1465.74 1642.56 1464.01 Q1643.46 1462.25 1643.46 1460.56 Q1643.46 1457.8 1641.52 1456.07 Q1639.6 1454.33 1636.5 1454.33 Q1634.3 1454.33 1631.84 1455.09 Q1629.41 1455.86 1626.64 1457.41 L1626.64 1452.69 Q1629.46 1451.55 1631.91 1450.97 Q1634.37 1450.39 1636.4 1450.39 Q1641.77 1450.39 1644.97 1453.08 Q1648.16 1455.77 1648.16 1460.26 Q1648.16 1462.39 1647.35 1464.31 Q1646.57 1466.2 1644.46 1468.8 Q1643.88 1469.47 1640.78 1472.69 Q1637.68 1475.88 1632.03 1481.64 Z" fill="#000000" fill-rule="evenodd" fill-opacity="1" /><path clip-path="url(#clip250)" d="M1658.21 1451.02 L1676.57 1451.02 L1676.57 1454.96 L1662.49 1454.96 L1662.49 1463.43 Q1663.51 1463.08 1664.53 1462.92 Q1665.55 1462.73 1666.57 1462.73 Q1672.35 1462.73 1675.73 1465.9 Q1679.11 1469.08 1679.11 1474.49 Q1679.11 1480.07 1675.64 1483.17 Q1672.17 1486.25 1665.85 1486.25 Q1663.67 1486.25 1661.4 1485.88 Q1659.16 1485.51 1656.75 1484.77 L1656.75 1480.07 Q1658.83 1481.2 1661.06 1481.76 Q1663.28 1482.32 1665.76 1482.32 Q1669.76 1482.32 1672.1 1480.21 Q1674.44 1478.1 1674.44 1474.49 Q1674.44 1470.88 1672.1 1468.77 Q1669.76 1466.67 1665.76 1466.67 Q1663.88 1466.67 1662.01 1467.08 Q1660.15 1467.5 1658.21 1468.38 L1658.21 1451.02 Z" fill="#000000" fill-rule="evenodd" fill-opacity="1" /><path clip-path="url(#clip250)" d="M1933.27 1466.95 Q1936.62 1467.66 1938.5 1469.93 Q1940.4 1472.2 1940.4 1475.53 Q1940.4 1480.65 1936.88 1483.45 Q1933.36 1486.25 1926.88 1486.25 Q1924.7 1486.25 1922.39 1485.81 Q1920.1 1485.39 1917.64 1484.54 L1917.64 1480.02 Q1919.59 1481.16 1921.9 1481.74 Q1924.22 1482.32 1926.74 1482.32 Q1931.14 1482.32 1933.43 1480.58 Q1935.74 1478.84 1935.74 1475.53 Q1935.74 1472.48 1933.59 1470.77 Q1931.46 1469.03 1927.64 1469.03 L1923.61 1469.03 L1923.61 1465.19 L1927.83 1465.19 Q1931.28 1465.19 1933.1 1463.82 Q1934.93 1462.43 1934.93 1459.84 Q1934.93 1457.18 1933.04 1455.77 Q1931.16 1454.33 1927.64 1454.33 Q1925.72 1454.33 1923.52 1454.75 Q1921.32 1455.16 1918.68 1456.04 L1918.68 1451.88 Q1921.35 1451.14 1923.66 1450.77 Q1926 1450.39 1928.06 1450.39 Q1933.38 1450.39 1936.48 1452.83 Q1939.59 1455.23 1939.59 1459.35 Q1939.59 1462.22 1937.94 1464.21 Q1936.3 1466.18 1933.27 1466.95 Z" fill="#000000" fill-rule="evenodd" fill-opacity="1" /><path clip-path="url(#clip250)" d="M1959.26 1454.1 Q1955.65 1454.1 1953.82 1457.66 Q1952.02 1461.2 1952.02 1468.33 Q1952.02 1475.44 1953.82 1479.01 Q1955.65 1482.55 1959.26 1482.55 Q1962.9 1482.55 1964.7 1479.01 Q1966.53 1475.44 1966.53 1468.33 Q1966.53 1461.2 1964.7 1457.66 Q1962.9 1454.1 1959.26 1454.1 M1959.26 1450.39 Q1965.07 1450.39 1968.13 1455 Q1971.21 1459.58 1971.21 1468.33 Q1971.21 1477.06 1968.13 1481.67 Q1965.07 1486.25 1959.26 1486.25 Q1953.45 1486.25 1950.37 1481.67 Q1947.32 1477.06 1947.32 1468.33 Q1947.32 1459.58 1950.37 1455 Q1953.45 1450.39 1959.26 1450.39 Z" fill="#000000" fill-rule="evenodd" fill-opacity="1" /><path clip-path="url(#clip250)" d="M2225.43 1466.95 Q2228.79 1467.66 2230.66 1469.93 Q2232.56 1472.2 2232.56 1475.53 Q2232.56 1480.65 2229.04 1483.45 Q2225.52 1486.25 2219.04 1486.25 Q2216.87 1486.25 2214.55 1485.81 Q2212.26 1485.39 2209.81 1484.54 L2209.81 1480.02 Q2211.75 1481.16 2214.06 1481.74 Q2216.38 1482.32 2218.9 1482.32 Q2223.3 1482.32 2225.59 1480.58 Q2227.91 1478.84 2227.91 1475.53 Q2227.91 1472.48 2225.75 1470.77 Q2223.62 1469.03 2219.81 1469.03 L2215.78 1469.03 L2215.78 1465.19 L2219.99 1465.19 Q2223.44 1465.19 2225.27 1463.82 Q2227.1 1462.43 2227.1 1459.84 Q2227.1 1457.18 2225.2 1455.77 Q2223.32 1454.33 2219.81 1454.33 Q2217.88 1454.33 2215.68 1454.75 Q2213.49 1455.16 2210.85 1456.04 L2210.85 1451.88 Q2213.51 1451.14 2215.82 1450.77 Q2218.16 1450.39 2220.22 1450.39 Q2225.55 1450.39 2228.65 1452.83 Q2231.75 1455.23 2231.75 1459.35 Q2231.75 1462.22 2230.11 1464.21 Q2228.46 1466.18 2225.43 1466.95 Z" fill="#000000" fill-rule="evenodd" fill-opacity="1" /><path clip-path="url(#clip250)" d="M2241.47 1451.02 L2259.83 1451.02 L2259.83 1454.96 L2245.75 1454.96 L2245.75 1463.43 Q2246.77 1463.08 2247.79 1462.92 Q2248.81 1462.73 2249.83 1462.73 Q2255.62 1462.73 2258.99 1465.9 Q2262.37 1469.08 2262.37 1474.49 Q2262.37 1480.07 2258.9 1483.17 Q2255.43 1486.25 2249.11 1486.25 Q2246.93 1486.25 2244.67 1485.88 Q2242.42 1485.51 2240.01 1484.77 L2240.01 1480.07 Q2242.1 1481.2 2244.32 1481.76 Q2246.54 1482.32 2249.02 1482.32 Q2253.02 1482.32 2255.36 1480.21 Q2257.7 1478.1 2257.7 1474.49 Q2257.7 1470.88 2255.36 1468.77 Q2253.02 1466.67 2249.02 1466.67 Q2247.14 1466.67 2245.27 1467.08 Q2243.42 1467.5 2241.47 1468.38 L2241.47 1451.02 Z" fill="#000000" fill-rule="evenodd" fill-opacity="1" /><path clip-path="url(#clip250)" d="M1004.51 1550.12 Q997.413 1550.12 994.676 1551.75 Q991.938 1553.37 991.938 1557.29 Q991.938 1560.4 993.975 1562.25 Q996.044 1564.07 999.577 1564.07 Q1004.45 1564.07 1007.38 1560.63 Q1010.34 1557.16 1010.34 1551.43 L1010.34 1550.12 L1004.51 1550.12 M1016.19 1547.71 L1016.19 1568.04 L1010.34 1568.04 L1010.34 1562.63 Q1008.33 1565.88 1005.34 1567.44 Q1002.35 1568.97 998.018 1568.97 Q992.543 1568.97 989.297 1565.91 Q986.082 1562.82 986.082 1557.67 Q986.082 1551.65 990.092 1548.6 Q994.135 1545.54 1002.12 1545.54 L1010.34 1545.54 L1010.34 1544.97 Q1010.34 1540.93 1007.66 1538.73 Q1005.02 1536.5 1000.21 1536.5 Q997.158 1536.5 994.262 1537.23 Q991.365 1537.97 988.692 1539.43 L988.692 1534.02 Q991.907 1532.78 994.93 1532.17 Q997.954 1531.54 1000.82 1531.54 Q1008.55 1531.54 1012.37 1535.55 Q1016.19 1539.56 1016.19 1547.71 Z" fill="#000000" fill-rule="evenodd" fill-opacity="1" /><path clip-path="url(#clip250)" d="M1033.92 1562.7 L1033.92 1581.6 L1028.03 1581.6 L1028.03 1532.4 L1033.92 1532.4 L1033.92 1537.81 Q1035.77 1534.62 1038.57 1533.1 Q1041.4 1531.54 1045.31 1531.54 Q1051.81 1531.54 1055.85 1536.69 Q1059.92 1541.85 1059.92 1550.25 Q1059.92 1558.65 1055.85 1563.81 Q1051.81 1568.97 1045.31 1568.97 Q1041.4 1568.97 1038.57 1567.44 Q1035.77 1565.88 1033.92 1562.7 M1053.84 1550.25 Q1053.84 1543.79 1051.17 1540.13 Q1048.53 1536.44 1043.88 1536.44 Q1039.24 1536.44 1036.56 1540.13 Q1033.92 1543.79 1033.92 1550.25 Q1033.92 1556.71 1036.56 1560.4 Q1039.24 1564.07 1043.88 1564.07 Q1048.53 1564.07 1051.17 1560.4 Q1053.84 1556.71 1053.84 1550.25 Z" fill="#000000" fill-rule="evenodd" fill-opacity="1" /><path clip-path="url(#clip250)" d="M1075.3 1562.7 L1075.3 1581.6 L1069.41 1581.6 L1069.41 1532.4 L1075.3 1532.4 L1075.3 1537.81 Q1077.14 1534.62 1079.94 1533.1 Q1082.78 1531.54 1086.69 1531.54 Q1093.18 1531.54 1097.23 1536.69 Q1101.3 1541.85 1101.3 1550.25 Q1101.3 1558.65 1097.23 1563.81 Q1093.18 1568.97 1086.69 1568.97 Q1082.78 1568.97 1079.94 1567.44 Q1077.14 1565.88 1075.3 1562.7 M1095.22 1550.25 Q1095.22 1543.79 1092.55 1540.13 Q1089.91 1536.44 1085.26 1536.44 Q1080.61 1536.44 1077.94 1540.13 Q1075.3 1543.79 1075.3 1550.25 Q1075.3 1556.71 1077.94 1560.4 Q1080.61 1564.07 1085.26 1564.07 Q1089.91 1564.07 1092.55 1560.4 Q1095.22 1556.71 1095.22 1550.25 Z" fill="#000000" fill-rule="evenodd" fill-opacity="1" /><path clip-path="url(#clip250)" d="M1131.67 1537.87 Q1130.68 1537.3 1129.5 1537.04 Q1128.36 1536.76 1126.96 1536.76 Q1121.99 1536.76 1119.32 1540 Q1116.67 1543.22 1116.67 1549.27 L1116.67 1568.04 L1110.79 1568.04 L1110.79 1532.4 L1116.67 1532.4 L1116.67 1537.93 Q1118.52 1534.69 1121.48 1533.13 Q1124.44 1531.54 1128.67 1531.54 Q1129.28 1531.54 1130.01 1531.63 Q1130.74 1531.7 1131.63 1531.85 L1131.67 1537.87 Z" fill="#000000" fill-rule="evenodd" fill-opacity="1" /><path clip-path="url(#clip250)" d="M1150.19 1536.5 Q1145.48 1536.5 1142.74 1540.19 Q1140 1543.85 1140 1550.25 Q1140 1556.65 1142.71 1560.34 Q1145.45 1564 1150.19 1564 Q1154.87 1564 1157.61 1560.31 Q1160.34 1556.62 1160.34 1550.25 Q1160.34 1543.92 1157.61 1540.23 Q1154.87 1536.5 1150.19 1536.5 M1150.19 1531.54 Q1157.83 1531.54 1162.19 1536.5 Q1166.55 1541.47 1166.55 1550.25 Q1166.55 1559 1162.19 1564 Q1157.83 1568.97 1150.19 1568.97 Q1142.52 1568.97 1138.16 1564 Q1133.83 1559 1133.83 1550.25 Q1133.83 1541.47 1138.16 1536.5 Q1142.52 1531.54 1150.19 1531.54 Z" fill="#000000" fill-rule="evenodd" fill-opacity="1" /><path clip-path="url(#clip250)" d="M1203.88 1532.4 L1190.99 1549.74 L1204.55 1568.04 L1197.65 1568.04 L1187.27 1554.04 L1176.89 1568.04 L1169.99 1568.04 L1183.83 1549.39 L1171.16 1532.4 L1178.07 1532.4 L1187.52 1545.1 L1196.98 1532.4 L1203.88 1532.4 Z" fill="#000000" fill-rule="evenodd" fill-opacity="1" /><path clip-path="url(#clip250)" d="M1212.83 1532.4 L1218.68 1532.4 L1218.68 1568.04 L1212.83 1568.04 L1212.83 1532.4 M1212.83 1518.52 L1218.68 1518.52 L1218.68 1525.93 L1212.83 1525.93 L1212.83 1518.52 Z" fill="#000000" fill-rule="evenodd" fill-opacity="1" /><path clip-path="url(#clip250)" d="M1258.69 1539.24 Q1260.89 1535.29 1263.95 1533.41 Q1267 1531.54 1271.14 1531.54 Q1276.71 1531.54 1279.73 1535.45 Q1282.76 1539.33 1282.76 1546.53 L1282.76 1568.04 L1276.87 1568.04 L1276.87 1546.72 Q1276.87 1541.59 1275.05 1539.11 Q1273.24 1536.63 1269.52 1536.63 Q1264.96 1536.63 1262.32 1539.65 Q1259.68 1542.68 1259.68 1547.9 L1259.68 1568.04 L1253.79 1568.04 L1253.79 1546.72 Q1253.79 1541.56 1251.98 1539.11 Q1250.16 1536.63 1246.38 1536.63 Q1241.89 1536.63 1239.25 1539.68 Q1236.6 1542.71 1236.6 1547.9 L1236.6 1568.04 L1230.72 1568.04 L1230.72 1532.4 L1236.6 1532.4 L1236.6 1537.93 Q1238.61 1534.66 1241.41 1533.1 Q1244.21 1531.54 1248.06 1531.54 Q1251.95 1531.54 1254.65 1533.51 Q1257.39 1535.48 1258.69 1539.24 Z" fill="#000000" fill-rule="evenodd" fill-opacity="1" /><path clip-path="url(#clip250)" d="M1310.64 1550.12 Q1303.54 1550.12 1300.8 1551.75 Q1298.07 1553.37 1298.07 1557.29 Q1298.07 1560.4 1300.1 1562.25 Q1302.17 1564.07 1305.7 1564.07 Q1310.57 1564.07 1313.5 1560.63 Q1316.46 1557.16 1316.46 1551.43 L1316.46 1550.12 L1310.64 1550.12 M1322.32 1547.71 L1322.32 1568.04 L1316.46 1568.04 L1316.46 1562.63 Q1314.46 1565.88 1311.47 1567.44 Q1308.47 1568.97 1304.14 1568.97 Q1298.67 1568.97 1295.42 1565.91 Q1292.21 1562.82 1292.21 1557.67 Q1292.21 1551.65 1296.22 1548.6 Q1300.26 1545.54 1308.25 1545.54 L1316.46 1545.54 L1316.46 1544.97 Q1316.46 1540.93 1313.79 1538.73 Q1311.15 1536.5 1306.34 1536.5 Q1303.29 1536.5 1300.39 1537.23 Q1297.49 1537.97 1294.82 1539.43 L1294.82 1534.02 Q1298.03 1532.78 1301.06 1532.17 Q1304.08 1531.54 1306.95 1531.54 Q1314.68 1531.54 1318.5 1535.55 Q1322.32 1539.56 1322.32 1547.71 Z" fill="#000000" fill-rule="evenodd" fill-opacity="1" /><path clip-path="url(#clip250)" d="M1340.17 1522.27 L1340.17 1532.4 L1352.24 1532.4 L1352.24 1536.95 L1340.17 1536.95 L1340.17 1556.3 Q1340.17 1560.66 1341.35 1561.9 Q1342.56 1563.14 1346.22 1563.14 L1352.24 1563.14 L1352.24 1568.04 L1346.22 1568.04 Q1339.44 1568.04 1336.86 1565.53 Q1334.29 1562.98 1334.29 1556.3 L1334.29 1536.95 L1329.99 1536.95 L1329.99 1532.4 L1334.29 1532.4 L1334.29 1522.27 L1340.17 1522.27 Z" fill="#000000" fill-rule="evenodd" fill-opacity="1" /><path clip-path="url(#clip250)" d="M1359.94 1532.4 L1365.8 1532.4 L1365.8 1568.04 L1359.94 1568.04 L1359.94 1532.4 M1359.94 1518.52 L1365.8 1518.52 L1365.8 1525.93 L1359.94 1525.93 L1359.94 1518.52 Z" fill="#000000" fill-rule="evenodd" fill-opacity="1" /><path clip-path="url(#clip250)" d="M1391.86 1536.5 Q1387.15 1536.5 1384.42 1540.19 Q1381.68 1543.85 1381.68 1550.25 Q1381.68 1556.65 1384.38 1560.34 Q1387.12 1564 1391.86 1564 Q1396.54 1564 1399.28 1560.31 Q1402.02 1556.62 1402.02 1550.25 Q1402.02 1543.92 1399.28 1540.23 Q1396.54 1536.5 1391.86 1536.5 M1391.86 1531.54 Q1399.5 1531.54 1403.86 1536.5 Q1408.22 1541.47 1408.22 1550.25 Q1408.22 1559 1403.86 1564 Q1399.5 1568.97 1391.86 1568.97 Q1384.19 1568.97 1379.83 1564 Q1375.5 1559 1375.5 1550.25 Q1375.5 1541.47 1379.83 1536.5 Q1384.19 1531.54 1391.86 1531.54 Z" fill="#000000" fill-rule="evenodd" fill-opacity="1" /><path clip-path="url(#clip250)" d="M1447.56 1546.53 L1447.56 1568.04 L1441.71 1568.04 L1441.71 1546.72 Q1441.71 1541.66 1439.73 1539.14 Q1437.76 1536.63 1433.81 1536.63 Q1429.07 1536.63 1426.33 1539.65 Q1423.6 1542.68 1423.6 1547.9 L1423.6 1568.04 L1417.71 1568.04 L1417.71 1532.4 L1423.6 1532.4 L1423.6 1537.93 Q1425.7 1534.72 1428.53 1533.13 Q1431.39 1531.54 1435.12 1531.54 Q1441.26 1531.54 1444.41 1535.36 Q1447.56 1539.14 1447.56 1546.53 Z" fill="#000000" fill-rule="evenodd" fill-opacity="1" /><path clip-path="url(#clip250)" d="M1500.62 1537.87 Q1499.64 1537.3 1498.46 1537.04 Q1497.31 1536.76 1495.91 1536.76 Q1490.95 1536.76 1488.27 1540 Q1485.63 1543.22 1485.63 1549.27 L1485.63 1568.04 L1479.74 1568.04 L1479.74 1532.4 L1485.63 1532.4 L1485.63 1537.93 Q1487.48 1534.69 1490.44 1533.13 Q1493.4 1531.54 1497.63 1531.54 Q1498.23 1531.54 1498.97 1531.63 Q1499.7 1531.7 1500.59 1531.85 L1500.62 1537.87 Z" fill="#000000" fill-rule="evenodd" fill-opacity="1" /><path clip-path="url(#clip250)" d="M1522.97 1550.12 Q1515.87 1550.12 1513.13 1551.75 Q1510.39 1553.37 1510.39 1557.29 Q1510.39 1560.4 1512.43 1562.25 Q1514.5 1564.07 1518.03 1564.07 Q1522.9 1564.07 1525.83 1560.63 Q1528.79 1557.16 1528.79 1551.43 L1528.79 1550.12 L1522.97 1550.12 M1534.65 1547.71 L1534.65 1568.04 L1528.79 1568.04 L1528.79 1562.63 Q1526.79 1565.88 1523.79 1567.44 Q1520.8 1568.97 1516.47 1568.97 Q1511 1568.97 1507.75 1565.91 Q1504.54 1562.82 1504.54 1557.67 Q1504.54 1551.65 1508.55 1548.6 Q1512.59 1545.54 1520.58 1545.54 L1528.79 1545.54 L1528.79 1544.97 Q1528.79 1540.93 1526.12 1538.73 Q1523.47 1536.5 1518.67 1536.5 Q1515.61 1536.5 1512.72 1537.23 Q1509.82 1537.97 1507.15 1539.43 L1507.15 1534.02 Q1510.36 1532.78 1513.39 1532.17 Q1516.41 1531.54 1519.27 1531.54 Q1527.01 1531.54 1530.83 1535.55 Q1534.65 1539.56 1534.65 1547.71 Z" fill="#000000" fill-rule="evenodd" fill-opacity="1" /><path clip-path="url(#clip250)" d="M1576.34 1546.53 L1576.34 1568.04 L1570.49 1568.04 L1570.49 1546.72 Q1570.49 1541.66 1568.51 1539.14 Q1566.54 1536.63 1562.59 1536.63 Q1557.85 1536.63 1555.11 1539.65 Q1552.38 1542.68 1552.38 1547.9 L1552.38 1568.04 L1546.49 1568.04 L1546.49 1532.4 L1552.38 1532.4 L1552.38 1537.93 Q1554.48 1534.72 1557.31 1533.13 Q1560.17 1531.54 1563.9 1531.54 Q1570.04 1531.54 1573.19 1535.36 Q1576.34 1539.14 1576.34 1546.53 Z" fill="#000000" fill-rule="evenodd" fill-opacity="1" /><path clip-path="url(#clip250)" d="M1587.8 1518.52 L1593.69 1518.52 L1593.69 1547.77 L1611.16 1532.4 L1618.64 1532.4 L1599.74 1549.07 L1619.44 1568.04 L1611.8 1568.04 L1593.69 1550.63 L1593.69 1568.04 L1587.8 1568.04 L1587.8 1518.52 Z" fill="#000000" fill-rule="evenodd" fill-opacity="1" /><polyline clip-path="url(#clip253)" style="stroke:#000000; stroke-linecap:round; stroke-linejoin:round; stroke-width:2; stroke-opacity:0.1; fill:none" points="252.764,1423.18 2352.76,1423.18 "/>
<polyline clip-path="url(#clip253)" style="stroke:#000000; stroke-linecap:round; stroke-linejoin:round; stroke-width:2; stroke-opacity:0.1; fill:none" points="252.764,1079.2 2352.76,1079.2 "/>
<polyline clip-path="url(#clip253)" style="stroke:#000000; stroke-linecap:round; stroke-linejoin:round; stroke-width:2; stroke-opacity:0.1; fill:none" points="252.764,735.212 2352.76,735.212 "/>
<polyline clip-path="url(#clip253)" style="stroke:#000000; stroke-linecap:round; stroke-linejoin:round; stroke-width:2; stroke-opacity:0.1; fill:none" points="252.764,391.228 2352.76,391.228 "/>
<polyline clip-path="url(#clip253)" style="stroke:#000000; stroke-linecap:round; stroke-linejoin:round; stroke-width:2; stroke-opacity:0.1; fill:none" points="252.764,47.2441 2352.76,47.2441 "/>
<polyline clip-path="url(#clip250)" style="stroke:#000000; stroke-linecap:round; stroke-linejoin:round; stroke-width:4; stroke-opacity:1; fill:none" points="252.764,1423.18 252.764,47.2441 "/>
<polyline clip-path="url(#clip250)" style="stroke:#000000; stroke-linecap:round; stroke-linejoin:round; stroke-width:4; stroke-opacity:1; fill:none" points="252.764,1423.18 271.662,1423.18 "/>
<polyline clip-path="url(#clip250)" style="stroke:#000000; stroke-linecap:round; stroke-linejoin:round; stroke-width:4; stroke-opacity:1; fill:none" points="252.764,1079.2 271.662,1079.2 "/>
<polyline clip-path="url(#clip250)" style="stroke:#000000; stroke-linecap:round; stroke-linejoin:round; stroke-width:4; stroke-opacity:1; fill:none" points="252.764,735.212 271.662,735.212 "/>
<polyline clip-path="url(#clip250)" style="stroke:#000000; stroke-linecap:round; stroke-linejoin:round; stroke-width:4; stroke-opacity:1; fill:none" points="252.764,391.228 271.662,391.228 "/>
<polyline clip-path="url(#clip250)" style="stroke:#000000; stroke-linecap:round; stroke-linejoin:round; stroke-width:4; stroke-opacity:1; fill:none" points="252.764,47.2441 271.662,47.2441 "/>
<path clip-path="url(#clip250)" d="M114.931 1442.97 L122.57 1442.97 L122.57 1416.61 L114.26 1418.27 L114.26 1414.01 L122.524 1412.35 L127.2 1412.35 L127.2 1442.97 L134.839 1442.97 L134.839 1446.91 L114.931 1446.91 L114.931 1442.97 Z" fill="#000000" fill-rule="evenodd" fill-opacity="1" /><path clip-path="url(#clip250)" d="M154.283 1415.43 Q150.672 1415.43 148.843 1418.99 Q147.038 1422.53 147.038 1429.66 Q147.038 1436.77 148.843 1440.33 Q150.672 1443.88 154.283 1443.88 Q157.917 1443.88 159.723 1440.33 Q161.552 1436.77 161.552 1429.66 Q161.552 1422.53 159.723 1418.99 Q157.917 1415.43 154.283 1415.43 M154.283 1411.72 Q160.093 1411.72 163.149 1416.33 Q166.227 1420.91 166.227 1429.66 Q166.227 1438.39 163.149 1443 Q160.093 1447.58 154.283 1447.58 Q148.473 1447.58 145.394 1443 Q142.339 1438.39 142.339 1429.66 Q142.339 1420.91 145.394 1416.33 Q148.473 1411.72 154.283 1411.72 Z" fill="#000000" fill-rule="evenodd" fill-opacity="1" /><path clip-path="url(#clip250)" d="M166.227 1405.82 L190.339 1405.82 L190.339 1409.02 L166.227 1409.02 L166.227 1405.82 Z" fill="#000000" fill-rule="evenodd" fill-opacity="1" /><path clip-path="url(#clip250)" d="M208.978 1394.73 L199.386 1409.72 L208.978 1409.72 L208.978 1394.73 M207.981 1391.42 L212.758 1391.42 L212.758 1409.72 L216.764 1409.72 L216.764 1412.88 L212.758 1412.88 L212.758 1419.5 L208.978 1419.5 L208.978 1412.88 L196.301 1412.88 L196.301 1409.21 L207.981 1391.42 Z" fill="#000000" fill-rule="evenodd" fill-opacity="1" /><path clip-path="url(#clip250)" d="M115.853 1098.99 L123.492 1098.99 L123.492 1072.62 L115.182 1074.29 L115.182 1070.03 L123.446 1068.36 L128.121 1068.36 L128.121 1098.99 L135.76 1098.99 L135.76 1102.92 L115.853 1102.92 L115.853 1098.99 Z" fill="#000000" fill-rule="evenodd" fill-opacity="1" /><path clip-path="url(#clip250)" d="M155.205 1071.44 Q151.594 1071.44 149.765 1075.01 Q147.959 1078.55 147.959 1085.68 Q147.959 1092.78 149.765 1096.35 Q151.594 1099.89 155.205 1099.89 Q158.839 1099.89 160.644 1096.35 Q162.473 1092.78 162.473 1085.68 Q162.473 1078.55 160.644 1075.01 Q158.839 1071.44 155.205 1071.44 M155.205 1067.74 Q161.015 1067.74 164.07 1072.34 Q167.149 1076.93 167.149 1085.68 Q167.149 1094.41 164.07 1099.01 Q161.015 1103.59 155.205 1103.59 Q149.395 1103.59 146.316 1099.01 Q143.26 1094.41 143.26 1085.68 Q143.26 1076.93 146.316 1072.34 Q149.395 1067.74 155.205 1067.74 Z" fill="#000000" fill-rule="evenodd" fill-opacity="1" /><path clip-path="url(#clip250)" d="M167.149 1061.84 L191.261 1061.84 L191.261 1065.04 L167.149 1065.04 L167.149 1061.84 Z" fill="#000000" fill-rule="evenodd" fill-opacity="1" /><path clip-path="url(#clip250)" d="M210.971 1060.37 Q213.698 1060.96 215.222 1062.8 Q216.764 1064.64 216.764 1067.35 Q216.764 1071.51 213.905 1073.78 Q211.046 1076.06 205.78 1076.06 Q204.012 1076.06 202.132 1075.7 Q200.27 1075.36 198.276 1074.67 L198.276 1071 Q199.856 1071.92 201.737 1072.39 Q203.617 1072.86 205.667 1072.86 Q209.241 1072.86 211.103 1071.45 Q212.984 1070.04 212.984 1067.35 Q212.984 1064.87 211.234 1063.48 Q209.504 1062.07 206.401 1062.07 L203.128 1062.07 L203.128 1058.94 L206.551 1058.94 Q209.354 1058.94 210.84 1057.83 Q212.325 1056.71 212.325 1054.6 Q212.325 1052.44 210.783 1051.29 Q209.26 1050.12 206.401 1050.12 Q204.84 1050.12 203.053 1050.46 Q201.266 1050.8 199.122 1051.51 L199.122 1048.13 Q201.285 1047.53 203.166 1047.23 Q205.066 1046.93 206.739 1046.93 Q211.065 1046.93 213.585 1048.9 Q216.106 1050.86 216.106 1054.2 Q216.106 1056.54 214.77 1058.15 Q213.435 1059.75 210.971 1060.37 Z" fill="#000000" fill-rule="evenodd" fill-opacity="1" /><path clip-path="url(#clip250)" d="M116.624 755.004 L124.263 755.004 L124.263 728.639 L115.953 730.305 L115.953 726.046 L124.217 724.38 L128.893 724.38 L128.893 755.004 L136.531 755.004 L136.531 758.94 L116.624 758.94 L116.624 755.004 Z" fill="#000000" fill-rule="evenodd" fill-opacity="1" /><path clip-path="url(#clip250)" d="M155.976 727.458 Q152.365 727.458 150.536 731.023 Q148.73 734.565 148.73 741.694 Q148.73 748.801 150.536 752.366 Q152.365 755.907 155.976 755.907 Q159.61 755.907 161.416 752.366 Q163.244 748.801 163.244 741.694 Q163.244 734.565 161.416 731.023 Q159.61 727.458 155.976 727.458 M155.976 723.755 Q161.786 723.755 164.841 728.361 Q167.92 732.944 167.92 741.694 Q167.92 750.421 164.841 755.028 Q161.786 759.611 155.976 759.611 Q150.166 759.611 147.087 755.028 Q144.031 750.421 144.031 741.694 Q144.031 732.944 147.087 728.361 Q150.166 723.755 155.976 723.755 Z" fill="#000000" fill-rule="evenodd" fill-opacity="1" /><path clip-path="url(#clip250)" d="M167.92 717.856 L192.032 717.856 L192.032 721.053 L167.92 721.053 L167.92 717.856 Z" fill="#000000" fill-rule="evenodd" fill-opacity="1" /><path clip-path="url(#clip250)" d="M203.504 728.332 L216.764 728.332 L216.764 731.529 L198.934 731.529 L198.934 728.332 Q201.097 726.094 204.821 722.332 Q208.564 718.552 209.523 717.461 Q211.347 715.411 212.062 714 Q212.796 712.571 212.796 711.198 Q212.796 708.96 211.216 707.549 Q209.655 706.139 207.134 706.139 Q205.348 706.139 203.354 706.759 Q201.379 707.38 199.122 708.64 L199.122 704.803 Q201.417 703.882 203.41 703.412 Q205.404 702.941 207.059 702.941 Q211.423 702.941 214.018 705.123 Q216.613 707.305 216.613 710.953 Q216.613 712.684 215.955 714.245 Q215.316 715.787 213.604 717.894 Q213.134 718.439 210.614 721.053 Q208.094 723.649 203.504 728.332 Z" fill="#000000" fill-rule="evenodd" fill-opacity="1" /><path clip-path="url(#clip250)" d="M116.323 411.02 L123.962 411.02 L123.962 384.655 L115.652 386.322 L115.652 382.062 L123.916 380.396 L128.592 380.396 L128.592 411.02 L136.231 411.02 L136.231 414.956 L116.323 414.956 L116.323 411.02 Z" fill="#000000" fill-rule="evenodd" fill-opacity="1" /><path clip-path="url(#clip250)" d="M155.675 383.474 Q152.064 383.474 150.235 387.039 Q148.43 390.581 148.43 397.71 Q148.43 404.817 150.235 408.382 Q152.064 411.923 155.675 411.923 Q159.309 411.923 161.115 408.382 Q162.943 404.817 162.943 397.71 Q162.943 390.581 161.115 387.039 Q159.309 383.474 155.675 383.474 M155.675 379.771 Q161.485 379.771 164.541 384.377 Q167.619 388.96 167.619 397.71 Q167.619 406.437 164.541 411.044 Q161.485 415.627 155.675 415.627 Q149.865 415.627 146.786 411.044 Q143.73 406.437 143.73 397.71 Q143.73 388.96 146.786 384.377 Q149.865 379.771 155.675 379.771 Z" fill="#000000" fill-rule="evenodd" fill-opacity="1" /><path clip-path="url(#clip250)" d="M167.619 373.872 L191.731 373.872 L191.731 377.069 L167.619 377.069 L167.619 373.872 Z" fill="#000000" fill-rule="evenodd" fill-opacity="1" /><path clip-path="url(#clip250)" d="M200.589 384.348 L206.796 384.348 L206.796 362.926 L200.044 364.28 L200.044 360.819 L206.758 359.465 L210.557 359.465 L210.557 384.348 L216.764 384.348 L216.764 387.545 L200.589 387.545 L200.589 384.348 Z" fill="#000000" fill-rule="evenodd" fill-opacity="1" /><path clip-path="url(#clip250)" d="M146.058 67.0365 L153.697 67.0365 L153.697 40.6709 L145.387 42.3376 L145.387 38.0784 L153.651 36.4117 L158.327 36.4117 L158.327 67.0365 L165.966 67.0365 L165.966 70.9717 L146.058 70.9717 L146.058 67.0365 Z" fill="#000000" fill-rule="evenodd" fill-opacity="1" /><path clip-path="url(#clip250)" d="M185.41 39.4904 Q181.799 39.4904 179.97 43.0552 Q178.165 46.5968 178.165 53.7264 Q178.165 60.8329 179.97 64.3977 Q181.799 67.9393 185.41 67.9393 Q189.044 67.9393 190.85 64.3977 Q192.678 60.8329 192.678 53.7264 Q192.678 46.5968 190.85 43.0552 Q189.044 39.4904 185.41 39.4904 M185.41 35.7867 Q191.22 35.7867 194.276 40.3932 Q197.354 44.9765 197.354 53.7264 Q197.354 62.4532 194.276 67.0597 Q191.22 71.643 185.41 71.643 Q179.6 71.643 176.521 67.0597 Q173.466 62.4532 173.466 53.7264 Q173.466 44.9765 176.521 40.3932 Q179.6 35.7867 185.41 35.7867 Z" fill="#000000" fill-rule="evenodd" fill-opacity="1" /><path clip-path="url(#clip250)" d="M207.059 17.9827 Q204.125 17.9827 202.639 20.8791 Q201.172 23.7567 201.172 29.5495 Q201.172 35.3235 202.639 38.2199 Q204.125 41.0975 207.059 41.0975 Q210.012 41.0975 211.479 38.2199 Q212.965 35.3235 212.965 29.5495 Q212.965 23.7567 211.479 20.8791 Q210.012 17.9827 207.059 17.9827 M207.059 14.9735 Q211.78 14.9735 214.263 18.7162 Q216.764 22.4402 216.764 29.5495 Q216.764 36.64 214.263 40.3828 Q211.78 44.1067 207.059 44.1067 Q202.338 44.1067 199.837 40.3828 Q197.354 36.64 197.354 29.5495 Q197.354 22.4402 199.837 18.7162 Q202.338 14.9735 207.059 14.9735 Z" fill="#000000" fill-rule="evenodd" fill-opacity="1" /><path clip-path="url(#clip250)" d="M27.9392 757.108 Q28.6155 757.108 29.163 757.688 Q29.7105 758.236 29.7105 758.912 Q29.7105 759.298 29.0664 760.232 Q27.1985 762.905 27.1985 766.287 Q27.1985 769.314 27.9392 772.116 Q28.6799 774.918 30.1936 776.818 Q31.6751 778.686 33.6074 778.686 Q36.0229 778.686 37.4399 776.045 Q36.1839 773.308 36.1839 769.926 Q36.1839 768.831 36.2483 768.09 Q36.3127 767.318 36.4738 766.577 Q36.6348 765.836 37.0213 765.482 Q37.3755 765.095 37.9552 765.095 Q40.0164 765.095 40.0164 770.442 Q40.0164 773.92 39.0824 776.11 Q40.4673 778.912 42.6895 780.458 Q44.9117 782.003 46.8118 782.003 Q48.4543 782.003 49.646 781.102 Q50.8376 780.168 51.4173 778.654 Q51.997 777.108 52.2546 775.594 Q52.4801 774.049 52.4801 772.342 Q52.4801 769.54 52.1258 767.575 Q51.7393 765.578 51.0308 764.483 Q50.3223 763.356 49.8392 762.905 Q49.3239 762.422 48.5187 761.939 Q48.0679 761.649 48.0679 761.263 Q48.0679 760.973 48.2611 760.78 Q48.4221 760.554 48.712 760.554 Q49.0662 760.554 49.807 761.005 Q50.5477 761.424 51.5461 762.454 Q52.5123 763.453 53.414 764.838 Q54.2836 766.19 54.8955 768.348 Q55.5074 770.506 55.5074 772.954 Q55.5074 777.945 53.0598 780.844 Q50.6121 783.71 47.1983 783.71 Q44.8151 783.71 42.3674 782.132 Q39.8876 780.522 38.3095 777.688 Q36.3449 780.329 33.6074 780.329 Q31.1598 780.329 28.9698 778.268 Q26.7798 776.174 25.4916 772.793 Q24.1711 769.379 24.1711 765.643 Q24.1711 763.549 24.8796 761.488 Q25.556 759.427 26.4255 758.268 Q27.2951 757.108 27.9392 757.108 M38.0196 766.802 Q37.6332 768.219 37.6332 769.926 Q37.6332 772.245 38.2129 773.952 Q38.5671 772.567 38.5671 770.442 Q38.5671 768.67 38.4705 768.155 Q38.3739 767.607 38.0196 766.802 Z" fill="#000000" fill-rule="evenodd" fill-opacity="1" /><path clip-path="url(#clip250)" d="M57.1294 731.525 Q58.3243 731.525 59.0908 732.314 Q59.8573 733.08 59.8573 734.072 Q59.8573 734.929 59.3613 735.38 Q58.8653 735.831 58.2341 735.831 Q57.3323 735.831 56.5884 735.132 Q55.8444 734.433 55.6866 733.419 Q55.1455 734.162 55.1455 735.357 Q55.1455 737.319 56.656 739.055 Q57.3549 739.821 58.6399 740.655 Q59.9023 741.489 60.4434 741.647 L66.4627 743.112 Q67.139 743.248 70.3854 744.082 Q73.6092 744.893 73.7444 744.961 Q74.3757 745.187 74.7138 745.683 Q75.052 746.178 75.052 746.674 Q75.052 747.238 74.7138 747.621 Q74.3757 748.005 73.7895 748.005 Q73.6993 748.005 73.3612 747.937 Q73.023 747.869 72.5496 747.757 Q72.0762 747.644 71.8056 747.599 L61.1423 744.916 Q59.2035 744.42 58.5948 744.307 Q57.9636 744.172 57.2647 744.172 Q56.0473 744.172 55.5964 744.555 Q55.1455 744.939 55.1455 745.615 Q55.1455 746.787 56.5433 747.554 Q57.941 748.32 60.6463 748.974 Q61.3903 749.177 61.5481 749.312 Q61.7059 749.425 61.7059 749.763 Q61.6833 750.327 61.2324 750.327 Q61.1197 750.327 60.3983 750.146 Q59.6544 749.966 58.5722 749.628 Q57.4676 749.267 56.7687 748.884 Q56.2953 748.658 55.9797 748.455 Q55.6641 748.253 55.1681 747.847 Q54.6721 747.441 54.4016 746.832 Q54.1311 746.224 54.1311 745.48 Q54.1311 743.856 55.123 742.707 Q56.1149 741.534 57.6705 741.264 Q56.8589 740.7 56.16 740.001 Q55.4386 739.303 54.7848 738.018 Q54.1311 736.732 54.1311 735.357 Q54.1311 733.644 55.0103 732.584 Q55.867 731.525 57.1294 731.525 Z" fill="#000000" fill-rule="evenodd" fill-opacity="1" /><path clip-path="url(#clip250)" d="M69.1905 711.114 Q69.3934 710.934 69.5963 710.934 Q69.7992 710.934 70.3854 711.385 Q70.9715 711.813 71.7605 712.737 Q72.5496 713.662 73.2935 714.857 Q74.0375 716.051 74.5335 717.81 Q75.052 719.568 75.052 721.417 Q75.052 724.731 72.6849 726.715 Q70.3177 728.676 66.6881 728.676 Q64.3661 728.676 62.3146 727.91 Q60.2405 727.143 58.7751 725.903 Q57.3098 724.641 56.2502 723.063 Q55.1681 721.462 54.6496 719.794 Q54.1311 718.125 54.1311 716.57 Q54.1311 714.293 55.2808 712.963 Q56.4306 711.633 58.0537 711.633 Q58.437 711.633 58.9104 711.745 Q59.3838 711.836 60.1278 712.151 Q60.8717 712.444 61.6157 713.211 Q62.3371 713.977 62.8105 715.105 Q63.8701 717.607 63.8701 722.161 L63.8701 724.618 Q66.7783 725.34 68.672 725.34 Q69.416 725.34 70.1825 725.204 Q70.9264 725.069 71.8733 724.708 Q72.8201 724.325 73.4288 723.468 Q74.015 722.589 74.015 721.327 Q74.015 720.921 73.9924 720.493 Q73.9699 720.042 73.7219 718.914 Q73.4739 717.765 73.0456 716.75 Q72.6172 715.736 71.6929 714.451 Q70.7461 713.143 69.461 712.106 Q68.9876 711.745 68.9876 711.497 Q68.9876 711.295 69.1905 711.114 M58.0537 713.166 Q56.8138 713.166 55.9797 714.09 Q55.1455 714.992 55.1455 716.57 Q55.1455 717.066 55.2583 717.675 Q55.371 718.283 55.8444 719.298 Q56.3178 720.29 57.1069 721.169 Q57.8734 722.048 59.3838 722.927 Q60.8717 723.807 62.8556 724.325 L62.8556 722.431 Q62.8556 721.778 62.8556 721.304 Q62.8331 720.831 62.7429 719.794 Q62.6527 718.734 62.4949 717.968 Q62.3146 717.201 61.9539 716.232 Q61.5932 715.262 61.1197 714.654 Q60.6238 714.022 59.8347 713.594 Q59.0457 713.166 58.0537 713.166 Z" fill="#000000" fill-rule="evenodd" fill-opacity="1" /><path clip-path="url(#clip250)" d="M42.9943 697.5 L69.6865 704.15 Q70.7461 704.421 71.8958 704.421 Q74.015 704.421 74.015 703.023 Q74.015 702.369 73.5866 701.828 Q73.1357 701.287 72.2565 700.882 Q71.3548 700.453 70.4981 700.183 Q69.6414 699.89 68.3113 699.529 Q67.7928 699.416 67.635 699.303 Q67.4772 699.191 67.4772 698.875 Q67.4772 698.312 67.928 698.312 Q70.701 698.875 72.4594 699.709 Q75.052 700.927 75.052 703.181 Q75.052 704.872 73.8797 706.134 Q72.6849 707.374 70.7911 707.374 Q70.0697 707.374 69.2131 707.149 L46.1279 701.332 L45.2261 701.175 Q44.9782 701.175 44.8429 701.265 Q44.7076 701.355 44.5724 701.896 Q44.4371 702.415 44.4371 703.452 Q44.4371 703.88 44.4145 704.083 Q44.392 704.263 44.2793 704.444 Q44.1666 704.601 43.9186 704.601 Q43.5128 704.601 43.2873 704.444 Q43.0619 704.263 43.0168 704.128 Q42.9717 703.993 42.9492 703.722 Q42.9266 703.339 42.8139 702.054 Q42.6787 700.769 42.5885 699.664 Q42.4983 698.56 42.4983 698.086 Q42.4983 697.816 42.6336 697.68 Q42.7463 697.522 42.8815 697.5 L42.9943 697.5 Z" fill="#000000" fill-rule="evenodd" fill-opacity="1" /><polyline clip-path="url(#clip253)" style="stroke:#009af9; stroke-linecap:round; stroke-linejoin:round; stroke-width:4; stroke-opacity:1; fill:none" points="252.764,61.4253 427.763,104.599 602.763,159.935 777.762,208.515 952.761,272.274 1127.76,332.555 1302.76,385.189 1477.76,440.766 1652.76,502.89 1827.76,578.915 2002.76,661.917 2177.76,765.51 2352.76,933.123 "/>
<polyline clip-path="url(#clip253)" style="stroke:#e26f46; stroke-linecap:round; stroke-linejoin:round; stroke-width:4; stroke-opacity:1; fill:none" points="252.764,60.205 427.763,95.8442 602.763,133.994 777.762,160.838 952.761,194.721 1127.76,232.724 1302.76,267.404 1477.76,330.728 1652.76,417.257 1827.76,514.125 2002.76,628.154 2177.76,733.942 2352.76,925.646 "/>
<polyline clip-path="url(#clip253)" style="stroke:#3da44d; stroke-linecap:round; stroke-linejoin:round; stroke-width:4; stroke-opacity:1; fill:none" points="252.764,56.545 427.763,94.6769 602.763,141.402 777.762,185.639 952.761,244.122 1127.76,308.025 1302.76,369.636 1477.76,434.369 1652.76,497.914 1827.76,575.034 2002.76,658.447 2177.76,762.513 2352.76,930.217 "/>
<path clip-path="url(#clip250)" d="M322.764 1377.32 L1072.57 1377.32 L1072.57 1169.96 L322.764 1169.96  Z" fill="#ffffff" fill-rule="evenodd" fill-opacity="1"/>
<polyline clip-path="url(#clip250)" style="stroke:#000000; stroke-linecap:round; stroke-linejoin:round; stroke-width:4; stroke-opacity:1; fill:none" points="322.764,1377.32 1072.57,1377.32 1072.57,1169.96 322.764,1169.96 322.764,1377.32 "/>
<polyline clip-path="url(#clip250)" style="stroke:#009af9; stroke-linecap:round; stroke-linejoin:round; stroke-width:4; stroke-opacity:1; fill:none" points="346.097,1221.8 486.096,1221.8 "/>
<path clip-path="url(#clip250)" d="M510.008 1213.15 L530.24 1213.15 L530.24 1217.04 L514.221 1235.67 L530.24 1235.67 L530.24 1239.08 L509.43 1239.08 L509.43 1235.19 L525.448 1216.55 L510.008 1216.55 L510.008 1213.15 Z" fill="#000000" fill-rule="evenodd" fill-opacity="1" /><path clip-path="url(#clip250)" d="M558.92 1225.05 L558.92 1227.13 L539.337 1227.13 Q539.615 1231.53 541.976 1233.84 Q544.36 1236.14 548.596 1236.14 Q551.05 1236.14 553.341 1235.53 Q555.656 1234.93 557.925 1233.73 L557.925 1237.76 Q555.633 1238.73 553.226 1239.24 Q550.818 1239.75 548.341 1239.75 Q542.138 1239.75 538.504 1236.14 Q534.892 1232.52 534.892 1226.37 Q534.892 1220 538.318 1216.27 Q541.767 1212.52 547.601 1212.52 Q552.832 1212.52 555.865 1215.9 Q558.92 1219.26 558.92 1225.05 M554.661 1223.8 Q554.615 1220.3 552.693 1218.22 Q550.795 1216.14 547.647 1216.14 Q544.082 1216.14 541.929 1218.15 Q539.8 1220.16 539.476 1223.82 L554.661 1223.8 Z" fill="#000000" fill-rule="evenodd" fill-opacity="1" /><path clip-path="url(#clip250)" d="M580.934 1217.13 Q580.216 1216.71 579.36 1216.53 Q578.526 1216.32 577.508 1216.32 Q573.897 1216.32 571.952 1218.68 Q570.031 1221.02 570.031 1225.42 L570.031 1239.08 L565.749 1239.08 L565.749 1213.15 L570.031 1213.15 L570.031 1217.18 Q571.374 1214.82 573.527 1213.68 Q575.679 1212.52 578.758 1212.52 Q579.198 1212.52 579.73 1212.59 Q580.263 1212.64 580.911 1212.76 L580.934 1217.13 Z" fill="#000000" fill-rule="evenodd" fill-opacity="1" /><path clip-path="url(#clip250)" d="M594.406 1216.14 Q590.98 1216.14 588.989 1218.82 Q586.999 1221.48 586.999 1226.14 Q586.999 1230.79 588.966 1233.47 Q590.957 1236.14 594.406 1236.14 Q597.809 1236.14 599.8 1233.45 Q601.79 1230.77 601.79 1226.14 Q601.79 1221.53 599.8 1218.84 Q597.809 1216.14 594.406 1216.14 M594.406 1212.52 Q599.962 1212.52 603.133 1216.14 Q606.304 1219.75 606.304 1226.14 Q606.304 1232.5 603.133 1236.14 Q599.962 1239.75 594.406 1239.75 Q588.827 1239.75 585.656 1236.14 Q582.508 1232.5 582.508 1226.14 Q582.508 1219.75 585.656 1216.14 Q588.827 1212.52 594.406 1212.52 Z" fill="#000000" fill-rule="evenodd" fill-opacity="1" /><path clip-path="url(#clip250)" d="M612.091 1224.19 L624.568 1224.19 L624.568 1227.99 L612.091 1227.99 L612.091 1224.19 Z" fill="#000000" fill-rule="evenodd" fill-opacity="1" /><path clip-path="url(#clip250)" d="M650.123 1209.05 Q647.762 1207.43 642.23 1207.43 Q636.373 1207.43 636.373 1210.14 Q636.373 1212.27 642.484 1213.38 Q647.299 1214.24 650.008 1216.83 Q653.295 1219.96 653.295 1226.37 Q653.295 1232.5 650.123 1236.11 Q646.952 1239.75 641.397 1239.75 Q635.864 1239.75 632.67 1236.11 Q629.498 1232.5 629.498 1226.14 Q629.498 1221.41 632.67 1217.59 Q633.897 1216.11 635.633 1215.28 Q632.022 1213.45 632.022 1210.19 Q632.022 1203.89 642.23 1203.89 Q647.346 1203.89 650.123 1205.51 L650.123 1209.05 M638.827 1216.44 Q637.253 1217.11 635.98 1218.8 Q633.989 1221.41 633.989 1226.14 Q633.989 1230.83 635.957 1233.47 Q637.947 1236.14 641.397 1236.14 Q644.799 1236.14 646.79 1233.45 Q648.781 1230.77 648.781 1226.37 Q648.781 1221.76 646.674 1219.54 Q644.429 1217.15 641.512 1216.9 Q640.031 1216.76 638.827 1216.44 Z" fill="#000000" fill-rule="evenodd" fill-opacity="1" /><path clip-path="url(#clip250)" d="M675.424 1203.06 L679.683 1203.06 L679.683 1239.08 L675.424 1239.08 L675.424 1203.06 Z" fill="#000000" fill-rule="evenodd" fill-opacity="1" /><path clip-path="url(#clip250)" d="M698.642 1216.14 Q695.216 1216.14 693.225 1218.82 Q691.234 1221.48 691.234 1226.14 Q691.234 1230.79 693.202 1233.47 Q695.193 1236.14 698.642 1236.14 Q702.044 1236.14 704.035 1233.45 Q706.026 1230.77 706.026 1226.14 Q706.026 1221.53 704.035 1218.84 Q702.044 1216.14 698.642 1216.14 M698.642 1212.52 Q704.197 1212.52 707.368 1216.14 Q710.54 1219.75 710.54 1226.14 Q710.54 1232.5 707.368 1236.14 Q704.197 1239.75 698.642 1239.75 Q693.063 1239.75 689.892 1236.14 Q686.743 1232.5 686.743 1226.14 Q686.743 1219.75 689.892 1216.14 Q693.063 1212.52 698.642 1212.52 Z" fill="#000000" fill-rule="evenodd" fill-opacity="1" /><path clip-path="url(#clip250)" d="M715.123 1213.15 L719.382 1213.15 L724.706 1233.38 L730.007 1213.15 L735.03 1213.15 L740.354 1233.38 L745.655 1213.15 L749.914 1213.15 L743.132 1239.08 L738.109 1239.08 L732.53 1217.83 L726.928 1239.08 L721.905 1239.08 L715.123 1213.15 Z" fill="#000000" fill-rule="evenodd" fill-opacity="1" /><path clip-path="url(#clip250)" d="M778.549 1225.05 L778.549 1227.13 L758.965 1227.13 Q759.243 1231.53 761.604 1233.84 Q763.988 1236.14 768.225 1236.14 Q770.678 1236.14 772.97 1235.53 Q775.285 1234.93 777.553 1233.73 L777.553 1237.76 Q775.262 1238.73 772.854 1239.24 Q770.447 1239.75 767.97 1239.75 Q761.766 1239.75 758.132 1236.14 Q754.521 1232.52 754.521 1226.37 Q754.521 1220 757.947 1216.27 Q761.396 1212.52 767.229 1212.52 Q772.461 1212.52 775.493 1215.9 Q778.549 1219.26 778.549 1225.05 M774.289 1223.8 Q774.243 1220.3 772.322 1218.22 Q770.424 1216.14 767.275 1216.14 Q763.711 1216.14 761.558 1218.15 Q759.428 1220.16 759.104 1223.82 L774.289 1223.8 Z" fill="#000000" fill-rule="evenodd" fill-opacity="1" /><path clip-path="url(#clip250)" d="M800.562 1217.13 Q799.845 1216.71 798.988 1216.53 Q798.155 1216.32 797.136 1216.32 Q793.525 1216.32 791.581 1218.68 Q789.66 1221.02 789.66 1225.42 L789.66 1239.08 L785.377 1239.08 L785.377 1213.15 L789.66 1213.15 L789.66 1217.18 Q791.002 1214.82 793.155 1213.68 Q795.308 1212.52 798.386 1212.52 Q798.826 1212.52 799.359 1212.59 Q799.891 1212.64 800.539 1212.76 L800.562 1217.13 Z" fill="#000000" fill-rule="evenodd" fill-opacity="1" /><path clip-path="url(#clip250)" d="M838.71 1226.14 Q838.71 1221.44 836.766 1218.77 Q834.845 1216.09 831.465 1216.09 Q828.085 1216.09 826.141 1218.77 Q824.22 1221.44 824.22 1226.14 Q824.22 1230.83 826.141 1233.52 Q828.085 1236.18 831.465 1236.18 Q834.845 1236.18 836.766 1233.52 Q838.71 1230.83 838.71 1226.14 M824.22 1217.08 Q825.562 1214.77 827.599 1213.66 Q829.659 1212.52 832.507 1212.52 Q837.229 1212.52 840.169 1216.27 Q843.132 1220.02 843.132 1226.14 Q843.132 1232.25 840.169 1236 Q837.229 1239.75 832.507 1239.75 Q829.659 1239.75 827.599 1238.64 Q825.562 1237.5 824.22 1235.19 L824.22 1239.08 L819.937 1239.08 L819.937 1203.06 L824.22 1203.06 L824.22 1217.08 Z" fill="#000000" fill-rule="evenodd" fill-opacity="1" /><path clip-path="url(#clip250)" d="M860.238 1216.14 Q856.812 1216.14 854.821 1218.82 Q852.831 1221.48 852.831 1226.14 Q852.831 1230.79 854.798 1233.47 Q856.789 1236.14 860.238 1236.14 Q863.641 1236.14 865.631 1233.45 Q867.622 1230.77 867.622 1226.14 Q867.622 1221.53 865.631 1218.84 Q863.641 1216.14 860.238 1216.14 M860.238 1212.52 Q865.793 1212.52 868.965 1216.14 Q872.136 1219.75 872.136 1226.14 Q872.136 1232.5 868.965 1236.14 Q865.793 1239.75 860.238 1239.75 Q854.659 1239.75 851.488 1236.14 Q848.34 1232.5 848.34 1226.14 Q848.34 1219.75 851.488 1216.14 Q854.659 1212.52 860.238 1212.52 Z" fill="#000000" fill-rule="evenodd" fill-opacity="1" /><path clip-path="url(#clip250)" d="M878.756 1228.84 L878.756 1213.15 L883.016 1213.15 L883.016 1228.68 Q883.016 1232.36 884.451 1234.21 Q885.886 1236.04 888.756 1236.04 Q892.205 1236.04 894.196 1233.84 Q896.21 1231.64 896.21 1227.85 L896.21 1213.15 L900.469 1213.15 L900.469 1239.08 L896.21 1239.08 L896.21 1235.09 Q894.659 1237.45 892.599 1238.61 Q890.562 1239.75 887.854 1239.75 Q883.386 1239.75 881.071 1236.97 Q878.756 1234.19 878.756 1228.84 M889.474 1212.52 L889.474 1212.52 Z" fill="#000000" fill-rule="evenodd" fill-opacity="1" /><path clip-path="url(#clip250)" d="M930.793 1223.43 L930.793 1239.08 L926.534 1239.08 L926.534 1223.57 Q926.534 1219.89 925.099 1218.06 Q923.664 1216.23 920.793 1216.23 Q917.344 1216.23 915.353 1218.43 Q913.363 1220.63 913.363 1224.42 L913.363 1239.08 L909.08 1239.08 L909.08 1213.15 L913.363 1213.15 L913.363 1217.18 Q914.89 1214.84 916.951 1213.68 Q919.034 1212.52 921.742 1212.52 Q926.21 1212.52 928.501 1215.3 Q930.793 1218.06 930.793 1223.43 Z" fill="#000000" fill-rule="evenodd" fill-opacity="1" /><path clip-path="url(#clip250)" d="M956.349 1217.08 L956.349 1203.06 L960.608 1203.06 L960.608 1239.08 L956.349 1239.08 L956.349 1235.19 Q955.006 1237.5 952.946 1238.64 Q950.909 1239.75 948.038 1239.75 Q943.339 1239.75 940.376 1236 Q937.437 1232.25 937.437 1226.14 Q937.437 1220.02 940.376 1216.27 Q943.339 1212.52 948.038 1212.52 Q950.909 1212.52 952.946 1213.66 Q955.006 1214.77 956.349 1217.08 M941.835 1226.14 Q941.835 1230.83 943.756 1233.52 Q945.7 1236.18 949.08 1236.18 Q952.46 1236.18 954.404 1233.52 Q956.349 1230.83 956.349 1226.14 Q956.349 1221.44 954.404 1218.77 Q952.46 1216.09 949.08 1216.09 Q945.7 1216.09 943.756 1218.77 Q941.835 1221.44 941.835 1226.14 Z" fill="#000000" fill-rule="evenodd" fill-opacity="1" /><polyline clip-path="url(#clip250)" style="stroke:#e26f46; stroke-linecap:round; stroke-linejoin:round; stroke-width:4; stroke-opacity:1; fill:none" points="346.097,1273.64 486.096,1273.64 "/>
<path clip-path="url(#clip250)" d="M516.837 1257.63 L516.837 1264.99 L525.61 1264.99 L525.61 1268.3 L516.837 1268.3 L516.837 1282.37 Q516.837 1285.54 517.693 1286.45 Q518.573 1287.35 521.235 1287.35 L525.61 1287.35 L525.61 1290.92 L521.235 1290.92 Q516.305 1290.92 514.43 1289.09 Q512.555 1287.23 512.555 1282.37 L512.555 1268.3 L509.43 1268.3 L509.43 1264.99 L512.555 1264.99 L512.555 1257.63 L516.837 1257.63 Z" fill="#000000" fill-rule="evenodd" fill-opacity="1" /><path clip-path="url(#clip250)" d="M531.397 1256.36 L536.073 1256.36 L536.073 1270.52 L553.064 1270.52 L553.064 1256.36 L557.74 1256.36 L557.74 1290.92 L553.064 1290.92 L553.064 1274.46 L536.073 1274.46 L536.073 1290.92 L531.397 1290.92 L531.397 1256.36 Z" fill="#000000" fill-rule="evenodd" fill-opacity="1" /><path clip-path="url(#clip250)" d="M581.073 1259.53 Q575.98 1259.53 572.971 1263.32 Q569.985 1267.12 569.985 1273.67 Q569.985 1280.2 572.971 1283.99 Q575.98 1287.79 581.073 1287.79 Q586.165 1287.79 589.128 1283.99 Q592.114 1280.2 592.114 1273.67 Q592.114 1267.12 589.128 1263.32 Q586.165 1259.53 581.073 1259.53 M581.073 1255.73 Q588.341 1255.73 592.693 1260.61 Q597.045 1265.48 597.045 1273.67 Q597.045 1281.84 592.693 1286.73 Q588.341 1291.59 581.073 1291.59 Q573.781 1291.59 569.406 1286.73 Q565.054 1281.86 565.054 1273.67 Q565.054 1265.48 569.406 1260.61 Q573.781 1255.73 581.073 1255.73 Z" fill="#000000" fill-rule="evenodd" fill-opacity="1" /><path clip-path="url(#clip250)" d="M625.077 1257.49 L625.077 1262.05 Q622.415 1260.78 620.054 1260.15 Q617.693 1259.53 615.494 1259.53 Q611.674 1259.53 609.591 1261.01 Q607.531 1262.49 607.531 1265.22 Q607.531 1267.51 608.897 1268.69 Q610.286 1269.85 614.128 1270.57 L616.952 1271.15 Q622.184 1272.14 624.66 1274.67 Q627.16 1277.17 627.16 1281.38 Q627.16 1286.4 623.781 1288.99 Q620.424 1291.59 613.92 1291.59 Q611.466 1291.59 608.688 1291.03 Q605.934 1290.48 602.971 1289.39 L602.971 1284.57 Q605.818 1286.17 608.549 1286.98 Q611.281 1287.79 613.92 1287.79 Q617.924 1287.79 620.1 1286.22 Q622.276 1284.64 622.276 1281.73 Q622.276 1279.18 620.702 1277.74 Q619.151 1276.31 615.586 1275.59 L612.739 1275.04 Q607.508 1273.99 605.17 1271.77 Q602.832 1269.55 602.832 1265.59 Q602.832 1261.01 606.049 1258.37 Q609.29 1255.73 614.961 1255.73 Q617.392 1255.73 619.915 1256.17 Q622.438 1256.61 625.077 1257.49 Z" fill="#000000" fill-rule="evenodd" fill-opacity="1" /><path clip-path="url(#clip250)" d="M643.364 1290.92 L630.17 1256.36 L635.054 1256.36 L646.003 1285.45 L656.975 1256.36 L661.836 1256.36 L648.665 1290.92 L643.364 1290.92 Z" fill="#000000" fill-rule="evenodd" fill-opacity="1" /><path clip-path="url(#clip250)" d="M671.558 1260.2 L671.558 1287.07 L677.207 1287.07 Q684.359 1287.07 687.669 1283.83 Q691.003 1280.59 691.003 1273.6 Q691.003 1266.66 687.669 1263.44 Q684.359 1260.2 677.207 1260.2 L671.558 1260.2 M666.882 1256.36 L676.489 1256.36 Q686.535 1256.36 691.234 1260.55 Q695.933 1264.71 695.933 1273.6 Q695.933 1282.54 691.211 1286.73 Q686.489 1290.92 676.489 1290.92 L666.882 1290.92 L666.882 1256.36 Z" fill="#000000" fill-rule="evenodd" fill-opacity="1" /><polyline clip-path="url(#clip250)" style="stroke:#3da44d; stroke-linecap:round; stroke-linejoin:round; stroke-width:4; stroke-opacity:1; fill:none" points="346.097,1325.48 486.096,1325.48 "/>
<path clip-path="url(#clip250)" d="M537.3 1310.86 L537.3 1315.79 Q534.939 1313.59 532.254 1312.5 Q529.592 1311.41 526.582 1311.41 Q520.656 1311.41 517.508 1315.05 Q514.36 1318.66 514.36 1325.51 Q514.36 1332.34 517.508 1335.97 Q520.656 1339.58 526.582 1339.58 Q529.592 1339.58 532.254 1338.5 Q534.939 1337.41 537.3 1335.21 L537.3 1340.09 Q534.846 1341.76 532.092 1342.59 Q529.36 1343.43 526.305 1343.43 Q518.457 1343.43 513.943 1338.63 Q509.43 1333.82 509.43 1325.51 Q509.43 1317.18 513.943 1312.39 Q518.457 1307.57 526.305 1307.57 Q529.406 1307.57 532.138 1308.4 Q534.892 1309.21 537.3 1310.86 Z" fill="#000000" fill-rule="evenodd" fill-opacity="1" /><path clip-path="url(#clip250)" d="M570.402 1310.86 L570.402 1315.79 Q568.04 1313.59 565.355 1312.5 Q562.693 1311.41 559.684 1311.41 Q553.758 1311.41 550.61 1315.05 Q547.462 1318.66 547.462 1325.51 Q547.462 1332.34 550.61 1335.97 Q553.758 1339.58 559.684 1339.58 Q562.693 1339.58 565.355 1338.5 Q568.04 1337.41 570.402 1335.21 L570.402 1340.09 Q567.948 1341.76 565.193 1342.59 Q562.462 1343.43 559.406 1343.43 Q551.559 1343.43 547.045 1338.63 Q542.531 1333.82 542.531 1325.51 Q542.531 1317.18 547.045 1312.39 Q551.559 1307.57 559.406 1307.57 Q562.508 1307.57 565.24 1308.4 Q567.994 1309.21 570.402 1310.86 Z" fill="#000000" fill-rule="evenodd" fill-opacity="1" /><path clip-path="url(#clip250)" d="M575.286 1327.87 L587.763 1327.87 L587.763 1331.67 L575.286 1331.67 L575.286 1327.87 Z" fill="#000000" fill-rule="evenodd" fill-opacity="1" /><path clip-path="url(#clip250)" d="M598.758 1309.47 L598.758 1316.83 L607.531 1316.83 L607.531 1320.14 L598.758 1320.14 L598.758 1334.21 Q598.758 1337.38 599.614 1338.29 Q600.494 1339.19 603.156 1339.19 L607.531 1339.19 L607.531 1342.76 L603.156 1342.76 Q598.225 1342.76 596.35 1340.93 Q594.475 1339.07 594.475 1334.21 L594.475 1320.14 L591.35 1320.14 L591.35 1316.83 L594.475 1316.83 L594.475 1309.47 L598.758 1309.47 Z" fill="#000000" fill-rule="evenodd" fill-opacity="1" /><path clip-path="url(#clip250)" d="M613.318 1308.2 L617.994 1308.2 L617.994 1322.36 L634.985 1322.36 L634.985 1308.2 L639.66 1308.2 L639.66 1342.76 L634.985 1342.76 L634.985 1326.3 L617.994 1326.3 L617.994 1342.76 L613.318 1342.76 L613.318 1308.2 Z" fill="#000000" fill-rule="evenodd" fill-opacity="1" /><path clip-path="url(#clip250)" d="M662.994 1311.37 Q657.901 1311.37 654.892 1315.16 Q651.906 1318.96 651.906 1325.51 Q651.906 1332.04 654.892 1335.83 Q657.901 1339.63 662.994 1339.63 Q668.086 1339.63 671.049 1335.83 Q674.035 1332.04 674.035 1325.51 Q674.035 1318.96 671.049 1315.16 Q668.086 1311.37 662.994 1311.37 M662.994 1307.57 Q670.262 1307.57 674.614 1312.45 Q678.966 1317.32 678.966 1325.51 Q678.966 1333.68 674.614 1338.57 Q670.262 1343.43 662.994 1343.43 Q655.702 1343.43 651.327 1338.57 Q646.975 1333.7 646.975 1325.51 Q646.975 1317.32 651.327 1312.45 Q655.702 1307.57 662.994 1307.57 Z" fill="#000000" fill-rule="evenodd" fill-opacity="1" /><path clip-path="url(#clip250)" d="M706.998 1309.33 L706.998 1313.89 Q704.336 1312.62 701.975 1311.99 Q699.614 1311.37 697.415 1311.37 Q693.595 1311.37 691.512 1312.85 Q689.452 1314.33 689.452 1317.06 Q689.452 1319.35 690.818 1320.53 Q692.206 1321.69 696.049 1322.41 L698.873 1322.99 Q704.105 1323.98 706.581 1326.51 Q709.081 1329.01 709.081 1333.22 Q709.081 1338.24 705.702 1340.83 Q702.345 1343.43 695.841 1343.43 Q693.387 1343.43 690.609 1342.87 Q687.855 1342.32 684.892 1341.23 L684.892 1336.41 Q687.739 1338.01 690.47 1338.82 Q693.202 1339.63 695.841 1339.63 Q699.845 1339.63 702.021 1338.06 Q704.197 1336.48 704.197 1333.57 Q704.197 1331.02 702.623 1329.58 Q701.072 1328.15 697.507 1327.43 L694.66 1326.88 Q689.429 1325.83 687.091 1323.61 Q684.753 1321.39 684.753 1317.43 Q684.753 1312.85 687.97 1310.21 Q691.211 1307.57 696.882 1307.57 Q699.313 1307.57 701.836 1308.01 Q704.359 1308.45 706.998 1309.33 Z" fill="#000000" fill-rule="evenodd" fill-opacity="1" /><path clip-path="url(#clip250)" d="M725.285 1342.76 L712.091 1308.2 L716.975 1308.2 L727.924 1337.29 L738.896 1308.2 L743.757 1308.2 L730.586 1342.76 L725.285 1342.76 Z" fill="#000000" fill-rule="evenodd" fill-opacity="1" /><path clip-path="url(#clip250)" d="M753.479 1312.04 L753.479 1338.91 L759.127 1338.91 Q766.28 1338.91 769.59 1335.67 Q772.924 1332.43 772.924 1325.44 Q772.924 1318.5 769.59 1315.28 Q766.28 1312.04 759.127 1312.04 L753.479 1312.04 M748.803 1308.2 L758.41 1308.2 Q768.456 1308.2 773.155 1312.39 Q777.854 1316.55 777.854 1325.44 Q777.854 1334.38 773.132 1338.57 Q768.41 1342.76 758.41 1342.76 L748.803 1342.76 L748.803 1308.2 Z" fill="#000000" fill-rule="evenodd" fill-opacity="1" /><path clip-path="url(#clip250)" d="M810.423 1306.78 Q807.322 1312.11 805.817 1317.32 Q804.312 1322.52 804.312 1327.87 Q804.312 1333.22 805.817 1338.47 Q807.345 1343.7 810.423 1349.01 L806.72 1349.01 Q803.248 1343.57 801.511 1338.31 Q799.798 1333.06 799.798 1327.87 Q799.798 1322.71 801.511 1317.48 Q803.224 1312.25 806.72 1306.78 L810.423 1306.78 Z" fill="#000000" fill-rule="evenodd" fill-opacity="1" /><path clip-path="url(#clip250)" d="M822.808 1338.87 L822.808 1352.62 L818.525 1352.62 L818.525 1316.83 L822.808 1316.83 L822.808 1320.76 Q824.15 1318.45 826.187 1317.34 Q828.247 1316.2 831.095 1316.2 Q835.817 1316.2 838.757 1319.95 Q841.72 1323.7 841.72 1329.82 Q841.72 1335.93 838.757 1339.68 Q835.817 1343.43 831.095 1343.43 Q828.247 1343.43 826.187 1342.32 Q824.15 1341.18 822.808 1338.87 M837.298 1329.82 Q837.298 1325.12 835.354 1322.45 Q833.433 1319.77 830.053 1319.77 Q826.673 1319.77 824.729 1322.45 Q822.808 1325.12 822.808 1329.82 Q822.808 1334.51 824.729 1337.2 Q826.673 1339.86 830.053 1339.86 Q833.433 1339.86 835.354 1337.2 Q837.298 1334.51 837.298 1329.82 Z" fill="#000000" fill-rule="evenodd" fill-opacity="1" /><path clip-path="url(#clip250)" d="M863.803 1320.81 Q863.085 1320.39 862.229 1320.21 Q861.395 1320 860.377 1320 Q856.766 1320 854.821 1322.36 Q852.9 1324.7 852.9 1329.1 L852.9 1342.76 L848.618 1342.76 L848.618 1316.83 L852.9 1316.83 L852.9 1320.86 Q854.243 1318.5 856.395 1317.36 Q858.548 1316.2 861.627 1316.2 Q862.067 1316.2 862.599 1316.27 Q863.131 1316.32 863.78 1316.44 L863.803 1320.81 Z" fill="#000000" fill-rule="evenodd" fill-opacity="1" /><path clip-path="url(#clip250)" d="M877.275 1319.82 Q873.849 1319.82 871.858 1322.5 Q869.868 1325.16 869.868 1329.82 Q869.868 1334.47 871.835 1337.15 Q873.826 1339.82 877.275 1339.82 Q880.678 1339.82 882.668 1337.13 Q884.659 1334.45 884.659 1329.82 Q884.659 1325.21 882.668 1322.52 Q880.678 1319.82 877.275 1319.82 M877.275 1316.2 Q882.83 1316.2 886.002 1319.82 Q889.173 1323.43 889.173 1329.82 Q889.173 1336.18 886.002 1339.82 Q882.83 1343.43 877.275 1343.43 Q871.696 1343.43 868.525 1339.82 Q865.377 1336.18 865.377 1329.82 Q865.377 1323.43 868.525 1319.82 Q871.696 1316.2 877.275 1316.2 Z" fill="#000000" fill-rule="evenodd" fill-opacity="1" /><path clip-path="url(#clip250)" d="M900.353 1338.87 L900.353 1352.62 L896.071 1352.62 L896.071 1316.83 L900.353 1316.83 L900.353 1320.76 Q901.696 1318.45 903.733 1317.34 Q905.793 1316.2 908.64 1316.2 Q913.363 1316.2 916.302 1319.95 Q919.265 1323.7 919.265 1329.82 Q919.265 1335.93 916.302 1339.68 Q913.363 1343.43 908.64 1343.43 Q905.793 1343.43 903.733 1342.32 Q901.696 1341.18 900.353 1338.87 M914.844 1329.82 Q914.844 1325.12 912.9 1322.45 Q910.978 1319.77 907.599 1319.77 Q904.219 1319.77 902.275 1322.45 Q900.353 1325.12 900.353 1329.82 Q900.353 1334.51 902.275 1337.2 Q904.219 1339.86 907.599 1339.86 Q910.978 1339.86 912.9 1337.2 Q914.844 1334.51 914.844 1329.82 Z" fill="#000000" fill-rule="evenodd" fill-opacity="1" /><path clip-path="url(#clip250)" d="M936.372 1319.82 Q932.946 1319.82 930.955 1322.5 Q928.964 1325.16 928.964 1329.82 Q928.964 1334.47 930.932 1337.15 Q932.923 1339.82 936.372 1339.82 Q939.775 1339.82 941.765 1337.13 Q943.756 1334.45 943.756 1329.82 Q943.756 1325.21 941.765 1322.52 Q939.775 1319.82 936.372 1319.82 M936.372 1316.2 Q941.927 1316.2 945.099 1319.82 Q948.27 1323.43 948.27 1329.82 Q948.27 1336.18 945.099 1339.82 Q941.927 1343.43 936.372 1343.43 Q930.793 1343.43 927.622 1339.82 Q924.474 1336.18 924.474 1329.82 Q924.474 1323.43 927.622 1319.82 Q930.793 1316.2 936.372 1316.2 Z" fill="#000000" fill-rule="evenodd" fill-opacity="1" /><path clip-path="url(#clip250)" d="M971.858 1317.59 L971.858 1321.62 Q970.052 1320.7 968.108 1320.23 Q966.163 1319.77 964.08 1319.77 Q960.909 1319.77 959.311 1320.74 Q957.737 1321.71 957.737 1323.66 Q957.737 1325.14 958.872 1326 Q960.006 1326.83 963.432 1327.59 L964.89 1327.92 Q969.427 1328.89 971.325 1330.67 Q973.247 1332.43 973.247 1335.6 Q973.247 1339.21 970.376 1341.32 Q967.529 1343.43 962.529 1343.43 Q960.446 1343.43 958.177 1343.01 Q955.932 1342.62 953.432 1341.81 L953.432 1337.41 Q955.793 1338.63 958.085 1339.26 Q960.376 1339.86 962.622 1339.86 Q965.631 1339.86 967.251 1338.84 Q968.872 1337.8 968.872 1335.93 Q968.872 1334.19 967.691 1333.26 Q966.534 1332.34 962.575 1331.48 L961.094 1331.14 Q957.136 1330.3 955.376 1328.59 Q953.617 1326.85 953.617 1323.84 Q953.617 1320.19 956.21 1318.2 Q958.802 1316.2 963.571 1316.2 Q965.932 1316.2 968.015 1316.55 Q970.098 1316.9 971.858 1317.59 Z" fill="#000000" fill-rule="evenodd" fill-opacity="1" /><path clip-path="url(#clip250)" d="M1002.2 1328.73 L1002.2 1330.81 L982.622 1330.81 Q982.899 1335.21 985.26 1337.52 Q987.645 1339.82 991.881 1339.82 Q994.334 1339.82 996.626 1339.21 Q998.941 1338.61 1001.21 1337.41 L1001.21 1341.44 Q998.918 1342.41 996.51 1342.92 Q994.103 1343.43 991.626 1343.43 Q985.422 1343.43 981.788 1339.82 Q978.177 1336.2 978.177 1330.05 Q978.177 1323.68 981.603 1319.95 Q985.052 1316.2 990.885 1316.2 Q996.117 1316.2 999.149 1319.58 Q1002.2 1322.94 1002.2 1328.73 M997.946 1327.48 Q997.899 1323.98 995.978 1321.9 Q994.08 1319.82 990.932 1319.82 Q987.367 1319.82 985.214 1321.83 Q983.085 1323.84 982.76 1327.5 L997.946 1327.48 Z" fill="#000000" fill-rule="evenodd" fill-opacity="1" /><path clip-path="url(#clip250)" d="M1026.26 1320.76 L1026.26 1306.74 L1030.51 1306.74 L1030.51 1342.76 L1026.26 1342.76 L1026.26 1338.87 Q1024.91 1341.18 1022.85 1342.32 Q1020.82 1343.43 1017.95 1343.43 Q1013.25 1343.43 1010.28 1339.68 Q1007.34 1335.93 1007.34 1329.82 Q1007.34 1323.7 1010.28 1319.95 Q1013.25 1316.2 1017.95 1316.2 Q1020.82 1316.2 1022.85 1317.34 Q1024.91 1318.45 1026.26 1320.76 M1011.74 1329.82 Q1011.74 1334.51 1013.66 1337.2 Q1015.61 1339.86 1018.99 1339.86 Q1022.37 1339.86 1024.31 1337.2 Q1026.26 1334.51 1026.26 1329.82 Q1026.26 1325.12 1024.31 1322.45 Q1022.37 1319.77 1018.99 1319.77 Q1015.61 1319.77 1013.66 1322.45 Q1011.74 1325.12 1011.74 1329.82 Z" fill="#000000" fill-rule="evenodd" fill-opacity="1" /><path clip-path="url(#clip250)" d="M1038.62 1306.78 L1042.32 1306.78 Q1045.79 1312.25 1047.51 1317.48 Q1049.24 1322.71 1049.24 1327.87 Q1049.24 1333.06 1047.51 1338.31 Q1045.79 1343.57 1042.32 1349.01 L1038.62 1349.01 Q1041.7 1343.7 1043.2 1338.47 Q1044.73 1333.22 1044.73 1327.87 Q1044.73 1322.52 1043.2 1317.32 Q1041.7 1312.11 1038.62 1306.78 Z" fill="#000000" fill-rule="evenodd" fill-opacity="1" /></svg>
