<?xml version="1.0" encoding="utf-8"?>
<svg xmlns="http://www.w3.org/2000/svg" xmlns:xlink="http://www.w3.org/1999/xlink" width="600" height="400" viewBox="0 0 2400 1600">
<defs>
  <clipPath id="clip290">
    <rect x="0" y="0" width="2400" height="1600"/>
  </clipPath>
</defs>
<path clip-path="url(#clip290)" d="M0 1600 L2400 1600 L2400 0 L0 0  Z" fill="#ffffff" fill-rule="evenodd" fill-opacity="1"/>
<defs>
  <clipPath id="clip291">
    <rect x="480" y="0" width="1681" height="1600"/>
  </clipPath>
</defs>
<defs>
  <clipPath id="clip292">
    <rect x="252" y="47" width="2101" height="1377"/>
  </clipPath>
</defs>
<path clip-path="url(#clip290)" d="M309.866 1423.18 L2352.76 1423.18 L2352.76 47.2441 L309.866 47.2441  Z" fill="#ffffff" fill-rule="evenodd" fill-opacity="1"/>
<defs>
  <clipPath id="clip293">
    <rect x="309" y="47" width="2044" height="1377"/>
  </clipPath>
</defs>
<polyline clip-path="url(#clip293)" style="stroke:#000000; stroke-linecap:round; stroke-linejoin:round; stroke-width:2; stroke-opacity:0.1; fill:none" points="536.854,1423.18 536.854,47.2441 "/>
<polyline clip-path="url(#clip293)" style="stroke:#000000; stroke-linecap:round; stroke-linejoin:round; stroke-width:2; stroke-opacity:0.1; fill:none" points="820.588,1423.18 820.588,47.2441 "/>
<polyline clip-path="url(#clip293)" style="stroke:#000000; stroke-linecap:round; stroke-linejoin:round; stroke-width:2; stroke-opacity:0.1; fill:none" points="1104.32,1423.18 1104.32,47.2441 "/>
<polyline clip-path="url(#clip293)" style="stroke:#000000; stroke-linecap:round; stroke-linejoin:round; stroke-width:2; stroke-opacity:0.1; fill:none" points="1388.06,1423.18 1388.06,47.2441 "/>
<polyline clip-path="url(#clip293)" style="stroke:#000000; stroke-linecap:round; stroke-linejoin:round; stroke-width:2; stroke-opacity:0.1; fill:none" points="1671.79,1423.18 1671.79,47.2441 "/>
<polyline clip-path="url(#clip293)" style="stroke:#000000; stroke-linecap:round; stroke-linejoin:round; stroke-width:2; stroke-opacity:0.1; fill:none" points="1955.53,1423.18 1955.53,47.2441 "/>
<polyline clip-path="url(#clip293)" style="stroke:#000000; stroke-linecap:round; stroke-linejoin:round; stroke-width:2; stroke-opacity:0.1; fill:none" points="2239.26,1423.18 2239.26,47.2441 "/>
<polyline clip-path="url(#clip290)" style="stroke:#000000; stroke-linecap:round; stroke-linejoin:round; stroke-width:4; stroke-opacity:1; fill:none" points="309.866,1423.18 2352.76,1423.18 "/>
<polyline clip-path="url(#clip290)" style="stroke:#000000; stroke-linecap:round; stroke-linejoin:round; stroke-width:4; stroke-opacity:1; fill:none" points="536.854,1423.18 536.854,1404.28 "/>
<polyline clip-path="url(#clip290)" style="stroke:#000000; stroke-linecap:round; stroke-linejoin:round; stroke-width:4; stroke-opacity:1; fill:none" points="820.588,1423.18 820.588,1404.28 "/>
<polyline clip-path="url(#clip290)" style="stroke:#000000; stroke-linecap:round; stroke-linejoin:round; stroke-width:4; stroke-opacity:1; fill:none" points="1104.32,1423.18 1104.32,1404.28 "/>
<polyline clip-path="url(#clip290)" style="stroke:#000000; stroke-linecap:round; stroke-linejoin:round; stroke-width:4; stroke-opacity:1; fill:none" points="1388.06,1423.18 1388.06,1404.28 "/>
<polyline clip-path="url(#clip290)" style="stroke:#000000; stroke-linecap:round; stroke-linejoin:round; stroke-width:4; stroke-opacity:1; fill:none" points="1671.79,1423.18 1671.79,1404.28 "/>
<polyline clip-path="url(#clip290)" style="stroke:#000000; stroke-linecap:round; stroke-linejoin:round; stroke-width:4; stroke-opacity:1; fill:none" points="1955.53,1423.18 1955.53,1404.28 "/>
<polyline clip-path="url(#clip290)" style="stroke:#000000; stroke-linecap:round; stroke-linejoin:round; stroke-width:4; stroke-opacity:1; fill:none" points="2239.26,1423.18 2239.26,1404.28 "/>
<path clip-path="url(#clip290)" d="M527.131 1451.02 L545.488 1451.02 L545.488 1454.96 L531.414 1454.96 L531.414 1463.43 Q532.432 1463.08 533.451 1462.92 Q534.469 1462.73 535.488 1462.73 Q541.275 1462.73 544.654 1465.9 Q548.034 1469.08 548.034 1474.49 Q548.034 1480.07 544.562 1483.17 Q541.09 1486.25 534.77 1486.25 Q532.594 1486.25 530.326 1485.88 Q528.08 1485.51 525.673 1484.77 L525.673 1480.07 Q527.756 1481.2 529.979 1481.76 Q532.201 1482.32 534.678 1482.32 Q538.682 1482.32 541.02 1480.21 Q543.358 1478.1 543.358 1474.49 Q543.358 1470.88 541.02 1468.77 Q538.682 1466.67 534.678 1466.67 Q532.803 1466.67 530.928 1467.08 Q529.076 1467.5 527.131 1468.38 L527.131 1451.02 Z" fill="#000000" fill-rule="evenodd" fill-opacity="1" /><path clip-path="url(#clip290)" d="M795.276 1481.64 L802.915 1481.64 L802.915 1455.28 L794.605 1456.95 L794.605 1452.69 L802.869 1451.02 L807.544 1451.02 L807.544 1481.64 L815.183 1481.64 L815.183 1485.58 L795.276 1485.58 L795.276 1481.64 Z" fill="#000000" fill-rule="evenodd" fill-opacity="1" /><path clip-path="url(#clip290)" d="M834.628 1454.1 Q831.016 1454.1 829.188 1457.66 Q827.382 1461.2 827.382 1468.33 Q827.382 1475.44 829.188 1479.01 Q831.016 1482.55 834.628 1482.55 Q838.262 1482.55 840.067 1479.01 Q841.896 1475.44 841.896 1468.33 Q841.896 1461.2 840.067 1457.66 Q838.262 1454.1 834.628 1454.1 M834.628 1450.39 Q840.438 1450.39 843.493 1455 Q846.572 1459.58 846.572 1468.33 Q846.572 1477.06 843.493 1481.67 Q840.438 1486.25 834.628 1486.25 Q828.817 1486.25 825.739 1481.67 Q822.683 1477.06 822.683 1468.33 Q822.683 1459.58 825.739 1455 Q828.817 1450.39 834.628 1450.39 Z" fill="#000000" fill-rule="evenodd" fill-opacity="1" /><path clip-path="url(#clip290)" d="M1079.51 1481.64 L1087.15 1481.64 L1087.15 1455.28 L1078.84 1456.95 L1078.84 1452.69 L1087.1 1451.02 L1091.78 1451.02 L1091.78 1481.64 L1099.42 1481.64 L1099.42 1485.58 L1079.51 1485.58 L1079.51 1481.64 Z" fill="#000000" fill-rule="evenodd" fill-opacity="1" /><path clip-path="url(#clip290)" d="M1108.91 1451.02 L1127.26 1451.02 L1127.26 1454.96 L1113.19 1454.96 L1113.19 1463.43 Q1114.21 1463.08 1115.23 1462.92 Q1116.24 1462.73 1117.26 1462.73 Q1123.05 1462.73 1126.43 1465.9 Q1129.81 1469.08 1129.81 1474.49 Q1129.81 1480.07 1126.34 1483.17 Q1122.86 1486.25 1116.55 1486.25 Q1114.37 1486.25 1112.1 1485.88 Q1109.86 1485.51 1107.45 1484.77 L1107.45 1480.07 Q1109.53 1481.2 1111.75 1481.76 Q1113.98 1482.32 1116.45 1482.32 Q1120.46 1482.32 1122.8 1480.21 Q1125.13 1478.1 1125.13 1474.49 Q1125.13 1470.88 1122.8 1468.77 Q1120.46 1466.67 1116.45 1466.67 Q1114.58 1466.67 1112.7 1467.08 Q1110.85 1467.5 1108.91 1468.38 L1108.91 1451.02 Z" fill="#000000" fill-rule="evenodd" fill-opacity="1" /><path clip-path="url(#clip290)" d="M1366.83 1481.64 L1383.15 1481.64 L1383.15 1485.58 L1361.21 1485.58 L1361.21 1481.64 Q1363.87 1478.89 1368.45 1474.26 Q1373.06 1469.61 1374.24 1468.27 Q1376.48 1465.74 1377.36 1464.01 Q1378.27 1462.25 1378.27 1460.56 Q1378.27 1457.8 1376.32 1456.07 Q1374.4 1454.33 1371.3 1454.33 Q1369.1 1454.33 1366.65 1455.09 Q1364.22 1455.86 1361.44 1457.41 L1361.44 1452.69 Q1364.26 1451.55 1366.72 1450.97 Q1369.17 1450.39 1371.21 1450.39 Q1376.58 1450.39 1379.77 1453.08 Q1382.97 1455.77 1382.97 1460.26 Q1382.97 1462.39 1382.16 1464.31 Q1381.37 1466.2 1379.26 1468.8 Q1378.68 1469.47 1375.58 1472.69 Q1372.48 1475.88 1366.83 1481.64 Z" fill="#000000" fill-rule="evenodd" fill-opacity="1" /><path clip-path="url(#clip290)" d="M1402.97 1454.1 Q1399.35 1454.1 1397.53 1457.66 Q1395.72 1461.2 1395.72 1468.33 Q1395.72 1475.44 1397.53 1479.01 Q1399.35 1482.55 1402.97 1482.55 Q1406.6 1482.55 1408.4 1479.01 Q1410.23 1475.44 1410.23 1468.33 Q1410.23 1461.2 1408.4 1457.66 Q1406.6 1454.1 1402.97 1454.1 M1402.97 1450.39 Q1408.78 1450.39 1411.83 1455 Q1414.91 1459.58 1414.91 1468.33 Q1414.91 1477.06 1411.83 1481.67 Q1408.78 1486.25 1402.97 1486.25 Q1397.15 1486.25 1394.08 1481.67 Q1391.02 1477.06 1391.02 1468.33 Q1391.02 1459.58 1394.08 1455 Q1397.15 1450.39 1402.97 1450.39 Z" fill="#000000" fill-rule="evenodd" fill-opacity="1" /><path clip-path="url(#clip290)" d="M1651.06 1481.64 L1667.38 1481.64 L1667.38 1485.58 L1645.44 1485.58 L1645.44 1481.64 Q1648.1 1478.89 1652.68 1474.26 Q1657.29 1469.61 1658.47 1468.27 Q1660.72 1465.74 1661.6 1464.01 Q1662.5 1462.25 1662.5 1460.56 Q1662.5 1457.8 1660.55 1456.07 Q1658.63 1454.33 1655.53 1454.33 Q1653.33 1454.33 1650.88 1455.09 Q1648.45 1455.86 1645.67 1457.41 L1645.67 1452.69 Q1648.49 1451.55 1650.95 1450.97 Q1653.4 1450.39 1655.44 1450.39 Q1660.81 1450.39 1664 1453.08 Q1667.2 1455.77 1667.2 1460.26 Q1667.2 1462.39 1666.39 1464.31 Q1665.6 1466.2 1663.49 1468.8 Q1662.92 1469.47 1659.81 1472.69 Q1656.71 1475.88 1651.06 1481.64 Z" fill="#000000" fill-rule="evenodd" fill-opacity="1" /><path clip-path="url(#clip290)" d="M1677.24 1451.02 L1695.6 1451.02 L1695.6 1454.96 L1681.53 1454.96 L1681.53 1463.43 Q1682.54 1463.08 1683.56 1462.92 Q1684.58 1462.73 1685.6 1462.73 Q1691.39 1462.73 1694.77 1465.9 Q1698.15 1469.08 1698.15 1474.49 Q1698.15 1480.07 1694.67 1483.17 Q1691.2 1486.25 1684.88 1486.25 Q1682.71 1486.25 1680.44 1485.88 Q1678.19 1485.51 1675.79 1484.77 L1675.79 1480.07 Q1677.87 1481.2 1680.09 1481.76 Q1682.31 1482.32 1684.79 1482.32 Q1688.79 1482.32 1691.13 1480.21 Q1693.47 1478.1 1693.47 1474.49 Q1693.47 1470.88 1691.13 1468.77 Q1688.79 1466.67 1684.79 1466.67 Q1682.92 1466.67 1681.04 1467.08 Q1679.19 1467.5 1677.24 1468.38 L1677.24 1451.02 Z" fill="#000000" fill-rule="evenodd" fill-opacity="1" /><path clip-path="url(#clip290)" d="M1944.37 1466.95 Q1947.73 1467.66 1949.6 1469.93 Q1951.5 1472.2 1951.5 1475.53 Q1951.5 1480.65 1947.98 1483.45 Q1944.46 1486.25 1937.98 1486.25 Q1935.81 1486.25 1933.49 1485.81 Q1931.2 1485.39 1928.75 1484.54 L1928.75 1480.02 Q1930.69 1481.16 1933 1481.74 Q1935.32 1482.32 1937.84 1482.32 Q1942.24 1482.32 1944.53 1480.58 Q1946.85 1478.84 1946.85 1475.53 Q1946.85 1472.48 1944.69 1470.77 Q1942.56 1469.03 1938.74 1469.03 L1934.72 1469.03 L1934.72 1465.19 L1938.93 1465.19 Q1942.38 1465.19 1944.21 1463.82 Q1946.04 1462.43 1946.04 1459.84 Q1946.04 1457.18 1944.14 1455.77 Q1942.26 1454.33 1938.74 1454.33 Q1936.82 1454.33 1934.62 1454.75 Q1932.43 1455.16 1929.79 1456.04 L1929.79 1451.88 Q1932.45 1451.14 1934.76 1450.77 Q1937.1 1450.39 1939.16 1450.39 Q1944.49 1450.39 1947.59 1452.83 Q1950.69 1455.23 1950.69 1459.35 Q1950.69 1462.22 1949.05 1464.21 Q1947.4 1466.18 1944.37 1466.95 Z" fill="#000000" fill-rule="evenodd" fill-opacity="1" /><path clip-path="url(#clip290)" d="M1970.37 1454.1 Q1966.75 1454.1 1964.93 1457.66 Q1963.12 1461.2 1963.12 1468.33 Q1963.12 1475.44 1964.93 1479.01 Q1966.75 1482.55 1970.37 1482.55 Q1974 1482.55 1975.8 1479.01 Q1977.63 1475.44 1977.63 1468.33 Q1977.63 1461.2 1975.8 1457.66 Q1974 1454.1 1970.37 1454.1 M1970.37 1450.39 Q1976.18 1450.39 1979.23 1455 Q1982.31 1459.58 1982.31 1468.33 Q1982.31 1477.06 1979.23 1481.67 Q1976.18 1486.25 1970.37 1486.25 Q1964.56 1486.25 1961.48 1481.67 Q1958.42 1477.06 1958.42 1468.33 Q1958.42 1459.58 1961.48 1455 Q1964.56 1450.39 1970.37 1450.39 Z" fill="#000000" fill-rule="evenodd" fill-opacity="1" /><path clip-path="url(#clip290)" d="M2228.6 1466.95 Q2231.96 1467.66 2233.83 1469.93 Q2235.73 1472.2 2235.73 1475.53 Q2235.73 1480.65 2232.21 1483.45 Q2228.69 1486.25 2222.21 1486.25 Q2220.04 1486.25 2217.72 1485.81 Q2215.43 1485.39 2212.98 1484.54 L2212.98 1480.02 Q2214.92 1481.16 2217.24 1481.74 Q2219.55 1482.32 2222.07 1482.32 Q2226.47 1482.32 2228.76 1480.58 Q2231.08 1478.84 2231.08 1475.53 Q2231.08 1472.48 2228.93 1470.77 Q2226.8 1469.03 2222.98 1469.03 L2218.95 1469.03 L2218.95 1465.19 L2223.16 1465.19 Q2226.61 1465.19 2228.44 1463.82 Q2230.27 1462.43 2230.27 1459.84 Q2230.27 1457.18 2228.37 1455.77 Q2226.5 1454.33 2222.98 1454.33 Q2221.06 1454.33 2218.86 1454.75 Q2216.66 1455.16 2214.02 1456.04 L2214.02 1451.88 Q2216.68 1451.14 2219 1450.77 Q2221.33 1450.39 2223.39 1450.39 Q2228.72 1450.39 2231.82 1452.83 Q2234.92 1455.23 2234.92 1459.35 Q2234.92 1462.22 2233.28 1464.21 Q2231.63 1466.18 2228.6 1466.95 Z" fill="#000000" fill-rule="evenodd" fill-opacity="1" /><path clip-path="url(#clip290)" d="M2244.64 1451.02 L2263 1451.02 L2263 1454.96 L2248.93 1454.96 L2248.93 1463.43 Q2249.94 1463.08 2250.96 1462.92 Q2251.98 1462.73 2253 1462.73 Q2258.79 1462.73 2262.17 1465.9 Q2265.55 1469.08 2265.55 1474.49 Q2265.55 1480.07 2262.07 1483.17 Q2258.6 1486.25 2252.28 1486.25 Q2250.11 1486.25 2247.84 1485.88 Q2245.59 1485.51 2243.19 1484.77 L2243.19 1480.07 Q2245.27 1481.2 2247.49 1481.76 Q2249.71 1482.32 2252.19 1482.32 Q2256.19 1482.32 2258.53 1480.21 Q2260.87 1478.1 2260.87 1474.49 Q2260.87 1470.88 2258.53 1468.77 Q2256.19 1466.67 2252.19 1466.67 Q2250.32 1466.67 2248.44 1467.08 Q2246.59 1467.5 2244.64 1468.38 L2244.64 1451.02 Z" fill="#000000" fill-rule="evenodd" fill-opacity="1" /><path clip-path="url(#clip290)" d="M1033.06 1550.12 Q1025.96 1550.12 1023.23 1551.75 Q1020.49 1553.37 1020.49 1557.29 Q1020.49 1560.4 1022.53 1562.25 Q1024.6 1564.07 1028.13 1564.07 Q1033 1564.07 1035.93 1560.63 Q1038.89 1557.16 1038.89 1551.43 L1038.89 1550.12 L1033.06 1550.12 M1044.74 1547.71 L1044.74 1568.04 L1038.89 1568.04 L1038.89 1562.63 Q1036.88 1565.88 1033.89 1567.44 Q1030.9 1568.97 1026.57 1568.97 Q1021.09 1568.97 1017.85 1565.91 Q1014.63 1562.82 1014.63 1557.67 Q1014.63 1551.65 1018.64 1548.6 Q1022.69 1545.54 1030.67 1545.54 L1038.89 1545.54 L1038.89 1544.97 Q1038.89 1540.93 1036.21 1538.73 Q1033.57 1536.5 1028.76 1536.5 Q1025.71 1536.5 1022.81 1537.23 Q1019.92 1537.97 1017.24 1539.43 L1017.24 1534.02 Q1020.46 1532.78 1023.48 1532.17 Q1026.5 1531.54 1029.37 1531.54 Q1037.1 1531.54 1040.92 1535.55 Q1044.74 1539.56 1044.74 1547.71 Z" fill="#000000" fill-rule="evenodd" fill-opacity="1" /><path clip-path="url(#clip290)" d="M1062.47 1562.7 L1062.47 1581.6 L1056.58 1581.6 L1056.58 1532.4 L1062.47 1532.4 L1062.47 1537.81 Q1064.32 1534.62 1067.12 1533.1 Q1069.95 1531.54 1073.87 1531.54 Q1080.36 1531.54 1084.4 1536.69 Q1088.48 1541.85 1088.48 1550.25 Q1088.48 1558.65 1084.4 1563.81 Q1080.36 1568.97 1073.87 1568.97 Q1069.95 1568.97 1067.12 1567.44 Q1064.32 1565.88 1062.47 1562.7 M1082.4 1550.25 Q1082.4 1543.79 1079.72 1540.13 Q1077.08 1536.44 1072.43 1536.44 Q1067.79 1536.44 1065.11 1540.13 Q1062.47 1543.79 1062.47 1550.25 Q1062.47 1556.71 1065.11 1560.4 Q1067.79 1564.07 1072.43 1564.07 Q1077.08 1564.07 1079.72 1560.4 Q1082.4 1556.71 1082.4 1550.25 Z" fill="#000000" fill-rule="evenodd" fill-opacity="1" /><path clip-path="url(#clip290)" d="M1103.85 1562.7 L1103.85 1581.6 L1097.96 1581.6 L1097.96 1532.4 L1103.85 1532.4 L1103.85 1537.81 Q1105.69 1534.62 1108.5 1533.1 Q1111.33 1531.54 1115.24 1531.54 Q1121.74 1531.54 1125.78 1536.69 Q1129.85 1541.85 1129.85 1550.25 Q1129.85 1558.65 1125.78 1563.81 Q1121.74 1568.97 1115.24 1568.97 Q1111.33 1568.97 1108.5 1567.44 Q1105.69 1565.88 1103.85 1562.7 M1123.77 1550.25 Q1123.77 1543.79 1121.1 1540.13 Q1118.46 1536.44 1113.81 1536.44 Q1109.16 1536.44 1106.49 1540.13 Q1103.85 1543.79 1103.85 1550.25 Q1103.85 1556.71 1106.49 1560.4 Q1109.16 1564.07 1113.81 1564.07 Q1118.46 1564.07 1121.1 1560.4 Q1123.77 1556.71 1123.77 1550.25 Z" fill="#000000" fill-rule="evenodd" fill-opacity="1" /><path clip-path="url(#clip290)" d="M1160.22 1537.87 Q1159.23 1537.3 1158.05 1537.04 Q1156.91 1536.76 1155.51 1536.76 Q1150.54 1536.76 1147.87 1540 Q1145.23 1543.22 1145.23 1549.27 L1145.23 1568.04 L1139.34 1568.04 L1139.34 1532.4 L1145.23 1532.4 L1145.23 1537.93 Q1147.07 1534.69 1150.03 1533.13 Q1152.99 1531.54 1157.22 1531.54 Q1157.83 1531.54 1158.56 1531.63 Q1159.29 1531.7 1160.18 1531.85 L1160.22 1537.87 Z" fill="#000000" fill-rule="evenodd" fill-opacity="1" /><path clip-path="url(#clip290)" d="M1178.74 1536.5 Q1174.03 1536.5 1171.29 1540.19 Q1168.56 1543.85 1168.56 1550.25 Q1168.56 1556.65 1171.26 1560.34 Q1174 1564 1178.74 1564 Q1183.42 1564 1186.16 1560.31 Q1188.89 1556.62 1188.89 1550.25 Q1188.89 1543.92 1186.16 1540.23 Q1183.42 1536.5 1178.74 1536.5 M1178.74 1531.54 Q1186.38 1531.54 1190.74 1536.5 Q1195.1 1541.47 1195.1 1550.25 Q1195.1 1559 1190.74 1564 Q1186.38 1568.97 1178.74 1568.97 Q1171.07 1568.97 1166.71 1564 Q1162.38 1559 1162.38 1550.25 Q1162.38 1541.47 1166.71 1536.5 Q1171.07 1531.54 1178.74 1531.54 Z" fill="#000000" fill-rule="evenodd" fill-opacity="1" /><path clip-path="url(#clip290)" d="M1232.44 1532.4 L1219.54 1549.74 L1233.1 1568.04 L1226.2 1568.04 L1215.82 1554.04 L1205.44 1568.04 L1198.54 1568.04 L1212.38 1549.39 L1199.72 1532.4 L1206.62 1532.4 L1216.08 1545.1 L1225.53 1532.4 L1232.44 1532.4 Z" fill="#000000" fill-rule="evenodd" fill-opacity="1" /><path clip-path="url(#clip290)" d="M1241.38 1532.4 L1247.24 1532.4 L1247.24 1568.04 L1241.38 1568.04 L1241.38 1532.4 M1241.38 1518.52 L1247.24 1518.52 L1247.24 1525.93 L1241.38 1525.93 L1241.38 1518.52 Z" fill="#000000" fill-rule="evenodd" fill-opacity="1" /><path clip-path="url(#clip290)" d="M1287.24 1539.24 Q1289.44 1535.29 1292.5 1533.41 Q1295.55 1531.54 1299.69 1531.54 Q1305.26 1531.54 1308.28 1535.45 Q1311.31 1539.33 1311.31 1546.53 L1311.31 1568.04 L1305.42 1568.04 L1305.42 1546.72 Q1305.42 1541.59 1303.6 1539.11 Q1301.79 1536.63 1298.07 1536.63 Q1293.51 1536.63 1290.87 1539.65 Q1288.23 1542.68 1288.23 1547.9 L1288.23 1568.04 L1282.34 1568.04 L1282.34 1546.72 Q1282.34 1541.56 1280.53 1539.11 Q1278.71 1536.63 1274.93 1536.63 Q1270.44 1536.63 1267.8 1539.68 Q1265.16 1542.71 1265.16 1547.9 L1265.16 1568.04 L1259.27 1568.04 L1259.27 1532.4 L1265.16 1532.4 L1265.16 1537.93 Q1267.16 1534.66 1269.96 1533.1 Q1272.76 1531.54 1276.61 1531.54 Q1280.5 1531.54 1283.2 1533.51 Q1285.94 1535.48 1287.24 1539.24 Z" fill="#000000" fill-rule="evenodd" fill-opacity="1" /><path clip-path="url(#clip290)" d="M1339.19 1550.12 Q1332.09 1550.12 1329.35 1551.75 Q1326.62 1553.37 1326.62 1557.29 Q1326.62 1560.4 1328.65 1562.25 Q1330.72 1564.07 1334.25 1564.07 Q1339.12 1564.07 1342.05 1560.63 Q1345.01 1557.16 1345.01 1551.43 L1345.01 1550.12 L1339.19 1550.12 M1350.87 1547.71 L1350.87 1568.04 L1345.01 1568.04 L1345.01 1562.63 Q1343.01 1565.88 1340.02 1567.44 Q1337.02 1568.97 1332.7 1568.97 Q1327.22 1568.97 1323.97 1565.91 Q1320.76 1562.82 1320.76 1557.67 Q1320.76 1551.65 1324.77 1548.6 Q1328.81 1545.54 1336.8 1545.54 L1345.01 1545.54 L1345.01 1544.97 Q1345.01 1540.93 1342.34 1538.73 Q1339.7 1536.5 1334.89 1536.5 Q1331.84 1536.5 1328.94 1537.23 Q1326.04 1537.97 1323.37 1539.43 L1323.37 1534.02 Q1326.58 1532.78 1329.61 1532.17 Q1332.63 1531.54 1335.5 1531.54 Q1343.23 1531.54 1347.05 1535.55 Q1350.87 1539.56 1350.87 1547.71 Z" fill="#000000" fill-rule="evenodd" fill-opacity="1" /><path clip-path="url(#clip290)" d="M1368.73 1522.27 L1368.73 1532.4 L1380.79 1532.4 L1380.79 1536.95 L1368.73 1536.95 L1368.73 1556.3 Q1368.73 1560.66 1369.9 1561.9 Q1371.11 1563.14 1374.77 1563.14 L1380.79 1563.14 L1380.79 1568.04 L1374.77 1568.04 Q1367.99 1568.04 1365.42 1565.53 Q1362.84 1562.98 1362.84 1556.3 L1362.84 1536.95 L1358.54 1536.95 L1358.54 1532.4 L1362.84 1532.4 L1362.84 1522.27 L1368.73 1522.27 Z" fill="#000000" fill-rule="evenodd" fill-opacity="1" /><path clip-path="url(#clip290)" d="M1388.49 1532.4 L1394.35 1532.4 L1394.35 1568.04 L1388.49 1568.04 L1388.49 1532.4 M1388.49 1518.52 L1394.35 1518.52 L1394.35 1525.93 L1388.49 1525.93 L1388.49 1518.52 Z" fill="#000000" fill-rule="evenodd" fill-opacity="1" /><path clip-path="url(#clip290)" d="M1420.41 1536.5 Q1415.7 1536.5 1412.97 1540.19 Q1410.23 1543.85 1410.23 1550.25 Q1410.23 1556.65 1412.94 1560.34 Q1415.67 1564 1420.41 1564 Q1425.09 1564 1427.83 1560.31 Q1430.57 1556.62 1430.57 1550.25 Q1430.57 1543.92 1427.83 1540.23 Q1425.09 1536.5 1420.41 1536.5 M1420.41 1531.54 Q1428.05 1531.54 1432.41 1536.5 Q1436.77 1541.47 1436.77 1550.25 Q1436.77 1559 1432.41 1564 Q1428.05 1568.97 1420.41 1568.97 Q1412.74 1568.97 1408.38 1564 Q1404.05 1559 1404.05 1550.25 Q1404.05 1541.47 1408.38 1536.5 Q1412.74 1531.54 1420.41 1531.54 Z" fill="#000000" fill-rule="evenodd" fill-opacity="1" /><path clip-path="url(#clip290)" d="M1476.11 1546.53 L1476.11 1568.04 L1470.26 1568.04 L1470.26 1546.72 Q1470.26 1541.66 1468.28 1539.14 Q1466.31 1536.63 1462.36 1536.63 Q1457.62 1536.63 1454.89 1539.65 Q1452.15 1542.68 1452.15 1547.9 L1452.15 1568.04 L1446.26 1568.04 L1446.26 1532.4 L1452.15 1532.4 L1452.15 1537.93 Q1454.25 1534.72 1457.08 1533.13 Q1459.95 1531.54 1463.67 1531.54 Q1469.81 1531.54 1472.96 1535.36 Q1476.11 1539.14 1476.11 1546.53 Z" fill="#000000" fill-rule="evenodd" fill-opacity="1" /><path clip-path="url(#clip290)" d="M1529.17 1537.87 Q1528.19 1537.3 1527.01 1537.04 Q1525.86 1536.76 1524.46 1536.76 Q1519.5 1536.76 1516.82 1540 Q1514.18 1543.22 1514.18 1549.27 L1514.18 1568.04 L1508.29 1568.04 L1508.29 1532.4 L1514.18 1532.4 L1514.18 1537.93 Q1516.03 1534.69 1518.99 1533.13 Q1521.95 1531.54 1526.18 1531.54 Q1526.79 1531.54 1527.52 1531.63 Q1528.25 1531.7 1529.14 1531.85 L1529.17 1537.87 Z" fill="#000000" fill-rule="evenodd" fill-opacity="1" /><path clip-path="url(#clip290)" d="M1551.52 1550.12 Q1544.42 1550.12 1541.68 1551.75 Q1538.94 1553.37 1538.94 1557.29 Q1538.94 1560.4 1540.98 1562.25 Q1543.05 1564.07 1546.58 1564.07 Q1551.45 1564.07 1554.38 1560.63 Q1557.34 1557.16 1557.34 1551.43 L1557.34 1550.12 L1551.52 1550.12 M1563.2 1547.71 L1563.2 1568.04 L1557.34 1568.04 L1557.34 1562.63 Q1555.34 1565.88 1552.34 1567.44 Q1549.35 1568.97 1545.02 1568.97 Q1539.55 1568.97 1536.3 1565.91 Q1533.09 1562.82 1533.09 1557.67 Q1533.09 1551.65 1537.1 1548.6 Q1541.14 1545.54 1549.13 1545.54 L1557.34 1545.54 L1557.34 1544.97 Q1557.34 1540.93 1554.67 1538.73 Q1552.03 1536.5 1547.22 1536.5 Q1544.16 1536.5 1541.27 1537.23 Q1538.37 1537.97 1535.7 1539.43 L1535.7 1534.02 Q1538.91 1532.78 1541.94 1532.17 Q1544.96 1531.54 1547.82 1531.54 Q1555.56 1531.54 1559.38 1535.55 Q1563.2 1539.56 1563.2 1547.71 Z" fill="#000000" fill-rule="evenodd" fill-opacity="1" /><path clip-path="url(#clip290)" d="M1604.89 1546.53 L1604.89 1568.04 L1599.04 1568.04 L1599.04 1546.72 Q1599.04 1541.66 1597.06 1539.14 Q1595.09 1536.63 1591.14 1536.63 Q1586.4 1536.63 1583.66 1539.65 Q1580.93 1542.68 1580.93 1547.9 L1580.93 1568.04 L1575.04 1568.04 L1575.04 1532.4 L1580.93 1532.4 L1580.93 1537.93 Q1583.03 1534.72 1585.86 1533.13 Q1588.72 1531.54 1592.45 1531.54 Q1598.59 1531.54 1601.74 1535.36 Q1604.89 1539.14 1604.89 1546.53 Z" fill="#000000" fill-rule="evenodd" fill-opacity="1" /><path clip-path="url(#clip290)" d="M1616.35 1518.52 L1622.24 1518.52 L1622.24 1547.77 L1639.71 1532.4 L1647.19 1532.4 L1628.29 1549.07 L1647.99 1568.04 L1640.35 1568.04 L1622.24 1550.63 L1622.24 1568.04 L1616.35 1568.04 L1616.35 1518.52 Z" fill="#000000" fill-rule="evenodd" fill-opacity="1" /><polyline clip-path="url(#clip293)" style="stroke:#000000; stroke-linecap:round; stroke-linejoin:round; stroke-width:2; stroke-opacity:0.1; fill:none" points="309.866,1418.77 2352.76,1418.77 "/>
<polyline clip-path="url(#clip293)" style="stroke:#000000; stroke-linecap:round; stroke-linejoin:round; stroke-width:2; stroke-opacity:0.1; fill:none" points="309.866,967.239 2352.76,967.239 "/>
<polyline clip-path="url(#clip293)" style="stroke:#000000; stroke-linecap:round; stroke-linejoin:round; stroke-width:2; stroke-opacity:0.1; fill:none" points="309.866,515.708 2352.76,515.708 "/>
<polyline clip-path="url(#clip293)" style="stroke:#000000; stroke-linecap:round; stroke-linejoin:round; stroke-width:2; stroke-opacity:0.1; fill:none" points="309.866,64.1766 2352.76,64.1766 "/>
<polyline clip-path="url(#clip290)" style="stroke:#000000; stroke-linecap:round; stroke-linejoin:round; stroke-width:4; stroke-opacity:1; fill:none" points="309.866,1423.18 309.866,47.2441 "/>
<polyline clip-path="url(#clip290)" style="stroke:#000000; stroke-linecap:round; stroke-linejoin:round; stroke-width:4; stroke-opacity:1; fill:none" points="309.866,1418.77 328.763,1418.77 "/>
<polyline clip-path="url(#clip290)" style="stroke:#000000; stroke-linecap:round; stroke-linejoin:round; stroke-width:4; stroke-opacity:1; fill:none" points="309.866,967.239 328.763,967.239 "/>
<polyline clip-path="url(#clip290)" style="stroke:#000000; stroke-linecap:round; stroke-linejoin:round; stroke-width:4; stroke-opacity:1; fill:none" points="309.866,515.708 328.763,515.708 "/>
<polyline clip-path="url(#clip290)" style="stroke:#000000; stroke-linecap:round; stroke-linejoin:round; stroke-width:4; stroke-opacity:1; fill:none" points="309.866,64.1766 328.763,64.1766 "/>
<path clip-path="url(#clip290)" d="M126.205 1404.57 Q122.593 1404.57 120.765 1408.13 Q118.959 1411.68 118.959 1418.8 Q118.959 1425.91 120.765 1429.48 Q122.593 1433.02 126.205 1433.02 Q129.839 1433.02 131.644 1429.48 Q133.473 1425.91 133.473 1418.8 Q133.473 1411.68 131.644 1408.13 Q129.839 1404.57 126.205 1404.57 M126.205 1400.87 Q132.015 1400.87 135.07 1405.47 Q138.149 1410.05 138.149 1418.8 Q138.149 1427.53 135.07 1432.14 Q132.015 1436.72 126.205 1436.72 Q120.394 1436.72 117.316 1432.14 Q114.26 1427.53 114.26 1418.8 Q114.26 1410.05 117.316 1405.47 Q120.394 1400.87 126.205 1400.87 Z" fill="#000000" fill-rule="evenodd" fill-opacity="1" /><path clip-path="url(#clip290)" d="M146.366 1430.17 L151.251 1430.17 L151.251 1436.05 L146.366 1436.05 L146.366 1430.17 Z" fill="#000000" fill-rule="evenodd" fill-opacity="1" /><path clip-path="url(#clip290)" d="M171.436 1404.57 Q167.825 1404.57 165.996 1408.13 Q164.19 1411.68 164.19 1418.8 Q164.19 1425.91 165.996 1429.48 Q167.825 1433.02 171.436 1433.02 Q175.07 1433.02 176.876 1429.48 Q178.704 1425.91 178.704 1418.8 Q178.704 1411.68 176.876 1408.13 Q175.07 1404.57 171.436 1404.57 M171.436 1400.87 Q177.246 1400.87 180.301 1405.47 Q183.38 1410.05 183.38 1418.8 Q183.38 1427.53 180.301 1432.14 Q177.246 1436.72 171.436 1436.72 Q165.626 1436.72 162.547 1432.14 Q159.491 1427.53 159.491 1418.8 Q159.491 1410.05 162.547 1405.47 Q165.626 1400.87 171.436 1400.87 Z" fill="#000000" fill-rule="evenodd" fill-opacity="1" /><path clip-path="url(#clip290)" d="M201.598 1404.57 Q197.987 1404.57 196.158 1408.13 Q194.352 1411.68 194.352 1418.8 Q194.352 1425.91 196.158 1429.48 Q197.987 1433.02 201.598 1433.02 Q205.232 1433.02 207.037 1429.48 Q208.866 1425.91 208.866 1418.8 Q208.866 1411.68 207.037 1408.13 Q205.232 1404.57 201.598 1404.57 M201.598 1400.87 Q207.408 1400.87 210.463 1405.47 Q213.542 1410.05 213.542 1418.8 Q213.542 1427.53 210.463 1432.14 Q207.408 1436.72 201.598 1436.72 Q195.787 1436.72 192.709 1432.14 Q189.653 1427.53 189.653 1418.8 Q189.653 1410.05 192.709 1405.47 Q195.787 1400.87 201.598 1400.87 Z" fill="#000000" fill-rule="evenodd" fill-opacity="1" /><path clip-path="url(#clip290)" d="M231.76 1404.57 Q228.148 1404.57 226.32 1408.13 Q224.514 1411.68 224.514 1418.8 Q224.514 1425.91 226.32 1429.48 Q228.148 1433.02 231.76 1433.02 Q235.394 1433.02 237.199 1429.48 Q239.028 1425.91 239.028 1418.8 Q239.028 1411.68 237.199 1408.13 Q235.394 1404.57 231.76 1404.57 M231.76 1400.87 Q237.57 1400.87 240.625 1405.47 Q243.704 1410.05 243.704 1418.8 Q243.704 1427.53 240.625 1432.14 Q237.57 1436.72 231.76 1436.72 Q225.949 1436.72 222.871 1432.14 Q219.815 1427.53 219.815 1418.8 Q219.815 1410.05 222.871 1405.47 Q225.949 1400.87 231.76 1400.87 Z" fill="#000000" fill-rule="evenodd" fill-opacity="1" /><path clip-path="url(#clip290)" d="M261.921 1404.57 Q258.31 1404.57 256.482 1408.13 Q254.676 1411.68 254.676 1418.8 Q254.676 1425.91 256.482 1429.48 Q258.31 1433.02 261.921 1433.02 Q265.556 1433.02 267.361 1429.48 Q269.19 1425.91 269.19 1418.8 Q269.19 1411.68 267.361 1408.13 Q265.556 1404.57 261.921 1404.57 M261.921 1400.87 Q267.732 1400.87 270.787 1405.47 Q273.866 1410.05 273.866 1418.8 Q273.866 1427.53 270.787 1432.14 Q267.732 1436.72 261.921 1436.72 Q256.111 1436.72 253.033 1432.14 Q249.977 1427.53 249.977 1418.8 Q249.977 1410.05 253.033 1405.47 Q256.111 1400.87 261.921 1400.87 Z" fill="#000000" fill-rule="evenodd" fill-opacity="1" /><path clip-path="url(#clip290)" d="M127.431 953.038 Q123.82 953.038 121.992 956.602 Q120.186 960.144 120.186 967.274 Q120.186 974.38 121.992 977.945 Q123.82 981.487 127.431 981.487 Q131.066 981.487 132.871 977.945 Q134.7 974.38 134.7 967.274 Q134.7 960.144 132.871 956.602 Q131.066 953.038 127.431 953.038 M127.431 949.334 Q133.242 949.334 136.297 953.94 Q139.376 958.524 139.376 967.274 Q139.376 976 136.297 980.607 Q133.242 985.19 127.431 985.19 Q121.621 985.19 118.543 980.607 Q115.487 976 115.487 967.274 Q115.487 958.524 118.543 953.94 Q121.621 949.334 127.431 949.334 Z" fill="#000000" fill-rule="evenodd" fill-opacity="1" /><path clip-path="url(#clip290)" d="M147.593 978.639 L152.478 978.639 L152.478 984.519 L147.593 984.519 L147.593 978.639 Z" fill="#000000" fill-rule="evenodd" fill-opacity="1" /><path clip-path="url(#clip290)" d="M172.663 953.038 Q169.052 953.038 167.223 956.602 Q165.417 960.144 165.417 967.274 Q165.417 974.38 167.223 977.945 Q169.052 981.487 172.663 981.487 Q176.297 981.487 178.102 977.945 Q179.931 974.38 179.931 967.274 Q179.931 960.144 178.102 956.602 Q176.297 953.038 172.663 953.038 M172.663 949.334 Q178.473 949.334 181.528 953.94 Q184.607 958.524 184.607 967.274 Q184.607 976 181.528 980.607 Q178.473 985.19 172.663 985.19 Q166.852 985.19 163.774 980.607 Q160.718 976 160.718 967.274 Q160.718 958.524 163.774 953.94 Q166.852 949.334 172.663 949.334 Z" fill="#000000" fill-rule="evenodd" fill-opacity="1" /><path clip-path="url(#clip290)" d="M202.824 953.038 Q199.213 953.038 197.385 956.602 Q195.579 960.144 195.579 967.274 Q195.579 974.38 197.385 977.945 Q199.213 981.487 202.824 981.487 Q206.459 981.487 208.264 977.945 Q210.093 974.38 210.093 967.274 Q210.093 960.144 208.264 956.602 Q206.459 953.038 202.824 953.038 M202.824 949.334 Q208.635 949.334 211.69 953.94 Q214.769 958.524 214.769 967.274 Q214.769 976 211.69 980.607 Q208.635 985.19 202.824 985.19 Q197.014 985.19 193.936 980.607 Q190.88 976 190.88 967.274 Q190.88 958.524 193.936 953.94 Q197.014 949.334 202.824 949.334 Z" fill="#000000" fill-rule="evenodd" fill-opacity="1" /><path clip-path="url(#clip290)" d="M232.986 953.038 Q229.375 953.038 227.547 956.602 Q225.741 960.144 225.741 967.274 Q225.741 974.38 227.547 977.945 Q229.375 981.487 232.986 981.487 Q236.621 981.487 238.426 977.945 Q240.255 974.38 240.255 967.274 Q240.255 960.144 238.426 956.602 Q236.621 953.038 232.986 953.038 M232.986 949.334 Q238.797 949.334 241.852 953.94 Q244.931 958.524 244.931 967.274 Q244.931 976 241.852 980.607 Q238.797 985.19 232.986 985.19 Q227.176 985.19 224.098 980.607 Q221.042 976 221.042 967.274 Q221.042 958.524 224.098 953.94 Q227.176 949.334 232.986 949.334 Z" fill="#000000" fill-rule="evenodd" fill-opacity="1" /><path clip-path="url(#clip290)" d="M253.958 980.584 L261.597 980.584 L261.597 954.218 L253.287 955.885 L253.287 951.626 L261.551 949.959 L266.227 949.959 L266.227 980.584 L273.866 980.584 L273.866 984.519 L253.958 984.519 L253.958 980.584 Z" fill="#000000" fill-rule="evenodd" fill-opacity="1" /><path clip-path="url(#clip290)" d="M127.802 501.506 Q124.191 501.506 122.362 505.071 Q120.556 508.613 120.556 515.742 Q120.556 522.849 122.362 526.414 Q124.191 529.955 127.802 529.955 Q131.436 529.955 133.242 526.414 Q135.07 522.849 135.07 515.742 Q135.07 508.613 133.242 505.071 Q131.436 501.506 127.802 501.506 M127.802 497.803 Q133.612 497.803 136.667 502.409 Q139.746 506.993 139.746 515.742 Q139.746 524.469 136.667 529.076 Q133.612 533.659 127.802 533.659 Q121.992 533.659 118.913 529.076 Q115.857 524.469 115.857 515.742 Q115.857 506.993 118.913 502.409 Q121.992 497.803 127.802 497.803 Z" fill="#000000" fill-rule="evenodd" fill-opacity="1" /><path clip-path="url(#clip290)" d="M147.964 527.108 L152.848 527.108 L152.848 532.988 L147.964 532.988 L147.964 527.108 Z" fill="#000000" fill-rule="evenodd" fill-opacity="1" /><path clip-path="url(#clip290)" d="M173.033 501.506 Q169.422 501.506 167.593 505.071 Q165.788 508.613 165.788 515.742 Q165.788 522.849 167.593 526.414 Q169.422 529.955 173.033 529.955 Q176.667 529.955 178.473 526.414 Q180.301 522.849 180.301 515.742 Q180.301 508.613 178.473 505.071 Q176.667 501.506 173.033 501.506 M173.033 497.803 Q178.843 497.803 181.899 502.409 Q184.977 506.993 184.977 515.742 Q184.977 524.469 181.899 529.076 Q178.843 533.659 173.033 533.659 Q167.223 533.659 164.144 529.076 Q161.089 524.469 161.089 515.742 Q161.089 506.993 164.144 502.409 Q167.223 497.803 173.033 497.803 Z" fill="#000000" fill-rule="evenodd" fill-opacity="1" /><path clip-path="url(#clip290)" d="M203.195 501.506 Q199.584 501.506 197.755 505.071 Q195.95 508.613 195.95 515.742 Q195.95 522.849 197.755 526.414 Q199.584 529.955 203.195 529.955 Q206.829 529.955 208.635 526.414 Q210.463 522.849 210.463 515.742 Q210.463 508.613 208.635 505.071 Q206.829 501.506 203.195 501.506 M203.195 497.803 Q209.005 497.803 212.061 502.409 Q215.139 506.993 215.139 515.742 Q215.139 524.469 212.061 529.076 Q209.005 533.659 203.195 533.659 Q197.385 533.659 194.306 529.076 Q191.25 524.469 191.25 515.742 Q191.25 506.993 194.306 502.409 Q197.385 497.803 203.195 497.803 Z" fill="#000000" fill-rule="evenodd" fill-opacity="1" /><path clip-path="url(#clip290)" d="M233.357 501.506 Q229.746 501.506 227.917 505.071 Q226.111 508.613 226.111 515.742 Q226.111 522.849 227.917 526.414 Q229.746 529.955 233.357 529.955 Q236.991 529.955 238.797 526.414 Q240.625 522.849 240.625 515.742 Q240.625 508.613 238.797 505.071 Q236.991 501.506 233.357 501.506 M233.357 497.803 Q239.167 497.803 242.222 502.409 Q245.301 506.993 245.301 515.742 Q245.301 524.469 242.222 529.076 Q239.167 533.659 233.357 533.659 Q227.547 533.659 224.468 529.076 Q221.412 524.469 221.412 515.742 Q221.412 506.993 224.468 502.409 Q227.547 497.803 233.357 497.803 Z" fill="#000000" fill-rule="evenodd" fill-opacity="1" /><path clip-path="url(#clip290)" d="M257.546 529.053 L273.866 529.053 L273.866 532.988 L251.921 532.988 L251.921 529.053 Q254.583 526.298 259.167 521.668 Q263.773 517.016 264.954 515.673 Q267.199 513.15 268.079 511.414 Q268.982 509.655 268.982 507.965 Q268.982 505.21 267.037 503.474 Q265.116 501.738 262.014 501.738 Q259.815 501.738 257.361 502.502 Q254.931 503.266 252.153 504.817 L252.153 500.094 Q254.977 498.96 257.431 498.381 Q259.884 497.803 261.921 497.803 Q267.292 497.803 270.486 500.488 Q273.681 503.173 273.681 507.664 Q273.681 509.793 272.87 511.715 Q272.083 513.613 269.977 516.205 Q269.398 516.877 266.296 520.094 Q263.195 523.289 257.546 529.053 Z" fill="#000000" fill-rule="evenodd" fill-opacity="1" /><path clip-path="url(#clip290)" d="M126.853 49.9753 Q123.242 49.9753 121.413 53.5401 Q119.607 57.0817 119.607 64.2113 Q119.607 71.3178 121.413 74.8826 Q123.242 78.4242 126.853 78.4242 Q130.487 78.4242 132.292 74.8826 Q134.121 71.3178 134.121 64.2113 Q134.121 57.0817 132.292 53.5401 Q130.487 49.9753 126.853 49.9753 M126.853 46.2716 Q132.663 46.2716 135.718 50.8781 Q138.797 55.4614 138.797 64.2113 Q138.797 72.9381 135.718 77.5446 Q132.663 82.1279 126.853 82.1279 Q121.043 82.1279 117.964 77.5446 Q114.908 72.9381 114.908 64.2113 Q114.908 55.4614 117.964 50.8781 Q121.043 46.2716 126.853 46.2716 Z" fill="#000000" fill-rule="evenodd" fill-opacity="1" /><path clip-path="url(#clip290)" d="M147.015 75.577 L151.899 75.577 L151.899 81.4566 L147.015 81.4566 L147.015 75.577 Z" fill="#000000" fill-rule="evenodd" fill-opacity="1" /><path clip-path="url(#clip290)" d="M172.084 49.9753 Q168.473 49.9753 166.644 53.5401 Q164.839 57.0817 164.839 64.2113 Q164.839 71.3178 166.644 74.8826 Q168.473 78.4242 172.084 78.4242 Q175.718 78.4242 177.524 74.8826 Q179.352 71.3178 179.352 64.2113 Q179.352 57.0817 177.524 53.5401 Q175.718 49.9753 172.084 49.9753 M172.084 46.2716 Q177.894 46.2716 180.95 50.8781 Q184.028 55.4614 184.028 64.2113 Q184.028 72.9381 180.95 77.5446 Q177.894 82.1279 172.084 82.1279 Q166.274 82.1279 163.195 77.5446 Q160.14 72.9381 160.14 64.2113 Q160.14 55.4614 163.195 50.8781 Q166.274 46.2716 172.084 46.2716 Z" fill="#000000" fill-rule="evenodd" fill-opacity="1" /><path clip-path="url(#clip290)" d="M202.246 49.9753 Q198.635 49.9753 196.806 53.5401 Q195 57.0817 195 64.2113 Q195 71.3178 196.806 74.8826 Q198.635 78.4242 202.246 78.4242 Q205.88 78.4242 207.686 74.8826 Q209.514 71.3178 209.514 64.2113 Q209.514 57.0817 207.686 53.5401 Q205.88 49.9753 202.246 49.9753 M202.246 46.2716 Q208.056 46.2716 211.111 50.8781 Q214.19 55.4614 214.19 64.2113 Q214.19 72.9381 211.111 77.5446 Q208.056 82.1279 202.246 82.1279 Q196.436 82.1279 193.357 77.5446 Q190.301 72.9381 190.301 64.2113 Q190.301 55.4614 193.357 50.8781 Q196.436 46.2716 202.246 46.2716 Z" fill="#000000" fill-rule="evenodd" fill-opacity="1" /><path clip-path="url(#clip290)" d="M232.408 49.9753 Q228.797 49.9753 226.968 53.5401 Q225.162 57.0817 225.162 64.2113 Q225.162 71.3178 226.968 74.8826 Q228.797 78.4242 232.408 78.4242 Q236.042 78.4242 237.847 74.8826 Q239.676 71.3178 239.676 64.2113 Q239.676 57.0817 237.847 53.5401 Q236.042 49.9753 232.408 49.9753 M232.408 46.2716 Q238.218 46.2716 241.273 50.8781 Q244.352 55.4614 244.352 64.2113 Q244.352 72.9381 241.273 77.5446 Q238.218 82.1279 232.408 82.1279 Q226.598 82.1279 223.519 77.5446 Q220.463 72.9381 220.463 64.2113 Q220.463 55.4614 223.519 50.8781 Q226.598 46.2716 232.408 46.2716 Z" fill="#000000" fill-rule="evenodd" fill-opacity="1" /><path clip-path="url(#clip290)" d="M266.736 62.8224 Q270.093 63.54 271.968 65.8085 Q273.866 68.077 273.866 71.4103 Q273.866 76.5261 270.347 79.327 Q266.829 82.1279 260.347 82.1279 Q258.171 82.1279 255.857 81.6881 Q253.565 81.2714 251.111 80.4149 L251.111 75.9011 Q253.056 77.0353 255.371 77.614 Q257.685 78.1927 260.208 78.1927 Q264.607 78.1927 266.898 76.4566 Q269.213 74.7205 269.213 71.4103 Q269.213 68.3548 267.06 66.6419 Q264.931 64.9058 261.111 64.9058 L257.083 64.9058 L257.083 61.0632 L261.296 61.0632 Q264.745 61.0632 266.574 59.6974 Q268.403 58.3086 268.403 55.716 Q268.403 53.054 266.505 51.6419 Q264.63 50.2068 261.111 50.2068 Q259.19 50.2068 256.991 50.6234 Q254.792 51.0401 252.153 51.9197 L252.153 47.7531 Q254.815 47.0123 257.13 46.642 Q259.468 46.2716 261.528 46.2716 Q266.852 46.2716 269.954 48.7021 Q273.056 51.1095 273.056 55.2299 Q273.056 58.1002 271.412 60.091 Q269.769 62.0585 266.736 62.8224 Z" fill="#000000" fill-rule="evenodd" fill-opacity="1" /><path clip-path="url(#clip290)" d="M18.8696 756.909 Q19.3527 756.909 20.0613 757.264 Q20.7054 757.586 21.124 758.262 Q21.5105 758.906 21.5105 759.615 Q21.5105 759.84 21.3817 760.355 Q20.9952 761.225 20.1257 762.578 Q19.2561 763.93 18.7086 765.154 Q18.1289 766.346 18.0645 767.666 Q18.0645 768.825 18.4832 769.792 Q18.9663 770.661 19.9968 771.241 Q20.4155 771.499 21.124 771.499 Q22.1224 771.499 23.4429 770.951 Q24.7633 770.404 26.4702 769.276 Q28.1771 768.117 29.3365 767.28 Q30.4637 766.442 32.3317 764.993 Q32.4927 764.864 32.5893 764.8 Q32.6537 764.735 32.8148 764.639 Q32.9436 764.542 33.0402 764.445 Q36.8727 761.386 41.0917 760.613 Q42.5732 760.42 44.119 760.42 Q47.2108 760.42 50.8501 761.354 Q54.1673 762.159 57.0336 763.866 Q59.8677 765.573 61.7356 768.149 Q63.6036 770.693 63.6036 773.463 Q63.6036 776.201 62.412 778.455 Q61.1881 780.709 59.0948 782.062 Q56.3251 783.898 52.4926 783.898 Q50.3348 783.898 48.499 783.383 Q45.5683 782.674 42.863 780.999 Q40.1577 779.325 38.0643 776.909 Q34.9726 773.238 34.103 769.244 Q30.5604 771.112 27.8229 772.207 Q25.0532 773.27 22.7021 773.27 Q20.641 773.27 19.3205 772.497 Q17.9035 771.821 17.0983 770.436 Q16.3898 769.276 16.0355 767.602 Q15.9067 766.571 15.9067 765.895 Q15.9067 763.608 17.1627 758.294 Q17.4848 756.909 18.8696 756.909 M46.7599 764.961 Q44.7954 764.961 43.4749 765.283 Q40.2543 765.895 35.8099 768.342 L35.4879 768.536 Q36.3896 771.66 39.1271 774.204 Q42.4765 777.392 48.8211 779.003 Q52.3637 779.872 54.3605 779.872 Q56.5183 779.872 58.3862 779.067 Q60.1253 778.294 61.1237 776.845 Q62.1221 775.363 62.1221 773.399 Q62.1221 771.917 61.2848 770.629 Q60.4152 769.341 58.9015 768.407 Q57.3878 767.473 55.7453 766.829 Q54.0706 766.152 52.1061 765.637 Q49.4652 764.961 46.7599 764.961 Z" fill="#000000" fill-rule="evenodd" fill-opacity="1" /><path clip-path="url(#clip290)" d="M65.231 731.337 Q66.4258 731.337 67.1923 732.126 Q67.9588 732.893 67.9588 733.885 Q67.9588 734.741 67.4629 735.192 Q66.9669 735.643 66.3356 735.643 Q65.4339 735.643 64.6899 734.944 Q63.946 734.245 63.7882 733.231 Q63.2471 733.975 63.2471 735.17 Q63.2471 737.131 64.7576 738.867 Q65.4564 739.634 66.7414 740.468 Q68.0039 741.302 68.545 741.46 L74.5642 742.925 Q75.2406 743.06 78.4869 743.894 Q81.7107 744.706 81.846 744.774 Q82.4772 744.999 82.8154 745.495 Q83.1535 745.991 83.1535 746.487 Q83.1535 747.051 82.8154 747.434 Q82.4772 747.817 81.8911 747.817 Q81.8009 747.817 81.4627 747.749 Q81.1246 747.682 80.6512 747.569 Q80.1777 747.456 79.9072 747.411 L69.2438 744.729 Q67.305 744.233 66.6964 744.12 Q66.0651 743.985 65.3662 743.985 Q64.1489 743.985 63.698 744.368 Q63.2471 744.751 63.2471 745.427 Q63.2471 746.6 64.6448 747.366 Q66.0426 748.133 68.7479 748.786 Q69.4918 748.989 69.6496 749.125 Q69.8074 749.237 69.8074 749.575 Q69.7849 750.139 69.334 750.139 Q69.2213 750.139 68.4999 749.959 Q67.7559 749.778 66.6738 749.44 Q65.5691 749.08 64.8703 748.696 Q64.3969 748.471 64.0812 748.268 Q63.7656 748.065 63.2696 747.659 Q62.7737 747.253 62.5031 746.645 Q62.2326 746.036 62.2326 745.292 Q62.2326 743.669 63.2246 742.519 Q64.2165 741.347 65.772 741.076 Q64.9605 740.513 64.2616 739.814 Q63.5402 739.115 62.8864 737.83 Q62.2326 736.545 62.2326 735.17 Q62.2326 733.456 63.1118 732.397 Q63.9685 731.337 65.231 731.337 Z" fill="#000000" fill-rule="evenodd" fill-opacity="1" /><path clip-path="url(#clip290)" d="M77.2921 710.927 Q77.495 710.746 77.6979 710.746 Q77.9008 710.746 78.4869 711.197 Q79.0731 711.626 79.8621 712.55 Q80.6512 713.474 81.3951 714.669 Q82.1391 715.864 82.635 717.622 Q83.1535 719.381 83.1535 721.229 Q83.1535 724.543 80.7864 726.527 Q78.4193 728.489 74.7897 728.489 Q72.4676 728.489 70.4161 727.722 Q68.3421 726.956 66.8767 725.716 Q65.4113 724.453 64.3518 722.875 Q63.2696 721.274 62.7511 719.606 Q62.2326 717.938 62.2326 716.382 Q62.2326 714.105 63.3824 712.775 Q64.5321 711.445 66.1553 711.445 Q66.5385 711.445 67.012 711.558 Q67.4854 711.648 68.2294 711.964 Q68.9733 712.257 69.7173 713.023 Q70.4387 713.79 70.9121 714.917 Q71.9717 717.419 71.9717 721.973 L71.9717 724.431 Q74.8799 725.152 76.7736 725.152 Q77.5175 725.152 78.284 725.017 Q79.028 724.882 79.9748 724.521 Q80.9217 724.138 81.5304 723.281 Q82.1165 722.402 82.1165 721.139 Q82.1165 720.733 82.094 720.305 Q82.0714 719.854 81.8234 718.727 Q81.5755 717.577 81.1471 716.563 Q80.7188 715.548 79.7945 714.263 Q78.8476 712.956 77.5626 711.919 Q77.0892 711.558 77.0892 711.31 Q77.0892 711.107 77.2921 710.927 M66.1553 712.978 Q64.9154 712.978 64.0812 713.903 Q63.2471 714.804 63.2471 716.382 Q63.2471 716.878 63.3598 717.487 Q63.4725 718.096 63.946 719.11 Q64.4194 720.102 65.2084 720.981 Q65.9749 721.861 67.4854 722.74 Q68.9733 723.619 70.9572 724.138 L70.9572 722.244 Q70.9572 721.59 70.9572 721.117 Q70.9346 720.643 70.8445 719.606 Q70.7543 718.547 70.5965 717.78 Q70.4161 717.014 70.0554 716.044 Q69.6947 715.075 69.2213 714.466 Q68.7253 713.835 67.9363 713.407 Q67.1472 712.978 66.1553 712.978 Z" fill="#000000" fill-rule="evenodd" fill-opacity="1" /><path clip-path="url(#clip290)" d="M51.0958 697.312 L77.7881 703.963 Q78.8476 704.233 79.9974 704.233 Q82.1165 704.233 82.1165 702.836 Q82.1165 702.182 81.6882 701.641 Q81.2373 701.1 80.3581 700.694 Q79.4563 700.266 78.5996 699.995 Q77.743 699.702 76.4129 699.341 Q75.8943 699.229 75.7365 699.116 Q75.5787 699.003 75.5787 698.688 Q75.5787 698.124 76.0296 698.124 Q78.8025 698.688 80.561 699.522 Q83.1535 700.739 83.1535 702.994 Q83.1535 704.684 81.9813 705.947 Q80.7864 707.187 78.8927 707.187 Q78.1713 707.187 77.3146 706.961 L54.2295 701.145 L53.3277 700.987 Q53.0797 700.987 52.9444 701.077 Q52.8092 701.167 52.6739 701.709 Q52.5387 702.227 52.5387 703.264 Q52.5387 703.692 52.5161 703.895 Q52.4936 704.076 52.3808 704.256 Q52.2681 704.414 52.0201 704.414 Q51.6143 704.414 51.3889 704.256 Q51.1635 704.076 51.1184 703.94 Q51.0733 703.805 51.0507 703.535 Q51.0282 703.151 50.9155 701.866 Q50.7802 700.581 50.69 699.477 Q50.5999 698.372 50.5999 697.899 Q50.5999 697.628 50.7351 697.493 Q50.8478 697.335 50.9831 697.312 L51.0958 697.312 Z" fill="#000000" fill-rule="evenodd" fill-opacity="1" /><polyline clip-path="url(#clip293)" style="stroke:#3da44d; stroke-linecap:round; stroke-linejoin:round; stroke-width:4; stroke-opacity:1; fill:none" points="309.866,1243.49 480.107,497.759 650.347,386.114 820.588,149.087 990.829,86.1857 1161.07,302.423 1331.31,641.55 1501.55,939.857 1671.79,1033.14 1842.03,1063.98 2012.27,1261.12 2182.52,1375.73 2352.76,1384.24 "/>
<path clip-path="url(#clip290)" d="M1540.56 196.789 L2284.66 196.789 L2284.66 93.1086 L1540.56 93.1086  Z" fill="#ffffff" fill-rule="evenodd" fill-opacity="1"/>
<polyline clip-path="url(#clip290)" style="stroke:#000000; stroke-linecap:round; stroke-linejoin:round; stroke-width:4; stroke-opacity:1; fill:none" points="1540.56,196.789 2284.66,196.789 2284.66,93.1086 1540.56,93.1086 1540.56,196.789 "/>
<polyline clip-path="url(#clip290)" style="stroke:#3da44d; stroke-linecap:round; stroke-linejoin:round; stroke-width:4; stroke-opacity:1; fill:none" points="1563.26,144.949 1699.45,144.949 "/>
<path clip-path="url(#clip290)" d="M1750.02 130.331 L1750.02 135.261 Q1747.66 133.062 1744.97 131.974 Q1742.31 130.886 1739.3 130.886 Q1733.38 130.886 1730.23 134.52 Q1727.08 138.132 1727.08 144.983 Q1727.08 151.812 1730.23 155.446 Q1733.38 159.057 1739.3 159.057 Q1742.31 159.057 1744.97 157.969 Q1747.66 156.881 1750.02 154.682 L1750.02 159.567 Q1747.57 161.233 1744.81 162.067 Q1742.08 162.9 1739.02 162.9 Q1731.18 162.9 1726.66 158.108 Q1722.15 153.293 1722.15 144.983 Q1722.15 136.65 1726.66 131.858 Q1731.18 127.044 1739.02 127.044 Q1742.13 127.044 1744.86 127.877 Q1747.61 128.687 1750.02 130.331 Z" fill="#000000" fill-rule="evenodd" fill-opacity="1" /><path clip-path="url(#clip290)" d="M1783.12 130.331 L1783.12 135.261 Q1780.76 133.062 1778.07 131.974 Q1775.41 130.886 1772.4 130.886 Q1766.48 130.886 1763.33 134.52 Q1760.18 138.132 1760.18 144.983 Q1760.18 151.812 1763.33 155.446 Q1766.48 159.057 1772.4 159.057 Q1775.41 159.057 1778.07 157.969 Q1780.76 156.881 1783.12 154.682 L1783.12 159.567 Q1780.67 161.233 1777.91 162.067 Q1775.18 162.9 1772.13 162.9 Q1764.28 162.9 1759.76 158.108 Q1755.25 153.293 1755.25 144.983 Q1755.25 136.65 1759.76 131.858 Q1764.28 127.044 1772.13 127.044 Q1775.23 127.044 1777.96 127.877 Q1780.71 128.687 1783.12 130.331 Z" fill="#000000" fill-rule="evenodd" fill-opacity="1" /><path clip-path="url(#clip290)" d="M1788 147.344 L1800.48 147.344 L1800.48 151.141 L1788 151.141 L1788 147.344 Z" fill="#000000" fill-rule="evenodd" fill-opacity="1" /><path clip-path="url(#clip290)" d="M1811.48 128.942 L1811.48 136.303 L1820.25 136.303 L1820.25 139.613 L1811.48 139.613 L1811.48 153.687 Q1811.48 156.858 1812.33 157.761 Q1813.21 158.664 1815.88 158.664 L1820.25 158.664 L1820.25 162.229 L1815.88 162.229 Q1810.94 162.229 1809.07 160.4 Q1807.19 158.548 1807.19 153.687 L1807.19 139.613 L1804.07 139.613 L1804.07 136.303 L1807.19 136.303 L1807.19 128.942 L1811.48 128.942 Z" fill="#000000" fill-rule="evenodd" fill-opacity="1" /><path clip-path="url(#clip290)" d="M1826.04 127.669 L1830.71 127.669 L1830.71 141.835 L1847.7 141.835 L1847.7 127.669 L1852.38 127.669 L1852.38 162.229 L1847.7 162.229 L1847.7 145.77 L1830.71 145.77 L1830.71 162.229 L1826.04 162.229 L1826.04 127.669 Z" fill="#000000" fill-rule="evenodd" fill-opacity="1" /><path clip-path="url(#clip290)" d="M1875.71 130.84 Q1870.62 130.84 1867.61 134.636 Q1864.62 138.432 1864.62 144.983 Q1864.62 151.511 1867.61 155.307 Q1870.62 159.104 1875.71 159.104 Q1880.81 159.104 1883.77 155.307 Q1886.75 151.511 1886.75 144.983 Q1886.75 138.432 1883.77 134.636 Q1880.81 130.84 1875.71 130.84 M1875.71 127.044 Q1882.98 127.044 1887.33 131.928 Q1891.68 136.789 1891.68 144.983 Q1891.68 153.155 1887.33 158.039 Q1882.98 162.9 1875.71 162.9 Q1868.42 162.9 1864.05 158.039 Q1859.69 153.178 1859.69 144.983 Q1859.69 136.789 1864.05 131.928 Q1868.42 127.044 1875.71 127.044 Z" fill="#000000" fill-rule="evenodd" fill-opacity="1" /><path clip-path="url(#clip290)" d="M1919.72 128.803 L1919.72 133.363 Q1917.06 132.09 1914.69 131.465 Q1912.33 130.84 1910.13 130.84 Q1906.31 130.84 1904.23 132.321 Q1902.17 133.803 1902.17 136.534 Q1902.17 138.826 1903.54 140.007 Q1904.93 141.164 1908.77 141.882 L1911.59 142.46 Q1916.82 143.456 1919.3 145.979 Q1921.8 148.479 1921.8 152.692 Q1921.8 157.715 1918.42 160.307 Q1915.06 162.9 1908.56 162.9 Q1906.11 162.9 1903.33 162.344 Q1900.57 161.789 1897.61 160.701 L1897.61 155.886 Q1900.46 157.483 1903.19 158.293 Q1905.92 159.104 1908.56 159.104 Q1912.56 159.104 1914.74 157.53 Q1916.92 155.956 1916.92 153.039 Q1916.92 150.493 1915.34 149.057 Q1913.79 147.622 1910.23 146.905 L1907.38 146.349 Q1902.15 145.307 1899.81 143.085 Q1897.47 140.863 1897.47 136.905 Q1897.47 132.321 1900.69 129.682 Q1903.93 127.044 1909.6 127.044 Q1912.03 127.044 1914.56 127.483 Q1917.08 127.923 1919.72 128.803 Z" fill="#000000" fill-rule="evenodd" fill-opacity="1" /><path clip-path="url(#clip290)" d="M1938 162.229 L1924.81 127.669 L1929.69 127.669 L1940.64 156.766 L1951.62 127.669 L1956.48 127.669 L1943.31 162.229 L1938 162.229 Z" fill="#000000" fill-rule="evenodd" fill-opacity="1" /><path clip-path="url(#clip290)" d="M1966.2 131.511 L1966.2 158.386 L1971.85 158.386 Q1979 158.386 1982.31 155.145 Q1985.64 151.905 1985.64 144.914 Q1985.64 137.969 1982.31 134.752 Q1979 131.511 1971.85 131.511 L1966.2 131.511 M1961.52 127.669 L1971.13 127.669 Q1981.18 127.669 1985.87 131.858 Q1990.57 136.025 1990.57 144.914 Q1990.57 153.849 1985.85 158.039 Q1981.13 162.229 1971.13 162.229 L1961.52 162.229 L1961.52 127.669 Z" fill="#000000" fill-rule="evenodd" fill-opacity="1" /><path clip-path="url(#clip290)" d="M2023.14 126.257 Q2020.04 131.581 2018.54 136.789 Q2017.03 141.997 2017.03 147.344 Q2017.03 152.692 2018.54 157.946 Q2020.06 163.178 2023.14 168.479 L2019.44 168.479 Q2015.97 163.039 2014.23 157.784 Q2012.52 152.53 2012.52 147.344 Q2012.52 142.182 2014.23 136.951 Q2015.94 131.72 2019.44 126.257 L2023.14 126.257 Z" fill="#000000" fill-rule="evenodd" fill-opacity="1" /><path clip-path="url(#clip290)" d="M2035.53 158.34 L2035.53 172.09 L2031.24 172.09 L2031.24 136.303 L2035.53 136.303 L2035.53 140.238 Q2036.87 137.923 2038.91 136.812 Q2040.97 135.678 2043.81 135.678 Q2048.54 135.678 2051.48 139.428 Q2054.44 143.178 2054.44 149.289 Q2054.44 155.4 2051.48 159.15 Q2048.54 162.9 2043.81 162.9 Q2040.97 162.9 2038.91 161.789 Q2036.87 160.655 2035.53 158.34 M2050.02 149.289 Q2050.02 144.59 2048.07 141.928 Q2046.15 139.243 2042.77 139.243 Q2039.39 139.243 2037.45 141.928 Q2035.53 144.59 2035.53 149.289 Q2035.53 153.988 2037.45 156.673 Q2039.39 159.335 2042.77 159.335 Q2046.15 159.335 2048.07 156.673 Q2050.02 153.988 2050.02 149.289 Z" fill="#000000" fill-rule="evenodd" fill-opacity="1" /><path clip-path="url(#clip290)" d="M2076.52 140.284 Q2075.8 139.868 2074.95 139.682 Q2074.11 139.474 2073.1 139.474 Q2069.48 139.474 2067.54 141.835 Q2065.62 144.173 2065.62 148.571 L2065.62 162.229 L2061.34 162.229 L2061.34 136.303 L2065.62 136.303 L2065.62 140.331 Q2066.96 137.969 2069.11 136.835 Q2071.27 135.678 2074.35 135.678 Q2074.79 135.678 2075.32 135.747 Q2075.85 135.794 2076.5 135.909 L2076.52 140.284 Z" fill="#000000" fill-rule="evenodd" fill-opacity="1" /><path clip-path="url(#clip290)" d="M2089.99 139.289 Q2086.57 139.289 2084.58 141.974 Q2082.59 144.636 2082.59 149.289 Q2082.59 153.942 2084.55 156.627 Q2086.55 159.289 2089.99 159.289 Q2093.4 159.289 2095.39 156.604 Q2097.38 153.918 2097.38 149.289 Q2097.38 144.682 2095.39 141.997 Q2093.4 139.289 2089.99 139.289 M2089.99 135.678 Q2095.55 135.678 2098.72 139.289 Q2101.89 142.9 2101.89 149.289 Q2101.89 155.655 2098.72 159.289 Q2095.55 162.9 2089.99 162.9 Q2084.42 162.9 2081.24 159.289 Q2078.1 155.655 2078.1 149.289 Q2078.1 142.9 2081.24 139.289 Q2084.42 135.678 2089.99 135.678 Z" fill="#000000" fill-rule="evenodd" fill-opacity="1" /><path clip-path="url(#clip290)" d="M2113.07 158.34 L2113.07 172.09 L2108.79 172.09 L2108.79 136.303 L2113.07 136.303 L2113.07 140.238 Q2114.42 137.923 2116.45 136.812 Q2118.51 135.678 2121.36 135.678 Q2126.08 135.678 2129.02 139.428 Q2131.98 143.178 2131.98 149.289 Q2131.98 155.4 2129.02 159.15 Q2126.08 162.9 2121.36 162.9 Q2118.51 162.9 2116.45 161.789 Q2114.42 160.655 2113.07 158.34 M2127.56 149.289 Q2127.56 144.59 2125.62 141.928 Q2123.7 139.243 2120.32 139.243 Q2116.94 139.243 2114.99 141.928 Q2113.07 144.59 2113.07 149.289 Q2113.07 153.988 2114.99 156.673 Q2116.94 159.335 2120.32 159.335 Q2123.7 159.335 2125.62 156.673 Q2127.56 153.988 2127.56 149.289 Z" fill="#000000" fill-rule="evenodd" fill-opacity="1" /><path clip-path="url(#clip290)" d="M2149.09 139.289 Q2145.67 139.289 2143.67 141.974 Q2141.68 144.636 2141.68 149.289 Q2141.68 153.942 2143.65 156.627 Q2145.64 159.289 2149.09 159.289 Q2152.49 159.289 2154.48 156.604 Q2156.48 153.918 2156.48 149.289 Q2156.48 144.682 2154.48 141.997 Q2152.49 139.289 2149.09 139.289 M2149.09 135.678 Q2154.65 135.678 2157.82 139.289 Q2160.99 142.9 2160.99 149.289 Q2160.99 155.655 2157.82 159.289 Q2154.65 162.9 2149.09 162.9 Q2143.51 162.9 2140.34 159.289 Q2137.19 155.655 2137.19 149.289 Q2137.19 142.9 2140.34 139.289 Q2143.51 135.678 2149.09 135.678 Z" fill="#000000" fill-rule="evenodd" fill-opacity="1" /><path clip-path="url(#clip290)" d="M2184.58 137.067 L2184.58 141.094 Q2182.77 140.169 2180.83 139.706 Q2178.88 139.243 2176.8 139.243 Q2173.63 139.243 2172.03 140.215 Q2170.46 141.187 2170.46 143.131 Q2170.46 144.613 2171.59 145.469 Q2172.73 146.303 2176.15 147.067 L2177.61 147.391 Q2182.15 148.363 2184.04 150.145 Q2185.97 151.905 2185.97 155.076 Q2185.97 158.687 2183.1 160.793 Q2180.25 162.9 2175.25 162.9 Q2173.16 162.9 2170.9 162.483 Q2168.65 162.09 2166.15 161.28 L2166.15 156.881 Q2168.51 158.108 2170.8 158.733 Q2173.1 159.335 2175.34 159.335 Q2178.35 159.335 2179.97 158.317 Q2181.59 157.275 2181.59 155.4 Q2181.59 153.664 2180.41 152.738 Q2179.25 151.812 2175.29 150.956 L2173.81 150.608 Q2169.85 149.775 2168.1 148.062 Q2166.34 146.326 2166.34 143.317 Q2166.34 139.659 2168.93 137.669 Q2171.52 135.678 2176.29 135.678 Q2178.65 135.678 2180.73 136.025 Q2182.82 136.372 2184.58 137.067 Z" fill="#000000" fill-rule="evenodd" fill-opacity="1" /><path clip-path="url(#clip290)" d="M2214.92 148.201 L2214.92 150.284 L2195.34 150.284 Q2195.62 154.682 2197.98 156.997 Q2200.36 159.289 2204.6 159.289 Q2207.05 159.289 2209.35 158.687 Q2211.66 158.085 2213.93 156.881 L2213.93 160.909 Q2211.64 161.881 2209.23 162.391 Q2206.82 162.9 2204.35 162.9 Q2198.14 162.9 2194.51 159.289 Q2190.9 155.678 2190.9 149.52 Q2190.9 143.155 2194.32 139.428 Q2197.77 135.678 2203.6 135.678 Q2208.84 135.678 2211.87 139.057 Q2214.92 142.414 2214.92 148.201 M2210.66 146.951 Q2210.62 143.456 2208.7 141.372 Q2206.8 139.289 2203.65 139.289 Q2200.09 139.289 2197.93 141.303 Q2195.8 143.317 2195.48 146.974 L2210.66 146.951 Z" fill="#000000" fill-rule="evenodd" fill-opacity="1" /><path clip-path="url(#clip290)" d="M2238.97 140.238 L2238.97 126.21 L2243.23 126.21 L2243.23 162.229 L2238.97 162.229 L2238.97 158.34 Q2237.63 160.655 2235.57 161.789 Q2233.54 162.9 2230.66 162.9 Q2225.97 162.9 2223 159.15 Q2220.06 155.4 2220.06 149.289 Q2220.06 143.178 2223 139.428 Q2225.97 135.678 2230.66 135.678 Q2233.54 135.678 2235.57 136.812 Q2237.63 137.923 2238.97 140.238 M2224.46 149.289 Q2224.46 153.988 2226.38 156.673 Q2228.33 159.335 2231.71 159.335 Q2235.09 159.335 2237.03 156.673 Q2238.97 153.988 2238.97 149.289 Q2238.97 144.59 2237.03 141.928 Q2235.09 139.243 2231.71 139.243 Q2228.33 139.243 2226.38 141.928 Q2224.46 144.59 2224.46 149.289 Z" fill="#000000" fill-rule="evenodd" fill-opacity="1" /><path clip-path="url(#clip290)" d="M2251.34 126.257 L2255.04 126.257 Q2258.51 131.72 2260.22 136.951 Q2261.96 142.182 2261.96 147.344 Q2261.96 152.53 2260.22 157.784 Q2258.51 163.039 2255.04 168.479 L2251.34 168.479 Q2254.41 163.178 2255.92 157.946 Q2257.45 152.692 2257.45 147.344 Q2257.45 141.997 2255.92 136.789 Q2254.41 131.581 2251.34 126.257 Z" fill="#000000" fill-rule="evenodd" fill-opacity="1" /></svg>
