<?xml version="1.0" encoding="utf-8"?>
<svg xmlns="http://www.w3.org/2000/svg" xmlns:xlink="http://www.w3.org/1999/xlink" width="600" height="400" viewBox="0 0 2400 1600">
<defs>
  <clipPath id="clip410">
    <rect x="0" y="0" width="2400" height="1600"/>
  </clipPath>
</defs>
<path clip-path="url(#clip410)" d="M0 1600 L2400 1600 L2400 0 L0 0  Z" fill="#ffffff" fill-rule="evenodd" fill-opacity="1"/>
<defs>
  <clipPath id="clip411">
    <rect x="480" y="0" width="1681" height="1600"/>
  </clipPath>
</defs>
<defs>
  <clipPath id="clip412">
    <rect x="252" y="47" width="2101" height="1377"/>
  </clipPath>
</defs>
<path clip-path="url(#clip410)" d="M310.352 1423.18 L2352.76 1423.18 L2352.76 47.2441 L310.352 47.2441  Z" fill="#ffffff" fill-rule="evenodd" fill-opacity="1"/>
<defs>
  <clipPath id="clip413">
    <rect x="310" y="47" width="2043" height="1377"/>
  </clipPath>
</defs>
<polyline clip-path="url(#clip413)" style="stroke:#000000; stroke-linecap:round; stroke-linejoin:round; stroke-width:2; stroke-opacity:0.1; fill:none" points="565.652,1423.18 565.652,47.2441 "/>
<polyline clip-path="url(#clip413)" style="stroke:#000000; stroke-linecap:round; stroke-linejoin:round; stroke-width:2; stroke-opacity:0.1; fill:none" points="1076.25,1423.18 1076.25,47.2441 "/>
<polyline clip-path="url(#clip413)" style="stroke:#000000; stroke-linecap:round; stroke-linejoin:round; stroke-width:2; stroke-opacity:0.1; fill:none" points="1586.85,1423.18 1586.85,47.2441 "/>
<polyline clip-path="url(#clip413)" style="stroke:#000000; stroke-linecap:round; stroke-linejoin:round; stroke-width:2; stroke-opacity:0.1; fill:none" points="2097.46,1423.18 2097.46,47.2441 "/>
<polyline clip-path="url(#clip410)" style="stroke:#000000; stroke-linecap:round; stroke-linejoin:round; stroke-width:4; stroke-opacity:1; fill:none" points="310.352,1423.18 2352.76,1423.18 "/>
<polyline clip-path="url(#clip410)" style="stroke:#000000; stroke-linecap:round; stroke-linejoin:round; stroke-width:4; stroke-opacity:1; fill:none" points="565.652,1423.18 565.652,1404.28 "/>
<polyline clip-path="url(#clip410)" style="stroke:#000000; stroke-linecap:round; stroke-linejoin:round; stroke-width:4; stroke-opacity:1; fill:none" points="1076.25,1423.18 1076.25,1404.28 "/>
<polyline clip-path="url(#clip410)" style="stroke:#000000; stroke-linecap:round; stroke-linejoin:round; stroke-width:4; stroke-opacity:1; fill:none" points="1586.85,1423.18 1586.85,1404.28 "/>
<polyline clip-path="url(#clip410)" style="stroke:#000000; stroke-linecap:round; stroke-linejoin:round; stroke-width:4; stroke-opacity:1; fill:none" points="2097.46,1423.18 2097.46,1404.28 "/>
<path clip-path="url(#clip410)" d="M560.305 1481.64 L576.625 1481.64 L576.625 1485.58 L554.68 1485.58 L554.68 1481.64 Q557.342 1478.89 561.926 1474.26 Q566.532 1469.61 567.713 1468.27 Q569.958 1465.74 570.838 1464.01 Q571.74 1462.25 571.74 1460.56 Q571.74 1457.8 569.796 1456.07 Q567.875 1454.33 564.773 1454.33 Q562.574 1454.33 560.12 1455.09 Q557.689 1455.86 554.912 1457.41 L554.912 1452.69 Q557.736 1451.55 560.189 1450.97 Q562.643 1450.39 564.68 1450.39 Q570.051 1450.39 573.245 1453.08 Q576.439 1455.77 576.439 1460.26 Q576.439 1462.39 575.629 1464.31 Q574.842 1466.2 572.736 1468.8 Q572.157 1469.47 569.055 1472.69 Q565.953 1475.88 560.305 1481.64 Z" fill="#000000" fill-rule="evenodd" fill-opacity="1" /><path clip-path="url(#clip410)" d="M1079.26 1455.09 L1067.46 1473.54 L1079.26 1473.54 L1079.26 1455.09 M1078.04 1451.02 L1083.92 1451.02 L1083.92 1473.54 L1088.85 1473.54 L1088.85 1477.43 L1083.92 1477.43 L1083.92 1485.58 L1079.26 1485.58 L1079.26 1477.43 L1063.66 1477.43 L1063.66 1472.92 L1078.04 1451.02 Z" fill="#000000" fill-rule="evenodd" fill-opacity="1" /><path clip-path="url(#clip410)" d="M1587.26 1466.44 Q1584.11 1466.44 1582.26 1468.59 Q1580.43 1470.74 1580.43 1474.49 Q1580.43 1478.22 1582.26 1480.39 Q1584.11 1482.55 1587.26 1482.55 Q1590.41 1482.55 1592.24 1480.39 Q1594.09 1478.22 1594.09 1474.49 Q1594.09 1470.74 1592.24 1468.59 Q1590.41 1466.44 1587.26 1466.44 M1596.54 1451.78 L1596.54 1456.04 Q1594.78 1455.21 1592.98 1454.77 Q1591.19 1454.33 1589.44 1454.33 Q1584.81 1454.33 1582.35 1457.45 Q1579.92 1460.58 1579.57 1466.9 Q1580.94 1464.89 1583 1463.82 Q1585.06 1462.73 1587.54 1462.73 Q1592.75 1462.73 1595.75 1465.9 Q1598.79 1469.05 1598.79 1474.49 Q1598.79 1479.82 1595.64 1483.03 Q1592.49 1486.25 1587.26 1486.25 Q1581.26 1486.25 1578.09 1481.67 Q1574.92 1477.06 1574.92 1468.33 Q1574.92 1460.14 1578.81 1455.28 Q1582.7 1450.39 1589.25 1450.39 Q1591.01 1450.39 1592.79 1450.74 Q1594.6 1451.09 1596.54 1451.78 Z" fill="#000000" fill-rule="evenodd" fill-opacity="1" /><path clip-path="url(#clip410)" d="M2097.46 1469.17 Q2094.12 1469.17 2092.2 1470.95 Q2090.3 1472.73 2090.3 1475.86 Q2090.3 1478.98 2092.2 1480.77 Q2094.12 1482.55 2097.46 1482.55 Q2100.79 1482.55 2102.71 1480.77 Q2104.63 1478.96 2104.63 1475.86 Q2104.63 1472.73 2102.71 1470.95 Q2100.81 1469.17 2097.46 1469.17 M2092.78 1467.18 Q2089.77 1466.44 2088.08 1464.38 Q2086.41 1462.32 2086.41 1459.35 Q2086.41 1455.21 2089.35 1452.8 Q2092.32 1450.39 2097.46 1450.39 Q2102.62 1450.39 2105.56 1452.8 Q2108.5 1455.21 2108.5 1459.35 Q2108.5 1462.32 2106.81 1464.38 Q2105.14 1466.44 2102.15 1467.18 Q2105.53 1467.96 2107.41 1470.26 Q2109.31 1472.55 2109.31 1475.86 Q2109.31 1480.88 2106.23 1483.57 Q2103.17 1486.25 2097.46 1486.25 Q2091.74 1486.25 2088.66 1483.57 Q2085.6 1480.88 2085.6 1475.86 Q2085.6 1472.55 2087.5 1470.26 Q2089.4 1467.96 2092.78 1467.18 M2091.07 1459.79 Q2091.07 1462.48 2092.73 1463.98 Q2094.42 1465.49 2097.46 1465.49 Q2100.46 1465.49 2102.15 1463.98 Q2103.87 1462.48 2103.87 1459.79 Q2103.87 1457.11 2102.15 1455.6 Q2100.46 1454.1 2097.46 1454.1 Q2094.42 1454.1 2092.73 1455.6 Q2091.07 1457.11 2091.07 1459.79 Z" fill="#000000" fill-rule="evenodd" fill-opacity="1" /><path clip-path="url(#clip410)" d="M1033.3 1550.12 Q1026.21 1550.12 1023.47 1551.75 Q1020.73 1553.37 1020.73 1557.29 Q1020.73 1560.4 1022.77 1562.25 Q1024.84 1564.07 1028.37 1564.07 Q1033.24 1564.07 1036.17 1560.63 Q1039.13 1557.16 1039.13 1551.43 L1039.13 1550.12 L1033.3 1550.12 M1044.99 1547.71 L1044.99 1568.04 L1039.13 1568.04 L1039.13 1562.63 Q1037.12 1565.88 1034.13 1567.44 Q1031.14 1568.97 1026.81 1568.97 Q1021.34 1568.97 1018.09 1565.91 Q1014.88 1562.82 1014.88 1557.67 Q1014.88 1551.65 1018.89 1548.6 Q1022.93 1545.54 1030.92 1545.54 L1039.13 1545.54 L1039.13 1544.97 Q1039.13 1540.93 1036.46 1538.73 Q1033.81 1536.5 1029.01 1536.5 Q1025.95 1536.5 1023.06 1537.23 Q1020.16 1537.97 1017.49 1539.43 L1017.49 1534.02 Q1020.7 1532.78 1023.72 1532.17 Q1026.75 1531.54 1029.61 1531.54 Q1037.35 1531.54 1041.17 1535.55 Q1044.99 1539.56 1044.99 1547.71 Z" fill="#000000" fill-rule="evenodd" fill-opacity="1" /><path clip-path="url(#clip410)" d="M1062.71 1562.7 L1062.71 1581.6 L1056.83 1581.6 L1056.83 1532.4 L1062.71 1532.4 L1062.71 1537.81 Q1064.56 1534.62 1067.36 1533.1 Q1070.19 1531.54 1074.11 1531.54 Q1080.6 1531.54 1084.64 1536.69 Q1088.72 1541.85 1088.72 1550.25 Q1088.72 1558.65 1084.64 1563.81 Q1080.6 1568.97 1074.11 1568.97 Q1070.19 1568.97 1067.36 1567.44 Q1064.56 1565.88 1062.71 1562.7 M1082.64 1550.25 Q1082.64 1543.79 1079.97 1540.13 Q1077.32 1536.44 1072.68 1536.44 Q1068.03 1536.44 1065.36 1540.13 Q1062.71 1543.79 1062.71 1550.25 Q1062.71 1556.71 1065.36 1560.4 Q1068.03 1564.07 1072.68 1564.07 Q1077.32 1564.07 1079.97 1560.4 Q1082.64 1556.71 1082.64 1550.25 Z" fill="#000000" fill-rule="evenodd" fill-opacity="1" /><path clip-path="url(#clip410)" d="M1104.09 1562.7 L1104.09 1581.6 L1098.2 1581.6 L1098.2 1532.4 L1104.09 1532.4 L1104.09 1537.81 Q1105.94 1534.62 1108.74 1533.1 Q1111.57 1531.54 1115.49 1531.54 Q1121.98 1531.54 1126.02 1536.69 Q1130.1 1541.85 1130.1 1550.25 Q1130.1 1558.65 1126.02 1563.81 Q1121.98 1568.97 1115.49 1568.97 Q1111.57 1568.97 1108.74 1567.44 Q1105.94 1565.88 1104.09 1562.7 M1124.02 1550.25 Q1124.02 1543.79 1121.34 1540.13 Q1118.7 1536.44 1114.05 1536.44 Q1109.41 1536.44 1106.73 1540.13 Q1104.09 1543.79 1104.09 1550.25 Q1104.09 1556.71 1106.73 1560.4 Q1109.41 1564.07 1114.05 1564.07 Q1118.7 1564.07 1121.34 1560.4 Q1124.02 1556.71 1124.02 1550.25 Z" fill="#000000" fill-rule="evenodd" fill-opacity="1" /><path clip-path="url(#clip410)" d="M1160.46 1537.87 Q1159.47 1537.3 1158.3 1537.04 Q1157.15 1536.76 1155.75 1536.76 Q1150.78 1536.76 1148.11 1540 Q1145.47 1543.22 1145.47 1549.27 L1145.47 1568.04 L1139.58 1568.04 L1139.58 1532.4 L1145.47 1532.4 L1145.47 1537.93 Q1147.31 1534.69 1150.27 1533.13 Q1153.23 1531.54 1157.47 1531.54 Q1158.07 1531.54 1158.8 1531.63 Q1159.54 1531.7 1160.43 1531.85 L1160.46 1537.87 Z" fill="#000000" fill-rule="evenodd" fill-opacity="1" /><path clip-path="url(#clip410)" d="M1178.98 1536.5 Q1174.27 1536.5 1171.54 1540.19 Q1168.8 1543.85 1168.8 1550.25 Q1168.8 1556.65 1171.5 1560.34 Q1174.24 1564 1178.98 1564 Q1183.66 1564 1186.4 1560.31 Q1189.14 1556.62 1189.14 1550.25 Q1189.14 1543.92 1186.4 1540.23 Q1183.66 1536.5 1178.98 1536.5 M1178.98 1531.54 Q1186.62 1531.54 1190.98 1536.5 Q1195.34 1541.47 1195.34 1550.25 Q1195.34 1559 1190.98 1564 Q1186.62 1568.97 1178.98 1568.97 Q1171.31 1568.97 1166.95 1564 Q1162.62 1559 1162.62 1550.25 Q1162.62 1541.47 1166.95 1536.5 Q1171.31 1531.54 1178.98 1531.54 Z" fill="#000000" fill-rule="evenodd" fill-opacity="1" /><path clip-path="url(#clip410)" d="M1232.68 1532.4 L1219.79 1549.74 L1233.35 1568.04 L1226.44 1568.04 L1216.06 1554.04 L1205.69 1568.04 L1198.78 1568.04 L1212.63 1549.39 L1199.96 1532.4 L1206.87 1532.4 L1216.32 1545.1 L1225.77 1532.4 L1232.68 1532.4 Z" fill="#000000" fill-rule="evenodd" fill-opacity="1" /><path clip-path="url(#clip410)" d="M1241.62 1532.4 L1247.48 1532.4 L1247.48 1568.04 L1241.62 1568.04 L1241.62 1532.4 M1241.62 1518.52 L1247.48 1518.52 L1247.48 1525.93 L1241.62 1525.93 L1241.62 1518.52 Z" fill="#000000" fill-rule="evenodd" fill-opacity="1" /><path clip-path="url(#clip410)" d="M1287.49 1539.24 Q1289.68 1535.29 1292.74 1533.41 Q1295.79 1531.54 1299.93 1531.54 Q1305.5 1531.54 1308.53 1535.45 Q1311.55 1539.33 1311.55 1546.53 L1311.55 1568.04 L1305.66 1568.04 L1305.66 1546.72 Q1305.66 1541.59 1303.85 1539.11 Q1302.03 1536.63 1298.31 1536.63 Q1293.76 1536.63 1291.12 1539.65 Q1288.47 1542.68 1288.47 1547.9 L1288.47 1568.04 L1282.59 1568.04 L1282.59 1546.72 Q1282.59 1541.56 1280.77 1539.11 Q1278.96 1536.63 1275.17 1536.63 Q1270.68 1536.63 1268.04 1539.68 Q1265.4 1542.71 1265.4 1547.9 L1265.4 1568.04 L1259.51 1568.04 L1259.51 1532.4 L1265.4 1532.4 L1265.4 1537.93 Q1267.4 1534.66 1270.2 1533.1 Q1273.01 1531.54 1276.86 1531.54 Q1280.74 1531.54 1283.45 1533.51 Q1286.18 1535.48 1287.49 1539.24 Z" fill="#000000" fill-rule="evenodd" fill-opacity="1" /><path clip-path="url(#clip410)" d="M1339.43 1550.12 Q1332.33 1550.12 1329.6 1551.75 Q1326.86 1553.37 1326.86 1557.29 Q1326.86 1560.4 1328.9 1562.25 Q1330.97 1564.07 1334.5 1564.07 Q1339.37 1564.07 1342.3 1560.63 Q1345.26 1557.16 1345.26 1551.43 L1345.26 1550.12 L1339.43 1550.12 M1351.11 1547.71 L1351.11 1568.04 L1345.26 1568.04 L1345.26 1562.63 Q1343.25 1565.88 1340.26 1567.44 Q1337.27 1568.97 1332.94 1568.97 Q1327.46 1568.97 1324.22 1565.91 Q1321 1562.82 1321 1557.67 Q1321 1551.65 1325.01 1548.6 Q1329.06 1545.54 1337.04 1545.54 L1345.26 1545.54 L1345.26 1544.97 Q1345.26 1540.93 1342.58 1538.73 Q1339.94 1536.5 1335.13 1536.5 Q1332.08 1536.5 1329.18 1537.23 Q1326.29 1537.97 1323.61 1539.43 L1323.61 1534.02 Q1326.83 1532.78 1329.85 1532.17 Q1332.87 1531.54 1335.74 1531.54 Q1343.47 1531.54 1347.29 1535.55 Q1351.11 1539.56 1351.11 1547.71 Z" fill="#000000" fill-rule="evenodd" fill-opacity="1" /><path clip-path="url(#clip410)" d="M1368.97 1522.27 L1368.97 1532.4 L1381.03 1532.4 L1381.03 1536.95 L1368.97 1536.95 L1368.97 1556.3 Q1368.97 1560.66 1370.15 1561.9 Q1371.36 1563.14 1375.02 1563.14 L1381.03 1563.14 L1381.03 1568.04 L1375.02 1568.04 Q1368.24 1568.04 1365.66 1565.53 Q1363.08 1562.98 1363.08 1556.3 L1363.08 1536.95 L1358.78 1536.95 L1358.78 1532.4 L1363.08 1532.4 L1363.08 1522.27 L1368.97 1522.27 Z" fill="#000000" fill-rule="evenodd" fill-opacity="1" /><path clip-path="url(#clip410)" d="M1388.73 1532.4 L1394.59 1532.4 L1394.59 1568.04 L1388.73 1568.04 L1388.73 1532.4 M1388.73 1518.52 L1394.59 1518.52 L1394.59 1525.93 L1388.73 1525.93 L1388.73 1518.52 Z" fill="#000000" fill-rule="evenodd" fill-opacity="1" /><path clip-path="url(#clip410)" d="M1420.66 1536.5 Q1415.95 1536.5 1413.21 1540.19 Q1410.47 1543.85 1410.47 1550.25 Q1410.47 1556.65 1413.18 1560.34 Q1415.92 1564 1420.66 1564 Q1425.34 1564 1428.07 1560.31 Q1430.81 1556.62 1430.81 1550.25 Q1430.81 1543.92 1428.07 1540.23 Q1425.34 1536.5 1420.66 1536.5 M1420.66 1531.54 Q1428.3 1531.54 1432.66 1536.5 Q1437.02 1541.47 1437.02 1550.25 Q1437.02 1559 1432.66 1564 Q1428.3 1568.97 1420.66 1568.97 Q1412.99 1568.97 1408.63 1564 Q1404.3 1559 1404.3 1550.25 Q1404.3 1541.47 1408.63 1536.5 Q1412.99 1531.54 1420.66 1531.54 Z" fill="#000000" fill-rule="evenodd" fill-opacity="1" /><path clip-path="url(#clip410)" d="M1476.36 1546.53 L1476.36 1568.04 L1470.5 1568.04 L1470.5 1546.72 Q1470.5 1541.66 1468.53 1539.14 Q1466.55 1536.63 1462.61 1536.63 Q1457.87 1536.63 1455.13 1539.65 Q1452.39 1542.68 1452.39 1547.9 L1452.39 1568.04 L1446.5 1568.04 L1446.5 1532.4 L1452.39 1532.4 L1452.39 1537.93 Q1454.49 1534.72 1457.32 1533.13 Q1460.19 1531.54 1463.91 1531.54 Q1470.06 1531.54 1473.21 1535.36 Q1476.36 1539.14 1476.36 1546.53 Z" fill="#000000" fill-rule="evenodd" fill-opacity="1" /><path clip-path="url(#clip410)" d="M1529.42 1537.87 Q1528.43 1537.3 1527.25 1537.04 Q1526.11 1536.76 1524.71 1536.76 Q1519.74 1536.76 1517.07 1540 Q1514.42 1543.22 1514.42 1549.27 L1514.42 1568.04 L1508.54 1568.04 L1508.54 1532.4 L1514.42 1532.4 L1514.42 1537.93 Q1516.27 1534.69 1519.23 1533.13 Q1522.19 1531.54 1526.42 1531.54 Q1527.03 1531.54 1527.76 1531.63 Q1528.49 1531.7 1529.38 1531.85 L1529.42 1537.87 Z" fill="#000000" fill-rule="evenodd" fill-opacity="1" /><path clip-path="url(#clip410)" d="M1551.76 1550.12 Q1544.66 1550.12 1541.92 1551.75 Q1539.19 1553.37 1539.19 1557.29 Q1539.19 1560.4 1541.22 1562.25 Q1543.29 1564.07 1546.83 1564.07 Q1551.7 1564.07 1554.62 1560.63 Q1557.58 1557.16 1557.58 1551.43 L1557.58 1550.12 L1551.76 1550.12 M1563.44 1547.71 L1563.44 1568.04 L1557.58 1568.04 L1557.58 1562.63 Q1555.58 1565.88 1552.59 1567.44 Q1549.6 1568.97 1545.27 1568.97 Q1539.79 1568.97 1536.55 1565.91 Q1533.33 1562.82 1533.33 1557.67 Q1533.33 1551.65 1537.34 1548.6 Q1541.38 1545.54 1549.37 1545.54 L1557.58 1545.54 L1557.58 1544.97 Q1557.58 1540.93 1554.91 1538.73 Q1552.27 1536.5 1547.46 1536.5 Q1544.41 1536.5 1541.51 1537.23 Q1538.61 1537.97 1535.94 1539.43 L1535.94 1534.02 Q1539.16 1532.78 1542.18 1532.17 Q1545.2 1531.54 1548.07 1531.54 Q1555.8 1531.54 1559.62 1535.55 Q1563.44 1539.56 1563.44 1547.71 Z" fill="#000000" fill-rule="evenodd" fill-opacity="1" /><path clip-path="url(#clip410)" d="M1605.14 1546.53 L1605.14 1568.04 L1599.28 1568.04 L1599.28 1546.72 Q1599.28 1541.66 1597.31 1539.14 Q1595.33 1536.63 1591.39 1536.63 Q1586.64 1536.63 1583.91 1539.65 Q1581.17 1542.68 1581.17 1547.9 L1581.17 1568.04 L1575.28 1568.04 L1575.28 1532.4 L1581.17 1532.4 L1581.17 1537.93 Q1583.27 1534.72 1586.1 1533.13 Q1588.97 1531.54 1592.69 1531.54 Q1598.83 1531.54 1601.99 1535.36 Q1605.14 1539.14 1605.14 1546.53 Z" fill="#000000" fill-rule="evenodd" fill-opacity="1" /><path clip-path="url(#clip410)" d="M1616.59 1518.52 L1622.48 1518.52 L1622.48 1547.77 L1639.96 1532.4 L1647.44 1532.4 L1628.53 1549.07 L1648.23 1568.04 L1640.59 1568.04 L1622.48 1550.63 L1622.48 1568.04 L1616.59 1568.04 L1616.59 1518.52 Z" fill="#000000" fill-rule="evenodd" fill-opacity="1" /><polyline clip-path="url(#clip413)" style="stroke:#000000; stroke-linecap:round; stroke-linejoin:round; stroke-width:2; stroke-opacity:0.1; fill:none" points="310.352,1393.91 2352.76,1393.91 "/>
<polyline clip-path="url(#clip413)" style="stroke:#000000; stroke-linecap:round; stroke-linejoin:round; stroke-width:2; stroke-opacity:0.1; fill:none" points="310.352,1141.6 2352.76,1141.6 "/>
<polyline clip-path="url(#clip413)" style="stroke:#000000; stroke-linecap:round; stroke-linejoin:round; stroke-width:2; stroke-opacity:0.1; fill:none" points="310.352,889.288 2352.76,889.288 "/>
<polyline clip-path="url(#clip413)" style="stroke:#000000; stroke-linecap:round; stroke-linejoin:round; stroke-width:2; stroke-opacity:0.1; fill:none" points="310.352,636.978 2352.76,636.978 "/>
<polyline clip-path="url(#clip413)" style="stroke:#000000; stroke-linecap:round; stroke-linejoin:round; stroke-width:2; stroke-opacity:0.1; fill:none" points="310.352,384.668 2352.76,384.668 "/>
<polyline clip-path="url(#clip413)" style="stroke:#000000; stroke-linecap:round; stroke-linejoin:round; stroke-width:2; stroke-opacity:0.1; fill:none" points="310.352,132.358 2352.76,132.358 "/>
<polyline clip-path="url(#clip410)" style="stroke:#000000; stroke-linecap:round; stroke-linejoin:round; stroke-width:4; stroke-opacity:1; fill:none" points="310.352,1423.18 310.352,47.2441 "/>
<polyline clip-path="url(#clip410)" style="stroke:#000000; stroke-linecap:round; stroke-linejoin:round; stroke-width:4; stroke-opacity:1; fill:none" points="310.352,1393.91 329.25,1393.91 "/>
<polyline clip-path="url(#clip410)" style="stroke:#000000; stroke-linecap:round; stroke-linejoin:round; stroke-width:4; stroke-opacity:1; fill:none" points="310.352,1141.6 329.25,1141.6 "/>
<polyline clip-path="url(#clip410)" style="stroke:#000000; stroke-linecap:round; stroke-linejoin:round; stroke-width:4; stroke-opacity:1; fill:none" points="310.352,889.288 329.25,889.288 "/>
<polyline clip-path="url(#clip410)" style="stroke:#000000; stroke-linecap:round; stroke-linejoin:round; stroke-width:4; stroke-opacity:1; fill:none" points="310.352,636.978 329.25,636.978 "/>
<polyline clip-path="url(#clip410)" style="stroke:#000000; stroke-linecap:round; stroke-linejoin:round; stroke-width:4; stroke-opacity:1; fill:none" points="310.352,384.668 329.25,384.668 "/>
<polyline clip-path="url(#clip410)" style="stroke:#000000; stroke-linecap:round; stroke-linejoin:round; stroke-width:4; stroke-opacity:1; fill:none" points="310.352,132.358 329.25,132.358 "/>
<path clip-path="url(#clip410)" d="M126.691 1379.71 Q123.08 1379.71 121.251 1383.27 Q119.445 1386.81 119.445 1393.94 Q119.445 1401.05 121.251 1404.61 Q123.08 1408.16 126.691 1408.16 Q130.325 1408.16 132.13 1404.61 Q133.959 1401.05 133.959 1393.94 Q133.959 1386.81 132.13 1383.27 Q130.325 1379.71 126.691 1379.71 M126.691 1376 Q132.501 1376 135.556 1380.61 Q138.635 1385.19 138.635 1393.94 Q138.635 1402.67 135.556 1407.28 Q132.501 1411.86 126.691 1411.86 Q120.88 1411.86 117.802 1407.28 Q114.746 1402.67 114.746 1393.94 Q114.746 1385.19 117.802 1380.61 Q120.88 1376 126.691 1376 Z" fill="#000000" fill-rule="evenodd" fill-opacity="1" /><path clip-path="url(#clip410)" d="M146.853 1405.31 L151.737 1405.31 L151.737 1411.19 L146.853 1411.19 L146.853 1405.31 Z" fill="#000000" fill-rule="evenodd" fill-opacity="1" /><path clip-path="url(#clip410)" d="M171.922 1379.71 Q168.311 1379.71 166.482 1383.27 Q164.677 1386.81 164.677 1393.94 Q164.677 1401.05 166.482 1404.61 Q168.311 1408.16 171.922 1408.16 Q175.556 1408.16 177.362 1404.61 Q179.19 1401.05 179.19 1393.94 Q179.19 1386.81 177.362 1383.27 Q175.556 1379.71 171.922 1379.71 M171.922 1376 Q177.732 1376 180.788 1380.61 Q183.866 1385.19 183.866 1393.94 Q183.866 1402.67 180.788 1407.28 Q177.732 1411.86 171.922 1411.86 Q166.112 1411.86 163.033 1407.28 Q159.978 1402.67 159.978 1393.94 Q159.978 1385.19 163.033 1380.61 Q166.112 1376 171.922 1376 Z" fill="#000000" fill-rule="evenodd" fill-opacity="1" /><path clip-path="url(#clip410)" d="M202.084 1379.71 Q198.473 1379.71 196.644 1383.27 Q194.838 1386.81 194.838 1393.94 Q194.838 1401.05 196.644 1404.61 Q198.473 1408.16 202.084 1408.16 Q205.718 1408.16 207.524 1404.61 Q209.352 1401.05 209.352 1393.94 Q209.352 1386.81 207.524 1383.27 Q205.718 1379.71 202.084 1379.71 M202.084 1376 Q207.894 1376 210.949 1380.61 Q214.028 1385.19 214.028 1393.94 Q214.028 1402.67 210.949 1407.28 Q207.894 1411.86 202.084 1411.86 Q196.274 1411.86 193.195 1407.28 Q190.139 1402.67 190.139 1393.94 Q190.139 1385.19 193.195 1380.61 Q196.274 1376 202.084 1376 Z" fill="#000000" fill-rule="evenodd" fill-opacity="1" /><path clip-path="url(#clip410)" d="M232.246 1379.71 Q228.635 1379.71 226.806 1383.27 Q225 1386.81 225 1393.94 Q225 1401.05 226.806 1404.61 Q228.635 1408.16 232.246 1408.16 Q235.88 1408.16 237.685 1404.61 Q239.514 1401.05 239.514 1393.94 Q239.514 1386.81 237.685 1383.27 Q235.88 1379.71 232.246 1379.71 M232.246 1376 Q238.056 1376 241.111 1380.61 Q244.19 1385.19 244.19 1393.94 Q244.19 1402.67 241.111 1407.28 Q238.056 1411.86 232.246 1411.86 Q226.435 1411.86 223.357 1407.28 Q220.301 1402.67 220.301 1393.94 Q220.301 1385.19 223.357 1380.61 Q226.435 1376 232.246 1376 Z" fill="#000000" fill-rule="evenodd" fill-opacity="1" /><path clip-path="url(#clip410)" d="M262.408 1379.71 Q258.796 1379.71 256.968 1383.27 Q255.162 1386.81 255.162 1393.94 Q255.162 1401.05 256.968 1404.61 Q258.796 1408.16 262.408 1408.16 Q266.042 1408.16 267.847 1404.61 Q269.676 1401.05 269.676 1393.94 Q269.676 1386.81 267.847 1383.27 Q266.042 1379.71 262.408 1379.71 M262.408 1376 Q268.218 1376 271.273 1380.61 Q274.352 1385.19 274.352 1393.94 Q274.352 1402.67 271.273 1407.28 Q268.218 1411.86 262.408 1411.86 Q256.597 1411.86 253.519 1407.28 Q250.463 1402.67 250.463 1393.94 Q250.463 1385.19 253.519 1380.61 Q256.597 1376 262.408 1376 Z" fill="#000000" fill-rule="evenodd" fill-opacity="1" /><path clip-path="url(#clip410)" d="M127.917 1127.4 Q124.306 1127.4 122.478 1130.96 Q120.672 1134.5 120.672 1141.63 Q120.672 1148.74 122.478 1152.3 Q124.306 1155.85 127.917 1155.85 Q131.552 1155.85 133.357 1152.3 Q135.186 1148.74 135.186 1141.63 Q135.186 1134.5 133.357 1130.96 Q131.552 1127.4 127.917 1127.4 M127.917 1123.69 Q133.728 1123.69 136.783 1128.3 Q139.862 1132.88 139.862 1141.63 Q139.862 1150.36 136.783 1154.97 Q133.728 1159.55 127.917 1159.55 Q122.107 1159.55 119.029 1154.97 Q115.973 1150.36 115.973 1141.63 Q115.973 1132.88 119.029 1128.3 Q122.107 1123.69 127.917 1123.69 Z" fill="#000000" fill-rule="evenodd" fill-opacity="1" /><path clip-path="url(#clip410)" d="M148.079 1153 L152.964 1153 L152.964 1158.88 L148.079 1158.88 L148.079 1153 Z" fill="#000000" fill-rule="evenodd" fill-opacity="1" /><path clip-path="url(#clip410)" d="M173.149 1127.4 Q169.538 1127.4 167.709 1130.96 Q165.903 1134.5 165.903 1141.63 Q165.903 1148.74 167.709 1152.3 Q169.538 1155.85 173.149 1155.85 Q176.783 1155.85 178.589 1152.3 Q180.417 1148.74 180.417 1141.63 Q180.417 1134.5 178.589 1130.96 Q176.783 1127.4 173.149 1127.4 M173.149 1123.69 Q178.959 1123.69 182.014 1128.3 Q185.093 1132.88 185.093 1141.63 Q185.093 1150.36 182.014 1154.97 Q178.959 1159.55 173.149 1159.55 Q167.339 1159.55 164.26 1154.97 Q161.204 1150.36 161.204 1141.63 Q161.204 1132.88 164.26 1128.3 Q167.339 1123.69 173.149 1123.69 Z" fill="#000000" fill-rule="evenodd" fill-opacity="1" /><path clip-path="url(#clip410)" d="M203.311 1127.4 Q199.7 1127.4 197.871 1130.96 Q196.065 1134.5 196.065 1141.63 Q196.065 1148.74 197.871 1152.3 Q199.7 1155.85 203.311 1155.85 Q206.945 1155.85 208.75 1152.3 Q210.579 1148.74 210.579 1141.63 Q210.579 1134.5 208.75 1130.96 Q206.945 1127.4 203.311 1127.4 M203.311 1123.69 Q209.121 1123.69 212.176 1128.3 Q215.255 1132.88 215.255 1141.63 Q215.255 1150.36 212.176 1154.97 Q209.121 1159.55 203.311 1159.55 Q197.5 1159.55 194.422 1154.97 Q191.366 1150.36 191.366 1141.63 Q191.366 1132.88 194.422 1128.3 Q197.5 1123.69 203.311 1123.69 Z" fill="#000000" fill-rule="evenodd" fill-opacity="1" /><path clip-path="url(#clip410)" d="M233.472 1127.4 Q229.861 1127.4 228.033 1130.96 Q226.227 1134.5 226.227 1141.63 Q226.227 1148.74 228.033 1152.3 Q229.861 1155.85 233.472 1155.85 Q237.107 1155.85 238.912 1152.3 Q240.741 1148.74 240.741 1141.63 Q240.741 1134.5 238.912 1130.96 Q237.107 1127.4 233.472 1127.4 M233.472 1123.69 Q239.283 1123.69 242.338 1128.3 Q245.417 1132.88 245.417 1141.63 Q245.417 1150.36 242.338 1154.97 Q239.283 1159.55 233.472 1159.55 Q227.662 1159.55 224.584 1154.97 Q221.528 1150.36 221.528 1141.63 Q221.528 1132.88 224.584 1128.3 Q227.662 1123.69 233.472 1123.69 Z" fill="#000000" fill-rule="evenodd" fill-opacity="1" /><path clip-path="url(#clip410)" d="M254.445 1154.94 L262.083 1154.94 L262.083 1128.58 L253.773 1130.24 L253.773 1125.98 L262.037 1124.32 L266.713 1124.32 L266.713 1154.94 L274.352 1154.94 L274.352 1158.88 L254.445 1158.88 L254.445 1154.94 Z" fill="#000000" fill-rule="evenodd" fill-opacity="1" /><path clip-path="url(#clip410)" d="M128.288 875.087 Q124.677 875.087 122.848 878.651 Q121.043 882.193 121.043 889.323 Q121.043 896.429 122.848 899.994 Q124.677 903.536 128.288 903.536 Q131.922 903.536 133.728 899.994 Q135.556 896.429 135.556 889.323 Q135.556 882.193 133.728 878.651 Q131.922 875.087 128.288 875.087 M128.288 871.383 Q134.098 871.383 137.154 875.989 Q140.232 880.573 140.232 889.323 Q140.232 898.049 137.154 902.656 Q134.098 907.239 128.288 907.239 Q122.478 907.239 119.399 902.656 Q116.343 898.049 116.343 889.323 Q116.343 880.573 119.399 875.989 Q122.478 871.383 128.288 871.383 Z" fill="#000000" fill-rule="evenodd" fill-opacity="1" /><path clip-path="url(#clip410)" d="M148.45 900.688 L153.334 900.688 L153.334 906.568 L148.45 906.568 L148.45 900.688 Z" fill="#000000" fill-rule="evenodd" fill-opacity="1" /><path clip-path="url(#clip410)" d="M173.519 875.087 Q169.908 875.087 168.079 878.651 Q166.274 882.193 166.274 889.323 Q166.274 896.429 168.079 899.994 Q169.908 903.536 173.519 903.536 Q177.153 903.536 178.959 899.994 Q180.788 896.429 180.788 889.323 Q180.788 882.193 178.959 878.651 Q177.153 875.087 173.519 875.087 M173.519 871.383 Q179.329 871.383 182.385 875.989 Q185.463 880.573 185.463 889.323 Q185.463 898.049 182.385 902.656 Q179.329 907.239 173.519 907.239 Q167.709 907.239 164.63 902.656 Q161.575 898.049 161.575 889.323 Q161.575 880.573 164.63 875.989 Q167.709 871.383 173.519 871.383 Z" fill="#000000" fill-rule="evenodd" fill-opacity="1" /><path clip-path="url(#clip410)" d="M203.681 875.087 Q200.07 875.087 198.241 878.651 Q196.436 882.193 196.436 889.323 Q196.436 896.429 198.241 899.994 Q200.07 903.536 203.681 903.536 Q207.315 903.536 209.121 899.994 Q210.949 896.429 210.949 889.323 Q210.949 882.193 209.121 878.651 Q207.315 875.087 203.681 875.087 M203.681 871.383 Q209.491 871.383 212.547 875.989 Q215.625 880.573 215.625 889.323 Q215.625 898.049 212.547 902.656 Q209.491 907.239 203.681 907.239 Q197.871 907.239 194.792 902.656 Q191.737 898.049 191.737 889.323 Q191.737 880.573 194.792 875.989 Q197.871 871.383 203.681 871.383 Z" fill="#000000" fill-rule="evenodd" fill-opacity="1" /><path clip-path="url(#clip410)" d="M233.843 875.087 Q230.232 875.087 228.403 878.651 Q226.598 882.193 226.598 889.323 Q226.598 896.429 228.403 899.994 Q230.232 903.536 233.843 903.536 Q237.477 903.536 239.283 899.994 Q241.111 896.429 241.111 889.323 Q241.111 882.193 239.283 878.651 Q237.477 875.087 233.843 875.087 M233.843 871.383 Q239.653 871.383 242.709 875.989 Q245.787 880.573 245.787 889.323 Q245.787 898.049 242.709 902.656 Q239.653 907.239 233.843 907.239 Q228.033 907.239 224.954 902.656 Q221.898 898.049 221.898 889.323 Q221.898 880.573 224.954 875.989 Q228.033 871.383 233.843 871.383 Z" fill="#000000" fill-rule="evenodd" fill-opacity="1" /><path clip-path="url(#clip410)" d="M258.033 902.633 L274.352 902.633 L274.352 906.568 L252.408 906.568 L252.408 902.633 Q255.07 899.878 259.653 895.249 Q264.259 890.596 265.44 889.253 Q267.685 886.73 268.565 884.994 Q269.468 883.235 269.468 881.545 Q269.468 878.79 267.523 877.054 Q265.602 875.318 262.5 875.318 Q260.301 875.318 257.847 876.082 Q255.417 876.846 252.639 878.397 L252.639 873.675 Q255.463 872.54 257.917 871.962 Q260.37 871.383 262.408 871.383 Q267.778 871.383 270.972 874.068 Q274.167 876.753 274.167 881.244 Q274.167 883.374 273.357 885.295 Q272.569 887.193 270.463 889.786 Q269.884 890.457 266.782 893.674 Q263.681 896.869 258.033 902.633 Z" fill="#000000" fill-rule="evenodd" fill-opacity="1" /><path clip-path="url(#clip410)" d="M127.339 622.777 Q123.728 622.777 121.899 626.341 Q120.093 629.883 120.093 637.013 Q120.093 644.119 121.899 647.684 Q123.728 651.226 127.339 651.226 Q130.973 651.226 132.779 647.684 Q134.607 644.119 134.607 637.013 Q134.607 629.883 132.779 626.341 Q130.973 622.777 127.339 622.777 M127.339 619.073 Q133.149 619.073 136.204 623.679 Q139.283 628.263 139.283 637.013 Q139.283 645.74 136.204 650.346 Q133.149 654.929 127.339 654.929 Q121.529 654.929 118.45 650.346 Q115.394 645.74 115.394 637.013 Q115.394 628.263 118.45 623.679 Q121.529 619.073 127.339 619.073 Z" fill="#000000" fill-rule="evenodd" fill-opacity="1" /><path clip-path="url(#clip410)" d="M147.501 648.378 L152.385 648.378 L152.385 654.258 L147.501 654.258 L147.501 648.378 Z" fill="#000000" fill-rule="evenodd" fill-opacity="1" /><path clip-path="url(#clip410)" d="M172.57 622.777 Q168.959 622.777 167.13 626.341 Q165.325 629.883 165.325 637.013 Q165.325 644.119 167.13 647.684 Q168.959 651.226 172.57 651.226 Q176.204 651.226 178.01 647.684 Q179.839 644.119 179.839 637.013 Q179.839 629.883 178.01 626.341 Q176.204 622.777 172.57 622.777 M172.57 619.073 Q178.38 619.073 181.436 623.679 Q184.514 628.263 184.514 637.013 Q184.514 645.74 181.436 650.346 Q178.38 654.929 172.57 654.929 Q166.76 654.929 163.681 650.346 Q160.626 645.74 160.626 637.013 Q160.626 628.263 163.681 623.679 Q166.76 619.073 172.57 619.073 Z" fill="#000000" fill-rule="evenodd" fill-opacity="1" /><path clip-path="url(#clip410)" d="M202.732 622.777 Q199.121 622.777 197.292 626.341 Q195.487 629.883 195.487 637.013 Q195.487 644.119 197.292 647.684 Q199.121 651.226 202.732 651.226 Q206.366 651.226 208.172 647.684 Q210 644.119 210 637.013 Q210 629.883 208.172 626.341 Q206.366 622.777 202.732 622.777 M202.732 619.073 Q208.542 619.073 211.598 623.679 Q214.676 628.263 214.676 637.013 Q214.676 645.74 211.598 650.346 Q208.542 654.929 202.732 654.929 Q196.922 654.929 193.843 650.346 Q190.788 645.74 190.788 637.013 Q190.788 628.263 193.843 623.679 Q196.922 619.073 202.732 619.073 Z" fill="#000000" fill-rule="evenodd" fill-opacity="1" /><path clip-path="url(#clip410)" d="M232.894 622.777 Q229.283 622.777 227.454 626.341 Q225.648 629.883 225.648 637.013 Q225.648 644.119 227.454 647.684 Q229.283 651.226 232.894 651.226 Q236.528 651.226 238.334 647.684 Q240.162 644.119 240.162 637.013 Q240.162 629.883 238.334 626.341 Q236.528 622.777 232.894 622.777 M232.894 619.073 Q238.704 619.073 241.759 623.679 Q244.838 628.263 244.838 637.013 Q244.838 645.74 241.759 650.346 Q238.704 654.929 232.894 654.929 Q227.084 654.929 224.005 650.346 Q220.949 645.74 220.949 637.013 Q220.949 628.263 224.005 623.679 Q227.084 619.073 232.894 619.073 Z" fill="#000000" fill-rule="evenodd" fill-opacity="1" /><path clip-path="url(#clip410)" d="M267.222 635.624 Q270.579 636.341 272.454 638.61 Q274.352 640.878 274.352 644.212 Q274.352 649.327 270.833 652.128 Q267.315 654.929 260.833 654.929 Q258.658 654.929 256.343 654.489 Q254.051 654.073 251.597 653.216 L251.597 648.702 Q253.542 649.837 255.857 650.415 Q258.171 650.994 260.695 650.994 Q265.093 650.994 267.384 649.258 Q269.699 647.522 269.699 644.212 Q269.699 641.156 267.546 639.443 Q265.417 637.707 261.597 637.707 L257.57 637.707 L257.57 633.865 L261.783 633.865 Q265.232 633.865 267.06 632.499 Q268.889 631.11 268.889 628.517 Q268.889 625.855 266.991 624.443 Q265.116 623.008 261.597 623.008 Q259.676 623.008 257.477 623.425 Q255.278 623.842 252.639 624.721 L252.639 620.554 Q255.301 619.814 257.616 619.443 Q259.954 619.073 262.014 619.073 Q267.338 619.073 270.44 621.504 Q273.542 623.911 273.542 628.031 Q273.542 630.902 271.898 632.892 Q270.255 634.86 267.222 635.624 Z" fill="#000000" fill-rule="evenodd" fill-opacity="1" /><path clip-path="url(#clip410)" d="M126.205 370.467 Q122.593 370.467 120.765 374.032 Q118.959 377.573 118.959 384.703 Q118.959 391.809 120.765 395.374 Q122.593 398.916 126.205 398.916 Q129.839 398.916 131.644 395.374 Q133.473 391.809 133.473 384.703 Q133.473 377.573 131.644 374.032 Q129.839 370.467 126.205 370.467 M126.205 366.763 Q132.015 366.763 135.07 371.37 Q138.149 375.953 138.149 384.703 Q138.149 393.43 135.07 398.036 Q132.015 402.619 126.205 402.619 Q120.394 402.619 117.316 398.036 Q114.26 393.43 114.26 384.703 Q114.26 375.953 117.316 371.37 Q120.394 366.763 126.205 366.763 Z" fill="#000000" fill-rule="evenodd" fill-opacity="1" /><path clip-path="url(#clip410)" d="M146.366 396.068 L151.251 396.068 L151.251 401.948 L146.366 401.948 L146.366 396.068 Z" fill="#000000" fill-rule="evenodd" fill-opacity="1" /><path clip-path="url(#clip410)" d="M171.436 370.467 Q167.825 370.467 165.996 374.032 Q164.19 377.573 164.19 384.703 Q164.19 391.809 165.996 395.374 Q167.825 398.916 171.436 398.916 Q175.07 398.916 176.876 395.374 Q178.704 391.809 178.704 384.703 Q178.704 377.573 176.876 374.032 Q175.07 370.467 171.436 370.467 M171.436 366.763 Q177.246 366.763 180.301 371.37 Q183.38 375.953 183.38 384.703 Q183.38 393.43 180.301 398.036 Q177.246 402.619 171.436 402.619 Q165.626 402.619 162.547 398.036 Q159.491 393.43 159.491 384.703 Q159.491 375.953 162.547 371.37 Q165.626 366.763 171.436 366.763 Z" fill="#000000" fill-rule="evenodd" fill-opacity="1" /><path clip-path="url(#clip410)" d="M201.598 370.467 Q197.987 370.467 196.158 374.032 Q194.352 377.573 194.352 384.703 Q194.352 391.809 196.158 395.374 Q197.987 398.916 201.598 398.916 Q205.232 398.916 207.037 395.374 Q208.866 391.809 208.866 384.703 Q208.866 377.573 207.037 374.032 Q205.232 370.467 201.598 370.467 M201.598 366.763 Q207.408 366.763 210.463 371.37 Q213.542 375.953 213.542 384.703 Q213.542 393.43 210.463 398.036 Q207.408 402.619 201.598 402.619 Q195.787 402.619 192.709 398.036 Q189.653 393.43 189.653 384.703 Q189.653 375.953 192.709 371.37 Q195.787 366.763 201.598 366.763 Z" fill="#000000" fill-rule="evenodd" fill-opacity="1" /><path clip-path="url(#clip410)" d="M231.76 370.467 Q228.148 370.467 226.32 374.032 Q224.514 377.573 224.514 384.703 Q224.514 391.809 226.32 395.374 Q228.148 398.916 231.76 398.916 Q235.394 398.916 237.199 395.374 Q239.028 391.809 239.028 384.703 Q239.028 377.573 237.199 374.032 Q235.394 370.467 231.76 370.467 M231.76 366.763 Q237.57 366.763 240.625 371.37 Q243.704 375.953 243.704 384.703 Q243.704 393.43 240.625 398.036 Q237.57 402.619 231.76 402.619 Q225.949 402.619 222.871 398.036 Q219.815 393.43 219.815 384.703 Q219.815 375.953 222.871 371.37 Q225.949 366.763 231.76 366.763 Z" fill="#000000" fill-rule="evenodd" fill-opacity="1" /><path clip-path="url(#clip410)" d="M264.769 371.462 L252.963 389.911 L264.769 389.911 L264.769 371.462 M263.542 367.388 L269.421 367.388 L269.421 389.911 L274.352 389.911 L274.352 393.8 L269.421 393.8 L269.421 401.948 L264.769 401.948 L264.769 393.8 L249.167 393.8 L249.167 389.286 L263.542 367.388 Z" fill="#000000" fill-rule="evenodd" fill-opacity="1" /><path clip-path="url(#clip410)" d="M127.686 118.157 Q124.075 118.157 122.246 121.722 Q120.441 125.263 120.441 132.393 Q120.441 139.499 122.246 143.064 Q124.075 146.606 127.686 146.606 Q131.32 146.606 133.126 143.064 Q134.954 139.499 134.954 132.393 Q134.954 125.263 133.126 121.722 Q131.32 118.157 127.686 118.157 M127.686 114.453 Q133.496 114.453 136.552 119.06 Q139.63 123.643 139.63 132.393 Q139.63 141.12 136.552 145.726 Q133.496 150.309 127.686 150.309 Q121.876 150.309 118.797 145.726 Q115.742 141.12 115.742 132.393 Q115.742 123.643 118.797 119.06 Q121.876 114.453 127.686 114.453 Z" fill="#000000" fill-rule="evenodd" fill-opacity="1" /><path clip-path="url(#clip410)" d="M147.848 143.759 L152.732 143.759 L152.732 149.638 L147.848 149.638 L147.848 143.759 Z" fill="#000000" fill-rule="evenodd" fill-opacity="1" /><path clip-path="url(#clip410)" d="M172.917 118.157 Q169.306 118.157 167.477 121.722 Q165.672 125.263 165.672 132.393 Q165.672 139.499 167.477 143.064 Q169.306 146.606 172.917 146.606 Q176.551 146.606 178.357 143.064 Q180.186 139.499 180.186 132.393 Q180.186 125.263 178.357 121.722 Q176.551 118.157 172.917 118.157 M172.917 114.453 Q178.727 114.453 181.783 119.06 Q184.862 123.643 184.862 132.393 Q184.862 141.12 181.783 145.726 Q178.727 150.309 172.917 150.309 Q167.107 150.309 164.028 145.726 Q160.973 141.12 160.973 132.393 Q160.973 123.643 164.028 119.06 Q167.107 114.453 172.917 114.453 Z" fill="#000000" fill-rule="evenodd" fill-opacity="1" /><path clip-path="url(#clip410)" d="M203.079 118.157 Q199.468 118.157 197.639 121.722 Q195.834 125.263 195.834 132.393 Q195.834 139.499 197.639 143.064 Q199.468 146.606 203.079 146.606 Q206.713 146.606 208.519 143.064 Q210.348 139.499 210.348 132.393 Q210.348 125.263 208.519 121.722 Q206.713 118.157 203.079 118.157 M203.079 114.453 Q208.889 114.453 211.945 119.06 Q215.024 123.643 215.024 132.393 Q215.024 141.12 211.945 145.726 Q208.889 150.309 203.079 150.309 Q197.269 150.309 194.19 145.726 Q191.135 141.12 191.135 132.393 Q191.135 123.643 194.19 119.06 Q197.269 114.453 203.079 114.453 Z" fill="#000000" fill-rule="evenodd" fill-opacity="1" /><path clip-path="url(#clip410)" d="M233.241 118.157 Q229.63 118.157 227.801 121.722 Q225.996 125.263 225.996 132.393 Q225.996 139.499 227.801 143.064 Q229.63 146.606 233.241 146.606 Q236.875 146.606 238.681 143.064 Q240.509 139.499 240.509 132.393 Q240.509 125.263 238.681 121.722 Q236.875 118.157 233.241 118.157 M233.241 114.453 Q239.051 114.453 242.107 119.06 Q245.185 123.643 245.185 132.393 Q245.185 141.12 242.107 145.726 Q239.051 150.309 233.241 150.309 Q227.431 150.309 224.352 145.726 Q221.297 141.12 221.297 132.393 Q221.297 123.643 224.352 119.06 Q227.431 114.453 233.241 114.453 Z" fill="#000000" fill-rule="evenodd" fill-opacity="1" /><path clip-path="url(#clip410)" d="M253.449 115.078 L271.806 115.078 L271.806 119.013 L257.732 119.013 L257.732 127.486 Q258.75 127.138 259.769 126.976 Q260.787 126.791 261.806 126.791 Q267.593 126.791 270.972 129.962 Q274.352 133.134 274.352 138.55 Q274.352 144.129 270.88 147.231 Q267.407 150.309 261.088 150.309 Q258.912 150.309 256.644 149.939 Q254.398 149.569 251.991 148.828 L251.991 144.129 Q254.074 145.263 256.296 145.819 Q258.519 146.374 260.995 146.374 Q265 146.374 267.338 144.268 Q269.676 142.161 269.676 138.55 Q269.676 134.939 267.338 132.833 Q265 130.726 260.995 130.726 Q259.12 130.726 257.246 131.143 Q255.394 131.56 253.449 132.439 L253.449 115.078 Z" fill="#000000" fill-rule="evenodd" fill-opacity="1" /><path clip-path="url(#clip410)" d="M18.8696 756.909 Q19.3527 756.909 20.0613 757.264 Q20.7054 757.586 21.124 758.262 Q21.5105 758.906 21.5105 759.615 Q21.5105 759.84 21.3817 760.355 Q20.9952 761.225 20.1257 762.578 Q19.2561 763.93 18.7086 765.154 Q18.1289 766.346 18.0645 767.666 Q18.0645 768.825 18.4832 769.792 Q18.9663 770.661 19.9968 771.241 Q20.4155 771.499 21.124 771.499 Q22.1224 771.499 23.4429 770.951 Q24.7633 770.404 26.4702 769.276 Q28.1771 768.117 29.3365 767.28 Q30.4637 766.442 32.3317 764.993 Q32.4927 764.864 32.5893 764.8 Q32.6537 764.735 32.8148 764.639 Q32.9436 764.542 33.0402 764.445 Q36.8727 761.386 41.0917 760.613 Q42.5732 760.42 44.119 760.42 Q47.2108 760.42 50.8501 761.354 Q54.1673 762.159 57.0336 763.866 Q59.8677 765.573 61.7356 768.149 Q63.6036 770.693 63.6036 773.463 Q63.6036 776.201 62.412 778.455 Q61.1881 780.709 59.0948 782.062 Q56.3251 783.898 52.4926 783.898 Q50.3348 783.898 48.499 783.383 Q45.5683 782.674 42.863 780.999 Q40.1577 779.325 38.0643 776.909 Q34.9726 773.238 34.103 769.244 Q30.5604 771.112 27.8229 772.207 Q25.0532 773.27 22.7021 773.27 Q20.641 773.27 19.3205 772.497 Q17.9035 771.821 17.0983 770.436 Q16.3898 769.276 16.0355 767.602 Q15.9067 766.571 15.9067 765.895 Q15.9067 763.608 17.1627 758.294 Q17.4848 756.909 18.8696 756.909 M46.7599 764.961 Q44.7954 764.961 43.4749 765.283 Q40.2543 765.895 35.8099 768.342 L35.4879 768.536 Q36.3896 771.66 39.1271 774.204 Q42.4765 777.392 48.8211 779.003 Q52.3637 779.872 54.3605 779.872 Q56.5183 779.872 58.3862 779.067 Q60.1253 778.294 61.1237 776.845 Q62.1221 775.363 62.1221 773.399 Q62.1221 771.917 61.2848 770.629 Q60.4152 769.341 58.9015 768.407 Q57.3878 767.473 55.7453 766.829 Q54.0706 766.152 52.1061 765.637 Q49.4652 764.961 46.7599 764.961 Z" fill="#000000" fill-rule="evenodd" fill-opacity="1" /><path clip-path="url(#clip410)" d="M65.231 731.337 Q66.4258 731.337 67.1923 732.126 Q67.9588 732.893 67.9588 733.885 Q67.9588 734.741 67.4629 735.192 Q66.9669 735.643 66.3356 735.643 Q65.4339 735.643 64.6899 734.944 Q63.946 734.245 63.7882 733.231 Q63.2471 733.975 63.2471 735.17 Q63.2471 737.131 64.7576 738.867 Q65.4564 739.634 66.7414 740.468 Q68.0039 741.302 68.545 741.46 L74.5642 742.925 Q75.2406 743.06 78.4869 743.894 Q81.7107 744.706 81.846 744.774 Q82.4772 744.999 82.8154 745.495 Q83.1535 745.991 83.1535 746.487 Q83.1535 747.051 82.8154 747.434 Q82.4772 747.817 81.8911 747.817 Q81.8009 747.817 81.4627 747.749 Q81.1246 747.682 80.6512 747.569 Q80.1777 747.456 79.9072 747.411 L69.2438 744.729 Q67.305 744.233 66.6964 744.12 Q66.0651 743.985 65.3662 743.985 Q64.1489 743.985 63.698 744.368 Q63.2471 744.751 63.2471 745.427 Q63.2471 746.6 64.6448 747.366 Q66.0426 748.133 68.7479 748.786 Q69.4918 748.989 69.6496 749.125 Q69.8074 749.237 69.8074 749.575 Q69.7849 750.139 69.334 750.139 Q69.2213 750.139 68.4999 749.959 Q67.7559 749.778 66.6738 749.44 Q65.5691 749.08 64.8703 748.696 Q64.3969 748.471 64.0812 748.268 Q63.7656 748.065 63.2696 747.659 Q62.7737 747.253 62.5031 746.645 Q62.2326 746.036 62.2326 745.292 Q62.2326 743.669 63.2246 742.519 Q64.2165 741.347 65.772 741.076 Q64.9605 740.513 64.2616 739.814 Q63.5402 739.115 62.8864 737.83 Q62.2326 736.545 62.2326 735.17 Q62.2326 733.456 63.1118 732.397 Q63.9685 731.337 65.231 731.337 Z" fill="#000000" fill-rule="evenodd" fill-opacity="1" /><path clip-path="url(#clip410)" d="M77.2921 710.927 Q77.495 710.746 77.6979 710.746 Q77.9008 710.746 78.4869 711.197 Q79.0731 711.626 79.8621 712.55 Q80.6512 713.474 81.3951 714.669 Q82.1391 715.864 82.635 717.622 Q83.1535 719.381 83.1535 721.229 Q83.1535 724.543 80.7864 726.527 Q78.4193 728.489 74.7897 728.489 Q72.4676 728.489 70.4161 727.722 Q68.3421 726.956 66.8767 725.716 Q65.4113 724.453 64.3518 722.875 Q63.2696 721.274 62.7511 719.606 Q62.2326 717.938 62.2326 716.382 Q62.2326 714.105 63.3824 712.775 Q64.5321 711.445 66.1553 711.445 Q66.5385 711.445 67.012 711.558 Q67.4854 711.648 68.2294 711.964 Q68.9733 712.257 69.7173 713.023 Q70.4387 713.79 70.9121 714.917 Q71.9717 717.419 71.9717 721.973 L71.9717 724.431 Q74.8799 725.152 76.7736 725.152 Q77.5175 725.152 78.284 725.017 Q79.028 724.882 79.9748 724.521 Q80.9217 724.138 81.5304 723.281 Q82.1165 722.402 82.1165 721.139 Q82.1165 720.733 82.094 720.305 Q82.0714 719.854 81.8234 718.727 Q81.5755 717.577 81.1471 716.563 Q80.7188 715.548 79.7945 714.263 Q78.8476 712.956 77.5626 711.919 Q77.0892 711.558 77.0892 711.31 Q77.0892 711.107 77.2921 710.927 M66.1553 712.978 Q64.9154 712.978 64.0812 713.903 Q63.2471 714.804 63.2471 716.382 Q63.2471 716.878 63.3598 717.487 Q63.4725 718.096 63.946 719.11 Q64.4194 720.102 65.2084 720.981 Q65.9749 721.861 67.4854 722.74 Q68.9733 723.619 70.9572 724.138 L70.9572 722.244 Q70.9572 721.59 70.9572 721.117 Q70.9346 720.643 70.8445 719.606 Q70.7543 718.547 70.5965 717.78 Q70.4161 717.014 70.0554 716.044 Q69.6947 715.075 69.2213 714.466 Q68.7253 713.835 67.9363 713.407 Q67.1472 712.978 66.1553 712.978 Z" fill="#000000" fill-rule="evenodd" fill-opacity="1" /><path clip-path="url(#clip410)" d="M51.0958 697.312 L77.7881 703.963 Q78.8476 704.233 79.9974 704.233 Q82.1165 704.233 82.1165 702.836 Q82.1165 702.182 81.6882 701.641 Q81.2373 701.1 80.3581 700.694 Q79.4563 700.266 78.5996 699.995 Q77.743 699.702 76.4129 699.341 Q75.8943 699.229 75.7365 699.116 Q75.5787 699.003 75.5787 698.688 Q75.5787 698.124 76.0296 698.124 Q78.8025 698.688 80.561 699.522 Q83.1535 700.739 83.1535 702.994 Q83.1535 704.684 81.9813 705.947 Q80.7864 707.187 78.8927 707.187 Q78.1713 707.187 77.3146 706.961 L54.2295 701.145 L53.3277 700.987 Q53.0797 700.987 52.9444 701.077 Q52.8092 701.167 52.6739 701.709 Q52.5387 702.227 52.5387 703.264 Q52.5387 703.692 52.5161 703.895 Q52.4936 704.076 52.3808 704.256 Q52.2681 704.414 52.0201 704.414 Q51.6143 704.414 51.3889 704.256 Q51.1635 704.076 51.1184 703.94 Q51.0733 703.805 51.0507 703.535 Q51.0282 703.151 50.9155 701.866 Q50.7802 700.581 50.69 699.477 Q50.5999 698.372 50.5999 697.899 Q50.5999 697.628 50.7351 697.493 Q50.8478 697.335 50.9831 697.312 L51.0958 697.312 Z" fill="#000000" fill-rule="evenodd" fill-opacity="1" /><polyline clip-path="url(#clip413)" style="stroke:#3da44d; stroke-linecap:round; stroke-linejoin:round; stroke-width:4; stroke-opacity:1; fill:none" points="310.352,1384.24 565.652,1158.49 820.953,1083.56 1076.25,552.667 1331.55,86.1857 1586.85,823.654 1842.15,1273.78 2097.46,1320.68 2352.76,1371.87 "/>
<path clip-path="url(#clip410)" d="M1540.62 196.789 L2284.68 196.789 L2284.68 93.1086 L1540.62 93.1086  Z" fill="#ffffff" fill-rule="evenodd" fill-opacity="1"/>
<polyline clip-path="url(#clip410)" style="stroke:#000000; stroke-linecap:round; stroke-linejoin:round; stroke-width:4; stroke-opacity:1; fill:none" points="1540.62,196.789 2284.68,196.789 2284.68,93.1086 1540.62,93.1086 1540.62,196.789 "/>
<polyline clip-path="url(#clip410)" style="stroke:#3da44d; stroke-linecap:round; stroke-linejoin:round; stroke-width:4; stroke-opacity:1; fill:none" points="1563.32,144.949 1699.48,144.949 "/>
<path clip-path="url(#clip410)" d="M1750.04 130.331 L1750.04 135.261 Q1747.68 133.062 1744.99 131.974 Q1742.33 130.886 1739.32 130.886 Q1733.4 130.886 1730.25 134.52 Q1727.1 138.132 1727.1 144.983 Q1727.1 151.812 1730.25 155.446 Q1733.4 159.057 1739.32 159.057 Q1742.33 159.057 1744.99 157.969 Q1747.68 156.881 1750.04 154.682 L1750.04 159.567 Q1747.59 161.233 1744.83 162.067 Q1742.1 162.9 1739.05 162.9 Q1731.2 162.9 1726.68 158.108 Q1722.17 153.293 1722.17 144.983 Q1722.17 136.65 1726.68 131.858 Q1731.2 127.044 1739.05 127.044 Q1742.15 127.044 1744.88 127.877 Q1747.63 128.687 1750.04 130.331 Z" fill="#000000" fill-rule="evenodd" fill-opacity="1" /><path clip-path="url(#clip410)" d="M1783.14 130.331 L1783.14 135.261 Q1780.78 133.062 1778.1 131.974 Q1775.43 130.886 1772.42 130.886 Q1766.5 130.886 1763.35 134.52 Q1760.2 138.132 1760.2 144.983 Q1760.2 151.812 1763.35 155.446 Q1766.5 159.057 1772.42 159.057 Q1775.43 159.057 1778.1 157.969 Q1780.78 156.881 1783.14 154.682 L1783.14 159.567 Q1780.69 161.233 1777.93 162.067 Q1775.2 162.9 1772.15 162.9 Q1764.3 162.9 1759.79 158.108 Q1755.27 153.293 1755.27 144.983 Q1755.27 136.65 1759.79 131.858 Q1764.3 127.044 1772.15 127.044 Q1775.25 127.044 1777.98 127.877 Q1780.73 128.687 1783.14 130.331 Z" fill="#000000" fill-rule="evenodd" fill-opacity="1" /><path clip-path="url(#clip410)" d="M1788.03 147.344 L1800.5 147.344 L1800.5 151.141 L1788.03 151.141 L1788.03 147.344 Z" fill="#000000" fill-rule="evenodd" fill-opacity="1" /><path clip-path="url(#clip410)" d="M1811.5 128.942 L1811.5 136.303 L1820.27 136.303 L1820.27 139.613 L1811.5 139.613 L1811.5 153.687 Q1811.5 156.858 1812.36 157.761 Q1813.23 158.664 1815.9 158.664 L1820.27 158.664 L1820.27 162.229 L1815.9 162.229 Q1810.97 162.229 1809.09 160.4 Q1807.22 158.548 1807.22 153.687 L1807.22 139.613 L1804.09 139.613 L1804.09 136.303 L1807.22 136.303 L1807.22 128.942 L1811.5 128.942 Z" fill="#000000" fill-rule="evenodd" fill-opacity="1" /><path clip-path="url(#clip410)" d="M1826.06 127.669 L1830.73 127.669 L1830.73 141.835 L1847.73 141.835 L1847.73 127.669 L1852.4 127.669 L1852.4 162.229 L1847.73 162.229 L1847.73 145.77 L1830.73 145.77 L1830.73 162.229 L1826.06 162.229 L1826.06 127.669 Z" fill="#000000" fill-rule="evenodd" fill-opacity="1" /><path clip-path="url(#clip410)" d="M1875.73 130.84 Q1870.64 130.84 1867.63 134.636 Q1864.65 138.432 1864.65 144.983 Q1864.65 151.511 1867.63 155.307 Q1870.64 159.104 1875.73 159.104 Q1880.83 159.104 1883.79 155.307 Q1886.78 151.511 1886.78 144.983 Q1886.78 138.432 1883.79 134.636 Q1880.83 130.84 1875.73 130.84 M1875.73 127.044 Q1883 127.044 1887.35 131.928 Q1891.71 136.789 1891.71 144.983 Q1891.71 153.155 1887.35 158.039 Q1883 162.9 1875.73 162.9 Q1868.44 162.9 1864.07 158.039 Q1859.72 153.178 1859.72 144.983 Q1859.72 136.789 1864.07 131.928 Q1868.44 127.044 1875.73 127.044 Z" fill="#000000" fill-rule="evenodd" fill-opacity="1" /><path clip-path="url(#clip410)" d="M1919.74 128.803 L1919.74 133.363 Q1917.08 132.09 1914.72 131.465 Q1912.35 130.84 1910.16 130.84 Q1906.34 130.84 1904.25 132.321 Q1902.19 133.803 1902.19 136.534 Q1902.19 138.826 1903.56 140.007 Q1904.95 141.164 1908.79 141.882 L1911.61 142.46 Q1916.85 143.456 1919.32 145.979 Q1921.82 148.479 1921.82 152.692 Q1921.82 157.715 1918.44 160.307 Q1915.09 162.9 1908.58 162.9 Q1906.13 162.9 1903.35 162.344 Q1900.6 161.789 1897.63 160.701 L1897.63 155.886 Q1900.48 157.483 1903.21 158.293 Q1905.94 159.104 1908.58 159.104 Q1912.59 159.104 1914.76 157.53 Q1916.94 155.956 1916.94 153.039 Q1916.94 150.493 1915.36 149.057 Q1913.81 147.622 1910.25 146.905 L1907.4 146.349 Q1902.17 145.307 1899.83 143.085 Q1897.49 140.863 1897.49 136.905 Q1897.49 132.321 1900.71 129.682 Q1903.95 127.044 1909.62 127.044 Q1912.05 127.044 1914.58 127.483 Q1917.1 127.923 1919.74 128.803 Z" fill="#000000" fill-rule="evenodd" fill-opacity="1" /><path clip-path="url(#clip410)" d="M1938.03 162.229 L1924.83 127.669 L1929.72 127.669 L1940.66 156.766 L1951.64 127.669 L1956.5 127.669 L1943.33 162.229 L1938.03 162.229 Z" fill="#000000" fill-rule="evenodd" fill-opacity="1" /><path clip-path="url(#clip410)" d="M1966.22 131.511 L1966.22 158.386 L1971.87 158.386 Q1979.02 158.386 1982.33 155.145 Q1985.66 151.905 1985.66 144.914 Q1985.66 137.969 1982.33 134.752 Q1979.02 131.511 1971.87 131.511 L1966.22 131.511 M1961.54 127.669 L1971.15 127.669 Q1981.2 127.669 1985.9 131.858 Q1990.59 136.025 1990.59 144.914 Q1990.59 153.849 1985.87 158.039 Q1981.15 162.229 1971.15 162.229 L1961.54 162.229 L1961.54 127.669 Z" fill="#000000" fill-rule="evenodd" fill-opacity="1" /><path clip-path="url(#clip410)" d="M2023.16 126.257 Q2020.06 131.581 2018.56 136.789 Q2017.05 141.997 2017.05 147.344 Q2017.05 152.692 2018.56 157.946 Q2020.09 163.178 2023.16 168.479 L2019.46 168.479 Q2015.99 163.039 2014.25 157.784 Q2012.54 152.53 2012.54 147.344 Q2012.54 142.182 2014.25 136.951 Q2015.97 131.72 2019.46 126.257 L2023.16 126.257 Z" fill="#000000" fill-rule="evenodd" fill-opacity="1" /><path clip-path="url(#clip410)" d="M2035.55 158.34 L2035.55 172.09 L2031.27 172.09 L2031.27 136.303 L2035.55 136.303 L2035.55 140.238 Q2036.89 137.923 2038.93 136.812 Q2040.99 135.678 2043.84 135.678 Q2048.56 135.678 2051.5 139.428 Q2054.46 143.178 2054.46 149.289 Q2054.46 155.4 2051.5 159.15 Q2048.56 162.9 2043.84 162.9 Q2040.99 162.9 2038.93 161.789 Q2036.89 160.655 2035.55 158.34 M2050.04 149.289 Q2050.04 144.59 2048.09 141.928 Q2046.17 139.243 2042.79 139.243 Q2039.41 139.243 2037.47 141.928 Q2035.55 144.59 2035.55 149.289 Q2035.55 153.988 2037.47 156.673 Q2039.41 159.335 2042.79 159.335 Q2046.17 159.335 2048.09 156.673 Q2050.04 153.988 2050.04 149.289 Z" fill="#000000" fill-rule="evenodd" fill-opacity="1" /><path clip-path="url(#clip410)" d="M2076.54 140.284 Q2075.83 139.868 2074.97 139.682 Q2074.14 139.474 2073.12 139.474 Q2069.51 139.474 2067.56 141.835 Q2065.64 144.173 2065.64 148.571 L2065.64 162.229 L2061.36 162.229 L2061.36 136.303 L2065.64 136.303 L2065.64 140.331 Q2066.98 137.969 2069.14 136.835 Q2071.29 135.678 2074.37 135.678 Q2074.81 135.678 2075.34 135.747 Q2075.87 135.794 2076.52 135.909 L2076.54 140.284 Z" fill="#000000" fill-rule="evenodd" fill-opacity="1" /><path clip-path="url(#clip410)" d="M2090.02 139.289 Q2086.59 139.289 2084.6 141.974 Q2082.61 144.636 2082.61 149.289 Q2082.61 153.942 2084.58 156.627 Q2086.57 159.289 2090.02 159.289 Q2093.42 159.289 2095.41 156.604 Q2097.4 153.918 2097.4 149.289 Q2097.4 144.682 2095.41 141.997 Q2093.42 139.289 2090.02 139.289 M2090.02 135.678 Q2095.57 135.678 2098.74 139.289 Q2101.91 142.9 2101.91 149.289 Q2101.91 155.655 2098.74 159.289 Q2095.57 162.9 2090.02 162.9 Q2084.44 162.9 2081.27 159.289 Q2078.12 155.655 2078.12 149.289 Q2078.12 142.9 2081.27 139.289 Q2084.44 135.678 2090.02 135.678 Z" fill="#000000" fill-rule="evenodd" fill-opacity="1" /><path clip-path="url(#clip410)" d="M2113.09 158.34 L2113.09 172.09 L2108.81 172.09 L2108.81 136.303 L2113.09 136.303 L2113.09 140.238 Q2114.44 137.923 2116.47 136.812 Q2118.53 135.678 2121.38 135.678 Q2126.1 135.678 2129.04 139.428 Q2132.01 143.178 2132.01 149.289 Q2132.01 155.4 2129.04 159.15 Q2126.1 162.9 2121.38 162.9 Q2118.53 162.9 2116.47 161.789 Q2114.44 160.655 2113.09 158.34 M2127.58 149.289 Q2127.58 144.59 2125.64 141.928 Q2123.72 139.243 2120.34 139.243 Q2116.96 139.243 2115.02 141.928 Q2113.09 144.59 2113.09 149.289 Q2113.09 153.988 2115.02 156.673 Q2116.96 159.335 2120.34 159.335 Q2123.72 159.335 2125.64 156.673 Q2127.58 153.988 2127.58 149.289 Z" fill="#000000" fill-rule="evenodd" fill-opacity="1" /><path clip-path="url(#clip410)" d="M2149.11 139.289 Q2145.69 139.289 2143.7 141.974 Q2141.71 144.636 2141.71 149.289 Q2141.71 153.942 2143.67 156.627 Q2145.66 159.289 2149.11 159.289 Q2152.52 159.289 2154.51 156.604 Q2156.5 153.918 2156.5 149.289 Q2156.5 144.682 2154.51 141.997 Q2152.52 139.289 2149.11 139.289 M2149.11 135.678 Q2154.67 135.678 2157.84 139.289 Q2161.01 142.9 2161.01 149.289 Q2161.01 155.655 2157.84 159.289 Q2154.67 162.9 2149.11 162.9 Q2143.53 162.9 2140.36 159.289 Q2137.21 155.655 2137.21 149.289 Q2137.21 142.9 2140.36 139.289 Q2143.53 135.678 2149.11 135.678 Z" fill="#000000" fill-rule="evenodd" fill-opacity="1" /><path clip-path="url(#clip410)" d="M2184.6 137.067 L2184.6 141.094 Q2182.79 140.169 2180.85 139.706 Q2178.9 139.243 2176.82 139.243 Q2173.65 139.243 2172.05 140.215 Q2170.48 141.187 2170.48 143.131 Q2170.48 144.613 2171.61 145.469 Q2172.75 146.303 2176.17 147.067 L2177.63 147.391 Q2182.17 148.363 2184.07 150.145 Q2185.99 151.905 2185.99 155.076 Q2185.99 158.687 2183.12 160.793 Q2180.27 162.9 2175.27 162.9 Q2173.19 162.9 2170.92 162.483 Q2168.67 162.09 2166.17 161.28 L2166.17 156.881 Q2168.53 158.108 2170.83 158.733 Q2173.12 159.335 2175.36 159.335 Q2178.37 159.335 2179.99 158.317 Q2181.61 157.275 2181.61 155.4 Q2181.61 153.664 2180.43 152.738 Q2179.27 151.812 2175.32 150.956 L2173.83 150.608 Q2169.88 149.775 2168.12 148.062 Q2166.36 146.326 2166.36 143.317 Q2166.36 139.659 2168.95 137.669 Q2171.54 135.678 2176.31 135.678 Q2178.67 135.678 2180.76 136.025 Q2182.84 136.372 2184.6 137.067 Z" fill="#000000" fill-rule="evenodd" fill-opacity="1" /><path clip-path="url(#clip410)" d="M2214.95 148.201 L2214.95 150.284 L2195.36 150.284 Q2195.64 154.682 2198 156.997 Q2200.39 159.289 2204.62 159.289 Q2207.08 159.289 2209.37 158.687 Q2211.68 158.085 2213.95 156.881 L2213.95 160.909 Q2211.66 161.881 2209.25 162.391 Q2206.84 162.9 2204.37 162.9 Q2198.16 162.9 2194.53 159.289 Q2190.92 155.678 2190.92 149.52 Q2190.92 143.155 2194.34 139.428 Q2197.79 135.678 2203.63 135.678 Q2208.86 135.678 2211.89 139.057 Q2214.95 142.414 2214.95 148.201 M2210.69 146.951 Q2210.64 143.456 2208.72 141.372 Q2206.82 139.289 2203.67 139.289 Q2200.11 139.289 2197.95 141.303 Q2195.83 143.317 2195.5 146.974 L2210.69 146.951 Z" fill="#000000" fill-rule="evenodd" fill-opacity="1" /><path clip-path="url(#clip410)" d="M2239 140.238 L2239 126.21 L2243.26 126.21 L2243.26 162.229 L2239 162.229 L2239 158.34 Q2237.65 160.655 2235.59 161.789 Q2233.56 162.9 2230.69 162.9 Q2225.99 162.9 2223.02 159.15 Q2220.08 155.4 2220.08 149.289 Q2220.08 143.178 2223.02 139.428 Q2225.99 135.678 2230.69 135.678 Q2233.56 135.678 2235.59 136.812 Q2237.65 137.923 2239 140.238 M2224.48 149.289 Q2224.48 153.988 2226.4 156.673 Q2228.35 159.335 2231.73 159.335 Q2235.11 159.335 2237.05 156.673 Q2239 153.988 2239 149.289 Q2239 144.59 2237.05 141.928 Q2235.11 139.243 2231.73 139.243 Q2228.35 139.243 2226.4 141.928 Q2224.48 144.59 2224.48 149.289 Z" fill="#000000" fill-rule="evenodd" fill-opacity="1" /><path clip-path="url(#clip410)" d="M2251.36 126.257 L2255.06 126.257 Q2258.53 131.72 2260.25 136.951 Q2261.98 142.182 2261.98 147.344 Q2261.98 152.53 2260.25 157.784 Q2258.53 163.039 2255.06 168.479 L2251.36 168.479 Q2254.44 163.178 2255.94 157.946 Q2257.47 152.692 2257.47 147.344 Q2257.47 141.997 2255.94 136.789 Q2254.44 131.581 2251.36 126.257 Z" fill="#000000" fill-rule="evenodd" fill-opacity="1" /></svg>
