<?xml version="1.0" encoding="utf-8"?>
<svg xmlns="http://www.w3.org/2000/svg" xmlns:xlink="http://www.w3.org/1999/xlink" width="600" height="400" viewBox="0 0 2400 1600">
<defs>
  <clipPath id="clip890">
    <rect x="0" y="0" width="2400" height="1600"/>
  </clipPath>
</defs>
<path clip-path="url(#clip890)" d="M0 1600 L2400 1600 L2400 0 L0 0  Z" fill="#ffffff" fill-rule="evenodd" fill-opacity="1"/>
<defs>
  <clipPath id="clip891">
    <rect x="480" y="0" width="1681" height="1600"/>
  </clipPath>
</defs>
<defs>
  <clipPath id="clip892">
    <rect x="252" y="47" width="2101" height="1440"/>
  </clipPath>
</defs>
<path clip-path="url(#clip890)" d="M310.352 1423.18 L2352.76 1423.18 L2352.76 47.2441 L310.352 47.2441  Z" fill="#ffffff" fill-rule="evenodd" fill-opacity="1"/>
<defs>
  <clipPath id="clip893">
    <rect x="310" y="47" width="2043" height="1377"/>
  </clipPath>
</defs>
<polyline clip-path="url(#clip893)" style="stroke:#000000; stroke-linecap:round; stroke-linejoin:round; stroke-width:2; stroke-opacity:0.1; fill:none" points="310.352,1423.18 310.352,47.2441 "/>
<polyline clip-path="url(#clip893)" style="stroke:#000000; stroke-linecap:round; stroke-linejoin:round; stroke-width:2; stroke-opacity:0.1; fill:none" points="820.953,1423.18 820.953,47.2441 "/>
<polyline clip-path="url(#clip893)" style="stroke:#000000; stroke-linecap:round; stroke-linejoin:round; stroke-width:2; stroke-opacity:0.1; fill:none" points="1331.55,1423.18 1331.55,47.2441 "/>
<polyline clip-path="url(#clip893)" style="stroke:#000000; stroke-linecap:round; stroke-linejoin:round; stroke-width:2; stroke-opacity:0.1; fill:none" points="1842.15,1423.18 1842.15,47.2441 "/>
<polyline clip-path="url(#clip893)" style="stroke:#000000; stroke-linecap:round; stroke-linejoin:round; stroke-width:2; stroke-opacity:0.1; fill:none" points="2352.76,1423.18 2352.76,47.2441 "/>
<polyline clip-path="url(#clip890)" style="stroke:#000000; stroke-linecap:round; stroke-linejoin:round; stroke-width:4; stroke-opacity:1; fill:none" points="310.352,1423.18 2352.76,1423.18 "/>
<polyline clip-path="url(#clip890)" style="stroke:#000000; stroke-linecap:round; stroke-linejoin:round; stroke-width:4; stroke-opacity:1; fill:none" points="310.352,1423.18 310.352,1404.28 "/>
<polyline clip-path="url(#clip890)" style="stroke:#000000; stroke-linecap:round; stroke-linejoin:round; stroke-width:4; stroke-opacity:1; fill:none" points="820.953,1423.18 820.953,1404.28 "/>
<polyline clip-path="url(#clip890)" style="stroke:#000000; stroke-linecap:round; stroke-linejoin:round; stroke-width:4; stroke-opacity:1; fill:none" points="1331.55,1423.18 1331.55,1404.28 "/>
<polyline clip-path="url(#clip890)" style="stroke:#000000; stroke-linecap:round; stroke-linejoin:round; stroke-width:4; stroke-opacity:1; fill:none" points="1842.15,1423.18 1842.15,1404.28 "/>
<polyline clip-path="url(#clip890)" style="stroke:#000000; stroke-linecap:round; stroke-linejoin:round; stroke-width:4; stroke-opacity:1; fill:none" points="2352.76,1423.18 2352.76,1404.28 "/>
<path clip-path="url(#clip890)" d="M300.734 1481.64 L308.373 1481.64 L308.373 1455.28 L300.063 1456.95 L300.063 1452.69 L308.326 1451.02 L313.002 1451.02 L313.002 1481.64 L320.641 1481.64 L320.641 1485.58 L300.734 1485.58 L300.734 1481.64 Z" fill="#000000" fill-rule="evenodd" fill-opacity="1" /><path clip-path="url(#clip890)" d="M815.606 1481.64 L831.925 1481.64 L831.925 1485.58 L809.981 1485.58 L809.981 1481.64 Q812.643 1478.89 817.226 1474.26 Q821.833 1469.61 823.013 1468.27 Q825.258 1465.74 826.138 1464.01 Q827.041 1462.25 827.041 1460.56 Q827.041 1457.8 825.096 1456.07 Q823.175 1454.33 820.073 1454.33 Q817.874 1454.33 815.421 1455.09 Q812.99 1455.86 810.212 1457.41 L810.212 1452.69 Q813.036 1451.55 815.49 1450.97 Q817.944 1450.39 819.981 1450.39 Q825.351 1450.39 828.545 1453.08 Q831.74 1455.77 831.74 1460.26 Q831.74 1462.39 830.93 1464.31 Q830.143 1466.2 828.036 1468.8 Q827.457 1469.47 824.356 1472.69 Q821.254 1475.88 815.606 1481.64 Z" fill="#000000" fill-rule="evenodd" fill-opacity="1" /><path clip-path="url(#clip890)" d="M1335.8 1466.95 Q1339.16 1467.66 1341.03 1469.93 Q1342.93 1472.2 1342.93 1475.53 Q1342.93 1480.65 1339.41 1483.45 Q1335.89 1486.25 1329.41 1486.25 Q1327.24 1486.25 1324.92 1485.81 Q1322.63 1485.39 1320.18 1484.54 L1320.18 1480.02 Q1322.12 1481.16 1324.44 1481.74 Q1326.75 1482.32 1329.27 1482.32 Q1333.67 1482.32 1335.96 1480.58 Q1338.28 1478.84 1338.28 1475.53 Q1338.28 1472.48 1336.13 1470.77 Q1334 1469.03 1330.18 1469.03 L1326.15 1469.03 L1326.15 1465.19 L1330.36 1465.19 Q1333.81 1465.19 1335.64 1463.82 Q1337.47 1462.43 1337.47 1459.84 Q1337.47 1457.18 1335.57 1455.77 Q1333.7 1454.33 1330.18 1454.33 Q1328.26 1454.33 1326.06 1454.75 Q1323.86 1455.16 1321.22 1456.04 L1321.22 1451.88 Q1323.88 1451.14 1326.2 1450.77 Q1328.53 1450.39 1330.59 1450.39 Q1335.92 1450.39 1339.02 1452.83 Q1342.12 1455.23 1342.12 1459.35 Q1342.12 1462.22 1340.48 1464.21 Q1338.83 1466.18 1335.8 1466.95 Z" fill="#000000" fill-rule="evenodd" fill-opacity="1" /><path clip-path="url(#clip890)" d="M1845.16 1455.09 L1833.36 1473.54 L1845.16 1473.54 L1845.16 1455.09 M1843.94 1451.02 L1849.82 1451.02 L1849.82 1473.54 L1854.75 1473.54 L1854.75 1477.43 L1849.82 1477.43 L1849.82 1485.58 L1845.16 1485.58 L1845.16 1477.43 L1829.56 1477.43 L1829.56 1472.92 L1843.94 1451.02 Z" fill="#000000" fill-rule="evenodd" fill-opacity="1" /><path clip-path="url(#clip890)" d="M2343.03 1451.02 L2361.39 1451.02 L2361.39 1454.96 L2347.32 1454.96 L2347.32 1463.43 Q2348.33 1463.08 2349.35 1462.92 Q2350.37 1462.73 2351.39 1462.73 Q2357.18 1462.73 2360.56 1465.9 Q2363.94 1469.08 2363.94 1474.49 Q2363.94 1480.07 2360.46 1483.17 Q2356.99 1486.25 2350.67 1486.25 Q2348.5 1486.25 2346.23 1485.88 Q2343.98 1485.51 2341.58 1484.77 L2341.58 1480.07 Q2343.66 1481.2 2345.88 1481.76 Q2348.1 1482.32 2350.58 1482.32 Q2354.58 1482.32 2356.92 1480.21 Q2359.26 1478.1 2359.26 1474.49 Q2359.26 1470.88 2356.92 1468.77 Q2354.58 1466.67 2350.58 1466.67 Q2348.71 1466.67 2346.83 1467.08 Q2344.98 1467.5 2343.03 1468.38 L2343.03 1451.02 Z" fill="#000000" fill-rule="evenodd" fill-opacity="1" /><path clip-path="url(#clip890)" d="M1033.3 1550.12 Q1026.21 1550.12 1023.47 1551.75 Q1020.73 1553.37 1020.73 1557.29 Q1020.73 1560.4 1022.77 1562.25 Q1024.84 1564.07 1028.37 1564.07 Q1033.24 1564.07 1036.17 1560.63 Q1039.13 1557.16 1039.13 1551.43 L1039.13 1550.12 L1033.3 1550.12 M1044.99 1547.71 L1044.99 1568.04 L1039.13 1568.04 L1039.13 1562.63 Q1037.12 1565.88 1034.13 1567.44 Q1031.14 1568.97 1026.81 1568.97 Q1021.34 1568.97 1018.09 1565.91 Q1014.88 1562.82 1014.88 1557.67 Q1014.88 1551.65 1018.89 1548.6 Q1022.93 1545.54 1030.92 1545.54 L1039.13 1545.54 L1039.13 1544.97 Q1039.13 1540.93 1036.46 1538.73 Q1033.81 1536.5 1029.01 1536.5 Q1025.95 1536.5 1023.06 1537.23 Q1020.16 1537.97 1017.49 1539.43 L1017.49 1534.02 Q1020.7 1532.78 1023.72 1532.17 Q1026.75 1531.54 1029.61 1531.54 Q1037.35 1531.54 1041.17 1535.55 Q1044.99 1539.56 1044.99 1547.71 Z" fill="#000000" fill-rule="evenodd" fill-opacity="1" /><path clip-path="url(#clip890)" d="M1062.71 1562.7 L1062.71 1581.6 L1056.83 1581.6 L1056.83 1532.4 L1062.71 1532.4 L1062.71 1537.81 Q1064.56 1534.62 1067.36 1533.1 Q1070.19 1531.54 1074.11 1531.54 Q1080.6 1531.54 1084.64 1536.69 Q1088.72 1541.85 1088.72 1550.25 Q1088.72 1558.65 1084.64 1563.81 Q1080.6 1568.97 1074.11 1568.97 Q1070.19 1568.97 1067.36 1567.44 Q1064.56 1565.88 1062.71 1562.7 M1082.64 1550.25 Q1082.64 1543.79 1079.97 1540.13 Q1077.32 1536.44 1072.68 1536.44 Q1068.03 1536.44 1065.36 1540.13 Q1062.71 1543.79 1062.71 1550.25 Q1062.71 1556.71 1065.36 1560.4 Q1068.03 1564.07 1072.68 1564.07 Q1077.32 1564.07 1079.97 1560.4 Q1082.64 1556.71 1082.64 1550.25 Z" fill="#000000" fill-rule="evenodd" fill-opacity="1" /><path clip-path="url(#clip890)" d="M1104.09 1562.7 L1104.09 1581.6 L1098.2 1581.6 L1098.2 1532.4 L1104.09 1532.4 L1104.09 1537.81 Q1105.94 1534.62 1108.74 1533.1 Q1111.57 1531.54 1115.49 1531.54 Q1121.98 1531.54 1126.02 1536.69 Q1130.1 1541.85 1130.1 1550.25 Q1130.1 1558.65 1126.02 1563.81 Q1121.98 1568.97 1115.49 1568.97 Q1111.57 1568.97 1108.74 1567.44 Q1105.94 1565.88 1104.09 1562.7 M1124.02 1550.25 Q1124.02 1543.79 1121.34 1540.13 Q1118.7 1536.44 1114.05 1536.44 Q1109.41 1536.44 1106.73 1540.13 Q1104.09 1543.79 1104.09 1550.25 Q1104.09 1556.71 1106.73 1560.4 Q1109.41 1564.07 1114.05 1564.07 Q1118.7 1564.07 1121.34 1560.4 Q1124.02 1556.71 1124.02 1550.25 Z" fill="#000000" fill-rule="evenodd" fill-opacity="1" /><path clip-path="url(#clip890)" d="M1160.46 1537.87 Q1159.47 1537.3 1158.3 1537.04 Q1157.15 1536.76 1155.75 1536.76 Q1150.78 1536.76 1148.11 1540 Q1145.47 1543.22 1145.47 1549.27 L1145.47 1568.04 L1139.58 1568.04 L1139.58 1532.4 L1145.47 1532.4 L1145.47 1537.93 Q1147.31 1534.69 1150.27 1533.13 Q1153.23 1531.54 1157.47 1531.54 Q1158.07 1531.54 1158.8 1531.63 Q1159.54 1531.7 1160.43 1531.85 L1160.46 1537.87 Z" fill="#000000" fill-rule="evenodd" fill-opacity="1" /><path clip-path="url(#clip890)" d="M1178.98 1536.5 Q1174.27 1536.5 1171.54 1540.19 Q1168.8 1543.85 1168.8 1550.25 Q1168.8 1556.65 1171.5 1560.34 Q1174.24 1564 1178.98 1564 Q1183.66 1564 1186.4 1560.31 Q1189.14 1556.62 1189.14 1550.25 Q1189.14 1543.92 1186.4 1540.23 Q1183.66 1536.5 1178.98 1536.5 M1178.98 1531.54 Q1186.62 1531.54 1190.98 1536.5 Q1195.34 1541.47 1195.34 1550.25 Q1195.34 1559 1190.98 1564 Q1186.62 1568.97 1178.98 1568.97 Q1171.31 1568.97 1166.95 1564 Q1162.62 1559 1162.62 1550.25 Q1162.62 1541.47 1166.95 1536.5 Q1171.31 1531.54 1178.98 1531.54 Z" fill="#000000" fill-rule="evenodd" fill-opacity="1" /><path clip-path="url(#clip890)" d="M1232.68 1532.4 L1219.79 1549.74 L1233.35 1568.04 L1226.44 1568.04 L1216.06 1554.04 L1205.69 1568.04 L1198.78 1568.04 L1212.63 1549.39 L1199.96 1532.4 L1206.87 1532.4 L1216.32 1545.1 L1225.77 1532.4 L1232.68 1532.4 Z" fill="#000000" fill-rule="evenodd" fill-opacity="1" /><path clip-path="url(#clip890)" d="M1241.62 1532.4 L1247.48 1532.4 L1247.48 1568.04 L1241.62 1568.04 L1241.62 1532.4 M1241.62 1518.52 L1247.48 1518.52 L1247.48 1525.93 L1241.62 1525.93 L1241.62 1518.52 Z" fill="#000000" fill-rule="evenodd" fill-opacity="1" /><path clip-path="url(#clip890)" d="M1287.49 1539.24 Q1289.68 1535.29 1292.74 1533.41 Q1295.79 1531.54 1299.93 1531.54 Q1305.5 1531.54 1308.53 1535.45 Q1311.55 1539.33 1311.55 1546.53 L1311.55 1568.04 L1305.66 1568.04 L1305.66 1546.72 Q1305.66 1541.59 1303.85 1539.11 Q1302.03 1536.63 1298.31 1536.63 Q1293.76 1536.63 1291.12 1539.65 Q1288.47 1542.68 1288.47 1547.9 L1288.47 1568.04 L1282.59 1568.04 L1282.59 1546.72 Q1282.59 1541.56 1280.77 1539.11 Q1278.96 1536.63 1275.17 1536.63 Q1270.68 1536.63 1268.04 1539.68 Q1265.4 1542.71 1265.4 1547.9 L1265.4 1568.04 L1259.51 1568.04 L1259.51 1532.4 L1265.4 1532.4 L1265.4 1537.93 Q1267.4 1534.66 1270.2 1533.1 Q1273.01 1531.54 1276.86 1531.54 Q1280.74 1531.54 1283.45 1533.51 Q1286.18 1535.48 1287.49 1539.24 Z" fill="#000000" fill-rule="evenodd" fill-opacity="1" /><path clip-path="url(#clip890)" d="M1339.43 1550.12 Q1332.33 1550.12 1329.6 1551.75 Q1326.86 1553.37 1326.86 1557.29 Q1326.86 1560.4 1328.9 1562.25 Q1330.97 1564.07 1334.5 1564.07 Q1339.37 1564.07 1342.3 1560.63 Q1345.26 1557.16 1345.26 1551.43 L1345.26 1550.12 L1339.43 1550.12 M1351.11 1547.71 L1351.11 1568.04 L1345.26 1568.04 L1345.26 1562.63 Q1343.25 1565.88 1340.26 1567.44 Q1337.27 1568.97 1332.94 1568.97 Q1327.46 1568.97 1324.22 1565.91 Q1321 1562.82 1321 1557.67 Q1321 1551.65 1325.01 1548.6 Q1329.06 1545.54 1337.04 1545.54 L1345.26 1545.54 L1345.26 1544.97 Q1345.26 1540.93 1342.58 1538.73 Q1339.94 1536.5 1335.13 1536.5 Q1332.08 1536.5 1329.18 1537.23 Q1326.29 1537.97 1323.61 1539.43 L1323.61 1534.02 Q1326.83 1532.78 1329.85 1532.17 Q1332.87 1531.54 1335.74 1531.54 Q1343.47 1531.54 1347.29 1535.55 Q1351.11 1539.56 1351.11 1547.71 Z" fill="#000000" fill-rule="evenodd" fill-opacity="1" /><path clip-path="url(#clip890)" d="M1368.97 1522.27 L1368.97 1532.4 L1381.03 1532.4 L1381.03 1536.95 L1368.97 1536.95 L1368.97 1556.3 Q1368.97 1560.66 1370.15 1561.9 Q1371.36 1563.14 1375.02 1563.14 L1381.03 1563.14 L1381.03 1568.04 L1375.02 1568.04 Q1368.24 1568.04 1365.66 1565.53 Q1363.08 1562.98 1363.08 1556.3 L1363.08 1536.95 L1358.78 1536.95 L1358.78 1532.4 L1363.08 1532.4 L1363.08 1522.27 L1368.97 1522.27 Z" fill="#000000" fill-rule="evenodd" fill-opacity="1" /><path clip-path="url(#clip890)" d="M1388.73 1532.4 L1394.59 1532.4 L1394.59 1568.04 L1388.73 1568.04 L1388.73 1532.4 M1388.73 1518.52 L1394.59 1518.52 L1394.59 1525.93 L1388.73 1525.93 L1388.73 1518.52 Z" fill="#000000" fill-rule="evenodd" fill-opacity="1" /><path clip-path="url(#clip890)" d="M1420.66 1536.5 Q1415.95 1536.5 1413.21 1540.19 Q1410.47 1543.85 1410.47 1550.25 Q1410.47 1556.65 1413.18 1560.34 Q1415.92 1564 1420.66 1564 Q1425.34 1564 1428.07 1560.31 Q1430.81 1556.62 1430.81 1550.25 Q1430.81 1543.92 1428.07 1540.23 Q1425.34 1536.5 1420.66 1536.5 M1420.66 1531.54 Q1428.3 1531.54 1432.66 1536.5 Q1437.02 1541.47 1437.02 1550.25 Q1437.02 1559 1432.66 1564 Q1428.3 1568.97 1420.66 1568.97 Q1412.99 1568.97 1408.63 1564 Q1404.3 1559 1404.3 1550.25 Q1404.3 1541.47 1408.63 1536.5 Q1412.99 1531.54 1420.66 1531.54 Z" fill="#000000" fill-rule="evenodd" fill-opacity="1" /><path clip-path="url(#clip890)" d="M1476.36 1546.53 L1476.36 1568.04 L1470.5 1568.04 L1470.5 1546.72 Q1470.5 1541.66 1468.53 1539.14 Q1466.55 1536.63 1462.61 1536.63 Q1457.87 1536.63 1455.13 1539.65 Q1452.39 1542.68 1452.39 1547.9 L1452.39 1568.04 L1446.5 1568.04 L1446.5 1532.4 L1452.39 1532.4 L1452.39 1537.93 Q1454.49 1534.72 1457.32 1533.13 Q1460.19 1531.54 1463.91 1531.54 Q1470.06 1531.54 1473.21 1535.36 Q1476.36 1539.14 1476.36 1546.53 Z" fill="#000000" fill-rule="evenodd" fill-opacity="1" /><path clip-path="url(#clip890)" d="M1529.42 1537.87 Q1528.43 1537.3 1527.25 1537.04 Q1526.11 1536.76 1524.71 1536.76 Q1519.74 1536.76 1517.07 1540 Q1514.42 1543.22 1514.42 1549.27 L1514.42 1568.04 L1508.54 1568.04 L1508.54 1532.4 L1514.42 1532.4 L1514.42 1537.93 Q1516.27 1534.69 1519.23 1533.13 Q1522.19 1531.54 1526.42 1531.54 Q1527.03 1531.54 1527.76 1531.63 Q1528.49 1531.7 1529.38 1531.85 L1529.42 1537.87 Z" fill="#000000" fill-rule="evenodd" fill-opacity="1" /><path clip-path="url(#clip890)" d="M1551.76 1550.12 Q1544.66 1550.12 1541.92 1551.75 Q1539.19 1553.37 1539.19 1557.29 Q1539.19 1560.4 1541.22 1562.25 Q1543.29 1564.07 1546.83 1564.07 Q1551.7 1564.07 1554.62 1560.63 Q1557.58 1557.16 1557.58 1551.43 L1557.58 1550.12 L1551.76 1550.12 M1563.44 1547.71 L1563.44 1568.04 L1557.58 1568.04 L1557.58 1562.63 Q1555.58 1565.88 1552.59 1567.44 Q1549.6 1568.97 1545.27 1568.97 Q1539.79 1568.97 1536.55 1565.91 Q1533.33 1562.82 1533.33 1557.67 Q1533.33 1551.65 1537.34 1548.6 Q1541.38 1545.54 1549.37 1545.54 L1557.58 1545.54 L1557.58 1544.97 Q1557.58 1540.93 1554.91 1538.73 Q1552.27 1536.5 1547.46 1536.5 Q1544.41 1536.5 1541.51 1537.23 Q1538.61 1537.97 1535.94 1539.43 L1535.94 1534.02 Q1539.16 1532.78 1542.18 1532.17 Q1545.2 1531.54 1548.07 1531.54 Q1555.8 1531.54 1559.62 1535.55 Q1563.44 1539.56 1563.44 1547.71 Z" fill="#000000" fill-rule="evenodd" fill-opacity="1" /><path clip-path="url(#clip890)" d="M1605.14 1546.53 L1605.14 1568.04 L1599.28 1568.04 L1599.28 1546.72 Q1599.28 1541.66 1597.31 1539.14 Q1595.33 1536.63 1591.39 1536.63 Q1586.64 1536.63 1583.91 1539.65 Q1581.17 1542.68 1581.17 1547.9 L1581.17 1568.04 L1575.28 1568.04 L1575.28 1532.4 L1581.17 1532.4 L1581.17 1537.93 Q1583.27 1534.72 1586.1 1533.13 Q1588.97 1531.54 1592.69 1531.54 Q1598.83 1531.54 1601.99 1535.36 Q1605.14 1539.14 1605.14 1546.53 Z" fill="#000000" fill-rule="evenodd" fill-opacity="1" /><path clip-path="url(#clip890)" d="M1616.59 1518.52 L1622.48 1518.52 L1622.48 1547.77 L1639.96 1532.4 L1647.44 1532.4 L1628.53 1549.07 L1648.23 1568.04 L1640.59 1568.04 L1622.48 1550.63 L1622.48 1568.04 L1616.59 1568.04 L1616.59 1518.52 Z" fill="#000000" fill-rule="evenodd" fill-opacity="1" /><polyline clip-path="url(#clip893)" style="stroke:#000000; stroke-linecap:round; stroke-linejoin:round; stroke-width:2; stroke-opacity:0.1; fill:none" points="310.352,1170.8 2352.76,1170.8 "/>
<polyline clip-path="url(#clip893)" style="stroke:#000000; stroke-linecap:round; stroke-linejoin:round; stroke-width:2; stroke-opacity:0.1; fill:none" points="310.352,865.628 2352.76,865.628 "/>
<polyline clip-path="url(#clip893)" style="stroke:#000000; stroke-linecap:round; stroke-linejoin:round; stroke-width:2; stroke-opacity:0.1; fill:none" points="310.352,560.452 2352.76,560.452 "/>
<polyline clip-path="url(#clip893)" style="stroke:#000000; stroke-linecap:round; stroke-linejoin:round; stroke-width:2; stroke-opacity:0.1; fill:none" points="310.352,255.276 2352.76,255.276 "/>
<polyline clip-path="url(#clip890)" style="stroke:#000000; stroke-linecap:round; stroke-linejoin:round; stroke-width:4; stroke-opacity:1; fill:none" points="310.352,1423.18 310.352,47.2441 "/>
<polyline clip-path="url(#clip890)" style="stroke:#000000; stroke-linecap:round; stroke-linejoin:round; stroke-width:4; stroke-opacity:1; fill:none" points="310.352,1170.8 329.25,1170.8 "/>
<polyline clip-path="url(#clip890)" style="stroke:#000000; stroke-linecap:round; stroke-linejoin:round; stroke-width:4; stroke-opacity:1; fill:none" points="310.352,865.628 329.25,865.628 "/>
<polyline clip-path="url(#clip890)" style="stroke:#000000; stroke-linecap:round; stroke-linejoin:round; stroke-width:4; stroke-opacity:1; fill:none" points="310.352,560.452 329.25,560.452 "/>
<polyline clip-path="url(#clip890)" style="stroke:#000000; stroke-linecap:round; stroke-linejoin:round; stroke-width:4; stroke-opacity:1; fill:none" points="310.352,255.276 329.25,255.276 "/>
<path clip-path="url(#clip890)" d="M127.917 1156.6 Q124.306 1156.6 122.478 1160.17 Q120.672 1163.71 120.672 1170.84 Q120.672 1177.95 122.478 1181.51 Q124.306 1185.05 127.917 1185.05 Q131.552 1185.05 133.357 1181.51 Q135.186 1177.95 135.186 1170.84 Q135.186 1163.71 133.357 1160.17 Q131.552 1156.6 127.917 1156.6 M127.917 1152.9 Q133.728 1152.9 136.783 1157.51 Q139.862 1162.09 139.862 1170.84 Q139.862 1179.57 136.783 1184.17 Q133.728 1188.76 127.917 1188.76 Q122.107 1188.76 119.029 1184.17 Q115.973 1179.57 115.973 1170.84 Q115.973 1162.09 119.029 1157.51 Q122.107 1152.9 127.917 1152.9 Z" fill="#000000" fill-rule="evenodd" fill-opacity="1" /><path clip-path="url(#clip890)" d="M148.079 1182.2 L152.964 1182.2 L152.964 1188.08 L148.079 1188.08 L148.079 1182.2 Z" fill="#000000" fill-rule="evenodd" fill-opacity="1" /><path clip-path="url(#clip890)" d="M173.149 1156.6 Q169.538 1156.6 167.709 1160.17 Q165.903 1163.71 165.903 1170.84 Q165.903 1177.95 167.709 1181.51 Q169.538 1185.05 173.149 1185.05 Q176.783 1185.05 178.589 1181.51 Q180.417 1177.95 180.417 1170.84 Q180.417 1163.71 178.589 1160.17 Q176.783 1156.6 173.149 1156.6 M173.149 1152.9 Q178.959 1152.9 182.014 1157.51 Q185.093 1162.09 185.093 1170.84 Q185.093 1179.57 182.014 1184.17 Q178.959 1188.76 173.149 1188.76 Q167.339 1188.76 164.26 1184.17 Q161.204 1179.57 161.204 1170.84 Q161.204 1162.09 164.26 1157.51 Q167.339 1152.9 173.149 1152.9 Z" fill="#000000" fill-rule="evenodd" fill-opacity="1" /><path clip-path="url(#clip890)" d="M203.311 1156.6 Q199.7 1156.6 197.871 1160.17 Q196.065 1163.71 196.065 1170.84 Q196.065 1177.95 197.871 1181.51 Q199.7 1185.05 203.311 1185.05 Q206.945 1185.05 208.75 1181.51 Q210.579 1177.95 210.579 1170.84 Q210.579 1163.71 208.75 1160.17 Q206.945 1156.6 203.311 1156.6 M203.311 1152.9 Q209.121 1152.9 212.176 1157.51 Q215.255 1162.09 215.255 1170.84 Q215.255 1179.57 212.176 1184.17 Q209.121 1188.76 203.311 1188.76 Q197.5 1188.76 194.422 1184.17 Q191.366 1179.57 191.366 1170.84 Q191.366 1162.09 194.422 1157.51 Q197.5 1152.9 203.311 1152.9 Z" fill="#000000" fill-rule="evenodd" fill-opacity="1" /><path clip-path="url(#clip890)" d="M233.472 1156.6 Q229.861 1156.6 228.033 1160.17 Q226.227 1163.71 226.227 1170.84 Q226.227 1177.95 228.033 1181.51 Q229.861 1185.05 233.472 1185.05 Q237.107 1185.05 238.912 1181.51 Q240.741 1177.95 240.741 1170.84 Q240.741 1163.71 238.912 1160.17 Q237.107 1156.6 233.472 1156.6 M233.472 1152.9 Q239.283 1152.9 242.338 1157.51 Q245.417 1162.09 245.417 1170.84 Q245.417 1179.57 242.338 1184.17 Q239.283 1188.76 233.472 1188.76 Q227.662 1188.76 224.584 1184.17 Q221.528 1179.57 221.528 1170.84 Q221.528 1162.09 224.584 1157.51 Q227.662 1152.9 233.472 1152.9 Z" fill="#000000" fill-rule="evenodd" fill-opacity="1" /><path clip-path="url(#clip890)" d="M254.445 1184.15 L262.083 1184.15 L262.083 1157.78 L253.773 1159.45 L253.773 1155.19 L262.037 1153.52 L266.713 1153.52 L266.713 1184.15 L274.352 1184.15 L274.352 1188.08 L254.445 1188.08 L254.445 1184.15 Z" fill="#000000" fill-rule="evenodd" fill-opacity="1" /><path clip-path="url(#clip890)" d="M128.288 851.427 Q124.677 851.427 122.848 854.992 Q121.043 858.533 121.043 865.663 Q121.043 872.769 122.848 876.334 Q124.677 879.876 128.288 879.876 Q131.922 879.876 133.728 876.334 Q135.556 872.769 135.556 865.663 Q135.556 858.533 133.728 854.992 Q131.922 851.427 128.288 851.427 M128.288 847.723 Q134.098 847.723 137.154 852.33 Q140.232 856.913 140.232 865.663 Q140.232 874.39 137.154 878.996 Q134.098 883.579 128.288 883.579 Q122.478 883.579 119.399 878.996 Q116.343 874.39 116.343 865.663 Q116.343 856.913 119.399 852.33 Q122.478 847.723 128.288 847.723 Z" fill="#000000" fill-rule="evenodd" fill-opacity="1" /><path clip-path="url(#clip890)" d="M148.45 877.029 L153.334 877.029 L153.334 882.908 L148.45 882.908 L148.45 877.029 Z" fill="#000000" fill-rule="evenodd" fill-opacity="1" /><path clip-path="url(#clip890)" d="M173.519 851.427 Q169.908 851.427 168.079 854.992 Q166.274 858.533 166.274 865.663 Q166.274 872.769 168.079 876.334 Q169.908 879.876 173.519 879.876 Q177.153 879.876 178.959 876.334 Q180.788 872.769 180.788 865.663 Q180.788 858.533 178.959 854.992 Q177.153 851.427 173.519 851.427 M173.519 847.723 Q179.329 847.723 182.385 852.33 Q185.463 856.913 185.463 865.663 Q185.463 874.39 182.385 878.996 Q179.329 883.579 173.519 883.579 Q167.709 883.579 164.63 878.996 Q161.575 874.39 161.575 865.663 Q161.575 856.913 164.63 852.33 Q167.709 847.723 173.519 847.723 Z" fill="#000000" fill-rule="evenodd" fill-opacity="1" /><path clip-path="url(#clip890)" d="M203.681 851.427 Q200.07 851.427 198.241 854.992 Q196.436 858.533 196.436 865.663 Q196.436 872.769 198.241 876.334 Q200.07 879.876 203.681 879.876 Q207.315 879.876 209.121 876.334 Q210.949 872.769 210.949 865.663 Q210.949 858.533 209.121 854.992 Q207.315 851.427 203.681 851.427 M203.681 847.723 Q209.491 847.723 212.547 852.33 Q215.625 856.913 215.625 865.663 Q215.625 874.39 212.547 878.996 Q209.491 883.579 203.681 883.579 Q197.871 883.579 194.792 878.996 Q191.737 874.39 191.737 865.663 Q191.737 856.913 194.792 852.33 Q197.871 847.723 203.681 847.723 Z" fill="#000000" fill-rule="evenodd" fill-opacity="1" /><path clip-path="url(#clip890)" d="M233.843 851.427 Q230.232 851.427 228.403 854.992 Q226.598 858.533 226.598 865.663 Q226.598 872.769 228.403 876.334 Q230.232 879.876 233.843 879.876 Q237.477 879.876 239.283 876.334 Q241.111 872.769 241.111 865.663 Q241.111 858.533 239.283 854.992 Q237.477 851.427 233.843 851.427 M233.843 847.723 Q239.653 847.723 242.709 852.33 Q245.787 856.913 245.787 865.663 Q245.787 874.39 242.709 878.996 Q239.653 883.579 233.843 883.579 Q228.033 883.579 224.954 878.996 Q221.898 874.39 221.898 865.663 Q221.898 856.913 224.954 852.33 Q228.033 847.723 233.843 847.723 Z" fill="#000000" fill-rule="evenodd" fill-opacity="1" /><path clip-path="url(#clip890)" d="M258.033 878.973 L274.352 878.973 L274.352 882.908 L252.408 882.908 L252.408 878.973 Q255.07 876.218 259.653 871.589 Q264.259 866.936 265.44 865.593 Q267.685 863.07 268.565 861.334 Q269.468 859.575 269.468 857.885 Q269.468 855.13 267.523 853.394 Q265.602 851.658 262.5 851.658 Q260.301 851.658 257.847 852.422 Q255.417 853.186 252.639 854.737 L252.639 850.015 Q255.463 848.881 257.917 848.302 Q260.37 847.723 262.408 847.723 Q267.778 847.723 270.972 850.408 Q274.167 853.093 274.167 857.584 Q274.167 859.714 273.357 861.635 Q272.569 863.533 270.463 866.126 Q269.884 866.797 266.782 870.015 Q263.681 873.209 258.033 878.973 Z" fill="#000000" fill-rule="evenodd" fill-opacity="1" /><path clip-path="url(#clip890)" d="M127.339 546.251 Q123.728 546.251 121.899 549.816 Q120.093 553.357 120.093 560.487 Q120.093 567.593 121.899 571.158 Q123.728 574.7 127.339 574.7 Q130.973 574.7 132.779 571.158 Q134.607 567.593 134.607 560.487 Q134.607 553.357 132.779 549.816 Q130.973 546.251 127.339 546.251 M127.339 542.547 Q133.149 542.547 136.204 547.154 Q139.283 551.737 139.283 560.487 Q139.283 569.214 136.204 573.82 Q133.149 578.403 127.339 578.403 Q121.529 578.403 118.45 573.82 Q115.394 569.214 115.394 560.487 Q115.394 551.737 118.45 547.154 Q121.529 542.547 127.339 542.547 Z" fill="#000000" fill-rule="evenodd" fill-opacity="1" /><path clip-path="url(#clip890)" d="M147.501 571.853 L152.385 571.853 L152.385 577.732 L147.501 577.732 L147.501 571.853 Z" fill="#000000" fill-rule="evenodd" fill-opacity="1" /><path clip-path="url(#clip890)" d="M172.57 546.251 Q168.959 546.251 167.13 549.816 Q165.325 553.357 165.325 560.487 Q165.325 567.593 167.13 571.158 Q168.959 574.7 172.57 574.7 Q176.204 574.7 178.01 571.158 Q179.839 567.593 179.839 560.487 Q179.839 553.357 178.01 549.816 Q176.204 546.251 172.57 546.251 M172.57 542.547 Q178.38 542.547 181.436 547.154 Q184.514 551.737 184.514 560.487 Q184.514 569.214 181.436 573.82 Q178.38 578.403 172.57 578.403 Q166.76 578.403 163.681 573.82 Q160.626 569.214 160.626 560.487 Q160.626 551.737 163.681 547.154 Q166.76 542.547 172.57 542.547 Z" fill="#000000" fill-rule="evenodd" fill-opacity="1" /><path clip-path="url(#clip890)" d="M202.732 546.251 Q199.121 546.251 197.292 549.816 Q195.487 553.357 195.487 560.487 Q195.487 567.593 197.292 571.158 Q199.121 574.7 202.732 574.7 Q206.366 574.7 208.172 571.158 Q210 567.593 210 560.487 Q210 553.357 208.172 549.816 Q206.366 546.251 202.732 546.251 M202.732 542.547 Q208.542 542.547 211.598 547.154 Q214.676 551.737 214.676 560.487 Q214.676 569.214 211.598 573.82 Q208.542 578.403 202.732 578.403 Q196.922 578.403 193.843 573.82 Q190.788 569.214 190.788 560.487 Q190.788 551.737 193.843 547.154 Q196.922 542.547 202.732 542.547 Z" fill="#000000" fill-rule="evenodd" fill-opacity="1" /><path clip-path="url(#clip890)" d="M232.894 546.251 Q229.283 546.251 227.454 549.816 Q225.648 553.357 225.648 560.487 Q225.648 567.593 227.454 571.158 Q229.283 574.7 232.894 574.7 Q236.528 574.7 238.334 571.158 Q240.162 567.593 240.162 560.487 Q240.162 553.357 238.334 549.816 Q236.528 546.251 232.894 546.251 M232.894 542.547 Q238.704 542.547 241.759 547.154 Q244.838 551.737 244.838 560.487 Q244.838 569.214 241.759 573.82 Q238.704 578.403 232.894 578.403 Q227.084 578.403 224.005 573.82 Q220.949 569.214 220.949 560.487 Q220.949 551.737 224.005 547.154 Q227.084 542.547 232.894 542.547 Z" fill="#000000" fill-rule="evenodd" fill-opacity="1" /><path clip-path="url(#clip890)" d="M267.222 559.098 Q270.579 559.816 272.454 562.084 Q274.352 564.353 274.352 567.686 Q274.352 572.802 270.833 575.603 Q267.315 578.403 260.833 578.403 Q258.658 578.403 256.343 577.964 Q254.051 577.547 251.597 576.691 L251.597 572.177 Q253.542 573.311 255.857 573.89 Q258.171 574.468 260.695 574.468 Q265.093 574.468 267.384 572.732 Q269.699 570.996 269.699 567.686 Q269.699 564.63 267.546 562.917 Q265.417 561.181 261.597 561.181 L257.57 561.181 L257.57 557.339 L261.783 557.339 Q265.232 557.339 267.06 555.973 Q268.889 554.584 268.889 551.992 Q268.889 549.33 266.991 547.918 Q265.116 546.482 261.597 546.482 Q259.676 546.482 257.477 546.899 Q255.278 547.316 252.639 548.195 L252.639 544.029 Q255.301 543.288 257.616 542.918 Q259.954 542.547 262.014 542.547 Q267.338 542.547 270.44 544.978 Q273.542 547.385 273.542 551.505 Q273.542 554.376 271.898 556.367 Q270.255 558.334 267.222 559.098 Z" fill="#000000" fill-rule="evenodd" fill-opacity="1" /><path clip-path="url(#clip890)" d="M126.205 241.075 Q122.593 241.075 120.765 244.64 Q118.959 248.181 118.959 255.311 Q118.959 262.417 120.765 265.982 Q122.593 269.524 126.205 269.524 Q129.839 269.524 131.644 265.982 Q133.473 262.417 133.473 255.311 Q133.473 248.181 131.644 244.64 Q129.839 241.075 126.205 241.075 M126.205 237.371 Q132.015 237.371 135.07 241.978 Q138.149 246.561 138.149 255.311 Q138.149 264.038 135.07 268.644 Q132.015 273.228 126.205 273.228 Q120.394 273.228 117.316 268.644 Q114.26 264.038 114.26 255.311 Q114.26 246.561 117.316 241.978 Q120.394 237.371 126.205 237.371 Z" fill="#000000" fill-rule="evenodd" fill-opacity="1" /><path clip-path="url(#clip890)" d="M146.366 266.677 L151.251 266.677 L151.251 272.556 L146.366 272.556 L146.366 266.677 Z" fill="#000000" fill-rule="evenodd" fill-opacity="1" /><path clip-path="url(#clip890)" d="M171.436 241.075 Q167.825 241.075 165.996 244.64 Q164.19 248.181 164.19 255.311 Q164.19 262.417 165.996 265.982 Q167.825 269.524 171.436 269.524 Q175.07 269.524 176.876 265.982 Q178.704 262.417 178.704 255.311 Q178.704 248.181 176.876 244.64 Q175.07 241.075 171.436 241.075 M171.436 237.371 Q177.246 237.371 180.301 241.978 Q183.38 246.561 183.38 255.311 Q183.38 264.038 180.301 268.644 Q177.246 273.228 171.436 273.228 Q165.626 273.228 162.547 268.644 Q159.491 264.038 159.491 255.311 Q159.491 246.561 162.547 241.978 Q165.626 237.371 171.436 237.371 Z" fill="#000000" fill-rule="evenodd" fill-opacity="1" /><path clip-path="url(#clip890)" d="M201.598 241.075 Q197.987 241.075 196.158 244.64 Q194.352 248.181 194.352 255.311 Q194.352 262.417 196.158 265.982 Q197.987 269.524 201.598 269.524 Q205.232 269.524 207.037 265.982 Q208.866 262.417 208.866 255.311 Q208.866 248.181 207.037 244.64 Q205.232 241.075 201.598 241.075 M201.598 237.371 Q207.408 237.371 210.463 241.978 Q213.542 246.561 213.542 255.311 Q213.542 264.038 210.463 268.644 Q207.408 273.228 201.598 273.228 Q195.787 273.228 192.709 268.644 Q189.653 264.038 189.653 255.311 Q189.653 246.561 192.709 241.978 Q195.787 237.371 201.598 237.371 Z" fill="#000000" fill-rule="evenodd" fill-opacity="1" /><path clip-path="url(#clip890)" d="M231.76 241.075 Q228.148 241.075 226.32 244.64 Q224.514 248.181 224.514 255.311 Q224.514 262.417 226.32 265.982 Q228.148 269.524 231.76 269.524 Q235.394 269.524 237.199 265.982 Q239.028 262.417 239.028 255.311 Q239.028 248.181 237.199 244.64 Q235.394 241.075 231.76 241.075 M231.76 237.371 Q237.57 237.371 240.625 241.978 Q243.704 246.561 243.704 255.311 Q243.704 264.038 240.625 268.644 Q237.57 273.228 231.76 273.228 Q225.949 273.228 222.871 268.644 Q219.815 264.038 219.815 255.311 Q219.815 246.561 222.871 241.978 Q225.949 237.371 231.76 237.371 Z" fill="#000000" fill-rule="evenodd" fill-opacity="1" /><path clip-path="url(#clip890)" d="M264.769 242.07 L252.963 260.519 L264.769 260.519 L264.769 242.07 M263.542 237.996 L269.421 237.996 L269.421 260.519 L274.352 260.519 L274.352 264.408 L269.421 264.408 L269.421 272.556 L264.769 272.556 L264.769 264.408 L249.167 264.408 L249.167 259.894 L263.542 237.996 Z" fill="#000000" fill-rule="evenodd" fill-opacity="1" /><path clip-path="url(#clip890)" d="M18.8696 756.909 Q19.3527 756.909 20.0613 757.264 Q20.7054 757.586 21.124 758.262 Q21.5105 758.906 21.5105 759.615 Q21.5105 759.84 21.3817 760.355 Q20.9952 761.225 20.1257 762.578 Q19.2561 763.93 18.7086 765.154 Q18.1289 766.346 18.0645 767.666 Q18.0645 768.825 18.4832 769.792 Q18.9663 770.661 19.9968 771.241 Q20.4155 771.499 21.124 771.499 Q22.1224 771.499 23.4429 770.951 Q24.7633 770.404 26.4702 769.276 Q28.1771 768.117 29.3365 767.28 Q30.4637 766.442 32.3317 764.993 Q32.4927 764.864 32.5893 764.8 Q32.6537 764.735 32.8148 764.639 Q32.9436 764.542 33.0402 764.445 Q36.8727 761.386 41.0917 760.613 Q42.5732 760.42 44.119 760.42 Q47.2108 760.42 50.8501 761.354 Q54.1673 762.159 57.0336 763.866 Q59.8677 765.573 61.7356 768.149 Q63.6036 770.693 63.6036 773.463 Q63.6036 776.201 62.412 778.455 Q61.1881 780.709 59.0948 782.062 Q56.3251 783.898 52.4926 783.898 Q50.3348 783.898 48.499 783.383 Q45.5683 782.674 42.863 780.999 Q40.1577 779.325 38.0643 776.909 Q34.9726 773.238 34.103 769.244 Q30.5604 771.112 27.8229 772.207 Q25.0532 773.27 22.7021 773.27 Q20.641 773.27 19.3205 772.497 Q17.9035 771.821 17.0983 770.436 Q16.3898 769.276 16.0355 767.602 Q15.9067 766.571 15.9067 765.895 Q15.9067 763.608 17.1627 758.294 Q17.4848 756.909 18.8696 756.909 M46.7599 764.961 Q44.7954 764.961 43.4749 765.283 Q40.2543 765.895 35.8099 768.342 L35.4879 768.536 Q36.3896 771.66 39.1271 774.204 Q42.4765 777.392 48.8211 779.003 Q52.3637 779.872 54.3605 779.872 Q56.5183 779.872 58.3862 779.067 Q60.1253 778.294 61.1237 776.845 Q62.1221 775.363 62.1221 773.399 Q62.1221 771.917 61.2848 770.629 Q60.4152 769.341 58.9015 768.407 Q57.3878 767.473 55.7453 766.829 Q54.0706 766.152 52.1061 765.637 Q49.4652 764.961 46.7599 764.961 Z" fill="#000000" fill-rule="evenodd" fill-opacity="1" /><path clip-path="url(#clip890)" d="M65.231 731.337 Q66.4258 731.337 67.1923 732.126 Q67.9588 732.893 67.9588 733.885 Q67.9588 734.741 67.4629 735.192 Q66.9669 735.643 66.3356 735.643 Q65.4339 735.643 64.6899 734.944 Q63.946 734.245 63.7882 733.231 Q63.2471 733.975 63.2471 735.17 Q63.2471 737.131 64.7576 738.867 Q65.4564 739.634 66.7414 740.468 Q68.0039 741.302 68.545 741.46 L74.5642 742.925 Q75.2406 743.06 78.4869 743.894 Q81.7107 744.706 81.846 744.774 Q82.4772 744.999 82.8154 745.495 Q83.1535 745.991 83.1535 746.487 Q83.1535 747.051 82.8154 747.434 Q82.4772 747.817 81.8911 747.817 Q81.8009 747.817 81.4627 747.749 Q81.1246 747.682 80.6512 747.569 Q80.1777 747.456 79.9072 747.411 L69.2438 744.729 Q67.305 744.233 66.6964 744.12 Q66.0651 743.985 65.3662 743.985 Q64.1489 743.985 63.698 744.368 Q63.2471 744.751 63.2471 745.427 Q63.2471 746.6 64.6448 747.366 Q66.0426 748.133 68.7479 748.786 Q69.4918 748.989 69.6496 749.125 Q69.8074 749.237 69.8074 749.575 Q69.7849 750.139 69.334 750.139 Q69.2213 750.139 68.4999 749.959 Q67.7559 749.778 66.6738 749.44 Q65.5691 749.08 64.8703 748.696 Q64.3969 748.471 64.0812 748.268 Q63.7656 748.065 63.2696 747.659 Q62.7737 747.253 62.5031 746.645 Q62.2326 746.036 62.2326 745.292 Q62.2326 743.669 63.2246 742.519 Q64.2165 741.347 65.772 741.076 Q64.9605 740.513 64.2616 739.814 Q63.5402 739.115 62.8864 737.83 Q62.2326 736.545 62.2326 735.17 Q62.2326 733.456 63.1118 732.397 Q63.9685 731.337 65.231 731.337 Z" fill="#000000" fill-rule="evenodd" fill-opacity="1" /><path clip-path="url(#clip890)" d="M77.2921 710.927 Q77.495 710.746 77.6979 710.746 Q77.9008 710.746 78.4869 711.197 Q79.0731 711.626 79.8621 712.55 Q80.6512 713.474 81.3951 714.669 Q82.1391 715.864 82.635 717.622 Q83.1535 719.381 83.1535 721.229 Q83.1535 724.543 80.7864 726.527 Q78.4193 728.489 74.7897 728.489 Q72.4676 728.489 70.4161 727.722 Q68.3421 726.956 66.8767 725.716 Q65.4113 724.453 64.3518 722.875 Q63.2696 721.274 62.7511 719.606 Q62.2326 717.938 62.2326 716.382 Q62.2326 714.105 63.3824 712.775 Q64.5321 711.445 66.1553 711.445 Q66.5385 711.445 67.012 711.558 Q67.4854 711.648 68.2294 711.964 Q68.9733 712.257 69.7173 713.023 Q70.4387 713.79 70.9121 714.917 Q71.9717 717.419 71.9717 721.973 L71.9717 724.431 Q74.8799 725.152 76.7736 725.152 Q77.5175 725.152 78.284 725.017 Q79.028 724.882 79.9748 724.521 Q80.9217 724.138 81.5304 723.281 Q82.1165 722.402 82.1165 721.139 Q82.1165 720.733 82.094 720.305 Q82.0714 719.854 81.8234 718.727 Q81.5755 717.577 81.1471 716.563 Q80.7188 715.548 79.7945 714.263 Q78.8476 712.956 77.5626 711.919 Q77.0892 711.558 77.0892 711.31 Q77.0892 711.107 77.2921 710.927 M66.1553 712.978 Q64.9154 712.978 64.0812 713.903 Q63.2471 714.804 63.2471 716.382 Q63.2471 716.878 63.3598 717.487 Q63.4725 718.096 63.946 719.11 Q64.4194 720.102 65.2084 720.981 Q65.9749 721.861 67.4854 722.74 Q68.9733 723.619 70.9572 724.138 L70.9572 722.244 Q70.9572 721.59 70.9572 721.117 Q70.9346 720.643 70.8445 719.606 Q70.7543 718.547 70.5965 717.78 Q70.4161 717.014 70.0554 716.044 Q69.6947 715.075 69.2213 714.466 Q68.7253 713.835 67.9363 713.407 Q67.1472 712.978 66.1553 712.978 Z" fill="#000000" fill-rule="evenodd" fill-opacity="1" /><path clip-path="url(#clip890)" d="M51.0958 697.312 L77.7881 703.963 Q78.8476 704.233 79.9974 704.233 Q82.1165 704.233 82.1165 702.836 Q82.1165 702.182 81.6882 701.641 Q81.2373 701.1 80.3581 700.694 Q79.4563 700.266 78.5996 699.995 Q77.743 699.702 76.4129 699.341 Q75.8943 699.229 75.7365 699.116 Q75.5787 699.003 75.5787 698.688 Q75.5787 698.124 76.0296 698.124 Q78.8025 698.688 80.561 699.522 Q83.1535 700.739 83.1535 702.994 Q83.1535 704.684 81.9813 705.947 Q80.7864 707.187 78.8927 707.187 Q78.1713 707.187 77.3146 706.961 L54.2295 701.145 L53.3277 700.987 Q53.0797 700.987 52.9444 701.077 Q52.8092 701.167 52.6739 701.709 Q52.5387 702.227 52.5387 703.264 Q52.5387 703.692 52.5161 703.895 Q52.4936 704.076 52.3808 704.256 Q52.2681 704.414 52.0201 704.414 Q51.6143 704.414 51.3889 704.256 Q51.1635 704.076 51.1184 703.94 Q51.0733 703.805 51.0507 703.535 Q51.0282 703.151 50.9155 701.866 Q50.7802 700.581 50.69 699.477 Q50.5999 698.372 50.5999 697.899 Q50.5999 697.628 50.7351 697.493 Q50.8478 697.335 50.9831 697.312 L51.0958 697.312 Z" fill="#000000" fill-rule="evenodd" fill-opacity="1" /><polyline clip-path="url(#clip893)" style="stroke:#3da44d; stroke-linecap:round; stroke-linejoin:round; stroke-width:4; stroke-opacity:1; fill:none" points="310.352,86.1857 820.953,688.027 1331.55,1281.97 1842.15,1384.24 2352.76,1069.9 "/>
<path clip-path="url(#clip890)" d="M1618.08 196.789 L2284.68 196.789 L2284.68 93.1086 L1618.08 93.1086  Z" fill="#ffffff" fill-rule="evenodd" fill-opacity="1"/>
<polyline clip-path="url(#clip890)" style="stroke:#000000; stroke-linecap:round; stroke-linejoin:round; stroke-width:4; stroke-opacity:1; fill:none" points="1618.08,196.789 2284.68,196.789 2284.68,93.1086 1618.08,93.1086 1618.08,196.789 "/>
<polyline clip-path="url(#clip890)" style="stroke:#3da44d; stroke-linecap:round; stroke-linejoin:round; stroke-width:4; stroke-opacity:1; fill:none" points="1640.77,144.949 1776.93,144.949 "/>
<path clip-path="url(#clip890)" d="M1820.13 137.298 L1820.13 141.28 Q1818.33 140.284 1816.5 139.798 Q1814.69 139.289 1812.84 139.289 Q1808.7 139.289 1806.41 141.928 Q1804.11 144.544 1804.11 149.289 Q1804.11 154.034 1806.41 156.673 Q1808.7 159.289 1812.84 159.289 Q1814.69 159.289 1816.5 158.803 Q1818.33 158.293 1820.13 157.298 L1820.13 161.233 Q1818.35 162.067 1816.43 162.483 Q1814.53 162.9 1812.38 162.9 Q1806.52 162.9 1803.07 159.219 Q1799.62 155.539 1799.62 149.289 Q1799.62 142.946 1803.1 139.312 Q1806.59 135.678 1812.66 135.678 Q1814.62 135.678 1816.5 136.095 Q1818.37 136.488 1820.13 137.298 Z" fill="#000000" fill-rule="evenodd" fill-opacity="1" /><path clip-path="url(#clip890)" d="M1827.1 151.997 L1827.1 136.303 L1831.36 136.303 L1831.36 151.835 Q1831.36 155.516 1832.79 157.368 Q1834.23 159.196 1837.1 159.196 Q1840.55 159.196 1842.54 156.997 Q1844.55 154.798 1844.55 151.002 L1844.55 136.303 L1848.81 136.303 L1848.81 162.229 L1844.55 162.229 L1844.55 158.247 Q1843 160.608 1840.94 161.766 Q1838.91 162.9 1836.2 162.9 Q1831.73 162.9 1829.42 160.122 Q1827.1 157.344 1827.1 151.997 M1837.82 135.678 L1837.82 135.678 Z" fill="#000000" fill-rule="evenodd" fill-opacity="1" /><path clip-path="url(#clip890)" d="M1872.61 140.284 Q1871.89 139.868 1871.04 139.682 Q1870.2 139.474 1869.18 139.474 Q1865.57 139.474 1863.63 141.835 Q1861.71 144.173 1861.71 148.571 L1861.71 162.229 L1857.42 162.229 L1857.42 136.303 L1861.71 136.303 L1861.71 140.331 Q1863.05 137.969 1865.2 136.835 Q1867.35 135.678 1870.43 135.678 Q1870.87 135.678 1871.41 135.747 Q1871.94 135.794 1872.59 135.909 L1872.61 140.284 Z" fill="#000000" fill-rule="evenodd" fill-opacity="1" /><path clip-path="url(#clip890)" d="M1874.02 136.303 L1878.54 136.303 L1886.64 158.062 L1894.74 136.303 L1899.25 136.303 L1889.53 162.229 L1883.74 162.229 L1874.02 136.303 Z" fill="#000000" fill-rule="evenodd" fill-opacity="1" /><path clip-path="url(#clip890)" d="M1916.91 149.196 Q1911.75 149.196 1909.76 150.377 Q1907.77 151.557 1907.77 154.405 Q1907.77 156.673 1909.25 158.016 Q1910.76 159.335 1913.33 159.335 Q1916.87 159.335 1919 156.835 Q1921.15 154.312 1921.15 150.145 L1921.15 149.196 L1916.91 149.196 M1925.41 147.437 L1925.41 162.229 L1921.15 162.229 L1921.15 158.293 Q1919.69 160.655 1917.52 161.789 Q1915.34 162.9 1912.19 162.9 Q1908.21 162.9 1905.85 160.678 Q1903.51 158.432 1903.51 154.682 Q1903.51 150.307 1906.43 148.085 Q1909.37 145.863 1915.18 145.863 L1921.15 145.863 L1921.15 145.446 Q1921.15 142.507 1919.21 140.909 Q1917.29 139.289 1913.79 139.289 Q1911.57 139.289 1909.46 139.821 Q1907.35 140.354 1905.41 141.419 L1905.41 137.483 Q1907.75 136.581 1909.95 136.141 Q1912.15 135.678 1914.23 135.678 Q1919.85 135.678 1922.63 138.594 Q1925.41 141.511 1925.41 147.437 Z" fill="#000000" fill-rule="evenodd" fill-opacity="1" /><path clip-path="url(#clip890)" d="M1938.4 128.942 L1938.4 136.303 L1947.17 136.303 L1947.17 139.613 L1938.4 139.613 L1938.4 153.687 Q1938.4 156.858 1939.25 157.761 Q1940.13 158.664 1942.79 158.664 L1947.17 158.664 L1947.17 162.229 L1942.79 162.229 Q1937.86 162.229 1935.99 160.4 Q1934.11 158.548 1934.11 153.687 L1934.11 139.613 L1930.99 139.613 L1930.99 136.303 L1934.11 136.303 L1934.11 128.942 L1938.4 128.942 Z" fill="#000000" fill-rule="evenodd" fill-opacity="1" /><path clip-path="url(#clip890)" d="M1952.33 151.997 L1952.33 136.303 L1956.59 136.303 L1956.59 151.835 Q1956.59 155.516 1958.03 157.368 Q1959.46 159.196 1962.33 159.196 Q1965.78 159.196 1967.77 156.997 Q1969.78 154.798 1969.78 151.002 L1969.78 136.303 L1974.04 136.303 L1974.04 162.229 L1969.78 162.229 L1969.78 158.247 Q1968.23 160.608 1966.17 161.766 Q1964.14 162.9 1961.43 162.9 Q1956.96 162.9 1954.65 160.122 Q1952.33 157.344 1952.33 151.997 M1963.05 135.678 L1963.05 135.678 Z" fill="#000000" fill-rule="evenodd" fill-opacity="1" /><path clip-path="url(#clip890)" d="M1997.84 140.284 Q1997.12 139.868 1996.27 139.682 Q1995.43 139.474 1994.41 139.474 Q1990.8 139.474 1988.86 141.835 Q1986.94 144.173 1986.94 148.571 L1986.94 162.229 L1982.66 162.229 L1982.66 136.303 L1986.94 136.303 L1986.94 140.331 Q1988.28 137.969 1990.43 136.835 Q1992.59 135.678 1995.66 135.678 Q1996.1 135.678 1996.64 135.747 Q1997.17 135.794 1997.82 135.909 L1997.84 140.284 Z" fill="#000000" fill-rule="evenodd" fill-opacity="1" /><path clip-path="url(#clip890)" d="M2023.44 148.201 L2023.44 150.284 L2003.86 150.284 Q2004.14 154.682 2006.5 156.997 Q2008.88 159.289 2013.12 159.289 Q2015.57 159.289 2017.86 158.687 Q2020.18 158.085 2022.45 156.881 L2022.45 160.909 Q2020.15 161.881 2017.75 162.391 Q2015.34 162.9 2012.86 162.9 Q2006.66 162.9 2003.03 159.289 Q1999.41 155.678 1999.41 149.52 Q1999.41 143.155 2002.84 139.428 Q2006.29 135.678 2012.12 135.678 Q2017.35 135.678 2020.39 139.057 Q2023.44 142.414 2023.44 148.201 M2019.18 146.951 Q2019.14 143.456 2017.22 141.372 Q2015.32 139.289 2012.17 139.289 Q2008.6 139.289 2006.45 141.303 Q2004.32 143.317 2004 146.974 L2019.18 146.951 Z" fill="#000000" fill-rule="evenodd" fill-opacity="1" /><path clip-path="url(#clip890)" d="M2064.16 137.298 L2064.16 141.28 Q2062.35 140.284 2060.53 139.798 Q2058.72 139.289 2056.87 139.289 Q2052.72 139.289 2050.43 141.928 Q2048.14 144.544 2048.14 149.289 Q2048.14 154.034 2050.43 156.673 Q2052.72 159.289 2056.87 159.289 Q2058.72 159.289 2060.53 158.803 Q2062.35 158.293 2064.16 157.298 L2064.16 161.233 Q2062.38 162.067 2060.46 162.483 Q2058.56 162.9 2056.4 162.9 Q2050.55 162.9 2047.1 159.219 Q2043.65 155.539 2043.65 149.289 Q2043.65 142.946 2047.12 139.312 Q2050.62 135.678 2056.68 135.678 Q2058.65 135.678 2060.53 136.095 Q2062.4 136.488 2064.16 137.298 Z" fill="#000000" fill-rule="evenodd" fill-opacity="1" /><path clip-path="url(#clip890)" d="M2081.61 139.289 Q2078.19 139.289 2076.2 141.974 Q2074.21 144.636 2074.21 149.289 Q2074.21 153.942 2076.17 156.627 Q2078.16 159.289 2081.61 159.289 Q2085.02 159.289 2087.01 156.604 Q2089 153.918 2089 149.289 Q2089 144.682 2087.01 141.997 Q2085.02 139.289 2081.61 139.289 M2081.61 135.678 Q2087.17 135.678 2090.34 139.289 Q2093.51 142.9 2093.51 149.289 Q2093.51 155.655 2090.34 159.289 Q2087.17 162.9 2081.61 162.9 Q2076.03 162.9 2072.86 159.289 Q2069.71 155.655 2069.71 149.289 Q2069.71 142.9 2072.86 139.289 Q2076.03 135.678 2081.61 135.678 Z" fill="#000000" fill-rule="evenodd" fill-opacity="1" /><path clip-path="url(#clip890)" d="M2115.59 140.284 Q2114.88 139.868 2114.02 139.682 Q2113.19 139.474 2112.17 139.474 Q2108.56 139.474 2106.61 141.835 Q2104.69 144.173 2104.69 148.571 L2104.69 162.229 L2100.41 162.229 L2100.41 136.303 L2104.69 136.303 L2104.69 140.331 Q2106.03 137.969 2108.19 136.835 Q2110.34 135.678 2113.42 135.678 Q2113.86 135.678 2114.39 135.747 Q2114.92 135.794 2115.57 135.909 L2115.59 140.284 Z" fill="#000000" fill-rule="evenodd" fill-opacity="1" /><path clip-path="url(#clip890)" d="M2134.25 140.284 Q2133.53 139.868 2132.68 139.682 Q2131.84 139.474 2130.83 139.474 Q2127.21 139.474 2125.27 141.835 Q2123.35 144.173 2123.35 148.571 L2123.35 162.229 L2119.07 162.229 L2119.07 136.303 L2123.35 136.303 L2123.35 140.331 Q2124.69 137.969 2126.84 136.835 Q2129 135.678 2132.08 135.678 Q2132.52 135.678 2133.05 135.747 Q2133.58 135.794 2134.23 135.909 L2134.25 140.284 Z" fill="#000000" fill-rule="evenodd" fill-opacity="1" /><path clip-path="url(#clip890)" d="M2159.85 148.201 L2159.85 150.284 L2140.27 150.284 Q2140.55 154.682 2142.91 156.997 Q2145.29 159.289 2149.53 159.289 Q2151.98 159.289 2154.27 158.687 Q2156.59 158.085 2158.86 156.881 L2158.86 160.909 Q2156.57 161.881 2154.16 162.391 Q2151.75 162.9 2149.27 162.9 Q2143.07 162.9 2139.44 159.289 Q2135.83 155.678 2135.83 149.52 Q2135.83 143.155 2139.25 139.428 Q2142.7 135.678 2148.53 135.678 Q2153.77 135.678 2156.8 139.057 Q2159.85 142.414 2159.85 148.201 M2155.59 146.951 Q2155.55 143.456 2153.63 141.372 Q2151.73 139.289 2148.58 139.289 Q2145.02 139.289 2142.86 141.303 Q2140.73 143.317 2140.41 146.974 L2155.59 146.951 Z" fill="#000000" fill-rule="evenodd" fill-opacity="1" /><path clip-path="url(#clip890)" d="M2185.5 137.298 L2185.5 141.28 Q2183.7 140.284 2181.87 139.798 Q2180.06 139.289 2178.21 139.289 Q2174.07 139.289 2171.77 141.928 Q2169.48 144.544 2169.48 149.289 Q2169.48 154.034 2171.77 156.673 Q2174.07 159.289 2178.21 159.289 Q2180.06 159.289 2181.87 158.803 Q2183.7 158.293 2185.5 157.298 L2185.5 161.233 Q2183.72 162.067 2181.8 162.483 Q2179.9 162.9 2177.75 162.9 Q2171.89 162.9 2168.44 159.219 Q2164.99 155.539 2164.99 149.289 Q2164.99 142.946 2168.46 139.312 Q2171.96 135.678 2178.02 135.678 Q2179.99 135.678 2181.87 136.095 Q2183.74 136.488 2185.5 137.298 Z" fill="#000000" fill-rule="evenodd" fill-opacity="1" /><path clip-path="url(#clip890)" d="M2197.12 128.942 L2197.12 136.303 L2205.89 136.303 L2205.89 139.613 L2197.12 139.613 L2197.12 153.687 Q2197.12 156.858 2197.98 157.761 Q2198.86 158.664 2201.52 158.664 L2205.89 158.664 L2205.89 162.229 L2201.52 162.229 Q2196.59 162.229 2194.71 160.4 Q2192.84 158.548 2192.84 153.687 L2192.84 139.613 L2189.71 139.613 L2189.71 136.303 L2192.84 136.303 L2192.84 128.942 L2197.12 128.942 Z" fill="#000000" fill-rule="evenodd" fill-opacity="1" /><path clip-path="url(#clip890)" d="M2233.67 148.201 L2233.67 150.284 L2214.09 150.284 Q2214.37 154.682 2216.73 156.997 Q2219.11 159.289 2223.35 159.289 Q2225.8 159.289 2228.09 158.687 Q2230.41 158.085 2232.68 156.881 L2232.68 160.909 Q2230.39 161.881 2227.98 162.391 Q2225.57 162.9 2223.09 162.9 Q2216.89 162.9 2213.26 159.289 Q2209.64 155.678 2209.64 149.52 Q2209.64 143.155 2213.07 139.428 Q2216.52 135.678 2222.35 135.678 Q2227.58 135.678 2230.62 139.057 Q2233.67 142.414 2233.67 148.201 M2229.41 146.951 Q2229.37 143.456 2227.45 141.372 Q2225.55 139.289 2222.4 139.289 Q2218.83 139.289 2216.68 141.303 Q2214.55 143.317 2214.23 146.974 L2229.41 146.951 Z" fill="#000000" fill-rule="evenodd" fill-opacity="1" /><path clip-path="url(#clip890)" d="M2257.72 140.238 L2257.72 126.21 L2261.98 126.21 L2261.98 162.229 L2257.72 162.229 L2257.72 158.34 Q2256.38 160.655 2254.32 161.789 Q2252.28 162.9 2249.41 162.9 Q2244.71 162.9 2241.75 159.15 Q2238.81 155.4 2238.81 149.289 Q2238.81 143.178 2241.75 139.428 Q2244.71 135.678 2249.41 135.678 Q2252.28 135.678 2254.32 136.812 Q2256.38 137.923 2257.72 140.238 M2243.21 149.289 Q2243.21 153.988 2245.13 156.673 Q2247.08 159.335 2250.45 159.335 Q2253.83 159.335 2255.78 156.673 Q2257.72 153.988 2257.72 149.289 Q2257.72 144.59 2255.78 141.928 Q2253.83 139.243 2250.45 139.243 Q2247.08 139.243 2245.13 141.928 Q2243.21 144.59 2243.21 149.289 Z" fill="#000000" fill-rule="evenodd" fill-opacity="1" /></svg>
