<?xml version="1.0" encoding="utf-8"?>
<svg xmlns="http://www.w3.org/2000/svg" xmlns:xlink="http://www.w3.org/1999/xlink" width="600" height="400" viewBox="0 0 2400 1600">
<defs>
  <clipPath id="clip680">
    <rect x="0" y="0" width="2400" height="1600"/>
  </clipPath>
</defs>
<path clip-path="url(#clip680)" d="M0 1600 L2400 1600 L2400 0 L0 0  Z" fill="#ffffff" fill-rule="evenodd" fill-opacity="1"/>
<defs>
  <clipPath id="clip681">
    <rect x="480" y="0" width="1681" height="1600"/>
  </clipPath>
</defs>
<defs>
  <clipPath id="clip682">
    <rect x="250" y="47" width="2104" height="1377"/>
  </clipPath>
</defs>
<path clip-path="url(#clip680)" d="M252.764 1423.18 L2352.76 1423.18 L2352.76 47.2441 L252.764 47.2441  Z" fill="#ffffff" fill-rule="evenodd" fill-opacity="1"/>
<defs>
  <clipPath id="clip683">
    <rect x="252" y="47" width="2101" height="1377"/>
  </clipPath>
</defs>
<polyline clip-path="url(#clip683)" style="stroke:#000000; stroke-linecap:round; stroke-linejoin:round; stroke-width:2; stroke-opacity:0.1; fill:none" points="252.764,1423.18 252.764,47.2441 "/>
<polyline clip-path="url(#clip683)" style="stroke:#000000; stroke-linecap:round; stroke-linejoin:round; stroke-width:2; stroke-opacity:0.1; fill:none" points="777.762,1423.18 777.762,47.2441 "/>
<polyline clip-path="url(#clip683)" style="stroke:#000000; stroke-linecap:round; stroke-linejoin:round; stroke-width:2; stroke-opacity:0.1; fill:none" points="1302.76,1423.18 1302.76,47.2441 "/>
<polyline clip-path="url(#clip683)" style="stroke:#000000; stroke-linecap:round; stroke-linejoin:round; stroke-width:2; stroke-opacity:0.1; fill:none" points="1827.76,1423.18 1827.76,47.2441 "/>
<polyline clip-path="url(#clip683)" style="stroke:#000000; stroke-linecap:round; stroke-linejoin:round; stroke-width:2; stroke-opacity:0.1; fill:none" points="2352.76,1423.18 2352.76,47.2441 "/>
<polyline clip-path="url(#clip680)" style="stroke:#000000; stroke-linecap:round; stroke-linejoin:round; stroke-width:4; stroke-opacity:1; fill:none" points="252.764,1423.18 2352.76,1423.18 "/>
<polyline clip-path="url(#clip680)" style="stroke:#000000; stroke-linecap:round; stroke-linejoin:round; stroke-width:4; stroke-opacity:1; fill:none" points="252.764,1423.18 252.764,1404.28 "/>
<polyline clip-path="url(#clip680)" style="stroke:#000000; stroke-linecap:round; stroke-linejoin:round; stroke-width:4; stroke-opacity:1; fill:none" points="777.762,1423.18 777.762,1404.28 "/>
<polyline clip-path="url(#clip680)" style="stroke:#000000; stroke-linecap:round; stroke-linejoin:round; stroke-width:4; stroke-opacity:1; fill:none" points="1302.76,1423.18 1302.76,1404.28 "/>
<polyline clip-path="url(#clip680)" style="stroke:#000000; stroke-linecap:round; stroke-linejoin:round; stroke-width:4; stroke-opacity:1; fill:none" points="1827.76,1423.18 1827.76,1404.28 "/>
<polyline clip-path="url(#clip680)" style="stroke:#000000; stroke-linecap:round; stroke-linejoin:round; stroke-width:4; stroke-opacity:1; fill:none" points="2352.76,1423.18 2352.76,1404.28 "/>
<path clip-path="url(#clip680)" d="M243.146 1481.64 L250.785 1481.64 L250.785 1455.28 L242.475 1456.95 L242.475 1452.69 L250.738 1451.02 L255.414 1451.02 L255.414 1481.64 L263.053 1481.64 L263.053 1485.58 L243.146 1485.58 L243.146 1481.64 Z" fill="#000000" fill-rule="evenodd" fill-opacity="1" /><path clip-path="url(#clip680)" d="M772.415 1481.64 L788.734 1481.64 L788.734 1485.58 L766.79 1485.58 L766.79 1481.64 Q769.452 1478.89 774.035 1474.26 Q778.642 1469.61 779.822 1468.27 Q782.067 1465.74 782.947 1464.01 Q783.85 1462.25 783.85 1460.56 Q783.85 1457.8 781.905 1456.07 Q779.984 1454.33 776.882 1454.33 Q774.683 1454.33 772.23 1455.09 Q769.799 1455.86 767.021 1457.41 L767.021 1452.69 Q769.845 1451.55 772.299 1450.97 Q774.753 1450.39 776.79 1450.39 Q782.16 1450.39 785.354 1453.08 Q788.549 1455.77 788.549 1460.26 Q788.549 1462.39 787.739 1464.31 Q786.952 1466.2 784.845 1468.8 Q784.267 1469.47 781.165 1472.69 Q778.063 1475.88 772.415 1481.64 Z" fill="#000000" fill-rule="evenodd" fill-opacity="1" /><path clip-path="url(#clip680)" d="M1307.01 1466.95 Q1310.36 1467.66 1312.24 1469.93 Q1314.14 1472.2 1314.14 1475.53 Q1314.14 1480.65 1310.62 1483.45 Q1307.1 1486.25 1300.62 1486.25 Q1298.44 1486.25 1296.13 1485.81 Q1293.84 1485.39 1291.38 1484.54 L1291.38 1480.02 Q1293.33 1481.16 1295.64 1481.74 Q1297.96 1482.32 1300.48 1482.32 Q1304.88 1482.32 1307.17 1480.58 Q1309.48 1478.84 1309.48 1475.53 Q1309.48 1472.48 1307.33 1470.77 Q1305.2 1469.03 1301.38 1469.03 L1297.35 1469.03 L1297.35 1465.19 L1301.57 1465.19 Q1305.02 1465.19 1306.85 1463.82 Q1308.67 1462.43 1308.67 1459.84 Q1308.67 1457.18 1306.78 1455.77 Q1304.9 1454.33 1301.38 1454.33 Q1299.46 1454.33 1297.26 1454.75 Q1295.06 1455.16 1292.42 1456.04 L1292.42 1451.88 Q1295.09 1451.14 1297.4 1450.77 Q1299.74 1450.39 1301.8 1450.39 Q1307.12 1450.39 1310.23 1452.83 Q1313.33 1455.23 1313.33 1459.35 Q1313.33 1462.22 1311.68 1464.21 Q1310.04 1466.18 1307.01 1466.95 Z" fill="#000000" fill-rule="evenodd" fill-opacity="1" /><path clip-path="url(#clip680)" d="M1830.77 1455.09 L1818.96 1473.54 L1830.77 1473.54 L1830.77 1455.09 M1829.54 1451.02 L1835.42 1451.02 L1835.42 1473.54 L1840.35 1473.54 L1840.35 1477.43 L1835.42 1477.43 L1835.42 1485.58 L1830.77 1485.58 L1830.77 1477.43 L1815.17 1477.43 L1815.17 1472.92 L1829.54 1451.02 Z" fill="#000000" fill-rule="evenodd" fill-opacity="1" /><path clip-path="url(#clip680)" d="M2343.03 1451.02 L2361.39 1451.02 L2361.39 1454.96 L2347.32 1454.96 L2347.32 1463.43 Q2348.33 1463.08 2349.35 1462.92 Q2350.37 1462.73 2351.39 1462.73 Q2357.18 1462.73 2360.56 1465.9 Q2363.94 1469.08 2363.94 1474.49 Q2363.94 1480.07 2360.46 1483.17 Q2356.99 1486.25 2350.67 1486.25 Q2348.5 1486.25 2346.23 1485.88 Q2343.98 1485.51 2341.58 1484.77 L2341.58 1480.07 Q2343.66 1481.2 2345.88 1481.76 Q2348.1 1482.32 2350.58 1482.32 Q2354.58 1482.32 2356.92 1480.21 Q2359.26 1478.1 2359.26 1474.49 Q2359.26 1470.88 2356.92 1468.77 Q2354.58 1466.67 2350.58 1466.67 Q2348.71 1466.67 2346.83 1467.08 Q2344.98 1467.5 2343.03 1468.38 L2343.03 1451.02 Z" fill="#000000" fill-rule="evenodd" fill-opacity="1" /><path clip-path="url(#clip680)" d="M1004.51 1550.12 Q997.413 1550.12 994.676 1551.75 Q991.938 1553.37 991.938 1557.29 Q991.938 1560.4 993.975 1562.25 Q996.044 1564.07 999.577 1564.07 Q1004.45 1564.07 1007.38 1560.63 Q1010.34 1557.16 1010.34 1551.43 L1010.34 1550.12 L1004.51 1550.12 M1016.19 1547.71 L1016.19 1568.04 L1010.34 1568.04 L1010.34 1562.63 Q1008.33 1565.88 1005.34 1567.44 Q1002.35 1568.97 998.018 1568.97 Q992.543 1568.97 989.297 1565.91 Q986.082 1562.82 986.082 1557.67 Q986.082 1551.65 990.092 1548.6 Q994.135 1545.54 1002.12 1545.54 L1010.34 1545.54 L1010.34 1544.97 Q1010.34 1540.93 1007.66 1538.73 Q1005.02 1536.5 1000.21 1536.5 Q997.158 1536.5 994.262 1537.23 Q991.365 1537.97 988.692 1539.43 L988.692 1534.02 Q991.907 1532.78 994.93 1532.17 Q997.954 1531.54 1000.82 1531.54 Q1008.55 1531.54 1012.37 1535.55 Q1016.19 1539.56 1016.19 1547.71 Z" fill="#000000" fill-rule="evenodd" fill-opacity="1" /><path clip-path="url(#clip680)" d="M1033.92 1562.7 L1033.92 1581.6 L1028.03 1581.6 L1028.03 1532.4 L1033.92 1532.4 L1033.92 1537.81 Q1035.77 1534.62 1038.57 1533.1 Q1041.4 1531.54 1045.31 1531.54 Q1051.81 1531.54 1055.85 1536.69 Q1059.92 1541.85 1059.92 1550.25 Q1059.92 1558.65 1055.85 1563.81 Q1051.81 1568.97 1045.31 1568.97 Q1041.4 1568.97 1038.57 1567.44 Q1035.77 1565.88 1033.92 1562.7 M1053.84 1550.25 Q1053.84 1543.79 1051.17 1540.13 Q1048.53 1536.44 1043.88 1536.44 Q1039.24 1536.44 1036.56 1540.13 Q1033.92 1543.79 1033.92 1550.25 Q1033.92 1556.71 1036.56 1560.4 Q1039.24 1564.07 1043.88 1564.07 Q1048.53 1564.07 1051.17 1560.4 Q1053.84 1556.71 1053.84 1550.25 Z" fill="#000000" fill-rule="evenodd" fill-opacity="1" /><path clip-path="url(#clip680)" d="M1075.3 1562.7 L1075.3 1581.6 L1069.41 1581.6 L1069.41 1532.4 L1075.3 1532.4 L1075.3 1537.81 Q1077.14 1534.62 1079.94 1533.1 Q1082.78 1531.54 1086.69 1531.54 Q1093.18 1531.54 1097.23 1536.69 Q1101.3 1541.85 1101.3 1550.25 Q1101.3 1558.65 1097.23 1563.81 Q1093.18 1568.97 1086.69 1568.97 Q1082.78 1568.97 1079.94 1567.44 Q1077.14 1565.88 1075.3 1562.7 M1095.22 1550.25 Q1095.22 1543.79 1092.55 1540.13 Q1089.91 1536.44 1085.26 1536.44 Q1080.61 1536.44 1077.94 1540.13 Q1075.3 1543.79 1075.3 1550.25 Q1075.3 1556.71 1077.94 1560.4 Q1080.61 1564.07 1085.26 1564.07 Q1089.91 1564.07 1092.55 1560.4 Q1095.22 1556.71 1095.22 1550.25 Z" fill="#000000" fill-rule="evenodd" fill-opacity="1" /><path clip-path="url(#clip680)" d="M1131.67 1537.87 Q1130.68 1537.3 1129.5 1537.04 Q1128.36 1536.76 1126.96 1536.76 Q1121.99 1536.76 1119.32 1540 Q1116.67 1543.22 1116.67 1549.27 L1116.67 1568.04 L1110.79 1568.04 L1110.79 1532.4 L1116.67 1532.4 L1116.67 1537.93 Q1118.52 1534.69 1121.48 1533.13 Q1124.44 1531.54 1128.67 1531.54 Q1129.28 1531.54 1130.01 1531.63 Q1130.74 1531.7 1131.63 1531.85 L1131.67 1537.87 Z" fill="#000000" fill-rule="evenodd" fill-opacity="1" /><path clip-path="url(#clip680)" d="M1150.19 1536.5 Q1145.48 1536.5 1142.74 1540.19 Q1140 1543.85 1140 1550.25 Q1140 1556.65 1142.71 1560.34 Q1145.45 1564 1150.19 1564 Q1154.87 1564 1157.61 1560.31 Q1160.34 1556.62 1160.34 1550.25 Q1160.34 1543.92 1157.61 1540.23 Q1154.87 1536.5 1150.19 1536.5 M1150.19 1531.54 Q1157.83 1531.54 1162.19 1536.5 Q1166.55 1541.47 1166.55 1550.25 Q1166.55 1559 1162.19 1564 Q1157.83 1568.97 1150.19 1568.97 Q1142.52 1568.97 1138.16 1564 Q1133.83 1559 1133.83 1550.25 Q1133.83 1541.47 1138.16 1536.5 Q1142.52 1531.54 1150.19 1531.54 Z" fill="#000000" fill-rule="evenodd" fill-opacity="1" /><path clip-path="url(#clip680)" d="M1203.88 1532.4 L1190.99 1549.74 L1204.55 1568.04 L1197.65 1568.04 L1187.27 1554.04 L1176.89 1568.04 L1169.99 1568.04 L1183.83 1549.39 L1171.16 1532.4 L1178.07 1532.4 L1187.52 1545.1 L1196.98 1532.4 L1203.88 1532.4 Z" fill="#000000" fill-rule="evenodd" fill-opacity="1" /><path clip-path="url(#clip680)" d="M1212.83 1532.4 L1218.68 1532.4 L1218.68 1568.04 L1212.83 1568.04 L1212.83 1532.4 M1212.83 1518.52 L1218.68 1518.52 L1218.68 1525.93 L1212.83 1525.93 L1212.83 1518.52 Z" fill="#000000" fill-rule="evenodd" fill-opacity="1" /><path clip-path="url(#clip680)" d="M1258.69 1539.24 Q1260.89 1535.29 1263.95 1533.41 Q1267 1531.54 1271.14 1531.54 Q1276.71 1531.54 1279.73 1535.45 Q1282.76 1539.33 1282.76 1546.53 L1282.76 1568.04 L1276.87 1568.04 L1276.87 1546.72 Q1276.87 1541.59 1275.05 1539.11 Q1273.24 1536.63 1269.52 1536.63 Q1264.96 1536.63 1262.32 1539.65 Q1259.68 1542.68 1259.68 1547.9 L1259.68 1568.04 L1253.79 1568.04 L1253.79 1546.72 Q1253.79 1541.56 1251.98 1539.11 Q1250.16 1536.63 1246.38 1536.63 Q1241.89 1536.63 1239.25 1539.68 Q1236.6 1542.71 1236.6 1547.9 L1236.6 1568.04 L1230.72 1568.04 L1230.72 1532.4 L1236.6 1532.4 L1236.6 1537.93 Q1238.61 1534.66 1241.41 1533.1 Q1244.21 1531.54 1248.06 1531.54 Q1251.95 1531.54 1254.65 1533.51 Q1257.39 1535.48 1258.69 1539.24 Z" fill="#000000" fill-rule="evenodd" fill-opacity="1" /><path clip-path="url(#clip680)" d="M1310.64 1550.12 Q1303.54 1550.12 1300.8 1551.75 Q1298.07 1553.37 1298.07 1557.29 Q1298.07 1560.4 1300.1 1562.25 Q1302.17 1564.07 1305.7 1564.07 Q1310.57 1564.07 1313.5 1560.63 Q1316.46 1557.16 1316.46 1551.43 L1316.46 1550.12 L1310.64 1550.12 M1322.32 1547.71 L1322.32 1568.04 L1316.46 1568.04 L1316.46 1562.63 Q1314.46 1565.88 1311.47 1567.44 Q1308.47 1568.97 1304.14 1568.97 Q1298.67 1568.97 1295.42 1565.91 Q1292.21 1562.82 1292.21 1557.67 Q1292.21 1551.65 1296.22 1548.6 Q1300.26 1545.54 1308.25 1545.54 L1316.46 1545.54 L1316.46 1544.97 Q1316.46 1540.93 1313.79 1538.73 Q1311.15 1536.5 1306.34 1536.5 Q1303.29 1536.5 1300.39 1537.23 Q1297.49 1537.97 1294.82 1539.43 L1294.82 1534.02 Q1298.03 1532.78 1301.06 1532.17 Q1304.08 1531.54 1306.95 1531.54 Q1314.68 1531.54 1318.5 1535.55 Q1322.32 1539.56 1322.32 1547.71 Z" fill="#000000" fill-rule="evenodd" fill-opacity="1" /><path clip-path="url(#clip680)" d="M1340.17 1522.27 L1340.17 1532.4 L1352.24 1532.4 L1352.24 1536.95 L1340.17 1536.95 L1340.17 1556.3 Q1340.17 1560.66 1341.35 1561.9 Q1342.56 1563.14 1346.22 1563.14 L1352.24 1563.14 L1352.24 1568.04 L1346.22 1568.04 Q1339.44 1568.04 1336.86 1565.53 Q1334.29 1562.98 1334.29 1556.3 L1334.29 1536.95 L1329.99 1536.95 L1329.99 1532.4 L1334.29 1532.4 L1334.29 1522.27 L1340.17 1522.27 Z" fill="#000000" fill-rule="evenodd" fill-opacity="1" /><path clip-path="url(#clip680)" d="M1359.94 1532.4 L1365.8 1532.4 L1365.8 1568.04 L1359.94 1568.04 L1359.94 1532.4 M1359.94 1518.52 L1365.8 1518.52 L1365.8 1525.93 L1359.94 1525.93 L1359.94 1518.52 Z" fill="#000000" fill-rule="evenodd" fill-opacity="1" /><path clip-path="url(#clip680)" d="M1391.86 1536.5 Q1387.15 1536.5 1384.42 1540.19 Q1381.68 1543.85 1381.68 1550.25 Q1381.68 1556.65 1384.38 1560.34 Q1387.12 1564 1391.86 1564 Q1396.54 1564 1399.28 1560.31 Q1402.02 1556.62 1402.02 1550.25 Q1402.02 1543.92 1399.28 1540.23 Q1396.54 1536.5 1391.86 1536.5 M1391.86 1531.54 Q1399.5 1531.54 1403.86 1536.5 Q1408.22 1541.47 1408.22 1550.25 Q1408.22 1559 1403.86 1564 Q1399.5 1568.97 1391.86 1568.97 Q1384.19 1568.97 1379.83 1564 Q1375.5 1559 1375.5 1550.25 Q1375.5 1541.47 1379.83 1536.5 Q1384.19 1531.54 1391.86 1531.54 Z" fill="#000000" fill-rule="evenodd" fill-opacity="1" /><path clip-path="url(#clip680)" d="M1447.56 1546.53 L1447.56 1568.04 L1441.71 1568.04 L1441.71 1546.72 Q1441.71 1541.66 1439.73 1539.14 Q1437.76 1536.63 1433.81 1536.63 Q1429.07 1536.63 1426.33 1539.65 Q1423.6 1542.68 1423.6 1547.9 L1423.6 1568.04 L1417.71 1568.04 L1417.71 1532.4 L1423.6 1532.4 L1423.6 1537.93 Q1425.7 1534.72 1428.53 1533.13 Q1431.39 1531.54 1435.12 1531.54 Q1441.26 1531.54 1444.41 1535.36 Q1447.56 1539.14 1447.56 1546.53 Z" fill="#000000" fill-rule="evenodd" fill-opacity="1" /><path clip-path="url(#clip680)" d="M1500.62 1537.87 Q1499.64 1537.3 1498.46 1537.04 Q1497.31 1536.76 1495.91 1536.76 Q1490.95 1536.76 1488.27 1540 Q1485.63 1543.22 1485.63 1549.27 L1485.63 1568.04 L1479.74 1568.04 L1479.74 1532.4 L1485.63 1532.4 L1485.63 1537.93 Q1487.48 1534.69 1490.44 1533.13 Q1493.4 1531.54 1497.63 1531.54 Q1498.23 1531.54 1498.97 1531.63 Q1499.7 1531.7 1500.59 1531.85 L1500.62 1537.87 Z" fill="#000000" fill-rule="evenodd" fill-opacity="1" /><path clip-path="url(#clip680)" d="M1522.97 1550.12 Q1515.87 1550.12 1513.13 1551.75 Q1510.39 1553.37 1510.39 1557.29 Q1510.39 1560.4 1512.43 1562.25 Q1514.5 1564.07 1518.03 1564.07 Q1522.9 1564.07 1525.83 1560.63 Q1528.79 1557.16 1528.79 1551.43 L1528.79 1550.12 L1522.97 1550.12 M1534.65 1547.71 L1534.65 1568.04 L1528.79 1568.04 L1528.79 1562.63 Q1526.79 1565.88 1523.79 1567.44 Q1520.8 1568.97 1516.47 1568.97 Q1511 1568.97 1507.75 1565.91 Q1504.54 1562.82 1504.54 1557.67 Q1504.54 1551.65 1508.55 1548.6 Q1512.59 1545.54 1520.58 1545.54 L1528.79 1545.54 L1528.79 1544.97 Q1528.79 1540.93 1526.12 1538.73 Q1523.47 1536.5 1518.67 1536.5 Q1515.61 1536.5 1512.72 1537.23 Q1509.82 1537.97 1507.15 1539.43 L1507.15 1534.02 Q1510.36 1532.78 1513.39 1532.17 Q1516.41 1531.54 1519.27 1531.54 Q1527.01 1531.54 1530.83 1535.55 Q1534.65 1539.56 1534.65 1547.71 Z" fill="#000000" fill-rule="evenodd" fill-opacity="1" /><path clip-path="url(#clip680)" d="M1576.34 1546.53 L1576.34 1568.04 L1570.49 1568.04 L1570.49 1546.72 Q1570.49 1541.66 1568.51 1539.14 Q1566.54 1536.63 1562.59 1536.63 Q1557.85 1536.63 1555.11 1539.65 Q1552.38 1542.68 1552.38 1547.9 L1552.38 1568.04 L1546.49 1568.04 L1546.49 1532.4 L1552.38 1532.4 L1552.38 1537.93 Q1554.48 1534.72 1557.31 1533.13 Q1560.17 1531.54 1563.9 1531.54 Q1570.04 1531.54 1573.19 1535.36 Q1576.34 1539.14 1576.34 1546.53 Z" fill="#000000" fill-rule="evenodd" fill-opacity="1" /><path clip-path="url(#clip680)" d="M1587.8 1518.52 L1593.69 1518.52 L1593.69 1547.77 L1611.16 1532.4 L1618.64 1532.4 L1599.74 1549.07 L1619.44 1568.04 L1611.8 1568.04 L1593.69 1550.63 L1593.69 1568.04 L1587.8 1568.04 L1587.8 1518.52 Z" fill="#000000" fill-rule="evenodd" fill-opacity="1" /><polyline clip-path="url(#clip683)" style="stroke:#000000; stroke-linecap:round; stroke-linejoin:round; stroke-width:2; stroke-opacity:0.1; fill:none" points="252.764,1423.18 2352.76,1423.18 "/>
<polyline clip-path="url(#clip683)" style="stroke:#000000; stroke-linecap:round; stroke-linejoin:round; stroke-width:2; stroke-opacity:0.1; fill:none" points="252.764,1079.2 2352.76,1079.2 "/>
<polyline clip-path="url(#clip683)" style="stroke:#000000; stroke-linecap:round; stroke-linejoin:round; stroke-width:2; stroke-opacity:0.1; fill:none" points="252.764,735.212 2352.76,735.212 "/>
<polyline clip-path="url(#clip683)" style="stroke:#000000; stroke-linecap:round; stroke-linejoin:round; stroke-width:2; stroke-opacity:0.1; fill:none" points="252.764,391.228 2352.76,391.228 "/>
<polyline clip-path="url(#clip683)" style="stroke:#000000; stroke-linecap:round; stroke-linejoin:round; stroke-width:2; stroke-opacity:0.1; fill:none" points="252.764,47.2441 2352.76,47.2441 "/>
<polyline clip-path="url(#clip680)" style="stroke:#000000; stroke-linecap:round; stroke-linejoin:round; stroke-width:4; stroke-opacity:1; fill:none" points="252.764,1423.18 252.764,47.2441 "/>
<polyline clip-path="url(#clip680)" style="stroke:#000000; stroke-linecap:round; stroke-linejoin:round; stroke-width:4; stroke-opacity:1; fill:none" points="252.764,1423.18 271.662,1423.18 "/>
<polyline clip-path="url(#clip680)" style="stroke:#000000; stroke-linecap:round; stroke-linejoin:round; stroke-width:4; stroke-opacity:1; fill:none" points="252.764,1079.2 271.662,1079.2 "/>
<polyline clip-path="url(#clip680)" style="stroke:#000000; stroke-linecap:round; stroke-linejoin:round; stroke-width:4; stroke-opacity:1; fill:none" points="252.764,735.212 271.662,735.212 "/>
<polyline clip-path="url(#clip680)" style="stroke:#000000; stroke-linecap:round; stroke-linejoin:round; stroke-width:4; stroke-opacity:1; fill:none" points="252.764,391.228 271.662,391.228 "/>
<polyline clip-path="url(#clip680)" style="stroke:#000000; stroke-linecap:round; stroke-linejoin:round; stroke-width:4; stroke-opacity:1; fill:none" points="252.764,47.2441 271.662,47.2441 "/>
<path clip-path="url(#clip680)" d="M114.931 1442.97 L122.57 1442.97 L122.57 1416.61 L114.26 1418.27 L114.26 1414.01 L122.524 1412.35 L127.2 1412.35 L127.2 1442.97 L134.839 1442.97 L134.839 1446.91 L114.931 1446.91 L114.931 1442.97 Z" fill="#000000" fill-rule="evenodd" fill-opacity="1" /><path clip-path="url(#clip680)" d="M154.283 1415.43 Q150.672 1415.43 148.843 1418.99 Q147.038 1422.53 147.038 1429.66 Q147.038 1436.77 148.843 1440.33 Q150.672 1443.88 154.283 1443.88 Q157.917 1443.88 159.723 1440.33 Q161.552 1436.77 161.552 1429.66 Q161.552 1422.53 159.723 1418.99 Q157.917 1415.43 154.283 1415.43 M154.283 1411.72 Q160.093 1411.72 163.149 1416.33 Q166.227 1420.91 166.227 1429.66 Q166.227 1438.39 163.149 1443 Q160.093 1447.58 154.283 1447.58 Q148.473 1447.58 145.394 1443 Q142.339 1438.39 142.339 1429.66 Q142.339 1420.91 145.394 1416.33 Q148.473 1411.72 154.283 1411.72 Z" fill="#000000" fill-rule="evenodd" fill-opacity="1" /><path clip-path="url(#clip680)" d="M166.227 1405.82 L190.339 1405.82 L190.339 1409.02 L166.227 1409.02 L166.227 1405.82 Z" fill="#000000" fill-rule="evenodd" fill-opacity="1" /><path clip-path="url(#clip680)" d="M208.978 1394.73 L199.386 1409.72 L208.978 1409.72 L208.978 1394.73 M207.981 1391.42 L212.758 1391.42 L212.758 1409.72 L216.764 1409.72 L216.764 1412.88 L212.758 1412.88 L212.758 1419.5 L208.978 1419.5 L208.978 1412.88 L196.301 1412.88 L196.301 1409.21 L207.981 1391.42 Z" fill="#000000" fill-rule="evenodd" fill-opacity="1" /><path clip-path="url(#clip680)" d="M115.853 1098.99 L123.492 1098.99 L123.492 1072.62 L115.182 1074.29 L115.182 1070.03 L123.446 1068.36 L128.121 1068.36 L128.121 1098.99 L135.76 1098.99 L135.76 1102.92 L115.853 1102.92 L115.853 1098.99 Z" fill="#000000" fill-rule="evenodd" fill-opacity="1" /><path clip-path="url(#clip680)" d="M155.205 1071.44 Q151.594 1071.44 149.765 1075.01 Q147.959 1078.55 147.959 1085.68 Q147.959 1092.78 149.765 1096.35 Q151.594 1099.89 155.205 1099.89 Q158.839 1099.89 160.644 1096.35 Q162.473 1092.78 162.473 1085.68 Q162.473 1078.55 160.644 1075.01 Q158.839 1071.44 155.205 1071.44 M155.205 1067.74 Q161.015 1067.74 164.07 1072.34 Q167.149 1076.93 167.149 1085.68 Q167.149 1094.41 164.07 1099.01 Q161.015 1103.59 155.205 1103.59 Q149.395 1103.59 146.316 1099.01 Q143.26 1094.41 143.26 1085.68 Q143.26 1076.93 146.316 1072.34 Q149.395 1067.74 155.205 1067.74 Z" fill="#000000" fill-rule="evenodd" fill-opacity="1" /><path clip-path="url(#clip680)" d="M167.149 1061.84 L191.261 1061.84 L191.261 1065.04 L167.149 1065.04 L167.149 1061.84 Z" fill="#000000" fill-rule="evenodd" fill-opacity="1" /><path clip-path="url(#clip680)" d="M210.971 1060.37 Q213.698 1060.96 215.222 1062.8 Q216.764 1064.64 216.764 1067.35 Q216.764 1071.51 213.905 1073.78 Q211.046 1076.06 205.78 1076.06 Q204.012 1076.06 202.132 1075.7 Q200.27 1075.36 198.276 1074.67 L198.276 1071 Q199.856 1071.92 201.737 1072.39 Q203.617 1072.86 205.667 1072.86 Q209.241 1072.86 211.103 1071.45 Q212.984 1070.04 212.984 1067.35 Q212.984 1064.87 211.234 1063.48 Q209.504 1062.07 206.401 1062.07 L203.128 1062.07 L203.128 1058.94 L206.551 1058.94 Q209.354 1058.94 210.84 1057.83 Q212.325 1056.71 212.325 1054.6 Q212.325 1052.44 210.783 1051.29 Q209.26 1050.12 206.401 1050.12 Q204.84 1050.12 203.053 1050.46 Q201.266 1050.8 199.122 1051.51 L199.122 1048.13 Q201.285 1047.53 203.166 1047.23 Q205.066 1046.93 206.739 1046.93 Q211.065 1046.93 213.585 1048.9 Q216.106 1050.86 216.106 1054.2 Q216.106 1056.54 214.77 1058.15 Q213.435 1059.75 210.971 1060.37 Z" fill="#000000" fill-rule="evenodd" fill-opacity="1" /><path clip-path="url(#clip680)" d="M116.624 755.004 L124.263 755.004 L124.263 728.639 L115.953 730.305 L115.953 726.046 L124.217 724.38 L128.893 724.38 L128.893 755.004 L136.531 755.004 L136.531 758.94 L116.624 758.94 L116.624 755.004 Z" fill="#000000" fill-rule="evenodd" fill-opacity="1" /><path clip-path="url(#clip680)" d="M155.976 727.458 Q152.365 727.458 150.536 731.023 Q148.73 734.565 148.73 741.694 Q148.73 748.801 150.536 752.366 Q152.365 755.907 155.976 755.907 Q159.61 755.907 161.416 752.366 Q163.244 748.801 163.244 741.694 Q163.244 734.565 161.416 731.023 Q159.61 727.458 155.976 727.458 M155.976 723.755 Q161.786 723.755 164.841 728.361 Q167.92 732.944 167.92 741.694 Q167.92 750.421 164.841 755.028 Q161.786 759.611 155.976 759.611 Q150.166 759.611 147.087 755.028 Q144.031 750.421 144.031 741.694 Q144.031 732.944 147.087 728.361 Q150.166 723.755 155.976 723.755 Z" fill="#000000" fill-rule="evenodd" fill-opacity="1" /><path clip-path="url(#clip680)" d="M167.92 717.856 L192.032 717.856 L192.032 721.053 L167.92 721.053 L167.92 717.856 Z" fill="#000000" fill-rule="evenodd" fill-opacity="1" /><path clip-path="url(#clip680)" d="M203.504 728.332 L216.764 728.332 L216.764 731.529 L198.934 731.529 L198.934 728.332 Q201.097 726.094 204.821 722.332 Q208.564 718.552 209.523 717.461 Q211.347 715.411 212.062 714 Q212.796 712.571 212.796 711.198 Q212.796 708.96 211.216 707.549 Q209.655 706.139 207.134 706.139 Q205.348 706.139 203.354 706.759 Q201.379 707.38 199.122 708.64 L199.122 704.803 Q201.417 703.882 203.41 703.412 Q205.404 702.941 207.059 702.941 Q211.423 702.941 214.018 705.123 Q216.613 707.305 216.613 710.953 Q216.613 712.684 215.955 714.245 Q215.316 715.787 213.604 717.894 Q213.134 718.439 210.614 721.053 Q208.094 723.649 203.504 728.332 Z" fill="#000000" fill-rule="evenodd" fill-opacity="1" /><path clip-path="url(#clip680)" d="M116.323 411.02 L123.962 411.02 L123.962 384.655 L115.652 386.322 L115.652 382.062 L123.916 380.396 L128.592 380.396 L128.592 411.02 L136.231 411.02 L136.231 414.956 L116.323 414.956 L116.323 411.02 Z" fill="#000000" fill-rule="evenodd" fill-opacity="1" /><path clip-path="url(#clip680)" d="M155.675 383.474 Q152.064 383.474 150.235 387.039 Q148.43 390.581 148.43 397.71 Q148.43 404.817 150.235 408.382 Q152.064 411.923 155.675 411.923 Q159.309 411.923 161.115 408.382 Q162.943 404.817 162.943 397.71 Q162.943 390.581 161.115 387.039 Q159.309 383.474 155.675 383.474 M155.675 379.771 Q161.485 379.771 164.541 384.377 Q167.619 388.96 167.619 397.71 Q167.619 406.437 164.541 411.044 Q161.485 415.627 155.675 415.627 Q149.865 415.627 146.786 411.044 Q143.73 406.437 143.73 397.71 Q143.73 388.96 146.786 384.377 Q149.865 379.771 155.675 379.771 Z" fill="#000000" fill-rule="evenodd" fill-opacity="1" /><path clip-path="url(#clip680)" d="M167.619 373.872 L191.731 373.872 L191.731 377.069 L167.619 377.069 L167.619 373.872 Z" fill="#000000" fill-rule="evenodd" fill-opacity="1" /><path clip-path="url(#clip680)" d="M200.589 384.348 L206.796 384.348 L206.796 362.926 L200.044 364.28 L200.044 360.819 L206.758 359.465 L210.557 359.465 L210.557 384.348 L216.764 384.348 L216.764 387.545 L200.589 387.545 L200.589 384.348 Z" fill="#000000" fill-rule="evenodd" fill-opacity="1" /><path clip-path="url(#clip680)" d="M146.058 67.0365 L153.697 67.0365 L153.697 40.6709 L145.387 42.3376 L145.387 38.0784 L153.651 36.4117 L158.327 36.4117 L158.327 67.0365 L165.966 67.0365 L165.966 70.9717 L146.058 70.9717 L146.058 67.0365 Z" fill="#000000" fill-rule="evenodd" fill-opacity="1" /><path clip-path="url(#clip680)" d="M185.41 39.4904 Q181.799 39.4904 179.97 43.0552 Q178.165 46.5968 178.165 53.7264 Q178.165 60.8329 179.97 64.3977 Q181.799 67.9393 185.41 67.9393 Q189.044 67.9393 190.85 64.3977 Q192.678 60.8329 192.678 53.7264 Q192.678 46.5968 190.85 43.0552 Q189.044 39.4904 185.41 39.4904 M185.41 35.7867 Q191.22 35.7867 194.276 40.3932 Q197.354 44.9765 197.354 53.7264 Q197.354 62.4532 194.276 67.0597 Q191.22 71.643 185.41 71.643 Q179.6 71.643 176.521 67.0597 Q173.466 62.4532 173.466 53.7264 Q173.466 44.9765 176.521 40.3932 Q179.6 35.7867 185.41 35.7867 Z" fill="#000000" fill-rule="evenodd" fill-opacity="1" /><path clip-path="url(#clip680)" d="M207.059 17.9827 Q204.125 17.9827 202.639 20.8791 Q201.172 23.7567 201.172 29.5495 Q201.172 35.3235 202.639 38.2199 Q204.125 41.0975 207.059 41.0975 Q210.012 41.0975 211.479 38.2199 Q212.965 35.3235 212.965 29.5495 Q212.965 23.7567 211.479 20.8791 Q210.012 17.9827 207.059 17.9827 M207.059 14.9735 Q211.78 14.9735 214.263 18.7162 Q216.764 22.4402 216.764 29.5495 Q216.764 36.64 214.263 40.3828 Q211.78 44.1067 207.059 44.1067 Q202.338 44.1067 199.837 40.3828 Q197.354 36.64 197.354 29.5495 Q197.354 22.4402 199.837 18.7162 Q202.338 14.9735 207.059 14.9735 Z" fill="#000000" fill-rule="evenodd" fill-opacity="1" /><path clip-path="url(#clip680)" d="M27.9392 757.108 Q28.6155 757.108 29.163 757.688 Q29.7105 758.236 29.7105 758.912 Q29.7105 759.298 29.0664 760.232 Q27.1985 762.905 27.1985 766.287 Q27.1985 769.314 27.9392 772.116 Q28.6799 774.918 30.1936 776.818 Q31.6751 778.686 33.6074 778.686 Q36.0229 778.686 37.4399 776.045 Q36.1839 773.308 36.1839 769.926 Q36.1839 768.831 36.2483 768.09 Q36.3127 767.318 36.4738 766.577 Q36.6348 765.836 37.0213 765.482 Q37.3755 765.095 37.9552 765.095 Q40.0164 765.095 40.0164 770.442 Q40.0164 773.92 39.0824 776.11 Q40.4673 778.912 42.6895 780.458 Q44.9117 782.003 46.8118 782.003 Q48.4543 782.003 49.646 781.102 Q50.8376 780.168 51.4173 778.654 Q51.997 777.108 52.2546 775.594 Q52.4801 774.049 52.4801 772.342 Q52.4801 769.54 52.1258 767.575 Q51.7393 765.578 51.0308 764.483 Q50.3223 763.356 49.8392 762.905 Q49.3239 762.422 48.5187 761.939 Q48.0679 761.649 48.0679 761.263 Q48.0679 760.973 48.2611 760.78 Q48.4221 760.554 48.712 760.554 Q49.0662 760.554 49.807 761.005 Q50.5477 761.424 51.5461 762.454 Q52.5123 763.453 53.414 764.838 Q54.2836 766.19 54.8955 768.348 Q55.5074 770.506 55.5074 772.954 Q55.5074 777.945 53.0598 780.844 Q50.6121 783.71 47.1983 783.71 Q44.8151 783.71 42.3674 782.132 Q39.8876 780.522 38.3095 777.688 Q36.3449 780.329 33.6074 780.329 Q31.1598 780.329 28.9698 778.268 Q26.7798 776.174 25.4916 772.793 Q24.1711 769.379 24.1711 765.643 Q24.1711 763.549 24.8796 761.488 Q25.556 759.427 26.4255 758.268 Q27.2951 757.108 27.9392 757.108 M38.0196 766.802 Q37.6332 768.219 37.6332 769.926 Q37.6332 772.245 38.2129 773.952 Q38.5671 772.567 38.5671 770.442 Q38.5671 768.67 38.4705 768.155 Q38.3739 767.607 38.0196 766.802 Z" fill="#000000" fill-rule="evenodd" fill-opacity="1" /><path clip-path="url(#clip680)" d="M57.1294 731.525 Q58.3243 731.525 59.0908 732.314 Q59.8573 733.08 59.8573 734.072 Q59.8573 734.929 59.3613 735.38 Q58.8653 735.831 58.2341 735.831 Q57.3323 735.831 56.5884 735.132 Q55.8444 734.433 55.6866 733.419 Q55.1455 734.162 55.1455 735.357 Q55.1455 737.319 56.656 739.055 Q57.3549 739.821 58.6399 740.655 Q59.9023 741.489 60.4434 741.647 L66.4627 743.112 Q67.139 743.248 70.3854 744.082 Q73.6092 744.893 73.7444 744.961 Q74.3757 745.187 74.7138 745.683 Q75.052 746.178 75.052 746.674 Q75.052 747.238 74.7138 747.621 Q74.3757 748.005 73.7895 748.005 Q73.6993 748.005 73.3612 747.937 Q73.023 747.869 72.5496 747.757 Q72.0762 747.644 71.8056 747.599 L61.1423 744.916 Q59.2035 744.42 58.5948 744.307 Q57.9636 744.172 57.2647 744.172 Q56.0473 744.172 55.5964 744.555 Q55.1455 744.939 55.1455 745.615 Q55.1455 746.787 56.5433 747.554 Q57.941 748.32 60.6463 748.974 Q61.3903 749.177 61.5481 749.312 Q61.7059 749.425 61.7059 749.763 Q61.6833 750.327 61.2324 750.327 Q61.1197 750.327 60.3983 750.146 Q59.6544 749.966 58.5722 749.628 Q57.4676 749.267 56.7687 748.884 Q56.2953 748.658 55.9797 748.455 Q55.6641 748.253 55.1681 747.847 Q54.6721 747.441 54.4016 746.832 Q54.1311 746.224 54.1311 745.48 Q54.1311 743.856 55.123 742.707 Q56.1149 741.534 57.6705 741.264 Q56.8589 740.7 56.16 740.001 Q55.4386 739.303 54.7848 738.018 Q54.1311 736.732 54.1311 735.357 Q54.1311 733.644 55.0103 732.584 Q55.867 731.525 57.1294 731.525 Z" fill="#000000" fill-rule="evenodd" fill-opacity="1" /><path clip-path="url(#clip680)" d="M69.1905 711.114 Q69.3934 710.934 69.5963 710.934 Q69.7992 710.934 70.3854 711.385 Q70.9715 711.813 71.7605 712.737 Q72.5496 713.662 73.2935 714.857 Q74.0375 716.051 74.5335 717.81 Q75.052 719.568 75.052 721.417 Q75.052 724.731 72.6849 726.715 Q70.3177 728.676 66.6881 728.676 Q64.3661 728.676 62.3146 727.91 Q60.2405 727.143 58.7751 725.903 Q57.3098 724.641 56.2502 723.063 Q55.1681 721.462 54.6496 719.794 Q54.1311 718.125 54.1311 716.57 Q54.1311 714.293 55.2808 712.963 Q56.4306 711.633 58.0537 711.633 Q58.437 711.633 58.9104 711.745 Q59.3838 711.836 60.1278 712.151 Q60.8717 712.444 61.6157 713.211 Q62.3371 713.977 62.8105 715.105 Q63.8701 717.607 63.8701 722.161 L63.8701 724.618 Q66.7783 725.34 68.672 725.34 Q69.416 725.34 70.1825 725.204 Q70.9264 725.069 71.8733 724.708 Q72.8201 724.325 73.4288 723.468 Q74.015 722.589 74.015 721.327 Q74.015 720.921 73.9924 720.493 Q73.9699 720.042 73.7219 718.914 Q73.4739 717.765 73.0456 716.75 Q72.6172 715.736 71.6929 714.451 Q70.7461 713.143 69.461 712.106 Q68.9876 711.745 68.9876 711.497 Q68.9876 711.295 69.1905 711.114 M58.0537 713.166 Q56.8138 713.166 55.9797 714.09 Q55.1455 714.992 55.1455 716.57 Q55.1455 717.066 55.2583 717.675 Q55.371 718.283 55.8444 719.298 Q56.3178 720.29 57.1069 721.169 Q57.8734 722.048 59.3838 722.927 Q60.8717 723.807 62.8556 724.325 L62.8556 722.431 Q62.8556 721.778 62.8556 721.304 Q62.8331 720.831 62.7429 719.794 Q62.6527 718.734 62.4949 717.968 Q62.3146 717.201 61.9539 716.232 Q61.5932 715.262 61.1197 714.654 Q60.6238 714.022 59.8347 713.594 Q59.0457 713.166 58.0537 713.166 Z" fill="#000000" fill-rule="evenodd" fill-opacity="1" /><path clip-path="url(#clip680)" d="M42.9943 697.5 L69.6865 704.15 Q70.7461 704.421 71.8958 704.421 Q74.015 704.421 74.015 703.023 Q74.015 702.369 73.5866 701.828 Q73.1357 701.287 72.2565 700.882 Q71.3548 700.453 70.4981 700.183 Q69.6414 699.89 68.3113 699.529 Q67.7928 699.416 67.635 699.303 Q67.4772 699.191 67.4772 698.875 Q67.4772 698.312 67.928 698.312 Q70.701 698.875 72.4594 699.709 Q75.052 700.927 75.052 703.181 Q75.052 704.872 73.8797 706.134 Q72.6849 707.374 70.7911 707.374 Q70.0697 707.374 69.2131 707.149 L46.1279 701.332 L45.2261 701.175 Q44.9782 701.175 44.8429 701.265 Q44.7076 701.355 44.5724 701.896 Q44.4371 702.415 44.4371 703.452 Q44.4371 703.88 44.4145 704.083 Q44.392 704.263 44.2793 704.444 Q44.1666 704.601 43.9186 704.601 Q43.5128 704.601 43.2873 704.444 Q43.0619 704.263 43.0168 704.128 Q42.9717 703.993 42.9492 703.722 Q42.9266 703.339 42.8139 702.054 Q42.6787 700.769 42.5885 699.664 Q42.4983 698.56 42.4983 698.086 Q42.4983 697.816 42.6336 697.68 Q42.7463 697.522 42.8815 697.5 L42.9943 697.5 Z" fill="#000000" fill-rule="evenodd" fill-opacity="1" /><polyline clip-path="url(#clip683)" style="stroke:#009af9; stroke-linecap:round; stroke-linejoin:round; stroke-width:4; stroke-opacity:1; fill:none" points="252.764,907.571 777.762,952.616 1302.76,1004.68 1827.76,1079.24 2352.76,1177.88 "/>
<polyline clip-path="url(#clip683)" style="stroke:#e26f46; stroke-linecap:round; stroke-linejoin:round; stroke-width:4; stroke-opacity:1; fill:none" points="252.764,350.023 777.762,394.659 1302.76,458.244 1827.76,660.635 2352.76,790.421 "/>
<polyline clip-path="url(#clip683)" style="stroke:#3da44d; stroke-linecap:round; stroke-linejoin:round; stroke-width:4; stroke-opacity:1; fill:none" points="252.764,891.001 777.762,940.499 1302.76,993.503 1827.76,1073.5 2352.76,1174.09 "/>
<polyline clip-path="url(#clip683)" style="stroke:#c271d2; stroke-linecap:round; stroke-linejoin:round; stroke-width:4; stroke-opacity:1; fill:none" stroke-dasharray="16, 10" points="252.764,890.996 777.762,940.48 1302.76,993.467 1827.76,1073.45 2352.76,1174.06 "/>
<path clip-path="url(#clip680)" d="M322.764 1377.32 L999.612 1377.32 L999.612 1118.12 L322.764 1118.12  Z" fill="#ffffff" fill-rule="evenodd" fill-opacity="1"/>
<polyline clip-path="url(#clip680)" style="stroke:#000000; stroke-linecap:round; stroke-linejoin:round; stroke-width:4; stroke-opacity:1; fill:none" points="322.764,1377.32 999.612,1377.32 999.612,1118.12 322.764,1118.12 322.764,1377.32 "/>
<polyline clip-path="url(#clip680)" style="stroke:#009af9; stroke-linecap:round; stroke-linejoin:round; stroke-width:4; stroke-opacity:1; fill:none" points="346.097,1169.96 486.096,1169.96 "/>
<path clip-path="url(#clip680)" d="M510.008 1161.31 L530.24 1161.31 L530.24 1165.2 L514.221 1183.83 L530.24 1183.83 L530.24 1187.24 L509.43 1187.24 L509.43 1183.35 L525.448 1164.71 L510.008 1164.71 L510.008 1161.31 Z" fill="#000000" fill-rule="evenodd" fill-opacity="1" /><path clip-path="url(#clip680)" d="M558.92 1173.21 L558.92 1175.29 L539.337 1175.29 Q539.615 1179.69 541.976 1182 Q544.36 1184.3 548.596 1184.3 Q551.05 1184.3 553.341 1183.69 Q555.656 1183.09 557.925 1181.89 L557.925 1185.92 Q555.633 1186.89 553.226 1187.4 Q550.818 1187.91 548.341 1187.91 Q542.138 1187.91 538.504 1184.3 Q534.892 1180.68 534.892 1174.53 Q534.892 1168.16 538.318 1164.43 Q541.767 1160.68 547.601 1160.68 Q552.832 1160.68 555.865 1164.06 Q558.92 1167.42 558.92 1173.21 M554.661 1171.96 Q554.615 1168.46 552.693 1166.38 Q550.795 1164.3 547.647 1164.3 Q544.082 1164.3 541.929 1166.31 Q539.8 1168.32 539.476 1171.98 L554.661 1171.96 Z" fill="#000000" fill-rule="evenodd" fill-opacity="1" /><path clip-path="url(#clip680)" d="M580.934 1165.29 Q580.216 1164.87 579.36 1164.69 Q578.526 1164.48 577.508 1164.48 Q573.897 1164.48 571.952 1166.84 Q570.031 1169.18 570.031 1173.58 L570.031 1187.24 L565.749 1187.24 L565.749 1161.31 L570.031 1161.31 L570.031 1165.34 Q571.374 1162.98 573.527 1161.84 Q575.679 1160.68 578.758 1160.68 Q579.198 1160.68 579.73 1160.75 Q580.263 1160.8 580.911 1160.92 L580.934 1165.29 Z" fill="#000000" fill-rule="evenodd" fill-opacity="1" /><path clip-path="url(#clip680)" d="M594.406 1164.3 Q590.98 1164.3 588.989 1166.98 Q586.999 1169.64 586.999 1174.3 Q586.999 1178.95 588.966 1181.63 Q590.957 1184.3 594.406 1184.3 Q597.809 1184.3 599.8 1181.61 Q601.79 1178.93 601.79 1174.3 Q601.79 1169.69 599.8 1167 Q597.809 1164.3 594.406 1164.3 M594.406 1160.68 Q599.962 1160.68 603.133 1164.3 Q606.304 1167.91 606.304 1174.3 Q606.304 1180.66 603.133 1184.3 Q599.962 1187.91 594.406 1187.91 Q588.827 1187.91 585.656 1184.3 Q582.508 1180.66 582.508 1174.3 Q582.508 1167.91 585.656 1164.3 Q588.827 1160.68 594.406 1160.68 Z" fill="#000000" fill-rule="evenodd" fill-opacity="1" /><path clip-path="url(#clip680)" d="M612.091 1172.35 L624.568 1172.35 L624.568 1176.15 L612.091 1176.15 L612.091 1172.35 Z" fill="#000000" fill-rule="evenodd" fill-opacity="1" /><path clip-path="url(#clip680)" d="M650.123 1157.21 Q647.762 1155.59 642.23 1155.59 Q636.373 1155.59 636.373 1158.3 Q636.373 1160.43 642.484 1161.54 Q647.299 1162.4 650.008 1164.99 Q653.295 1168.12 653.295 1174.53 Q653.295 1180.66 650.123 1184.27 Q646.952 1187.91 641.397 1187.91 Q635.864 1187.91 632.67 1184.27 Q629.498 1180.66 629.498 1174.3 Q629.498 1169.57 632.67 1165.75 Q633.897 1164.27 635.633 1163.44 Q632.022 1161.61 632.022 1158.35 Q632.022 1152.05 642.23 1152.05 Q647.346 1152.05 650.123 1153.67 L650.123 1157.21 M638.827 1164.6 Q637.253 1165.27 635.98 1166.96 Q633.989 1169.57 633.989 1174.3 Q633.989 1178.99 635.957 1181.63 Q637.947 1184.3 641.397 1184.3 Q644.799 1184.3 646.79 1181.61 Q648.781 1178.93 648.781 1174.53 Q648.781 1169.92 646.674 1167.7 Q644.429 1165.31 641.512 1165.06 Q640.031 1164.92 638.827 1164.6 Z" fill="#000000" fill-rule="evenodd" fill-opacity="1" /><path clip-path="url(#clip680)" d="M675.424 1151.22 L679.683 1151.22 L679.683 1187.24 L675.424 1187.24 L675.424 1151.22 Z" fill="#000000" fill-rule="evenodd" fill-opacity="1" /><path clip-path="url(#clip680)" d="M698.642 1164.3 Q695.216 1164.3 693.225 1166.98 Q691.234 1169.64 691.234 1174.3 Q691.234 1178.95 693.202 1181.63 Q695.193 1184.3 698.642 1184.3 Q702.044 1184.3 704.035 1181.61 Q706.026 1178.93 706.026 1174.3 Q706.026 1169.69 704.035 1167 Q702.044 1164.3 698.642 1164.3 M698.642 1160.68 Q704.197 1160.68 707.368 1164.3 Q710.54 1167.91 710.54 1174.3 Q710.54 1180.66 707.368 1184.3 Q704.197 1187.91 698.642 1187.91 Q693.063 1187.91 689.892 1184.3 Q686.743 1180.66 686.743 1174.3 Q686.743 1167.91 689.892 1164.3 Q693.063 1160.68 698.642 1160.68 Z" fill="#000000" fill-rule="evenodd" fill-opacity="1" /><path clip-path="url(#clip680)" d="M715.123 1161.31 L719.382 1161.31 L724.706 1181.54 L730.007 1161.31 L735.03 1161.31 L740.354 1181.54 L745.655 1161.31 L749.914 1161.31 L743.132 1187.24 L738.109 1187.24 L732.53 1165.99 L726.928 1187.24 L721.905 1187.24 L715.123 1161.31 Z" fill="#000000" fill-rule="evenodd" fill-opacity="1" /><path clip-path="url(#clip680)" d="M778.549 1173.21 L778.549 1175.29 L758.965 1175.29 Q759.243 1179.69 761.604 1182 Q763.988 1184.3 768.225 1184.3 Q770.678 1184.3 772.97 1183.69 Q775.285 1183.09 777.553 1181.89 L777.553 1185.92 Q775.262 1186.89 772.854 1187.4 Q770.447 1187.91 767.97 1187.91 Q761.766 1187.91 758.132 1184.3 Q754.521 1180.68 754.521 1174.53 Q754.521 1168.16 757.947 1164.43 Q761.396 1160.68 767.229 1160.68 Q772.461 1160.68 775.493 1164.06 Q778.549 1167.42 778.549 1173.21 M774.289 1171.96 Q774.243 1168.46 772.322 1166.38 Q770.424 1164.3 767.275 1164.3 Q763.711 1164.3 761.558 1166.31 Q759.428 1168.32 759.104 1171.98 L774.289 1171.96 Z" fill="#000000" fill-rule="evenodd" fill-opacity="1" /><path clip-path="url(#clip680)" d="M800.562 1165.29 Q799.845 1164.87 798.988 1164.69 Q798.155 1164.48 797.136 1164.48 Q793.525 1164.48 791.581 1166.84 Q789.66 1169.18 789.66 1173.58 L789.66 1187.24 L785.377 1187.24 L785.377 1161.31 L789.66 1161.31 L789.66 1165.34 Q791.002 1162.98 793.155 1161.84 Q795.308 1160.68 798.386 1160.68 Q798.826 1160.68 799.359 1160.75 Q799.891 1160.8 800.539 1160.92 L800.562 1165.29 Z" fill="#000000" fill-rule="evenodd" fill-opacity="1" /><path clip-path="url(#clip680)" d="M838.71 1174.3 Q838.71 1169.6 836.766 1166.93 Q834.845 1164.25 831.465 1164.25 Q828.085 1164.25 826.141 1166.93 Q824.22 1169.6 824.22 1174.3 Q824.22 1178.99 826.141 1181.68 Q828.085 1184.34 831.465 1184.34 Q834.845 1184.34 836.766 1181.68 Q838.71 1178.99 838.71 1174.3 M824.22 1165.24 Q825.562 1162.93 827.599 1161.82 Q829.659 1160.68 832.507 1160.68 Q837.229 1160.68 840.169 1164.43 Q843.132 1168.18 843.132 1174.3 Q843.132 1180.41 840.169 1184.16 Q837.229 1187.91 832.507 1187.91 Q829.659 1187.91 827.599 1186.8 Q825.562 1185.66 824.22 1183.35 L824.22 1187.24 L819.937 1187.24 L819.937 1151.22 L824.22 1151.22 L824.22 1165.24 Z" fill="#000000" fill-rule="evenodd" fill-opacity="1" /><path clip-path="url(#clip680)" d="M860.238 1164.3 Q856.812 1164.3 854.821 1166.98 Q852.831 1169.64 852.831 1174.3 Q852.831 1178.95 854.798 1181.63 Q856.789 1184.3 860.238 1184.3 Q863.641 1184.3 865.631 1181.61 Q867.622 1178.93 867.622 1174.3 Q867.622 1169.69 865.631 1167 Q863.641 1164.3 860.238 1164.3 M860.238 1160.68 Q865.793 1160.68 868.965 1164.3 Q872.136 1167.91 872.136 1174.3 Q872.136 1180.66 868.965 1184.3 Q865.793 1187.91 860.238 1187.91 Q854.659 1187.91 851.488 1184.3 Q848.34 1180.66 848.34 1174.3 Q848.34 1167.91 851.488 1164.3 Q854.659 1160.68 860.238 1160.68 Z" fill="#000000" fill-rule="evenodd" fill-opacity="1" /><path clip-path="url(#clip680)" d="M878.756 1177 L878.756 1161.31 L883.016 1161.31 L883.016 1176.84 Q883.016 1180.52 884.451 1182.37 Q885.886 1184.2 888.756 1184.2 Q892.205 1184.2 894.196 1182 Q896.21 1179.8 896.21 1176.01 L896.21 1161.31 L900.469 1161.31 L900.469 1187.24 L896.21 1187.24 L896.21 1183.25 Q894.659 1185.61 892.599 1186.77 Q890.562 1187.91 887.854 1187.91 Q883.386 1187.91 881.071 1185.13 Q878.756 1182.35 878.756 1177 M889.474 1160.68 L889.474 1160.68 Z" fill="#000000" fill-rule="evenodd" fill-opacity="1" /><path clip-path="url(#clip680)" d="M930.793 1171.59 L930.793 1187.24 L926.534 1187.24 L926.534 1171.73 Q926.534 1168.05 925.099 1166.22 Q923.664 1164.39 920.793 1164.39 Q917.344 1164.39 915.353 1166.59 Q913.363 1168.79 913.363 1172.58 L913.363 1187.24 L909.08 1187.24 L909.08 1161.31 L913.363 1161.31 L913.363 1165.34 Q914.89 1163 916.951 1161.84 Q919.034 1160.68 921.742 1160.68 Q926.21 1160.68 928.501 1163.46 Q930.793 1166.22 930.793 1171.59 Z" fill="#000000" fill-rule="evenodd" fill-opacity="1" /><path clip-path="url(#clip680)" d="M956.349 1165.24 L956.349 1151.22 L960.608 1151.22 L960.608 1187.24 L956.349 1187.24 L956.349 1183.35 Q955.006 1185.66 952.946 1186.8 Q950.909 1187.91 948.038 1187.91 Q943.339 1187.91 940.376 1184.16 Q937.437 1180.41 937.437 1174.3 Q937.437 1168.18 940.376 1164.43 Q943.339 1160.68 948.038 1160.68 Q950.909 1160.68 952.946 1161.82 Q955.006 1162.93 956.349 1165.24 M941.835 1174.3 Q941.835 1178.99 943.756 1181.68 Q945.7 1184.34 949.08 1184.34 Q952.46 1184.34 954.404 1181.68 Q956.349 1178.99 956.349 1174.3 Q956.349 1169.6 954.404 1166.93 Q952.46 1164.25 949.08 1164.25 Q945.7 1164.25 943.756 1166.93 Q941.835 1169.6 941.835 1174.3 Z" fill="#000000" fill-rule="evenodd" fill-opacity="1" /><polyline clip-path="url(#clip680)" style="stroke:#e26f46; stroke-linecap:round; stroke-linejoin:round; stroke-width:4; stroke-opacity:1; fill:none" points="346.097,1221.8 486.096,1221.8 "/>
<path clip-path="url(#clip680)" d="M516.837 1205.79 L516.837 1213.15 L525.61 1213.15 L525.61 1216.46 L516.837 1216.46 L516.837 1230.53 Q516.837 1233.7 517.693 1234.61 Q518.573 1235.51 521.235 1235.51 L525.61 1235.51 L525.61 1239.08 L521.235 1239.08 Q516.305 1239.08 514.43 1237.25 Q512.555 1235.39 512.555 1230.53 L512.555 1216.46 L509.43 1216.46 L509.43 1213.15 L512.555 1213.15 L512.555 1205.79 L516.837 1205.79 Z" fill="#000000" fill-rule="evenodd" fill-opacity="1" /><path clip-path="url(#clip680)" d="M552.115 1205.65 L552.115 1210.21 Q549.453 1208.94 547.091 1208.31 Q544.73 1207.69 542.531 1207.69 Q538.712 1207.69 536.629 1209.17 Q534.568 1210.65 534.568 1213.38 Q534.568 1215.67 535.934 1216.85 Q537.323 1218.01 541.166 1218.73 L543.99 1219.31 Q549.221 1220.3 551.698 1222.83 Q554.198 1225.33 554.198 1229.54 Q554.198 1234.56 550.818 1237.15 Q547.462 1239.75 540.957 1239.75 Q538.504 1239.75 535.726 1239.19 Q532.971 1238.64 530.008 1237.55 L530.008 1232.73 Q532.855 1234.33 535.587 1235.14 Q538.318 1235.95 540.957 1235.95 Q544.962 1235.95 547.138 1234.38 Q549.314 1232.8 549.314 1229.89 Q549.314 1227.34 547.74 1225.9 Q546.189 1224.47 542.624 1223.75 L539.777 1223.2 Q534.545 1222.15 532.207 1219.93 Q529.869 1217.71 529.869 1213.75 Q529.869 1209.17 533.087 1206.53 Q536.328 1203.89 541.999 1203.89 Q544.429 1203.89 546.953 1204.33 Q549.476 1204.77 552.115 1205.65 Z" fill="#000000" fill-rule="evenodd" fill-opacity="1" /><path clip-path="url(#clip680)" d="M570.402 1239.08 L557.207 1204.52 L562.091 1204.52 L573.04 1233.61 L584.013 1204.52 L588.874 1204.52 L575.702 1239.08 L570.402 1239.08 Z" fill="#000000" fill-rule="evenodd" fill-opacity="1" /><path clip-path="url(#clip680)" d="M598.596 1208.36 L598.596 1235.23 L604.244 1235.23 Q611.397 1235.23 614.707 1231.99 Q618.04 1228.75 618.04 1221.76 Q618.04 1214.82 614.707 1211.6 Q611.397 1208.36 604.244 1208.36 L598.596 1208.36 M593.92 1204.52 L603.526 1204.52 Q613.573 1204.52 618.272 1208.71 Q622.971 1212.87 622.971 1221.76 Q622.971 1230.7 618.248 1234.89 Q613.526 1239.08 603.526 1239.08 L593.92 1239.08 L593.92 1204.52 Z" fill="#000000" fill-rule="evenodd" fill-opacity="1" /><polyline clip-path="url(#clip680)" style="stroke:#3da44d; stroke-linecap:round; stroke-linejoin:round; stroke-width:4; stroke-opacity:1; fill:none" points="346.097,1273.64 486.096,1273.64 "/>
<path clip-path="url(#clip680)" d="M537.3 1259.02 L537.3 1263.95 Q534.939 1261.75 532.254 1260.66 Q529.592 1259.57 526.582 1259.57 Q520.656 1259.57 517.508 1263.21 Q514.36 1266.82 514.36 1273.67 Q514.36 1280.5 517.508 1284.13 Q520.656 1287.74 526.582 1287.74 Q529.592 1287.74 532.254 1286.66 Q534.939 1285.57 537.3 1283.37 L537.3 1288.25 Q534.846 1289.92 532.092 1290.75 Q529.36 1291.59 526.305 1291.59 Q518.457 1291.59 513.943 1286.79 Q509.43 1281.98 509.43 1273.67 Q509.43 1265.34 513.943 1260.55 Q518.457 1255.73 526.305 1255.73 Q529.406 1255.73 532.138 1256.56 Q534.892 1257.37 537.3 1259.02 Z" fill="#000000" fill-rule="evenodd" fill-opacity="1" /><path clip-path="url(#clip680)" d="M570.402 1259.02 L570.402 1263.95 Q568.04 1261.75 565.355 1260.66 Q562.693 1259.57 559.684 1259.57 Q553.758 1259.57 550.61 1263.21 Q547.462 1266.82 547.462 1273.67 Q547.462 1280.5 550.61 1284.13 Q553.758 1287.74 559.684 1287.74 Q562.693 1287.74 565.355 1286.66 Q568.04 1285.57 570.402 1283.37 L570.402 1288.25 Q567.948 1289.92 565.193 1290.75 Q562.462 1291.59 559.406 1291.59 Q551.559 1291.59 547.045 1286.79 Q542.531 1281.98 542.531 1273.67 Q542.531 1265.34 547.045 1260.55 Q551.559 1255.73 559.406 1255.73 Q562.508 1255.73 565.24 1256.56 Q567.994 1257.37 570.402 1259.02 Z" fill="#000000" fill-rule="evenodd" fill-opacity="1" /><path clip-path="url(#clip680)" d="M575.286 1276.03 L587.763 1276.03 L587.763 1279.83 L575.286 1279.83 L575.286 1276.03 Z" fill="#000000" fill-rule="evenodd" fill-opacity="1" /><path clip-path="url(#clip680)" d="M598.758 1257.63 L598.758 1264.99 L607.531 1264.99 L607.531 1268.3 L598.758 1268.3 L598.758 1282.37 Q598.758 1285.54 599.614 1286.45 Q600.494 1287.35 603.156 1287.35 L607.531 1287.35 L607.531 1290.92 L603.156 1290.92 Q598.225 1290.92 596.35 1289.09 Q594.475 1287.23 594.475 1282.37 L594.475 1268.3 L591.35 1268.3 L591.35 1264.99 L594.475 1264.99 L594.475 1257.63 L598.758 1257.63 Z" fill="#000000" fill-rule="evenodd" fill-opacity="1" /><path clip-path="url(#clip680)" d="M634.035 1257.49 L634.035 1262.05 Q631.373 1260.78 629.012 1260.15 Q626.651 1259.53 624.452 1259.53 Q620.633 1259.53 618.549 1261.01 Q616.489 1262.49 616.489 1265.22 Q616.489 1267.51 617.855 1268.69 Q619.244 1269.85 623.086 1270.57 L625.91 1271.15 Q631.142 1272.14 633.619 1274.67 Q636.119 1277.17 636.119 1281.38 Q636.119 1286.4 632.739 1288.99 Q629.383 1291.59 622.878 1291.59 Q620.424 1291.59 617.647 1291.03 Q614.892 1290.48 611.929 1289.39 L611.929 1284.57 Q614.776 1286.17 617.508 1286.98 Q620.239 1287.79 622.878 1287.79 Q626.883 1287.79 629.059 1286.22 Q631.235 1284.64 631.235 1281.73 Q631.235 1279.18 629.66 1277.74 Q628.11 1276.31 624.545 1275.59 L621.698 1275.04 Q616.466 1273.99 614.128 1271.77 Q611.79 1269.55 611.79 1265.59 Q611.79 1261.01 615.008 1258.37 Q618.248 1255.73 623.92 1255.73 Q626.35 1255.73 628.873 1256.17 Q631.397 1256.61 634.035 1257.49 Z" fill="#000000" fill-rule="evenodd" fill-opacity="1" /><path clip-path="url(#clip680)" d="M652.322 1290.92 L639.128 1256.36 L644.012 1256.36 L654.961 1285.45 L665.933 1256.36 L670.795 1256.36 L657.623 1290.92 L652.322 1290.92 Z" fill="#000000" fill-rule="evenodd" fill-opacity="1" /><path clip-path="url(#clip680)" d="M680.517 1260.2 L680.517 1287.07 L686.165 1287.07 Q693.318 1287.07 696.628 1283.83 Q699.961 1280.59 699.961 1273.6 Q699.961 1266.66 696.628 1263.44 Q693.318 1260.2 686.165 1260.2 L680.517 1260.2 M675.841 1256.36 L685.447 1256.36 Q695.493 1256.36 700.192 1260.55 Q704.892 1264.71 704.892 1273.6 Q704.892 1282.54 700.169 1286.73 Q695.447 1290.92 685.447 1290.92 L675.841 1290.92 L675.841 1256.36 Z" fill="#000000" fill-rule="evenodd" fill-opacity="1" /><path clip-path="url(#clip680)" d="M737.461 1254.94 Q734.359 1260.27 732.854 1265.48 Q731.35 1270.68 731.35 1276.03 Q731.35 1281.38 732.854 1286.63 Q734.382 1291.86 737.461 1297.17 L733.757 1297.17 Q730.285 1291.73 728.549 1286.47 Q726.836 1281.22 726.836 1276.03 Q726.836 1270.87 728.549 1265.64 Q730.262 1260.41 733.757 1254.94 L737.461 1254.94 Z" fill="#000000" fill-rule="evenodd" fill-opacity="1" /><path clip-path="url(#clip680)" d="M749.845 1287.03 L749.845 1300.78 L745.563 1300.78 L745.563 1264.99 L749.845 1264.99 L749.845 1268.92 Q751.188 1266.61 753.225 1265.5 Q755.285 1264.36 758.132 1264.36 Q762.854 1264.36 765.794 1268.11 Q768.757 1271.86 768.757 1277.98 Q768.757 1284.09 765.794 1287.84 Q762.854 1291.59 758.132 1291.59 Q755.285 1291.59 753.225 1290.48 Q751.188 1289.34 749.845 1287.03 M764.336 1277.98 Q764.336 1273.28 762.391 1270.61 Q760.47 1267.93 757.09 1267.93 Q753.711 1267.93 751.766 1270.61 Q749.845 1273.28 749.845 1277.98 Q749.845 1282.67 751.766 1285.36 Q753.711 1288.02 757.09 1288.02 Q760.47 1288.02 762.391 1285.36 Q764.336 1282.67 764.336 1277.98 Z" fill="#000000" fill-rule="evenodd" fill-opacity="1" /><path clip-path="url(#clip680)" d="M790.84 1268.97 Q790.123 1268.55 789.266 1268.37 Q788.433 1268.16 787.414 1268.16 Q783.803 1268.16 781.859 1270.52 Q779.937 1272.86 779.937 1277.26 L779.937 1290.92 L775.655 1290.92 L775.655 1264.99 L779.937 1264.99 L779.937 1269.02 Q781.28 1266.66 783.433 1265.52 Q785.586 1264.36 788.664 1264.36 Q789.104 1264.36 789.636 1264.43 Q790.169 1264.48 790.817 1264.6 L790.84 1268.97 Z" fill="#000000" fill-rule="evenodd" fill-opacity="1" /><path clip-path="url(#clip680)" d="M804.312 1267.98 Q800.886 1267.98 798.896 1270.66 Q796.905 1273.32 796.905 1277.98 Q796.905 1282.63 798.873 1285.31 Q800.863 1287.98 804.312 1287.98 Q807.715 1287.98 809.706 1285.29 Q811.697 1282.61 811.697 1277.98 Q811.697 1273.37 809.706 1270.68 Q807.715 1267.98 804.312 1267.98 M804.312 1264.36 Q809.868 1264.36 813.039 1267.98 Q816.21 1271.59 816.21 1277.98 Q816.21 1284.34 813.039 1287.98 Q809.868 1291.59 804.312 1291.59 Q798.734 1291.59 795.562 1287.98 Q792.414 1284.34 792.414 1277.98 Q792.414 1271.59 795.562 1267.98 Q798.734 1264.36 804.312 1264.36 Z" fill="#000000" fill-rule="evenodd" fill-opacity="1" /><path clip-path="url(#clip680)" d="M827.391 1287.03 L827.391 1300.78 L823.109 1300.78 L823.109 1264.99 L827.391 1264.99 L827.391 1268.92 Q828.733 1266.61 830.771 1265.5 Q832.831 1264.36 835.678 1264.36 Q840.4 1264.36 843.34 1268.11 Q846.303 1271.86 846.303 1277.98 Q846.303 1284.09 843.34 1287.84 Q840.4 1291.59 835.678 1291.59 Q832.831 1291.59 830.771 1290.48 Q828.733 1289.34 827.391 1287.03 M841.882 1277.98 Q841.882 1273.28 839.937 1270.61 Q838.016 1267.93 834.636 1267.93 Q831.257 1267.93 829.312 1270.61 Q827.391 1273.28 827.391 1277.98 Q827.391 1282.67 829.312 1285.36 Q831.257 1288.02 834.636 1288.02 Q838.016 1288.02 839.937 1285.36 Q841.882 1282.67 841.882 1277.98 Z" fill="#000000" fill-rule="evenodd" fill-opacity="1" /><path clip-path="url(#clip680)" d="M863.409 1267.98 Q859.983 1267.98 857.993 1270.66 Q856.002 1273.32 856.002 1277.98 Q856.002 1282.63 857.969 1285.31 Q859.96 1287.98 863.409 1287.98 Q866.812 1287.98 868.803 1285.29 Q870.793 1282.61 870.793 1277.98 Q870.793 1273.37 868.803 1270.68 Q866.812 1267.98 863.409 1267.98 M863.409 1264.36 Q868.965 1264.36 872.136 1267.98 Q875.307 1271.59 875.307 1277.98 Q875.307 1284.34 872.136 1287.98 Q868.965 1291.59 863.409 1291.59 Q857.831 1291.59 854.659 1287.98 Q851.511 1284.34 851.511 1277.98 Q851.511 1271.59 854.659 1267.98 Q857.831 1264.36 863.409 1264.36 Z" fill="#000000" fill-rule="evenodd" fill-opacity="1" /><path clip-path="url(#clip680)" d="M898.895 1265.75 L898.895 1269.78 Q897.09 1268.86 895.145 1268.39 Q893.201 1267.93 891.117 1267.93 Q887.946 1267.93 886.349 1268.9 Q884.775 1269.87 884.775 1271.82 Q884.775 1273.3 885.909 1274.16 Q887.043 1274.99 890.469 1275.75 L891.928 1276.08 Q896.465 1277.05 898.363 1278.83 Q900.284 1280.59 900.284 1283.76 Q900.284 1287.37 897.414 1289.48 Q894.566 1291.59 889.566 1291.59 Q887.483 1291.59 885.215 1291.17 Q882.969 1290.78 880.469 1289.97 L880.469 1285.57 Q882.83 1286.79 885.122 1287.42 Q887.414 1288.02 889.659 1288.02 Q892.668 1288.02 894.289 1287 Q895.909 1285.96 895.909 1284.09 Q895.909 1282.35 894.728 1281.42 Q893.571 1280.5 889.613 1279.64 L888.131 1279.3 Q884.173 1278.46 882.414 1276.75 Q880.654 1275.01 880.654 1272 Q880.654 1268.35 883.247 1266.36 Q885.84 1264.36 890.608 1264.36 Q892.969 1264.36 895.053 1264.71 Q897.136 1265.06 898.895 1265.75 Z" fill="#000000" fill-rule="evenodd" fill-opacity="1" /><path clip-path="url(#clip680)" d="M929.242 1276.89 L929.242 1278.97 L909.659 1278.97 Q909.937 1283.37 912.298 1285.68 Q914.682 1287.98 918.918 1287.98 Q921.372 1287.98 923.664 1287.37 Q925.978 1286.77 928.247 1285.57 L928.247 1289.6 Q925.955 1290.57 923.548 1291.08 Q921.14 1291.59 918.664 1291.59 Q912.46 1291.59 908.826 1287.98 Q905.215 1284.36 905.215 1278.21 Q905.215 1271.84 908.64 1268.11 Q912.09 1264.36 917.923 1264.36 Q923.154 1264.36 926.187 1267.74 Q929.242 1271.1 929.242 1276.89 M924.983 1275.64 Q924.937 1272.14 923.015 1270.06 Q921.117 1267.98 917.969 1267.98 Q914.404 1267.98 912.252 1269.99 Q910.122 1272 909.798 1275.66 L924.983 1275.64 Z" fill="#000000" fill-rule="evenodd" fill-opacity="1" /><path clip-path="url(#clip680)" d="M953.293 1268.92 L953.293 1254.9 L957.552 1254.9 L957.552 1290.92 L953.293 1290.92 L953.293 1287.03 Q951.95 1289.34 949.89 1290.48 Q947.853 1291.59 944.983 1291.59 Q940.284 1291.59 937.321 1287.84 Q934.381 1284.09 934.381 1277.98 Q934.381 1271.86 937.321 1268.11 Q940.284 1264.36 944.983 1264.36 Q947.853 1264.36 949.89 1265.5 Q951.95 1266.61 953.293 1268.92 M938.779 1277.98 Q938.779 1282.67 940.7 1285.36 Q942.645 1288.02 946.025 1288.02 Q949.404 1288.02 951.349 1285.36 Q953.293 1282.67 953.293 1277.98 Q953.293 1273.28 951.349 1270.61 Q949.404 1267.93 946.025 1267.93 Q942.645 1267.93 940.7 1270.61 Q938.779 1273.28 938.779 1277.98 Z" fill="#000000" fill-rule="evenodd" fill-opacity="1" /><path clip-path="url(#clip680)" d="M965.654 1254.94 L969.358 1254.94 Q972.83 1260.41 974.543 1265.64 Q976.279 1270.87 976.279 1276.03 Q976.279 1281.22 974.543 1286.47 Q972.83 1291.73 969.358 1297.17 L965.654 1297.17 Q968.733 1291.86 970.237 1286.63 Q971.765 1281.38 971.765 1276.03 Q971.765 1270.68 970.237 1265.48 Q968.733 1260.27 965.654 1254.94 Z" fill="#000000" fill-rule="evenodd" fill-opacity="1" /><polyline clip-path="url(#clip680)" style="stroke:#c271d2; stroke-linecap:round; stroke-linejoin:round; stroke-width:4; stroke-opacity:1; fill:none" stroke-dasharray="16, 10" points="346.097,1325.48 486.096,1325.48 "/>
<path clip-path="url(#clip680)" d="M509.43 1308.2 L516.397 1308.2 L525.217 1331.71 L534.082 1308.2 L541.05 1308.2 L541.05 1342.76 L536.49 1342.76 L536.49 1312.41 L527.578 1336.11 L522.879 1336.11 L513.967 1312.41 L513.967 1342.76 L509.43 1342.76 L509.43 1308.2 Z" fill="#000000" fill-rule="evenodd" fill-opacity="1" /><path clip-path="url(#clip680)" d="M576.212 1310.86 L576.212 1315.79 Q573.851 1313.59 571.165 1312.5 Q568.503 1311.41 565.494 1311.41 Q559.568 1311.41 556.42 1315.05 Q553.272 1318.66 553.272 1325.51 Q553.272 1332.34 556.42 1335.97 Q559.568 1339.58 565.494 1339.58 Q568.503 1339.58 571.165 1338.5 Q573.851 1337.41 576.212 1335.21 L576.212 1340.09 Q573.758 1341.76 571.003 1342.59 Q568.272 1343.43 565.216 1343.43 Q557.369 1343.43 552.855 1338.63 Q548.341 1333.82 548.341 1325.51 Q548.341 1317.18 552.855 1312.39 Q557.369 1307.57 565.216 1307.57 Q568.318 1307.57 571.05 1308.4 Q573.804 1309.21 576.212 1310.86 Z" fill="#000000" fill-rule="evenodd" fill-opacity="1" /><path clip-path="url(#clip680)" d="M581.096 1327.87 L593.573 1327.87 L593.573 1331.67 L581.096 1331.67 L581.096 1327.87 Z" fill="#000000" fill-rule="evenodd" fill-opacity="1" /><path clip-path="url(#clip680)" d="M604.568 1309.47 L604.568 1316.83 L613.341 1316.83 L613.341 1320.14 L604.568 1320.14 L604.568 1334.21 Q604.568 1337.38 605.424 1338.29 Q606.304 1339.19 608.966 1339.19 L613.341 1339.19 L613.341 1342.76 L608.966 1342.76 Q604.036 1342.76 602.161 1340.93 Q600.286 1339.07 600.286 1334.21 L600.286 1320.14 L597.161 1320.14 L597.161 1316.83 L600.286 1316.83 L600.286 1309.47 L604.568 1309.47 Z" fill="#000000" fill-rule="evenodd" fill-opacity="1" /><path clip-path="url(#clip680)" d="M639.846 1309.33 L639.846 1313.89 Q637.184 1312.62 634.822 1311.99 Q632.461 1311.37 630.262 1311.37 Q626.443 1311.37 624.36 1312.85 Q622.299 1314.33 622.299 1317.06 Q622.299 1319.35 623.665 1320.53 Q625.054 1321.69 628.897 1322.41 L631.721 1322.99 Q636.952 1323.98 639.429 1326.51 Q641.929 1329.01 641.929 1333.22 Q641.929 1338.24 638.549 1340.83 Q635.193 1343.43 628.688 1343.43 Q626.235 1343.43 623.457 1342.87 Q620.702 1342.32 617.739 1341.23 L617.739 1336.41 Q620.586 1338.01 623.318 1338.82 Q626.049 1339.63 628.688 1339.63 Q632.693 1339.63 634.869 1338.06 Q637.045 1336.48 637.045 1333.57 Q637.045 1331.02 635.471 1329.58 Q633.92 1328.15 630.355 1327.43 L627.508 1326.88 Q622.276 1325.83 619.938 1323.61 Q617.6 1321.39 617.6 1317.43 Q617.6 1312.85 620.818 1310.21 Q624.059 1307.57 629.73 1307.57 Q632.16 1307.57 634.684 1308.01 Q637.207 1308.45 639.846 1309.33 Z" fill="#000000" fill-rule="evenodd" fill-opacity="1" /><path clip-path="url(#clip680)" d="M658.133 1342.76 L644.938 1308.2 L649.822 1308.2 L660.771 1337.29 L671.744 1308.2 L676.605 1308.2 L663.433 1342.76 L658.133 1342.76 Z" fill="#000000" fill-rule="evenodd" fill-opacity="1" /><path clip-path="url(#clip680)" d="M686.327 1312.04 L686.327 1338.91 L691.975 1338.91 Q699.128 1338.91 702.438 1335.67 Q705.771 1332.43 705.771 1325.44 Q705.771 1318.5 702.438 1315.28 Q699.128 1312.04 691.975 1312.04 L686.327 1312.04 M681.651 1308.2 L691.257 1308.2 Q701.304 1308.2 706.003 1312.39 Q710.702 1316.55 710.702 1325.44 Q710.702 1334.38 705.98 1338.57 Q701.257 1342.76 691.257 1342.76 L681.651 1342.76 L681.651 1308.2 Z" fill="#000000" fill-rule="evenodd" fill-opacity="1" /></svg>
