<?xml version="1.0" encoding="utf-8"?>
<svg xmlns="http://www.w3.org/2000/svg" xmlns:xlink="http://www.w3.org/1999/xlink" width="600" height="400" viewBox="0 0 2400 1600">
<defs>
  <clipPath id="clip040">
    <rect x="0" y="0" width="2400" height="1600"/>
  </clipPath>
</defs>
<path clip-path="url(#clip040)" d="M0 1600 L2400 1600 L2400 0 L0 0  Z" fill="#ffffff" fill-rule="evenodd" fill-opacity="1"/>
<defs>
  <clipPath id="clip041">
    <rect x="480" y="0" width="1681" height="1600"/>
  </clipPath>
</defs>
<defs>
  <clipPath id="clip042">
    <rect x="252" y="47" width="2101" height="1377"/>
  </clipPath>
</defs>
<path clip-path="url(#clip040)" d="M252.764 1423.18 L2352.76 1423.18 L2352.76 47.2441 L252.764 47.2441  Z" fill="#ffffff" fill-rule="evenodd" fill-opacity="1"/>
<polyline clip-path="url(#clip042)" style="stroke:#000000; stroke-linecap:round; stroke-linejoin:round; stroke-width:2; stroke-opacity:0.1; fill:none" points="729.277,1423.18 729.277,47.2441 "/>
<polyline clip-path="url(#clip042)" style="stroke:#000000; stroke-linecap:round; stroke-linejoin:round; stroke-width:2; stroke-opacity:0.1; fill:none" points="1250.63,1423.18 1250.63,47.2441 "/>
<polyline clip-path="url(#clip042)" style="stroke:#000000; stroke-linecap:round; stroke-linejoin:round; stroke-width:2; stroke-opacity:0.1; fill:none" points="1771.97,1423.18 1771.97,47.2441 "/>
<polyline clip-path="url(#clip042)" style="stroke:#000000; stroke-linecap:round; stroke-linejoin:round; stroke-width:2; stroke-opacity:0.1; fill:none" points="2293.32,1423.18 2293.32,47.2441 "/>
<polyline clip-path="url(#clip040)" style="stroke:#000000; stroke-linecap:round; stroke-linejoin:round; stroke-width:4; stroke-opacity:1; fill:none" points="252.764,1423.18 2352.76,1423.18 "/>
<polyline clip-path="url(#clip040)" style="stroke:#000000; stroke-linecap:round; stroke-linejoin:round; stroke-width:4; stroke-opacity:1; fill:none" points="729.277,1423.18 729.277,1404.28 "/>
<polyline clip-path="url(#clip040)" style="stroke:#000000; stroke-linecap:round; stroke-linejoin:round; stroke-width:4; stroke-opacity:1; fill:none" points="1250.63,1423.18 1250.63,1404.28 "/>
<polyline clip-path="url(#clip040)" style="stroke:#000000; stroke-linecap:round; stroke-linejoin:round; stroke-width:4; stroke-opacity:1; fill:none" points="1771.97,1423.18 1771.97,1404.28 "/>
<polyline clip-path="url(#clip040)" style="stroke:#000000; stroke-linecap:round; stroke-linejoin:round; stroke-width:4; stroke-opacity:1; fill:none" points="2293.32,1423.18 2293.32,1404.28 "/>
<path clip-path="url(#clip040)" d="M719.554 1451.02 L737.911 1451.02 L737.911 1454.96 L723.837 1454.96 L723.837 1463.43 Q724.855 1463.08 725.874 1462.92 Q726.892 1462.73 727.911 1462.73 Q733.698 1462.73 737.077 1465.9 Q740.457 1469.08 740.457 1474.49 Q740.457 1480.07 736.985 1483.17 Q733.513 1486.25 727.193 1486.25 Q725.017 1486.25 722.749 1485.88 Q720.503 1485.51 718.096 1484.77 L718.096 1480.07 Q720.179 1481.2 722.402 1481.76 Q724.624 1482.32 727.101 1482.32 Q731.105 1482.32 733.443 1480.21 Q735.781 1478.1 735.781 1474.49 Q735.781 1470.88 733.443 1468.77 Q731.105 1466.67 727.101 1466.67 Q725.226 1466.67 723.351 1467.08 Q721.499 1467.5 719.554 1468.38 L719.554 1451.02 Z" fill="#000000" fill-rule="evenodd" fill-opacity="1" /><path clip-path="url(#clip040)" d="M1225.31 1481.64 L1232.95 1481.64 L1232.95 1455.28 L1224.64 1456.95 L1224.64 1452.69 L1232.91 1451.02 L1237.58 1451.02 L1237.58 1481.64 L1245.22 1481.64 L1245.22 1485.58 L1225.31 1485.58 L1225.31 1481.64 Z" fill="#000000" fill-rule="evenodd" fill-opacity="1" /><path clip-path="url(#clip040)" d="M1264.66 1454.1 Q1261.05 1454.1 1259.22 1457.66 Q1257.42 1461.2 1257.42 1468.33 Q1257.42 1475.44 1259.22 1479.01 Q1261.05 1482.55 1264.66 1482.55 Q1268.3 1482.55 1270.1 1479.01 Q1271.93 1475.44 1271.93 1468.33 Q1271.93 1461.2 1270.1 1457.66 Q1268.3 1454.1 1264.66 1454.1 M1264.66 1450.39 Q1270.47 1450.39 1273.53 1455 Q1276.61 1459.58 1276.61 1468.33 Q1276.61 1477.06 1273.53 1481.67 Q1270.47 1486.25 1264.66 1486.25 Q1258.85 1486.25 1255.78 1481.67 Q1252.72 1477.06 1252.72 1468.33 Q1252.72 1459.58 1255.78 1455 Q1258.85 1450.39 1264.66 1450.39 Z" fill="#000000" fill-rule="evenodd" fill-opacity="1" /><path clip-path="url(#clip040)" d="M1747.16 1481.64 L1754.8 1481.64 L1754.8 1455.28 L1746.49 1456.95 L1746.49 1452.69 L1754.75 1451.02 L1759.43 1451.02 L1759.43 1481.64 L1767.07 1481.64 L1767.07 1485.58 L1747.16 1485.58 L1747.16 1481.64 Z" fill="#000000" fill-rule="evenodd" fill-opacity="1" /><path clip-path="url(#clip040)" d="M1776.56 1451.02 L1794.91 1451.02 L1794.91 1454.96 L1780.84 1454.96 L1780.84 1463.43 Q1781.86 1463.08 1782.88 1462.92 Q1783.89 1462.73 1784.91 1462.73 Q1790.7 1462.73 1794.08 1465.9 Q1797.46 1469.08 1797.46 1474.49 Q1797.46 1480.07 1793.99 1483.17 Q1790.52 1486.25 1784.2 1486.25 Q1782.02 1486.25 1779.75 1485.88 Q1777.51 1485.51 1775.1 1484.77 L1775.1 1480.07 Q1777.18 1481.2 1779.4 1481.76 Q1781.63 1482.32 1784.1 1482.32 Q1788.11 1482.32 1790.45 1480.21 Q1792.78 1478.1 1792.78 1474.49 Q1792.78 1470.88 1790.45 1468.77 Q1788.11 1466.67 1784.1 1466.67 Q1782.23 1466.67 1780.35 1467.08 Q1778.5 1467.5 1776.56 1468.38 L1776.56 1451.02 Z" fill="#000000" fill-rule="evenodd" fill-opacity="1" /><path clip-path="url(#clip040)" d="M2272.1 1481.64 L2288.41 1481.64 L2288.41 1485.58 L2266.47 1485.58 L2266.47 1481.64 Q2269.13 1478.89 2273.72 1474.26 Q2278.32 1469.61 2279.5 1468.27 Q2281.75 1465.74 2282.63 1464.01 Q2283.53 1462.25 2283.53 1460.56 Q2283.53 1457.8 2281.59 1456.07 Q2279.66 1454.33 2276.56 1454.33 Q2274.36 1454.33 2271.91 1455.09 Q2269.48 1455.86 2266.7 1457.41 L2266.7 1452.69 Q2269.53 1451.55 2271.98 1450.97 Q2274.43 1450.39 2276.47 1450.39 Q2281.84 1450.39 2285.04 1453.08 Q2288.23 1455.77 2288.23 1460.26 Q2288.23 1462.39 2287.42 1464.31 Q2286.63 1466.2 2284.53 1468.8 Q2283.95 1469.47 2280.85 1472.69 Q2277.74 1475.88 2272.1 1481.64 Z" fill="#000000" fill-rule="evenodd" fill-opacity="1" /><path clip-path="url(#clip040)" d="M2308.23 1454.1 Q2304.62 1454.1 2302.79 1457.66 Q2300.98 1461.2 2300.98 1468.33 Q2300.98 1475.44 2302.79 1479.01 Q2304.62 1482.55 2308.23 1482.55 Q2311.86 1482.55 2313.67 1479.01 Q2315.5 1475.44 2315.5 1468.33 Q2315.5 1461.2 2313.67 1457.66 Q2311.86 1454.1 2308.23 1454.1 M2308.23 1450.39 Q2314.04 1450.39 2317.1 1455 Q2320.17 1459.58 2320.17 1468.33 Q2320.17 1477.06 2317.1 1481.67 Q2314.04 1486.25 2308.23 1486.25 Q2302.42 1486.25 2299.34 1481.67 Q2296.29 1477.06 2296.29 1468.33 Q2296.29 1459.58 2299.34 1455 Q2302.42 1450.39 2308.23 1450.39 Z" fill="#000000" fill-rule="evenodd" fill-opacity="1" /><path clip-path="url(#clip040)" d="M1170.91 1532.4 L1176.77 1532.4 L1176.77 1568.04 L1170.91 1568.04 L1170.91 1532.4 M1170.91 1518.52 L1176.77 1518.52 L1176.77 1525.93 L1170.91 1525.93 L1170.91 1518.52 Z" fill="#000000" fill-rule="evenodd" fill-opacity="1" /><path clip-path="url(#clip040)" d="M1194.81 1522.27 L1194.81 1532.4 L1206.88 1532.4 L1206.88 1536.95 L1194.81 1536.95 L1194.81 1556.3 Q1194.81 1560.66 1195.99 1561.9 Q1197.2 1563.14 1200.86 1563.14 L1206.88 1563.14 L1206.88 1568.04 L1200.86 1568.04 Q1194.08 1568.04 1191.5 1565.53 Q1188.93 1562.98 1188.93 1556.3 L1188.93 1536.95 L1184.63 1536.95 L1184.63 1532.4 L1188.93 1532.4 L1188.93 1522.27 L1194.81 1522.27 Z" fill="#000000" fill-rule="evenodd" fill-opacity="1" /><path clip-path="url(#clip040)" d="M1245.07 1548.76 L1245.07 1551.62 L1218.14 1551.62 Q1218.53 1557.67 1221.77 1560.85 Q1225.05 1564 1230.88 1564 Q1234.25 1564 1237.4 1563.17 Q1240.58 1562.35 1243.7 1560.69 L1243.7 1566.23 Q1240.55 1567.57 1237.24 1568.27 Q1233.93 1568.97 1230.53 1568.97 Q1222 1568.97 1217 1564 Q1212.03 1559.04 1212.03 1550.57 Q1212.03 1541.82 1216.74 1536.69 Q1221.49 1531.54 1229.51 1531.54 Q1236.7 1531.54 1240.87 1536.18 Q1245.07 1540.8 1245.07 1548.76 M1239.21 1547.04 Q1239.15 1542.23 1236.51 1539.37 Q1233.9 1536.5 1229.57 1536.5 Q1224.67 1536.5 1221.71 1539.27 Q1218.78 1542.04 1218.33 1547.07 L1239.21 1547.04 Z" fill="#000000" fill-rule="evenodd" fill-opacity="1" /><path clip-path="url(#clip040)" d="M1275.34 1537.87 Q1274.35 1537.3 1273.18 1537.04 Q1272.03 1536.76 1270.63 1536.76 Q1265.66 1536.76 1262.99 1540 Q1260.35 1543.22 1260.35 1549.27 L1260.35 1568.04 L1254.46 1568.04 L1254.46 1532.4 L1260.35 1532.4 L1260.35 1537.93 Q1262.19 1534.69 1265.15 1533.13 Q1268.11 1531.54 1272.35 1531.54 Q1272.95 1531.54 1273.68 1531.63 Q1274.42 1531.7 1275.31 1531.85 L1275.34 1537.87 Z" fill="#000000" fill-rule="evenodd" fill-opacity="1" /><path clip-path="url(#clip040)" d="M1297.68 1550.12 Q1290.59 1550.12 1287.85 1551.75 Q1285.11 1553.37 1285.11 1557.29 Q1285.11 1560.4 1287.15 1562.25 Q1289.22 1564.07 1292.75 1564.07 Q1297.62 1564.07 1300.55 1560.63 Q1303.51 1557.16 1303.51 1551.43 L1303.51 1550.12 L1297.68 1550.12 M1309.36 1547.71 L1309.36 1568.04 L1303.51 1568.04 L1303.51 1562.63 Q1301.5 1565.88 1298.51 1567.44 Q1295.52 1568.97 1291.19 1568.97 Q1285.72 1568.97 1282.47 1565.91 Q1279.25 1562.82 1279.25 1557.67 Q1279.25 1551.65 1283.26 1548.6 Q1287.31 1545.54 1295.3 1545.54 L1303.51 1545.54 L1303.51 1544.97 Q1303.51 1540.93 1300.83 1538.73 Q1298.19 1536.5 1293.39 1536.5 Q1290.33 1536.5 1287.43 1537.23 Q1284.54 1537.97 1281.86 1539.43 L1281.86 1534.02 Q1285.08 1532.78 1288.1 1532.17 Q1291.13 1531.54 1293.99 1531.54 Q1301.73 1531.54 1305.54 1535.55 Q1309.36 1539.56 1309.36 1547.71 Z" fill="#000000" fill-rule="evenodd" fill-opacity="1" /><path clip-path="url(#clip040)" d="M1327.22 1522.27 L1327.22 1532.4 L1339.28 1532.4 L1339.28 1536.95 L1327.22 1536.95 L1327.22 1556.3 Q1327.22 1560.66 1328.4 1561.9 Q1329.61 1563.14 1333.27 1563.14 L1339.28 1563.14 L1339.28 1568.04 L1333.27 1568.04 Q1326.49 1568.04 1323.91 1565.53 Q1321.33 1562.98 1321.33 1556.3 L1321.33 1536.95 L1317.04 1536.95 L1317.04 1532.4 L1321.33 1532.4 L1321.33 1522.27 L1327.22 1522.27 Z" fill="#000000" fill-rule="evenodd" fill-opacity="1" /><path clip-path="url(#clip040)" d="M1346.99 1532.4 L1352.84 1532.4 L1352.84 1568.04 L1346.99 1568.04 L1346.99 1532.4 M1346.99 1518.52 L1352.84 1518.52 L1352.84 1525.93 L1346.99 1525.93 L1346.99 1518.52 Z" fill="#000000" fill-rule="evenodd" fill-opacity="1" /><path clip-path="url(#clip040)" d="M1378.91 1536.5 Q1374.2 1536.5 1371.46 1540.19 Q1368.72 1543.85 1368.72 1550.25 Q1368.72 1556.65 1371.43 1560.34 Q1374.17 1564 1378.91 1564 Q1383.59 1564 1386.33 1560.31 Q1389.06 1556.62 1389.06 1550.25 Q1389.06 1543.92 1386.33 1540.23 Q1383.59 1536.5 1378.91 1536.5 M1378.91 1531.54 Q1386.55 1531.54 1390.91 1536.5 Q1395.27 1541.47 1395.27 1550.25 Q1395.27 1559 1390.91 1564 Q1386.55 1568.97 1378.91 1568.97 Q1371.24 1568.97 1366.88 1564 Q1362.55 1559 1362.55 1550.25 Q1362.55 1541.47 1366.88 1536.5 Q1371.24 1531.54 1378.91 1531.54 Z" fill="#000000" fill-rule="evenodd" fill-opacity="1" /><path clip-path="url(#clip040)" d="M1434.61 1546.53 L1434.61 1568.04 L1428.75 1568.04 L1428.75 1546.72 Q1428.75 1541.66 1426.78 1539.14 Q1424.81 1536.63 1420.86 1536.63 Q1416.12 1536.63 1413.38 1539.65 Q1410.64 1542.68 1410.64 1547.9 L1410.64 1568.04 L1404.75 1568.04 L1404.75 1532.4 L1410.64 1532.4 L1410.64 1537.93 Q1412.74 1534.72 1415.58 1533.13 Q1418.44 1531.54 1422.16 1531.54 Q1428.31 1531.54 1431.46 1535.36 Q1434.61 1539.14 1434.61 1546.53 Z" fill="#000000" fill-rule="evenodd" fill-opacity="1" /><polyline clip-path="url(#clip042)" style="stroke:#000000; stroke-linecap:round; stroke-linejoin:round; stroke-width:2; stroke-opacity:0.1; fill:none" points="252.764,1423.18 2352.76,1423.18 "/>
<polyline clip-path="url(#clip042)" style="stroke:#000000; stroke-linecap:round; stroke-linejoin:round; stroke-width:2; stroke-opacity:0.1; fill:none" points="252.764,1079.2 2352.76,1079.2 "/>
<polyline clip-path="url(#clip042)" style="stroke:#000000; stroke-linecap:round; stroke-linejoin:round; stroke-width:2; stroke-opacity:0.1; fill:none" points="252.764,735.212 2352.76,735.212 "/>
<polyline clip-path="url(#clip042)" style="stroke:#000000; stroke-linecap:round; stroke-linejoin:round; stroke-width:2; stroke-opacity:0.1; fill:none" points="252.764,391.228 2352.76,391.228 "/>
<polyline clip-path="url(#clip042)" style="stroke:#000000; stroke-linecap:round; stroke-linejoin:round; stroke-width:2; stroke-opacity:0.1; fill:none" points="252.764,47.2441 2352.76,47.2441 "/>
<polyline clip-path="url(#clip040)" style="stroke:#000000; stroke-linecap:round; stroke-linejoin:round; stroke-width:4; stroke-opacity:1; fill:none" points="252.764,1423.18 252.764,47.2441 "/>
<polyline clip-path="url(#clip040)" style="stroke:#000000; stroke-linecap:round; stroke-linejoin:round; stroke-width:4; stroke-opacity:1; fill:none" points="252.764,1423.18 271.662,1423.18 "/>
<polyline clip-path="url(#clip040)" style="stroke:#000000; stroke-linecap:round; stroke-linejoin:round; stroke-width:4; stroke-opacity:1; fill:none" points="252.764,1079.2 271.662,1079.2 "/>
<polyline clip-path="url(#clip040)" style="stroke:#000000; stroke-linecap:round; stroke-linejoin:round; stroke-width:4; stroke-opacity:1; fill:none" points="252.764,735.212 271.662,735.212 "/>
<polyline clip-path="url(#clip040)" style="stroke:#000000; stroke-linecap:round; stroke-linejoin:round; stroke-width:4; stroke-opacity:1; fill:none" points="252.764,391.228 271.662,391.228 "/>
<polyline clip-path="url(#clip040)" style="stroke:#000000; stroke-linecap:round; stroke-linejoin:round; stroke-width:4; stroke-opacity:1; fill:none" points="252.764,47.2441 271.662,47.2441 "/>
<path clip-path="url(#clip040)" d="M114.931 1442.97 L122.57 1442.97 L122.57 1416.61 L114.26 1418.27 L114.26 1414.01 L122.524 1412.35 L127.2 1412.35 L127.2 1442.97 L134.839 1442.97 L134.839 1446.91 L114.931 1446.91 L114.931 1442.97 Z" fill="#000000" fill-rule="evenodd" fill-opacity="1" /><path clip-path="url(#clip040)" d="M154.283 1415.43 Q150.672 1415.43 148.843 1418.99 Q147.038 1422.53 147.038 1429.66 Q147.038 1436.77 148.843 1440.33 Q150.672 1443.88 154.283 1443.88 Q157.917 1443.88 159.723 1440.33 Q161.552 1436.77 161.552 1429.66 Q161.552 1422.53 159.723 1418.99 Q157.917 1415.43 154.283 1415.43 M154.283 1411.72 Q160.093 1411.72 163.149 1416.33 Q166.227 1420.91 166.227 1429.66 Q166.227 1438.39 163.149 1443 Q160.093 1447.58 154.283 1447.58 Q148.473 1447.58 145.394 1443 Q142.339 1438.39 142.339 1429.66 Q142.339 1420.91 145.394 1416.33 Q148.473 1411.72 154.283 1411.72 Z" fill="#000000" fill-rule="evenodd" fill-opacity="1" /><path clip-path="url(#clip040)" d="M166.227 1405.82 L190.339 1405.82 L190.339 1409.02 L166.227 1409.02 L166.227 1405.82 Z" fill="#000000" fill-rule="evenodd" fill-opacity="1" /><path clip-path="url(#clip040)" d="M208.978 1394.73 L199.386 1409.72 L208.978 1409.72 L208.978 1394.73 M207.981 1391.42 L212.758 1391.42 L212.758 1409.72 L216.764 1409.72 L216.764 1412.88 L212.758 1412.88 L212.758 1419.5 L208.978 1419.5 L208.978 1412.88 L196.301 1412.88 L196.301 1409.21 L207.981 1391.42 Z" fill="#000000" fill-rule="evenodd" fill-opacity="1" /><path clip-path="url(#clip040)" d="M115.853 1098.99 L123.492 1098.99 L123.492 1072.62 L115.182 1074.29 L115.182 1070.03 L123.446 1068.36 L128.121 1068.36 L128.121 1098.99 L135.76 1098.99 L135.76 1102.92 L115.853 1102.92 L115.853 1098.99 Z" fill="#000000" fill-rule="evenodd" fill-opacity="1" /><path clip-path="url(#clip040)" d="M155.205 1071.44 Q151.594 1071.44 149.765 1075.01 Q147.959 1078.55 147.959 1085.68 Q147.959 1092.78 149.765 1096.35 Q151.594 1099.89 155.205 1099.89 Q158.839 1099.89 160.644 1096.35 Q162.473 1092.78 162.473 1085.68 Q162.473 1078.55 160.644 1075.01 Q158.839 1071.44 155.205 1071.44 M155.205 1067.74 Q161.015 1067.74 164.07 1072.34 Q167.149 1076.93 167.149 1085.68 Q167.149 1094.41 164.07 1099.01 Q161.015 1103.59 155.205 1103.59 Q149.395 1103.59 146.316 1099.01 Q143.26 1094.41 143.26 1085.68 Q143.26 1076.93 146.316 1072.34 Q149.395 1067.74 155.205 1067.74 Z" fill="#000000" fill-rule="evenodd" fill-opacity="1" /><path clip-path="url(#clip040)" d="M167.149 1061.84 L191.261 1061.84 L191.261 1065.04 L167.149 1065.04 L167.149 1061.84 Z" fill="#000000" fill-rule="evenodd" fill-opacity="1" /><path clip-path="url(#clip040)" d="M210.971 1060.37 Q213.698 1060.96 215.222 1062.8 Q216.764 1064.64 216.764 1067.35 Q216.764 1071.51 213.905 1073.78 Q211.046 1076.06 205.78 1076.06 Q204.012 1076.06 202.132 1075.7 Q200.27 1075.36 198.276 1074.67 L198.276 1071 Q199.856 1071.92 201.737 1072.39 Q203.617 1072.86 205.667 1072.86 Q209.241 1072.86 211.103 1071.45 Q212.984 1070.04 212.984 1067.35 Q212.984 1064.87 211.234 1063.48 Q209.504 1062.07 206.401 1062.07 L203.128 1062.07 L203.128 1058.94 L206.551 1058.94 Q209.354 1058.94 210.84 1057.83 Q212.325 1056.71 212.325 1054.6 Q212.325 1052.44 210.783 1051.29 Q209.26 1050.12 206.401 1050.12 Q204.84 1050.12 203.053 1050.46 Q201.266 1050.8 199.122 1051.51 L199.122 1048.13 Q201.285 1047.53 203.166 1047.23 Q205.066 1046.93 206.739 1046.93 Q211.065 1046.93 213.585 1048.9 Q216.106 1050.86 216.106 1054.2 Q216.106 1056.54 214.77 1058.15 Q213.435 1059.75 210.971 1060.37 Z" fill="#000000" fill-rule="evenodd" fill-opacity="1" /><path clip-path="url(#clip040)" d="M116.624 755.004 L124.263 755.004 L124.263 728.639 L115.953 730.305 L115.953 726.046 L124.217 724.38 L128.893 724.38 L128.893 755.004 L136.531 755.004 L136.531 758.94 L116.624 758.94 L116.624 755.004 Z" fill="#000000" fill-rule="evenodd" fill-opacity="1" /><path clip-path="url(#clip040)" d="M155.976 727.458 Q152.365 727.458 150.536 731.023 Q148.73 734.565 148.73 741.694 Q148.73 748.801 150.536 752.366 Q152.365 755.907 155.976 755.907 Q159.61 755.907 161.416 752.366 Q163.244 748.801 163.244 741.694 Q163.244 734.565 161.416 731.023 Q159.61 727.458 155.976 727.458 M155.976 723.755 Q161.786 723.755 164.841 728.361 Q167.92 732.944 167.92 741.694 Q167.92 750.421 164.841 755.028 Q161.786 759.611 155.976 759.611 Q150.166 759.611 147.087 755.028 Q144.031 750.421 144.031 741.694 Q144.031 732.944 147.087 728.361 Q150.166 723.755 155.976 723.755 Z" fill="#000000" fill-rule="evenodd" fill-opacity="1" /><path clip-path="url(#clip040)" d="M167.92 717.856 L192.032 717.856 L192.032 721.053 L167.92 721.053 L167.92 717.856 Z" fill="#000000" fill-rule="evenodd" fill-opacity="1" /><path clip-path="url(#clip040)" d="M203.504 728.332 L216.764 728.332 L216.764 731.529 L198.934 731.529 L198.934 728.332 Q201.097 726.094 204.821 722.332 Q208.564 718.552 209.523 717.461 Q211.347 715.411 212.062 714 Q212.796 712.571 212.796 711.198 Q212.796 708.96 211.216 707.549 Q209.655 706.139 207.134 706.139 Q205.348 706.139 203.354 706.759 Q201.379 707.38 199.122 708.64 L199.122 704.803 Q201.417 703.882 203.41 703.412 Q205.404 702.941 207.059 702.941 Q211.423 702.941 214.018 705.123 Q216.613 707.305 216.613 710.953 Q216.613 712.684 215.955 714.245 Q215.316 715.787 213.604 717.894 Q213.134 718.439 210.614 721.053 Q208.094 723.649 203.504 728.332 Z" fill="#000000" fill-rule="evenodd" fill-opacity="1" /><path clip-path="url(#clip040)" d="M116.323 411.02 L123.962 411.02 L123.962 384.655 L115.652 386.322 L115.652 382.062 L123.916 380.396 L128.592 380.396 L128.592 411.02 L136.231 411.02 L136.231 414.956 L116.323 414.956 L116.323 411.02 Z" fill="#000000" fill-rule="evenodd" fill-opacity="1" /><path clip-path="url(#clip040)" d="M155.675 383.474 Q152.064 383.474 150.235 387.039 Q148.43 390.581 148.43 397.71 Q148.43 404.817 150.235 408.382 Q152.064 411.923 155.675 411.923 Q159.309 411.923 161.115 408.382 Q162.943 404.817 162.943 397.71 Q162.943 390.581 161.115 387.039 Q159.309 383.474 155.675 383.474 M155.675 379.771 Q161.485 379.771 164.541 384.377 Q167.619 388.96 167.619 397.71 Q167.619 406.437 164.541 411.044 Q161.485 415.627 155.675 415.627 Q149.865 415.627 146.786 411.044 Q143.73 406.437 143.73 397.71 Q143.73 388.96 146.786 384.377 Q149.865 379.771 155.675 379.771 Z" fill="#000000" fill-rule="evenodd" fill-opacity="1" /><path clip-path="url(#clip040)" d="M167.619 373.872 L191.731 373.872 L191.731 377.069 L167.619 377.069 L167.619 373.872 Z" fill="#000000" fill-rule="evenodd" fill-opacity="1" /><path clip-path="url(#clip040)" d="M200.589 384.348 L206.796 384.348 L206.796 362.926 L200.044 364.28 L200.044 360.819 L206.758 359.465 L210.557 359.465 L210.557 384.348 L216.764 384.348 L216.764 387.545 L200.589 387.545 L200.589 384.348 Z" fill="#000000" fill-rule="evenodd" fill-opacity="1" /><path clip-path="url(#clip040)" d="M146.058 67.0365 L153.697 67.0365 L153.697 40.6709 L145.387 42.3376 L145.387 38.0784 L153.651 36.4117 L158.327 36.4117 L158.327 67.0365 L165.966 67.0365 L165.966 70.9717 L146.058 70.9717 L146.058 67.0365 Z" fill="#000000" fill-rule="evenodd" fill-opacity="1" /><path clip-path="url(#clip040)" d="M185.41 39.4904 Q181.799 39.4904 179.97 43.0552 Q178.165 46.5968 178.165 53.7264 Q178.165 60.8329 179.97 64.3977 Q181.799 67.9393 185.41 67.9393 Q189.044 67.9393 190.85 64.3977 Q192.678 60.8329 192.678 53.7264 Q192.678 46.5968 190.85 43.0552 Q189.044 39.4904 185.41 39.4904 M185.41 35.7867 Q191.22 35.7867 194.276 40.3932 Q197.354 44.9765 197.354 53.7264 Q197.354 62.4532 194.276 67.0597 Q191.22 71.643 185.41 71.643 Q179.6 71.643 176.521 67.0597 Q173.466 62.4532 173.466 53.7264 Q173.466 44.9765 176.521 40.3932 Q179.6 35.7867 185.41 35.7867 Z" fill="#000000" fill-rule="evenodd" fill-opacity="1" /><path clip-path="url(#clip040)" d="M207.059 17.9827 Q204.125 17.9827 202.639 20.8791 Q201.172 23.7567 201.172 29.5495 Q201.172 35.3235 202.639 38.2199 Q204.125 41.0975 207.059 41.0975 Q210.012 41.0975 211.479 38.2199 Q212.965 35.3235 212.965 29.5495 Q212.965 23.7567 211.479 20.8791 Q210.012 17.9827 207.059 17.9827 M207.059 14.9735 Q211.78 14.9735 214.263 18.7162 Q216.764 22.4402 216.764 29.5495 Q216.764 36.64 214.263 40.3828 Q211.78 44.1067 207.059 44.1067 Q202.338 44.1067 199.837 40.3828 Q197.354 36.64 197.354 29.5495 Q197.354 22.4402 199.837 18.7162 Q202.338 14.9735 207.059 14.9735 Z" fill="#000000" fill-rule="evenodd" fill-opacity="1" /><path clip-path="url(#clip040)" d="M27.9392 757.108 Q28.6155 757.108 29.163 757.688 Q29.7105 758.236 29.7105 758.912 Q29.7105 759.298 29.0664 760.232 Q27.1985 762.905 27.1985 766.287 Q27.1985 769.314 27.9392 772.116 Q28.6799 774.918 30.1936 776.818 Q31.6751 778.686 33.6074 778.686 Q36.0229 778.686 37.4399 776.045 Q36.1839 773.308 36.1839 769.926 Q36.1839 768.831 36.2483 768.09 Q36.3127 767.318 36.4738 766.577 Q36.6348 765.836 37.0213 765.482 Q37.3755 765.095 37.9552 765.095 Q40.0164 765.095 40.0164 770.442 Q40.0164 773.92 39.0824 776.11 Q40.4673 778.912 42.6895 780.458 Q44.9117 782.003 46.8118 782.003 Q48.4543 782.003 49.646 781.102 Q50.8376 780.168 51.4173 778.654 Q51.997 777.108 52.2546 775.594 Q52.4801 774.049 52.4801 772.342 Q52.4801 769.54 52.1258 767.575 Q51.7393 765.578 51.0308 764.483 Q50.3223 763.356 49.8392 762.905 Q49.3239 762.422 48.5187 761.939 Q48.0679 761.649 48.0679 761.263 Q48.0679 760.973 48.2611 760.78 Q48.4221 760.554 48.712 760.554 Q49.0662 760.554 49.807 761.005 Q50.5477 761.424 51.5461 762.454 Q52.5123 763.453 53.414 764.838 Q54.2836 766.19 54.8955 768.348 Q55.5074 770.506 55.5074 772.954 Q55.5074 777.945 53.0598 780.844 Q50.6121 783.71 47.1983 783.71 Q44.8151 783.71 42.3674 782.132 Q39.8876 780.522 38.3095 777.688 Q36.3449 780.329 33.6074 780.329 Q31.1598 780.329 28.9698 778.268 Q26.7798 776.174 25.4916 772.793 Q24.1711 769.379 24.1711 765.643 Q24.1711 763.549 24.8796 761.488 Q25.556 759.427 26.4255 758.268 Q27.2951 757.108 27.9392 757.108 M38.0196 766.802 Q37.6332 768.219 37.6332 769.926 Q37.6332 772.245 38.2129 773.952 Q38.5671 772.567 38.5671 770.442 Q38.5671 768.67 38.4705 768.155 Q38.3739 767.607 38.0196 766.802 Z" fill="#000000" fill-rule="evenodd" fill-opacity="1" /><path clip-path="url(#clip040)" d="M57.1294 731.525 Q58.3243 731.525 59.0908 732.314 Q59.8573 733.08 59.8573 734.072 Q59.8573 734.929 59.3613 735.38 Q58.8653 735.831 58.2341 735.831 Q57.3323 735.831 56.5884 735.132 Q55.8444 734.433 55.6866 733.419 Q55.1455 734.162 55.1455 735.357 Q55.1455 737.319 56.656 739.055 Q57.3549 739.821 58.6399 740.655 Q59.9023 741.489 60.4434 741.647 L66.4627 743.112 Q67.139 743.248 70.3854 744.082 Q73.6092 744.893 73.7444 744.961 Q74.3757 745.187 74.7138 745.683 Q75.052 746.178 75.052 746.674 Q75.052 747.238 74.7138 747.621 Q74.3757 748.005 73.7895 748.005 Q73.6993 748.005 73.3612 747.937 Q73.023 747.869 72.5496 747.757 Q72.0762 747.644 71.8056 747.599 L61.1423 744.916 Q59.2035 744.42 58.5948 744.307 Q57.9636 744.172 57.2647 744.172 Q56.0473 744.172 55.5964 744.555 Q55.1455 744.939 55.1455 745.615 Q55.1455 746.787 56.5433 747.554 Q57.941 748.32 60.6463 748.974 Q61.3903 749.177 61.5481 749.312 Q61.7059 749.425 61.7059 749.763 Q61.6833 750.327 61.2324 750.327 Q61.1197 750.327 60.3983 750.146 Q59.6544 749.966 58.5722 749.628 Q57.4676 749.267 56.7687 748.884 Q56.2953 748.658 55.9797 748.455 Q55.6641 748.253 55.1681 747.847 Q54.6721 747.441 54.4016 746.832 Q54.1311 746.224 54.1311 745.48 Q54.1311 743.856 55.123 742.707 Q56.1149 741.534 57.6705 741.264 Q56.8589 740.7 56.16 740.001 Q55.4386 739.303 54.7848 738.018 Q54.1311 736.732 54.1311 735.357 Q54.1311 733.644 55.0103 732.584 Q55.867 731.525 57.1294 731.525 Z" fill="#000000" fill-rule="evenodd" fill-opacity="1" /><path clip-path="url(#clip040)" d="M69.1905 711.114 Q69.3934 710.934 69.5963 710.934 Q69.7992 710.934 70.3854 711.385 Q70.9715 711.813 71.7605 712.737 Q72.5496 713.662 73.2935 714.857 Q74.0375 716.051 74.5335 717.81 Q75.052 719.568 75.052 721.417 Q75.052 724.731 72.6849 726.715 Q70.3177 728.676 66.6881 728.676 Q64.3661 728.676 62.3146 727.91 Q60.2405 727.143 58.7751 725.903 Q57.3098 724.641 56.2502 723.063 Q55.1681 721.462 54.6496 719.794 Q54.1311 718.125 54.1311 716.57 Q54.1311 714.293 55.2808 712.963 Q56.4306 711.633 58.0537 711.633 Q58.437 711.633 58.9104 711.745 Q59.3838 711.836 60.1278 712.151 Q60.8717 712.444 61.6157 713.211 Q62.3371 713.977 62.8105 715.105 Q63.8701 717.607 63.8701 722.161 L63.8701 724.618 Q66.7783 725.34 68.672 725.34 Q69.416 725.34 70.1825 725.204 Q70.9264 725.069 71.8733 724.708 Q72.8201 724.325 73.4288 723.468 Q74.015 722.589 74.015 721.327 Q74.015 720.921 73.9924 720.493 Q73.9699 720.042 73.7219 718.914 Q73.4739 717.765 73.0456 716.75 Q72.6172 715.736 71.6929 714.451 Q70.7461 713.143 69.461 712.106 Q68.9876 711.745 68.9876 711.497 Q68.9876 711.295 69.1905 711.114 M58.0537 713.166 Q56.8138 713.166 55.9797 714.09 Q55.1455 714.992 55.1455 716.57 Q55.1455 717.066 55.2583 717.675 Q55.371 718.283 55.8444 719.298 Q56.3178 720.29 57.1069 721.169 Q57.8734 722.048 59.3838 722.927 Q60.8717 723.807 62.8556 724.325 L62.8556 722.431 Q62.8556 721.778 62.8556 721.304 Q62.8331 720.831 62.7429 719.794 Q62.6527 718.734 62.4949 717.968 Q62.3146 717.201 61.9539 716.232 Q61.5932 715.262 61.1197 714.654 Q60.6238 714.022 59.8347 713.594 Q59.0457 713.166 58.0537 713.166 Z" fill="#000000" fill-rule="evenodd" fill-opacity="1" /><path clip-path="url(#clip040)" d="M42.9943 697.5 L69.6865 704.15 Q70.7461 704.421 71.8958 704.421 Q74.015 704.421 74.015 703.023 Q74.015 702.369 73.5866 701.828 Q73.1357 701.287 72.2565 700.882 Q71.3548 700.453 70.4981 700.183 Q69.6414 699.89 68.3113 699.529 Q67.7928 699.416 67.635 699.303 Q67.4772 699.191 67.4772 698.875 Q67.4772 698.312 67.928 698.312 Q70.701 698.875 72.4594 699.709 Q75.052 700.927 75.052 703.181 Q75.052 704.872 73.8797 706.134 Q72.6849 707.374 70.7911 707.374 Q70.0697 707.374 69.2131 707.149 L46.1279 701.332 L45.2261 701.175 Q44.9782 701.175 44.8429 701.265 Q44.7076 701.355 44.5724 701.896 Q44.4371 702.415 44.4371 703.452 Q44.4371 703.88 44.4145 704.083 Q44.392 704.263 44.2793 704.444 Q44.1666 704.601 43.9186 704.601 Q43.5128 704.601 43.2873 704.444 Q43.0619 704.263 43.0168 704.128 Q42.9717 703.993 42.9492 703.722 Q42.9266 703.339 42.8139 702.054 Q42.6787 700.769 42.5885 699.664 Q42.4983 698.56 42.4983 698.086 Q42.4983 697.816 42.6336 697.68 Q42.7463 697.522 42.8815 697.5 L42.9943 697.5 Z" fill="#000000" fill-rule="evenodd" fill-opacity="1" /><polyline clip-path="url(#clip042)" style="stroke:#ac8d18; stroke-linecap:round; stroke-linejoin:round; stroke-width:4; stroke-opacity:1; fill:none" points="312.198,354.859 416.467,360 520.737,365.632 625.007,371.851 729.277,378.777 833.546,386.574 937.816,395.46 1042.09,405.744 1146.36,417.873 1250.63,432.524 1354.89,450.778 1459.16,474.489 1563.43,507.117 1667.7,555.836 1771.97,636.94 1876.24,777.544 1980.51,889.331 2084.78,895.28 2189.05,895.295 2293.32,895.296 "/>
<polyline clip-path="url(#clip042)" style="stroke:#00a9ad; stroke-linecap:round; stroke-linejoin:round; stroke-width:4; stroke-opacity:1; fill:none" points="312.198,404.82 416.467,416.564 520.737,430.66 625.007,448.078 729.277,470.447 833.546,500.744 937.816,544.994 1042.09,616.871 1146.36,746.68 1250.63,915.332 1354.89,946.156 1459.16,946.498 1563.43,946.502 "/>
<polyline clip-path="url(#clip042)" style="stroke:#ed5d92; stroke-linecap:round; stroke-linejoin:round; stroke-width:4; stroke-opacity:1; fill:none" points="312.198,484.901 416.467,522.306 520.737,580.724 625.007,685.363 729.277,881.186 833.546,999.924 937.816,1002.11 1042.09,1002.13 "/>
<polyline clip-path="url(#clip042)" style="stroke:#c68125; stroke-linecap:round; stroke-linejoin:round; stroke-width:4; stroke-opacity:1; fill:none" points="312.198,852.988 416.467,1075.56 520.737,1088.49 625.007,1088.56 "/>
<polyline clip-path="url(#clip042)" style="stroke:#00a98d; stroke-linecap:round; stroke-linejoin:round; stroke-width:4; stroke-opacity:1; fill:none" points="312.198,1087 416.467,1203.59 520.737,1205.29 625.007,1205.3 "/>
<path clip-path="url(#clip040)" d="M1928.45 404.149 L2282.76 404.149 L2282.76 93.1086 L1928.45 93.1086  Z" fill="#ffffff" fill-rule="evenodd" fill-opacity="1"/>
<polyline clip-path="url(#clip040)" style="stroke:#000000; stroke-linecap:round; stroke-linejoin:round; stroke-width:4; stroke-opacity:1; fill:none" points="1928.45,404.149 2282.76,404.149 2282.76,93.1086 1928.45,93.1086 1928.45,404.149 "/>
<polyline clip-path="url(#clip040)" style="stroke:#ac8d18; stroke-linecap:round; stroke-linejoin:round; stroke-width:4; stroke-opacity:1; fill:none" points="1951.79,144.949 2091.78,144.949 "/>
<path clip-path="url(#clip040)" d="M2130.3 140.284 Q2129.59 139.868 2128.73 139.682 Q2127.9 139.474 2126.88 139.474 Q2123.27 139.474 2121.32 141.835 Q2119.4 144.173 2119.4 148.571 L2119.4 162.229 L2115.12 162.229 L2115.12 136.303 L2119.4 136.303 L2119.4 140.331 Q2120.74 137.969 2122.9 136.835 Q2125.05 135.678 2128.13 135.678 Q2128.57 135.678 2129.1 135.747 Q2129.63 135.794 2130.28 135.909 L2130.3 140.284 Z" fill="#000000" fill-rule="evenodd" fill-opacity="1" /><path clip-path="url(#clip040)" d="M2146.55 149.196 Q2141.39 149.196 2139.4 150.377 Q2137.41 151.557 2137.41 154.405 Q2137.41 156.673 2138.89 158.016 Q2140.4 159.335 2142.97 159.335 Q2146.51 159.335 2148.64 156.835 Q2150.79 154.312 2150.79 150.145 L2150.79 149.196 L2146.55 149.196 M2155.05 147.437 L2155.05 162.229 L2150.79 162.229 L2150.79 158.293 Q2149.33 160.655 2147.16 161.789 Q2144.98 162.9 2141.83 162.9 Q2137.85 162.9 2135.49 160.678 Q2133.15 158.432 2133.15 154.682 Q2133.15 150.307 2136.07 148.085 Q2139.01 145.863 2144.82 145.863 L2150.79 145.863 L2150.79 145.446 Q2150.79 142.507 2148.84 140.909 Q2146.92 139.289 2143.43 139.289 Q2141.21 139.289 2139.1 139.821 Q2136.99 140.354 2135.05 141.419 L2135.05 137.483 Q2137.39 136.581 2139.59 136.141 Q2141.78 135.678 2143.87 135.678 Q2149.49 135.678 2152.27 138.594 Q2155.05 141.511 2155.05 147.437 Z" fill="#000000" fill-rule="evenodd" fill-opacity="1" /><path clip-path="url(#clip040)" d="M2185.37 146.581 L2185.37 162.229 L2181.11 162.229 L2181.11 146.719 Q2181.11 143.039 2179.68 141.21 Q2178.24 139.382 2175.37 139.382 Q2171.92 139.382 2169.93 141.581 Q2167.94 143.78 2167.94 147.576 L2167.94 162.229 L2163.66 162.229 L2163.66 136.303 L2167.94 136.303 L2167.94 140.331 Q2169.47 137.993 2171.53 136.835 Q2173.61 135.678 2176.32 135.678 Q2180.79 135.678 2183.08 138.456 Q2185.37 141.21 2185.37 146.581 Z" fill="#000000" fill-rule="evenodd" fill-opacity="1" /><path clip-path="url(#clip040)" d="M2193.71 126.21 L2197.99 126.21 L2197.99 147.483 L2210.7 136.303 L2216.14 136.303 L2202.39 148.432 L2216.71 162.229 L2211.16 162.229 L2197.99 149.567 L2197.99 162.229 L2193.71 162.229 L2193.71 126.21 Z" fill="#000000" fill-rule="evenodd" fill-opacity="1" /><path clip-path="url(#clip040)" d="M2237.8 158.293 L2245.44 158.293 L2245.44 131.928 L2237.13 133.595 L2237.13 129.335 L2245.4 127.669 L2250.07 127.669 L2250.07 158.293 L2257.71 158.293 L2257.71 162.229 L2237.8 162.229 L2237.8 158.293 Z" fill="#000000" fill-rule="evenodd" fill-opacity="1" /><polyline clip-path="url(#clip040)" style="stroke:#00a9ad; stroke-linecap:round; stroke-linejoin:round; stroke-width:4; stroke-opacity:1; fill:none" points="1951.79,196.789 2091.78,196.789 "/>
<path clip-path="url(#clip040)" d="M2130.3 192.124 Q2129.59 191.708 2128.73 191.522 Q2127.9 191.314 2126.88 191.314 Q2123.27 191.314 2121.32 193.675 Q2119.4 196.013 2119.4 200.411 L2119.4 214.069 L2115.12 214.069 L2115.12 188.143 L2119.4 188.143 L2119.4 192.171 Q2120.74 189.809 2122.9 188.675 Q2125.05 187.518 2128.13 187.518 Q2128.57 187.518 2129.1 187.587 Q2129.63 187.634 2130.28 187.749 L2130.3 192.124 Z" fill="#000000" fill-rule="evenodd" fill-opacity="1" /><path clip-path="url(#clip040)" d="M2146.55 201.036 Q2141.39 201.036 2139.4 202.217 Q2137.41 203.397 2137.41 206.245 Q2137.41 208.513 2138.89 209.856 Q2140.4 211.175 2142.97 211.175 Q2146.51 211.175 2148.64 208.675 Q2150.79 206.152 2150.79 201.985 L2150.79 201.036 L2146.55 201.036 M2155.05 199.277 L2155.05 214.069 L2150.79 214.069 L2150.79 210.133 Q2149.33 212.495 2147.16 213.629 Q2144.98 214.74 2141.83 214.74 Q2137.85 214.74 2135.49 212.518 Q2133.15 210.272 2133.15 206.522 Q2133.15 202.147 2136.07 199.925 Q2139.01 197.703 2144.82 197.703 L2150.79 197.703 L2150.79 197.286 Q2150.79 194.347 2148.84 192.749 Q2146.92 191.129 2143.43 191.129 Q2141.21 191.129 2139.1 191.661 Q2136.99 192.194 2135.05 193.259 L2135.05 189.323 Q2137.39 188.421 2139.59 187.981 Q2141.78 187.518 2143.87 187.518 Q2149.49 187.518 2152.27 190.434 Q2155.05 193.351 2155.05 199.277 Z" fill="#000000" fill-rule="evenodd" fill-opacity="1" /><path clip-path="url(#clip040)" d="M2185.37 198.421 L2185.37 214.069 L2181.11 214.069 L2181.11 198.559 Q2181.11 194.879 2179.68 193.05 Q2178.24 191.222 2175.37 191.222 Q2171.92 191.222 2169.93 193.421 Q2167.94 195.62 2167.94 199.416 L2167.94 214.069 L2163.66 214.069 L2163.66 188.143 L2167.94 188.143 L2167.94 192.171 Q2169.47 189.833 2171.53 188.675 Q2173.61 187.518 2176.32 187.518 Q2180.79 187.518 2183.08 190.296 Q2185.37 193.05 2185.37 198.421 Z" fill="#000000" fill-rule="evenodd" fill-opacity="1" /><path clip-path="url(#clip040)" d="M2193.71 178.05 L2197.99 178.05 L2197.99 199.323 L2210.7 188.143 L2216.14 188.143 L2202.39 200.272 L2216.71 214.069 L2211.16 214.069 L2197.99 201.407 L2197.99 214.069 L2193.71 214.069 L2193.71 178.05 Z" fill="#000000" fill-rule="evenodd" fill-opacity="1" /><path clip-path="url(#clip040)" d="M2241.02 210.133 L2257.34 210.133 L2257.34 214.069 L2235.4 214.069 L2235.4 210.133 Q2238.06 207.379 2242.64 202.749 Q2247.25 198.096 2248.43 196.754 Q2250.67 194.231 2251.55 192.495 Q2252.46 190.735 2252.46 189.046 Q2252.46 186.291 2250.51 184.555 Q2248.59 182.819 2245.49 182.819 Q2243.29 182.819 2240.84 183.583 Q2238.4 184.347 2235.63 185.897 L2235.63 181.175 Q2238.45 180.041 2240.9 179.462 Q2243.36 178.884 2245.4 178.884 Q2250.77 178.884 2253.96 181.569 Q2257.15 184.254 2257.15 188.745 Q2257.15 190.874 2256.34 192.796 Q2255.56 194.694 2253.45 197.286 Q2252.87 197.958 2249.77 201.175 Q2246.67 204.37 2241.02 210.133 Z" fill="#000000" fill-rule="evenodd" fill-opacity="1" /><polyline clip-path="url(#clip040)" style="stroke:#ed5d92; stroke-linecap:round; stroke-linejoin:round; stroke-width:4; stroke-opacity:1; fill:none" points="1951.79,248.629 2091.78,248.629 "/>
<path clip-path="url(#clip040)" d="M2130.3 243.964 Q2129.59 243.548 2128.73 243.362 Q2127.9 243.154 2126.88 243.154 Q2123.27 243.154 2121.32 245.515 Q2119.4 247.853 2119.4 252.251 L2119.4 265.909 L2115.12 265.909 L2115.12 239.983 L2119.4 239.983 L2119.4 244.011 Q2120.74 241.649 2122.9 240.515 Q2125.05 239.358 2128.13 239.358 Q2128.57 239.358 2129.1 239.427 Q2129.63 239.474 2130.28 239.589 L2130.3 243.964 Z" fill="#000000" fill-rule="evenodd" fill-opacity="1" /><path clip-path="url(#clip040)" d="M2146.55 252.876 Q2141.39 252.876 2139.4 254.057 Q2137.41 255.237 2137.41 258.085 Q2137.41 260.353 2138.89 261.696 Q2140.4 263.015 2142.97 263.015 Q2146.51 263.015 2148.64 260.515 Q2150.79 257.992 2150.79 253.825 L2150.79 252.876 L2146.55 252.876 M2155.05 251.117 L2155.05 265.909 L2150.79 265.909 L2150.79 261.973 Q2149.33 264.335 2147.16 265.469 Q2144.98 266.58 2141.83 266.58 Q2137.85 266.58 2135.49 264.358 Q2133.15 262.112 2133.15 258.362 Q2133.15 253.987 2136.07 251.765 Q2139.01 249.543 2144.82 249.543 L2150.79 249.543 L2150.79 249.126 Q2150.79 246.187 2148.84 244.589 Q2146.92 242.969 2143.43 242.969 Q2141.21 242.969 2139.1 243.501 Q2136.99 244.034 2135.05 245.099 L2135.05 241.163 Q2137.39 240.261 2139.59 239.821 Q2141.78 239.358 2143.87 239.358 Q2149.49 239.358 2152.27 242.274 Q2155.05 245.191 2155.05 251.117 Z" fill="#000000" fill-rule="evenodd" fill-opacity="1" /><path clip-path="url(#clip040)" d="M2185.37 250.261 L2185.37 265.909 L2181.11 265.909 L2181.11 250.399 Q2181.11 246.719 2179.68 244.89 Q2178.24 243.062 2175.37 243.062 Q2171.92 243.062 2169.93 245.261 Q2167.94 247.46 2167.94 251.256 L2167.94 265.909 L2163.66 265.909 L2163.66 239.983 L2167.94 239.983 L2167.94 244.011 Q2169.47 241.673 2171.53 240.515 Q2173.61 239.358 2176.32 239.358 Q2180.79 239.358 2183.08 242.136 Q2185.37 244.89 2185.37 250.261 Z" fill="#000000" fill-rule="evenodd" fill-opacity="1" /><path clip-path="url(#clip040)" d="M2193.71 229.89 L2197.99 229.89 L2197.99 251.163 L2210.7 239.983 L2216.14 239.983 L2202.39 252.112 L2216.71 265.909 L2211.16 265.909 L2197.99 253.247 L2197.99 265.909 L2193.71 265.909 L2193.71 229.89 Z" fill="#000000" fill-rule="evenodd" fill-opacity="1" /><path clip-path="url(#clip040)" d="M2251.16 247.274 Q2254.52 247.992 2256.39 250.261 Q2258.29 252.529 2258.29 255.862 Q2258.29 260.978 2254.77 263.779 Q2251.25 266.58 2244.77 266.58 Q2242.59 266.58 2240.28 266.14 Q2237.99 265.723 2235.53 264.867 L2235.53 260.353 Q2237.48 261.487 2239.79 262.066 Q2242.11 262.645 2244.63 262.645 Q2249.03 262.645 2251.32 260.909 Q2253.64 259.173 2253.64 255.862 Q2253.64 252.807 2251.48 251.094 Q2249.35 249.358 2245.53 249.358 L2241.51 249.358 L2241.51 245.515 L2245.72 245.515 Q2249.17 245.515 2251 244.149 Q2252.83 242.761 2252.83 240.168 Q2252.83 237.506 2250.93 236.094 Q2249.05 234.659 2245.53 234.659 Q2243.61 234.659 2241.41 235.075 Q2239.21 235.492 2236.58 236.372 L2236.58 232.205 Q2239.24 231.464 2241.55 231.094 Q2243.89 230.724 2245.95 230.724 Q2251.27 230.724 2254.38 233.154 Q2257.48 235.562 2257.48 239.682 Q2257.48 242.552 2255.83 244.543 Q2254.19 246.511 2251.16 247.274 Z" fill="#000000" fill-rule="evenodd" fill-opacity="1" /><polyline clip-path="url(#clip040)" style="stroke:#c68125; stroke-linecap:round; stroke-linejoin:round; stroke-width:4; stroke-opacity:1; fill:none" points="1951.79,300.469 2091.78,300.469 "/>
<path clip-path="url(#clip040)" d="M2130.3 295.804 Q2129.59 295.388 2128.73 295.202 Q2127.9 294.994 2126.88 294.994 Q2123.27 294.994 2121.32 297.355 Q2119.4 299.693 2119.4 304.091 L2119.4 317.749 L2115.12 317.749 L2115.12 291.823 L2119.4 291.823 L2119.4 295.851 Q2120.74 293.489 2122.9 292.355 Q2125.05 291.198 2128.13 291.198 Q2128.57 291.198 2129.1 291.267 Q2129.63 291.314 2130.28 291.429 L2130.3 295.804 Z" fill="#000000" fill-rule="evenodd" fill-opacity="1" /><path clip-path="url(#clip040)" d="M2146.55 304.716 Q2141.39 304.716 2139.4 305.897 Q2137.41 307.077 2137.41 309.925 Q2137.41 312.193 2138.89 313.536 Q2140.4 314.855 2142.97 314.855 Q2146.51 314.855 2148.64 312.355 Q2150.79 309.832 2150.79 305.665 L2150.79 304.716 L2146.55 304.716 M2155.05 302.957 L2155.05 317.749 L2150.79 317.749 L2150.79 313.813 Q2149.33 316.175 2147.16 317.309 Q2144.98 318.42 2141.83 318.42 Q2137.85 318.42 2135.49 316.198 Q2133.15 313.952 2133.15 310.202 Q2133.15 305.827 2136.07 303.605 Q2139.01 301.383 2144.82 301.383 L2150.79 301.383 L2150.79 300.966 Q2150.79 298.027 2148.84 296.429 Q2146.92 294.809 2143.43 294.809 Q2141.21 294.809 2139.1 295.341 Q2136.99 295.874 2135.05 296.939 L2135.05 293.003 Q2137.39 292.101 2139.59 291.661 Q2141.78 291.198 2143.87 291.198 Q2149.49 291.198 2152.27 294.114 Q2155.05 297.031 2155.05 302.957 Z" fill="#000000" fill-rule="evenodd" fill-opacity="1" /><path clip-path="url(#clip040)" d="M2185.37 302.101 L2185.37 317.749 L2181.11 317.749 L2181.11 302.239 Q2181.11 298.559 2179.68 296.73 Q2178.24 294.902 2175.37 294.902 Q2171.92 294.902 2169.93 297.101 Q2167.94 299.3 2167.94 303.096 L2167.94 317.749 L2163.66 317.749 L2163.66 291.823 L2167.94 291.823 L2167.94 295.851 Q2169.47 293.513 2171.53 292.355 Q2173.61 291.198 2176.32 291.198 Q2180.79 291.198 2183.08 293.976 Q2185.37 296.73 2185.37 302.101 Z" fill="#000000" fill-rule="evenodd" fill-opacity="1" /><path clip-path="url(#clip040)" d="M2193.71 281.73 L2197.99 281.73 L2197.99 303.003 L2210.7 291.823 L2216.14 291.823 L2202.39 303.952 L2216.71 317.749 L2211.16 317.749 L2197.99 305.087 L2197.99 317.749 L2193.71 317.749 L2193.71 281.73 Z" fill="#000000" fill-rule="evenodd" fill-opacity="1" /><path clip-path="url(#clip040)" d="M2249.84 287.263 L2238.03 305.712 L2249.84 305.712 L2249.84 287.263 M2248.61 283.189 L2254.49 283.189 L2254.49 305.712 L2259.42 305.712 L2259.42 309.601 L2254.49 309.601 L2254.49 317.749 L2249.84 317.749 L2249.84 309.601 L2234.24 309.601 L2234.24 305.087 L2248.61 283.189 Z" fill="#000000" fill-rule="evenodd" fill-opacity="1" /><polyline clip-path="url(#clip040)" style="stroke:#00a98d; stroke-linecap:round; stroke-linejoin:round; stroke-width:4; stroke-opacity:1; fill:none" points="1951.79,352.309 2091.78,352.309 "/>
<path clip-path="url(#clip040)" d="M2130.3 347.644 Q2129.59 347.228 2128.73 347.042 Q2127.9 346.834 2126.88 346.834 Q2123.27 346.834 2121.32 349.195 Q2119.4 351.533 2119.4 355.931 L2119.4 369.589 L2115.12 369.589 L2115.12 343.663 L2119.4 343.663 L2119.4 347.691 Q2120.74 345.329 2122.9 344.195 Q2125.05 343.038 2128.13 343.038 Q2128.57 343.038 2129.1 343.107 Q2129.63 343.154 2130.28 343.269 L2130.3 347.644 Z" fill="#000000" fill-rule="evenodd" fill-opacity="1" /><path clip-path="url(#clip040)" d="M2146.55 356.556 Q2141.39 356.556 2139.4 357.737 Q2137.41 358.917 2137.41 361.765 Q2137.41 364.033 2138.89 365.376 Q2140.4 366.695 2142.97 366.695 Q2146.51 366.695 2148.64 364.195 Q2150.79 361.672 2150.79 357.505 L2150.79 356.556 L2146.55 356.556 M2155.05 354.797 L2155.05 369.589 L2150.79 369.589 L2150.79 365.653 Q2149.33 368.015 2147.16 369.149 Q2144.98 370.26 2141.83 370.26 Q2137.85 370.26 2135.49 368.038 Q2133.15 365.792 2133.15 362.042 Q2133.15 357.667 2136.07 355.445 Q2139.01 353.223 2144.82 353.223 L2150.79 353.223 L2150.79 352.806 Q2150.79 349.867 2148.84 348.269 Q2146.92 346.649 2143.43 346.649 Q2141.21 346.649 2139.1 347.181 Q2136.99 347.714 2135.05 348.779 L2135.05 344.843 Q2137.39 343.941 2139.59 343.501 Q2141.78 343.038 2143.87 343.038 Q2149.49 343.038 2152.27 345.954 Q2155.05 348.871 2155.05 354.797 Z" fill="#000000" fill-rule="evenodd" fill-opacity="1" /><path clip-path="url(#clip040)" d="M2185.37 353.941 L2185.37 369.589 L2181.11 369.589 L2181.11 354.079 Q2181.11 350.399 2179.68 348.57 Q2178.24 346.742 2175.37 346.742 Q2171.92 346.742 2169.93 348.941 Q2167.94 351.14 2167.94 354.936 L2167.94 369.589 L2163.66 369.589 L2163.66 343.663 L2167.94 343.663 L2167.94 347.691 Q2169.47 345.353 2171.53 344.195 Q2173.61 343.038 2176.32 343.038 Q2180.79 343.038 2183.08 345.816 Q2185.37 348.57 2185.37 353.941 Z" fill="#000000" fill-rule="evenodd" fill-opacity="1" /><path clip-path="url(#clip040)" d="M2193.71 333.57 L2197.99 333.57 L2197.99 354.843 L2210.7 343.663 L2216.14 343.663 L2202.39 355.792 L2216.71 369.589 L2211.16 369.589 L2197.99 356.927 L2197.99 369.589 L2193.71 369.589 L2193.71 333.57 Z" fill="#000000" fill-rule="evenodd" fill-opacity="1" /><path clip-path="url(#clip040)" d="M2237.04 335.029 L2255.4 335.029 L2255.4 338.964 L2241.32 338.964 L2241.32 347.436 Q2242.34 347.089 2243.36 346.927 Q2244.38 346.742 2245.4 346.742 Q2251.18 346.742 2254.56 349.913 Q2257.94 353.084 2257.94 358.501 Q2257.94 364.079 2254.47 367.181 Q2251 370.26 2244.68 370.26 Q2242.5 370.26 2240.23 369.89 Q2237.99 369.519 2235.58 368.778 L2235.58 364.079 Q2237.66 365.214 2239.89 365.769 Q2242.11 366.325 2244.59 366.325 Q2248.59 366.325 2250.93 364.218 Q2253.27 362.112 2253.27 358.501 Q2253.27 354.89 2250.93 352.783 Q2248.59 350.677 2244.59 350.677 Q2242.71 350.677 2240.84 351.093 Q2238.98 351.51 2237.04 352.39 L2237.04 335.029 Z" fill="#000000" fill-rule="evenodd" fill-opacity="1" /></svg>
