<?xml version="1.0" encoding="utf-8"?>
<svg xmlns="http://www.w3.org/2000/svg" xmlns:xlink="http://www.w3.org/1999/xlink" width="600" height="400" viewBox="0 0 2400 1600">
<defs>
  <clipPath id="clip830">
    <rect x="0" y="0" width="2400" height="1600"/>
  </clipPath>
</defs>
<path clip-path="url(#clip830)" d="M0 1600 L2400 1600 L2400 0 L0 0  Z" fill="#ffffff" fill-rule="evenodd" fill-opacity="1"/>
<defs>
  <clipPath id="clip831">
    <rect x="480" y="0" width="1681" height="1600"/>
  </clipPath>
</defs>
<defs>
  <clipPath id="clip832">
    <rect x="252" y="47" width="2101" height="1377"/>
  </clipPath>
</defs>
<path clip-path="url(#clip830)" d="M252.764 1423.18 L2352.76 1423.18 L2352.76 47.2441 L252.764 47.2441  Z" fill="#ffffff" fill-rule="evenodd" fill-opacity="1"/>
<polyline clip-path="url(#clip832)" style="stroke:#000000; stroke-linecap:round; stroke-linejoin:round; stroke-width:2; stroke-opacity:0.1; fill:none" points="309.671,1423.18 309.671,47.2441 "/>
<polyline clip-path="url(#clip832)" style="stroke:#000000; stroke-linecap:round; stroke-linejoin:round; stroke-width:2; stroke-opacity:0.1; fill:none" points="815.06,1423.18 815.06,47.2441 "/>
<polyline clip-path="url(#clip832)" style="stroke:#000000; stroke-linecap:round; stroke-linejoin:round; stroke-width:2; stroke-opacity:0.1; fill:none" points="1320.45,1423.18 1320.45,47.2441 "/>
<polyline clip-path="url(#clip832)" style="stroke:#000000; stroke-linecap:round; stroke-linejoin:round; stroke-width:2; stroke-opacity:0.1; fill:none" points="1825.84,1423.18 1825.84,47.2441 "/>
<polyline clip-path="url(#clip832)" style="stroke:#000000; stroke-linecap:round; stroke-linejoin:round; stroke-width:2; stroke-opacity:0.1; fill:none" points="2331.23,1423.18 2331.23,47.2441 "/>
<polyline clip-path="url(#clip830)" style="stroke:#000000; stroke-linecap:round; stroke-linejoin:round; stroke-width:4; stroke-opacity:1; fill:none" points="252.764,1423.18 2352.76,1423.18 "/>
<polyline clip-path="url(#clip830)" style="stroke:#000000; stroke-linecap:round; stroke-linejoin:round; stroke-width:4; stroke-opacity:1; fill:none" points="309.671,1423.18 309.671,1404.28 "/>
<polyline clip-path="url(#clip830)" style="stroke:#000000; stroke-linecap:round; stroke-linejoin:round; stroke-width:4; stroke-opacity:1; fill:none" points="815.06,1423.18 815.06,1404.28 "/>
<polyline clip-path="url(#clip830)" style="stroke:#000000; stroke-linecap:round; stroke-linejoin:round; stroke-width:4; stroke-opacity:1; fill:none" points="1320.45,1423.18 1320.45,1404.28 "/>
<polyline clip-path="url(#clip830)" style="stroke:#000000; stroke-linecap:round; stroke-linejoin:round; stroke-width:4; stroke-opacity:1; fill:none" points="1825.84,1423.18 1825.84,1404.28 "/>
<polyline clip-path="url(#clip830)" style="stroke:#000000; stroke-linecap:round; stroke-linejoin:round; stroke-width:4; stroke-opacity:1; fill:none" points="2331.23,1423.18 2331.23,1404.28 "/>
<path clip-path="url(#clip830)" d="M309.671 1454.1 Q306.06 1454.1 304.231 1457.66 Q302.425 1461.2 302.425 1468.33 Q302.425 1475.44 304.231 1479.01 Q306.06 1482.55 309.671 1482.55 Q313.305 1482.55 315.111 1479.01 Q316.939 1475.44 316.939 1468.33 Q316.939 1461.2 315.111 1457.66 Q313.305 1454.1 309.671 1454.1 M309.671 1450.39 Q315.481 1450.39 318.536 1455 Q321.615 1459.58 321.615 1468.33 Q321.615 1477.06 318.536 1481.67 Q315.481 1486.25 309.671 1486.25 Q303.861 1486.25 300.782 1481.67 Q297.726 1477.06 297.726 1468.33 Q297.726 1459.58 300.782 1455 Q303.861 1450.39 309.671 1450.39 Z" fill="#000000" fill-rule="evenodd" fill-opacity="1" /><path clip-path="url(#clip830)" d="M778.752 1481.64 L795.071 1481.64 L795.071 1485.58 L773.127 1485.58 L773.127 1481.64 Q775.789 1478.89 780.372 1474.26 Q784.979 1469.61 786.159 1468.27 Q788.405 1465.74 789.284 1464.01 Q790.187 1462.25 790.187 1460.56 Q790.187 1457.8 788.243 1456.07 Q786.321 1454.33 783.22 1454.33 Q781.02 1454.33 778.567 1455.09 Q776.136 1455.86 773.358 1457.41 L773.358 1452.69 Q776.183 1451.55 778.636 1450.97 Q781.09 1450.39 783.127 1450.39 Q788.497 1450.39 791.692 1453.08 Q794.886 1455.77 794.886 1460.26 Q794.886 1462.39 794.076 1464.31 Q793.289 1466.2 791.182 1468.8 Q790.604 1469.47 787.502 1472.69 Q784.4 1475.88 778.752 1481.64 Z" fill="#000000" fill-rule="evenodd" fill-opacity="1" /><path clip-path="url(#clip830)" d="M814.886 1454.1 Q811.275 1454.1 809.446 1457.66 Q807.641 1461.2 807.641 1468.33 Q807.641 1475.44 809.446 1479.01 Q811.275 1482.55 814.886 1482.55 Q818.52 1482.55 820.326 1479.01 Q822.155 1475.44 822.155 1468.33 Q822.155 1461.2 820.326 1457.66 Q818.52 1454.1 814.886 1454.1 M814.886 1450.39 Q820.696 1450.39 823.752 1455 Q826.83 1459.58 826.83 1468.33 Q826.83 1477.06 823.752 1481.67 Q820.696 1486.25 814.886 1486.25 Q809.076 1486.25 805.997 1481.67 Q802.942 1477.06 802.942 1468.33 Q802.942 1459.58 805.997 1455 Q809.076 1450.39 814.886 1450.39 Z" fill="#000000" fill-rule="evenodd" fill-opacity="1" /><path clip-path="url(#clip830)" d="M845.048 1454.1 Q841.437 1454.1 839.608 1457.66 Q837.803 1461.2 837.803 1468.33 Q837.803 1475.44 839.608 1479.01 Q841.437 1482.55 845.048 1482.55 Q848.682 1482.55 850.488 1479.01 Q852.316 1475.44 852.316 1468.33 Q852.316 1461.2 850.488 1457.66 Q848.682 1454.1 845.048 1454.1 M845.048 1450.39 Q850.858 1450.39 853.914 1455 Q856.992 1459.58 856.992 1468.33 Q856.992 1477.06 853.914 1481.67 Q850.858 1486.25 845.048 1486.25 Q839.238 1486.25 836.159 1481.67 Q833.104 1477.06 833.104 1468.33 Q833.104 1459.58 836.159 1455 Q839.238 1450.39 845.048 1450.39 Z" fill="#000000" fill-rule="evenodd" fill-opacity="1" /><path clip-path="url(#clip830)" d="M1293.54 1455.09 L1281.73 1473.54 L1293.54 1473.54 L1293.54 1455.09 M1292.31 1451.02 L1298.19 1451.02 L1298.19 1473.54 L1303.12 1473.54 L1303.12 1477.43 L1298.19 1477.43 L1298.19 1485.58 L1293.54 1485.58 L1293.54 1477.43 L1277.94 1477.43 L1277.94 1472.92 L1292.31 1451.02 Z" fill="#000000" fill-rule="evenodd" fill-opacity="1" /><path clip-path="url(#clip830)" d="M1320.85 1454.1 Q1317.24 1454.1 1315.41 1457.66 Q1313.61 1461.2 1313.61 1468.33 Q1313.61 1475.44 1315.41 1479.01 Q1317.24 1482.55 1320.85 1482.55 Q1324.49 1482.55 1326.29 1479.01 Q1328.12 1475.44 1328.12 1468.33 Q1328.12 1461.2 1326.29 1457.66 Q1324.49 1454.1 1320.85 1454.1 M1320.85 1450.39 Q1326.66 1450.39 1329.72 1455 Q1332.8 1459.58 1332.8 1468.33 Q1332.8 1477.06 1329.72 1481.67 Q1326.66 1486.25 1320.85 1486.25 Q1315.04 1486.25 1311.96 1481.67 Q1308.91 1477.06 1308.91 1468.33 Q1308.91 1459.58 1311.96 1455 Q1315.04 1450.39 1320.85 1450.39 Z" fill="#000000" fill-rule="evenodd" fill-opacity="1" /><path clip-path="url(#clip830)" d="M1351.02 1454.1 Q1347.4 1454.1 1345.58 1457.66 Q1343.77 1461.2 1343.77 1468.33 Q1343.77 1475.44 1345.58 1479.01 Q1347.4 1482.55 1351.02 1482.55 Q1354.65 1482.55 1356.46 1479.01 Q1358.28 1475.44 1358.28 1468.33 Q1358.28 1461.2 1356.46 1457.66 Q1354.65 1454.1 1351.02 1454.1 M1351.02 1450.39 Q1356.83 1450.39 1359.88 1455 Q1362.96 1459.58 1362.96 1468.33 Q1362.96 1477.06 1359.88 1481.67 Q1356.83 1486.25 1351.02 1486.25 Q1345.21 1486.25 1342.13 1481.67 Q1339.07 1477.06 1339.07 1468.33 Q1339.07 1459.58 1342.13 1455 Q1345.21 1450.39 1351.02 1450.39 Z" fill="#000000" fill-rule="evenodd" fill-opacity="1" /><path clip-path="url(#clip830)" d="M1796.16 1466.44 Q1793.01 1466.44 1791.16 1468.59 Q1789.33 1470.74 1789.33 1474.49 Q1789.33 1478.22 1791.16 1480.39 Q1793.01 1482.55 1796.16 1482.55 Q1799.31 1482.55 1801.14 1480.39 Q1802.99 1478.22 1802.99 1474.49 Q1802.99 1470.74 1801.14 1468.59 Q1799.31 1466.44 1796.16 1466.44 M1805.44 1451.78 L1805.44 1456.04 Q1803.68 1455.21 1801.88 1454.77 Q1800.1 1454.33 1798.34 1454.33 Q1793.71 1454.33 1791.25 1457.45 Q1788.82 1460.58 1788.48 1466.9 Q1789.84 1464.89 1791.9 1463.82 Q1793.96 1462.73 1796.44 1462.73 Q1801.65 1462.73 1804.66 1465.9 Q1807.69 1469.05 1807.69 1474.49 Q1807.69 1479.82 1804.54 1483.03 Q1801.39 1486.25 1796.16 1486.25 Q1790.17 1486.25 1787 1481.67 Q1783.82 1477.06 1783.82 1468.33 Q1783.82 1460.14 1787.71 1455.28 Q1791.6 1450.39 1798.15 1450.39 Q1799.91 1450.39 1801.69 1450.74 Q1803.5 1451.09 1805.44 1451.78 Z" fill="#000000" fill-rule="evenodd" fill-opacity="1" /><path clip-path="url(#clip830)" d="M1825.74 1454.1 Q1822.13 1454.1 1820.31 1457.66 Q1818.5 1461.2 1818.5 1468.33 Q1818.5 1475.44 1820.31 1479.01 Q1822.13 1482.55 1825.74 1482.55 Q1829.38 1482.55 1831.18 1479.01 Q1833.01 1475.44 1833.01 1468.33 Q1833.01 1461.2 1831.18 1457.66 Q1829.38 1454.1 1825.74 1454.1 M1825.74 1450.39 Q1831.56 1450.39 1834.61 1455 Q1837.69 1459.58 1837.69 1468.33 Q1837.69 1477.06 1834.61 1481.67 Q1831.56 1486.25 1825.74 1486.25 Q1819.93 1486.25 1816.86 1481.67 Q1813.8 1477.06 1813.8 1468.33 Q1813.8 1459.58 1816.86 1455 Q1819.93 1450.39 1825.74 1450.39 Z" fill="#000000" fill-rule="evenodd" fill-opacity="1" /><path clip-path="url(#clip830)" d="M1855.91 1454.1 Q1852.3 1454.1 1850.47 1457.66 Q1848.66 1461.2 1848.66 1468.33 Q1848.66 1475.44 1850.47 1479.01 Q1852.3 1482.55 1855.91 1482.55 Q1859.54 1482.55 1861.35 1479.01 Q1863.18 1475.44 1863.18 1468.33 Q1863.18 1461.2 1861.35 1457.66 Q1859.54 1454.1 1855.91 1454.1 M1855.91 1450.39 Q1861.72 1450.39 1864.77 1455 Q1867.85 1459.58 1867.85 1468.33 Q1867.85 1477.06 1864.77 1481.67 Q1861.72 1486.25 1855.91 1486.25 Q1850.1 1486.25 1847.02 1481.67 Q1843.96 1477.06 1843.96 1468.33 Q1843.96 1459.58 1847.02 1455 Q1850.1 1450.39 1855.91 1450.39 Z" fill="#000000" fill-rule="evenodd" fill-opacity="1" /><path clip-path="url(#clip830)" d="M2301.02 1469.17 Q2297.68 1469.17 2295.76 1470.95 Q2293.87 1472.73 2293.87 1475.86 Q2293.87 1478.98 2295.76 1480.77 Q2297.68 1482.55 2301.02 1482.55 Q2304.35 1482.55 2306.27 1480.77 Q2308.19 1478.96 2308.19 1475.86 Q2308.19 1472.73 2306.27 1470.95 Q2304.37 1469.17 2301.02 1469.17 M2296.34 1467.18 Q2293.33 1466.44 2291.64 1464.38 Q2289.98 1462.32 2289.98 1459.35 Q2289.98 1455.21 2292.92 1452.8 Q2295.88 1450.39 2301.02 1450.39 Q2306.18 1450.39 2309.12 1452.8 Q2312.06 1455.21 2312.06 1459.35 Q2312.06 1462.32 2310.37 1464.38 Q2308.7 1466.44 2305.72 1467.18 Q2309.1 1467.96 2310.97 1470.26 Q2312.87 1472.55 2312.87 1475.86 Q2312.87 1480.88 2309.79 1483.57 Q2306.74 1486.25 2301.02 1486.25 Q2295.3 1486.25 2292.22 1483.57 Q2289.17 1480.88 2289.17 1475.86 Q2289.17 1472.55 2291.06 1470.26 Q2292.96 1467.96 2296.34 1467.18 M2294.63 1459.79 Q2294.63 1462.48 2296.3 1463.98 Q2297.99 1465.49 2301.02 1465.49 Q2304.03 1465.49 2305.72 1463.98 Q2307.43 1462.48 2307.43 1459.79 Q2307.43 1457.11 2305.72 1455.6 Q2304.03 1454.1 2301.02 1454.1 Q2297.99 1454.1 2296.3 1455.6 Q2294.63 1457.11 2294.63 1459.79 Z" fill="#000000" fill-rule="evenodd" fill-opacity="1" /><path clip-path="url(#clip830)" d="M2331.18 1454.1 Q2327.57 1454.1 2325.74 1457.66 Q2323.93 1461.2 2323.93 1468.33 Q2323.93 1475.44 2325.74 1479.01 Q2327.57 1482.55 2331.18 1482.55 Q2334.81 1482.55 2336.62 1479.01 Q2338.45 1475.44 2338.45 1468.33 Q2338.45 1461.2 2336.62 1457.66 Q2334.81 1454.1 2331.18 1454.1 M2331.18 1450.39 Q2336.99 1450.39 2340.05 1455 Q2343.12 1459.58 2343.12 1468.33 Q2343.12 1477.06 2340.05 1481.67 Q2336.99 1486.25 2331.18 1486.25 Q2325.37 1486.25 2322.29 1481.67 Q2319.24 1477.06 2319.24 1468.33 Q2319.24 1459.58 2322.29 1455 Q2325.37 1450.39 2331.18 1450.39 Z" fill="#000000" fill-rule="evenodd" fill-opacity="1" /><path clip-path="url(#clip830)" d="M2361.34 1454.1 Q2357.73 1454.1 2355.9 1457.66 Q2354.1 1461.2 2354.1 1468.33 Q2354.1 1475.44 2355.9 1479.01 Q2357.73 1482.55 2361.34 1482.55 Q2364.98 1482.55 2366.78 1479.01 Q2368.61 1475.44 2368.61 1468.33 Q2368.61 1461.2 2366.78 1457.66 Q2364.98 1454.1 2361.34 1454.1 M2361.34 1450.39 Q2367.15 1450.39 2370.21 1455 Q2373.29 1459.58 2373.29 1468.33 Q2373.29 1477.06 2370.21 1481.67 Q2367.15 1486.25 2361.34 1486.25 Q2355.53 1486.25 2352.45 1481.67 Q2349.4 1477.06 2349.4 1468.33 Q2349.4 1459.58 2352.45 1455 Q2355.53 1450.39 2361.34 1450.39 Z" fill="#000000" fill-rule="evenodd" fill-opacity="1" /><path clip-path="url(#clip830)" d="M1170.91 1532.4 L1176.77 1532.4 L1176.77 1568.04 L1170.91 1568.04 L1170.91 1532.4 M1170.91 1518.52 L1176.77 1518.52 L1176.77 1525.93 L1170.91 1525.93 L1170.91 1518.52 Z" fill="#000000" fill-rule="evenodd" fill-opacity="1" /><path clip-path="url(#clip830)" d="M1194.81 1522.27 L1194.81 1532.4 L1206.88 1532.4 L1206.88 1536.95 L1194.81 1536.95 L1194.81 1556.3 Q1194.81 1560.66 1195.99 1561.9 Q1197.2 1563.14 1200.86 1563.14 L1206.88 1563.14 L1206.88 1568.04 L1200.86 1568.04 Q1194.08 1568.04 1191.5 1565.53 Q1188.93 1562.98 1188.93 1556.3 L1188.93 1536.95 L1184.63 1536.95 L1184.63 1532.4 L1188.93 1532.4 L1188.93 1522.27 L1194.81 1522.27 Z" fill="#000000" fill-rule="evenodd" fill-opacity="1" /><path clip-path="url(#clip830)" d="M1245.07 1548.76 L1245.07 1551.62 L1218.14 1551.62 Q1218.53 1557.67 1221.77 1560.85 Q1225.05 1564 1230.88 1564 Q1234.25 1564 1237.4 1563.17 Q1240.58 1562.35 1243.7 1560.69 L1243.7 1566.23 Q1240.55 1567.57 1237.24 1568.27 Q1233.93 1568.97 1230.53 1568.97 Q1222 1568.97 1217 1564 Q1212.03 1559.04 1212.03 1550.57 Q1212.03 1541.82 1216.74 1536.69 Q1221.49 1531.54 1229.51 1531.54 Q1236.7 1531.54 1240.87 1536.18 Q1245.07 1540.8 1245.07 1548.76 M1239.21 1547.04 Q1239.15 1542.23 1236.51 1539.37 Q1233.9 1536.5 1229.57 1536.5 Q1224.67 1536.5 1221.71 1539.27 Q1218.78 1542.04 1218.33 1547.07 L1239.21 1547.04 Z" fill="#000000" fill-rule="evenodd" fill-opacity="1" /><path clip-path="url(#clip830)" d="M1275.34 1537.87 Q1274.35 1537.3 1273.18 1537.04 Q1272.03 1536.76 1270.63 1536.76 Q1265.66 1536.76 1262.99 1540 Q1260.35 1543.22 1260.35 1549.27 L1260.35 1568.04 L1254.46 1568.04 L1254.46 1532.4 L1260.35 1532.4 L1260.35 1537.93 Q1262.19 1534.69 1265.15 1533.13 Q1268.11 1531.54 1272.35 1531.54 Q1272.95 1531.54 1273.68 1531.63 Q1274.42 1531.7 1275.31 1531.85 L1275.34 1537.87 Z" fill="#000000" fill-rule="evenodd" fill-opacity="1" /><path clip-path="url(#clip830)" d="M1297.68 1550.12 Q1290.59 1550.12 1287.85 1551.75 Q1285.11 1553.37 1285.11 1557.29 Q1285.11 1560.4 1287.15 1562.25 Q1289.22 1564.07 1292.75 1564.07 Q1297.62 1564.07 1300.55 1560.63 Q1303.51 1557.16 1303.51 1551.43 L1303.51 1550.12 L1297.68 1550.12 M1309.36 1547.71 L1309.36 1568.04 L1303.51 1568.04 L1303.51 1562.63 Q1301.5 1565.88 1298.51 1567.44 Q1295.52 1568.97 1291.19 1568.97 Q1285.72 1568.97 1282.47 1565.91 Q1279.25 1562.82 1279.25 1557.67 Q1279.25 1551.65 1283.26 1548.6 Q1287.31 1545.54 1295.3 1545.54 L1303.51 1545.54 L1303.51 1544.97 Q1303.51 1540.93 1300.83 1538.73 Q1298.19 1536.5 1293.39 1536.5 Q1290.33 1536.5 1287.43 1537.23 Q1284.54 1537.97 1281.86 1539.43 L1281.86 1534.02 Q1285.08 1532.78 1288.1 1532.17 Q1291.13 1531.54 1293.99 1531.54 Q1301.73 1531.54 1305.54 1535.55 Q1309.36 1539.56 1309.36 1547.71 Z" fill="#000000" fill-rule="evenodd" fill-opacity="1" /><path clip-path="url(#clip830)" d="M1327.22 1522.27 L1327.22 1532.4 L1339.28 1532.4 L1339.28 1536.95 L1327.22 1536.95 L1327.22 1556.3 Q1327.22 1560.66 1328.4 1561.9 Q1329.61 1563.14 1333.27 1563.14 L1339.28 1563.14 L1339.28 1568.04 L1333.27 1568.04 Q1326.49 1568.04 1323.91 1565.53 Q1321.33 1562.98 1321.33 1556.3 L1321.33 1536.95 L1317.04 1536.95 L1317.04 1532.4 L1321.33 1532.4 L1321.33 1522.27 L1327.22 1522.27 Z" fill="#000000" fill-rule="evenodd" fill-opacity="1" /><path clip-path="url(#clip830)" d="M1346.99 1532.4 L1352.84 1532.4 L1352.84 1568.04 L1346.99 1568.04 L1346.99 1532.4 M1346.99 1518.52 L1352.84 1518.52 L1352.84 1525.93 L1346.99 1525.93 L1346.99 1518.52 Z" fill="#000000" fill-rule="evenodd" fill-opacity="1" /><path clip-path="url(#clip830)" d="M1378.91 1536.5 Q1374.2 1536.5 1371.46 1540.19 Q1368.72 1543.85 1368.72 1550.25 Q1368.72 1556.65 1371.43 1560.34 Q1374.17 1564 1378.91 1564 Q1383.59 1564 1386.33 1560.31 Q1389.06 1556.62 1389.06 1550.25 Q1389.06 1543.92 1386.33 1540.23 Q1383.59 1536.5 1378.91 1536.5 M1378.91 1531.54 Q1386.55 1531.54 1390.91 1536.5 Q1395.27 1541.47 1395.27 1550.25 Q1395.27 1559 1390.91 1564 Q1386.55 1568.97 1378.91 1568.97 Q1371.24 1568.97 1366.88 1564 Q1362.55 1559 1362.55 1550.25 Q1362.55 1541.47 1366.88 1536.5 Q1371.24 1531.54 1378.91 1531.54 Z" fill="#000000" fill-rule="evenodd" fill-opacity="1" /><path clip-path="url(#clip830)" d="M1434.61 1546.53 L1434.61 1568.04 L1428.75 1568.04 L1428.75 1546.72 Q1428.75 1541.66 1426.78 1539.14 Q1424.81 1536.63 1420.86 1536.63 Q1416.12 1536.63 1413.38 1539.65 Q1410.64 1542.68 1410.64 1547.9 L1410.64 1568.04 L1404.75 1568.04 L1404.75 1532.4 L1410.64 1532.4 L1410.64 1537.93 Q1412.74 1534.72 1415.58 1533.13 Q1418.44 1531.54 1422.16 1531.54 Q1428.31 1531.54 1431.46 1535.36 Q1434.61 1539.14 1434.61 1546.53 Z" fill="#000000" fill-rule="evenodd" fill-opacity="1" /><polyline clip-path="url(#clip832)" style="stroke:#000000; stroke-linecap:round; stroke-linejoin:round; stroke-width:2; stroke-opacity:0.1; fill:none" points="252.764,1423.18 2352.76,1423.18 "/>
<polyline clip-path="url(#clip832)" style="stroke:#000000; stroke-linecap:round; stroke-linejoin:round; stroke-width:2; stroke-opacity:0.1; fill:none" points="252.764,1079.2 2352.76,1079.2 "/>
<polyline clip-path="url(#clip832)" style="stroke:#000000; stroke-linecap:round; stroke-linejoin:round; stroke-width:2; stroke-opacity:0.1; fill:none" points="252.764,735.212 2352.76,735.212 "/>
<polyline clip-path="url(#clip832)" style="stroke:#000000; stroke-linecap:round; stroke-linejoin:round; stroke-width:2; stroke-opacity:0.1; fill:none" points="252.764,391.228 2352.76,391.228 "/>
<polyline clip-path="url(#clip832)" style="stroke:#000000; stroke-linecap:round; stroke-linejoin:round; stroke-width:2; stroke-opacity:0.1; fill:none" points="252.764,47.2441 2352.76,47.2441 "/>
<polyline clip-path="url(#clip830)" style="stroke:#000000; stroke-linecap:round; stroke-linejoin:round; stroke-width:4; stroke-opacity:1; fill:none" points="252.764,1423.18 252.764,47.2441 "/>
<polyline clip-path="url(#clip830)" style="stroke:#000000; stroke-linecap:round; stroke-linejoin:round; stroke-width:4; stroke-opacity:1; fill:none" points="252.764,1423.18 271.662,1423.18 "/>
<polyline clip-path="url(#clip830)" style="stroke:#000000; stroke-linecap:round; stroke-linejoin:round; stroke-width:4; stroke-opacity:1; fill:none" points="252.764,1079.2 271.662,1079.2 "/>
<polyline clip-path="url(#clip830)" style="stroke:#000000; stroke-linecap:round; stroke-linejoin:round; stroke-width:4; stroke-opacity:1; fill:none" points="252.764,735.212 271.662,735.212 "/>
<polyline clip-path="url(#clip830)" style="stroke:#000000; stroke-linecap:round; stroke-linejoin:round; stroke-width:4; stroke-opacity:1; fill:none" points="252.764,391.228 271.662,391.228 "/>
<polyline clip-path="url(#clip830)" style="stroke:#000000; stroke-linecap:round; stroke-linejoin:round; stroke-width:4; stroke-opacity:1; fill:none" points="252.764,47.2441 271.662,47.2441 "/>
<path clip-path="url(#clip830)" d="M114.931 1442.97 L122.57 1442.97 L122.57 1416.61 L114.26 1418.27 L114.26 1414.01 L122.524 1412.35 L127.2 1412.35 L127.2 1442.97 L134.839 1442.97 L134.839 1446.91 L114.931 1446.91 L114.931 1442.97 Z" fill="#000000" fill-rule="evenodd" fill-opacity="1" /><path clip-path="url(#clip830)" d="M154.283 1415.43 Q150.672 1415.43 148.843 1418.99 Q147.038 1422.53 147.038 1429.66 Q147.038 1436.77 148.843 1440.33 Q150.672 1443.88 154.283 1443.88 Q157.917 1443.88 159.723 1440.33 Q161.552 1436.77 161.552 1429.66 Q161.552 1422.53 159.723 1418.99 Q157.917 1415.43 154.283 1415.43 M154.283 1411.72 Q160.093 1411.72 163.149 1416.33 Q166.227 1420.91 166.227 1429.66 Q166.227 1438.39 163.149 1443 Q160.093 1447.58 154.283 1447.58 Q148.473 1447.58 145.394 1443 Q142.339 1438.39 142.339 1429.66 Q142.339 1420.91 145.394 1416.33 Q148.473 1411.72 154.283 1411.72 Z" fill="#000000" fill-rule="evenodd" fill-opacity="1" /><path clip-path="url(#clip830)" d="M166.227 1405.82 L190.339 1405.82 L190.339 1409.02 L166.227 1409.02 L166.227 1405.82 Z" fill="#000000" fill-rule="evenodd" fill-opacity="1" /><path clip-path="url(#clip830)" d="M208.978 1394.73 L199.386 1409.72 L208.978 1409.72 L208.978 1394.73 M207.981 1391.42 L212.758 1391.42 L212.758 1409.72 L216.764 1409.72 L216.764 1412.88 L212.758 1412.88 L212.758 1419.5 L208.978 1419.5 L208.978 1412.88 L196.301 1412.88 L196.301 1409.21 L207.981 1391.42 Z" fill="#000000" fill-rule="evenodd" fill-opacity="1" /><path clip-path="url(#clip830)" d="M115.853 1098.99 L123.492 1098.99 L123.492 1072.62 L115.182 1074.29 L115.182 1070.03 L123.446 1068.36 L128.121 1068.36 L128.121 1098.99 L135.76 1098.99 L135.76 1102.92 L115.853 1102.92 L115.853 1098.99 Z" fill="#000000" fill-rule="evenodd" fill-opacity="1" /><path clip-path="url(#clip830)" d="M155.205 1071.44 Q151.594 1071.44 149.765 1075.01 Q147.959 1078.55 147.959 1085.68 Q147.959 1092.78 149.765 1096.35 Q151.594 1099.89 155.205 1099.89 Q158.839 1099.89 160.644 1096.35 Q162.473 1092.78 162.473 1085.68 Q162.473 1078.55 160.644 1075.01 Q158.839 1071.44 155.205 1071.44 M155.205 1067.74 Q161.015 1067.74 164.07 1072.34 Q167.149 1076.93 167.149 1085.68 Q167.149 1094.41 164.07 1099.01 Q161.015 1103.59 155.205 1103.59 Q149.395 1103.59 146.316 1099.01 Q143.26 1094.41 143.26 1085.68 Q143.26 1076.93 146.316 1072.34 Q149.395 1067.74 155.205 1067.74 Z" fill="#000000" fill-rule="evenodd" fill-opacity="1" /><path clip-path="url(#clip830)" d="M167.149 1061.84 L191.261 1061.84 L191.261 1065.04 L167.149 1065.04 L167.149 1061.84 Z" fill="#000000" fill-rule="evenodd" fill-opacity="1" /><path clip-path="url(#clip830)" d="M210.971 1060.37 Q213.698 1060.96 215.222 1062.8 Q216.764 1064.64 216.764 1067.35 Q216.764 1071.51 213.905 1073.78 Q211.046 1076.06 205.78 1076.06 Q204.012 1076.06 202.132 1075.7 Q200.27 1075.36 198.276 1074.67 L198.276 1071 Q199.856 1071.92 201.737 1072.39 Q203.617 1072.86 205.667 1072.86 Q209.241 1072.86 211.103 1071.45 Q212.984 1070.04 212.984 1067.35 Q212.984 1064.87 211.234 1063.48 Q209.504 1062.07 206.401 1062.07 L203.128 1062.07 L203.128 1058.94 L206.551 1058.94 Q209.354 1058.94 210.84 1057.83 Q212.325 1056.71 212.325 1054.6 Q212.325 1052.44 210.783 1051.29 Q209.26 1050.12 206.401 1050.12 Q204.84 1050.12 203.053 1050.46 Q201.266 1050.8 199.122 1051.51 L199.122 1048.13 Q201.285 1047.53 203.166 1047.23 Q205.066 1046.93 206.739 1046.93 Q211.065 1046.93 213.585 1048.9 Q216.106 1050.86 216.106 1054.2 Q216.106 1056.54 214.77 1058.15 Q213.435 1059.75 210.971 1060.37 Z" fill="#000000" fill-rule="evenodd" fill-opacity="1" /><path clip-path="url(#clip830)" d="M116.624 755.004 L124.263 755.004 L124.263 728.639 L115.953 730.305 L115.953 726.046 L124.217 724.38 L128.893 724.38 L128.893 755.004 L136.531 755.004 L136.531 758.94 L116.624 758.94 L116.624 755.004 Z" fill="#000000" fill-rule="evenodd" fill-opacity="1" /><path clip-path="url(#clip830)" d="M155.976 727.458 Q152.365 727.458 150.536 731.023 Q148.73 734.565 148.73 741.694 Q148.73 748.801 150.536 752.366 Q152.365 755.907 155.976 755.907 Q159.61 755.907 161.416 752.366 Q163.244 748.801 163.244 741.694 Q163.244 734.565 161.416 731.023 Q159.61 727.458 155.976 727.458 M155.976 723.755 Q161.786 723.755 164.841 728.361 Q167.92 732.944 167.92 741.694 Q167.92 750.421 164.841 755.028 Q161.786 759.611 155.976 759.611 Q150.166 759.611 147.087 755.028 Q144.031 750.421 144.031 741.694 Q144.031 732.944 147.087 728.361 Q150.166 723.755 155.976 723.755 Z" fill="#000000" fill-rule="evenodd" fill-opacity="1" /><path clip-path="url(#clip830)" d="M167.92 717.856 L192.032 717.856 L192.032 721.053 L167.92 721.053 L167.92 717.856 Z" fill="#000000" fill-rule="evenodd" fill-opacity="1" /><path clip-path="url(#clip830)" d="M203.504 728.332 L216.764 728.332 L216.764 731.529 L198.934 731.529 L198.934 728.332 Q201.097 726.094 204.821 722.332 Q208.564 718.552 209.523 717.461 Q211.347 715.411 212.062 714 Q212.796 712.571 212.796 711.198 Q212.796 708.96 211.216 707.549 Q209.655 706.139 207.134 706.139 Q205.348 706.139 203.354 706.759 Q201.379 707.38 199.122 708.64 L199.122 704.803 Q201.417 703.882 203.41 703.412 Q205.404 702.941 207.059 702.941 Q211.423 702.941 214.018 705.123 Q216.613 707.305 216.613 710.953 Q216.613 712.684 215.955 714.245 Q215.316 715.787 213.604 717.894 Q213.134 718.439 210.614 721.053 Q208.094 723.649 203.504 728.332 Z" fill="#000000" fill-rule="evenodd" fill-opacity="1" /><path clip-path="url(#clip830)" d="M116.323 411.02 L123.962 411.02 L123.962 384.655 L115.652 386.322 L115.652 382.062 L123.916 380.396 L128.592 380.396 L128.592 411.02 L136.231 411.02 L136.231 414.956 L116.323 414.956 L116.323 411.02 Z" fill="#000000" fill-rule="evenodd" fill-opacity="1" /><path clip-path="url(#clip830)" d="M155.675 383.474 Q152.064 383.474 150.235 387.039 Q148.43 390.581 148.43 397.71 Q148.43 404.817 150.235 408.382 Q152.064 411.923 155.675 411.923 Q159.309 411.923 161.115 408.382 Q162.943 404.817 162.943 397.71 Q162.943 390.581 161.115 387.039 Q159.309 383.474 155.675 383.474 M155.675 379.771 Q161.485 379.771 164.541 384.377 Q167.619 388.96 167.619 397.71 Q167.619 406.437 164.541 411.044 Q161.485 415.627 155.675 415.627 Q149.865 415.627 146.786 411.044 Q143.73 406.437 143.73 397.71 Q143.73 388.96 146.786 384.377 Q149.865 379.771 155.675 379.771 Z" fill="#000000" fill-rule="evenodd" fill-opacity="1" /><path clip-path="url(#clip830)" d="M167.619 373.872 L191.731 373.872 L191.731 377.069 L167.619 377.069 L167.619 373.872 Z" fill="#000000" fill-rule="evenodd" fill-opacity="1" /><path clip-path="url(#clip830)" d="M200.589 384.348 L206.796 384.348 L206.796 362.926 L200.044 364.28 L200.044 360.819 L206.758 359.465 L210.557 359.465 L210.557 384.348 L216.764 384.348 L216.764 387.545 L200.589 387.545 L200.589 384.348 Z" fill="#000000" fill-rule="evenodd" fill-opacity="1" /><path clip-path="url(#clip830)" d="M146.058 67.0365 L153.697 67.0365 L153.697 40.6709 L145.387 42.3376 L145.387 38.0784 L153.651 36.4117 L158.327 36.4117 L158.327 67.0365 L165.966 67.0365 L165.966 70.9717 L146.058 70.9717 L146.058 67.0365 Z" fill="#000000" fill-rule="evenodd" fill-opacity="1" /><path clip-path="url(#clip830)" d="M185.41 39.4904 Q181.799 39.4904 179.97 43.0552 Q178.165 46.5968 178.165 53.7264 Q178.165 60.8329 179.97 64.3977 Q181.799 67.9393 185.41 67.9393 Q189.044 67.9393 190.85 64.3977 Q192.678 60.8329 192.678 53.7264 Q192.678 46.5968 190.85 43.0552 Q189.044 39.4904 185.41 39.4904 M185.41 35.7867 Q191.22 35.7867 194.276 40.3932 Q197.354 44.9765 197.354 53.7264 Q197.354 62.4532 194.276 67.0597 Q191.22 71.643 185.41 71.643 Q179.6 71.643 176.521 67.0597 Q173.466 62.4532 173.466 53.7264 Q173.466 44.9765 176.521 40.3932 Q179.6 35.7867 185.41 35.7867 Z" fill="#000000" fill-rule="evenodd" fill-opacity="1" /><path clip-path="url(#clip830)" d="M207.059 17.9827 Q204.125 17.9827 202.639 20.8791 Q201.172 23.7567 201.172 29.5495 Q201.172 35.3235 202.639 38.2199 Q204.125 41.0975 207.059 41.0975 Q210.012 41.0975 211.479 38.2199 Q212.965 35.3235 212.965 29.5495 Q212.965 23.7567 211.479 20.8791 Q210.012 17.9827 207.059 17.9827 M207.059 14.9735 Q211.78 14.9735 214.263 18.7162 Q216.764 22.4402 216.764 29.5495 Q216.764 36.64 214.263 40.3828 Q211.78 44.1067 207.059 44.1067 Q202.338 44.1067 199.837 40.3828 Q197.354 36.64 197.354 29.5495 Q197.354 22.4402 199.837 18.7162 Q202.338 14.9735 207.059 14.9735 Z" fill="#000000" fill-rule="evenodd" fill-opacity="1" /><path clip-path="url(#clip830)" d="M27.9392 757.108 Q28.6155 757.108 29.163 757.688 Q29.7105 758.236 29.7105 758.912 Q29.7105 759.298 29.0664 760.232 Q27.1985 762.905 27.1985 766.287 Q27.1985 769.314 27.9392 772.116 Q28.6799 774.918 30.1936 776.818 Q31.6751 778.686 33.6074 778.686 Q36.0229 778.686 37.4399 776.045 Q36.1839 773.308 36.1839 769.926 Q36.1839 768.831 36.2483 768.09 Q36.3127 767.318 36.4738 766.577 Q36.6348 765.836 37.0213 765.482 Q37.3755 765.095 37.9552 765.095 Q40.0164 765.095 40.0164 770.442 Q40.0164 773.92 39.0824 776.11 Q40.4673 778.912 42.6895 780.458 Q44.9117 782.003 46.8118 782.003 Q48.4543 782.003 49.646 781.102 Q50.8376 780.168 51.4173 778.654 Q51.997 777.108 52.2546 775.594 Q52.4801 774.049 52.4801 772.342 Q52.4801 769.54 52.1258 767.575 Q51.7393 765.578 51.0308 764.483 Q50.3223 763.356 49.8392 762.905 Q49.3239 762.422 48.5187 761.939 Q48.0679 761.649 48.0679 761.263 Q48.0679 760.973 48.2611 760.78 Q48.4221 760.554 48.712 760.554 Q49.0662 760.554 49.807 761.005 Q50.5477 761.424 51.5461 762.454 Q52.5123 763.453 53.414 764.838 Q54.2836 766.19 54.8955 768.348 Q55.5074 770.506 55.5074 772.954 Q55.5074 777.945 53.0598 780.844 Q50.6121 783.71 47.1983 783.71 Q44.8151 783.71 42.3674 782.132 Q39.8876 780.522 38.3095 777.688 Q36.3449 780.329 33.6074 780.329 Q31.1598 780.329 28.9698 778.268 Q26.7798 776.174 25.4916 772.793 Q24.1711 769.379 24.1711 765.643 Q24.1711 763.549 24.8796 761.488 Q25.556 759.427 26.4255 758.268 Q27.2951 757.108 27.9392 757.108 M38.0196 766.802 Q37.6332 768.219 37.6332 769.926 Q37.6332 772.245 38.2129 773.952 Q38.5671 772.567 38.5671 770.442 Q38.5671 768.67 38.4705 768.155 Q38.3739 767.607 38.0196 766.802 Z" fill="#000000" fill-rule="evenodd" fill-opacity="1" /><path clip-path="url(#clip830)" d="M57.1294 731.525 Q58.3243 731.525 59.0908 732.314 Q59.8573 733.08 59.8573 734.072 Q59.8573 734.929 59.3613 735.38 Q58.8653 735.831 58.2341 735.831 Q57.3323 735.831 56.5884 735.132 Q55.8444 734.433 55.6866 733.419 Q55.1455 734.162 55.1455 735.357 Q55.1455 737.319 56.656 739.055 Q57.3549 739.821 58.6399 740.655 Q59.9023 741.489 60.4434 741.647 L66.4627 743.112 Q67.139 743.248 70.3854 744.082 Q73.6092 744.893 73.7444 744.961 Q74.3757 745.187 74.7138 745.683 Q75.052 746.178 75.052 746.674 Q75.052 747.238 74.7138 747.621 Q74.3757 748.005 73.7895 748.005 Q73.6993 748.005 73.3612 747.937 Q73.023 747.869 72.5496 747.757 Q72.0762 747.644 71.8056 747.599 L61.1423 744.916 Q59.2035 744.42 58.5948 744.307 Q57.9636 744.172 57.2647 744.172 Q56.0473 744.172 55.5964 744.555 Q55.1455 744.939 55.1455 745.615 Q55.1455 746.787 56.5433 747.554 Q57.941 748.32 60.6463 748.974 Q61.3903 749.177 61.5481 749.312 Q61.7059 749.425 61.7059 749.763 Q61.6833 750.327 61.2324 750.327 Q61.1197 750.327 60.3983 750.146 Q59.6544 749.966 58.5722 749.628 Q57.4676 749.267 56.7687 748.884 Q56.2953 748.658 55.9797 748.455 Q55.6641 748.253 55.1681 747.847 Q54.6721 747.441 54.4016 746.832 Q54.1311 746.224 54.1311 745.48 Q54.1311 743.856 55.123 742.707 Q56.1149 741.534 57.6705 741.264 Q56.8589 740.7 56.16 740.001 Q55.4386 739.303 54.7848 738.018 Q54.1311 736.732 54.1311 735.357 Q54.1311 733.644 55.0103 732.584 Q55.867 731.525 57.1294 731.525 Z" fill="#000000" fill-rule="evenodd" fill-opacity="1" /><path clip-path="url(#clip830)" d="M69.1905 711.114 Q69.3934 710.934 69.5963 710.934 Q69.7992 710.934 70.3854 711.385 Q70.9715 711.813 71.7605 712.737 Q72.5496 713.662 73.2935 714.857 Q74.0375 716.051 74.5335 717.81 Q75.052 719.568 75.052 721.417 Q75.052 724.731 72.6849 726.715 Q70.3177 728.676 66.6881 728.676 Q64.3661 728.676 62.3146 727.91 Q60.2405 727.143 58.7751 725.903 Q57.3098 724.641 56.2502 723.063 Q55.1681 721.462 54.6496 719.794 Q54.1311 718.125 54.1311 716.57 Q54.1311 714.293 55.2808 712.963 Q56.4306 711.633 58.0537 711.633 Q58.437 711.633 58.9104 711.745 Q59.3838 711.836 60.1278 712.151 Q60.8717 712.444 61.6157 713.211 Q62.3371 713.977 62.8105 715.105 Q63.8701 717.607 63.8701 722.161 L63.8701 724.618 Q66.7783 725.34 68.672 725.34 Q69.416 725.34 70.1825 725.204 Q70.9264 725.069 71.8733 724.708 Q72.8201 724.325 73.4288 723.468 Q74.015 722.589 74.015 721.327 Q74.015 720.921 73.9924 720.493 Q73.9699 720.042 73.7219 718.914 Q73.4739 717.765 73.0456 716.75 Q72.6172 715.736 71.6929 714.451 Q70.7461 713.143 69.461 712.106 Q68.9876 711.745 68.9876 711.497 Q68.9876 711.295 69.1905 711.114 M58.0537 713.166 Q56.8138 713.166 55.9797 714.09 Q55.1455 714.992 55.1455 716.57 Q55.1455 717.066 55.2583 717.675 Q55.371 718.283 55.8444 719.298 Q56.3178 720.29 57.1069 721.169 Q57.8734 722.048 59.3838 722.927 Q60.8717 723.807 62.8556 724.325 L62.8556 722.431 Q62.8556 721.778 62.8556 721.304 Q62.8331 720.831 62.7429 719.794 Q62.6527 718.734 62.4949 717.968 Q62.3146 717.201 61.9539 716.232 Q61.5932 715.262 61.1197 714.654 Q60.6238 714.022 59.8347 713.594 Q59.0457 713.166 58.0537 713.166 Z" fill="#000000" fill-rule="evenodd" fill-opacity="1" /><path clip-path="url(#clip830)" d="M42.9943 697.5 L69.6865 704.15 Q70.7461 704.421 71.8958 704.421 Q74.015 704.421 74.015 703.023 Q74.015 702.369 73.5866 701.828 Q73.1357 701.287 72.2565 700.882 Q71.3548 700.453 70.4981 700.183 Q69.6414 699.89 68.3113 699.529 Q67.7928 699.416 67.635 699.303 Q67.4772 699.191 67.4772 698.875 Q67.4772 698.312 67.928 698.312 Q70.701 698.875 72.4594 699.709 Q75.052 700.927 75.052 703.181 Q75.052 704.872 73.8797 706.134 Q72.6849 707.374 70.7911 707.374 Q70.0697 707.374 69.2131 707.149 L46.1279 701.332 L45.2261 701.175 Q44.9782 701.175 44.8429 701.265 Q44.7076 701.355 44.5724 701.896 Q44.4371 702.415 44.4371 703.452 Q44.4371 703.88 44.4145 704.083 Q44.392 704.263 44.2793 704.444 Q44.1666 704.601 43.9186 704.601 Q43.5128 704.601 43.2873 704.444 Q43.0619 704.263 43.0168 704.128 Q42.9717 703.993 42.9492 703.722 Q42.9266 703.339 42.8139 702.054 Q42.6787 700.769 42.5885 699.664 Q42.4983 698.56 42.4983 698.086 Q42.4983 697.816 42.6336 697.68 Q42.7463 697.522 42.8815 697.5 L42.9943 697.5 Z" fill="#000000" fill-rule="evenodd" fill-opacity="1" /><polyline clip-path="url(#clip832)" style="stroke:#ac8d18; stroke-linecap:round; stroke-linejoin:round; stroke-width:4; stroke-opacity:1; fill:none" points="312.198,519.089 314.725,521.654 317.252,523.746 319.779,525.452 322.305,526.844 324.832,527.98 327.359,528.908 329.886,529.668 332.413,530.292 334.94,530.805 337.467,531.227 339.994,531.577 342.521,531.866 345.048,532.107 347.575,532.308 350.102,532.476 352.629,532.617 355.156,532.735 357.683,532.835 360.21,532.919 362.737,532.99 365.264,533.05 367.79,533.101 370.317,533.145 372.844,533.182 375.371,533.214 377.898,533.24 380.425,533.263 382.952,533.282 385.479,533.299 388.006,533.312 390.533,533.324 393.06,533.333 395.587,533.341 398.114,533.348 400.641,533.353 403.168,533.358 405.695,533.361 408.222,533.363 410.749,533.365 413.275,533.366 415.802,533.367 418.329,533.367 420.856,533.367 423.383,533.366 425.91,533.365 428.437,533.364 430.964,533.363 433.491,533.361 436.018,533.359 438.545,533.357 441.072,533.355 443.599,533.353 446.126,533.351 448.653,533.349 451.18,533.346 453.707,533.344 456.234,533.341 458.76,533.339 461.287,533.337 463.814,533.334 466.341,533.332 468.868,533.329 471.395,533.327 473.922,533.324 476.449,533.322 478.976,533.319 481.503,533.317 484.03,533.315 486.557,533.312 489.084,533.31 491.611,533.308 494.138,533.305 496.665,533.303 499.192,533.301 501.719,533.299 504.245,533.296 506.772,533.294 509.299,533.292 511.826,533.29 514.353,533.288 516.88,533.286 519.407,533.284 521.934,533.282 524.461,533.28 526.988,533.279 529.515,533.277 532.042,533.275 534.569,533.273 537.096,533.271 539.623,533.27 542.15,533.268 544.677,533.266 547.204,533.265 "/>
<polyline clip-path="url(#clip832)" style="stroke:#00a9ad; stroke-linecap:round; stroke-linejoin:round; stroke-width:4; stroke-opacity:1; fill:none" points="312.198,802.88 314.725,809.917 317.252,815.873 319.779,820.905 322.305,825.156 324.832,828.752 327.359,831.8 329.886,834.391 332.413,836.601 334.94,838.496 337.467,840.127 339.994,841.538 342.521,842.765 345.048,843.836 347.575,844.777 350.102,845.606 352.629,846.341 355.156,846.994 357.683,847.576 360.21,848.098 362.737,848.566 365.264,848.988 367.79,849.369 370.317,849.713 372.844,850.025 375.371,850.309 377.898,850.567 380.425,850.802 382.952,851.016 385.479,851.211 388.006,851.39 390.533,851.553 393.06,851.703 395.587,851.84 398.114,851.966 400.641,852.081 403.168,852.187 405.695,852.285 408.222,852.374 410.749,852.457 413.275,852.533 415.802,852.603 418.329,852.668 420.856,852.728 423.383,852.783 425.91,852.834 428.437,852.882 430.964,852.926 433.491,852.967 436.018,853.005 438.545,853.04 441.072,853.073 443.599,853.104 446.126,853.132 448.653,853.159 451.18,853.184 453.707,853.208 456.234,853.23 458.76,853.251 461.287,853.27 463.814,853.289 466.341,853.306 468.868,853.322 471.395,853.338 473.922,853.352 476.449,853.366 478.976,853.379 481.503,853.392 484.03,853.404 486.557,853.415 489.084,853.426 491.611,853.436 494.138,853.446 496.665,853.455 499.192,853.464 501.719,853.473 504.245,853.481 506.772,853.489 509.299,853.497 511.826,853.504 514.353,853.511 516.88,853.517 519.407,853.524 521.934,853.53 524.461,853.536 526.988,853.542 529.515,853.547 532.042,853.553 534.569,853.558 537.096,853.563 539.623,853.567 542.15,853.572 544.677,853.576 547.204,853.58 549.73,853.585 552.257,853.588 554.784,853.592 557.311,853.596 559.838,853.599 562.365,853.603 564.892,853.606 567.419,853.609 569.946,853.612 572.473,853.615 575,853.617 577.527,853.62 580.054,853.622 582.581,853.625 585.108,853.627 587.635,853.629 590.162,853.631 592.689,853.633 595.215,853.634 597.742,853.636 600.269,853.638 602.796,853.639 605.323,853.641 607.85,853.642 610.377,853.643 612.904,853.644 615.431,853.645 617.958,853.646 620.485,853.647 623.012,853.648 625.539,853.648 628.066,853.649 630.593,853.649 633.12,853.65 635.647,853.65 638.174,853.65 640.7,853.651 643.227,853.651 645.754,853.651 648.281,853.651 650.808,853.651 653.335,853.65 655.862,853.65 658.389,853.65 660.916,853.649 663.443,853.649 665.97,853.648 668.497,853.648 671.024,853.647 673.551,853.646 676.078,853.646 678.605,853.645 681.132,853.644 683.659,853.643 686.185,853.642 688.712,853.641 691.239,853.64 693.766,853.638 696.293,853.637 698.82,853.636 701.347,853.634 703.874,853.633 706.401,853.631 708.928,853.63 711.455,853.628 713.982,853.627 716.509,853.625 719.036,853.623 721.563,853.621 724.09,853.62 726.617,853.618 729.144,853.616 731.67,853.614 734.197,853.612 736.724,853.61 739.251,853.607 741.778,853.605 744.305,853.603 746.832,853.601 749.359,853.598 751.886,853.596 754.413,853.594 756.94,853.591 759.467,853.589 761.994,853.586 764.521,853.584 767.048,853.581 769.575,853.579 772.102,853.576 774.629,853.573 777.155,853.57 779.682,853.568 782.209,853.565 784.736,853.562 787.263,853.559 789.79,853.556 792.317,853.553 794.844,853.55 797.371,853.547 799.898,853.544 802.425,853.541 804.952,853.538 807.479,853.535 810.006,853.532 812.533,853.528 815.06,853.525 817.587,853.522 820.114,853.519 822.64,853.515 825.167,853.512 827.694,853.509 830.221,853.505 832.748,853.502 835.275,853.498 837.802,853.495 840.329,853.491 842.856,853.488 845.383,853.484 847.91,853.48 850.437,853.477 852.964,853.473 855.491,853.47 858.018,853.466 860.545,853.462 863.072,853.458 865.599,853.455 868.125,853.451 870.652,853.447 873.179,853.443 875.706,853.439 878.233,853.435 880.76,853.432 883.287,853.428 885.814,853.424 888.341,853.42 890.868,853.416 893.395,853.412 895.922,853.408 898.449,853.404 900.976,853.4 903.503,853.396 906.03,853.391 908.557,853.387 911.084,853.383 913.61,853.379 916.137,853.375 918.664,853.371 921.191,853.366 923.718,853.362 926.245,853.358 928.772,853.354 931.299,853.349 933.826,853.345 936.353,853.341 938.88,853.337 941.407,853.332 943.934,853.328 946.461,853.324 948.988,853.319 951.515,853.315 954.042,853.31 956.569,853.306 959.095,853.302 961.622,853.297 964.149,853.293 966.676,853.288 969.203,853.284 971.73,853.279 974.257,853.275 976.784,853.27 979.311,853.266 981.838,853.261 984.365,853.257 986.892,853.252 989.419,853.247 991.946,853.243 994.473,853.238 997,853.234 999.527,853.229 1002.05,853.224 1004.58,853.22 1007.11,853.215 1009.63,853.21 1012.16,853.206 1014.69,853.201 1017.22,853.196 1019.74,853.192 1022.27,853.187 1024.8,853.182 1027.32,853.178 1029.85,853.173 1032.38,853.168 1034.9,853.163 1037.43,853.159 1039.96,853.154 1042.48,853.149 1045.01,853.144 1047.54,853.14 1050.07,853.135 1052.59,853.13 1055.12,853.125 1057.65,853.12 1060.17,853.116 1062.7,853.111 1065.23,853.106 1067.75,853.101 1070.28,853.096 1072.81,853.091 1075.33,853.087 1077.86,853.082 1080.39,853.077 1082.92,853.072 1085.44,853.067 1087.97,853.062 1090.5,853.057 1093.02,853.052 1095.55,853.048 1098.08,853.043 1100.6,853.038 1103.13,853.033 1105.66,853.028 1108.19,853.023 1110.71,853.018 1113.24,853.013 1115.77,853.008 1118.29,853.003 1120.82,852.998 1123.35,852.994 1125.87,852.989 1128.4,852.984 1130.93,852.979 1133.45,852.974 1135.98,852.969 1138.51,852.964 1141.04,852.959 1143.56,852.954 1146.09,852.949 1148.62,852.944 1151.14,852.939 1153.67,852.934 1156.2,852.929 1158.72,852.924 1161.25,852.919 1163.78,852.914 1166.3,852.909 1168.83,852.904 1171.36,852.899 1173.89,852.894 1176.41,852.889 1178.94,852.885 1181.47,852.88 1183.99,852.875 1186.52,852.87 1189.05,852.865 1191.57,852.86 1194.1,852.855 1196.63,852.85 1199.16,852.845 1201.68,852.84 1204.21,852.835 1206.74,852.83 1209.26,852.825 1211.79,852.82 1214.32,852.815 1216.84,852.81 1219.37,852.805 1221.9,852.8 1224.42,852.795 1226.95,852.79 1229.48,852.785 1232.01,852.78 1234.53,852.775 1237.06,852.77 1239.59,852.765 1242.11,852.76 1244.64,852.755 1247.17,852.75 1249.69,852.745 1252.22,852.74 1254.75,852.735 1257.27,852.73 1259.8,852.725 1262.33,852.72 1264.86,852.716 1267.38,852.711 1269.91,852.706 1272.44,852.701 1274.96,852.696 1277.49,852.691 1280.02,852.686 1282.54,852.681 1285.07,852.676 1287.6,852.671 1290.13,852.666 1292.65,852.661 1295.18,852.656 1297.71,852.651 1300.23,852.646 1302.76,852.641 1305.29,852.637 1307.81,852.632 1310.34,852.627 1312.87,852.622 1315.39,852.617 1317.92,852.612 1320.45,852.607 1322.98,852.602 1325.5,852.597 1328.03,852.592 1330.56,852.588 1333.08,852.583 1335.61,852.578 1338.14,852.573 1340.66,852.568 1343.19,852.563 1345.72,852.558 1348.24,852.553 1350.77,852.549 1353.3,852.544 1355.83,852.539 1358.35,852.534 1360.88,852.529 1363.41,852.524 1365.93,852.52 1368.46,852.515 1370.99,852.51 1373.51,852.505 1376.04,852.5 1378.57,852.495 1381.1,852.491 1383.62,852.486 1386.15,852.481 1388.68,852.476 1391.2,852.471 1393.73,852.467 1396.26,852.462 1398.78,852.457 1401.31,852.452 1403.84,852.448 1406.36,852.443 1408.89,852.438 1411.42,852.433 1413.95,852.429 1416.47,852.424 1419,852.419 1421.53,852.414 1424.05,852.41 1426.58,852.405 1429.11,852.4 1431.63,852.395 1434.16,852.391 1436.69,852.386 1439.21,852.381 1441.74,852.377 1444.27,852.372 1446.8,852.367 1449.32,852.363 1451.85,852.358 1454.38,852.353 1456.9,852.349 1459.43,852.344 1461.96,852.339 1464.48,852.335 1467.01,852.33 1469.54,852.325 1472.07,852.321 1474.59,852.316 1477.12,852.312 1479.65,852.307 1482.17,852.302 1484.7,852.298 1487.23,852.293 1489.75,852.289 1492.28,852.284 1494.81,852.279 1497.33,852.275 1499.86,852.27 1502.39,852.266 1504.92,852.261 1507.44,852.257 1509.97,852.252 1512.5,852.248 1515.02,852.243 1517.55,852.239 1520.08,852.234 1522.6,852.23 1525.13,852.225 1527.66,852.221 1530.18,852.216 1532.71,852.212 1535.24,852.207 1537.77,852.203 1540.29,852.198 1542.82,852.194 1545.35,852.189 1547.87,852.185 1550.4,852.18 1552.93,852.176 1555.45,852.172 1557.98,852.167 1560.51,852.163 1563.04,852.158 1565.56,852.154 1568.09,852.15 1570.62,852.145 1573.14,852.141 1575.67,852.136 1578.2,852.132 1580.72,852.128 1583.25,852.123 1585.78,852.119 1588.3,852.115 1590.83,852.11 1593.36,852.106 1595.89,852.102 1598.41,852.097 1600.94,852.093 1603.47,852.089 1605.99,852.084 1608.52,852.08 1611.05,852.076 1613.57,852.072 1616.1,852.067 1618.63,852.063 1621.15,852.059 1623.68,852.055 1626.21,852.05 1628.74,852.046 1631.26,852.042 1633.79,852.038 1636.32,852.033 1638.84,852.029 1641.37,852.025 1643.9,852.021 1646.42,852.017 1648.95,852.013 1651.48,852.008 1654.01,852.004 1656.53,852 1659.06,851.996 1661.59,851.992 1664.11,851.988 1666.64,851.984 1669.17,851.979 1671.69,851.975 1674.22,851.971 1676.75,851.967 1679.27,851.963 1681.8,851.959 1684.33,851.955 1686.86,851.951 1689.38,851.947 1691.91,851.943 1694.44,851.939 1696.96,851.935 1699.49,851.931 1702.02,851.926 1704.54,851.922 1707.07,851.918 1709.6,851.914 1712.12,851.91 1714.65,851.906 1717.18,851.902 1719.71,851.898 1722.23,851.895 1724.76,851.891 1727.29,851.887 1729.81,851.883 1732.34,851.879 1734.87,851.875 1737.39,851.871 1739.92,851.867 1742.45,851.863 1744.98,851.859 1747.5,851.855 1750.03,851.851 1752.56,851.847 1755.08,851.844 1757.61,851.84 1760.14,851.836 1762.66,851.832 1765.19,851.828 1767.72,851.824 1770.24,851.82 1772.77,851.817 1775.3,851.813 1777.83,851.809 1780.35,851.805 1782.88,851.801 1785.41,851.798 1787.93,851.794 1790.46,851.79 1792.99,851.786 1795.51,851.783 1798.04,851.779 1800.57,851.775 1803.09,851.771 1805.62,851.768 1808.15,851.764 1810.68,851.76 1813.2,851.756 1815.73,851.753 1818.26,851.749 1820.78,851.745 1823.31,851.742 1825.84,851.738 1828.36,851.734 1830.89,851.731 1833.42,851.727 1835.95,851.723 1838.47,851.72 1841,851.716 1843.53,851.712 1846.05,851.709 1848.58,851.705 1851.11,851.702 1853.63,851.698 1856.16,851.694 1858.69,851.691 1861.21,851.687 1863.74,851.684 1866.27,851.68 1868.8,851.677 1871.32,851.673 1873.85,851.67 1876.38,851.666 1878.9,851.663 1881.43,851.659 1883.96,851.656 1886.48,851.652 1889.01,851.649 1891.54,851.645 1894.06,851.642 1896.59,851.638 1899.12,851.635 1901.65,851.631 1904.17,851.628 1906.7,851.624 1909.23,851.621 1911.75,851.617 1914.28,851.614 1916.81,851.611 1919.33,851.607 1921.86,851.604 1924.39,851.6 1926.92,851.597 1929.44,851.594 1931.97,851.59 1934.5,851.587 1937.02,851.584 "/>
<polyline clip-path="url(#clip832)" style="stroke:#ed5d92; stroke-linecap:round; stroke-linejoin:round; stroke-width:4; stroke-opacity:1; fill:none" points="312.198,885.093 314.725,890.748 317.252,895.426 319.779,899.28 322.305,902.448 324.832,905.046 327.359,907.175 329.886,908.92 332.413,910.351 334.94,911.526 337.467,912.493 339.994,913.29 342.521,913.95 345.048,914.497 347.575,914.954 350.102,915.336 352.629,915.658 355.156,915.93 357.683,916.162 360.21,916.361 362.737,916.533 365.264,916.682 367.79,916.813 370.317,916.928 372.844,917.031 375.371,917.124 377.898,917.208 380.425,917.284 382.952,917.354 385.479,917.419 388.006,917.48 390.533,917.536 393.06,917.59 395.587,917.64 398.114,917.688 400.641,917.734 403.168,917.778 405.695,917.82 408.222,917.861 410.749,917.9 413.275,917.938 415.802,917.975 418.329,918.01 420.856,918.045 423.383,918.079 425.91,918.111 428.437,918.143 430.964,918.174 433.491,918.204 436.018,918.234 438.545,918.262 441.072,918.29 443.599,918.317 446.126,918.344 448.653,918.369 451.18,918.394 453.707,918.419 456.234,918.442 458.76,918.466 461.287,918.488 463.814,918.51 466.341,918.531 468.868,918.552 471.395,918.572 473.922,918.592 476.449,918.611 478.976,918.629 481.503,918.647 484.03,918.664 486.557,918.681 489.084,918.697 491.611,918.713 494.138,918.728 496.665,918.743 499.192,918.757 501.719,918.771 504.245,918.785 506.772,918.798 509.299,918.81 511.826,918.822 514.353,918.834 516.88,918.845 519.407,918.856 521.934,918.866 524.461,918.876 526.988,918.885 529.515,918.894 532.042,918.903 534.569,918.911 537.096,918.919 539.623,918.927 542.15,918.934 544.677,918.941 547.204,918.947 549.73,918.953 552.257,918.959 554.784,918.965 557.311,918.97 559.838,918.975 562.365,918.979 564.892,918.983 567.419,918.987 569.946,918.991 572.473,918.994 575,918.997 577.527,918.999 580.054,919.002 582.581,919.004 585.108,919.006 587.635,919.007 590.162,919.009 592.689,919.01 595.215,919.01 597.742,919.011 600.269,919.011 602.796,919.011 605.323,919.011 607.85,919.01 610.377,919.009 612.904,919.009 615.431,919.007 617.958,919.006 620.485,919.004 623.012,919.002 625.539,919 628.066,918.998 630.593,918.996 633.12,918.993 635.647,918.99 638.174,918.987 640.7,918.984 643.227,918.98 645.754,918.976 648.281,918.973 650.808,918.968 653.335,918.964 655.862,918.96 658.389,918.955 660.916,918.951 663.443,918.946 665.97,918.941 668.497,918.935 671.024,918.93 673.551,918.924 676.078,918.919 678.605,918.913 681.132,918.907 683.659,918.901 686.185,918.894 688.712,918.888 691.239,918.881 693.766,918.874 696.293,918.868 698.82,918.861 701.347,918.853 703.874,918.846 706.401,918.839 708.928,918.831 711.455,918.824 713.982,918.816 716.509,918.808 719.036,918.8 721.563,918.792 724.09,918.783 726.617,918.775 729.144,918.767 731.67,918.758 734.197,918.749 736.724,918.741 739.251,918.732 741.778,918.723 744.305,918.714 746.832,918.705 749.359,918.695 751.886,918.686 754.413,918.677 756.94,918.667 759.467,918.657 761.994,918.648 764.521,918.638 767.048,918.628 769.575,918.618 772.102,918.608 774.629,918.598 777.155,918.588 779.682,918.577 782.209,918.567 784.736,918.556 787.263,918.546 789.79,918.535 792.317,918.525 794.844,918.514 797.371,918.503 799.898,918.492 802.425,918.482 804.952,918.471 807.479,918.46 810.006,918.448 812.533,918.437 815.06,918.426 817.587,918.415 820.114,918.404 822.64,918.392 825.167,918.381 827.694,918.369 830.221,918.358 832.748,918.346 835.275,918.335 837.802,918.323 840.329,918.311 842.856,918.299 845.383,918.288 847.91,918.276 850.437,918.264 852.964,918.252 855.491,918.24 858.018,918.228 860.545,918.216 863.072,918.204 865.599,918.192 868.125,918.179 870.652,918.167 873.179,918.155 875.706,918.143 878.233,918.131 880.76,918.118 883.287,918.106 885.814,918.093 888.341,918.081 890.868,918.069 893.395,918.056 895.922,918.044 898.449,918.031 900.976,918.019 903.503,918.006 906.03,917.993 908.557,917.981 911.084,917.968 913.61,917.956 916.137,917.943 918.664,917.93 921.191,917.918 923.718,917.905 926.245,917.892 928.772,917.879 931.299,917.867 933.826,917.854 936.353,917.841 938.88,917.828 941.407,917.815 943.934,917.802 946.461,917.79 948.988,917.777 951.515,917.764 954.042,917.751 956.569,917.738 959.095,917.725 961.622,917.712 964.149,917.699 966.676,917.686 969.203,917.673 971.73,917.661 974.257,917.648 976.784,917.635 979.311,917.622 981.838,917.609 984.365,917.596 986.892,917.583 989.419,917.57 991.946,917.557 994.473,917.544 997,917.531 999.527,917.518 1002.05,917.505 1004.58,917.492 1007.11,917.479 1009.63,917.466 1012.16,917.453 1014.69,917.44 1017.22,917.427 1019.74,917.414 1022.27,917.401 1024.8,917.388 1027.32,917.375 1029.85,917.362 1032.38,917.349 1034.9,917.336 1037.43,917.324 1039.96,917.311 1042.48,917.298 1045.01,917.285 1047.54,917.272 1050.07,917.259 1052.59,917.246 1055.12,917.233 1057.65,917.22 1060.17,917.207 1062.7,917.195 1065.23,917.182 1067.75,917.169 1070.28,917.156 1072.81,917.143 1075.33,917.13 1077.86,917.118 1080.39,917.105 1082.92,917.092 1085.44,917.079 1087.97,917.067 1090.5,917.054 1093.02,917.041 1095.55,917.028 1098.08,917.016 1100.6,917.003 1103.13,916.99 1105.66,916.978 1108.19,916.965 1110.71,916.952 1113.24,916.94 1115.77,916.927 1118.29,916.914 1120.82,916.902 1123.35,916.889 1125.87,916.877 1128.4,916.864 1130.93,916.852 1133.45,916.839 1135.98,916.827 1138.51,916.814 1141.04,916.802 1143.56,916.789 1146.09,916.777 1148.62,916.765 1151.14,916.752 1153.67,916.74 1156.2,916.727 1158.72,916.715 1161.25,916.703 1163.78,916.69 1166.3,916.678 1168.83,916.666 1171.36,916.654 1173.89,916.641 1176.41,916.629 1178.94,916.617 1181.47,916.605 1183.99,916.593 1186.52,916.581 1189.05,916.569 1191.57,916.556 1194.1,916.544 1196.63,916.532 1199.16,916.52 1201.68,916.508 1204.21,916.496 1206.74,916.484 1209.26,916.472 1211.79,916.46 1214.32,916.449 1216.84,916.437 1219.37,916.425 1221.9,916.413 1224.42,916.401 1226.95,916.389 1229.48,916.378 1232.01,916.366 1234.53,916.354 1237.06,916.342 1239.59,916.331 1242.11,916.319 1244.64,916.307 1247.17,916.296 1249.69,916.284 1252.22,916.273 1254.75,916.261 1257.27,916.249 1259.8,916.238 1262.33,916.226 1264.86,916.215 1267.38,916.204 1269.91,916.192 1272.44,916.181 1274.96,916.169 1277.49,916.158 1280.02,916.147 1282.54,916.135 1285.07,916.124 1287.6,916.113 1290.13,916.102 1292.65,916.09 1295.18,916.079 1297.71,916.068 1300.23,916.057 1302.76,916.046 1305.29,916.035 1307.81,916.024 1310.34,916.012 1312.87,916.001 1315.39,915.99 1317.92,915.979 1320.45,915.969 1322.98,915.958 1325.5,915.947 1328.03,915.936 1330.56,915.925 1333.08,915.914 1335.61,915.903 1338.14,915.893 1340.66,915.882 1343.19,915.871 1345.72,915.86 1348.24,915.85 1350.77,915.839 1353.3,915.828 1355.83,915.818 1358.35,915.807 1360.88,915.796 1363.41,915.786 1365.93,915.775 1368.46,915.765 1370.99,915.754 1373.51,915.744 1376.04,915.734 1378.57,915.723 1381.1,915.713 1383.62,915.702 1386.15,915.692 1388.68,915.682 1391.2,915.672 1393.73,915.661 1396.26,915.651 1398.78,915.641 1401.31,915.631 1403.84,915.62 1406.36,915.61 1408.89,915.6 1411.42,915.59 1413.95,915.58 1416.47,915.57 1419,915.56 1421.53,915.55 1424.05,915.54 1426.58,915.53 1429.11,915.52 1431.63,915.51 1434.16,915.5 1436.69,915.491 1439.21,915.481 1441.74,915.471 1444.27,915.461 1446.8,915.451 1449.32,915.442 1451.85,915.432 1454.38,915.422 1456.9,915.413 1459.43,915.403 1461.96,915.394 1464.48,915.384 1467.01,915.374 1469.54,915.365 1472.07,915.355 1474.59,915.346 1477.12,915.336 1479.65,915.327 1482.17,915.318 1484.7,915.308 1487.23,915.299 1489.75,915.289 1492.28,915.28 1494.81,915.271 1497.33,915.262 1499.86,915.252 1502.39,915.243 1504.92,915.234 1507.44,915.225 1509.97,915.216 1512.5,915.207 1515.02,915.197 1517.55,915.188 1520.08,915.179 1522.6,915.17 1525.13,915.161 1527.66,915.152 1530.18,915.143 1532.71,915.134 1535.24,915.125 1537.77,915.117 1540.29,915.108 1542.82,915.099 1545.35,915.09 1547.87,915.081 1550.4,915.072 1552.93,915.064 1555.45,915.055 1557.98,915.046 1560.51,915.038 1563.04,915.029 1565.56,915.02 1568.09,915.012 1570.62,915.003 1573.14,914.995 1575.67,914.986 1578.2,914.977 1580.72,914.969 1583.25,914.961 1585.78,914.952 1588.3,914.944 1590.83,914.935 1593.36,914.927 1595.89,914.918 1598.41,914.91 1600.94,914.902 1603.47,914.894 1605.99,914.885 1608.52,914.877 1611.05,914.869 1613.57,914.861 1616.1,914.852 1618.63,914.844 1621.15,914.836 1623.68,914.828 1626.21,914.82 1628.74,914.812 1631.26,914.804 1633.79,914.796 1636.32,914.788 1638.84,914.78 1641.37,914.772 1643.9,914.764 1646.42,914.756 1648.95,914.748 1651.48,914.74 1654.01,914.732 1656.53,914.724 1659.06,914.717 1661.59,914.709 1664.11,914.701 1666.64,914.693 1669.17,914.686 1671.69,914.678 1674.22,914.67 1676.75,914.663 1679.27,914.655 1681.8,914.647 1684.33,914.64 1686.86,914.632 1689.38,914.625 1691.91,914.617 1694.44,914.61 1696.96,914.602 1699.49,914.595 1702.02,914.587 1704.54,914.58 1707.07,914.572 1709.6,914.565 1712.12,914.558 1714.65,914.55 1717.18,914.543 1719.71,914.536 1722.23,914.528 1724.76,914.521 1727.29,914.514 1729.81,914.507 1732.34,914.499 1734.87,914.492 1737.39,914.485 1739.92,914.478 1742.45,914.471 1744.98,914.464 1747.5,914.457 1750.03,914.45 1752.56,914.442 1755.08,914.435 1757.61,914.428 1760.14,914.421 1762.66,914.415 1765.19,914.408 1767.72,914.401 1770.24,914.394 1772.77,914.387 1775.3,914.38 1777.83,914.373 1780.35,914.366 1782.88,914.36 1785.41,914.353 1787.93,914.346 1790.46,914.339 1792.99,914.332 1795.51,914.326 1798.04,914.319 1800.57,914.312 1803.09,914.306 1805.62,914.299 1808.15,914.293 1810.68,914.286 1813.2,914.279 1815.73,914.273 1818.26,914.266 1820.78,914.26 1823.31,914.253 1825.84,914.247 1828.36,914.24 1830.89,914.234 1833.42,914.227 1835.95,914.221 1838.47,914.215 1841,914.208 1843.53,914.202 1846.05,914.196 1848.58,914.189 1851.11,914.183 1853.63,914.177 1856.16,914.17 1858.69,914.164 1861.21,914.158 1863.74,914.152 1866.27,914.145 1868.8,914.139 1871.32,914.133 1873.85,914.127 1876.38,914.121 1878.9,914.115 1881.43,914.109 1883.96,914.103 1886.48,914.097 1889.01,914.091 1891.54,914.084 1894.06,914.078 1896.59,914.073 1899.12,914.067 1901.65,914.061 1904.17,914.055 1906.7,914.049 1909.23,914.043 1911.75,914.037 1914.28,914.031 1916.81,914.025 1919.33,914.019 1921.86,914.014 1924.39,914.008 1926.92,914.002 1929.44,913.996 1931.97,913.991 1934.5,913.985 1937.02,913.979 1939.55,913.973 1942.08,913.968 1944.6,913.962 1947.13,913.956 1949.66,913.951 1952.18,913.945 1954.71,913.94 1957.24,913.934 1959.77,913.928 1962.29,913.923 1964.82,913.917 1967.35,913.912 1969.87,913.906 1972.4,913.901 1974.93,913.895 1977.45,913.89 1979.98,913.884 1982.51,913.879 1985.03,913.874 1987.56,913.868 1990.09,913.863 1992.62,913.858 1995.14,913.852 1997.67,913.847 2000.2,913.842 2002.72,913.836 2005.25,913.831 2007.78,913.826 2010.3,913.82 2012.83,913.815 2015.36,913.81 2017.89,913.805 2020.41,913.8 2022.94,913.794 2025.47,913.789 2027.99,913.784 2030.52,913.779 2033.05,913.774 2035.57,913.769 2038.1,913.764 2040.63,913.759 2043.15,913.754 2045.68,913.749 2048.21,913.744 2050.74,913.739 2053.26,913.734 2055.79,913.729 2058.32,913.724 2060.84,913.719 2063.37,913.714 2065.9,913.709 2068.42,913.704 2070.95,913.699 2073.48,913.694 2076,913.689 2078.53,913.684 2081.06,913.68 2083.59,913.675 2086.11,913.67 2088.64,913.665 2091.17,913.66 2093.69,913.656 2096.22,913.651 2098.75,913.646 2101.27,913.641 2103.8,913.637 2106.33,913.632 2108.86,913.627 2111.38,913.623 2113.91,913.618 "/>
<polyline clip-path="url(#clip832)" style="stroke:#c68125; stroke-linecap:round; stroke-linejoin:round; stroke-width:4; stroke-opacity:1; fill:none" points="312.198,974.271 314.725,977.475 317.252,980.078 319.779,982.195 322.305,983.918 324.832,985.327 327.359,986.482 329.886,987.435 332.413,988.227 334.94,988.889 337.467,989.449 339.994,989.926 342.521,990.337 345.048,990.695 347.575,991.009 350.102,991.29 352.629,991.541 355.156,991.769 357.683,991.979 360.21,992.171 362.737,992.351 365.264,992.519 367.79,992.677 370.317,992.826 372.844,992.968 375.371,993.103 377.898,993.232 380.425,993.355 382.952,993.474 385.479,993.588 388.006,993.697 390.533,993.802 393.06,993.904 395.587,994.002 398.114,994.096 400.641,994.187 403.168,994.275 405.695,994.36 408.222,994.441 410.749,994.52 413.275,994.597 415.802,994.67 418.329,994.741 420.856,994.81 423.383,994.876 425.91,994.94 428.437,995.002 430.964,995.062 433.491,995.12 436.018,995.175 438.545,995.229 441.072,995.281 443.599,995.331 446.126,995.379 448.653,995.426 451.18,995.471 453.707,995.514 456.234,995.556 458.76,995.596 461.287,995.635 463.814,995.673 466.341,995.709 468.868,995.744 471.395,995.778 473.922,995.811 476.449,995.842 478.976,995.872 481.503,995.902 484.03,995.93 486.557,995.957 489.084,995.983 491.611,996.009 494.138,996.033 496.665,996.057 499.192,996.079 501.719,996.101 504.245,996.122 506.772,996.143 509.299,996.162 511.826,996.181 514.353,996.199 516.88,996.217 519.407,996.234 521.934,996.25 524.461,996.265 526.988,996.281 529.515,996.295 532.042,996.309 534.569,996.322 537.096,996.335 539.623,996.348 542.15,996.36 544.677,996.371 547.204,996.382 549.73,996.393 552.257,996.403 554.784,996.413 557.311,996.422 559.838,996.431 562.365,996.44 564.892,996.448 567.419,996.456 569.946,996.464 572.473,996.471 575,996.478 577.527,996.484 580.054,996.491 582.581,996.497 585.108,996.503 587.635,996.508 590.162,996.513 592.689,996.518 595.215,996.523 597.742,996.528 600.269,996.532 602.796,996.536 605.323,996.54 607.85,996.544 610.377,996.547 612.904,996.55 615.431,996.553 617.958,996.556 620.485,996.559 623.012,996.561 625.539,996.564 628.066,996.566 630.593,996.568 633.12,996.57 635.647,996.571 638.174,996.573 640.7,996.574 643.227,996.576 645.754,996.577 648.281,996.578 650.808,996.578 653.335,996.579 655.862,996.58 658.389,996.58 660.916,996.581 663.443,996.581 665.97,996.581 668.497,996.581 671.024,996.581 673.551,996.581 676.078,996.581 678.605,996.58 681.132,996.58 683.659,996.579 686.185,996.579 688.712,996.578 691.239,996.577 693.766,996.576 696.293,996.575 698.82,996.574 701.347,996.573 703.874,996.572 706.401,996.571 708.928,996.569 711.455,996.568 713.982,996.567 716.509,996.565 719.036,996.563 721.563,996.562 724.09,996.56 726.617,996.558 729.144,996.556 731.67,996.555 734.197,996.553 736.724,996.551 739.251,996.549 741.778,996.546 744.305,996.544 746.832,996.542 749.359,996.54 751.886,996.538 754.413,996.535 756.94,996.533 759.467,996.53 761.994,996.528 764.521,996.525 767.048,996.523 769.575,996.52 772.102,996.518 774.629,996.515 777.155,996.512 779.682,996.51 782.209,996.507 784.736,996.504 787.263,996.501 789.79,996.498 792.317,996.495 794.844,996.493 797.371,996.49 799.898,996.487 802.425,996.484 804.952,996.48 807.479,996.477 810.006,996.474 812.533,996.471 815.06,996.468 817.587,996.465 820.114,996.462 822.64,996.458 825.167,996.455 827.694,996.452 830.221,996.448 832.748,996.445 835.275,996.442 837.802,996.438 840.329,996.435 842.856,996.432 845.383,996.428 847.91,996.425 850.437,996.421 852.964,996.418 855.491,996.414 858.018,996.411 860.545,996.407 863.072,996.403 865.599,996.4 868.125,996.396 870.652,996.393 873.179,996.389 875.706,996.385 878.233,996.382 880.76,996.378 883.287,996.374 885.814,996.371 888.341,996.367 890.868,996.363 893.395,996.359 895.922,996.356 898.449,996.352 900.976,996.348 903.503,996.344 906.03,996.34 908.557,996.336 911.084,996.333 913.61,996.329 916.137,996.325 918.664,996.321 921.191,996.317 923.718,996.313 926.245,996.309 928.772,996.305 931.299,996.301 933.826,996.297 936.353,996.293 938.88,996.289 941.407,996.285 943.934,996.281 946.461,996.277 948.988,996.273 951.515,996.269 954.042,996.265 956.569,996.261 959.095,996.257 961.622,996.253 964.149,996.249 966.676,996.245 969.203,996.241 971.73,996.237 974.257,996.233 976.784,996.229 979.311,996.225 981.838,996.221 984.365,996.216 986.892,996.212 989.419,996.208 991.946,996.204 994.473,996.2 997,996.196 999.527,996.192 1002.05,996.187 1004.58,996.183 1007.11,996.179 1009.63,996.175 1012.16,996.171 1014.69,996.167 1017.22,996.162 1019.74,996.158 1022.27,996.154 1024.8,996.15 1027.32,996.146 1029.85,996.141 1032.38,996.137 1034.9,996.133 1037.43,996.129 1039.96,996.124 1042.48,996.12 1045.01,996.116 1047.54,996.112 1050.07,996.107 1052.59,996.103 1055.12,996.099 1057.65,996.095 1060.17,996.09 1062.7,996.086 1065.23,996.082 1067.75,996.078 1070.28,996.073 1072.81,996.069 1075.33,996.065 1077.86,996.06 1080.39,996.056 1082.92,996.052 1085.44,996.048 1087.97,996.043 1090.5,996.039 1093.02,996.035 1095.55,996.03 1098.08,996.026 1100.6,996.022 1103.13,996.018 1105.66,996.013 1108.19,996.009 1110.71,996.005 1113.24,996 1115.77,995.996 1118.29,995.992 1120.82,995.987 1123.35,995.983 1125.87,995.979 1128.4,995.975 1130.93,995.97 1133.45,995.966 1135.98,995.962 1138.51,995.957 1141.04,995.953 1143.56,995.949 1146.09,995.944 1148.62,995.94 1151.14,995.936 1153.67,995.931 1156.2,995.927 1158.72,995.923 1161.25,995.919 1163.78,995.914 1166.3,995.91 1168.83,995.906 1171.36,995.901 1173.89,995.897 1176.41,995.893 1178.94,995.888 1181.47,995.884 1183.99,995.88 1186.52,995.875 1189.05,995.871 1191.57,995.867 1194.1,995.862 1196.63,995.858 1199.16,995.854 1201.68,995.85 1204.21,995.845 1206.74,995.841 1209.26,995.837 1211.79,995.832 1214.32,995.828 1216.84,995.824 1219.37,995.82 1221.9,995.815 1224.42,995.811 1226.95,995.807 1229.48,995.802 1232.01,995.798 1234.53,995.794 1237.06,995.789 1239.59,995.785 1242.11,995.781 1244.64,995.777 1247.17,995.772 1249.69,995.768 1252.22,995.764 1254.75,995.76 1257.27,995.755 1259.8,995.751 1262.33,995.747 1264.86,995.743 1267.38,995.738 1269.91,995.734 1272.44,995.73 1274.96,995.726 1277.49,995.721 1280.02,995.717 1282.54,995.713 1285.07,995.709 1287.6,995.704 1290.13,995.7 1292.65,995.696 1295.18,995.692 1297.71,995.687 1300.23,995.683 1302.76,995.679 1305.29,995.675 1307.81,995.671 1310.34,995.666 1312.87,995.662 1315.39,995.658 1317.92,995.654 1320.45,995.649 1322.98,995.645 1325.5,995.641 1328.03,995.637 1330.56,995.633 1333.08,995.629 1335.61,995.624 1338.14,995.62 1340.66,995.616 1343.19,995.612 1345.72,995.608 1348.24,995.604 1350.77,995.599 1353.3,995.595 1355.83,995.591 1358.35,995.587 1360.88,995.583 1363.41,995.579 1365.93,995.575 1368.46,995.57 1370.99,995.566 1373.51,995.562 1376.04,995.558 1378.57,995.554 1381.1,995.55 1383.62,995.546 1386.15,995.542 1388.68,995.537 1391.2,995.533 1393.73,995.529 1396.26,995.525 1398.78,995.521 1401.31,995.517 1403.84,995.513 1406.36,995.509 1408.89,995.505 1411.42,995.501 1413.95,995.497 1416.47,995.493 1419,995.489 1421.53,995.484 1424.05,995.48 1426.58,995.476 1429.11,995.472 1431.63,995.468 1434.16,995.464 1436.69,995.46 1439.21,995.456 1441.74,995.452 1444.27,995.448 1446.8,995.444 1449.32,995.44 1451.85,995.436 1454.38,995.432 1456.9,995.428 1459.43,995.424 1461.96,995.42 1464.48,995.416 1467.01,995.412 1469.54,995.408 1472.07,995.404 1474.59,995.401 1477.12,995.397 1479.65,995.393 1482.17,995.389 1484.7,995.385 1487.23,995.381 1489.75,995.377 1492.28,995.373 1494.81,995.369 1497.33,995.365 1499.86,995.361 1502.39,995.357 1504.92,995.353 1507.44,995.35 1509.97,995.346 1512.5,995.342 1515.02,995.338 1517.55,995.334 1520.08,995.33 1522.6,995.326 1525.13,995.322 1527.66,995.319 1530.18,995.315 1532.71,995.311 1535.24,995.307 1537.77,995.303 1540.29,995.299 1542.82,995.296 1545.35,995.292 1547.87,995.288 1550.4,995.284 1552.93,995.28 1555.45,995.277 1557.98,995.273 1560.51,995.269 1563.04,995.265 1565.56,995.262 1568.09,995.258 1570.62,995.254 1573.14,995.25 1575.67,995.246 1578.2,995.243 1580.72,995.239 1583.25,995.235 1585.78,995.232 1588.3,995.228 1590.83,995.224 1593.36,995.22 1595.89,995.217 1598.41,995.213 1600.94,995.209 1603.47,995.206 1605.99,995.202 1608.52,995.198 1611.05,995.195 1613.57,995.191 1616.1,995.187 1618.63,995.184 1621.15,995.18 1623.68,995.176 1626.21,995.173 1628.74,995.169 1631.26,995.165 1633.79,995.162 1636.32,995.158 1638.84,995.154 1641.37,995.151 1643.9,995.147 1646.42,995.144 1648.95,995.14 1651.48,995.136 1654.01,995.133 1656.53,995.129 1659.06,995.126 1661.59,995.122 1664.11,995.119 1666.64,995.115 1669.17,995.112 1671.69,995.108 1674.22,995.104 1676.75,995.101 1679.27,995.097 1681.8,995.094 1684.33,995.09 1686.86,995.087 1689.38,995.083 1691.91,995.08 1694.44,995.076 1696.96,995.073 1699.49,995.069 1702.02,995.066 1704.54,995.062 1707.07,995.059 1709.6,995.056 1712.12,995.052 1714.65,995.049 1717.18,995.045 1719.71,995.042 1722.23,995.038 1724.76,995.035 1727.29,995.032 1729.81,995.028 1732.34,995.025 1734.87,995.021 1737.39,995.018 1739.92,995.015 1742.45,995.011 1744.98,995.008 1747.5,995.004 1750.03,995.001 1752.56,994.998 1755.08,994.994 1757.61,994.991 1760.14,994.988 1762.66,994.984 1765.19,994.981 1767.72,994.978 1770.24,994.974 1772.77,994.971 1775.3,994.968 1777.83,994.964 1780.35,994.961 1782.88,994.958 1785.41,994.955 1787.93,994.951 1790.46,994.948 1792.99,994.945 1795.51,994.941 1798.04,994.938 1800.57,994.935 1803.09,994.932 1805.62,994.928 1808.15,994.925 1810.68,994.922 1813.2,994.919 1815.73,994.916 1818.26,994.912 1820.78,994.909 1823.31,994.906 1825.84,994.903 1828.36,994.9 1830.89,994.896 1833.42,994.893 1835.95,994.89 1838.47,994.887 1841,994.884 1843.53,994.881 1846.05,994.877 1848.58,994.874 1851.11,994.871 1853.63,994.868 1856.16,994.865 1858.69,994.862 1861.21,994.859 1863.74,994.856 1866.27,994.853 1868.8,994.849 1871.32,994.846 1873.85,994.843 1876.38,994.84 1878.9,994.837 1881.43,994.834 1883.96,994.831 1886.48,994.828 1889.01,994.825 1891.54,994.822 1894.06,994.819 1896.59,994.816 1899.12,994.813 1901.65,994.81 1904.17,994.807 1906.7,994.804 1909.23,994.801 1911.75,994.798 1914.28,994.795 1916.81,994.792 1919.33,994.789 1921.86,994.786 1924.39,994.783 1926.92,994.78 1929.44,994.777 1931.97,994.774 1934.5,994.771 1937.02,994.768 1939.55,994.765 1942.08,994.762 1944.6,994.759 1947.13,994.756 1949.66,994.754 1952.18,994.751 1954.71,994.748 1957.24,994.745 1959.77,994.742 1962.29,994.739 1964.82,994.736 1967.35,994.733 1969.87,994.73 1972.4,994.728 1974.93,994.725 1977.45,994.722 1979.98,994.719 1982.51,994.716 1985.03,994.713 1987.56,994.711 1990.09,994.708 1992.62,994.705 1995.14,994.702 1997.67,994.699 2000.2,994.697 2002.72,994.694 2005.25,994.691 2007.78,994.688 2010.3,994.685 2012.83,994.683 2015.36,994.68 2017.89,994.677 2020.41,994.674 2022.94,994.672 2025.47,994.669 2027.99,994.666 2030.52,994.663 2033.05,994.661 2035.57,994.658 2038.1,994.655 2040.63,994.653 2043.15,994.65 2045.68,994.647 2048.21,994.644 2050.74,994.642 2053.26,994.639 2055.79,994.636 2058.32,994.634 2060.84,994.631 2063.37,994.628 2065.9,994.626 2068.42,994.623 2070.95,994.621 2073.48,994.618 2076,994.615 2078.53,994.613 2081.06,994.61 2083.59,994.607 2086.11,994.605 2088.64,994.602 2091.17,994.6 2093.69,994.597 2096.22,994.594 2098.75,994.592 2101.27,994.589 2103.8,994.587 2106.33,994.584 2108.86,994.582 2111.38,994.579 2113.91,994.576 2116.44,994.574 2118.96,994.571 2121.49,994.569 2124.02,994.566 2126.54,994.564 2129.07,994.561 2131.6,994.559 2134.12,994.556 2136.65,994.554 2139.18,994.551 2141.71,994.549 2144.23,994.546 2146.76,994.544 2149.29,994.541 2151.81,994.539 2154.34,994.536 2156.87,994.534 2159.39,994.531 2161.92,994.529 2164.45,994.527 2166.97,994.524 2169.5,994.522 2172.03,994.519 2174.56,994.517 2177.08,994.514 2179.61,994.512 2182.14,994.51 2184.66,994.507 2187.19,994.505 2189.72,994.502 2192.24,994.5 2194.77,994.498 2197.3,994.495 2199.83,994.493 2202.35,994.491 2204.88,994.488 2207.41,994.486 2209.93,994.484 2212.46,994.481 2214.99,994.479 2217.51,994.477 2220.04,994.474 2222.57,994.472 2225.09,994.47 2227.62,994.467 2230.15,994.465 2232.68,994.463 2235.2,994.46 2237.73,994.458 2240.26,994.456 2242.78,994.453 2245.31,994.451 2247.84,994.449 2250.36,994.447 2252.89,994.444 2255.42,994.442 2257.94,994.44 2260.47,994.438 2263,994.435 2265.53,994.433 2268.05,994.431 2270.58,994.429 2273.11,994.426 2275.63,994.424 2278.16,994.422 2280.69,994.42 2283.21,994.418 2285.74,994.415 2288.27,994.413 2290.8,994.411 2293.32,994.409 "/>
<polyline clip-path="url(#clip832)" style="stroke:#00a98d; stroke-linecap:round; stroke-linejoin:round; stroke-width:4; stroke-opacity:1; fill:none" points="312.198,1094.98 314.725,1097.84 317.252,1100.17 319.779,1102.07 322.305,1103.62 324.832,1104.89 327.359,1105.92 329.886,1106.77 332.413,1107.48 334.94,1108.06 337.467,1108.55 339.994,1108.97 342.521,1109.32 345.048,1109.62 347.575,1109.88 350.102,1110.12 352.629,1110.32 355.156,1110.51 357.683,1110.68 360.21,1110.83 362.737,1110.98 365.264,1111.11 367.79,1111.24 370.317,1111.36 372.844,1111.47 375.371,1111.58 377.898,1111.68 380.425,1111.79 382.952,1111.88 385.479,1111.98 388.006,1112.07 390.533,1112.16 393.06,1112.25 395.587,1112.33 398.114,1112.42 400.641,1112.5 403.168,1112.58 405.695,1112.65 408.222,1112.73 410.749,1112.8 413.275,1112.88 415.802,1112.95 418.329,1113.02 420.856,1113.08 423.383,1113.15 425.91,1113.21 428.437,1113.28 430.964,1113.34 433.491,1113.4 436.018,1113.46 438.545,1113.52 441.072,1113.58 443.599,1113.63 446.126,1113.69 448.653,1113.74 451.18,1113.79 453.707,1113.84 456.234,1113.9 458.76,1113.95 461.287,1113.99 463.814,1114.04 466.341,1114.09 468.868,1114.14 471.395,1114.18 473.922,1114.22 476.449,1114.27 478.976,1114.31 481.503,1114.35 484.03,1114.4 486.557,1114.44 489.084,1114.48 491.611,1114.52 494.138,1114.55 496.665,1114.59 499.192,1114.63 501.719,1114.67 504.245,1114.7 506.772,1114.74 509.299,1114.78 511.826,1114.81 514.353,1114.84 516.88,1114.88 519.407,1114.91 521.934,1114.94 524.461,1114.98 526.988,1115.01 529.515,1115.04 532.042,1115.07 534.569,1115.1 537.096,1115.13 539.623,1115.16 542.15,1115.19 544.677,1115.22 547.204,1115.25 549.73,1115.28 552.257,1115.3 554.784,1115.33 557.311,1115.36 559.838,1115.38 562.365,1115.41 564.892,1115.44 567.419,1115.46 569.946,1115.49 572.473,1115.51 575,1115.54 577.527,1115.56 580.054,1115.59 582.581,1115.61 585.108,1115.63 587.635,1115.66 590.162,1115.68 592.689,1115.7 595.215,1115.73 597.742,1115.75 600.269,1115.77 602.796,1115.79 605.323,1115.81 607.85,1115.83 610.377,1115.85 612.904,1115.88 615.431,1115.9 617.958,1115.92 620.485,1115.94 623.012,1115.96 625.539,1115.98 628.066,1116 630.593,1116.01 633.12,1116.03 635.647,1116.05 638.174,1116.07 640.7,1116.09 643.227,1116.11 645.754,1116.12 648.281,1116.14 650.808,1116.16 653.335,1116.18 655.862,1116.19 658.389,1116.21 660.916,1116.23 663.443,1116.25 665.97,1116.26 668.497,1116.28 671.024,1116.29 673.551,1116.31 676.078,1116.33 678.605,1116.34 681.132,1116.36 683.659,1116.37 686.185,1116.39 688.712,1116.4 691.239,1116.42 693.766,1116.43 696.293,1116.45 698.82,1116.46 701.347,1116.47 703.874,1116.49 706.401,1116.5 708.928,1116.52 711.455,1116.53 713.982,1116.54 716.509,1116.56 719.036,1116.57 721.563,1116.58 724.09,1116.6 726.617,1116.61 729.144,1116.62 731.67,1116.63 734.197,1116.65 736.724,1116.66 739.251,1116.67 741.778,1116.68 744.305,1116.7 746.832,1116.71 749.359,1116.72 751.886,1116.73 754.413,1116.74 756.94,1116.75 759.467,1116.77 761.994,1116.78 764.521,1116.79 767.048,1116.8 769.575,1116.81 772.102,1116.82 774.629,1116.83 777.155,1116.84 779.682,1116.85 782.209,1116.86 784.736,1116.87 787.263,1116.88 789.79,1116.89 792.317,1116.9 794.844,1116.91 797.371,1116.92 799.898,1116.93 802.425,1116.94 804.952,1116.95 807.479,1116.96 810.006,1116.97 812.533,1116.98 815.06,1116.99 817.587,1117 820.114,1117.01 822.64,1117.01 825.167,1117.02 827.694,1117.03 830.221,1117.04 832.748,1117.05 835.275,1117.06 837.802,1117.07 840.329,1117.07 842.856,1117.08 845.383,1117.09 847.91,1117.1 850.437,1117.11 852.964,1117.11 855.491,1117.12 858.018,1117.13 860.545,1117.14 863.072,1117.14 865.599,1117.15 868.125,1117.16 870.652,1117.17 873.179,1117.17 875.706,1117.18 878.233,1117.19 880.76,1117.2 883.287,1117.2 885.814,1117.21 888.341,1117.22 890.868,1117.22 893.395,1117.23 895.922,1117.24 898.449,1117.24 900.976,1117.25 903.503,1117.26 906.03,1117.26 908.557,1117.27 911.084,1117.27 913.61,1117.28 916.137,1117.29 918.664,1117.29 921.191,1117.3 923.718,1117.31 926.245,1117.31 928.772,1117.32 931.299,1117.32 933.826,1117.33 936.353,1117.33 938.88,1117.34 941.407,1117.35 943.934,1117.35 946.461,1117.36 948.988,1117.36 951.515,1117.37 954.042,1117.37 956.569,1117.38 959.095,1117.38 961.622,1117.39 964.149,1117.39 966.676,1117.4 969.203,1117.4 971.73,1117.41 974.257,1117.41 976.784,1117.42 979.311,1117.42 981.838,1117.43 984.365,1117.43 986.892,1117.44 989.419,1117.44 991.946,1117.45 994.473,1117.45 997,1117.46 999.527,1117.46 1002.05,1117.47 1004.58,1117.47 1007.11,1117.47 1009.63,1117.48 1012.16,1117.48 1014.69,1117.49 1017.22,1117.49 1019.74,1117.5 1022.27,1117.5 1024.8,1117.5 1027.32,1117.51 1029.85,1117.51 1032.38,1117.52 1034.9,1117.52 1037.43,1117.52 1039.96,1117.53 1042.48,1117.53 1045.01,1117.54 1047.54,1117.54 1050.07,1117.54 1052.59,1117.55 1055.12,1117.55 1057.65,1117.55 1060.17,1117.56 1062.7,1117.56 1065.23,1117.56 1067.75,1117.57 1070.28,1117.57 1072.81,1117.57 1075.33,1117.58 1077.86,1117.58 1080.39,1117.58 1082.92,1117.59 1085.44,1117.59 1087.97,1117.59 1090.5,1117.6 1093.02,1117.6 1095.55,1117.6 1098.08,1117.61 1100.6,1117.61 1103.13,1117.61 1105.66,1117.62 1108.19,1117.62 1110.71,1117.62 1113.24,1117.62 1115.77,1117.63 1118.29,1117.63 1120.82,1117.63 1123.35,1117.64 1125.87,1117.64 1128.4,1117.64 1130.93,1117.64 1133.45,1117.65 1135.98,1117.65 1138.51,1117.65 1141.04,1117.66 1143.56,1117.66 1146.09,1117.66 1148.62,1117.66 1151.14,1117.67 1153.67,1117.67 1156.2,1117.67 1158.72,1117.67 1161.25,1117.68 1163.78,1117.68 1166.3,1117.68 1168.83,1117.68 1171.36,1117.68 1173.89,1117.69 1176.41,1117.69 1178.94,1117.69 1181.47,1117.69 1183.99,1117.7 1186.52,1117.7 1189.05,1117.7 1191.57,1117.7 1194.1,1117.7 1196.63,1117.71 1199.16,1117.71 1201.68,1117.71 1204.21,1117.71 1206.74,1117.71 1209.26,1117.72 1211.79,1117.72 1214.32,1117.72 1216.84,1117.72 1219.37,1117.72 1221.9,1117.73 1224.42,1117.73 1226.95,1117.73 1229.48,1117.73 1232.01,1117.73 1234.53,1117.74 1237.06,1117.74 1239.59,1117.74 1242.11,1117.74 1244.64,1117.74 1247.17,1117.74 1249.69,1117.75 1252.22,1117.75 1254.75,1117.75 1257.27,1117.75 1259.8,1117.75 1262.33,1117.75 1264.86,1117.76 1267.38,1117.76 1269.91,1117.76 1272.44,1117.76 1274.96,1117.76 1277.49,1117.76 1280.02,1117.76 1282.54,1117.77 1285.07,1117.77 1287.6,1117.77 1290.13,1117.77 1292.65,1117.77 1295.18,1117.77 1297.71,1117.77 1300.23,1117.78 1302.76,1117.78 1305.29,1117.78 1307.81,1117.78 1310.34,1117.78 1312.87,1117.78 1315.39,1117.78 1317.92,1117.78 1320.45,1117.79 1322.98,1117.79 1325.5,1117.79 1328.03,1117.79 1330.56,1117.79 1333.08,1117.79 1335.61,1117.79 1338.14,1117.79 1340.66,1117.8 1343.19,1117.8 1345.72,1117.8 1348.24,1117.8 1350.77,1117.8 1353.3,1117.8 1355.83,1117.8 1358.35,1117.8 1360.88,1117.8 1363.41,1117.81 1365.93,1117.81 1368.46,1117.81 1370.99,1117.81 1373.51,1117.81 1376.04,1117.81 1378.57,1117.81 1381.1,1117.81 1383.62,1117.81 1386.15,1117.81 1388.68,1117.81 1391.2,1117.82 1393.73,1117.82 1396.26,1117.82 1398.78,1117.82 1401.31,1117.82 1403.84,1117.82 1406.36,1117.82 1408.89,1117.82 1411.42,1117.82 1413.95,1117.82 1416.47,1117.82 1419,1117.82 1421.53,1117.83 1424.05,1117.83 1426.58,1117.83 1429.11,1117.83 1431.63,1117.83 1434.16,1117.83 1436.69,1117.83 1439.21,1117.83 1441.74,1117.83 1444.27,1117.83 1446.8,1117.83 1449.32,1117.83 1451.85,1117.83 1454.38,1117.83 1456.9,1117.84 1459.43,1117.84 1461.96,1117.84 1464.48,1117.84 1467.01,1117.84 1469.54,1117.84 1472.07,1117.84 1474.59,1117.84 1477.12,1117.84 1479.65,1117.84 1482.17,1117.84 1484.7,1117.84 1487.23,1117.84 1489.75,1117.84 1492.28,1117.84 1494.81,1117.84 1497.33,1117.84 1499.86,1117.84 1502.39,1117.85 1504.92,1117.85 1507.44,1117.85 1509.97,1117.85 1512.5,1117.85 1515.02,1117.85 1517.55,1117.85 1520.08,1117.85 1522.6,1117.85 1525.13,1117.85 1527.66,1117.85 1530.18,1117.85 1532.71,1117.85 1535.24,1117.85 1537.77,1117.85 1540.29,1117.85 1542.82,1117.85 1545.35,1117.85 1547.87,1117.85 1550.4,1117.85 1552.93,1117.85 1555.45,1117.85 1557.98,1117.85 1560.51,1117.85 1563.04,1117.85 1565.56,1117.86 1568.09,1117.86 1570.62,1117.86 1573.14,1117.86 1575.67,1117.86 1578.2,1117.86 1580.72,1117.86 1583.25,1117.86 1585.78,1117.86 1588.3,1117.86 1590.83,1117.86 1593.36,1117.86 1595.89,1117.86 1598.41,1117.86 1600.94,1117.86 1603.47,1117.86 1605.99,1117.86 1608.52,1117.86 1611.05,1117.86 1613.57,1117.86 1616.1,1117.86 1618.63,1117.86 1621.15,1117.86 1623.68,1117.86 1626.21,1117.86 1628.74,1117.86 1631.26,1117.86 1633.79,1117.86 1636.32,1117.86 1638.84,1117.86 1641.37,1117.86 1643.9,1117.86 1646.42,1117.86 1648.95,1117.86 1651.48,1117.86 1654.01,1117.86 1656.53,1117.86 1659.06,1117.86 1661.59,1117.86 1664.11,1117.86 1666.64,1117.86 1669.17,1117.86 1671.69,1117.86 1674.22,1117.86 1676.75,1117.86 1679.27,1117.86 1681.8,1117.86 1684.33,1117.86 1686.86,1117.86 1689.38,1117.86 1691.91,1117.86 1694.44,1117.86 1696.96,1117.86 1699.49,1117.86 1702.02,1117.86 1704.54,1117.86 1707.07,1117.86 1709.6,1117.86 1712.12,1117.86 1714.65,1117.86 1717.18,1117.86 1719.71,1117.86 1722.23,1117.86 1724.76,1117.86 1727.29,1117.86 1729.81,1117.86 1732.34,1117.86 1734.87,1117.86 1737.39,1117.86 1739.92,1117.86 1742.45,1117.86 1744.98,1117.86 1747.5,1117.86 1750.03,1117.86 1752.56,1117.86 1755.08,1117.86 1757.61,1117.86 1760.14,1117.86 1762.66,1117.86 1765.19,1117.86 1767.72,1117.86 1770.24,1117.86 1772.77,1117.86 1775.3,1117.86 1777.83,1117.86 1780.35,1117.86 1782.88,1117.86 1785.41,1117.86 1787.93,1117.86 1790.46,1117.86 1792.99,1117.86 1795.51,1117.86 1798.04,1117.86 1800.57,1117.86 1803.09,1117.86 1805.62,1117.86 1808.15,1117.86 1810.68,1117.86 1813.2,1117.86 1815.73,1117.86 1818.26,1117.86 1820.78,1117.86 1823.31,1117.86 1825.84,1117.86 1828.36,1117.86 1830.89,1117.86 1833.42,1117.86 1835.95,1117.86 1838.47,1117.86 1841,1117.86 1843.53,1117.86 1846.05,1117.86 1848.58,1117.86 1851.11,1117.86 1853.63,1117.86 1856.16,1117.86 1858.69,1117.86 1861.21,1117.86 1863.74,1117.86 1866.27,1117.86 1868.8,1117.86 1871.32,1117.86 1873.85,1117.86 1876.38,1117.86 1878.9,1117.86 1881.43,1117.86 1883.96,1117.86 1886.48,1117.86 1889.01,1117.86 1891.54,1117.86 1894.06,1117.86 1896.59,1117.86 1899.12,1117.86 1901.65,1117.86 1904.17,1117.86 1906.7,1117.86 1909.23,1117.86 1911.75,1117.86 1914.28,1117.86 1916.81,1117.86 1919.33,1117.86 1921.86,1117.86 1924.39,1117.86 1926.92,1117.86 1929.44,1117.86 1931.97,1117.86 1934.5,1117.86 1937.02,1117.86 1939.55,1117.86 1942.08,1117.86 1944.6,1117.86 1947.13,1117.86 1949.66,1117.86 1952.18,1117.86 1954.71,1117.85 1957.24,1117.85 1959.77,1117.85 1962.29,1117.85 1964.82,1117.85 1967.35,1117.85 1969.87,1117.85 1972.4,1117.85 1974.93,1117.85 1977.45,1117.85 1979.98,1117.85 1982.51,1117.85 1985.03,1117.85 1987.56,1117.85 1990.09,1117.85 "/>
<path clip-path="url(#clip830)" d="M1928.45 404.149 L2282.76 404.149 L2282.76 93.1086 L1928.45 93.1086  Z" fill="#ffffff" fill-rule="evenodd" fill-opacity="1"/>
<polyline clip-path="url(#clip830)" style="stroke:#000000; stroke-linecap:round; stroke-linejoin:round; stroke-width:4; stroke-opacity:1; fill:none" points="1928.45,404.149 2282.76,404.149 2282.76,93.1086 1928.45,93.1086 1928.45,404.149 "/>
<polyline clip-path="url(#clip830)" style="stroke:#ac8d18; stroke-linecap:round; stroke-linejoin:round; stroke-width:4; stroke-opacity:1; fill:none" points="1951.79,144.949 2091.78,144.949 "/>
<path clip-path="url(#clip830)" d="M2130.3 140.284 Q2129.59 139.868 2128.73 139.682 Q2127.9 139.474 2126.88 139.474 Q2123.27 139.474 2121.32 141.835 Q2119.4 144.173 2119.4 148.571 L2119.4 162.229 L2115.12 162.229 L2115.12 136.303 L2119.4 136.303 L2119.4 140.331 Q2120.74 137.969 2122.9 136.835 Q2125.05 135.678 2128.13 135.678 Q2128.57 135.678 2129.1 135.747 Q2129.63 135.794 2130.28 135.909 L2130.3 140.284 Z" fill="#000000" fill-rule="evenodd" fill-opacity="1" /><path clip-path="url(#clip830)" d="M2146.55 149.196 Q2141.39 149.196 2139.4 150.377 Q2137.41 151.557 2137.41 154.405 Q2137.41 156.673 2138.89 158.016 Q2140.4 159.335 2142.97 159.335 Q2146.51 159.335 2148.64 156.835 Q2150.79 154.312 2150.79 150.145 L2150.79 149.196 L2146.55 149.196 M2155.05 147.437 L2155.05 162.229 L2150.79 162.229 L2150.79 158.293 Q2149.33 160.655 2147.16 161.789 Q2144.98 162.9 2141.83 162.9 Q2137.85 162.9 2135.49 160.678 Q2133.15 158.432 2133.15 154.682 Q2133.15 150.307 2136.07 148.085 Q2139.01 145.863 2144.82 145.863 L2150.79 145.863 L2150.79 145.446 Q2150.79 142.507 2148.84 140.909 Q2146.92 139.289 2143.43 139.289 Q2141.21 139.289 2139.1 139.821 Q2136.99 140.354 2135.05 141.419 L2135.05 137.483 Q2137.39 136.581 2139.59 136.141 Q2141.78 135.678 2143.87 135.678 Q2149.49 135.678 2152.27 138.594 Q2155.05 141.511 2155.05 147.437 Z" fill="#000000" fill-rule="evenodd" fill-opacity="1" /><path clip-path="url(#clip830)" d="M2185.37 146.581 L2185.37 162.229 L2181.11 162.229 L2181.11 146.719 Q2181.11 143.039 2179.68 141.21 Q2178.24 139.382 2175.37 139.382 Q2171.92 139.382 2169.93 141.581 Q2167.94 143.78 2167.94 147.576 L2167.94 162.229 L2163.66 162.229 L2163.66 136.303 L2167.94 136.303 L2167.94 140.331 Q2169.47 137.993 2171.53 136.835 Q2173.61 135.678 2176.32 135.678 Q2180.79 135.678 2183.08 138.456 Q2185.37 141.21 2185.37 146.581 Z" fill="#000000" fill-rule="evenodd" fill-opacity="1" /><path clip-path="url(#clip830)" d="M2193.71 126.21 L2197.99 126.21 L2197.99 147.483 L2210.7 136.303 L2216.14 136.303 L2202.39 148.432 L2216.71 162.229 L2211.16 162.229 L2197.99 149.567 L2197.99 162.229 L2193.71 162.229 L2193.71 126.21 Z" fill="#000000" fill-rule="evenodd" fill-opacity="1" /><path clip-path="url(#clip830)" d="M2237.8 158.293 L2245.44 158.293 L2245.44 131.928 L2237.13 133.595 L2237.13 129.335 L2245.4 127.669 L2250.07 127.669 L2250.07 158.293 L2257.71 158.293 L2257.71 162.229 L2237.8 162.229 L2237.8 158.293 Z" fill="#000000" fill-rule="evenodd" fill-opacity="1" /><polyline clip-path="url(#clip830)" style="stroke:#00a9ad; stroke-linecap:round; stroke-linejoin:round; stroke-width:4; stroke-opacity:1; fill:none" points="1951.79,196.789 2091.78,196.789 "/>
<path clip-path="url(#clip830)" d="M2130.3 192.124 Q2129.59 191.708 2128.73 191.522 Q2127.9 191.314 2126.88 191.314 Q2123.27 191.314 2121.32 193.675 Q2119.4 196.013 2119.4 200.411 L2119.4 214.069 L2115.12 214.069 L2115.12 188.143 L2119.4 188.143 L2119.4 192.171 Q2120.74 189.809 2122.9 188.675 Q2125.05 187.518 2128.13 187.518 Q2128.57 187.518 2129.1 187.587 Q2129.63 187.634 2130.28 187.749 L2130.3 192.124 Z" fill="#000000" fill-rule="evenodd" fill-opacity="1" /><path clip-path="url(#clip830)" d="M2146.55 201.036 Q2141.39 201.036 2139.4 202.217 Q2137.41 203.397 2137.41 206.245 Q2137.41 208.513 2138.89 209.856 Q2140.4 211.175 2142.97 211.175 Q2146.51 211.175 2148.64 208.675 Q2150.79 206.152 2150.79 201.985 L2150.79 201.036 L2146.55 201.036 M2155.05 199.277 L2155.05 214.069 L2150.79 214.069 L2150.79 210.133 Q2149.33 212.495 2147.16 213.629 Q2144.98 214.74 2141.83 214.74 Q2137.85 214.74 2135.49 212.518 Q2133.15 210.272 2133.15 206.522 Q2133.15 202.147 2136.07 199.925 Q2139.01 197.703 2144.82 197.703 L2150.79 197.703 L2150.79 197.286 Q2150.79 194.347 2148.84 192.749 Q2146.92 191.129 2143.43 191.129 Q2141.21 191.129 2139.1 191.661 Q2136.99 192.194 2135.05 193.259 L2135.05 189.323 Q2137.39 188.421 2139.59 187.981 Q2141.78 187.518 2143.87 187.518 Q2149.49 187.518 2152.27 190.434 Q2155.05 193.351 2155.05 199.277 Z" fill="#000000" fill-rule="evenodd" fill-opacity="1" /><path clip-path="url(#clip830)" d="M2185.37 198.421 L2185.37 214.069 L2181.11 214.069 L2181.11 198.559 Q2181.11 194.879 2179.68 193.05 Q2178.24 191.222 2175.37 191.222 Q2171.92 191.222 2169.93 193.421 Q2167.94 195.62 2167.94 199.416 L2167.94 214.069 L2163.66 214.069 L2163.66 188.143 L2167.94 188.143 L2167.94 192.171 Q2169.47 189.833 2171.53 188.675 Q2173.61 187.518 2176.32 187.518 Q2180.79 187.518 2183.08 190.296 Q2185.37 193.05 2185.37 198.421 Z" fill="#000000" fill-rule="evenodd" fill-opacity="1" /><path clip-path="url(#clip830)" d="M2193.71 178.05 L2197.99 178.05 L2197.99 199.323 L2210.7 188.143 L2216.14 188.143 L2202.39 200.272 L2216.71 214.069 L2211.16 214.069 L2197.99 201.407 L2197.99 214.069 L2193.71 214.069 L2193.71 178.05 Z" fill="#000000" fill-rule="evenodd" fill-opacity="1" /><path clip-path="url(#clip830)" d="M2241.02 210.133 L2257.34 210.133 L2257.34 214.069 L2235.4 214.069 L2235.4 210.133 Q2238.06 207.379 2242.64 202.749 Q2247.25 198.096 2248.43 196.754 Q2250.67 194.231 2251.55 192.495 Q2252.46 190.735 2252.46 189.046 Q2252.46 186.291 2250.51 184.555 Q2248.59 182.819 2245.49 182.819 Q2243.29 182.819 2240.84 183.583 Q2238.4 184.347 2235.63 185.897 L2235.63 181.175 Q2238.45 180.041 2240.9 179.462 Q2243.36 178.884 2245.4 178.884 Q2250.77 178.884 2253.96 181.569 Q2257.15 184.254 2257.15 188.745 Q2257.15 190.874 2256.34 192.796 Q2255.56 194.694 2253.45 197.286 Q2252.87 197.958 2249.77 201.175 Q2246.67 204.37 2241.02 210.133 Z" fill="#000000" fill-rule="evenodd" fill-opacity="1" /><polyline clip-path="url(#clip830)" style="stroke:#ed5d92; stroke-linecap:round; stroke-linejoin:round; stroke-width:4; stroke-opacity:1; fill:none" points="1951.79,248.629 2091.78,248.629 "/>
<path clip-path="url(#clip830)" d="M2130.3 243.964 Q2129.59 243.548 2128.73 243.362 Q2127.9 243.154 2126.88 243.154 Q2123.27 243.154 2121.32 245.515 Q2119.4 247.853 2119.4 252.251 L2119.4 265.909 L2115.12 265.909 L2115.12 239.983 L2119.4 239.983 L2119.4 244.011 Q2120.74 241.649 2122.9 240.515 Q2125.05 239.358 2128.13 239.358 Q2128.57 239.358 2129.1 239.427 Q2129.63 239.474 2130.28 239.589 L2130.3 243.964 Z" fill="#000000" fill-rule="evenodd" fill-opacity="1" /><path clip-path="url(#clip830)" d="M2146.55 252.876 Q2141.39 252.876 2139.4 254.057 Q2137.41 255.237 2137.41 258.085 Q2137.41 260.353 2138.89 261.696 Q2140.4 263.015 2142.97 263.015 Q2146.51 263.015 2148.64 260.515 Q2150.79 257.992 2150.79 253.825 L2150.79 252.876 L2146.55 252.876 M2155.05 251.117 L2155.05 265.909 L2150.79 265.909 L2150.79 261.973 Q2149.33 264.335 2147.16 265.469 Q2144.98 266.58 2141.83 266.58 Q2137.85 266.58 2135.49 264.358 Q2133.15 262.112 2133.15 258.362 Q2133.15 253.987 2136.07 251.765 Q2139.01 249.543 2144.82 249.543 L2150.79 249.543 L2150.79 249.126 Q2150.79 246.187 2148.84 244.589 Q2146.92 242.969 2143.43 242.969 Q2141.21 242.969 2139.1 243.501 Q2136.99 244.034 2135.05 245.099 L2135.05 241.163 Q2137.39 240.261 2139.59 239.821 Q2141.78 239.358 2143.87 239.358 Q2149.49 239.358 2152.27 242.274 Q2155.05 245.191 2155.05 251.117 Z" fill="#000000" fill-rule="evenodd" fill-opacity="1" /><path clip-path="url(#clip830)" d="M2185.37 250.261 L2185.37 265.909 L2181.11 265.909 L2181.11 250.399 Q2181.11 246.719 2179.68 244.89 Q2178.24 243.062 2175.37 243.062 Q2171.92 243.062 2169.93 245.261 Q2167.94 247.46 2167.94 251.256 L2167.94 265.909 L2163.66 265.909 L2163.66 239.983 L2167.94 239.983 L2167.94 244.011 Q2169.47 241.673 2171.53 240.515 Q2173.61 239.358 2176.32 239.358 Q2180.79 239.358 2183.08 242.136 Q2185.37 244.89 2185.37 250.261 Z" fill="#000000" fill-rule="evenodd" fill-opacity="1" /><path clip-path="url(#clip830)" d="M2193.71 229.89 L2197.99 229.89 L2197.99 251.163 L2210.7 239.983 L2216.14 239.983 L2202.39 252.112 L2216.71 265.909 L2211.16 265.909 L2197.99 253.247 L2197.99 265.909 L2193.71 265.909 L2193.71 229.89 Z" fill="#000000" fill-rule="evenodd" fill-opacity="1" /><path clip-path="url(#clip830)" d="M2251.16 247.274 Q2254.52 247.992 2256.39 250.261 Q2258.29 252.529 2258.29 255.862 Q2258.29 260.978 2254.77 263.779 Q2251.25 266.58 2244.77 266.58 Q2242.59 266.58 2240.28 266.14 Q2237.99 265.723 2235.53 264.867 L2235.53 260.353 Q2237.48 261.487 2239.79 262.066 Q2242.11 262.645 2244.63 262.645 Q2249.03 262.645 2251.32 260.909 Q2253.64 259.173 2253.64 255.862 Q2253.64 252.807 2251.48 251.094 Q2249.35 249.358 2245.53 249.358 L2241.51 249.358 L2241.51 245.515 L2245.72 245.515 Q2249.17 245.515 2251 244.149 Q2252.83 242.761 2252.83 240.168 Q2252.83 237.506 2250.93 236.094 Q2249.05 234.659 2245.53 234.659 Q2243.61 234.659 2241.41 235.075 Q2239.21 235.492 2236.58 236.372 L2236.58 232.205 Q2239.24 231.464 2241.55 231.094 Q2243.89 230.724 2245.95 230.724 Q2251.27 230.724 2254.38 233.154 Q2257.48 235.562 2257.48 239.682 Q2257.48 242.552 2255.83 244.543 Q2254.19 246.511 2251.16 247.274 Z" fill="#000000" fill-rule="evenodd" fill-opacity="1" /><polyline clip-path="url(#clip830)" style="stroke:#c68125; stroke-linecap:round; stroke-linejoin:round; stroke-width:4; stroke-opacity:1; fill:none" points="1951.79,300.469 2091.78,300.469 "/>
<path clip-path="url(#clip830)" d="M2130.3 295.804 Q2129.59 295.388 2128.73 295.202 Q2127.9 294.994 2126.88 294.994 Q2123.27 294.994 2121.32 297.355 Q2119.4 299.693 2119.4 304.091 L2119.4 317.749 L2115.12 317.749 L2115.12 291.823 L2119.4 291.823 L2119.4 295.851 Q2120.74 293.489 2122.9 292.355 Q2125.05 291.198 2128.13 291.198 Q2128.57 291.198 2129.1 291.267 Q2129.63 291.314 2130.28 291.429 L2130.3 295.804 Z" fill="#000000" fill-rule="evenodd" fill-opacity="1" /><path clip-path="url(#clip830)" d="M2146.55 304.716 Q2141.39 304.716 2139.4 305.897 Q2137.41 307.077 2137.41 309.925 Q2137.41 312.193 2138.89 313.536 Q2140.4 314.855 2142.97 314.855 Q2146.51 314.855 2148.64 312.355 Q2150.79 309.832 2150.79 305.665 L2150.79 304.716 L2146.55 304.716 M2155.05 302.957 L2155.05 317.749 L2150.79 317.749 L2150.79 313.813 Q2149.33 316.175 2147.16 317.309 Q2144.98 318.42 2141.83 318.42 Q2137.85 318.42 2135.49 316.198 Q2133.15 313.952 2133.15 310.202 Q2133.15 305.827 2136.07 303.605 Q2139.01 301.383 2144.82 301.383 L2150.79 301.383 L2150.79 300.966 Q2150.79 298.027 2148.84 296.429 Q2146.92 294.809 2143.43 294.809 Q2141.21 294.809 2139.1 295.341 Q2136.99 295.874 2135.05 296.939 L2135.05 293.003 Q2137.39 292.101 2139.59 291.661 Q2141.78 291.198 2143.87 291.198 Q2149.49 291.198 2152.27 294.114 Q2155.05 297.031 2155.05 302.957 Z" fill="#000000" fill-rule="evenodd" fill-opacity="1" /><path clip-path="url(#clip830)" d="M2185.37 302.101 L2185.37 317.749 L2181.11 317.749 L2181.11 302.239 Q2181.11 298.559 2179.68 296.73 Q2178.24 294.902 2175.37 294.902 Q2171.92 294.902 2169.93 297.101 Q2167.94 299.3 2167.94 303.096 L2167.94 317.749 L2163.66 317.749 L2163.66 291.823 L2167.94 291.823 L2167.94 295.851 Q2169.47 293.513 2171.53 292.355 Q2173.61 291.198 2176.32 291.198 Q2180.79 291.198 2183.08 293.976 Q2185.37 296.73 2185.37 302.101 Z" fill="#000000" fill-rule="evenodd" fill-opacity="1" /><path clip-path="url(#clip830)" d="M2193.71 281.73 L2197.99 281.73 L2197.99 303.003 L2210.7 291.823 L2216.14 291.823 L2202.39 303.952 L2216.71 317.749 L2211.16 317.749 L2197.99 305.087 L2197.99 317.749 L2193.71 317.749 L2193.71 281.73 Z" fill="#000000" fill-rule="evenodd" fill-opacity="1" /><path clip-path="url(#clip830)" d="M2249.84 287.263 L2238.03 305.712 L2249.84 305.712 L2249.84 287.263 M2248.61 283.189 L2254.49 283.189 L2254.49 305.712 L2259.42 305.712 L2259.42 309.601 L2254.49 309.601 L2254.49 317.749 L2249.84 317.749 L2249.84 309.601 L2234.24 309.601 L2234.24 305.087 L2248.61 283.189 Z" fill="#000000" fill-rule="evenodd" fill-opacity="1" /><polyline clip-path="url(#clip830)" style="stroke:#00a98d; stroke-linecap:round; stroke-linejoin:round; stroke-width:4; stroke-opacity:1; fill:none" points="1951.79,352.309 2091.78,352.309 "/>
<path clip-path="url(#clip830)" d="M2130.3 347.644 Q2129.59 347.228 2128.73 347.042 Q2127.9 346.834 2126.88 346.834 Q2123.27 346.834 2121.32 349.195 Q2119.4 351.533 2119.4 355.931 L2119.4 369.589 L2115.12 369.589 L2115.12 343.663 L2119.4 343.663 L2119.4 347.691 Q2120.74 345.329 2122.9 344.195 Q2125.05 343.038 2128.13 343.038 Q2128.57 343.038 2129.1 343.107 Q2129.63 343.154 2130.28 343.269 L2130.3 347.644 Z" fill="#000000" fill-rule="evenodd" fill-opacity="1" /><path clip-path="url(#clip830)" d="M2146.55 356.556 Q2141.39 356.556 2139.4 357.737 Q2137.41 358.917 2137.41 361.765 Q2137.41 364.033 2138.89 365.376 Q2140.4 366.695 2142.97 366.695 Q2146.51 366.695 2148.64 364.195 Q2150.79 361.672 2150.79 357.505 L2150.79 356.556 L2146.55 356.556 M2155.05 354.797 L2155.05 369.589 L2150.79 369.589 L2150.79 365.653 Q2149.33 368.015 2147.16 369.149 Q2144.98 370.26 2141.83 370.26 Q2137.85 370.26 2135.49 368.038 Q2133.15 365.792 2133.15 362.042 Q2133.15 357.667 2136.07 355.445 Q2139.01 353.223 2144.82 353.223 L2150.79 353.223 L2150.79 352.806 Q2150.79 349.867 2148.84 348.269 Q2146.92 346.649 2143.43 346.649 Q2141.21 346.649 2139.1 347.181 Q2136.99 347.714 2135.05 348.779 L2135.05 344.843 Q2137.39 343.941 2139.59 343.501 Q2141.78 343.038 2143.87 343.038 Q2149.49 343.038 2152.27 345.954 Q2155.05 348.871 2155.05 354.797 Z" fill="#000000" fill-rule="evenodd" fill-opacity="1" /><path clip-path="url(#clip830)" d="M2185.37 353.941 L2185.37 369.589 L2181.11 369.589 L2181.11 354.079 Q2181.11 350.399 2179.68 348.57 Q2178.24 346.742 2175.37 346.742 Q2171.92 346.742 2169.93 348.941 Q2167.94 351.14 2167.94 354.936 L2167.94 369.589 L2163.66 369.589 L2163.66 343.663 L2167.94 343.663 L2167.94 347.691 Q2169.47 345.353 2171.53 344.195 Q2173.61 343.038 2176.32 343.038 Q2180.79 343.038 2183.08 345.816 Q2185.37 348.57 2185.37 353.941 Z" fill="#000000" fill-rule="evenodd" fill-opacity="1" /><path clip-path="url(#clip830)" d="M2193.71 333.57 L2197.99 333.57 L2197.99 354.843 L2210.7 343.663 L2216.14 343.663 L2202.39 355.792 L2216.71 369.589 L2211.16 369.589 L2197.99 356.927 L2197.99 369.589 L2193.71 369.589 L2193.71 333.57 Z" fill="#000000" fill-rule="evenodd" fill-opacity="1" /><path clip-path="url(#clip830)" d="M2237.04 335.029 L2255.4 335.029 L2255.4 338.964 L2241.32 338.964 L2241.32 347.436 Q2242.34 347.089 2243.36 346.927 Q2244.38 346.742 2245.4 346.742 Q2251.18 346.742 2254.56 349.913 Q2257.94 353.084 2257.94 358.501 Q2257.94 364.079 2254.47 367.181 Q2251 370.26 2244.68 370.26 Q2242.5 370.26 2240.23 369.89 Q2237.99 369.519 2235.58 368.778 L2235.58 364.079 Q2237.66 365.214 2239.89 365.769 Q2242.11 366.325 2244.59 366.325 Q2248.59 366.325 2250.93 364.218 Q2253.27 362.112 2253.27 358.501 Q2253.27 354.89 2250.93 352.783 Q2248.59 350.677 2244.59 350.677 Q2242.71 350.677 2240.84 351.093 Q2238.98 351.51 2237.04 352.39 L2237.04 335.029 Z" fill="#000000" fill-rule="evenodd" fill-opacity="1" /></svg>
