<?xml version="1.0" encoding="utf-8"?>
<svg xmlns="http://www.w3.org/2000/svg" xmlns:xlink="http://www.w3.org/1999/xlink" width="600" height="400" viewBox="0 0 2400 1600">
<defs>
  <clipPath id="clip430">
    <rect x="0" y="0" width="2400" height="1600"/>
  </clipPath>
</defs>
<path clip-path="url(#clip430)" d="M0 1600 L2400 1600 L2400 0 L0 0  Z" fill="#ffffff" fill-rule="evenodd" fill-opacity="1"/>
<defs>
  <clipPath id="clip431">
    <rect x="480" y="0" width="1681" height="1600"/>
  </clipPath>
</defs>
<defs>
  <clipPath id="clip432">
    <rect x="252" y="47" width="2101" height="1440"/>
  </clipPath>
</defs>
<path clip-path="url(#clip430)" d="M250.028 1423.18 L2352.76 1423.18 L2352.76 47.2441 L250.028 47.2441  Z" fill="#ffffff" fill-rule="evenodd" fill-opacity="1"/>
<defs>
  <clipPath id="clip433">
    <rect x="250" y="47" width="2104" height="1377"/>
  </clipPath>
</defs>
<polyline clip-path="url(#clip433)" style="stroke:#000000; stroke-linecap:round; stroke-linejoin:round; stroke-width:2; stroke-opacity:0.1; fill:none" points="250.028,1423.18 250.028,47.2441 "/>
<polyline clip-path="url(#clip433)" style="stroke:#000000; stroke-linecap:round; stroke-linejoin:round; stroke-width:2; stroke-opacity:0.1; fill:none" points="775.71,1423.18 775.71,47.2441 "/>
<polyline clip-path="url(#clip433)" style="stroke:#000000; stroke-linecap:round; stroke-linejoin:round; stroke-width:2; stroke-opacity:0.1; fill:none" points="1301.39,1423.18 1301.39,47.2441 "/>
<polyline clip-path="url(#clip433)" style="stroke:#000000; stroke-linecap:round; stroke-linejoin:round; stroke-width:2; stroke-opacity:0.1; fill:none" points="1827.07,1423.18 1827.07,47.2441 "/>
<polyline clip-path="url(#clip433)" style="stroke:#000000; stroke-linecap:round; stroke-linejoin:round; stroke-width:2; stroke-opacity:0.1; fill:none" points="2352.76,1423.18 2352.76,47.2441 "/>
<polyline clip-path="url(#clip430)" style="stroke:#000000; stroke-linecap:round; stroke-linejoin:round; stroke-width:4; stroke-opacity:1; fill:none" points="250.028,1423.18 2352.76,1423.18 "/>
<polyline clip-path="url(#clip430)" style="stroke:#000000; stroke-linecap:round; stroke-linejoin:round; stroke-width:4; stroke-opacity:1; fill:none" points="250.028,1423.18 250.028,1404.28 "/>
<polyline clip-path="url(#clip430)" style="stroke:#000000; stroke-linecap:round; stroke-linejoin:round; stroke-width:4; stroke-opacity:1; fill:none" points="775.71,1423.18 775.71,1404.28 "/>
<polyline clip-path="url(#clip430)" style="stroke:#000000; stroke-linecap:round; stroke-linejoin:round; stroke-width:4; stroke-opacity:1; fill:none" points="1301.39,1423.18 1301.39,1404.28 "/>
<polyline clip-path="url(#clip430)" style="stroke:#000000; stroke-linecap:round; stroke-linejoin:round; stroke-width:4; stroke-opacity:1; fill:none" points="1827.07,1423.18 1827.07,1404.28 "/>
<polyline clip-path="url(#clip430)" style="stroke:#000000; stroke-linecap:round; stroke-linejoin:round; stroke-width:4; stroke-opacity:1; fill:none" points="2352.76,1423.18 2352.76,1404.28 "/>
<path clip-path="url(#clip430)" d="M240.41 1481.64 L248.049 1481.64 L248.049 1455.28 L239.739 1456.95 L239.739 1452.69 L248.003 1451.02 L252.679 1451.02 L252.679 1481.64 L260.317 1481.64 L260.317 1485.58 L240.41 1485.58 L240.41 1481.64 Z" fill="#000000" fill-rule="evenodd" fill-opacity="1" /><path clip-path="url(#clip430)" d="M770.363 1481.64 L786.682 1481.64 L786.682 1485.58 L764.738 1485.58 L764.738 1481.64 Q767.4 1478.89 771.983 1474.26 Q776.59 1469.61 777.77 1468.27 Q780.016 1465.74 780.895 1464.01 Q781.798 1462.25 781.798 1460.56 Q781.798 1457.8 779.854 1456.07 Q777.932 1454.33 774.83 1454.33 Q772.631 1454.33 770.178 1455.09 Q767.747 1455.86 764.969 1457.41 L764.969 1452.69 Q767.793 1451.55 770.247 1450.97 Q772.701 1450.39 774.738 1450.39 Q780.108 1450.39 783.303 1453.08 Q786.497 1455.77 786.497 1460.26 Q786.497 1462.39 785.687 1464.31 Q784.9 1466.2 782.793 1468.8 Q782.215 1469.47 779.113 1472.69 Q776.011 1475.88 770.363 1481.64 Z" fill="#000000" fill-rule="evenodd" fill-opacity="1" /><path clip-path="url(#clip430)" d="M1305.64 1466.95 Q1309 1467.66 1310.87 1469.93 Q1312.77 1472.2 1312.77 1475.53 Q1312.77 1480.65 1309.25 1483.45 Q1305.73 1486.25 1299.25 1486.25 Q1297.07 1486.25 1294.76 1485.81 Q1292.47 1485.39 1290.01 1484.54 L1290.01 1480.02 Q1291.96 1481.16 1294.27 1481.74 Q1296.59 1482.32 1299.11 1482.32 Q1303.51 1482.32 1305.8 1480.58 Q1308.12 1478.84 1308.12 1475.53 Q1308.12 1472.48 1305.96 1470.77 Q1303.83 1469.03 1300.01 1469.03 L1295.99 1469.03 L1295.99 1465.19 L1300.2 1465.19 Q1303.65 1465.19 1305.48 1463.82 Q1307.31 1462.43 1307.31 1459.84 Q1307.31 1457.18 1305.41 1455.77 Q1303.53 1454.33 1300.01 1454.33 Q1298.09 1454.33 1295.89 1454.75 Q1293.7 1455.16 1291.06 1456.04 L1291.06 1451.88 Q1293.72 1451.14 1296.03 1450.77 Q1298.37 1450.39 1300.43 1450.39 Q1305.76 1450.39 1308.86 1452.83 Q1311.96 1455.23 1311.96 1459.35 Q1311.96 1462.22 1310.32 1464.21 Q1308.67 1466.18 1305.64 1466.95 Z" fill="#000000" fill-rule="evenodd" fill-opacity="1" /><path clip-path="url(#clip430)" d="M1830.08 1455.09 L1818.28 1473.54 L1830.08 1473.54 L1830.08 1455.09 M1828.86 1451.02 L1834.74 1451.02 L1834.74 1473.54 L1839.67 1473.54 L1839.67 1477.43 L1834.74 1477.43 L1834.74 1485.58 L1830.08 1485.58 L1830.08 1477.43 L1814.48 1477.43 L1814.48 1472.92 L1828.86 1451.02 Z" fill="#000000" fill-rule="evenodd" fill-opacity="1" /><path clip-path="url(#clip430)" d="M2343.03 1451.02 L2361.39 1451.02 L2361.39 1454.96 L2347.32 1454.96 L2347.32 1463.43 Q2348.33 1463.08 2349.35 1462.92 Q2350.37 1462.73 2351.39 1462.73 Q2357.18 1462.73 2360.56 1465.9 Q2363.94 1469.08 2363.94 1474.49 Q2363.94 1480.07 2360.46 1483.17 Q2356.99 1486.25 2350.67 1486.25 Q2348.5 1486.25 2346.23 1485.88 Q2343.98 1485.51 2341.58 1484.77 L2341.58 1480.07 Q2343.66 1481.2 2345.88 1481.76 Q2348.1 1482.32 2350.58 1482.32 Q2354.58 1482.32 2356.92 1480.21 Q2359.26 1478.1 2359.26 1474.49 Q2359.26 1470.88 2356.92 1468.77 Q2354.58 1466.67 2350.58 1466.67 Q2348.71 1466.67 2346.83 1467.08 Q2344.98 1467.5 2343.03 1468.38 L2343.03 1451.02 Z" fill="#000000" fill-rule="evenodd" fill-opacity="1" /><path clip-path="url(#clip430)" d="M1003.14 1550.12 Q996.045 1550.12 993.308 1551.75 Q990.57 1553.37 990.57 1557.29 Q990.57 1560.4 992.608 1562.25 Q994.676 1564.07 998.209 1564.07 Q1003.08 1564.07 1006.01 1560.63 Q1008.97 1557.16 1008.97 1551.43 L1008.97 1550.12 L1003.14 1550.12 M1014.82 1547.71 L1014.82 1568.04 L1008.97 1568.04 L1008.97 1562.63 Q1006.96 1565.88 1003.97 1567.44 Q1000.98 1568.97 996.65 1568.97 Q991.175 1568.97 987.929 1565.91 Q984.714 1562.82 984.714 1557.67 Q984.714 1551.65 988.724 1548.6 Q992.767 1545.54 1000.76 1545.54 L1008.97 1545.54 L1008.97 1544.97 Q1008.97 1540.93 1006.29 1538.73 Q1003.65 1536.5 998.846 1536.5 Q995.79 1536.5 992.894 1537.23 Q989.998 1537.97 987.324 1539.43 L987.324 1534.02 Q990.539 1532.78 993.562 1532.17 Q996.586 1531.54 999.451 1531.54 Q1007.18 1531.54 1011 1535.55 Q1014.82 1539.56 1014.82 1547.71 Z" fill="#000000" fill-rule="evenodd" fill-opacity="1" /><path clip-path="url(#clip430)" d="M1032.55 1562.7 L1032.55 1581.6 L1026.66 1581.6 L1026.66 1532.4 L1032.55 1532.4 L1032.55 1537.81 Q1034.4 1534.62 1037.2 1533.1 Q1040.03 1531.54 1043.95 1531.54 Q1050.44 1531.54 1054.48 1536.69 Q1058.56 1541.85 1058.56 1550.25 Q1058.56 1558.65 1054.48 1563.81 Q1050.44 1568.97 1043.95 1568.97 Q1040.03 1568.97 1037.2 1567.44 Q1034.4 1565.88 1032.55 1562.7 M1052.48 1550.25 Q1052.48 1543.79 1049.8 1540.13 Q1047.16 1536.44 1042.51 1536.44 Q1037.87 1536.44 1035.19 1540.13 Q1032.55 1543.79 1032.55 1550.25 Q1032.55 1556.71 1035.19 1560.4 Q1037.87 1564.07 1042.51 1564.07 Q1047.16 1564.07 1049.8 1560.4 Q1052.48 1556.71 1052.48 1550.25 Z" fill="#000000" fill-rule="evenodd" fill-opacity="1" /><path clip-path="url(#clip430)" d="M1073.93 1562.7 L1073.93 1581.6 L1068.04 1581.6 L1068.04 1532.4 L1073.93 1532.4 L1073.93 1537.81 Q1075.78 1534.62 1078.58 1533.1 Q1081.41 1531.54 1085.32 1531.54 Q1091.82 1531.54 1095.86 1536.69 Q1099.93 1541.85 1099.93 1550.25 Q1099.93 1558.65 1095.86 1563.81 Q1091.82 1568.97 1085.32 1568.97 Q1081.41 1568.97 1078.58 1567.44 Q1075.78 1565.88 1073.93 1562.7 M1093.85 1550.25 Q1093.85 1543.79 1091.18 1540.13 Q1088.54 1536.44 1083.89 1536.44 Q1079.24 1536.44 1076.57 1540.13 Q1073.93 1543.79 1073.93 1550.25 Q1073.93 1556.71 1076.57 1560.4 Q1079.24 1564.07 1083.89 1564.07 Q1088.54 1564.07 1091.18 1560.4 Q1093.85 1556.71 1093.85 1550.25 Z" fill="#000000" fill-rule="evenodd" fill-opacity="1" /><path clip-path="url(#clip430)" d="M1130.3 1537.87 Q1129.31 1537.3 1128.13 1537.04 Q1126.99 1536.76 1125.59 1536.76 Q1120.62 1536.76 1117.95 1540 Q1115.31 1543.22 1115.31 1549.27 L1115.31 1568.04 L1109.42 1568.04 L1109.42 1532.4 L1115.31 1532.4 L1115.31 1537.93 Q1117.15 1534.69 1120.11 1533.13 Q1123.07 1531.54 1127.31 1531.54 Q1127.91 1531.54 1128.64 1531.63 Q1129.37 1531.7 1130.27 1531.85 L1130.3 1537.87 Z" fill="#000000" fill-rule="evenodd" fill-opacity="1" /><path clip-path="url(#clip430)" d="M1148.82 1536.5 Q1144.11 1536.5 1141.37 1540.19 Q1138.64 1543.85 1138.64 1550.25 Q1138.64 1556.65 1141.34 1560.34 Q1144.08 1564 1148.82 1564 Q1153.5 1564 1156.24 1560.31 Q1158.98 1556.62 1158.98 1550.25 Q1158.98 1543.92 1156.24 1540.23 Q1153.5 1536.5 1148.82 1536.5 M1148.82 1531.54 Q1156.46 1531.54 1160.82 1536.5 Q1165.18 1541.47 1165.18 1550.25 Q1165.18 1559 1160.82 1564 Q1156.46 1568.97 1148.82 1568.97 Q1141.15 1568.97 1136.79 1564 Q1132.46 1559 1132.46 1550.25 Q1132.46 1541.47 1136.79 1536.5 Q1141.15 1531.54 1148.82 1531.54 Z" fill="#000000" fill-rule="evenodd" fill-opacity="1" /><path clip-path="url(#clip430)" d="M1202.52 1532.4 L1189.63 1549.74 L1203.19 1568.04 L1196.28 1568.04 L1185.9 1554.04 L1175.53 1568.04 L1168.62 1568.04 L1182.46 1549.39 L1169.8 1532.4 L1176.7 1532.4 L1186.16 1545.1 L1195.61 1532.4 L1202.52 1532.4 Z" fill="#000000" fill-rule="evenodd" fill-opacity="1" /><path clip-path="url(#clip430)" d="M1211.46 1532.4 L1217.32 1532.4 L1217.32 1568.04 L1211.46 1568.04 L1211.46 1532.4 M1211.46 1518.52 L1217.32 1518.52 L1217.32 1525.93 L1211.46 1525.93 L1211.46 1518.52 Z" fill="#000000" fill-rule="evenodd" fill-opacity="1" /><path clip-path="url(#clip430)" d="M1257.33 1539.24 Q1259.52 1535.29 1262.58 1533.41 Q1265.63 1531.54 1269.77 1531.54 Q1275.34 1531.54 1278.36 1535.45 Q1281.39 1539.33 1281.39 1546.53 L1281.39 1568.04 L1275.5 1568.04 L1275.5 1546.72 Q1275.5 1541.59 1273.69 1539.11 Q1271.87 1536.63 1268.15 1536.63 Q1263.6 1536.63 1260.95 1539.65 Q1258.31 1542.68 1258.31 1547.9 L1258.31 1568.04 L1252.42 1568.04 L1252.42 1546.72 Q1252.42 1541.56 1250.61 1539.11 Q1248.8 1536.63 1245.01 1536.63 Q1240.52 1536.63 1237.88 1539.68 Q1235.24 1542.71 1235.24 1547.9 L1235.24 1568.04 L1229.35 1568.04 L1229.35 1532.4 L1235.24 1532.4 L1235.24 1537.93 Q1237.24 1534.66 1240.04 1533.1 Q1242.84 1531.54 1246.69 1531.54 Q1250.58 1531.54 1253.28 1533.51 Q1256.02 1535.48 1257.33 1539.24 Z" fill="#000000" fill-rule="evenodd" fill-opacity="1" /><path clip-path="url(#clip430)" d="M1309.27 1550.12 Q1302.17 1550.12 1299.43 1551.75 Q1296.7 1553.37 1296.7 1557.29 Q1296.7 1560.4 1298.73 1562.25 Q1300.8 1564.07 1304.34 1564.07 Q1309.21 1564.07 1312.13 1560.63 Q1315.09 1557.16 1315.09 1551.43 L1315.09 1550.12 L1309.27 1550.12 M1320.95 1547.71 L1320.95 1568.04 L1315.09 1568.04 L1315.09 1562.63 Q1313.09 1565.88 1310.1 1567.44 Q1307.11 1568.97 1302.78 1568.97 Q1297.3 1568.97 1294.06 1565.91 Q1290.84 1562.82 1290.84 1557.67 Q1290.84 1551.65 1294.85 1548.6 Q1298.89 1545.54 1306.88 1545.54 L1315.09 1545.54 L1315.09 1544.97 Q1315.09 1540.93 1312.42 1538.73 Q1309.78 1536.5 1304.97 1536.5 Q1301.92 1536.5 1299.02 1537.23 Q1296.12 1537.97 1293.45 1539.43 L1293.45 1534.02 Q1296.67 1532.78 1299.69 1532.17 Q1302.71 1531.54 1305.58 1531.54 Q1313.31 1531.54 1317.13 1535.55 Q1320.95 1539.56 1320.95 1547.71 Z" fill="#000000" fill-rule="evenodd" fill-opacity="1" /><path clip-path="url(#clip430)" d="M1338.81 1522.27 L1338.81 1532.4 L1350.87 1532.4 L1350.87 1536.95 L1338.81 1536.95 L1338.81 1556.3 Q1338.81 1560.66 1339.98 1561.9 Q1341.19 1563.14 1344.85 1563.14 L1350.87 1563.14 L1350.87 1568.04 L1344.85 1568.04 Q1338.07 1568.04 1335.5 1565.53 Q1332.92 1562.98 1332.92 1556.3 L1332.92 1536.95 L1328.62 1536.95 L1328.62 1532.4 L1332.92 1532.4 L1332.92 1522.27 L1338.81 1522.27 Z" fill="#000000" fill-rule="evenodd" fill-opacity="1" /><path clip-path="url(#clip430)" d="M1358.57 1532.4 L1364.43 1532.4 L1364.43 1568.04 L1358.57 1568.04 L1358.57 1532.4 M1358.57 1518.52 L1364.43 1518.52 L1364.43 1525.93 L1358.57 1525.93 L1358.57 1518.52 Z" fill="#000000" fill-rule="evenodd" fill-opacity="1" /><path clip-path="url(#clip430)" d="M1390.5 1536.5 Q1385.79 1536.5 1383.05 1540.19 Q1380.31 1543.85 1380.31 1550.25 Q1380.31 1556.65 1383.02 1560.34 Q1385.75 1564 1390.5 1564 Q1395.17 1564 1397.91 1560.31 Q1400.65 1556.62 1400.65 1550.25 Q1400.65 1543.92 1397.91 1540.23 Q1395.17 1536.5 1390.5 1536.5 M1390.5 1531.54 Q1398.13 1531.54 1402.5 1536.5 Q1406.86 1541.47 1406.86 1550.25 Q1406.86 1559 1402.5 1564 Q1398.13 1568.97 1390.5 1568.97 Q1382.83 1568.97 1378.46 1564 Q1374.14 1559 1374.14 1550.25 Q1374.14 1541.47 1378.46 1536.5 Q1382.83 1531.54 1390.5 1531.54 Z" fill="#000000" fill-rule="evenodd" fill-opacity="1" /><path clip-path="url(#clip430)" d="M1446.2 1546.53 L1446.2 1568.04 L1440.34 1568.04 L1440.34 1546.72 Q1440.34 1541.66 1438.37 1539.14 Q1436.39 1536.63 1432.45 1536.63 Q1427.7 1536.63 1424.97 1539.65 Q1422.23 1542.68 1422.23 1547.9 L1422.23 1568.04 L1416.34 1568.04 L1416.34 1532.4 L1422.23 1532.4 L1422.23 1537.93 Q1424.33 1534.72 1427.16 1533.13 Q1430.03 1531.54 1433.75 1531.54 Q1439.89 1531.54 1443.04 1535.36 Q1446.2 1539.14 1446.2 1546.53 Z" fill="#000000" fill-rule="evenodd" fill-opacity="1" /><path clip-path="url(#clip430)" d="M1499.25 1537.87 Q1498.27 1537.3 1497.09 1537.04 Q1495.94 1536.76 1494.54 1536.76 Q1489.58 1536.76 1486.9 1540 Q1484.26 1543.22 1484.26 1549.27 L1484.26 1568.04 L1478.37 1568.04 L1478.37 1532.4 L1484.26 1532.4 L1484.26 1537.93 Q1486.11 1534.69 1489.07 1533.13 Q1492.03 1531.54 1496.26 1531.54 Q1496.87 1531.54 1497.6 1531.63 Q1498.33 1531.7 1499.22 1531.85 L1499.25 1537.87 Z" fill="#000000" fill-rule="evenodd" fill-opacity="1" /><path clip-path="url(#clip430)" d="M1521.6 1550.12 Q1514.5 1550.12 1511.76 1551.75 Q1509.03 1553.37 1509.03 1557.29 Q1509.03 1560.4 1511.06 1562.25 Q1513.13 1564.07 1516.66 1564.07 Q1521.53 1564.07 1524.46 1560.63 Q1527.42 1557.16 1527.42 1551.43 L1527.42 1550.12 L1521.6 1550.12 M1533.28 1547.71 L1533.28 1568.04 L1527.42 1568.04 L1527.42 1562.63 Q1525.42 1565.88 1522.43 1567.44 Q1519.43 1568.97 1515.1 1568.97 Q1509.63 1568.97 1506.38 1565.91 Q1503.17 1562.82 1503.17 1557.67 Q1503.17 1551.65 1507.18 1548.6 Q1511.22 1545.54 1519.21 1545.54 L1527.42 1545.54 L1527.42 1544.97 Q1527.42 1540.93 1524.75 1538.73 Q1522.11 1536.5 1517.3 1536.5 Q1514.25 1536.5 1511.35 1537.23 Q1508.45 1537.97 1505.78 1539.43 L1505.78 1534.02 Q1508.99 1532.78 1512.02 1532.17 Q1515.04 1531.54 1517.91 1531.54 Q1525.64 1531.54 1529.46 1535.55 Q1533.28 1539.56 1533.28 1547.71 Z" fill="#000000" fill-rule="evenodd" fill-opacity="1" /><path clip-path="url(#clip430)" d="M1574.97 1546.53 L1574.97 1568.04 L1569.12 1568.04 L1569.12 1546.72 Q1569.12 1541.66 1567.14 1539.14 Q1565.17 1536.63 1561.22 1536.63 Q1556.48 1536.63 1553.74 1539.65 Q1551.01 1542.68 1551.01 1547.9 L1551.01 1568.04 L1545.12 1568.04 L1545.12 1532.4 L1551.01 1532.4 L1551.01 1537.93 Q1553.11 1534.72 1555.94 1533.13 Q1558.81 1531.54 1562.53 1531.54 Q1568.67 1531.54 1571.82 1535.36 Q1574.97 1539.14 1574.97 1546.53 Z" fill="#000000" fill-rule="evenodd" fill-opacity="1" /><path clip-path="url(#clip430)" d="M1586.43 1518.52 L1592.32 1518.52 L1592.32 1547.77 L1609.79 1532.4 L1617.27 1532.4 L1598.37 1549.07 L1618.07 1568.04 L1610.43 1568.04 L1592.32 1550.63 L1592.32 1568.04 L1586.43 1568.04 L1586.43 1518.52 Z" fill="#000000" fill-rule="evenodd" fill-opacity="1" /><polyline clip-path="url(#clip433)" style="stroke:#000000; stroke-linecap:round; stroke-linejoin:round; stroke-width:2; stroke-opacity:0.1; fill:none" points="250.028,1384.65 2352.76,1384.65 "/>
<polyline clip-path="url(#clip433)" style="stroke:#000000; stroke-linecap:round; stroke-linejoin:round; stroke-width:2; stroke-opacity:0.1; fill:none" points="250.028,1085.41 2352.76,1085.41 "/>
<polyline clip-path="url(#clip433)" style="stroke:#000000; stroke-linecap:round; stroke-linejoin:round; stroke-width:2; stroke-opacity:0.1; fill:none" points="250.028,786.179 2352.76,786.179 "/>
<polyline clip-path="url(#clip433)" style="stroke:#000000; stroke-linecap:round; stroke-linejoin:round; stroke-width:2; stroke-opacity:0.1; fill:none" points="250.028,486.945 2352.76,486.945 "/>
<polyline clip-path="url(#clip433)" style="stroke:#000000; stroke-linecap:round; stroke-linejoin:round; stroke-width:2; stroke-opacity:0.1; fill:none" points="250.028,187.712 2352.76,187.712 "/>
<polyline clip-path="url(#clip430)" style="stroke:#000000; stroke-linecap:round; stroke-linejoin:round; stroke-width:4; stroke-opacity:1; fill:none" points="250.028,1423.18 250.028,47.2441 "/>
<polyline clip-path="url(#clip430)" style="stroke:#000000; stroke-linecap:round; stroke-linejoin:round; stroke-width:4; stroke-opacity:1; fill:none" points="250.028,1384.65 268.926,1384.65 "/>
<polyline clip-path="url(#clip430)" style="stroke:#000000; stroke-linecap:round; stroke-linejoin:round; stroke-width:4; stroke-opacity:1; fill:none" points="250.028,1085.41 268.926,1085.41 "/>
<polyline clip-path="url(#clip430)" style="stroke:#000000; stroke-linecap:round; stroke-linejoin:round; stroke-width:4; stroke-opacity:1; fill:none" points="250.028,786.179 268.926,786.179 "/>
<polyline clip-path="url(#clip430)" style="stroke:#000000; stroke-linecap:round; stroke-linejoin:round; stroke-width:4; stroke-opacity:1; fill:none" points="250.028,486.945 268.926,486.945 "/>
<polyline clip-path="url(#clip430)" style="stroke:#000000; stroke-linecap:round; stroke-linejoin:round; stroke-width:4; stroke-opacity:1; fill:none" points="250.028,187.712 268.926,187.712 "/>
<path clip-path="url(#clip430)" d="M126.691 1370.44 Q123.08 1370.44 121.251 1374.01 Q119.445 1377.55 119.445 1384.68 Q119.445 1391.79 121.251 1395.35 Q123.08 1398.89 126.691 1398.89 Q130.325 1398.89 132.13 1395.35 Q133.959 1391.79 133.959 1384.68 Q133.959 1377.55 132.13 1374.01 Q130.325 1370.44 126.691 1370.44 M126.691 1366.74 Q132.501 1366.74 135.556 1371.35 Q138.635 1375.93 138.635 1384.68 Q138.635 1393.41 135.556 1398.01 Q132.501 1402.6 126.691 1402.6 Q120.88 1402.6 117.802 1398.01 Q114.746 1393.41 114.746 1384.68 Q114.746 1375.93 117.802 1371.35 Q120.88 1366.74 126.691 1366.74 Z" fill="#000000" fill-rule="evenodd" fill-opacity="1" /><path clip-path="url(#clip430)" d="M146.853 1396.05 L151.737 1396.05 L151.737 1401.93 L146.853 1401.93 L146.853 1396.05 Z" fill="#000000" fill-rule="evenodd" fill-opacity="1" /><path clip-path="url(#clip430)" d="M171.922 1370.44 Q168.311 1370.44 166.482 1374.01 Q164.677 1377.55 164.677 1384.68 Q164.677 1391.79 166.482 1395.35 Q168.311 1398.89 171.922 1398.89 Q175.556 1398.89 177.362 1395.35 Q179.19 1391.79 179.19 1384.68 Q179.19 1377.55 177.362 1374.01 Q175.556 1370.44 171.922 1370.44 M171.922 1366.74 Q177.732 1366.74 180.788 1371.35 Q183.866 1375.93 183.866 1384.68 Q183.866 1393.41 180.788 1398.01 Q177.732 1402.6 171.922 1402.6 Q166.112 1402.6 163.033 1398.01 Q159.978 1393.41 159.978 1384.68 Q159.978 1375.93 163.033 1371.35 Q166.112 1366.74 171.922 1366.74 Z" fill="#000000" fill-rule="evenodd" fill-opacity="1" /><path clip-path="url(#clip430)" d="M202.084 1370.44 Q198.473 1370.44 196.644 1374.01 Q194.838 1377.55 194.838 1384.68 Q194.838 1391.79 196.644 1395.35 Q198.473 1398.89 202.084 1398.89 Q205.718 1398.89 207.524 1395.35 Q209.352 1391.79 209.352 1384.68 Q209.352 1377.55 207.524 1374.01 Q205.718 1370.44 202.084 1370.44 M202.084 1366.74 Q207.894 1366.74 210.949 1371.35 Q214.028 1375.93 214.028 1384.68 Q214.028 1393.41 210.949 1398.01 Q207.894 1402.6 202.084 1402.6 Q196.274 1402.6 193.195 1398.01 Q190.139 1393.41 190.139 1384.68 Q190.139 1375.93 193.195 1371.35 Q196.274 1366.74 202.084 1366.74 Z" fill="#000000" fill-rule="evenodd" fill-opacity="1" /><path clip-path="url(#clip430)" d="M127.917 1071.21 Q124.306 1071.21 122.478 1074.78 Q120.672 1078.32 120.672 1085.45 Q120.672 1092.55 122.478 1096.12 Q124.306 1099.66 127.917 1099.66 Q131.552 1099.66 133.357 1096.12 Q135.186 1092.55 135.186 1085.45 Q135.186 1078.32 133.357 1074.78 Q131.552 1071.21 127.917 1071.21 M127.917 1067.51 Q133.728 1067.51 136.783 1072.11 Q139.862 1076.7 139.862 1085.45 Q139.862 1094.17 136.783 1098.78 Q133.728 1103.36 127.917 1103.36 Q122.107 1103.36 119.029 1098.78 Q115.973 1094.17 115.973 1085.45 Q115.973 1076.7 119.029 1072.11 Q122.107 1067.51 127.917 1067.51 Z" fill="#000000" fill-rule="evenodd" fill-opacity="1" /><path clip-path="url(#clip430)" d="M148.079 1096.81 L152.964 1096.81 L152.964 1102.69 L148.079 1102.69 L148.079 1096.81 Z" fill="#000000" fill-rule="evenodd" fill-opacity="1" /><path clip-path="url(#clip430)" d="M173.149 1071.21 Q169.538 1071.21 167.709 1074.78 Q165.903 1078.32 165.903 1085.45 Q165.903 1092.55 167.709 1096.12 Q169.538 1099.66 173.149 1099.66 Q176.783 1099.66 178.589 1096.12 Q180.417 1092.55 180.417 1085.45 Q180.417 1078.32 178.589 1074.78 Q176.783 1071.21 173.149 1071.21 M173.149 1067.51 Q178.959 1067.51 182.014 1072.11 Q185.093 1076.7 185.093 1085.45 Q185.093 1094.17 182.014 1098.78 Q178.959 1103.36 173.149 1103.36 Q167.339 1103.36 164.26 1098.78 Q161.204 1094.17 161.204 1085.45 Q161.204 1076.7 164.26 1072.11 Q167.339 1067.51 173.149 1067.51 Z" fill="#000000" fill-rule="evenodd" fill-opacity="1" /><path clip-path="url(#clip430)" d="M194.121 1098.76 L201.76 1098.76 L201.76 1072.39 L193.45 1074.06 L193.45 1069.8 L201.713 1068.13 L206.389 1068.13 L206.389 1098.76 L214.028 1098.76 L214.028 1102.69 L194.121 1102.69 L194.121 1098.76 Z" fill="#000000" fill-rule="evenodd" fill-opacity="1" /><path clip-path="url(#clip430)" d="M128.288 771.977 Q124.677 771.977 122.848 775.542 Q121.043 779.084 121.043 786.214 Q121.043 793.32 122.848 796.885 Q124.677 800.426 128.288 800.426 Q131.922 800.426 133.728 796.885 Q135.556 793.32 135.556 786.214 Q135.556 779.084 133.728 775.542 Q131.922 771.977 128.288 771.977 M128.288 768.274 Q134.098 768.274 137.154 772.88 Q140.232 777.464 140.232 786.214 Q140.232 794.94 137.154 799.547 Q134.098 804.13 128.288 804.13 Q122.478 804.13 119.399 799.547 Q116.343 794.94 116.343 786.214 Q116.343 777.464 119.399 772.88 Q122.478 768.274 128.288 768.274 Z" fill="#000000" fill-rule="evenodd" fill-opacity="1" /><path clip-path="url(#clip430)" d="M148.45 797.579 L153.334 797.579 L153.334 803.459 L148.45 803.459 L148.45 797.579 Z" fill="#000000" fill-rule="evenodd" fill-opacity="1" /><path clip-path="url(#clip430)" d="M173.519 771.977 Q169.908 771.977 168.079 775.542 Q166.274 779.084 166.274 786.214 Q166.274 793.32 168.079 796.885 Q169.908 800.426 173.519 800.426 Q177.153 800.426 178.959 796.885 Q180.788 793.32 180.788 786.214 Q180.788 779.084 178.959 775.542 Q177.153 771.977 173.519 771.977 M173.519 768.274 Q179.329 768.274 182.385 772.88 Q185.463 777.464 185.463 786.214 Q185.463 794.94 182.385 799.547 Q179.329 804.13 173.519 804.13 Q167.709 804.13 164.63 799.547 Q161.575 794.94 161.575 786.214 Q161.575 777.464 164.63 772.88 Q167.709 768.274 173.519 768.274 Z" fill="#000000" fill-rule="evenodd" fill-opacity="1" /><path clip-path="url(#clip430)" d="M197.709 799.524 L214.028 799.524 L214.028 803.459 L192.084 803.459 L192.084 799.524 Q194.746 796.769 199.329 792.139 Q203.936 787.487 205.116 786.144 Q207.362 783.621 208.241 781.885 Q209.144 780.126 209.144 778.436 Q209.144 775.681 207.199 773.945 Q205.278 772.209 202.176 772.209 Q199.977 772.209 197.524 772.973 Q195.093 773.737 192.315 775.288 L192.315 770.565 Q195.139 769.431 197.593 768.853 Q200.047 768.274 202.084 768.274 Q207.454 768.274 210.649 770.959 Q213.843 773.644 213.843 778.135 Q213.843 780.264 213.033 782.186 Q212.246 784.084 210.139 786.676 Q209.561 787.348 206.459 790.565 Q203.357 793.76 197.709 799.524 Z" fill="#000000" fill-rule="evenodd" fill-opacity="1" /><path clip-path="url(#clip430)" d="M127.339 472.744 Q123.728 472.744 121.899 476.309 Q120.093 479.85 120.093 486.98 Q120.093 494.086 121.899 497.651 Q123.728 501.193 127.339 501.193 Q130.973 501.193 132.779 497.651 Q134.607 494.086 134.607 486.98 Q134.607 479.85 132.779 476.309 Q130.973 472.744 127.339 472.744 M127.339 469.04 Q133.149 469.04 136.204 473.647 Q139.283 478.23 139.283 486.98 Q139.283 495.707 136.204 500.313 Q133.149 504.897 127.339 504.897 Q121.529 504.897 118.45 500.313 Q115.394 495.707 115.394 486.98 Q115.394 478.23 118.45 473.647 Q121.529 469.04 127.339 469.04 Z" fill="#000000" fill-rule="evenodd" fill-opacity="1" /><path clip-path="url(#clip430)" d="M147.501 498.346 L152.385 498.346 L152.385 504.225 L147.501 504.225 L147.501 498.346 Z" fill="#000000" fill-rule="evenodd" fill-opacity="1" /><path clip-path="url(#clip430)" d="M172.57 472.744 Q168.959 472.744 167.13 476.309 Q165.325 479.85 165.325 486.98 Q165.325 494.086 167.13 497.651 Q168.959 501.193 172.57 501.193 Q176.204 501.193 178.01 497.651 Q179.839 494.086 179.839 486.98 Q179.839 479.85 178.01 476.309 Q176.204 472.744 172.57 472.744 M172.57 469.04 Q178.38 469.04 181.436 473.647 Q184.514 478.23 184.514 486.98 Q184.514 495.707 181.436 500.313 Q178.38 504.897 172.57 504.897 Q166.76 504.897 163.681 500.313 Q160.626 495.707 160.626 486.98 Q160.626 478.23 163.681 473.647 Q166.76 469.04 172.57 469.04 Z" fill="#000000" fill-rule="evenodd" fill-opacity="1" /><path clip-path="url(#clip430)" d="M206.899 485.591 Q210.255 486.309 212.13 488.577 Q214.028 490.846 214.028 494.179 Q214.028 499.295 210.51 502.096 Q206.991 504.897 200.51 504.897 Q198.334 504.897 196.019 504.457 Q193.727 504.04 191.274 503.184 L191.274 498.67 Q193.218 499.804 195.533 500.383 Q197.848 500.961 200.371 500.961 Q204.769 500.961 207.061 499.225 Q209.375 497.489 209.375 494.179 Q209.375 491.123 207.223 489.411 Q205.093 487.674 201.274 487.674 L197.246 487.674 L197.246 483.832 L201.459 483.832 Q204.908 483.832 206.737 482.466 Q208.565 481.077 208.565 478.485 Q208.565 475.823 206.667 474.411 Q204.792 472.975 201.274 472.975 Q199.352 472.975 197.153 473.392 Q194.954 473.809 192.315 474.688 L192.315 470.522 Q194.977 469.781 197.292 469.411 Q199.63 469.04 201.69 469.04 Q207.014 469.04 210.116 471.471 Q213.218 473.878 213.218 477.999 Q213.218 480.869 211.574 482.86 Q209.931 484.827 206.899 485.591 Z" fill="#000000" fill-rule="evenodd" fill-opacity="1" /><path clip-path="url(#clip430)" d="M126.205 173.51 Q122.593 173.51 120.765 177.075 Q118.959 180.617 118.959 187.746 Q118.959 194.853 120.765 198.418 Q122.593 201.959 126.205 201.959 Q129.839 201.959 131.644 198.418 Q133.473 194.853 133.473 187.746 Q133.473 180.617 131.644 177.075 Q129.839 173.51 126.205 173.51 M126.205 169.807 Q132.015 169.807 135.07 174.413 Q138.149 178.996 138.149 187.746 Q138.149 196.473 135.07 201.08 Q132.015 205.663 126.205 205.663 Q120.394 205.663 117.316 201.08 Q114.26 196.473 114.26 187.746 Q114.26 178.996 117.316 174.413 Q120.394 169.807 126.205 169.807 Z" fill="#000000" fill-rule="evenodd" fill-opacity="1" /><path clip-path="url(#clip430)" d="M146.366 199.112 L151.251 199.112 L151.251 204.992 L146.366 204.992 L146.366 199.112 Z" fill="#000000" fill-rule="evenodd" fill-opacity="1" /><path clip-path="url(#clip430)" d="M171.436 173.51 Q167.825 173.51 165.996 177.075 Q164.19 180.617 164.19 187.746 Q164.19 194.853 165.996 198.418 Q167.825 201.959 171.436 201.959 Q175.07 201.959 176.876 198.418 Q178.704 194.853 178.704 187.746 Q178.704 180.617 176.876 177.075 Q175.07 173.51 171.436 173.51 M171.436 169.807 Q177.246 169.807 180.301 174.413 Q183.38 178.996 183.38 187.746 Q183.38 196.473 180.301 201.08 Q177.246 205.663 171.436 205.663 Q165.626 205.663 162.547 201.08 Q159.491 196.473 159.491 187.746 Q159.491 178.996 162.547 174.413 Q165.626 169.807 171.436 169.807 Z" fill="#000000" fill-rule="evenodd" fill-opacity="1" /><path clip-path="url(#clip430)" d="M204.445 174.506 L192.639 192.955 L204.445 192.955 L204.445 174.506 M203.218 170.432 L209.098 170.432 L209.098 192.955 L214.028 192.955 L214.028 196.844 L209.098 196.844 L209.098 204.992 L204.445 204.992 L204.445 196.844 L188.843 196.844 L188.843 192.33 L203.218 170.432 Z" fill="#000000" fill-rule="evenodd" fill-opacity="1" /><path clip-path="url(#clip430)" d="M27.9392 757.108 Q28.6155 757.108 29.163 757.688 Q29.7105 758.236 29.7105 758.912 Q29.7105 759.298 29.0664 760.232 Q27.1985 762.905 27.1985 766.287 Q27.1985 769.314 27.9392 772.116 Q28.6799 774.918 30.1936 776.818 Q31.6751 778.686 33.6074 778.686 Q36.0229 778.686 37.4399 776.045 Q36.1839 773.308 36.1839 769.926 Q36.1839 768.831 36.2483 768.09 Q36.3127 767.318 36.4738 766.577 Q36.6348 765.836 37.0213 765.482 Q37.3755 765.095 37.9552 765.095 Q40.0164 765.095 40.0164 770.442 Q40.0164 773.92 39.0824 776.11 Q40.4673 778.912 42.6895 780.458 Q44.9117 782.003 46.8118 782.003 Q48.4543 782.003 49.646 781.102 Q50.8376 780.168 51.4173 778.654 Q51.997 777.108 52.2546 775.594 Q52.4801 774.049 52.4801 772.342 Q52.4801 769.54 52.1258 767.575 Q51.7393 765.578 51.0308 764.483 Q50.3223 763.356 49.8392 762.905 Q49.3239 762.422 48.5187 761.939 Q48.0679 761.649 48.0679 761.263 Q48.0679 760.973 48.2611 760.78 Q48.4221 760.554 48.712 760.554 Q49.0662 760.554 49.807 761.005 Q50.5477 761.424 51.5461 762.454 Q52.5123 763.453 53.414 764.838 Q54.2836 766.19 54.8955 768.348 Q55.5074 770.506 55.5074 772.954 Q55.5074 777.945 53.0598 780.844 Q50.6121 783.71 47.1983 783.71 Q44.8151 783.71 42.3674 782.132 Q39.8876 780.522 38.3095 777.688 Q36.3449 780.329 33.6074 780.329 Q31.1598 780.329 28.9698 778.268 Q26.7798 776.174 25.4916 772.793 Q24.1711 769.379 24.1711 765.643 Q24.1711 763.549 24.8796 761.488 Q25.556 759.427 26.4255 758.268 Q27.2951 757.108 27.9392 757.108 M38.0196 766.802 Q37.6332 768.219 37.6332 769.926 Q37.6332 772.245 38.2129 773.952 Q38.5671 772.567 38.5671 770.442 Q38.5671 768.67 38.4705 768.155 Q38.3739 767.607 38.0196 766.802 Z" fill="#000000" fill-rule="evenodd" fill-opacity="1" /><path clip-path="url(#clip430)" d="M57.1294 731.525 Q58.3243 731.525 59.0908 732.314 Q59.8573 733.08 59.8573 734.072 Q59.8573 734.929 59.3613 735.38 Q58.8653 735.831 58.2341 735.831 Q57.3323 735.831 56.5884 735.132 Q55.8444 734.433 55.6866 733.419 Q55.1455 734.162 55.1455 735.357 Q55.1455 737.319 56.656 739.055 Q57.3549 739.821 58.6399 740.655 Q59.9023 741.489 60.4434 741.647 L66.4627 743.112 Q67.139 743.248 70.3854 744.082 Q73.6092 744.893 73.7444 744.961 Q74.3757 745.187 74.7138 745.683 Q75.052 746.178 75.052 746.674 Q75.052 747.238 74.7138 747.621 Q74.3757 748.005 73.7895 748.005 Q73.6993 748.005 73.3612 747.937 Q73.023 747.869 72.5496 747.757 Q72.0762 747.644 71.8056 747.599 L61.1423 744.916 Q59.2035 744.42 58.5948 744.307 Q57.9636 744.172 57.2647 744.172 Q56.0473 744.172 55.5964 744.555 Q55.1455 744.939 55.1455 745.615 Q55.1455 746.787 56.5433 747.554 Q57.941 748.32 60.6463 748.974 Q61.3903 749.177 61.5481 749.312 Q61.7059 749.425 61.7059 749.763 Q61.6833 750.327 61.2324 750.327 Q61.1197 750.327 60.3983 750.146 Q59.6544 749.966 58.5722 749.628 Q57.4676 749.267 56.7687 748.884 Q56.2953 748.658 55.9797 748.455 Q55.6641 748.253 55.1681 747.847 Q54.6721 747.441 54.4016 746.832 Q54.1311 746.224 54.1311 745.48 Q54.1311 743.856 55.123 742.707 Q56.1149 741.534 57.6705 741.264 Q56.8589 740.7 56.16 740.001 Q55.4386 739.303 54.7848 738.018 Q54.1311 736.732 54.1311 735.357 Q54.1311 733.644 55.0103 732.584 Q55.867 731.525 57.1294 731.525 Z" fill="#000000" fill-rule="evenodd" fill-opacity="1" /><path clip-path="url(#clip430)" d="M69.1905 711.114 Q69.3934 710.934 69.5963 710.934 Q69.7992 710.934 70.3854 711.385 Q70.9715 711.813 71.7605 712.737 Q72.5496 713.662 73.2935 714.857 Q74.0375 716.051 74.5335 717.81 Q75.052 719.568 75.052 721.417 Q75.052 724.731 72.6849 726.715 Q70.3177 728.676 66.6881 728.676 Q64.3661 728.676 62.3146 727.91 Q60.2405 727.143 58.7751 725.903 Q57.3098 724.641 56.2502 723.063 Q55.1681 721.462 54.6496 719.794 Q54.1311 718.125 54.1311 716.57 Q54.1311 714.293 55.2808 712.963 Q56.4306 711.633 58.0537 711.633 Q58.437 711.633 58.9104 711.745 Q59.3838 711.836 60.1278 712.151 Q60.8717 712.444 61.6157 713.211 Q62.3371 713.977 62.8105 715.105 Q63.8701 717.607 63.8701 722.161 L63.8701 724.618 Q66.7783 725.34 68.672 725.34 Q69.416 725.34 70.1825 725.204 Q70.9264 725.069 71.8733 724.708 Q72.8201 724.325 73.4288 723.468 Q74.015 722.589 74.015 721.327 Q74.015 720.921 73.9924 720.493 Q73.9699 720.042 73.7219 718.914 Q73.4739 717.765 73.0456 716.75 Q72.6172 715.736 71.6929 714.451 Q70.7461 713.143 69.461 712.106 Q68.9876 711.745 68.9876 711.497 Q68.9876 711.295 69.1905 711.114 M58.0537 713.166 Q56.8138 713.166 55.9797 714.09 Q55.1455 714.992 55.1455 716.57 Q55.1455 717.066 55.2583 717.675 Q55.371 718.283 55.8444 719.298 Q56.3178 720.29 57.1069 721.169 Q57.8734 722.048 59.3838 722.927 Q60.8717 723.807 62.8556 724.325 L62.8556 722.431 Q62.8556 721.778 62.8556 721.304 Q62.8331 720.831 62.7429 719.794 Q62.6527 718.734 62.4949 717.968 Q62.3146 717.201 61.9539 716.232 Q61.5932 715.262 61.1197 714.654 Q60.6238 714.022 59.8347 713.594 Q59.0457 713.166 58.0537 713.166 Z" fill="#000000" fill-rule="evenodd" fill-opacity="1" /><path clip-path="url(#clip430)" d="M42.9943 697.5 L69.6865 704.15 Q70.7461 704.421 71.8958 704.421 Q74.015 704.421 74.015 703.023 Q74.015 702.369 73.5866 701.828 Q73.1357 701.287 72.2565 700.882 Q71.3548 700.453 70.4981 700.183 Q69.6414 699.89 68.3113 699.529 Q67.7928 699.416 67.635 699.303 Q67.4772 699.191 67.4772 698.875 Q67.4772 698.312 67.928 698.312 Q70.701 698.875 72.4594 699.709 Q75.052 700.927 75.052 703.181 Q75.052 704.872 73.8797 706.134 Q72.6849 707.374 70.7911 707.374 Q70.0697 707.374 69.2131 707.149 L46.1279 701.332 L45.2261 701.175 Q44.9782 701.175 44.8429 701.265 Q44.7076 701.355 44.5724 701.896 Q44.4371 702.415 44.4371 703.452 Q44.4371 703.88 44.4145 704.083 Q44.392 704.263 44.2793 704.444 Q44.1666 704.601 43.9186 704.601 Q43.5128 704.601 43.2873 704.444 Q43.0619 704.263 43.0168 704.128 Q42.9717 703.993 42.9492 703.722 Q42.9266 703.339 42.8139 702.054 Q42.6787 700.769 42.5885 699.664 Q42.4983 698.56 42.4983 698.086 Q42.4983 697.816 42.6336 697.68 Q42.7463 697.522 42.8815 697.5 L42.9943 697.5 Z" fill="#000000" fill-rule="evenodd" fill-opacity="1" /><polyline clip-path="url(#clip433)" style="stroke:#009af9; stroke-linecap:round; stroke-linejoin:round; stroke-width:4; stroke-opacity:1; fill:none" points="250.028,1377.93 775.71,1381.84 1301.39,1382.89 1827.07,1383.74 2352.76,1384.24 "/>
<polyline clip-path="url(#clip433)" style="stroke:#e26f46; stroke-linecap:round; stroke-linejoin:round; stroke-width:4; stroke-opacity:1; fill:none" points="250.028,86.1857 775.71,1183.56 1301.39,1269.81 1827.07,1322.63 2352.76,1357.09 "/>
<polyline clip-path="url(#clip433)" style="stroke:#3da44d; stroke-linecap:round; stroke-linejoin:round; stroke-width:4; stroke-opacity:1; fill:none" points="250.028,192.252 775.71,1135.04 1301.39,1248.06 1827.07,1320.94 2352.76,1358.34 "/>
<polyline clip-path="url(#clip433)" style="stroke:#c271d2; stroke-linecap:round; stroke-linejoin:round; stroke-width:4; stroke-opacity:1; fill:none" stroke-dasharray="16, 10" points="250.028,228.285 775.71,1247.34 1301.39,1294 1827.07,1331.86 2352.76,1361.54 "/>
<path clip-path="url(#clip430)" d="M1605.54 352.309 L2282.66 352.309 L2282.66 93.1086 L1605.54 93.1086  Z" fill="#ffffff" fill-rule="evenodd" fill-opacity="1"/>
<polyline clip-path="url(#clip430)" style="stroke:#000000; stroke-linecap:round; stroke-linejoin:round; stroke-width:4; stroke-opacity:1; fill:none" points="1605.54,352.309 2282.66,352.309 2282.66,93.1086 1605.54,93.1086 1605.54,352.309 "/>
<polyline clip-path="url(#clip430)" style="stroke:#009af9; stroke-linecap:round; stroke-linejoin:round; stroke-width:4; stroke-opacity:1; fill:none" points="1628.91,144.949 1769.09,144.949 "/>
<path clip-path="url(#clip430)" d="M1793.03 136.303 L1813.26 136.303 L1813.26 140.192 L1797.24 158.826 L1813.26 158.826 L1813.26 162.229 L1792.45 162.229 L1792.45 158.34 L1808.47 139.706 L1793.03 139.706 L1793.03 136.303 Z" fill="#000000" fill-rule="evenodd" fill-opacity="1" /><path clip-path="url(#clip430)" d="M1841.94 148.201 L1841.94 150.284 L1822.36 150.284 Q1822.64 154.682 1825 156.997 Q1827.38 159.289 1831.62 159.289 Q1834.07 159.289 1836.36 158.687 Q1838.68 158.085 1840.95 156.881 L1840.95 160.909 Q1838.66 161.881 1836.25 162.391 Q1833.84 162.9 1831.36 162.9 Q1825.16 162.9 1821.53 159.289 Q1817.91 155.678 1817.91 149.52 Q1817.91 143.155 1821.34 139.428 Q1824.79 135.678 1830.62 135.678 Q1835.85 135.678 1838.89 139.057 Q1841.94 142.414 1841.94 148.201 M1837.68 146.951 Q1837.64 143.456 1835.72 141.372 Q1833.82 139.289 1830.67 139.289 Q1827.1 139.289 1824.95 141.303 Q1822.82 143.317 1822.5 146.974 L1837.68 146.951 Z" fill="#000000" fill-rule="evenodd" fill-opacity="1" /><path clip-path="url(#clip430)" d="M1863.96 140.284 Q1863.24 139.868 1862.38 139.682 Q1861.55 139.474 1860.53 139.474 Q1856.92 139.474 1854.97 141.835 Q1853.05 144.173 1853.05 148.571 L1853.05 162.229 L1848.77 162.229 L1848.77 136.303 L1853.05 136.303 L1853.05 140.331 Q1854.4 137.969 1856.55 136.835 Q1858.7 135.678 1861.78 135.678 Q1862.22 135.678 1862.75 135.747 Q1863.28 135.794 1863.93 135.909 L1863.96 140.284 Z" fill="#000000" fill-rule="evenodd" fill-opacity="1" /><path clip-path="url(#clip430)" d="M1877.43 139.289 Q1874 139.289 1872.01 141.974 Q1870.02 144.636 1870.02 149.289 Q1870.02 153.942 1871.99 156.627 Q1873.98 159.289 1877.43 159.289 Q1880.83 159.289 1882.82 156.604 Q1884.81 153.918 1884.81 149.289 Q1884.81 144.682 1882.82 141.997 Q1880.83 139.289 1877.43 139.289 M1877.43 135.678 Q1882.98 135.678 1886.16 139.289 Q1889.33 142.9 1889.33 149.289 Q1889.33 155.655 1886.16 159.289 Q1882.98 162.9 1877.43 162.9 Q1871.85 162.9 1868.68 159.289 Q1865.53 155.655 1865.53 149.289 Q1865.53 142.9 1868.68 139.289 Q1871.85 135.678 1877.43 135.678 Z" fill="#000000" fill-rule="evenodd" fill-opacity="1" /><path clip-path="url(#clip430)" d="M1895.11 147.344 L1907.59 147.344 L1907.59 151.141 L1895.11 151.141 L1895.11 147.344 Z" fill="#000000" fill-rule="evenodd" fill-opacity="1" /><path clip-path="url(#clip430)" d="M1933.15 132.206 Q1930.78 130.585 1925.25 130.585 Q1919.4 130.585 1919.4 133.294 Q1919.4 135.423 1925.51 136.534 Q1930.32 137.391 1933.03 139.983 Q1936.32 143.108 1936.32 149.52 Q1936.32 155.655 1933.15 159.266 Q1929.97 162.9 1924.42 162.9 Q1918.89 162.9 1915.69 159.266 Q1912.52 155.655 1912.52 149.289 Q1912.52 144.567 1915.69 140.747 Q1916.92 139.266 1918.66 138.432 Q1915.04 136.604 1915.04 133.34 Q1915.04 127.044 1925.25 127.044 Q1930.37 127.044 1933.15 128.664 L1933.15 132.206 M1921.85 139.59 Q1920.28 140.261 1919 141.951 Q1917.01 144.567 1917.01 149.289 Q1917.01 153.988 1918.98 156.627 Q1920.97 159.289 1924.42 159.289 Q1927.82 159.289 1929.81 156.604 Q1931.8 153.918 1931.8 149.52 Q1931.8 144.914 1929.7 142.692 Q1927.45 140.307 1924.53 140.053 Q1923.05 139.914 1921.85 139.59 Z" fill="#000000" fill-rule="evenodd" fill-opacity="1" /><path clip-path="url(#clip430)" d="M1958.45 126.21 L1962.71 126.21 L1962.71 162.229 L1958.45 162.229 L1958.45 126.21 Z" fill="#000000" fill-rule="evenodd" fill-opacity="1" /><path clip-path="url(#clip430)" d="M1981.66 139.289 Q1978.24 139.289 1976.25 141.974 Q1974.26 144.636 1974.26 149.289 Q1974.26 153.942 1976.22 156.627 Q1978.21 159.289 1981.66 159.289 Q1985.07 159.289 1987.06 156.604 Q1989.05 153.918 1989.05 149.289 Q1989.05 144.682 1987.06 141.997 Q1985.07 139.289 1981.66 139.289 M1981.66 135.678 Q1987.22 135.678 1990.39 139.289 Q1993.56 142.9 1993.56 149.289 Q1993.56 155.655 1990.39 159.289 Q1987.22 162.9 1981.66 162.9 Q1976.09 162.9 1972.91 159.289 Q1969.77 155.655 1969.77 149.289 Q1969.77 142.9 1972.91 139.289 Q1976.09 135.678 1981.66 135.678 Z" fill="#000000" fill-rule="evenodd" fill-opacity="1" /><path clip-path="url(#clip430)" d="M1998.15 136.303 L2002.4 136.303 L2007.73 156.534 L2013.03 136.303 L2018.05 136.303 L2023.38 156.534 L2028.68 136.303 L2032.94 136.303 L2026.15 162.229 L2021.13 162.229 L2015.55 140.979 L2009.95 162.229 L2004.93 162.229 L1998.15 136.303 Z" fill="#000000" fill-rule="evenodd" fill-opacity="1" /><path clip-path="url(#clip430)" d="M2061.57 148.201 L2061.57 150.284 L2041.99 150.284 Q2042.27 154.682 2044.63 156.997 Q2047.01 159.289 2051.25 159.289 Q2053.7 159.289 2055.99 158.687 Q2058.31 158.085 2060.58 156.881 L2060.58 160.909 Q2058.28 161.881 2055.88 162.391 Q2053.47 162.9 2050.99 162.9 Q2044.79 162.9 2041.15 159.289 Q2037.54 155.678 2037.54 149.52 Q2037.54 143.155 2040.97 139.428 Q2044.42 135.678 2050.25 135.678 Q2055.48 135.678 2058.52 139.057 Q2061.57 142.414 2061.57 148.201 M2057.31 146.951 Q2057.27 143.456 2055.34 141.372 Q2053.45 139.289 2050.3 139.289 Q2046.73 139.289 2044.58 141.303 Q2042.45 143.317 2042.13 146.974 L2057.31 146.951 Z" fill="#000000" fill-rule="evenodd" fill-opacity="1" /><path clip-path="url(#clip430)" d="M2083.58 140.284 Q2082.87 139.868 2082.01 139.682 Q2081.18 139.474 2080.16 139.474 Q2076.55 139.474 2074.6 141.835 Q2072.68 144.173 2072.68 148.571 L2072.68 162.229 L2068.4 162.229 L2068.4 136.303 L2072.68 136.303 L2072.68 140.331 Q2074.02 137.969 2076.18 136.835 Q2078.33 135.678 2081.41 135.678 Q2081.85 135.678 2082.38 135.747 Q2082.91 135.794 2083.56 135.909 L2083.58 140.284 Z" fill="#000000" fill-rule="evenodd" fill-opacity="1" /><path clip-path="url(#clip430)" d="M2121.73 149.289 Q2121.73 144.59 2119.79 141.928 Q2117.87 139.243 2114.49 139.243 Q2111.11 139.243 2109.16 141.928 Q2107.24 144.59 2107.24 149.289 Q2107.24 153.988 2109.16 156.673 Q2111.11 159.335 2114.49 159.335 Q2117.87 159.335 2119.79 156.673 Q2121.73 153.988 2121.73 149.289 M2107.24 140.238 Q2108.58 137.923 2110.62 136.812 Q2112.68 135.678 2115.53 135.678 Q2120.25 135.678 2123.19 139.428 Q2126.15 143.178 2126.15 149.289 Q2126.15 155.4 2123.19 159.15 Q2120.25 162.9 2115.53 162.9 Q2112.68 162.9 2110.62 161.789 Q2108.58 160.655 2107.24 158.34 L2107.24 162.229 L2102.96 162.229 L2102.96 126.21 L2107.24 126.21 L2107.24 140.238 Z" fill="#000000" fill-rule="evenodd" fill-opacity="1" /><path clip-path="url(#clip430)" d="M2143.26 139.289 Q2139.83 139.289 2137.84 141.974 Q2135.85 144.636 2135.85 149.289 Q2135.85 153.942 2137.82 156.627 Q2139.81 159.289 2143.26 159.289 Q2146.66 159.289 2148.65 156.604 Q2150.64 153.918 2150.64 149.289 Q2150.64 144.682 2148.65 141.997 Q2146.66 139.289 2143.26 139.289 M2143.26 135.678 Q2148.82 135.678 2151.99 139.289 Q2155.16 142.9 2155.16 149.289 Q2155.16 155.655 2151.99 159.289 Q2148.82 162.9 2143.26 162.9 Q2137.68 162.9 2134.51 159.289 Q2131.36 155.655 2131.36 149.289 Q2131.36 142.9 2134.51 139.289 Q2137.68 135.678 2143.26 135.678 Z" fill="#000000" fill-rule="evenodd" fill-opacity="1" /><path clip-path="url(#clip430)" d="M2161.78 151.997 L2161.78 136.303 L2166.04 136.303 L2166.04 151.835 Q2166.04 155.516 2167.47 157.368 Q2168.91 159.196 2171.78 159.196 Q2175.23 159.196 2177.22 156.997 Q2179.23 154.798 2179.23 151.002 L2179.23 136.303 L2183.49 136.303 L2183.49 162.229 L2179.23 162.229 L2179.23 158.247 Q2177.68 160.608 2175.62 161.766 Q2173.58 162.9 2170.88 162.9 Q2166.41 162.9 2164.09 160.122 Q2161.78 157.344 2161.78 151.997 M2172.5 135.678 L2172.5 135.678 Z" fill="#000000" fill-rule="evenodd" fill-opacity="1" /><path clip-path="url(#clip430)" d="M2213.82 146.581 L2213.82 162.229 L2209.56 162.229 L2209.56 146.719 Q2209.56 143.039 2208.12 141.21 Q2206.69 139.382 2203.82 139.382 Q2200.37 139.382 2198.38 141.581 Q2196.39 143.78 2196.39 147.576 L2196.39 162.229 L2192.1 162.229 L2192.1 136.303 L2196.39 136.303 L2196.39 140.331 Q2197.91 137.993 2199.97 136.835 Q2202.06 135.678 2204.76 135.678 Q2209.23 135.678 2211.52 138.456 Q2213.82 141.21 2213.82 146.581 Z" fill="#000000" fill-rule="evenodd" fill-opacity="1" /><path clip-path="url(#clip430)" d="M2239.37 140.238 L2239.37 126.21 L2243.63 126.21 L2243.63 162.229 L2239.37 162.229 L2239.37 158.34 Q2238.03 160.655 2235.97 161.789 Q2233.93 162.9 2231.06 162.9 Q2226.36 162.9 2223.4 159.15 Q2220.46 155.4 2220.46 149.289 Q2220.46 143.178 2223.4 139.428 Q2226.36 135.678 2231.06 135.678 Q2233.93 135.678 2235.97 136.812 Q2238.03 137.923 2239.37 140.238 M2224.86 149.289 Q2224.86 153.988 2226.78 156.673 Q2228.72 159.335 2232.1 159.335 Q2235.48 159.335 2237.43 156.673 Q2239.37 153.988 2239.37 149.289 Q2239.37 144.59 2237.43 141.928 Q2235.48 139.243 2232.1 139.243 Q2228.72 139.243 2226.78 141.928 Q2224.86 144.59 2224.86 149.289 Z" fill="#000000" fill-rule="evenodd" fill-opacity="1" /><polyline clip-path="url(#clip430)" style="stroke:#e26f46; stroke-linecap:round; stroke-linejoin:round; stroke-width:4; stroke-opacity:1; fill:none" points="1628.91,196.789 1769.09,196.789 "/>
<path clip-path="url(#clip430)" d="M1799.86 180.782 L1799.86 188.143 L1808.63 188.143 L1808.63 191.453 L1799.86 191.453 L1799.86 205.527 Q1799.86 208.698 1800.72 209.601 Q1801.6 210.504 1804.26 210.504 L1808.63 210.504 L1808.63 214.069 L1804.26 214.069 Q1799.33 214.069 1797.45 212.24 Q1795.58 210.388 1795.58 205.527 L1795.58 191.453 L1792.45 191.453 L1792.45 188.143 L1795.58 188.143 L1795.58 180.782 L1799.86 180.782 Z" fill="#000000" fill-rule="evenodd" fill-opacity="1" /><path clip-path="url(#clip430)" d="M1835.14 180.643 L1835.14 185.203 Q1832.47 183.93 1830.11 183.305 Q1827.75 182.68 1825.55 182.68 Q1821.73 182.68 1819.65 184.161 Q1817.59 185.643 1817.59 188.374 Q1817.59 190.666 1818.96 191.847 Q1820.35 193.004 1824.19 193.722 L1827.01 194.3 Q1832.24 195.296 1834.72 197.819 Q1837.22 200.319 1837.22 204.532 Q1837.22 209.555 1833.84 212.147 Q1830.48 214.74 1823.98 214.74 Q1821.53 214.74 1818.75 214.184 Q1815.99 213.629 1813.03 212.541 L1813.03 207.726 Q1815.88 209.323 1818.61 210.133 Q1821.34 210.944 1823.98 210.944 Q1827.98 210.944 1830.16 209.37 Q1832.34 207.796 1832.34 204.879 Q1832.34 202.333 1830.76 200.897 Q1829.21 199.462 1825.65 198.745 L1822.8 198.189 Q1817.57 197.147 1815.23 194.925 Q1812.89 192.703 1812.89 188.745 Q1812.89 184.161 1816.11 181.522 Q1819.35 178.884 1825.02 178.884 Q1827.45 178.884 1829.97 179.323 Q1832.5 179.763 1835.14 180.643 Z" fill="#000000" fill-rule="evenodd" fill-opacity="1" /><path clip-path="url(#clip430)" d="M1853.42 214.069 L1840.23 179.509 L1845.11 179.509 L1856.06 208.606 L1867.03 179.509 L1871.9 179.509 L1858.72 214.069 L1853.42 214.069 Z" fill="#000000" fill-rule="evenodd" fill-opacity="1" /><path clip-path="url(#clip430)" d="M1881.62 183.351 L1881.62 210.226 L1887.27 210.226 Q1894.42 210.226 1897.73 206.985 Q1901.06 203.745 1901.06 196.754 Q1901.06 189.809 1897.73 186.592 Q1894.42 183.351 1887.27 183.351 L1881.62 183.351 M1876.94 179.509 L1886.55 179.509 Q1896.59 179.509 1901.29 183.698 Q1905.99 187.865 1905.99 196.754 Q1905.99 205.689 1901.27 209.879 Q1896.55 214.069 1886.55 214.069 L1876.94 214.069 L1876.94 179.509 Z" fill="#000000" fill-rule="evenodd" fill-opacity="1" /><polyline clip-path="url(#clip430)" style="stroke:#3da44d; stroke-linecap:round; stroke-linejoin:round; stroke-width:4; stroke-opacity:1; fill:none" points="1628.91,248.629 1769.09,248.629 "/>
<path clip-path="url(#clip430)" d="M1820.32 234.011 L1820.32 238.941 Q1817.96 236.742 1815.28 235.654 Q1812.61 234.566 1809.6 234.566 Q1803.68 234.566 1800.53 238.2 Q1797.38 241.812 1797.38 248.663 Q1797.38 255.492 1800.53 259.126 Q1803.68 262.737 1809.6 262.737 Q1812.61 262.737 1815.28 261.649 Q1817.96 260.561 1820.32 258.362 L1820.32 263.247 Q1817.87 264.913 1815.11 265.747 Q1812.38 266.58 1809.33 266.58 Q1801.48 266.58 1796.97 261.788 Q1792.45 256.973 1792.45 248.663 Q1792.45 240.33 1796.97 235.538 Q1801.48 230.724 1809.33 230.724 Q1812.43 230.724 1815.16 231.557 Q1817.91 232.367 1820.32 234.011 Z" fill="#000000" fill-rule="evenodd" fill-opacity="1" /><path clip-path="url(#clip430)" d="M1853.42 234.011 L1853.42 238.941 Q1851.06 236.742 1848.38 235.654 Q1845.72 234.566 1842.71 234.566 Q1836.78 234.566 1833.63 238.2 Q1830.48 241.812 1830.48 248.663 Q1830.48 255.492 1833.63 259.126 Q1836.78 262.737 1842.71 262.737 Q1845.72 262.737 1848.38 261.649 Q1851.06 260.561 1853.42 258.362 L1853.42 263.247 Q1850.97 264.913 1848.22 265.747 Q1845.48 266.58 1842.43 266.58 Q1834.58 266.58 1830.07 261.788 Q1825.55 256.973 1825.55 248.663 Q1825.55 240.33 1830.07 235.538 Q1834.58 230.724 1842.43 230.724 Q1845.53 230.724 1848.26 231.557 Q1851.02 232.367 1853.42 234.011 Z" fill="#000000" fill-rule="evenodd" fill-opacity="1" /><path clip-path="url(#clip430)" d="M1858.31 251.024 L1870.78 251.024 L1870.78 254.821 L1858.31 254.821 L1858.31 251.024 Z" fill="#000000" fill-rule="evenodd" fill-opacity="1" /><path clip-path="url(#clip430)" d="M1881.78 232.622 L1881.78 239.983 L1890.55 239.983 L1890.55 243.293 L1881.78 243.293 L1881.78 257.367 Q1881.78 260.538 1882.64 261.441 Q1883.52 262.344 1886.18 262.344 L1890.55 262.344 L1890.55 265.909 L1886.18 265.909 Q1881.25 265.909 1879.37 264.08 Q1877.5 262.228 1877.5 257.367 L1877.5 243.293 L1874.37 243.293 L1874.37 239.983 L1877.5 239.983 L1877.5 232.622 L1881.78 232.622 Z" fill="#000000" fill-rule="evenodd" fill-opacity="1" /><path clip-path="url(#clip430)" d="M1917.06 232.483 L1917.06 237.043 Q1914.4 235.77 1912.03 235.145 Q1909.67 234.52 1907.47 234.52 Q1903.66 234.52 1901.57 236.001 Q1899.51 237.483 1899.51 240.214 Q1899.51 242.506 1900.88 243.687 Q1902.27 244.844 1906.11 245.562 L1908.93 246.14 Q1914.16 247.136 1916.64 249.659 Q1919.14 252.159 1919.14 256.372 Q1919.14 261.395 1915.76 263.987 Q1912.41 266.58 1905.9 266.58 Q1903.45 266.58 1900.67 266.024 Q1897.91 265.469 1894.95 264.381 L1894.95 259.566 Q1897.8 261.163 1900.53 261.973 Q1903.26 262.784 1905.9 262.784 Q1909.91 262.784 1912.08 261.21 Q1914.26 259.636 1914.26 256.719 Q1914.26 254.173 1912.68 252.737 Q1911.13 251.302 1907.57 250.585 L1904.72 250.029 Q1899.49 248.987 1897.15 246.765 Q1894.81 244.543 1894.81 240.585 Q1894.81 236.001 1898.03 233.362 Q1901.27 230.724 1906.94 230.724 Q1909.37 230.724 1911.9 231.163 Q1914.42 231.603 1917.06 232.483 Z" fill="#000000" fill-rule="evenodd" fill-opacity="1" /><path clip-path="url(#clip430)" d="M1935.34 265.909 L1922.15 231.349 L1927.03 231.349 L1937.98 260.446 L1948.96 231.349 L1953.82 231.349 L1940.65 265.909 L1935.34 265.909 Z" fill="#000000" fill-rule="evenodd" fill-opacity="1" /><path clip-path="url(#clip430)" d="M1963.54 235.191 L1963.54 262.066 L1969.19 262.066 Q1976.34 262.066 1979.65 258.825 Q1982.98 255.585 1982.98 248.594 Q1982.98 241.649 1979.65 238.432 Q1976.34 235.191 1969.19 235.191 L1963.54 235.191 M1958.86 231.349 L1968.47 231.349 Q1978.52 231.349 1983.21 235.538 Q1987.91 239.705 1987.91 248.594 Q1987.91 257.529 1983.19 261.719 Q1978.47 265.909 1968.47 265.909 L1958.86 265.909 L1958.86 231.349 Z" fill="#000000" fill-rule="evenodd" fill-opacity="1" /><path clip-path="url(#clip430)" d="M2020.48 229.937 Q2017.38 235.261 2015.88 240.469 Q2014.37 245.677 2014.37 251.024 Q2014.37 256.372 2015.88 261.626 Q2017.4 266.858 2020.48 272.159 L2016.78 272.159 Q2013.31 266.719 2011.57 261.464 Q2009.86 256.21 2009.86 251.024 Q2009.86 245.862 2011.57 240.631 Q2013.28 235.4 2016.78 229.937 L2020.48 229.937 Z" fill="#000000" fill-rule="evenodd" fill-opacity="1" /><path clip-path="url(#clip430)" d="M2032.87 262.02 L2032.87 275.77 L2028.58 275.77 L2028.58 239.983 L2032.87 239.983 L2032.87 243.918 Q2034.21 241.603 2036.25 240.492 Q2038.31 239.358 2041.15 239.358 Q2045.88 239.358 2048.82 243.108 Q2051.78 246.858 2051.78 252.969 Q2051.78 259.08 2048.82 262.83 Q2045.88 266.58 2041.15 266.58 Q2038.31 266.58 2036.25 265.469 Q2034.21 264.335 2032.87 262.02 M2047.36 252.969 Q2047.36 248.27 2045.41 245.608 Q2043.49 242.923 2040.11 242.923 Q2036.73 242.923 2034.79 245.608 Q2032.87 248.27 2032.87 252.969 Q2032.87 257.668 2034.79 260.353 Q2036.73 263.015 2040.11 263.015 Q2043.49 263.015 2045.41 260.353 Q2047.36 257.668 2047.36 252.969 Z" fill="#000000" fill-rule="evenodd" fill-opacity="1" /><path clip-path="url(#clip430)" d="M2073.86 243.964 Q2073.14 243.548 2072.29 243.362 Q2071.46 243.154 2070.44 243.154 Q2066.83 243.154 2064.88 245.515 Q2062.96 247.853 2062.96 252.251 L2062.96 265.909 L2058.68 265.909 L2058.68 239.983 L2062.96 239.983 L2062.96 244.011 Q2064.3 241.649 2066.46 240.515 Q2068.61 239.358 2071.69 239.358 Q2072.13 239.358 2072.66 239.427 Q2073.19 239.474 2073.84 239.589 L2073.86 243.964 Z" fill="#000000" fill-rule="evenodd" fill-opacity="1" /><path clip-path="url(#clip430)" d="M2087.33 242.969 Q2083.91 242.969 2081.92 245.654 Q2079.93 248.316 2079.93 252.969 Q2079.93 257.622 2081.89 260.307 Q2083.89 262.969 2087.33 262.969 Q2090.74 262.969 2092.73 260.284 Q2094.72 257.598 2094.72 252.969 Q2094.72 248.362 2092.73 245.677 Q2090.74 242.969 2087.33 242.969 M2087.33 239.358 Q2092.89 239.358 2096.06 242.969 Q2099.23 246.58 2099.23 252.969 Q2099.23 259.335 2096.06 262.969 Q2092.89 266.58 2087.33 266.58 Q2081.76 266.58 2078.58 262.969 Q2075.44 259.335 2075.44 252.969 Q2075.44 246.58 2078.58 242.969 Q2081.76 239.358 2087.33 239.358 Z" fill="#000000" fill-rule="evenodd" fill-opacity="1" /><path clip-path="url(#clip430)" d="M2110.41 262.02 L2110.41 275.77 L2106.13 275.77 L2106.13 239.983 L2110.41 239.983 L2110.41 243.918 Q2111.76 241.603 2113.79 240.492 Q2115.85 239.358 2118.7 239.358 Q2123.42 239.358 2126.36 243.108 Q2129.33 246.858 2129.33 252.969 Q2129.33 259.08 2126.36 262.83 Q2123.42 266.58 2118.7 266.58 Q2115.85 266.58 2113.79 265.469 Q2111.76 264.335 2110.41 262.02 M2124.9 252.969 Q2124.9 248.27 2122.96 245.608 Q2121.04 242.923 2117.66 242.923 Q2114.28 242.923 2112.33 245.608 Q2110.41 248.27 2110.41 252.969 Q2110.41 257.668 2112.33 260.353 Q2114.28 263.015 2117.66 263.015 Q2121.04 263.015 2122.96 260.353 Q2124.9 257.668 2124.9 252.969 Z" fill="#000000" fill-rule="evenodd" fill-opacity="1" /><path clip-path="url(#clip430)" d="M2146.43 242.969 Q2143.01 242.969 2141.01 245.654 Q2139.02 248.316 2139.02 252.969 Q2139.02 257.622 2140.99 260.307 Q2142.98 262.969 2146.43 262.969 Q2149.83 262.969 2151.83 260.284 Q2153.82 257.598 2153.82 252.969 Q2153.82 248.362 2151.83 245.677 Q2149.83 242.969 2146.43 242.969 M2146.43 239.358 Q2151.99 239.358 2155.16 242.969 Q2158.33 246.58 2158.33 252.969 Q2158.33 259.335 2155.16 262.969 Q2151.99 266.58 2146.43 266.58 Q2140.85 266.58 2137.68 262.969 Q2134.53 259.335 2134.53 252.969 Q2134.53 246.58 2137.68 242.969 Q2140.85 239.358 2146.43 239.358 Z" fill="#000000" fill-rule="evenodd" fill-opacity="1" /><path clip-path="url(#clip430)" d="M2181.92 240.747 L2181.92 244.774 Q2180.11 243.849 2178.17 243.386 Q2176.22 242.923 2174.14 242.923 Q2170.97 242.923 2169.37 243.895 Q2167.8 244.867 2167.8 246.811 Q2167.8 248.293 2168.93 249.149 Q2170.07 249.983 2173.49 250.747 L2174.95 251.071 Q2179.49 252.043 2181.39 253.825 Q2183.31 255.585 2183.31 258.756 Q2183.31 262.367 2180.44 264.473 Q2177.59 266.58 2172.59 266.58 Q2170.51 266.58 2168.24 266.163 Q2165.99 265.77 2163.49 264.96 L2163.49 260.561 Q2165.85 261.788 2168.14 262.413 Q2170.44 263.015 2172.68 263.015 Q2175.69 263.015 2177.31 261.997 Q2178.93 260.955 2178.93 259.08 Q2178.93 257.344 2177.75 256.418 Q2176.59 255.492 2172.64 254.636 L2171.15 254.288 Q2167.2 253.455 2165.44 251.742 Q2163.68 250.006 2163.68 246.997 Q2163.68 243.339 2166.27 241.349 Q2168.86 239.358 2173.63 239.358 Q2175.99 239.358 2178.07 239.705 Q2180.16 240.052 2181.92 240.747 Z" fill="#000000" fill-rule="evenodd" fill-opacity="1" /><path clip-path="url(#clip430)" d="M2212.26 251.881 L2212.26 253.964 L2192.68 253.964 Q2192.96 258.362 2195.32 260.677 Q2197.7 262.969 2201.94 262.969 Q2204.39 262.969 2206.69 262.367 Q2209 261.765 2211.27 260.561 L2211.27 264.589 Q2208.98 265.561 2206.57 266.071 Q2204.16 266.58 2201.69 266.58 Q2195.48 266.58 2191.85 262.969 Q2188.24 259.358 2188.24 253.2 Q2188.24 246.835 2191.66 243.108 Q2195.11 239.358 2200.95 239.358 Q2206.18 239.358 2209.21 242.737 Q2212.26 246.094 2212.26 251.881 M2208.01 250.631 Q2207.96 247.136 2206.04 245.052 Q2204.14 242.969 2200.99 242.969 Q2197.43 242.969 2195.27 244.983 Q2193.14 246.997 2192.82 250.654 L2208.01 250.631 Z" fill="#000000" fill-rule="evenodd" fill-opacity="1" /><path clip-path="url(#clip430)" d="M2236.32 243.918 L2236.32 229.89 L2240.57 229.89 L2240.57 265.909 L2236.32 265.909 L2236.32 262.02 Q2234.97 264.335 2232.91 265.469 Q2230.88 266.58 2228.01 266.58 Q2223.31 266.58 2220.34 262.83 Q2217.4 259.08 2217.4 252.969 Q2217.4 246.858 2220.34 243.108 Q2223.31 239.358 2228.01 239.358 Q2230.88 239.358 2232.91 240.492 Q2234.97 241.603 2236.32 243.918 M2221.8 252.969 Q2221.8 257.668 2223.72 260.353 Q2225.67 263.015 2229.05 263.015 Q2232.43 263.015 2234.37 260.353 Q2236.32 257.668 2236.32 252.969 Q2236.32 248.27 2234.37 245.608 Q2232.43 242.923 2229.05 242.923 Q2225.67 242.923 2223.72 245.608 Q2221.8 248.27 2221.8 252.969 Z" fill="#000000" fill-rule="evenodd" fill-opacity="1" /><path clip-path="url(#clip430)" d="M2248.68 229.937 L2252.38 229.937 Q2255.85 235.4 2257.57 240.631 Q2259.3 245.862 2259.3 251.024 Q2259.3 256.21 2257.57 261.464 Q2255.85 266.719 2252.38 272.159 L2248.68 272.159 Q2251.76 266.858 2253.26 261.626 Q2254.79 256.372 2254.79 251.024 Q2254.79 245.677 2253.26 240.469 Q2251.76 235.261 2248.68 229.937 Z" fill="#000000" fill-rule="evenodd" fill-opacity="1" /><polyline clip-path="url(#clip430)" style="stroke:#c271d2; stroke-linecap:round; stroke-linejoin:round; stroke-width:4; stroke-opacity:1; fill:none" stroke-dasharray="16, 10" points="1628.91,300.469 1769.09,300.469 "/>
<path clip-path="url(#clip430)" d="M1792.45 283.189 L1799.42 283.189 L1808.24 306.707 L1817.1 283.189 L1824.07 283.189 L1824.07 317.749 L1819.51 317.749 L1819.51 287.402 L1810.6 311.105 L1805.9 311.105 L1796.99 287.402 L1796.99 317.749 L1792.45 317.749 L1792.45 283.189 Z" fill="#000000" fill-rule="evenodd" fill-opacity="1" /><path clip-path="url(#clip430)" d="M1859.23 285.851 L1859.23 290.781 Q1856.87 288.582 1854.19 287.494 Q1851.53 286.406 1848.52 286.406 Q1842.59 286.406 1839.44 290.04 Q1836.29 293.652 1836.29 300.503 Q1836.29 307.332 1839.44 310.966 Q1842.59 314.577 1848.52 314.577 Q1851.53 314.577 1854.19 313.489 Q1856.87 312.401 1859.23 310.202 L1859.23 315.087 Q1856.78 316.753 1854.03 317.587 Q1851.29 318.42 1848.24 318.42 Q1840.39 318.42 1835.88 313.628 Q1831.36 308.813 1831.36 300.503 Q1831.36 292.17 1835.88 287.378 Q1840.39 282.564 1848.24 282.564 Q1851.34 282.564 1854.07 283.397 Q1856.83 284.207 1859.23 285.851 Z" fill="#000000" fill-rule="evenodd" fill-opacity="1" /><path clip-path="url(#clip430)" d="M1864.12 302.864 L1876.6 302.864 L1876.6 306.661 L1864.12 306.661 L1864.12 302.864 Z" fill="#000000" fill-rule="evenodd" fill-opacity="1" /><path clip-path="url(#clip430)" d="M1887.59 284.462 L1887.59 291.823 L1896.36 291.823 L1896.36 295.133 L1887.59 295.133 L1887.59 309.207 Q1887.59 312.378 1888.45 313.281 Q1889.33 314.184 1891.99 314.184 L1896.36 314.184 L1896.36 317.749 L1891.99 317.749 Q1887.06 317.749 1885.18 315.92 Q1883.31 314.068 1883.31 309.207 L1883.31 295.133 L1880.18 295.133 L1880.18 291.823 L1883.31 291.823 L1883.31 284.462 L1887.59 284.462 Z" fill="#000000" fill-rule="evenodd" fill-opacity="1" /><path clip-path="url(#clip430)" d="M1922.87 284.323 L1922.87 288.883 Q1920.21 287.61 1917.84 286.985 Q1915.48 286.36 1913.28 286.36 Q1909.47 286.36 1907.38 287.841 Q1905.32 289.323 1905.32 292.054 Q1905.32 294.346 1906.69 295.527 Q1908.08 296.684 1911.92 297.402 L1914.74 297.98 Q1919.97 298.976 1922.45 301.499 Q1924.95 303.999 1924.95 308.212 Q1924.95 313.235 1921.57 315.827 Q1918.22 318.42 1911.71 318.42 Q1909.26 318.42 1906.48 317.864 Q1903.72 317.309 1900.76 316.221 L1900.76 311.406 Q1903.61 313.003 1906.34 313.813 Q1909.07 314.624 1911.71 314.624 Q1915.72 314.624 1917.89 313.05 Q1920.07 311.476 1920.07 308.559 Q1920.07 306.013 1918.49 304.577 Q1916.94 303.142 1913.38 302.425 L1910.53 301.869 Q1905.3 300.827 1902.96 298.605 Q1900.62 296.383 1900.62 292.425 Q1900.62 287.841 1903.84 285.202 Q1907.08 282.564 1912.75 282.564 Q1915.18 282.564 1917.71 283.003 Q1920.23 283.443 1922.87 284.323 Z" fill="#000000" fill-rule="evenodd" fill-opacity="1" /><path clip-path="url(#clip430)" d="M1941.15 317.749 L1927.96 283.189 L1932.84 283.189 L1943.79 312.286 L1954.77 283.189 L1959.63 283.189 L1946.46 317.749 L1941.15 317.749 Z" fill="#000000" fill-rule="evenodd" fill-opacity="1" /><path clip-path="url(#clip430)" d="M1969.35 287.031 L1969.35 313.906 L1975 313.906 Q1982.15 313.906 1985.46 310.665 Q1988.79 307.425 1988.79 300.434 Q1988.79 293.489 1985.46 290.272 Q1982.15 287.031 1975 287.031 L1969.35 287.031 M1964.67 283.189 L1974.28 283.189 Q1984.33 283.189 1989.03 287.378 Q1993.72 291.545 1993.72 300.434 Q1993.72 309.369 1989 313.559 Q1984.28 317.749 1974.28 317.749 L1964.67 317.749 L1964.67 283.189 Z" fill="#000000" fill-rule="evenodd" fill-opacity="1" /></svg>
